<svg xmlns="http://www.w3.org/2000/svg" viewBox="0 0 416.582 381.303"><defs><style>.a,.o{fill:none;}.a,.b,.c,.d,.e,.f,.h{fill-rule:evenodd;}.b{fill:#e0a879;}.c{fill:#f5c99e;}.d{fill:#c29a64;}.e{fill:#f2bc86;}.f,.x{fill:#ffdf69;}.g,.h{fill:#623307;}.h{opacity:0.32;}.i{fill:#4a210b;}.j{fill:#452705;}.k{fill:#724b46;}.l{fill:#5e2a12;}.m{fill:#331604;}.n{fill:#87af29;}.p{fill:#bede71;}.q{fill:#63801e;}.r{fill:#001000;opacity:0.2;}.s{fill:#681a16;}.t{fill:#991b02;}.u{fill:#ad1c04;}.ac,.v,.w{fill:#c74e3c;}.w{opacity:0.29;}.y{fill:#ffebb4;}.z{fill:#f9c163;}.aa{fill:#83220b;}.ab{fill:#b42b0d;}.ac{opacity:0.15;}.ad{fill:#e0aa7c;}.ae{fill:#f7d5b2;}.af{fill:#f3c190;}.ag{fill:#f9e9cc;}</style></defs><title>burger</title><path class="a" d="M20.942,323.7c0,70.068,81.433,56.552,184.381,56.552s181.718,13.516,181.718-58.832c0-34.549-23.133-26.7-183.02-26.7S20.942,284.283,20.942,323.7Z"/><path class="b" d="M371.522,362.644c-27.84,24.92-90.48,17.61-166.2,17.61-77.29,0-142.45,7.62-170.13-18.24,9.68,5.98,81.56,10.62,168.8,10.62C288.122,372.634,357.962,368.314,371.522,362.644Z"/><path class="c" d="M162.032,294.194c-2.65.06-5.29.13-7.9.21q-8.865-.105-16.96-.23h-.07c-70.9-1.08-99.68-2.42-110.42,8.75a.01.01,0,0,1-.01.01l-.05.06-.93,1.07c0,5.89,79.83,10.67,178.3,10.67s178.29-4.78,178.29-10.67v-.04l-1.2-1.21c-10.65-9.66-38.53-9.24-105.8-8.53h-.07q-8.91.09-18.77.18-3.51-.1-7.06-.2Z"/><path class="d" d="M386.3,312.594c-2.24,10-82.92,18.05-182.13,18.05-100.54,0-182.07-8.27-182.18-18.46v-.02c.07-.32.15-.63.23-.93,0-.01,0-.01.01-.02a19.3,19.3,0,0,1,3.46-7.15c0,5.89,79.83,10.67,178.3,10.67s178.29-4.78,178.29-10.67v-.04a16.989,16.989,0,0,1,3.58,6.78C386.032,311.384,386.172,311.974,386.3,312.594Z"/><path class="e" d="M387.042,321.424c0,17.58-4.65,30.09-13.18,38.96-.74.78-1.53,1.54-2.34,2.26-13.56,5.67-83.4,9.99-167.53,9.99-87.24,0-159.12-4.64-168.8-10.62-.35-.31-.69-.64-1.02-.98-8.54-8.52-13.23-20.52-13.23-37.33a52.062,52.062,0,0,1,1.05-11.52c.11,10.19,81.64,18.46,182.18,18.46,99.21,0,179.89-8.05,182.13-18.05A44.322,44.322,0,0,1,387.042,321.424Z"/><path class="f" d="M162.032,294.194c-2.65.06-5.29.13-7.9.21q-8.865-.105-16.96-.23l24.86.02,87.35.07q3.555.09,7.06.2,9.855-.09,18.77-.18l-25.83-.02Z"/><path class="g" d="M387.654,272.637c0-1.09-.03-2.07-.11-2.97-.02-.24-.04-.48-.07-.71a5.968,5.968,0,0,0-.09-.63,9.174,9.174,0,0,0-.59-2.2.01.01,0,0,0-.01-.01,3.478,3.478,0,0,0-.21-.48,1.091,1.091,0,0,0-.06-.11.01.01,0,0,1,.01-.01,6.706,6.706,0,0,0-3.83-3.1h-.01c-2.16-.82-5.22-1.28-9.56-1.52-5.39-.32-12.75-.32-22.77-.32q-11.49,0-22.46-.01-4.245.015-8.41,0-16.59.015-31.98-.01-4.71.015-9.3,0h-31.92c-3.14,0-6.23-.01-9.29-.01q-16.05,0-30.54,0-4.725,0-9.3.01-16.425,0-30.87.02c-3.26,0-6.45.01-9.57.01-10.54.02-20.27.05-29.25.09-3.02.01-5.95.03-8.8.04-10.86.06-20.52.15-29.12.25q-4.32.06-8.28.12c-34.81.55-49.88,1.65-56.33,3.81a1.006,1.006,0,0,0,.17.2,1.123,1.123,0,0,1-.18-.2c-.07.02-.13.05-.2.07a10.815,10.815,0,0,0-2.22,1.02.01.01,0,0,0-.01.01h-.01a.435.435,0,0,0-.07.04,4.986,4.986,0,0,0-1.43,1.32,4.92,4.92,0,0,0-.26.43,5.492,5.492,0,0,0-.5,2.55,35.521,35.521,0,0,0,.46,5.69,39.757,39.757,0,0,0,11.23,21.45c.23.23.45.45.68.67.33.32.66.63,1,.94l2.1,1.79h.01c6.61,5.28,14.49,8.4,21.84,8.4,17.23,0,230.23,9.09,282.47,0,12.62-2.19,21.93-4.76,28.78-7.57a54.424,54.424,0,0,0,6.18-2.95c.12-.06.23-.13.34-.19.33-.19.65-.37.95-.56,10.26-6.2,11.48-13.17,11.49-19.65C387.764,276.387,387.654,274.477,387.654,272.637Z"/><path class="h" d="M382.244,303.477v.04c0,6.04-79.8,10.95-178.25,10.95s-178.25-4.91-178.25-10.95l.93-1.1.05-.06a.01.01,0,0,0,.01-.01,19.433,19.433,0,0,1,5.86-4.2c.33.32.66.63,1,.94l2.1,1.79h.01c6.61,5.28,14.49,8.4,21.84,8.4,17.23,0,230.23,9.09,282.47,0,12.62-2.19,21.93-4.76,28.78-7.57a54.424,54.424,0,0,0,6.18-2.95c.12-.06.23-.13.34-.19a20.451,20.451,0,0,1,5.73,3.66Z"/><path class="i" d="M368.791,301.71c-6.85,2.81-16.16,5.38-28.78,7.57-52.24,9.09-265.24,0-282.47,0-7.35,0-15.23-3.12-21.84-8.4,14.22,3.31,84.46,5.82,168.98,5.82C281.941,306.7,347.271,304.6,368.791,301.71Z"/><path class="g" d="M387.757,278.361c-.01,6.48-1.23,13.45-11.49,19.65q-.615.375-1.29.75a54.623,54.623,0,0,1-6.19,2.95c-.34.05-.68.09-1.04.14s-.72.08-1.1.13c-2.65.31-5.81.61-9.45.9l-1.58.12c-3.59.27-7.61.54-12.02.79-.87.05-1.75.09-2.65.14-1.54.09-3.13.17-4.76.25l-2.58.12q-4.41.21-9.18.4h-.06c-1.45.06-2.92.12-4.41.17-2.28.09-4.63.17-7.03.25-.2.01-.41.02-.61.02l-4.68.15c-1.79.06-3.61.11-5.46.16s-3.72.11-5.61.16c-3.79.1-7.69.19-11.68.28q-2.9.045-5.85.12l-1.81.03q-8.925.18-18.39.3-4.365.06-8.82.11-3.33.045-6.72.07-10.455.1-21.37.14c-1.42.01-2.84.02-4.27.02q-6.42.015-12.98.02c-1.72,0-3.43,0-5.13-.01-1.71.01-3.41,0-5.1-.01a2.255,2.255,0,0,1-.26,0c-1.16,0-2.32-.01-3.47-.01-12.22-.04-24.07-.14-35.43-.27-.18-.01-.36-.01-.54-.01q-8.655-.1-16.89-.25h-.18q-4.845-.09-9.53-.18c-1.06-.02-2.12-.05-3.17-.07-2.09-.05-4.16-.09-6.21-.14-11.25-.27-21.68-.58-31.13-.95-.86-.03-1.71-.06-2.55-.1q-3.78-.15-7.35-.31c-.75-.03-1.49-.07-2.22-.1l-1.2-.06c-1.17-.05-2.32-.11-3.45-.17-1.55-.08-3.07-.16-4.55-.24-1.46-.08-2.87-.17-4.24-.25-1.03-.06-2.03-.13-3-.19-1.4-.09-2.74-.18-4.04-.28q-1.23-.09-2.4-.18c-.32-.03-.64-.05-.95-.08-1.08-.08-2.11-.17-3.11-.26-.98-.09-1.93-.18-2.83-.27-.45-.05-.89-.09-1.32-.14l-.85-.09c-.65-.07-1.27-.15-1.86-.22s-1.15-.15-1.68-.22l-.2-.03q-.42-.06-.81-.12a1.1,1.1,0,0,0-.18-.02c-.28-.05-.54-.09-.79-.13-.03-.01-.06-.01-.09-.02-.27-.04-.52-.09-.76-.13-.29-.05-.56-.11-.82-.16-.24-.05-.47-.1-.68-.15H35.7l-2.1-1.79c-.57-.52-1.13-1.05-1.68-1.61a39.757,39.757,0,0,1-11.23-21.45,35.521,35.521,0,0,1-.46-5.69,5.492,5.492,0,0,1,.5-2.55c3.71,2.84,17.72,5.45,39.03,7.57q5.43.555,11.48,1.06c9,.74,18.98,1.41,29.79,1.99h.01c3.42.18,6.91.36,10.49.52h.01c21.4,1,45.54,1.67,71.33,1.93h.03q10.125.09,20.58.1h.02c.89.01,1.79.01,2.69.01,18,0,35.4-.2,51.87-.58h.01q7.95-.18,15.58-.42h.04c23.95-.73,45.51-1.85,63.48-3.25h.01c1.17-.09,2.33-.18,3.47-.27a.41.41,0,0,1,.11-.01c22.53-1.86,38.98-4.18,46.79-6.77.08.9.11,1.88.11,2.97C387.657,274.481,387.767,276.391,387.757,278.361Z"/><path class="j" d="M35.7,300.88c-.72-.57-1.42-1.17-2.1-1.79Z"/><path class="k" d="M387.547,269.671c-7.81,2.59-24.26,4.91-46.79,6.77a.41.41,0,0,0-.11.01c-1.14.09-2.3.18-3.47.27h-.01c-17.97,1.4-39.53,2.52-63.48,3.25h-.04q-7.635.24-15.58.42h-.01c-16.47.38-33.87.58-51.87.58-.9,0-1.8,0-2.69-.01h-.02q-10.44,0-20.58-.1h-.03c-25.79-.26-49.93-.93-71.33-1.93h-.01c-3.58-.16-7.07-.34-10.49-.52h-.01c-10.81-.58-20.79-1.25-29.79-1.99q-6.045-.51-11.48-1.06c-21.31-2.12-35.32-4.73-39.03-7.57a4.92,4.92,0,0,1,.26-.43,4.986,4.986,0,0,1,1.43-1.32.435.435,0,0,1,.07-.04h.01a.01.01,0,0,1,.01-.01,10.815,10.815,0,0,1,2.22-1.02c.07-.02.13-.05.2-.07a3.527,3.527,0,0,0,1.5,1.02h.01a.01.01,0,0,0,.01.01h.01a5.718,5.718,0,0,0,.6.25c.11.04.23.08.34.12.19.07.39.13.59.2a1.543,1.543,0,0,1,.17.05c.13.04.27.08.41.12s.28.08.43.12c.44.12.92.24,1.43.36.34.08.7.16,1.07.24.43.09.88.18,1.35.28.34.06.68.13,1.04.19.43.08.87.15,1.33.23l.69.12c.23.03.47.07.72.11q.555.09,1.14.18c.37.05.74.1,1.12.16.74.1,1.5.21,2.28.31a1.1,1.1,0,0,0,.18.02c.28.04.56.08.85.11.95.12,1.93.24,2.95.36l1.63.18q2.895.315,6.12.62,2.565.24,5.34.48c.58.05,1.16.1,1.75.14.67.06,1.35.11,2.04.17.85.06,1.73.13,2.62.2,1.33.1,2.69.19,4.07.29.92.06,1.86.13,2.81.19s1.9.13,2.88.19q5.835.36,12.24.7h.01c.58.04,1.18.07,1.77.09q2.31.12,4.71.24l2.55.12c1.18.05,2.37.11,3.57.16l2.07.09h.01q7.95.33,16.51.62c1.12.04,2.25.08,3.39.11q7.74.24,15.91.45c1.85.05,3.71.09,5.59.13.82.02,1.65.04,2.48.05,4.07.09,8.22.17,12.42.24.44.01.88.01,1.32.02,2.21.03,4.43.07,6.67.1,12.3.17,25.08.26,38.2.27h2.26c2.13,0,4.24,0,6.35-.01s4.21-.01,6.3-.02c12.53-.05,24.71-.18,36.42-.37h.04l8.12-.15c2.1-.04,4.17-.09,6.22-.13.95-.02,1.9-.05,2.84-.07,1.9-.04,3.78-.09,5.65-.14.35-.01.69-.01,1.03-.03,1.29-.03,2.56-.06,3.83-.1s2.52-.07,3.77-.11,2.49-.08,3.73-.11l3.67-.12,1.8-.06,3.43-.12c3.04-.11,6.02-.23,8.94-.34,1.15-.05,2.28-.09,3.41-.14s2.24-.11,3.34-.15c.96-.05,1.91-.09,2.85-.13h.01c8.78-.42,16.9-.88,24.27-1.38,1.57-.11,3.09-.21,4.59-.32h.05c2.62-.2,5.14-.4,7.54-.6.56-.05,1.12-.1,1.67-.14.11-.02.21-.02.31-.03.37-.04.74-.07,1.11-.1l1.56-.15c.75-.07,1.48-.14,2.2-.21s1.44-.14,2.13-.22c.35-.04.7-.07,1.04-.11.42-.04.84-.08,1.24-.13.59-.06,1.17-.13,1.73-.2l1.04-.12c.41-.05.83-.1,1.23-.15.46-.06.92-.11,1.36-.17q3.1-.4,5.65-.83c.25-.04.48-.08.72-.12q.705-.12,1.35-.24a39.169,39.169,0,0,0,6.74-1.72,1.6,1.6,0,0,0,.23-.1.01.01,0,0,0,.01-.01h.01a.133.133,0,0,0,.08-.03,3.9,3.9,0,0,0,.41-.19,3.952,3.952,0,0,0,.41-.22l.06.12a3.478,3.478,0,0,1,.21.48.01.01,0,0,1,.01.01,9.174,9.174,0,0,1,.59,2.2,5.968,5.968,0,0,1,.09.63C387.507,269.191,387.527,269.431,387.547,269.671Z"/><path class="l" d="M386.52,265.52a7.316,7.316,0,0,1-1.15.55c-13.13,5.24-88.4,9.24-179.28,9.24-97.63,0-177.22-4.62-181.16-10.41,6.45-2.16,21.52-3.26,56.33-3.81q3.96-.06,8.28-.12c8.6-.1,18.26-.19,29.12-.25,2.85-.01,5.78-.03,8.8-.04,8.98-.04,18.71-.07,29.25-.09,3.12,0,6.31-.01,9.57-.01q14.46-.03,30.87-.02,4.575-.015,9.3-.01,14.505-.015,30.54,0c3.06,0,6.15.01,9.29.01H278.2q4.59.015,9.3,0,15.39.015,31.98.01,4.17.015,8.41,0,10.965.015,22.46.01c10.02,0,17.38,0,22.77.32,4.34.24,7.4.7,9.56,1.52h.01A6.706,6.706,0,0,1,386.52,265.52Z"/><path class="m" d="M89.54,260.97c-3.98,4.55-7.49,7.13-8.85,6.2-.96-.66-.67-2.93.57-6.08Q85.22,261.03,89.54,260.97Z"/><path class="m" d="M127.46,260.68c-4.42,5.34-8.47,8.51-9.95,7.49-1.09-.75-.57-3.6,1.15-7.45C121.51,260.71,124.44,260.69,127.46,260.68Z"/><path class="m" d="M166.28,260.58c-5.16,6.83-10.24,11.19-11.95,10.02-1.31-.91-.27-4.89,2.38-10.01C159.83,260.59,163.02,260.58,166.28,260.58Z"/><path class="m" d="M206.45,260.55c-4.89,6.27-9.57,10.16-11.19,9.05-1.24-.85-.4-4.39,1.89-9.04Q201.725,260.545,206.45,260.55Z"/><path class="m" d="M246.28,260.56c-4.89,6.26-9.57,10.15-11.19,9.04-1.24-.85-.39-4.4,1.9-9.05C240.05,260.55,243.14,260.56,246.28,260.56Z"/><path class="m" d="M278.2,260.56c-2.28,4.65-3.12,8.19-1.89,9.04,1.62,1.11,6.31-2.78,11.19-9.04h-9.3Z"/><path class="m" d="M327.89,260.57c-4.12,4.8-7.8,7.56-9.19,6.6-1.01-.7-.63-3.18.78-6.6Q323.65,260.585,327.89,260.57Z"/><path class="n" d="M416.442,269.434v-.01l-41.04-26.28-16.63.01-315.67.08H30.962L0,265.794l5.66-.1h.02l8.37-.14,8.88-.15h.01l3.95-.07h.01l36.35-.62,5.46-.09,18.38,7.4h.01l14.37,5.79h.01l35.57,14.32.02.01.02.01.43.24.09-.03h.02l.06.03,66.23-12.03h.02l30.07-5.46,24.49,4.89h.01l63.1,12.6.21.04,19.38-16.59,5.99-5.13,5.98-5.12,25.9,1.6,8.76.54,11.45.71,17.3,1.07Z"/><polygon class="o" points="137.62 292.36 137.52 292.39 137.07 292.14 137.62 292.36"/><polygon class="o" points="323.03 291.18 321.82 292.43 321.63 292.38 323.03 291.18"/><polygon class="p" points="137.07 292.143 137.62 292.365 231.123 267.606 321.626 292.376 323.032 291.182 352.39 260.876 416.444 269.427 375.401 243.147 358.767 243.151 377.109 254.564 347.208 250.076 317.549 272.971 233.161 255.969 150.1 267.772 86.398 250.076 32.528 250.076 43.098 243.232 30.958 243.235 0 265.789 5.659 265.692 71.627 256.134 137.07 292.143"/><polygon class="n" points="377.11 254.56 347.21 250.08 317.55 272.97 233.16 255.97 150.1 267.77 86.4 250.08 32.53 250.08 43.1 243.23 358.77 243.15 377.11 254.56"/><polygon class="q" points="321.63 292.38 321.61 292.39 234.01 274.9 137.69 292.39 137.62 292.36 231.12 267.61 321.63 292.38"/><polygon class="q" points="416.582 269.514 399.282 268.444 387.832 267.734 379.072 267.194 353.172 265.594 347.142 270.714 341.092 275.854 323.032 291.184 337.622 276.124 342.552 271.034 352.392 260.884 386.042 265.374 387.242 265.534 416.442 269.434 416.582 269.514"/><polygon class="q" points="137.052 292.134 101.482 277.814 101.472 277.814 87.102 272.024 87.092 272.024 68.712 264.624 63.252 264.714 26.902 265.334 26.892 265.334 22.942 265.404 22.932 265.404 14.052 265.554 5.682 265.694 71.632 256.134 79.622 260.534 81.342 261.474 86.252 264.184 101.772 272.724 101.782 272.724 111.972 278.334 111.982 278.334 137.052 292.134"/><path class="r" d="M388.2,277.764l-35.03-2.17-31.35,26.84-87.81-17.53-96.32,17.49-.06-.03h-.02l-.09.03-.43-.24-.02-.01-.02-.01-65.37-26.31-2.97-1.2-8.51.14-39.07.67a35.521,35.521,0,0,1-.46-5.69,5.492,5.492,0,0,1,.5-2.55,4.92,4.92,0,0,1,.26-.43,4.986,4.986,0,0,1,1.43-1.32.435.435,0,0,1,.07-.04l-8.88.15.01-.01,8.89-.15,3.92-.07h.01l36.37-.61,5.46-.09,18.38,7.4h.01l14.37,5.79h.01l35.57,14.32.02.01.02.01.43.24.09-.03h.02l.06.03,66.23-12.03h.02l30.07-5.46,24.49,4.89h.01l63.1,12.6v-.01h.02l.19.05,19.38-16.59,5.99-5.13,5.98-5.12,25.9,1.6,8.76.54a5.968,5.968,0,0,1,.09.63c.03.23.05.47.07.71.08.9.11,1.88.11,2.97C388.1,273.884,388.212,275.794,388.2,277.764Z"/><path class="o" d="M262.391,247.286a16.452,16.452,0,0,0,2.583-8.548l0-.028c.021-.482.019-.977,0-1.472h-.234c-1.272-6.367-5.529-11.26-10.34-11.332q-49.821-.66-99.646,0c-2.78.037-5.359,1.688-7.3,4.277a17.255,17.255,0,0,0-2.716,5.693l-.447,0-.457.017c-1.079-5.691-4.711-9.76-9.18-9.669q-49.818.927-99.609,3.172a12.587,12.587,0,0,0-7.653,3.4,13.746,13.746,0,0,0-4,6.307,10.766,10.766,0,0,0-.252,1.094,8.967,8.967,0,0,0,8.478,10.812q50.793,2.29,101.622,3.236a9.428,9.428,0,0,0,7.464-4.02,17.449,17.449,0,0,0,3.342-8.63c.175,7.151,4.359,12.894,9.7,12.977q50.826.674,101.658,0a8.874,8.874,0,0,0,7.11-4.28,16.866,16.866,0,0,0,2.587-10.058c-.022-.509-.063-1-.125-1.5A16.439,16.439,0,0,1,262.391,247.286Zm-129.007,4a9.049,9.049,0,0,0,6.678-3.142A9.049,9.049,0,0,1,133.384,251.285Zm10.789-12.546a.752.752,0,0,0-.016.141c-.008-.042-.006-.1-.014-.141a18.313,18.313,0,0,1-1.982,6.415,18.313,18.313,0,0,0,1.982-6.415v-.015c.011-.028.013-.07.024-.1a.2.2,0,0,0,.007.085l0,.029c.228,7.093,4.386,12.737,9.677,12.8C148.559,251.476,144.4,245.832,144.173,238.739Z"/><path class="o" d="M386.1,240.2a10.708,10.708,0,0,0-.253-1.094c-1.456-5.142-6.473-9.438-11.651-9.709q-49.788-2.245-99.609-3.172a8.273,8.273,0,0,0-6.948,4.023,15.689,15.689,0,0,0-2.439,6.989h-.233c.02.5.062.991.124,1.472v.029c-.02.5-.019.991,0,1.5.322,7.819,5.23,14.134,10.905,14.01q50.824-.945,101.621-3.236a9.03,9.03,0,0,0,6.75-3.409A9.263,9.263,0,0,0,386.1,240.2Zm-4.022,6.96A8.764,8.764,0,0,0,384,245.388,8.742,8.742,0,0,1,382.082,247.161Z"/><path class="s" d="M144.048,240.239c-.019.454-.018.907-.007,1.36a17.449,17.449,0,0,1-3.342,8.63,9.428,9.428,0,0,1-7.464,4.02q-50.825-.945-101.622-3.236A8.967,8.967,0,0,1,23.135,240.2a10.766,10.766,0,0,1,.252-1.094,8.8,8.8,0,0,0,8.589,9.62q50.686,1.81,101.408,2.558a9.448,9.448,0,0,0,7.449-4.047,17.435,17.435,0,0,0,3.31-8.5c.008.042.006.1.014.141C144.107,239.333,144.068,239.786,144.048,240.239Z"/><path class="t" d="M144.14,240.239c-.02.453-.059.907-.1,1.36-.011-.454-.012-.907.007-1.36s.06-.906.109-1.359C144.158,239.333,144.159,239.786,144.14,240.239Z"/><path class="s" d="M265.1,240.239a16.866,16.866,0,0,1-2.587,10.058,8.874,8.874,0,0,1-7.11,4.28q-50.826.672-101.658,0c-5.344-.083-9.528-5.826-9.7-12.977.039-.453.08-.906.1-1.36s.018-.906.017-1.359a.752.752,0,0,1,.016-.141c.228,7.093,4.386,12.737,9.677,12.8q50.721.532,101.446,0a8.829,8.829,0,0,0,7.1-4.258,16.439,16.439,0,0,0,2.583-8.548C265.036,239.234,265.077,239.73,265.1,240.239Z"/><path class="t" d="M144.157,238.88c0,.453,0,.906-.017,1.359s-.059.907-.1,1.36c-.011-.454-.012-.907.007-1.36S144.108,239.333,144.157,238.88Z"/><path class="s" d="M386.1,240.2a9.263,9.263,0,0,1-1.729,7.4,9.03,9.03,0,0,1-6.75,3.409Q326.832,253.3,276,254.249c-5.675.124-10.583-6.191-10.905-14.01-.022-.509-.023-1,0-1.5.833,7.121,5.467,12.638,10.759,12.546q50.717-.747,101.408-2.558A8.915,8.915,0,0,0,384,245.388a9.06,9.06,0,0,0,1.854-6.281A10.708,10.708,0,0,1,386.1,240.2Z"/><path class="u" d="M144.144,238.724v.015a17.435,17.435,0,0,1-3.31,8.5,9.449,9.449,0,0,1-7.449,4.047q-50.718-.747-101.408-2.558a8.8,8.8,0,0,1-8.589-9.62,13.746,13.746,0,0,1,4-6.307,12.587,12.587,0,0,1,7.653-3.4q49.788-2.245,99.609-3.172c4.469-.091,8.1,3.978,9.18,9.669A17.8,17.8,0,0,1,144.144,238.724Z"/><path class="t" d="M144.268,237.238c-.019.453-.059.906-.1,1.359v.028c-.011.029-.013.071-.024.1a17.913,17.913,0,0,0-.316-2.829l.457-.016C144.286,236.331,144.288,236.785,144.268,237.238Z"/><path class="u" d="M264.972,238.71l0,.028a16.452,16.452,0,0,1-2.583,8.548,8.825,8.825,0,0,1-7.1,4.258q-50.721.531-101.446,0c-5.291-.067-9.449-5.711-9.677-12.8l0-.029a18.6,18.6,0,0,1,.557-2.834,17.255,17.255,0,0,1,2.716-5.693c1.944-2.589,4.523-4.24,7.3-4.277q49.821-.66,99.646,0c4.811.072,9.068,4.965,10.34,11.332C264.839,237.719,264.911,238.214,264.972,238.71Z"/><path class="t" d="M144.285,235.879l.447,0a18.6,18.6,0,0,0-.557,2.834.2.2,0,0,1-.007-.085V238.6c-.01-.453-.012-.906.008-1.359S144.236,236.332,144.285,235.879Z"/><path class="t" d="M264.971,237.238c.02.5.022.99,0,1.472-.061-.5-.133-.991-.235-1.473Z"/><path class="u" d="M385.851,239.107A9.051,9.051,0,0,1,384,245.388a8.915,8.915,0,0,1-6.734,3.339q-50.686,1.81-101.408,2.558c-5.291.092-9.926-5.425-10.759-12.546v-.029c.019-.5.049-.991.109-1.472a15.689,15.689,0,0,1,2.439-6.989,8.273,8.273,0,0,1,6.948-4.023q49.817.927,99.609,3.172C379.378,229.669,384.4,233.965,385.851,239.107Z"/><path class="t" d="M265.2,237.238c-.06.481-.09.977-.109,1.472-.062-.481-.1-.977-.124-1.472Z"/><path class="v" d="M78.322,247.165Q69.4,247,60.474,246.812c-3.747-.1-6.36-3.661-5.807-7.915h0c.552-4.254,4.022-7.842,7.71-7.968q8.807-.256,17.612-.482c3.689-.109,6.356,3.646,5.927,8.337h0C85.486,243.475,82.069,247.249,78.322,247.165Z"/><path class="v" d="M122.751,242.358q-9.816-.036-19.631-.078c-2.616-.018-4.531-2.788-4.257-6.155h0c.274-3.367,2.614-6.173,5.2-6.233q9.725-.2,19.45-.362c2.586-.048,4.542,2.827,4.348,6.384h0C127.665,239.472,125.366,242.371,122.751,242.358Z"/><path class="v" d="M206.321,247.174q-16.6,0-33.2-.062c-3.523-.018-6.3-4.1-6.162-9.07h0c.133-4.969,3.083-9.06,6.554-9.086q16.394-.1,32.788-.1c3.472,0,6.338,4.126,6.369,9.16h0C212.7,243.05,209.845,247.173,206.321,247.174Z"/><path class="v" d="M238.56,242.477l-6.916.009c-2.615,0-4.8-3.05-4.854-6.787h0c-.055-3.737,2.017-6.785,4.6-6.769q3.426.019,6.851.043c2.587.02,4.786,3.066,4.887,6.765h0C243.233,239.438,241.175,242.471,238.56,242.477Z"/><path class="v" d="M327.087,246.231q-15.927.246-31.856.427c-3.523.05-6.637-3.782-6.921-8.511h0c-.283-4.729,2.324-8.543,5.8-8.47q15.73.288,31.46.678c3.47.1,6.672,3.688,7.117,7.968h0C333.127,242.6,330.61,246.163,327.087,246.231Z"/><path class="v" d="M359.224,241.988l-5.877.038c-2.614.025-5.053-2.462-5.418-5.528h0c-.365-3.065,1.451-5.5,4.036-5.418q2.912.088,5.823.18c2.584.09,5.035,2.532,5.444,5.423h0C363.641,239.573,361.837,241.961,359.224,241.988Z"/><path class="v" d="M368.77,231.617q-2.351-.079-4.7-.156a6.237,6.237,0,0,1,5.473,5.3c.425,2.821-1.365,5.153-3.979,5.181l4.748-.034a4.147,4.147,0,0,0,3.957-5.084A6.235,6.235,0,0,0,368.77,231.617Z"/><path class="v" d="M49.047,239.459c.489-3.573,3.477-6.575,6.638-6.667q-4.739.117-9.475.242c-3.161.1-6.173,3-6.692,6.447s1.676,6.336,4.881,6.419,6.388.135,9.583.2C50.777,246.021,48.556,243.031,49.047,239.459Z"/><path class="w" d="M148.163,248.981q-.231-.231-.451-.478Q147.933,248.751,148.163,248.981Z"/><path class="w" d="M148.3,249.12a9.635,9.635,0,0,0,1.261,1.027A9.57,9.57,0,0,1,148.3,249.12Z"/><path class="w" d="M146.056,246.1a13.17,13.17,0,0,0,.971,1.552A13.04,13.04,0,0,1,146.056,246.1Z"/><path class="w" d="M149.753,250.27c.16.1.323.2.487.292C150.076,250.471,149.913,250.373,149.753,250.27Z"/><path class="w" d="M380.884,250.259c-.1.042-.185.1-.283.133a9.388,9.388,0,0,1-2.976.621Q326.832,253.3,276,254.249a7.6,7.6,0,0,1-2.085-.246,9.279,9.279,0,0,1-3.774-2.071q-.429-.376-.829-.8a14.784,14.784,0,0,1-2.688-4.149q-.264-.6-.487-1.234c-.045-.127-.079-.262-.122-.391l-1.392-.021a15.161,15.161,0,0,1-2.115,4.965,10.575,10.575,0,0,1-3.15,3.1,8.265,8.265,0,0,1-.927.5,7.509,7.509,0,0,1-3.033.688q-50.826.672-101.658,0c-4.378-.068-7.975-3.934-9.23-9.26l-1.285.018a16.151,16.151,0,0,1-2.53,4.9,9.428,9.428,0,0,1-7.464,4.02q-12.707-.235-25.411-.556-25.41-.642-50.812-1.619-12.7-.488-25.4-1.061a9.537,9.537,0,0,1-3.528-.872c-7.068.834-10.929,1.732-10.929,2.668,0,4.365,83.649,7.9,186.836,7.9s186.836-3.538,186.836-7.9C390.828,251.917,387.328,251.059,380.884,250.259Z"/><path class="w" d="M152.005,251.281a7.315,7.315,0,0,0,.748.16A7.315,7.315,0,0,1,152.005,251.281Z"/><path class="w" d="M145.979,245.954c-.11-.213-.215-.432-.317-.654h0Q145.813,245.633,145.979,245.954Z"/><path class="w" d="M152.978,251.474a7.394,7.394,0,0,0,.872.069A7.394,7.394,0,0,1,152.978,251.474Z"/><path class="w" d="M151.172,251.007a7.542,7.542,0,0,0,.729.249A7.542,7.542,0,0,1,151.172,251.007Z"/><path class="w" d="M150.462,250.681c.175.09.352.172.531.248C150.814,250.853,150.637,250.771,150.462,250.681Z"/><polygon class="w" points="139.281 248.901 139.281 248.9 139.281 248.901 139.28 248.901 139.281 248.901"/><path class="w" d="M147.122,247.779q.214.285.441.552Q147.337,248.064,147.122,247.779Z"/><polygon class="w" points="135.714 250.943 135.717 250.942 135.713 250.943 135.71 250.944 135.714 250.943"/><polygon class="w" points="135.344 251.05 135.346 251.05 135.345 251.05 135.343 251.05 135.344 251.05"/><path class="w" d="M263.48,245.316a13.842,13.842,0,0,1-1.089,1.97,13.842,13.842,0,0,0,1.089-1.97Z"/><polygon class="w" points="134.694 251.177 134.698 251.176 134.696 251.176 134.692 251.177 134.694 251.177"/><polygon class="w" points="136.295 250.748 136.297 250.747 136.295 250.748 136.293 250.749 136.295 250.748"/><polygon class="w" points="138.122 249.791 138.125 249.789 138.122 249.791 138.118 249.793 138.122 249.791"/><polygon class="w" points="138.453 249.566 138.454 249.565 138.453 249.565 138.452 249.566 138.453 249.566"/><polygon class="w" points="136.669 250.593 136.671 250.592 136.669 250.593 136.666 250.594 136.669 250.593"/><polygon class="w" points="139.013 249.122 139.017 249.119 139.014 249.121 139.01 249.124 139.013 249.122"/><polygon class="w" points="137.582 250.131 137.584 250.13 137.581 250.132 137.579 250.133 137.582 250.131"/><polygon class="w" points="137.22 250.328 137.224 250.327 137.221 250.328 137.218 250.329 137.22 250.328"/><path class="x" d="M387.883,227.761c-3.331-13.5-17.14-23.747-34.034-24.536-35.234-1.441-88.417-2.676-145.558-1.732q-3.645.065-7.32.137-3.644.065-7.3.154c-8.467.2-17,.446-25.536.746-22.829.807-45.761,2.024-67.955,3.765q-7.165.554-14.229,1.192c-16.054,1.45-31.615,3.191-46.336,5.283-10.579,1.664-18.524,8.816-19.97,17.538a19.069,19.069,0,0,0-.266,2.659,1.921,1.921,0,0,0,1.876,1.775c6.468.583,28.806,2.6,57.5,5.2,30.652,2.77,68.551,6.2,102.083,9.236,11.461,1.038,22.409,2.024,32.384,2.933,10.159.918,19.313,1.741,26.961,2.436,2.86.257,5.5.5,7.914.712,3.013.274,5.669.514,7.893.72,2.6.232,4.634.421,6.018.541a8.268,8.268,0,0,0,4.09-.661c7.75-3.413,37.079-16.011,54.977-19.253,18.084-3.276,56-2.693,65.465-2.487a2.222,2.222,0,0,0,1.5-.515,1.525,1.525,0,0,0,.564-1.26A26.247,26.247,0,0,0,387.883,227.761Z"/><path class="x" d="M243.781,249.844c-2.461-.214-5.126-.454-7.965-.711-3.414-4.091-6.889-8.036-10.139-11.9-7.166-8.5-14.26-17.187-21.815-25.248-1.783-1.9-5.679-6-10.19-10.206q3.66-.09,7.3-.154c4.419,4.134,8.232,8.139,9.975,10.008,7.565,8.07,14.659,16.741,21.825,25.248C236.3,241.08,240.09,245.376,243.781,249.844Z"/><path class="x" d="M85.952,207.487a29.134,29.134,0,0,0-4.736,3.825,19.922,19.922,0,0,0-6.11,16.063,30.224,30.224,0,0,0,1.6,7.71c-25.034-2.161-45.915-3.928-57.059-4.777,1.446-8.722,9.391-15.874,19.97-17.538C54.337,210.678,69.9,208.937,85.952,207.487Z"/><path class="x" d="M211.305,246.946c-11.871-1.055-25.085-2.23-38.914-3.456-2.912-1.93-5.833-3.843-8.8-5.721-9.318-5.917-42.758-26.68-63.414-31.474,22.194-1.741,45.126-2.958,67.955-3.765.011.429.021.849.052,1.278a37.071,37.071,0,0,0,2.358,10.454c2.275,6.081,11.542,8.568,20.031,11.261,5.833,1.844,11.286,3.8,13.829,7.092C207.378,236.457,209.367,241.663,211.305,246.946Z"/><path class="x" d="M387.883,227.761c-20.513.3-47.638,1.329-62.01,3.559-21.281,3.31-56.894,17.53-61.549,20.1a1.46,1.46,0,0,1-.871.189s-4.275-.386-11.707-1.046c-3.957-4.863-8.078-9.5-11.891-14.031-7.166-8.5-14.25-17.186-21.815-25.248-1.722-1.835-5.423-5.728-9.749-9.793,57.141-.944,110.324.291,145.558,1.732C370.743,204.014,384.552,214.262,387.883,227.761Z"/><path class="y" d="M172.391,243.49c-31.646-2.805-66.49-5.875-95.686-8.405a30.224,30.224,0,0,1-1.6-7.71,19.922,19.922,0,0,1,6.11-16.063,29.134,29.134,0,0,1,4.736-3.825q7.058-.63,14.229-1.192c20.656,4.794,54.1,25.557,63.414,31.474C166.558,239.647,169.479,241.56,172.391,243.49Z"/><path class="y" d="M235.816,249.133c-7.166-.635-15.439-1.381-24.511-2.187-1.938-5.283-3.927-10.489-6.9-14.331-2.543-3.293-8-5.248-13.829-7.092-8.489-2.693-17.756-5.18-20.031-11.261a37.071,37.071,0,0,1-2.358-10.454c-.031-.429-.041-.849-.052-1.278,8.54-.3,17.069-.549,25.536-.746,4.511,4.211,8.407,8.31,10.19,10.206,7.555,8.061,14.649,16.749,21.815,25.248C228.927,241.1,232.4,245.042,235.816,249.133Z"/><path class="y" d="M251.746,250.565c-2.348-.215-5.013-.455-7.965-.721-3.691-4.468-7.484-8.764-11.01-12.958-7.166-8.507-14.26-17.178-21.825-25.248-1.743-1.869-5.556-5.874-9.975-10.008q3.675-.078,7.32-.137c4.326,4.065,8.027,7.958,9.749,9.793,7.565,8.062,14.649,16.75,21.815,25.248C243.668,241.063,247.789,245.7,251.746,250.565Z"/><path class="z" d="M388.6,232.341a1.525,1.525,0,0,1-.564,1.26,2.222,2.222,0,0,1-1.5.515c-9.462-.206-47.381-.789-65.465,2.487-17.9,3.242-47.227,15.84-54.977,19.253a8.268,8.268,0,0,1-4.09.661c-1.384-.12-3.414-.309-6.018-.541-2.224-.206-4.88-.446-7.893-.72-2.409-.215-5.054-.455-7.914-.712-7.648-.7-16.8-1.518-26.961-2.436-9.975-.909-20.923-1.9-32.384-2.933-33.532-3.035-71.431-6.466-102.083-9.236-28.693-2.6-51.031-4.614-57.5-5.2a1.921,1.921,0,0,1-1.876-1.775,19.069,19.069,0,0,1,.266-2.659c11.144.849,32.025,2.616,57.059,4.777,29.2,2.53,64.04,5.6,95.686,8.405,13.829,1.226,27.043,2.4,38.914,3.456,9.072.806,17.345,1.552,24.511,2.187,2.839.257,5.5.5,7.965.711,2.952.266,5.617.506,7.965.721,7.432.66,11.707,1.046,11.707,1.046a1.46,1.46,0,0,0,.871-.189c4.655-2.572,40.268-16.792,61.549-20.1,14.372-2.23,41.5-3.259,62.01-3.559A26.247,26.247,0,0,1,388.6,232.341Z"/><path class="x" d="M386.885,206.205c-.719-3.536-4.068-6.473-8.325-7.277-36.765-6.695-80.233-11.487-124.181-14.048q4.1,4.245,0,0-3.651-.213-7.321-.408h0q-3.651-.191-7.3-.365-12.345-.6-24.611-.971h0c-65.862-2.109-128.574.81-166.895,4.5-16.011,2.145-28.3,16.756-27.233,29.883.01.091.011.174.02.265l-.04,0A1.75,1.75,0,0,0,23,219.174c0-.062,34.935-4.666,35.372-4.633l2.6-.154c.323-.024.646-.04.969-.064l.3-.015c.272-.021.555-.035.827-.048,1.312-.08,2.584-.15,3.815-.224l.272-.013c.3-.014.6-.036.888-.05.485-.031.959-.061,1.423-.083s.929-.059,1.383-.08c.283-.021.575-.034.858-.047s.565-.026.838-.046c.322-.023.635-.037.938-.051a35.536,35.536,0,0,1,16.815,3.069c.161.077.322.145.494.23a1.686,1.686,0,0,1,.232.1l.01.008c.243.107.485.222.737.337.1.054.212.1.323.154.323.145.646.3.969.453.646.292,1.3.6,1.978.906.343.162.7.332,1.05.493s.706.323,1.06.493.727.331,1.09.5c9.912,4.6,22.481,10.506,31.4,14.747,1.474.693,2.837,1.342,4.079,1.935.626.3,1.212.578,1.767.839q1.363.654,2.424,1.166c.151.071.293.135.434.206s.263.127.384.183a8.188,8.188,0,0,0,4.595.682c4.414-.6,14.474-1.959,28.11-3.7,14.727-1.887,33.616-4.2,54.1-6.485,9.353-1.045,19.039-2.091,28.805-3.111,6.242-.64,12.5-1.277,18.734-1.9,2.141-.207,4.271-.42,6.392-.623q3.21-.315,6.392-.617c40.593-3.93,77.872-6.763,93.433-8.583a10.8,10.8,0,0,0,2.47-.6,8.646,8.646,0,0,0,3.69-2.6A6.793,6.793,0,0,0,386.885,206.205Z"/><path class="z" d="M385.457,211.95a8.646,8.646,0,0,1-3.69,2.6,10.8,10.8,0,0,1-2.47.6c-15.56,1.82-52.84,4.653-93.433,8.583q-3.181.3-6.392.617c-2.121.2-4.251.416-6.392.623-6.231.625-12.492,1.262-18.734,1.9-9.766,1.02-19.452,2.066-28.805,3.111-20.485,2.289-39.374,4.6-54.1,6.485-13.636,1.741-23.7,3.1-28.11,3.7a8.188,8.188,0,0,1-4.595-.682c-.121-.056-.253-.119-.384-.183s-.283-.135-.434-.206q-1.06-.512-2.424-1.166c-.555-.261-1.141-.538-1.767-.839-1.242-.593-2.6-1.242-4.079-1.935-8.916-4.241-21.485-10.15-31.4-14.747-.363-.17-.727-.34-1.09-.5s-.707-.331-1.06-.493-.707-.331-1.05-.493c-.676-.307-1.332-.614-1.978-.906-.323-.154-.646-.308-.969-.453-.111-.054-.222-.1-.323-.154-.252-.115-.494-.23-.737-.337l-.01-.008a1.686,1.686,0,0,0-.232-.1c-.172-.085-.333-.153-.494-.23a35.536,35.536,0,0,0-16.815-3.069c-.3.014-.616.028-.938.051-.273.02-.556.033-.838.046s-.575.026-.858.047c-.454.021-.908.05-1.383.08s-.938.052-1.423.083c-.292.014-.585.036-.888.05l-.272.013c-1.231.074-2.5.144-3.815.224-.272.013-.555.027-.827.048l-.3.015c-.323.024-.646.04-.969.064l-2.6.154C57.938,214.508,23,219.112,23,219.174A1.75,1.75,0,0,1,21,217.787a.237.237,0,0,1,.04,0c-.01-.091-.01-.174-.02-.265,8.588-2.191,59.912-9.3,59.916-9.172a6.68,6.68,0,0,1,3.129.6c8.584,3.834,51.712,24.109,56.391,26.451a1.443,1.443,0,0,0,.858.123s5.383-.822,14.514-2.155c14.059-2.057,37.009-5.277,62.837-8.448,10.848-1.334,22.19-2.67,33.6-3.926,5.464-.608,10.947-1.2,16.4-1.769q3.2-.34,6.382-.657,3.211-.333,6.392-.644c35.5-3.567,67.815-5.946,82.775-6.738A169.09,169.09,0,0,1,385.457,211.95Z"/><path class="x" d="M385.457,211.95a169.1,169.1,0,0,0-21.243-.765c-14.96.792-47.271,3.171-82.775,6.738-5.9-7.82-11.788-15.689-18.071-23.082-1.575-1.861-4.99-5.819-8.989-9.961,43.948,2.561,87.416,7.353,124.181,14.048,4.257.8,7.606,3.741,8.325,7.277A6.793,6.793,0,0,1,385.457,211.95Z"/><path class="x" d="M252.265,220.993c-11.413,1.256-22.755,2.592-33.6,3.926-3.222-2.344-6.475-4.674-9.778-6.948-10.082-7.023-50.014-33.586-68.137-33.247-4.251.05-8.725,3.617-10.987,5.687a20.107,20.107,0,0,0-6.769,15.532,33.138,33.138,0,0,0,4.3,15.011c3.249,6.04,14.922,9.5,28.537,12.413-9.131,1.333-14.514,2.157-14.514,2.155a1.451,1.451,0,0,1-.858-.123c-4.679-2.342-47.807-22.617-56.391-26.451a6.68,6.68,0,0,0-3.129-.6c0-.129-51.328,6.981-59.916,9.172-1.069-13.127,11.222-27.738,27.233-29.883,38.321-3.69,101.033-6.609,166.9-4.5a18.76,18.76,0,0,0-.071,2.136,34.906,34.906,0,0,0,1.778,10.206,8.6,8.6,0,0,0,.4,1.016c.051.1.111.192.162.292.121.225.253.45.394.666.071.109.141.209.222.317.142.2.293.4.455.593.08.1.171.2.252.3.182.2.374.393.576.585.081.075.161.159.242.242.263.234.535.46.818.686a1,1,0,0,0,.1.084c.334.26.687.511,1.051.754l.151.1c.313.21.637.4.96.6.111.059.212.118.323.177.283.168.586.328.889.488.111.059.232.126.353.185.314.161.627.32.95.472.111.051.212.1.323.152.384.178.778.355,1.172.533a1.114,1.114,0,0,1,.141.059c.94.406,1.919.8,2.909,1.18.01.008.02.008.03.017,2.01.765,4.08,1.5,6.111,2.246.444.163.888.326,1.323.489a.087.087,0,0,0,.04.017c.354.137.707.265,1.051.4.121.043.232.095.353.138.253.1.515.205.758.308.151.052.293.111.434.171.253.1.495.206.747.309.152.068.3.137.465.2.3.137.606.274.9.411.151.068.3.136.454.213.192.086.374.18.566.274.151.076.313.154.465.23.171.094.343.188.515.273.151.085.3.163.444.248.182.1.354.2.525.306.132.077.253.153.384.23.273.17.545.34.8.527.1.06.182.135.283.2.172.119.343.246.5.373l.3.254c.141.119.283.245.424.364.091.092.182.177.273.262.141.135.273.278.4.413.071.084.141.16.212.236a8.429,8.429,0,0,1,.535.673A31.97,31.97,0,0,1,252.265,220.993Z"/><path class="x" d="M275.047,218.567q-3.18.321-6.382.657c-6.273-8.26-12.506-16.624-19.172-24.45-1.677-1.971-5.414-6.283-9.737-10.667q3.651.169,7.3.365c4.161,4.267,7.747,8.4,9.373,10.327C262.9,202.405,268.966,210.522,275.047,218.567Z"/><path class="y" d="M218.662,224.919c-25.828,3.171-48.778,6.391-62.837,8.448-13.614-2.911-25.287-6.374-28.537-12.413a33.154,33.154,0,0,1-4.3-15.011,20.108,20.108,0,0,1,6.769-15.532c2.262-2.07,6.736-5.637,10.987-5.687,18.123-.339,58.055,26.224,68.137,33.247C212.187,220.245,215.439,222.575,218.662,224.919Z"/><path class="y" d="M240.545,209.064c-.247-.1-.495-.21-.746-.313C240.051,208.854,240.3,208.959,240.545,209.064Z"/><path class="y" d="M238.253,208.135c-.346-.134-.693-.267-1.044-.4C237.56,207.868,237.907,208,238.253,208.135Z"/><path class="y" d="M239.371,208.577c-.253-.1-.506-.2-.762-.3C238.865,208.374,239.118,208.475,239.371,208.577Z"/><path class="y" d="M229.7,204.965c-.993-.382-1.967-.774-2.91-1.182C227.731,204.191,228.705,204.583,229.7,204.965Z"/><path class="y" d="M223.85,202.384c-.3-.16-.6-.324-.892-.49C223.25,202.06,223.546,202.224,223.85,202.384Z"/><path class="y" d="M225.158,203.04q-.486-.232-.956-.473Q224.671,202.807,225.158,203.04Z"/><path class="y" d="M226.65,203.721q-.6-.258-1.172-.529Q226.054,203.462,226.65,203.721Z"/><path class="y" d="M249,214.752c-.163-.232-.343-.457-.533-.678A8.61,8.61,0,0,1,249,214.752Z"/><path class="y" d="M246.849,212.549c-.163-.128-.334-.254-.507-.379C246.515,212.3,246.686,212.421,246.849,212.549Z"/><path class="y" d="M248.252,213.842c-.129-.141-.262-.281-.4-.417C247.99,213.562,248.123,213.7,248.252,213.842Z"/><path class="y" d="M241.911,209.666q-.445-.2-.9-.4Q241.465,209.462,241.911,209.666Z"/><path class="y" d="M222.645,201.715q-.5-.292-.961-.6Q222.151,201.422,222.645,201.715Z"/><path class="y" d="M242.927,210.153c-.185-.092-.373-.182-.562-.272C242.554,209.971,242.742,210.061,242.927,210.153Z"/><path class="y" d="M243.912,210.663c-.17-.092-.342-.182-.517-.273Q243.657,210.525,243.912,210.663Z"/><path class="y" d="M244.88,211.213c-.173-.1-.346-.206-.525-.307C244.534,211.007,244.708,211.11,244.88,211.213Z"/><path class="y" d="M246.063,211.967c-.258-.18-.527-.355-.8-.528C245.536,211.611,245.805,211.787,246.063,211.967Z"/><path class="y" d="M220.374,200.175q-.424-.335-.811-.687Q219.949,199.841,220.374,200.175Z"/><path class="y" d="M219.312,199.245c-.2-.191-.388-.385-.567-.584C218.924,198.86,219.115,199.054,219.312,199.245Z"/><path class="y" d="M229.732,204.978c2.444.94,4.993,1.823,7.432,2.741q-.657-.248-1.322-.493C233.813,206.482,231.737,205.749,229.732,204.978Z"/><path class="y" d="M221.528,201.017q-.547-.366-1.05-.755Q220.979,200.65,221.528,201.017Z"/><path class="y" d="M247.151,212.8q.219.183.425.37Q247.371,212.981,247.151,212.8Z"/><path class="y" d="M244.355,210.906c-.145-.082-.294-.163-.443-.243Q244.136,210.783,244.355,210.906Z"/><path class="y" d="M243.4,210.39c-.154-.079-.31-.159-.468-.237C243.085,210.231,243.24,210.311,243.4,210.39Z"/><path class="y" d="M248.465,214.074c-.068-.078-.142-.155-.213-.232C248.323,213.919,248.4,214,248.465,214.074Z"/><path class="y" d="M222.958,201.894c-.1-.06-.211-.119-.313-.179C222.747,201.775,222.854,201.834,222.958,201.894Z"/><path class="y" d="M246.342,212.17c-.093-.067-.182-.137-.279-.2C246.16,212.033,246.249,212.1,246.342,212.17Z"/><path class="y" d="M247.849,213.425c-.088-.087-.18-.172-.273-.257C247.669,213.253,247.761,213.338,247.849,213.425Z"/><path class="y" d="M245.259,211.439c-.123-.077-.252-.151-.379-.226C245.007,211.288,245.136,211.363,245.259,211.439Z"/><path class="y" d="M246.849,212.549c.1.082.2.166.3.249C247.052,212.715,246.952,212.631,246.849,212.549Z"/><path class="y" d="M225.478,203.192c-.108-.05-.214-.1-.32-.152C225.265,203.091,225.37,203.142,225.478,203.192Z"/><path class="y" d="M220.478,200.262c-.036-.028-.068-.058-.1-.087C220.41,200.2,220.442,200.234,220.478,200.262Z"/><path class="y" d="M226.788,203.783l-.138-.062C226.7,203.742,226.741,203.763,226.788,203.783Z"/><path class="y" d="M221.684,201.116c-.051-.033-.1-.065-.156-.1C221.579,201.051,221.633,201.082,221.684,201.116Z"/><path class="y" d="M229.732,204.978l-.034-.013Z"/><path class="y" d="M224.2,202.567c-.118-.06-.235-.121-.352-.183C223.967,202.446,224.084,202.507,224.2,202.567Z"/><path class="y" d="M238.609,208.274l-.356-.139Z"/><path class="y" d="M241.008,209.262c-.153-.067-.308-.132-.463-.2C240.7,209.13,240.855,209.2,241.008,209.262Z"/><path class="y" d="M237.209,207.736l-.045-.017Z"/><path class="y" d="M218.745,198.661c-.089-.1-.173-.2-.257-.3C218.572,198.463,218.656,198.563,218.745,198.661Z"/><path class="y" d="M242.365,209.881c-.151-.071-.3-.144-.454-.215C242.065,209.737,242.214,209.81,242.365,209.881Z"/><path class="y" d="M239.8,208.751c-.142-.059-.285-.116-.428-.174C239.514,208.635,239.657,208.692,239.8,208.751Z"/><path class="y" d="M219.563,199.488c-.087-.08-.167-.162-.251-.243C219.4,199.326,219.476,199.408,219.563,199.488Z"/><path class="y" d="M268.665,219.224c-5.453.569-10.937,1.161-16.4,1.769A31.916,31.916,0,0,0,249,214.748a8.429,8.429,0,0,0-.535-.673c-.071-.076-.141-.152-.212-.236-.131-.135-.263-.278-.4-.413-.091-.085-.182-.169-.273-.262-.141-.119-.283-.245-.424-.364l-.3-.254c-.162-.127-.333-.254-.5-.373-.1-.068-.182-.144-.283-.2-.253-.187-.525-.357-.8-.527-.131-.077-.252-.153-.384-.23-.171-.1-.343-.2-.525-.306-.141-.086-.293-.163-.444-.248-.172-.085-.344-.179-.515-.273-.152-.077-.314-.153-.465-.23-.192-.094-.374-.188-.566-.274-.151-.077-.3-.145-.454-.213-.293-.137-.6-.274-.9-.411-.162-.06-.313-.128-.465-.2-.252-.1-.494-.206-.747-.309-.141-.06-.283-.12-.434-.171-.243-.1-.505-.206-.758-.308-.121-.043-.232-.095-.353-.138-.344-.136-.7-.265-1.051-.4a.1.1,0,0,1-.04-.017c-.434-.163-.879-.326-1.323-.489-2.03-.746-4.1-1.481-6.111-2.246-.01-.009-.02-.009-.03-.017-.99-.383-1.969-.774-2.909-1.18a1.114,1.114,0,0,0-.141-.059c-.394-.178-.788-.355-1.172-.533-.111-.05-.212-.1-.323-.152-.323-.151-.636-.312-.95-.472-.121-.059-.242-.126-.353-.185-.3-.16-.606-.32-.889-.488-.111-.059-.212-.118-.323-.177-.324-.2-.646-.394-.96-.6l-.151-.1c-.364-.243-.717-.494-1.051-.754a.882.882,0,0,1-.1-.084c-.282-.225-.555-.452-.818-.686-.081-.083-.161-.167-.242-.242-.2-.192-.394-.384-.576-.585-.081-.1-.172-.2-.252-.3-.162-.192-.313-.393-.455-.593-.081-.108-.151-.208-.222-.317-.142-.216-.273-.441-.394-.666-.051-.1-.111-.192-.162-.292a8.6,8.6,0,0,1-.4-1.016,34.912,34.912,0,0,1-1.778-10.206,18.76,18.76,0,0,1,.071-2.136q12.255.372,24.611.971c4.323,4.384,8.06,8.7,9.737,10.667C256.16,202.6,262.392,210.965,268.665,219.224Z"/><path class="y" d="M281.439,217.923q-3.18.315-6.392.644c-6.081-8.045-12.142-16.162-18.616-23.768-1.626-1.924-5.212-6.06-9.373-10.327q3.665.192,7.321.408c4,4.142,7.414,8.1,8.989,9.961C269.651,202.234,275.54,210.1,281.439,217.923Z"/><path class="x" d="M383.573,195.658v-.01a19.413,19.413,0,0,0-1.215-4.515,20.523,20.523,0,0,0-17.429-12.691c-32.686-1.961-68.4-2.4-104.231-2.409q-3.621,0-7.241.011c.522.627,1.02,1.231,1.5,1.819-.482-.588-.98-1.192-1.5-1.819q-3.606,0-7.209.017-14.4.06-28.66.186c-19.877.173-39.393.414-58.03.656-9.753.139-19.272.268-28.456.4h-.01c-36.671.535-68.11,1-88.871,1.559A19.016,19.016,0,0,0,25.155,191.6a17.982,17.982,0,0,0-.736,2.922l0,.01a1.965,1.965,0,0,0,.472,1.617,2.1,2.1,0,0,0,1.572.687c10.8.045,55.691-.085,96.711,1.137,22.225.736,43.367,2,57.592,4.867a184.845,184.845,0,0,1,29.751,9.294c18.513,7.278,37.835,16.874,53.351,24.94,17.576,9.151,30.15,16.39,30.141,16.4q1.9-3.032,3.78-6.065,1.944-3.141,3.87-6.286,1.826-2.985,3.636-5.973,5.757-9.48,11.355-18.987,33.094-8.694,65.5-18.326A1.982,1.982,0,0,0,383.573,195.658Z"/><path class="x" d="M382.357,191.133c-21.579,6.37-48.154,15.952-69.052,20.481q-5.277,9.87-10.715,19.716c-4.623-6.366-9.44-12.415-13.83-18.3-7.411-9.968-14.607-20.171-22.125-29.7-1.183-1.5-3.329-4.188-5.938-7.3,35.831.008,71.545.448,104.231,2.409A20.523,20.523,0,0,1,382.357,191.133Z"/><path class="x" d="M131.091,177.305a25.738,25.738,0,0,0-6.734,11.173C85.79,188.371,43.8,190,25.155,191.6A19.016,19.016,0,0,1,42.22,178.864C62.981,178.306,94.42,177.84,131.091,177.305Z"/><path class="x" d="M260.54,227.585c-24.461-14.043-55.7-31.512-75.178-35.243-.55-.1-1.11-.2-1.67-.294A224.457,224.457,0,0,0,159.557,176.9c18.637-.242,38.153-.483,58.03-.655a51.938,51.938,0,0,0,1.766,9.385,9.627,9.627,0,0,0,.43,1.21c.052.13.115.249.167.369.125.26.25.53.4.779.083.13.166.269.249.4.145.229.291.459.456.678.094.129.186.259.29.388a7.961,7.961,0,0,0,.548.647c.093.109.2.229.3.338q.356.374.743.715a1.77,1.77,0,0,0,.207.2c.33.3.681.585,1.042.863.1.079.216.158.33.237.258.2.526.386.805.574.154.109.309.207.464.306.247.158.5.316.763.473.165.1.341.2.5.3.258.148.526.295.8.443.175.088.34.186.515.275.3.157.588.3.888.451.165.078.309.157.474.235.444.216.9.431,1.363.635.1.049.206.1.309.137.382.176.764.341,1.157.507.165.067.33.136.5.2.341.146.682.291,1.023.427.155.068.3.127.455.185,1.5.611,3.009,1.2,4.49,1.789.674.27,1.337.54,2,.81.436.183.872.366,1.3.55.218.1.436.182.644.279.239.106.479.213.718.329.073.028.146.067.219.1.312.135.624.28.926.435.136.057.271.125.4.193a1.184,1.184,0,0,1,.156.077l.344.174c.293.145.585.3.867.455.031.01.052.03.084.039.334.194.669.378.994.572a.745.745,0,0,1,.105.068,20.13,20.13,0,0,1,2.823,2.009c.053.059.117.108.17.157.212.186.4.372.6.569.064.069.138.138.2.206.182.187.353.384.514.571.054.069.118.137.172.207a9.228,9.228,0,0,1,.585.819C256.213,213.216,258.309,220.473,260.54,227.585Z"/><path class="x" d="M299.226,237.4q-1.77,3.175-3.557,6.35c-6.483-10.849-14.454-20.617-21.307-30.014-7.321-10-14.407-20.252-21.83-29.833-1.242-1.587-3.52-4.5-6.285-7.84q3.6-.007,7.209-.017c2.7,3.238,4.915,6.04,6.123,7.584,7.47,9.548,14.626,19.774,21.988,29.764C287.181,221.015,293.524,228.893,299.226,237.4Z"/><path class="y" d="M183.692,192.048c-15.229-2.633-36.723-3.459-59.335-3.57a25.738,25.738,0,0,1,6.734-11.173h.01c9.184-.134,18.7-.263,28.456-.4A224.457,224.457,0,0,1,183.692,192.048Z"/><path class="y" d="M224.18,192.218q-.544-.417-1.044-.859Q223.635,191.8,224.18,192.218Z"/><path class="y" d="M234.07,197.422q-.517-.211-1.028-.428Q233.554,197.21,234.07,197.422Z"/><path class="y" d="M221.886,190.105c-.191-.212-.376-.429-.55-.65C221.51,189.676,221.7,189.892,221.886,190.105Z"/><path class="y" d="M225.318,193.031c-.279-.188-.547-.38-.812-.576C224.771,192.65,225.039,192.843,225.318,193.031Z"/><path class="y" d="M229.25,195.275c-.3-.148-.6-.3-.888-.449C228.653,194.978,228.95,195.127,229.25,195.275Z"/><path class="y" d="M227.839,194.545c-.266-.144-.53-.291-.789-.44Q227.44,194.329,227.839,194.545Z"/><path class="y" d="M232.544,196.785c-.386-.165-.768-.333-1.149-.5C231.776,196.452,232.158,196.62,232.544,196.785Z"/><path class="y" d="M226.538,193.8c-.258-.155-.509-.313-.758-.473C226.029,193.491,226.28,193.649,226.538,193.8Z"/><path class="y" d="M231.084,196.145q-.693-.312-1.368-.638Q230.391,195.832,231.084,196.145Z"/><path class="y" d="M221.047,189.07c-.161-.222-.312-.448-.456-.679C220.735,188.622,220.886,188.848,221.047,189.07Z"/><path class="y" d="M222.926,191.16c-.256-.235-.5-.474-.74-.721C222.421,190.686,222.67,190.925,222.926,191.16Z"/><path class="y" d="M219.78,186.846a10.247,10.247,0,0,1-.43-1.213A10.247,10.247,0,0,0,219.78,186.846Z"/><path class="y" d="M250.584,205.482a20.319,20.319,0,0,0-2.82-2.017A20.319,20.319,0,0,1,250.584,205.482Z"/><path class="y" d="M252.068,206.985c-.163-.2-.332-.387-.51-.574C251.736,206.6,251.905,206.79,252.068,206.985Z"/><path class="y" d="M250.76,205.639c.205.183.4.371.592.561C251.163,206.009,250.965,205.822,250.76,205.639Z"/><path class="y" d="M234.522,197.606a124.06,124.06,0,0,1,12.062,5.183,70.966,70.966,0,0,0-7.568-3.4C237.527,198.8,236.014,198.211,234.522,197.606Z"/><path class="y" d="M252.831,208c-.18-.278-.38-.546-.589-.81C252.452,207.455,252.65,207.724,252.831,208Z"/><path class="y" d="M220.347,187.989c-.143-.252-.272-.513-.4-.777C220.075,187.476,220.2,187.737,220.347,187.989Z"/><path class="y" d="M247.66,203.4q-.487-.291-1-.571Q247.174,203.111,247.66,203.4Z"/><path class="y" d="M251.558,206.411c-.067-.071-.136-.141-.206-.211C251.422,206.27,251.491,206.34,251.558,206.411Z"/><path class="y" d="M252.242,207.192c-.056-.07-.116-.138-.174-.207C252.126,207.054,252.186,207.122,252.242,207.192Z"/><path class="y" d="M231.4,196.283c-.1-.046-.209-.091-.311-.138C231.187,196.192,231.292,196.237,231.4,196.283Z"/><path class="y" d="M234.522,197.606l-.452-.184Z"/><path class="y" d="M233.042,196.994l-.5-.209Z"/><path class="y" d="M246.662,202.832l-.078-.043Z"/><path class="y" d="M247.764,203.465l-.1-.062Z"/><path class="y" d="M225.78,193.331c-.155-.1-.311-.2-.462-.3C225.469,193.133,225.625,193.231,225.78,193.331Z"/><path class="y" d="M220.591,188.391c-.083-.133-.167-.266-.244-.4C220.424,188.125,220.508,188.258,220.591,188.391Z"/><path class="y" d="M219.952,187.212c-.057-.122-.12-.241-.172-.366C219.832,186.971,219.9,187.09,219.952,187.212Z"/><path class="y" d="M222.186,190.439c-.1-.109-.2-.222-.3-.334C221.986,190.216,222.082,190.33,222.186,190.439Z"/><path class="y" d="M229.716,195.507c-.157-.076-.311-.155-.466-.232C229.406,195.352,229.559,195.431,229.716,195.507Z"/><path class="y" d="M250.584,205.482c.06.052.117.1.176.157C250.7,205.586,250.644,205.534,250.584,205.482Z"/><path class="y" d="M221.336,189.455c-.1-.127-.2-.256-.289-.385C221.141,189.2,221.236,189.328,221.336,189.455Z"/><path class="y" d="M228.362,194.826c-.177-.093-.349-.187-.523-.281C228.013,194.639,228.185,194.733,228.362,194.826Z"/><path class="y" d="M224.506,192.455c-.108-.08-.22-.156-.326-.237C224.286,192.3,224.4,192.375,224.506,192.455Z"/><path class="y" d="M227.05,194.105q-.258-.148-.512-.3Q226.791,193.957,227.05,194.105Z"/><path class="y" d="M223.136,191.359c-.073-.064-.139-.133-.21-.2C223,191.226,223.063,191.294,223.136,191.359Z"/><path class="y" d="M295.669,243.748q-1.012,1.8-2.031,3.6c.01-.006-14.4-8.94-33.1-19.762-2.231-7.112-4.327-14.369-7.714-19.578a9.028,9.028,0,0,0-.585-.819c-.054-.07-.118-.138-.172-.207-.161-.187-.332-.384-.514-.571-.064-.068-.138-.137-.2-.206-.192-.2-.384-.383-.6-.569-.053-.049-.117-.1-.17-.157a20.072,20.072,0,0,0-2.823-2.009.691.691,0,0,0-.105-.068c-.325-.194-.659-.378-.994-.572-.031-.01-.053-.029-.084-.039-.282-.155-.574-.31-.867-.455l-.344-.174a1.184,1.184,0,0,0-.156-.077c-.126-.068-.261-.136-.4-.193-.3-.155-.614-.29-.926-.435-.073-.029-.146-.067-.219-.1-.229-.117-.468-.223-.718-.329-.208-.1-.426-.183-.644-.279-.426-.183-.862-.367-1.3-.55-.664-.27-1.327-.54-2-.81-1.481-.589-2.991-1.178-4.49-1.789-.155-.058-.3-.117-.455-.185-.341-.136-.682-.281-1.023-.427l-.5-.2c-.393-.166-.775-.331-1.157-.507-.1-.039-.206-.088-.309-.137-.465-.205-.919-.42-1.363-.635-.165-.079-.309-.157-.474-.235-.3-.147-.588-.294-.888-.451-.175-.089-.34-.187-.515-.275-.268-.148-.537-.295-.8-.443-.165-.1-.34-.2-.5-.3-.258-.157-.516-.315-.763-.473-.155-.1-.31-.2-.464-.306-.279-.188-.547-.376-.805-.574-.114-.079-.227-.158-.33-.237-.361-.278-.712-.565-1.042-.863a1.852,1.852,0,0,1-.207-.2q-.387-.342-.743-.715c-.1-.109-.207-.228-.3-.338a7.961,7.961,0,0,1-.548-.647c-.1-.129-.2-.259-.29-.388-.165-.22-.31-.449-.456-.678-.083-.13-.166-.27-.249-.4-.145-.25-.27-.519-.4-.779-.052-.12-.114-.24-.167-.369a9.627,9.627,0,0,1-.43-1.21,51.938,51.938,0,0,1-1.766-9.385q14.243-.132,28.66-.187c2.765,3.345,5.043,6.253,6.285,7.84,7.424,9.581,14.509,19.83,21.83,29.833C281.215,223.131,289.186,232.9,295.669,243.748Z"/><path class="y" d="M302.59,231.33q-1.674,3.035-3.364,6.068c-5.7-8.5-12.045-16.382-17.659-24.006-7.361-9.99-14.517-20.216-21.988-29.764-1.208-1.543-3.425-4.346-6.123-7.584q3.62,0,7.241-.011c2.609,3.111,4.755,5.8,5.938,7.3,7.518,9.525,14.714,19.729,22.125,29.7C293.15,218.915,297.967,224.964,302.59,231.33Z"/><path class="z" d="M383.572,195.648v.01a1.982,1.982,0,0,1-1.429,2.176q-32.4,9.627-65.5,18.326-5.6,9.507-11.355,18.987-1.81,2.988-3.636,5.973-1.926,3.144-3.87,6.286-1.882,3.034-3.78,6.065c.009-.007-12.565-7.246-30.141-16.4-15.516-8.066-34.838-17.662-53.351-24.94a184.845,184.845,0,0,0-29.751-9.294c-14.225-2.871-35.367-4.131-57.592-4.867-41.02-1.222-85.914-1.092-96.711-1.137a2.1,2.1,0,0,1-1.572-.687,1.965,1.965,0,0,1-.472-1.617l0-.01a17.982,17.982,0,0,1,.736-2.922c18.642-1.6,60.635-3.23,99.2-3.122,22.612.111,44.106.937,59.335,3.57.56.095,1.12.19,1.67.294,19.479,3.731,50.717,21.2,75.178,35.243,18.7,10.822,33.108,19.756,33.1,19.762q1.019-1.8,2.031-3.6,1.787-3.174,3.557-6.35,1.691-3.033,3.364-6.068,5.438-9.846,10.715-19.716c20.9-4.528,47.473-14.111,69.052-20.481A19.413,19.413,0,0,1,383.572,195.648Z"/><path class="v" d="M375.434,180.941c-6.906-5.078-23.152-13.894-39.758-16.467-16.211-2.5-45.441-3.692-96.193-1.91-16.99.594-32.956,2.515-46.721,3.156-26.238,1.211-55.014,1.234-80.413,1.258-32.328.034-72.494.081-78.677,3.761-.9,1.025-1.619,1.933-2.19,2.725-2.492,3.424-2.41,4.833-2.41,4.856.046,0,2.433,3.168,21.381,3.168h.489c13.672-.035,31.641-1.607,50.67-3.273,22.348-1.956,46.815-4.1,68.65-4.1a226.493,226.493,0,0,1,24.817,1.2c9.153,1.013,20.764,2.6,34.215,4.425,29.533,4.018,66.286,9.025,96.588,10.656,47.933,2.573,52.638-5.078,53.01-5.963C379.091,183.98,377.809,182.687,375.434,180.941Z"/><path class="aa" d="M378.893,184.434c-.373.885-5.078,8.536-53.011,5.963-30.3-1.631-67.055-6.638-96.588-10.656-13.451-1.828-25.062-3.412-34.215-4.425a226.493,226.493,0,0,0-24.817-1.2c-21.835,0-46.3,2.143-68.65,4.1-19.029,1.666-37,3.238-50.67,3.273h-.489c-18.948,0-21.335-3.168-21.381-3.168,0-.023-.082-1.432,2.41-4.856,2.655.885,8.071,1.933,18.971,1.933h.489c13.672-.035,31.641-1.619,50.67-3.272,22.348-1.957,46.815-4.1,68.65-4.1a226.244,226.244,0,0,1,24.817,1.2c9.153,1.013,20.764,2.6,34.215,4.425,29.533,4.018,66.286,9.014,96.588,10.656,31.536,1.689,44.358-1.036,49.552-3.365C377.809,182.687,379.091,183.98,378.893,184.434Z"/><path class="ab" d="M375.434,180.941c-5.194,2.329-18.016,5.054-49.552,3.365-30.3-1.642-67.055-6.638-96.588-10.656-13.451-1.828-25.062-3.412-34.215-4.425a226.244,226.244,0,0,0-24.817-1.2c-21.835,0-46.3,2.142-68.65,4.1-19.029,1.653-37,3.237-50.67,3.272h-.489c-10.9,0-16.316-1.048-18.971-1.933.571-.792,1.293-1.7,2.19-2.725,6.183-3.68,46.349-3.727,78.677-3.762,25.4-.023,54.175-.046,80.413-1.257,13.765-.641,29.731-2.562,46.721-3.156,50.752-1.782,79.982-.594,96.193,1.91C352.282,167.047,368.528,175.863,375.434,180.941Z"/><ellipse class="v" cx="275.906" cy="164.376" rx="17.219" ry="2.548"/><path class="ac" d="M192.269,175.044c98.685,14.05,76.882,20.508,82.557,25.58,4.169,3.727,20.185,2.219,20.245,2.212,16.039-1.761,48.966-4.639,78.315-15.011"/><path class="o" d="M14.626,150.234c0-197.317,378.732-193.929,378.732,0,0,37.609-107.488,35.171-198.279,35.171S14.626,190.662,14.626,150.234Z"/><path class="ad" d="M393.126,142.1c-4.79,10.86-87.64,19.51-189.14,19.51-101.52,0-184.39-8.65-189.14-19.52-.15,2.67-.22,5.39-.22,8.14,0,40.43,89.66,35.18,180.45,35.18s198.28,2.43,198.28-35.18Q393.356,146.1,393.126,142.1Z"/><path class="ae" d="M354.079,60.35c0,19.04-67.459,34.47-150.67,34.47S52.73,79.39,52.73,60.35a9.038,9.038,0,0,1,1.25-4.46q4.379-4.245,9.14-8.14c72.259-59.24,207.5-58.69,280.48-.06.01.01.02.01.029.02,3.111,2.51,6.121,5.11,8.991,7.82l.009.01A9.241,9.241,0,0,1,354.079,60.35Z"/><path class="af" d="M393.129,142.1c-4.79,10.86-87.639,19.51-189.139,19.51-101.521,0-184.39-8.65-189.14-19.52.039-.76.09-1.52.14-2.27,2.43-34.61,16.95-62.55,38.99-83.93a9.038,9.038,0,0,0-1.25,4.46c0,19.04,67.46,34.47,150.679,34.47s150.67-15.43,150.67-34.47a9.241,9.241,0,0,0-1.45-4.81c22.77,21.49,37.83,49.59,40.351,84.24v.01Q393.07,140.945,393.129,142.1Z"/><path class="ag" d="M271.546,16.582c-.859-4.371,2.537-8.167,7.911-8.155,6.512.014,7.472,3.893,9.143,8.237C285.041,23.073,273.282,25.428,271.546,16.582ZM175.032,5.966c2.806,3.524,6.568,7.589,12.54,6.232,4.344-.987,8.282-5.122,6.365-8.564C189.687-4,172.137,2.179,175.032,5.966ZM253.3,14.557c8.851-7.262-2.417-13.314-11.091-10.435C229.273,8.415,244.83,21.014,253.3,14.557ZM83.424,36.957c-2.33-3.5.8-6.591,3.411-8.222.932-.583,12.051-2.306,10.594-.652a1.642,1.642,0,0,1,.923.052C106.367,31.753,90.221,47.159,83.424,36.957Zm13.125-8.233q-2.889-.393-3.507,1.313c.08.138,2.7-1.065,2.981.345C97.3,30.5,96.519,29.367,96.549,28.724Zm58.5-20.867c-4.854-3.267-6.687-2.3-11.545.071-3.391,1.653-6.667,1.884-5.627,5.065C141.842,25.121,165.209,13.418,155.047,7.857Zm155.767,21.4c.259-.286,6.251-2.51,7.542-2.389,3.712.345,7.329,5.577,6.933,8.144h0C320.758,45.982,303.951,36.831,310.814,29.261Zm6.459,2.862,0,0S317.277,32.121,317.273,32.123Zm.053.04-.049-.054v.013C317.3,32.135,317.308,32.149,317.326,32.163ZM215.259,8c-2.972,2.806-6.119,11.583,2.949,9.337a5.118,5.118,0,0,0,3.765-4.857C222.408,7.534,220.062,8.005,215.259,8ZM296.633,36c-10.735-4.479-21.827,6.709-10.054,10.643C294.891,49.418,303.705,41.877,296.633,36Zm11.48,14.471h0c-.622,4.293,4.072,10.336,8.026,5.789C319.64,52.234,312.347,45.626,308.113,50.467Zm-180.02-6.758c-8.5-1.175-20.932,8.024-9.16,12.546C127.024,59.362,136.971,48.109,128.093,43.709Zm-4.591-8.7c2.968-3.173,7.2-7.216,2.863-10.933-3.047-2.614-8.764-1.912-11.76.518C106.959,30.8,115.716,35.985,123.5,35.01ZM81.125,51.448c-2.279,3.068.107,6.824,4.66,5.371,2.318-.74,3.2-2.169,2.689-3.933C87.79,50.516,83.549,51.464,81.125,51.448Zm69.905-14.5c3.771-4.712-5.351-8.548-9.73-6.271C133.79,34.579,144.473,42.218,151.03,36.947Zm45.879-7.694c9.245-1.1,8.493-14.078-3.447-11.624C181.346,20.119,189.68,35.365,196.909,29.253ZM175.115,45.626c5.169,1.635,9.187-2.876,4.478-6.019C174.7,36.341,169.765,42.158,175.115,45.626ZM240.459,35c7.529-4.138-5.924-12.79-12.265-9.966-3.83,1.706-5.193,6.244-2.3,8.995C229.316,37.283,236.284,35.974,240.459,35Zm20.63-14.454c-4.067-.76-15.833.069-9.953,6.237C256.449,32.359,261.318,24.5,261.089,20.548ZM150.43,53.344c-4.349.122-7.3-.076-5.957,4.726.926,3.319,3.616,4.418,7.275,3.9C158.978,60.935,157.791,53.137,150.43,53.344Zm55.638-7.711c-11.309-6.6-17.555,7.177-7.611,11.033a8.888,8.888,0,0,0,8.966-1.644C211.584,51.211,207.848,48.788,206.068,45.633Zm36.685-2.894c-4.348-.077-6.6-3.5-11.159-.478a5.728,5.728,0,0,0-.7,9.045c2.766,2.528,9.184,3.318,12.311.918C247.366,49.03,243.441,46.244,242.753,42.739Zm16.074-1.921c-.874,3.748-2.99,12.635,5.694,8.749,3.386-1.514,3.767-3.244,2.548-5.936C265.351,39.835,263.4,40.816,258.827,40.818ZM184.3,59.138c-.213.18-5.209-2.285-5.743.979-1.187-1.836-4.425,4.537-4.448,4.811-.083.986,3.007,5.578,3.285,4.874C182.382,79.654,199.373,62.718,184.3,59.138Zm45.748.053c-4.924-.24-8.405,4.892-2.453,5.726C231.85,65.514,235.843,59.738,230.046,59.191ZM215.24,90.024c-1.671-4.344-2.63-8.223-9.142-8.237-5.374-.012-8.77,3.783-7.912,8.155C199.923,98.787,211.682,96.433,215.24,90.024Zm-113.568-10.7c2.806,3.523,6.569,7.588,12.54,6.232,4.345-.987,8.282-5.123,6.365-8.565C116.328,69.361,98.778,75.539,101.672,79.326Zm78.269,8.59c8.85-7.262-2.418-13.313-11.092-10.435C155.913,81.775,171.471,94.373,179.941,87.916Zm53.451-.977c-2.329-3.5.8-6.591,3.411-8.223.932-.582,12.051-2.3,10.594-.652a1.643,1.643,0,0,1,.923.053C256.335,81.735,240.19,97.141,233.392,86.939Zm13.125-8.233q-2.889-.393-3.506,1.313c.079.138,2.7-1.065,2.98.344C247.271,80.48,246.487,79.348,246.517,78.706Zm-164.83,2.51c-4.854-3.266-6.686-2.295-11.544.072-3.392,1.652-6.668,1.884-5.628,5.064C68.483,98.481,91.849,86.777,81.687,81.216Zm155.767,21.405c.259-.286,6.251-2.51,7.542-2.39,3.712.346,7.329,5.578,6.934,8.144h0C247.4,119.341,230.592,110.191,237.454,102.621Zm6.459,2.861,0,0S243.917,105.481,243.913,105.482Zm.053.041-.049-.054v.012C243.936,105.5,243.948,105.509,243.966,105.523ZM141.9,81.364c-2.972,2.806-6.119,11.582,2.948,9.337a5.118,5.118,0,0,0,3.765-4.857C149.048,80.894,146.7,81.365,141.9,81.364Zm81.373,27.992c-10.734-4.479-21.827,6.708-10.053,10.643C221.532,122.777,230.345,115.236,223.273,109.356Zm11.48,14.471h.005c-.623,4.293,4.071,10.336,8.025,5.788C246.281,125.593,238.988,118.986,234.753,123.827ZM54.733,54.965c-8.5-1.175-20.932,8.024-9.159,12.545C53.665,70.618,63.611,59.365,54.733,54.965Zm-4.59,53.405c2.967-3.173,7.194-7.217,2.862-10.933-3.046-2.615-8.763-1.913-11.76.518C33.6,104.156,42.357,109.345,50.143,108.37Zm212.3-43.913c-2.279,3.068.107,6.823,4.66,5.37,2.318-.74,3.2-2.169,2.689-3.933C269.1,63.524,264.862,64.473,262.438,64.457ZM77.67,110.306c3.771-4.711-5.351-8.547-9.73-6.271C60.43,107.939,71.113,115.578,77.67,110.306Zm45.879-7.693c9.245-1.1,8.493-14.079-3.446-11.625C107.986,93.478,116.321,108.725,123.549,102.613Zm-21.794,16.373c5.17,1.635,9.187-2.876,4.478-6.019C101.341,109.7,96.406,115.517,101.755,118.986ZM28.389,91.078c5.17,1.635,9.187-2.876,4.478-6.019C27.974,81.793,23.04,87.609,28.389,91.078ZM167.1,108.361c7.529-4.137-5.924-12.79-12.265-9.966-3.831,1.706-5.194,6.245-2.3,9C155.957,110.643,162.924,109.334,167.1,108.361Zm20.63-14.454c-4.067-.76-15.833.069-9.954,6.238C183.09,105.719,187.959,97.862,187.73,93.907ZM49.541,75.38c-4.35.122-7.3-.076-5.958,4.726.926,3.319,3.617,4.419,7.275,3.9C58.089,82.971,56.9,75.173,49.541,75.38Zm83.167,43.613c-11.309-6.595-17.555,7.176-7.61,11.033a8.887,8.887,0,0,0,8.965-1.644C138.224,124.57,134.489,122.148,132.708,118.993Zm36.686-2.894c-4.348-.078-6.6-3.5-11.16-.478a5.728,5.728,0,0,0-.7,9.045c2.766,2.528,9.185,3.318,12.311.918C174.006,122.389,170.081,119.6,169.394,116.1Zm16.074-1.922c-.875,3.749-2.99,12.635,5.694,8.75,3.385-1.515,3.766-3.245,2.548-5.937C191.992,113.194,190.042,114.176,185.468,114.177ZM72.834,58.47c-.214.18-5.21-2.285-5.744.979-1.187-1.836-4.425,4.537-4.448,4.811-.083.986,3.007,5.578,3.286,4.874C70.917,78.986,87.908,62.05,72.834,58.47Zm-6.12-15.378c-4.924-.24-8.405,4.892-2.453,5.726C68.518,49.415,72.511,43.639,66.714,43.092ZM333.921,67.42c2.806,3.523,6.568,7.589,12.54,6.232,4.344-.987,8.282-5.122,6.365-8.565C348.576,57.455,331.026,63.633,333.921,67.42Zm-19.986,1.891c-4.853-3.267-6.686-2.3-11.544.071-3.391,1.653-6.667,1.884-5.627,5.064C300.731,86.575,324.1,74.872,313.935,69.311Zm-26.954,35.852c-8.5-1.175-20.931,8.024-9.159,12.545C285.913,120.816,295.86,109.563,286.981,105.163Zm-15.714-8.7c2.967-3.173,7.194-7.216,2.863-10.933-3.047-2.614-8.764-1.912-11.76.518C254.724,92.251,263.481,97.439,271.267,96.464ZM309.919,98.4c3.771-4.712-5.351-8.548-9.73-6.271C292.679,96.033,303.362,103.672,309.919,98.4Zm53.822-11.033c9.245-1.1,8.494-14.078-3.446-11.624C348.179,78.234,356.513,93.48,363.741,87.368Zm-31.89,3.706C341.1,89.972,340.344,77,328.4,79.45,316.288,81.94,324.623,97.187,331.851,91.074ZM334,107.08c5.169,1.635,9.187-2.876,4.478-6.019C333.589,97.8,328.654,103.612,334,107.08ZM309.319,114.8c-4.349.122-7.3-.076-5.957,4.726.926,3.319,3.616,4.418,7.275,3.9C317.867,122.389,316.68,114.591,309.319,114.8Zm62.2-16.064c-11.309-6.6-17.555,7.176-7.61,11.032a8.885,8.885,0,0,0,8.965-1.644C377.032,104.311,373.3,101.888,371.516,98.734Zm-28.9-59.251c-.214.18-5.21-2.285-5.744.979-1.187-1.836-4.425,4.537-4.448,4.811-.083.986,3.007,5.578,3.286,4.873C340.7,60,357.692,43.063,342.618,39.483Z"/></svg>