<svg xmlns="http://www.w3.org/2000/svg" viewBox="0 0 416.582 373.303"><defs><style>.a,.o{fill:none;}.a,.b,.c,.d,.e,.f,.h{fill-rule:evenodd;}.b{fill:#e0a879;}.c{fill:#f5c99e;}.d{fill:#c29a64;}.e{fill:#f2bc86;}.f,.x{fill:#ffdf69;}.g,.h{fill:#623307;}.h{opacity:0.32;}.i{fill:#4a210b;}.j{fill:#452705;}.k{fill:#724b46;}.l{fill:#5e2a12;}.m{fill:#331604;}.n{fill:#87af29;}.p{fill:#bede71;}.q{fill:#63801e;}.r{fill:#001000;opacity:0.2;}.s{fill:#681a16;}.t{fill:#991b02;}.u{fill:#ad1c04;}.ac,.v,.w{fill:#c74e3c;}.w{opacity:0.29;}.y{fill:#ffebb4;}.z{fill:#f9c163;}.aa{fill:#83220b;}.ab{fill:#b42b0d;}.ac{opacity:0.15;}.ad{fill:#f3c190;}.ae{fill:#e0aa7c;}.af{fill:#f7cda3;}.ag{fill:#f9e9cc;}</style></defs><title>burger</title><path class="a" d="M20.942,315.7c0,70.068,81.433,56.552,184.381,56.552s181.718,13.516,181.718-58.832c0-34.549-23.133-26.7-183.02-26.7S20.942,276.283,20.942,315.7Z"/><path class="b" d="M371.522,354.644c-27.84,24.92-90.48,17.61-166.2,17.61-77.29,0-142.45,7.62-170.13-18.24,9.68,5.98,81.56,10.62,168.8,10.62C288.122,364.634,357.962,360.314,371.522,354.644Z"/><path class="c" d="M162.032,286.194c-2.65.06-5.29.13-7.9.21q-8.865-.105-16.96-.23h-.07c-70.9-1.08-99.68-2.42-110.42,8.75a.01.01,0,0,1-.01.01l-.05.06-.93,1.07c0,5.89,79.83,10.67,178.3,10.67s178.29-4.78,178.29-10.67v-.04l-1.2-1.21c-10.65-9.66-38.53-9.24-105.8-8.53h-.07q-8.91.09-18.77.18-3.51-.1-7.06-.2Z"/><path class="d" d="M386.3,304.594c-2.24,10-82.92,18.05-182.13,18.05-100.54,0-182.07-8.27-182.18-18.46v-.02c.07-.32.15-.63.23-.93,0-.01,0-.01.01-.02a19.3,19.3,0,0,1,3.46-7.15c0,5.89,79.83,10.67,178.3,10.67s178.29-4.78,178.29-10.67v-.04a16.989,16.989,0,0,1,3.58,6.78C386.032,303.384,386.172,303.974,386.3,304.594Z"/><path class="e" d="M387.042,313.424c0,17.58-4.65,30.09-13.18,38.96-.74.78-1.53,1.54-2.34,2.26-13.56,5.67-83.4,9.99-167.53,9.99-87.24,0-159.12-4.64-168.8-10.62-.35-.31-.69-.64-1.02-.98-8.54-8.52-13.23-20.52-13.23-37.33a52.062,52.062,0,0,1,1.05-11.52c.11,10.19,81.64,18.46,182.18,18.46,99.21,0,179.89-8.05,182.13-18.05A44.322,44.322,0,0,1,387.042,313.424Z"/><path class="f" d="M162.032,286.194c-2.65.06-5.29.13-7.9.21q-8.865-.105-16.96-.23l24.86.02,87.35.07q3.555.09,7.06.2,9.855-.09,18.77-.18l-25.83-.02Z"/><path class="g" d="M387.654,264.637c0-1.09-.03-2.07-.11-2.97-.02-.24-.04-.48-.07-.71a5.968,5.968,0,0,0-.09-.63,9.174,9.174,0,0,0-.59-2.2.01.01,0,0,0-.01-.01,3.478,3.478,0,0,0-.21-.48,1.091,1.091,0,0,0-.06-.11.01.01,0,0,1,.01-.01,6.706,6.706,0,0,0-3.83-3.1h-.01c-2.16-.82-5.22-1.28-9.56-1.52-5.39-.32-12.75-.32-22.77-.32q-11.49,0-22.46-.01-4.245.015-8.41,0-16.59.015-31.98-.01-4.71.015-9.3,0h-31.92c-3.14,0-6.23-.01-9.29-.01q-16.05,0-30.54,0-4.725,0-9.3.01-16.425,0-30.87.02c-3.26,0-6.45.01-9.57.01-10.54.02-20.27.05-29.25.09-3.02.01-5.95.03-8.8.04-10.86.06-20.52.15-29.12.25q-4.32.06-8.28.12c-34.81.55-49.88,1.65-56.33,3.81a1.006,1.006,0,0,0,.17.2,1.123,1.123,0,0,1-.18-.2c-.07.02-.13.05-.2.07a10.815,10.815,0,0,0-2.22,1.02.01.01,0,0,0-.01.01h-.01a.435.435,0,0,0-.07.04,4.986,4.986,0,0,0-1.43,1.32,4.92,4.92,0,0,0-.26.43,5.492,5.492,0,0,0-.5,2.55,35.521,35.521,0,0,0,.46,5.69,39.757,39.757,0,0,0,11.23,21.45c.23.23.45.45.68.67.33.32.66.63,1,.94l2.1,1.79h.01c6.61,5.28,14.49,8.4,21.84,8.4,17.23,0,230.23,9.09,282.47,0,12.62-2.19,21.93-4.76,28.78-7.57a54.424,54.424,0,0,0,6.18-2.95c.12-.06.23-.13.34-.19.33-.19.65-.37.95-.56,10.26-6.2,11.48-13.17,11.49-19.65C387.764,268.387,387.654,266.477,387.654,264.637Z"/><path class="h" d="M382.244,295.477v.04c0,6.04-79.8,10.95-178.25,10.95s-178.25-4.91-178.25-10.95l.93-1.1.05-.06a.01.01,0,0,0,.01-.01,19.433,19.433,0,0,1,5.86-4.2c.33.32.66.63,1,.94l2.1,1.79h.01c6.61,5.28,14.49,8.4,21.84,8.4,17.23,0,230.23,9.09,282.47,0,12.62-2.19,21.93-4.76,28.78-7.57a54.424,54.424,0,0,0,6.18-2.95c.12-.06.23-.13.34-.19a20.451,20.451,0,0,1,5.73,3.66Z"/><path class="i" d="M368.791,293.71c-6.85,2.81-16.16,5.38-28.78,7.57-52.24,9.09-265.24,0-282.47,0-7.35,0-15.23-3.12-21.84-8.4,14.22,3.31,84.46,5.82,168.98,5.82C281.941,298.7,347.271,296.6,368.791,293.71Z"/><path class="g" d="M387.757,270.361c-.01,6.48-1.23,13.45-11.49,19.65q-.615.375-1.29.75a54.623,54.623,0,0,1-6.19,2.95c-.34.05-.68.09-1.04.14s-.72.08-1.1.13c-2.65.31-5.81.61-9.45.9l-1.58.12c-3.59.27-7.61.54-12.02.79-.87.05-1.75.09-2.65.14-1.54.09-3.13.17-4.76.25l-2.58.12q-4.41.21-9.18.4h-.06c-1.45.06-2.92.12-4.41.17-2.28.09-4.63.17-7.03.25-.2.01-.41.02-.61.02l-4.68.15c-1.79.06-3.61.11-5.46.16s-3.72.11-5.61.16c-3.79.1-7.69.19-11.68.28q-2.9.045-5.85.12l-1.81.03q-8.925.18-18.39.3-4.365.06-8.82.11-3.33.045-6.72.07-10.455.1-21.37.14c-1.42.01-2.84.02-4.27.02q-6.42.015-12.98.02c-1.72,0-3.43,0-5.13-.01-1.71.01-3.41,0-5.1-.01a2.255,2.255,0,0,1-.26,0c-1.16,0-2.32-.01-3.47-.01-12.22-.04-24.07-.14-35.43-.27-.18-.01-.36-.01-.54-.01q-8.655-.1-16.89-.25h-.18q-4.845-.09-9.53-.18c-1.06-.02-2.12-.05-3.17-.07-2.09-.05-4.16-.09-6.21-.14-11.25-.27-21.68-.58-31.13-.95-.86-.03-1.71-.06-2.55-.1q-3.78-.15-7.35-.31c-.75-.03-1.49-.07-2.22-.1l-1.2-.06c-1.17-.05-2.32-.11-3.45-.17-1.55-.08-3.07-.16-4.55-.24-1.46-.08-2.87-.17-4.24-.25-1.03-.06-2.03-.13-3-.19-1.4-.09-2.74-.18-4.04-.28q-1.23-.09-2.4-.18c-.32-.03-.64-.05-.95-.08-1.08-.08-2.11-.17-3.11-.26-.98-.09-1.93-.18-2.83-.27-.45-.05-.89-.09-1.32-.14l-.85-.09c-.65-.07-1.27-.15-1.86-.22s-1.15-.15-1.68-.22l-.2-.03q-.42-.06-.81-.12a1.1,1.1,0,0,0-.18-.02c-.28-.05-.54-.09-.79-.13-.03-.01-.06-.01-.09-.02-.27-.04-.52-.09-.76-.13-.29-.05-.56-.11-.82-.16-.24-.05-.47-.1-.68-.15H35.7l-2.1-1.79c-.57-.52-1.13-1.05-1.68-1.61a39.757,39.757,0,0,1-11.23-21.45,35.521,35.521,0,0,1-.46-5.69,5.492,5.492,0,0,1,.5-2.55c3.71,2.84,17.72,5.45,39.03,7.57q5.43.555,11.48,1.06c9,.74,18.98,1.41,29.79,1.99h.01c3.42.18,6.91.36,10.49.52h.01c21.4,1,45.54,1.67,71.33,1.93h.03q10.125.09,20.58.1h.02c.89.01,1.79.01,2.69.01,18,0,35.4-.2,51.87-.58h.01q7.95-.18,15.58-.42h.04c23.95-.73,45.51-1.85,63.48-3.25h.01c1.17-.09,2.33-.18,3.47-.27a.41.41,0,0,1,.11-.01c22.53-1.86,38.98-4.18,46.79-6.77.08.9.11,1.88.11,2.97C387.657,266.481,387.767,268.391,387.757,270.361Z"/><path class="j" d="M35.7,292.88c-.72-.57-1.42-1.17-2.1-1.79Z"/><path class="k" d="M387.547,261.671c-7.81,2.59-24.26,4.91-46.79,6.77a.41.41,0,0,0-.11.01c-1.14.09-2.3.18-3.47.27h-.01c-17.97,1.4-39.53,2.52-63.48,3.25h-.04q-7.635.24-15.58.42h-.01c-16.47.38-33.87.58-51.87.58-.9,0-1.8,0-2.69-.01h-.02q-10.44,0-20.58-.1h-.03c-25.79-.26-49.93-.93-71.33-1.93h-.01c-3.58-.16-7.07-.34-10.49-.52h-.01c-10.81-.58-20.79-1.25-29.79-1.99q-6.045-.51-11.48-1.06c-21.31-2.12-35.32-4.73-39.03-7.57a4.92,4.92,0,0,1,.26-.43,4.986,4.986,0,0,1,1.43-1.32.435.435,0,0,1,.07-.04h.01a.01.01,0,0,1,.01-.01,10.815,10.815,0,0,1,2.22-1.02c.07-.02.13-.05.2-.07a3.527,3.527,0,0,0,1.5,1.02h.01a.01.01,0,0,0,.01.01h.01a5.718,5.718,0,0,0,.6.25c.11.04.23.08.34.12.19.07.39.13.59.2a1.543,1.543,0,0,1,.17.05c.13.04.27.08.41.12s.28.08.43.12c.44.12.92.24,1.43.36.34.08.7.16,1.07.24.43.09.88.18,1.35.28.34.06.68.13,1.04.19.43.08.87.15,1.33.23l.69.12c.23.03.47.07.72.11q.555.09,1.14.18c.37.05.74.1,1.12.16.74.1,1.5.21,2.28.31a1.1,1.1,0,0,0,.18.02c.28.04.56.08.85.11.95.12,1.93.24,2.95.36l1.63.18q2.895.315,6.12.62,2.565.24,5.34.48c.58.05,1.16.1,1.75.14.67.06,1.35.11,2.04.17.85.06,1.73.13,2.62.2,1.33.1,2.69.19,4.07.29.92.06,1.86.13,2.81.19s1.9.13,2.88.19q5.835.36,12.24.7h.01c.58.04,1.18.07,1.77.09q2.31.12,4.71.24l2.55.12c1.18.05,2.37.11,3.57.16l2.07.09h.01q7.95.33,16.51.62c1.12.04,2.25.08,3.39.11q7.74.24,15.91.45c1.85.05,3.71.09,5.59.13.82.02,1.65.04,2.48.05,4.07.09,8.22.17,12.42.24.44.01.88.01,1.32.02,2.21.03,4.43.07,6.67.1,12.3.17,25.08.26,38.2.27h2.26c2.13,0,4.24,0,6.35-.01s4.21-.01,6.3-.02c12.53-.05,24.71-.18,36.42-.37h.04l8.12-.15c2.1-.04,4.17-.09,6.22-.13.95-.02,1.9-.05,2.84-.07,1.9-.04,3.78-.09,5.65-.14.35-.01.69-.01,1.03-.03,1.29-.03,2.56-.06,3.83-.1s2.52-.07,3.77-.11,2.49-.08,3.73-.11l3.67-.12,1.8-.06,3.43-.12c3.04-.11,6.02-.23,8.94-.34,1.15-.05,2.28-.09,3.41-.14s2.24-.11,3.34-.15c.96-.05,1.91-.09,2.85-.13h.01c8.78-.42,16.9-.88,24.27-1.38,1.57-.11,3.09-.21,4.59-.32h.05c2.62-.2,5.14-.4,7.54-.6.56-.05,1.12-.1,1.67-.14.11-.02.21-.02.31-.03.37-.04.74-.07,1.11-.1l1.56-.15c.75-.07,1.48-.14,2.2-.21s1.44-.14,2.13-.22c.35-.04.7-.07,1.04-.11.42-.04.84-.08,1.24-.13.59-.06,1.17-.13,1.73-.2l1.04-.12c.41-.05.83-.1,1.23-.15.46-.06.92-.11,1.36-.17q3.1-.4,5.65-.83c.25-.04.48-.08.72-.12q.705-.12,1.35-.24a39.169,39.169,0,0,0,6.74-1.72,1.6,1.6,0,0,0,.23-.1.01.01,0,0,0,.01-.01h.01a.133.133,0,0,0,.08-.03,3.9,3.9,0,0,0,.41-.19,3.952,3.952,0,0,0,.41-.22l.06.12a3.478,3.478,0,0,1,.21.48.01.01,0,0,1,.01.01,9.174,9.174,0,0,1,.59,2.2,5.968,5.968,0,0,1,.09.63C387.507,261.191,387.527,261.431,387.547,261.671Z"/><path class="l" d="M386.52,257.52a7.316,7.316,0,0,1-1.15.55c-13.13,5.24-88.4,9.24-179.28,9.24-97.63,0-177.22-4.62-181.16-10.41,6.45-2.16,21.52-3.26,56.33-3.81q3.96-.06,8.28-.12c8.6-.1,18.26-.19,29.12-.25,2.85-.01,5.78-.03,8.8-.04,8.98-.04,18.71-.07,29.25-.09,3.12,0,6.31-.01,9.57-.01q14.46-.03,30.87-.02,4.575-.015,9.3-.01,14.505-.015,30.54,0c3.06,0,6.15.01,9.29.01H278.2q4.59.015,9.3,0,15.39.015,31.98.01,4.17.015,8.41,0,10.965.015,22.46.01c10.02,0,17.38,0,22.77.32,4.34.24,7.4.7,9.56,1.52h.01A6.706,6.706,0,0,1,386.52,257.52Z"/><path class="m" d="M89.54,252.97c-3.98,4.55-7.49,7.13-8.85,6.2-.96-.66-.67-2.93.57-6.08Q85.22,253.03,89.54,252.97Z"/><path class="m" d="M127.46,252.68c-4.42,5.34-8.47,8.51-9.95,7.49-1.09-.75-.57-3.6,1.15-7.45C121.51,252.71,124.44,252.69,127.46,252.68Z"/><path class="m" d="M166.28,252.58c-5.16,6.83-10.24,11.19-11.95,10.02-1.31-.91-.27-4.89,2.38-10.01C159.83,252.59,163.02,252.58,166.28,252.58Z"/><path class="m" d="M206.45,252.55c-4.89,6.27-9.57,10.16-11.19,9.05-1.24-.85-.4-4.39,1.89-9.04Q201.725,252.545,206.45,252.55Z"/><path class="m" d="M246.28,252.56c-4.89,6.26-9.57,10.15-11.19,9.04-1.24-.85-.39-4.4,1.9-9.05C240.05,252.55,243.14,252.56,246.28,252.56Z"/><path class="m" d="M278.2,252.56c-2.28,4.65-3.12,8.19-1.89,9.04,1.62,1.11,6.31-2.78,11.19-9.04h-9.3Z"/><path class="m" d="M327.89,252.57c-4.12,4.8-7.8,7.56-9.19,6.6-1.01-.7-.63-3.18.78-6.6Q323.65,252.585,327.89,252.57Z"/><path class="n" d="M416.442,261.434v-.01l-41.04-26.28-16.63.01-315.67.08H30.962L0,257.794l5.66-.1h.02l8.37-.14,8.88-.15h.01l3.95-.07h.01l36.35-.62,5.46-.09,18.38,7.4h.01l14.37,5.79h.01l35.57,14.32.02.01.02.01.43.24.09-.03h.02l.06.03,66.23-12.03h.02l30.07-5.46,24.49,4.89h.01l63.1,12.6.21.04,19.38-16.59,5.99-5.13,5.98-5.12,25.9,1.6,8.76.54,11.45.71,17.3,1.07Z"/><polygon class="o" points="137.62 284.36 137.52 284.39 137.07 284.14 137.62 284.36"/><polygon class="o" points="323.03 283.18 321.82 284.43 321.63 284.38 323.03 283.18"/><polygon class="p" points="137.07 284.143 137.62 284.365 231.123 259.606 321.626 284.376 323.032 283.182 352.39 252.876 416.444 261.427 375.401 235.147 358.767 235.151 377.109 246.564 347.208 242.076 317.549 264.971 233.161 247.969 150.1 259.772 86.398 242.076 32.528 242.076 43.098 235.232 30.958 235.235 0 257.789 5.659 257.692 71.627 248.134 137.07 284.143"/><polygon class="n" points="377.11 246.56 347.21 242.08 317.55 264.97 233.16 247.97 150.1 259.77 86.4 242.08 32.53 242.08 43.1 235.23 358.77 235.15 377.11 246.56"/><polygon class="q" points="321.63 284.38 321.61 284.39 234.01 266.9 137.69 284.39 137.62 284.36 231.12 259.61 321.63 284.38"/><polygon class="q" points="416.582 261.514 399.282 260.444 387.832 259.734 379.072 259.194 353.172 257.594 347.142 262.714 341.092 267.854 323.032 283.184 337.622 268.124 342.552 263.034 352.392 252.884 386.042 257.374 387.242 257.534 416.442 261.434 416.582 261.514"/><polygon class="q" points="137.052 284.134 101.482 269.814 101.472 269.814 87.102 264.024 87.092 264.024 68.712 256.624 63.252 256.714 26.902 257.334 26.892 257.334 22.942 257.404 22.932 257.404 14.052 257.554 5.682 257.694 71.632 248.134 79.622 252.534 81.342 253.474 86.252 256.184 101.772 264.724 101.782 264.724 111.972 270.334 111.982 270.334 137.052 284.134"/><path class="r" d="M388.2,269.764l-35.03-2.17-31.35,26.84-87.81-17.53-96.32,17.49-.06-.03h-.02l-.09.03-.43-.24-.02-.01-.02-.01-65.37-26.31-2.97-1.2-8.51.14-39.07.67a35.521,35.521,0,0,1-.46-5.69,5.492,5.492,0,0,1,.5-2.55,4.92,4.92,0,0,1,.26-.43,4.986,4.986,0,0,1,1.43-1.32.435.435,0,0,1,.07-.04l-8.88.15.01-.01,8.89-.15,3.92-.07h.01l36.37-.61,5.46-.09,18.38,7.4h.01l14.37,5.79h.01l35.57,14.32.02.01.02.01.43.24.09-.03h.02l.06.03,66.23-12.03h.02l30.07-5.46,24.49,4.89h.01l63.1,12.6v-.01h.02l.19.05,19.38-16.59,5.99-5.13,5.98-5.12,25.9,1.6,8.76.54a5.968,5.968,0,0,1,.09.63c.03.23.05.47.07.71.08.9.11,1.88.11,2.97C388.1,265.884,388.212,267.794,388.2,269.764Z"/><path class="o" d="M262.391,239.286a16.452,16.452,0,0,0,2.583-8.548l0-.028c.021-.482.019-.977,0-1.472h-.234c-1.272-6.367-5.529-11.26-10.34-11.332q-49.821-.66-99.646,0c-2.78.037-5.359,1.688-7.3,4.277a17.255,17.255,0,0,0-2.716,5.693l-.447,0-.457.017c-1.079-5.691-4.711-9.76-9.18-9.669q-49.818.927-99.609,3.172a12.587,12.587,0,0,0-7.653,3.4,13.746,13.746,0,0,0-4,6.307,10.766,10.766,0,0,0-.252,1.094,8.967,8.967,0,0,0,8.478,10.812q50.793,2.29,101.622,3.236a9.428,9.428,0,0,0,7.464-4.02,17.449,17.449,0,0,0,3.342-8.63c.175,7.151,4.359,12.894,9.7,12.977q50.826.674,101.658,0a8.874,8.874,0,0,0,7.11-4.28,16.866,16.866,0,0,0,2.587-10.058c-.022-.509-.063-1-.125-1.5A16.439,16.439,0,0,1,262.391,239.286Zm-129.007,4a9.049,9.049,0,0,0,6.678-3.142A9.049,9.049,0,0,1,133.384,243.285Zm10.789-12.546a.752.752,0,0,0-.016.141c-.008-.042-.006-.1-.014-.141a18.313,18.313,0,0,1-1.982,6.415,18.313,18.313,0,0,0,1.982-6.415v-.015c.011-.028.013-.07.024-.1a.2.2,0,0,0,.007.085l0,.029c.228,7.093,4.386,12.737,9.677,12.8C148.559,243.476,144.4,237.832,144.173,230.739Z"/><path class="o" d="M386.1,232.2a10.708,10.708,0,0,0-.253-1.094c-1.456-5.142-6.473-9.438-11.651-9.709q-49.788-2.245-99.609-3.172a8.273,8.273,0,0,0-6.948,4.023,15.689,15.689,0,0,0-2.439,6.989h-.233c.02.5.062.991.124,1.472v.029c-.02.5-.019.991,0,1.5.322,7.819,5.23,14.134,10.905,14.01q50.824-.945,101.621-3.236a9.03,9.03,0,0,0,6.75-3.409A9.263,9.263,0,0,0,386.1,232.2Zm-4.022,6.96A8.764,8.764,0,0,0,384,237.388,8.742,8.742,0,0,1,382.082,239.161Z"/><path class="s" d="M144.048,232.239c-.019.454-.018.907-.007,1.36a17.449,17.449,0,0,1-3.342,8.63,9.428,9.428,0,0,1-7.464,4.02q-50.825-.945-101.622-3.236A8.967,8.967,0,0,1,23.135,232.2a10.766,10.766,0,0,1,.252-1.094,8.8,8.8,0,0,0,8.589,9.619q50.686,1.812,101.408,2.559a9.448,9.448,0,0,0,7.449-4.047,17.435,17.435,0,0,0,3.31-8.5c.008.042.006.1.014.141C144.107,231.333,144.068,231.786,144.048,232.239Z"/><path class="t" d="M144.14,232.239c-.02.453-.059.907-.1,1.36-.011-.454-.012-.907.007-1.36s.06-.906.109-1.359C144.158,231.333,144.159,231.786,144.14,232.239Z"/><path class="s" d="M265.1,232.239a16.866,16.866,0,0,1-2.587,10.058,8.874,8.874,0,0,1-7.11,4.28q-50.826.672-101.658,0c-5.344-.083-9.528-5.826-9.7-12.977.039-.453.08-.906.1-1.36s.018-.906.017-1.359a.752.752,0,0,1,.016-.141c.228,7.093,4.386,12.737,9.677,12.8q50.721.532,101.446,0a8.829,8.829,0,0,0,7.1-4.258,16.439,16.439,0,0,0,2.583-8.548C265.036,231.234,265.077,231.73,265.1,232.239Z"/><path class="t" d="M144.157,230.88c0,.453,0,.906-.017,1.359s-.059.907-.1,1.36c-.011-.454-.012-.907.007-1.36S144.108,231.333,144.157,230.88Z"/><path class="s" d="M386.1,232.2a9.263,9.263,0,0,1-1.729,7.4,9.03,9.03,0,0,1-6.75,3.409Q326.832,245.3,276,246.249c-5.675.124-10.583-6.191-10.905-14.01-.022-.509-.023-1,0-1.5.833,7.121,5.467,12.638,10.759,12.546q50.717-.747,101.408-2.559A8.911,8.911,0,0,0,384,237.388a9.06,9.06,0,0,0,1.854-6.281A10.708,10.708,0,0,1,386.1,232.2Z"/><path class="u" d="M144.144,230.724v.015a17.435,17.435,0,0,1-3.31,8.5,9.449,9.449,0,0,1-7.449,4.047q-50.718-.747-101.408-2.559a8.8,8.8,0,0,1-8.589-9.619,13.746,13.746,0,0,1,4-6.307,12.587,12.587,0,0,1,7.653-3.4q49.788-2.245,99.609-3.172c4.469-.091,8.1,3.978,9.18,9.669A17.8,17.8,0,0,1,144.144,230.724Z"/><path class="t" d="M144.268,229.238c-.019.453-.059.906-.1,1.359v.028c-.011.029-.013.071-.024.1a17.913,17.913,0,0,0-.316-2.829l.457-.016C144.286,228.331,144.288,228.785,144.268,229.238Z"/><path class="u" d="M264.972,230.71l0,.028a16.452,16.452,0,0,1-2.583,8.548,8.825,8.825,0,0,1-7.1,4.258q-50.721.531-101.446,0c-5.291-.067-9.449-5.711-9.677-12.8l0-.029a18.6,18.6,0,0,1,.557-2.834,17.255,17.255,0,0,1,2.716-5.693c1.944-2.589,4.523-4.24,7.3-4.277q49.821-.66,99.646,0c4.811.072,9.068,4.965,10.34,11.332C264.839,229.719,264.911,230.214,264.972,230.71Z"/><path class="t" d="M144.285,227.879l.447,0a18.6,18.6,0,0,0-.557,2.834.2.2,0,0,1-.007-.085V230.6c-.01-.453-.012-.906.008-1.359S144.236,228.332,144.285,227.879Z"/><path class="t" d="M264.971,229.238c.02.5.022.99,0,1.472-.061-.5-.133-.991-.235-1.473Z"/><path class="u" d="M385.851,231.107A9.051,9.051,0,0,1,384,237.388a8.911,8.911,0,0,1-6.734,3.338q-50.686,1.812-101.408,2.559c-5.291.092-9.926-5.425-10.759-12.546v-.029c.019-.5.049-.991.109-1.472a15.689,15.689,0,0,1,2.439-6.989,8.273,8.273,0,0,1,6.948-4.023q49.817.927,99.609,3.172C379.378,221.669,384.4,225.965,385.851,231.107Z"/><path class="t" d="M265.2,229.238c-.06.481-.09.977-.109,1.472-.062-.481-.1-.977-.124-1.472Z"/><path class="v" d="M78.322,239.165Q69.4,239,60.474,238.812c-3.747-.1-6.36-3.661-5.807-7.915h0c.552-4.254,4.022-7.842,7.71-7.968q8.807-.256,17.612-.482c3.689-.109,6.356,3.646,5.927,8.337h0C85.486,235.475,82.069,239.249,78.322,239.165Z"/><path class="v" d="M122.751,234.358q-9.816-.036-19.631-.078c-2.616-.018-4.531-2.788-4.257-6.155h0c.274-3.367,2.614-6.173,5.2-6.233q9.725-.2,19.45-.362c2.586-.048,4.542,2.827,4.348,6.384h0C127.665,231.472,125.366,234.371,122.751,234.358Z"/><path class="v" d="M206.321,239.174q-16.6,0-33.2-.062c-3.523-.018-6.3-4.1-6.162-9.07h0c.133-4.969,3.083-9.06,6.554-9.086q16.394-.1,32.788-.1c3.472,0,6.338,4.126,6.369,9.16h0C212.7,235.05,209.845,239.173,206.321,239.174Z"/><path class="v" d="M238.56,234.477l-6.916.009c-2.615,0-4.8-3.05-4.854-6.787h0c-.055-3.737,2.017-6.785,4.6-6.769q3.426.019,6.851.043c2.587.02,4.786,3.066,4.887,6.765h0C243.233,231.438,241.175,234.471,238.56,234.477Z"/><path class="v" d="M327.087,238.231q-15.927.246-31.856.427c-3.523.05-6.637-3.782-6.921-8.511h0c-.283-4.729,2.324-8.543,5.8-8.47q15.73.288,31.46.678c3.47.1,6.672,3.688,7.117,7.968h0C333.127,234.6,330.61,238.163,327.087,238.231Z"/><path class="v" d="M359.224,233.988l-5.877.038c-2.614.025-5.053-2.462-5.418-5.528h0c-.365-3.065,1.451-5.5,4.036-5.418q2.912.088,5.823.18c2.584.09,5.035,2.532,5.444,5.423h0C363.641,231.573,361.837,233.961,359.224,233.988Z"/><path class="v" d="M368.77,223.617q-2.351-.079-4.7-.156a6.237,6.237,0,0,1,5.473,5.3c.425,2.821-1.365,5.153-3.979,5.181l4.748-.034a4.147,4.147,0,0,0,3.957-5.084A6.235,6.235,0,0,0,368.77,223.617Z"/><path class="v" d="M49.047,231.459c.489-3.573,3.477-6.575,6.638-6.667q-4.739.117-9.475.242c-3.161.1-6.173,3-6.692,6.447s1.676,6.336,4.881,6.419,6.388.135,9.583.2C50.777,238.021,48.556,235.031,49.047,231.459Z"/><path class="w" d="M148.163,240.981q-.231-.231-.451-.478Q147.933,240.751,148.163,240.981Z"/><path class="w" d="M148.3,241.12a9.635,9.635,0,0,0,1.261,1.027A9.57,9.57,0,0,1,148.3,241.12Z"/><path class="w" d="M146.056,238.1a13.17,13.17,0,0,0,.971,1.552A13.04,13.04,0,0,1,146.056,238.1Z"/><path class="w" d="M149.753,242.27c.16.1.323.2.487.292C150.076,242.471,149.913,242.373,149.753,242.27Z"/><path class="w" d="M380.884,242.259c-.1.042-.185.1-.283.133a9.388,9.388,0,0,1-2.976.621Q326.832,245.3,276,246.249a7.6,7.6,0,0,1-2.085-.246,9.279,9.279,0,0,1-3.774-2.071q-.429-.376-.829-.8a14.784,14.784,0,0,1-2.688-4.149q-.264-.6-.487-1.234c-.045-.127-.079-.262-.122-.391l-1.392-.021a15.161,15.161,0,0,1-2.115,4.965,10.575,10.575,0,0,1-3.15,3.1,8.265,8.265,0,0,1-.927.5,7.509,7.509,0,0,1-3.033.688q-50.826.672-101.658,0c-4.378-.068-7.975-3.934-9.23-9.26l-1.285.018a16.151,16.151,0,0,1-2.53,4.9,9.428,9.428,0,0,1-7.464,4.02q-12.707-.235-25.411-.556-25.41-.642-50.812-1.619-12.7-.488-25.4-1.061a9.537,9.537,0,0,1-3.528-.872c-7.068.834-10.929,1.732-10.929,2.668,0,4.365,83.649,7.9,186.836,7.9s186.836-3.538,186.836-7.9C390.828,243.917,387.328,243.059,380.884,242.259Z"/><path class="w" d="M152.005,243.281a7.315,7.315,0,0,0,.748.16A7.315,7.315,0,0,1,152.005,243.281Z"/><path class="w" d="M145.979,237.954c-.11-.213-.215-.432-.317-.654h0Q145.813,237.633,145.979,237.954Z"/><path class="w" d="M152.978,243.474a7.394,7.394,0,0,0,.872.069A7.394,7.394,0,0,1,152.978,243.474Z"/><path class="w" d="M151.172,243.007a7.542,7.542,0,0,0,.729.249A7.542,7.542,0,0,1,151.172,243.007Z"/><path class="w" d="M150.462,242.681c.175.09.352.172.531.248C150.814,242.853,150.637,242.771,150.462,242.681Z"/><polygon class="w" points="139.281 240.901 139.281 240.9 139.281 240.901 139.28 240.901 139.281 240.901"/><path class="w" d="M147.122,239.779q.214.285.441.552Q147.337,240.064,147.122,239.779Z"/><polygon class="w" points="135.714 242.943 135.717 242.942 135.713 242.943 135.71 242.944 135.714 242.943"/><polygon class="w" points="135.344 243.05 135.346 243.05 135.345 243.05 135.343 243.05 135.344 243.05"/><path class="w" d="M263.48,237.316a13.842,13.842,0,0,1-1.089,1.97,13.842,13.842,0,0,0,1.089-1.97Z"/><polygon class="w" points="134.694 243.177 134.698 243.176 134.696 243.176 134.692 243.177 134.694 243.177"/><polygon class="w" points="136.295 242.748 136.297 242.747 136.295 242.748 136.293 242.749 136.295 242.748"/><polygon class="w" points="138.122 241.791 138.125 241.789 138.122 241.791 138.118 241.793 138.122 241.791"/><polygon class="w" points="138.453 241.566 138.454 241.565 138.453 241.565 138.452 241.566 138.453 241.566"/><polygon class="w" points="136.669 242.593 136.671 242.592 136.669 242.593 136.666 242.594 136.669 242.593"/><polygon class="w" points="139.013 241.122 139.017 241.119 139.014 241.121 139.01 241.124 139.013 241.122"/><polygon class="w" points="137.582 242.131 137.584 242.13 137.581 242.132 137.579 242.133 137.582 242.131"/><polygon class="w" points="137.22 242.328 137.224 242.327 137.221 242.328 137.218 242.329 137.22 242.328"/><path class="x" d="M387.883,219.761c-3.331-13.5-17.14-23.747-34.034-24.536-35.234-1.441-88.417-2.676-145.558-1.732q-3.645.065-7.32.137-3.644.065-7.3.154c-8.467.2-17,.446-25.536.746-22.829.807-45.761,2.024-67.955,3.765q-7.165.554-14.229,1.192c-16.054,1.45-31.615,3.191-46.336,5.283-10.579,1.664-18.524,8.816-19.97,17.538a19.069,19.069,0,0,0-.266,2.659,1.921,1.921,0,0,0,1.876,1.775c6.468.583,28.806,2.6,57.5,5.2,30.652,2.77,68.551,6.2,102.083,9.236,11.461,1.038,22.409,2.024,32.384,2.933,10.159.918,19.313,1.741,26.961,2.436,2.86.257,5.5.5,7.914.712,3.013.274,5.669.514,7.893.72,2.6.232,4.634.42,6.018.541a8.268,8.268,0,0,0,4.09-.661c7.75-3.413,37.079-16.011,54.977-19.253,18.084-3.276,56-2.693,65.465-2.487a2.222,2.222,0,0,0,1.5-.515,1.525,1.525,0,0,0,.564-1.26A26.247,26.247,0,0,0,387.883,219.761Z"/><path class="x" d="M243.781,241.844c-2.461-.214-5.126-.454-7.965-.711-3.414-4.091-6.889-8.036-10.139-11.9-7.166-8.5-14.26-17.187-21.815-25.248-1.783-1.9-5.679-6-10.19-10.206q3.66-.09,7.3-.154c4.419,4.134,8.232,8.139,9.975,10.008,7.565,8.07,14.659,16.741,21.825,25.248C236.3,233.08,240.09,237.376,243.781,241.844Z"/><path class="x" d="M85.952,199.487a29.134,29.134,0,0,0-4.736,3.825,19.922,19.922,0,0,0-6.11,16.063,30.224,30.224,0,0,0,1.6,7.71c-25.034-2.161-45.915-3.928-57.059-4.777,1.446-8.722,9.391-15.874,19.97-17.538C54.337,202.678,69.9,200.937,85.952,199.487Z"/><path class="x" d="M211.305,238.946c-11.871-1.055-25.085-2.23-38.914-3.456-2.912-1.93-5.833-3.843-8.8-5.721-9.318-5.917-42.758-26.68-63.414-31.474,22.194-1.741,45.126-2.958,67.955-3.765.011.429.021.849.052,1.278a37.071,37.071,0,0,0,2.358,10.454c2.275,6.081,11.542,8.568,20.031,11.261,5.833,1.844,11.286,3.8,13.829,7.092C207.378,228.457,209.367,233.663,211.305,238.946Z"/><path class="x" d="M387.883,219.761c-20.513.3-47.638,1.329-62.01,3.559-21.281,3.31-56.894,17.53-61.549,20.1a1.46,1.46,0,0,1-.871.189s-4.275-.386-11.707-1.046c-3.957-4.863-8.078-9.5-11.891-14.031-7.166-8.5-14.25-17.186-21.815-25.248-1.722-1.835-5.423-5.728-9.749-9.793,57.141-.944,110.324.291,145.558,1.732C370.743,196.014,384.552,206.262,387.883,219.761Z"/><path class="y" d="M172.391,235.49c-31.646-2.805-66.49-5.875-95.686-8.405a30.224,30.224,0,0,1-1.6-7.71,19.922,19.922,0,0,1,6.11-16.063,29.134,29.134,0,0,1,4.736-3.825q7.058-.63,14.229-1.192c20.656,4.794,54.1,25.557,63.414,31.474C166.558,231.647,169.479,233.56,172.391,235.49Z"/><path class="y" d="M235.816,241.133c-7.166-.635-15.439-1.381-24.511-2.187-1.938-5.283-3.927-10.489-6.9-14.331-2.543-3.293-8-5.248-13.829-7.092-8.489-2.693-17.756-5.18-20.031-11.261a37.071,37.071,0,0,1-2.358-10.454c-.031-.429-.041-.849-.052-1.278,8.54-.3,17.069-.549,25.536-.746,4.511,4.211,8.407,8.31,10.19,10.206,7.555,8.061,14.649,16.749,21.815,25.248C228.927,233.1,232.4,237.042,235.816,241.133Z"/><path class="y" d="M251.746,242.565c-2.348-.215-5.013-.455-7.965-.721-3.691-4.468-7.484-8.764-11.01-12.958-7.166-8.507-14.26-17.178-21.825-25.248-1.743-1.869-5.556-5.874-9.975-10.008q3.675-.078,7.32-.137c4.326,4.065,8.027,7.958,9.749,9.793,7.565,8.062,14.649,16.75,21.815,25.248C243.668,233.063,247.789,237.7,251.746,242.565Z"/><path class="z" d="M388.6,224.341a1.525,1.525,0,0,1-.564,1.26,2.222,2.222,0,0,1-1.5.515c-9.462-.206-47.381-.789-65.465,2.487-17.9,3.242-47.227,15.84-54.977,19.253a8.268,8.268,0,0,1-4.09.661c-1.384-.121-3.414-.309-6.018-.541-2.224-.206-4.88-.446-7.893-.72-2.409-.215-5.054-.455-7.914-.712-7.648-.7-16.8-1.518-26.961-2.436-9.975-.909-20.923-1.9-32.384-2.933-33.532-3.035-71.431-6.466-102.083-9.236-28.693-2.6-51.031-4.614-57.5-5.2a1.921,1.921,0,0,1-1.876-1.775,19.069,19.069,0,0,1,.266-2.659c11.144.849,32.025,2.616,57.059,4.777,29.2,2.53,64.04,5.6,95.686,8.405,13.829,1.226,27.043,2.4,38.914,3.456,9.072.806,17.345,1.552,24.511,2.187,2.839.257,5.5.5,7.965.711,2.952.266,5.617.506,7.965.721,7.432.66,11.707,1.046,11.707,1.046a1.46,1.46,0,0,0,.871-.189c4.655-2.572,40.268-16.792,61.549-20.1,14.372-2.23,41.5-3.259,62.01-3.559A26.247,26.247,0,0,1,388.6,224.341Z"/><path class="x" d="M386.885,198.205c-.719-3.536-4.068-6.473-8.325-7.277-36.765-6.695-80.233-11.487-124.181-14.048q4.1,4.245,0,0-3.651-.213-7.321-.408h0q-3.651-.191-7.3-.365-12.345-.6-24.611-.971h0c-65.862-2.109-128.574.81-166.895,4.5-16.011,2.145-28.3,16.756-27.233,29.883.01.091.011.174.02.265l-.04,0A1.75,1.75,0,0,0,23,211.174c0-.062,34.935-4.666,35.372-4.633l2.6-.154c.323-.024.646-.04.969-.064l.3-.015c.272-.021.555-.035.827-.048,1.312-.08,2.584-.15,3.815-.224l.272-.013c.3-.014.6-.036.888-.05.485-.031.959-.061,1.423-.083s.929-.059,1.383-.08c.283-.021.575-.034.858-.047s.565-.026.838-.046c.322-.023.635-.037.938-.051a35.536,35.536,0,0,1,16.815,3.069c.161.077.322.145.494.23a1.686,1.686,0,0,1,.232.1l.01.008c.243.107.485.222.737.337.1.054.212.1.323.154.323.145.646.3.969.453.646.292,1.3.6,1.978.906.343.162.7.332,1.05.493s.706.323,1.06.493.727.331,1.09.5c9.912,4.6,22.481,10.506,31.4,14.747,1.474.693,2.837,1.342,4.079,1.935.626.3,1.212.578,1.767.839q1.363.654,2.424,1.166c.151.071.293.135.434.206s.263.127.384.183a8.188,8.188,0,0,0,4.595.682c4.414-.6,14.474-1.959,28.11-3.7,14.727-1.887,33.616-4.2,54.1-6.485,9.353-1.045,19.039-2.091,28.805-3.111,6.242-.64,12.5-1.277,18.734-1.9,2.141-.207,4.271-.42,6.392-.623q3.21-.315,6.392-.617c40.593-3.93,77.872-6.763,93.433-8.583a10.8,10.8,0,0,0,2.47-.6,8.646,8.646,0,0,0,3.69-2.6A6.793,6.793,0,0,0,386.885,198.205Z"/><path class="z" d="M385.457,203.95a8.646,8.646,0,0,1-3.69,2.6,10.8,10.8,0,0,1-2.47.6c-15.56,1.82-52.84,4.653-93.433,8.583q-3.181.3-6.392.617c-2.121.2-4.251.416-6.392.623-6.231.625-12.492,1.262-18.734,1.9-9.766,1.02-19.452,2.066-28.805,3.111-20.485,2.289-39.374,4.6-54.1,6.485-13.636,1.741-23.7,3.1-28.11,3.7a8.188,8.188,0,0,1-4.595-.682c-.121-.056-.253-.119-.384-.183s-.283-.135-.434-.206q-1.06-.512-2.424-1.166c-.555-.261-1.141-.538-1.767-.839-1.242-.593-2.6-1.242-4.079-1.935-8.916-4.241-21.485-10.15-31.4-14.747-.363-.17-.727-.34-1.09-.5s-.707-.331-1.06-.493-.707-.331-1.05-.493c-.676-.307-1.332-.614-1.978-.906-.323-.154-.646-.308-.969-.453-.111-.054-.222-.1-.323-.154-.252-.115-.494-.23-.737-.337l-.01-.008a1.686,1.686,0,0,0-.232-.1c-.172-.085-.333-.154-.494-.23a35.536,35.536,0,0,0-16.815-3.069c-.3.014-.616.028-.938.051-.273.02-.556.033-.838.046s-.575.026-.858.047c-.454.021-.908.05-1.383.08s-.938.052-1.423.083c-.292.014-.585.036-.888.05l-.272.013c-1.231.074-2.5.144-3.815.224-.272.013-.555.027-.827.048l-.3.015c-.323.024-.646.04-.969.064l-2.6.154C57.938,206.508,23,211.112,23,211.174A1.75,1.75,0,0,1,21,209.787a.237.237,0,0,1,.04,0c-.01-.091-.01-.174-.02-.265,8.588-2.191,59.912-9.3,59.916-9.172a6.68,6.68,0,0,1,3.129.6c8.584,3.834,51.712,24.109,56.391,26.451a1.443,1.443,0,0,0,.858.123s5.383-.822,14.514-2.155c14.059-2.057,37.009-5.277,62.837-8.448,10.848-1.334,22.19-2.67,33.6-3.926,5.464-.608,10.947-1.2,16.4-1.769q3.2-.34,6.382-.657,3.211-.333,6.392-.644c35.5-3.567,67.815-5.946,82.775-6.738A169.09,169.09,0,0,1,385.457,203.95Z"/><path class="x" d="M385.457,203.95a169.1,169.1,0,0,0-21.243-.765c-14.96.792-47.271,3.171-82.775,6.738-5.9-7.82-11.788-15.689-18.071-23.082-1.575-1.861-4.99-5.819-8.989-9.961,43.948,2.561,87.416,7.353,124.181,14.048,4.257.8,7.606,3.741,8.325,7.277A6.793,6.793,0,0,1,385.457,203.95Z"/><path class="x" d="M252.265,212.993c-11.413,1.256-22.755,2.592-33.6,3.926-3.222-2.344-6.475-4.674-9.778-6.948-10.082-7.023-50.014-33.586-68.137-33.247-4.251.05-8.725,3.617-10.987,5.687a20.107,20.107,0,0,0-6.769,15.532,33.138,33.138,0,0,0,4.3,15.011c3.249,6.04,14.922,9.5,28.537,12.413-9.131,1.333-14.514,2.157-14.514,2.155a1.451,1.451,0,0,1-.858-.123c-4.679-2.342-47.807-22.617-56.391-26.451a6.68,6.68,0,0,0-3.129-.6c0-.129-51.328,6.981-59.916,9.172-1.069-13.127,11.222-27.738,27.233-29.883,38.321-3.69,101.033-6.609,166.9-4.5a18.76,18.76,0,0,0-.071,2.136,34.906,34.906,0,0,0,1.778,10.206,8.6,8.6,0,0,0,.4,1.016c.051.1.111.192.162.292.121.225.253.45.394.666.071.109.141.209.222.317.142.2.293.4.455.593.08.1.171.2.252.3.182.2.374.393.576.585.081.075.161.159.242.242.263.234.535.46.818.686a1,1,0,0,0,.1.084c.334.26.687.511,1.051.754l.151.1c.313.21.637.4.96.6.111.059.212.118.323.177.283.168.586.328.889.488.111.059.232.126.353.185.314.161.627.32.95.472.111.051.212.1.323.152.384.178.778.355,1.172.533a1.114,1.114,0,0,1,.141.059c.94.406,1.919.8,2.909,1.18.01.008.02.008.03.017,2.01.765,4.08,1.5,6.111,2.246.444.163.888.326,1.323.489a.087.087,0,0,0,.04.017c.354.137.707.265,1.051.4.121.043.232.095.353.138.253.1.515.205.758.308.151.052.293.111.434.171.253.1.495.206.747.309.152.068.3.137.465.2.3.137.606.274.9.411.151.068.3.136.454.213.192.086.374.179.566.274.151.076.313.154.465.23.171.094.343.188.515.273.151.085.3.163.444.248.182.1.354.2.525.306.132.077.253.153.384.23.273.17.545.34.8.527.1.06.182.135.283.2.172.119.343.246.5.373l.3.254c.141.119.283.245.424.364.091.092.182.177.273.262.141.135.273.278.4.413.071.084.141.16.212.236a8.429,8.429,0,0,1,.535.673A31.97,31.97,0,0,1,252.265,212.993Z"/><path class="x" d="M275.047,210.567q-3.18.321-6.382.657c-6.273-8.26-12.506-16.624-19.172-24.45-1.677-1.971-5.414-6.283-9.737-10.667q3.651.169,7.3.365c4.161,4.267,7.747,8.4,9.373,10.327C262.9,194.405,268.966,202.522,275.047,210.567Z"/><path class="y" d="M218.662,216.919c-25.828,3.171-48.778,6.391-62.837,8.448-13.614-2.911-25.287-6.374-28.537-12.413a33.154,33.154,0,0,1-4.3-15.011,20.108,20.108,0,0,1,6.769-15.532c2.262-2.07,6.736-5.637,10.987-5.687,18.123-.339,58.055,26.224,68.137,33.247C212.187,212.245,215.439,214.575,218.662,216.919Z"/><path class="y" d="M240.545,201.064c-.247-.1-.495-.21-.746-.313C240.051,200.854,240.3,200.959,240.545,201.064Z"/><path class="y" d="M238.253,200.135c-.346-.134-.693-.267-1.044-.4C237.56,199.868,237.907,200,238.253,200.135Z"/><path class="y" d="M239.371,200.577c-.253-.1-.506-.2-.762-.3C238.865,200.374,239.118,200.475,239.371,200.577Z"/><path class="y" d="M229.7,196.965c-.993-.382-1.967-.774-2.91-1.182C227.731,196.191,228.705,196.583,229.7,196.965Z"/><path class="y" d="M223.85,194.384c-.3-.16-.6-.324-.892-.49C223.25,194.06,223.546,194.224,223.85,194.384Z"/><path class="y" d="M225.158,195.04q-.486-.232-.956-.473Q224.671,194.807,225.158,195.04Z"/><path class="y" d="M226.65,195.721q-.6-.258-1.172-.529Q226.054,195.462,226.65,195.721Z"/><path class="y" d="M249,206.752c-.163-.232-.343-.457-.533-.678A8.61,8.61,0,0,1,249,206.752Z"/><path class="y" d="M246.849,204.549c-.163-.128-.334-.254-.507-.379C246.515,204.3,246.686,204.421,246.849,204.549Z"/><path class="y" d="M248.252,205.842c-.129-.141-.262-.281-.4-.417C247.99,205.562,248.123,205.7,248.252,205.842Z"/><path class="y" d="M241.911,201.666q-.445-.2-.9-.4Q241.465,201.462,241.911,201.666Z"/><path class="y" d="M222.645,193.715q-.5-.292-.961-.6Q222.151,193.422,222.645,193.715Z"/><path class="y" d="M242.927,202.153c-.185-.092-.373-.182-.562-.272C242.554,201.971,242.742,202.061,242.927,202.153Z"/><path class="y" d="M243.912,202.663c-.17-.092-.342-.182-.517-.273Q243.657,202.525,243.912,202.663Z"/><path class="y" d="M244.88,203.213c-.173-.1-.346-.206-.525-.307C244.534,203.007,244.708,203.11,244.88,203.213Z"/><path class="y" d="M246.063,203.967c-.258-.18-.527-.355-.8-.528C245.536,203.611,245.805,203.787,246.063,203.967Z"/><path class="y" d="M220.374,192.175q-.424-.335-.811-.687Q219.949,191.841,220.374,192.175Z"/><path class="y" d="M219.312,191.245c-.2-.191-.388-.385-.567-.584C218.924,190.86,219.115,191.054,219.312,191.245Z"/><path class="y" d="M229.732,196.978c2.444.94,4.993,1.823,7.432,2.741q-.657-.248-1.322-.493C233.813,198.482,231.737,197.749,229.732,196.978Z"/><path class="y" d="M221.528,193.017q-.547-.366-1.05-.755Q220.979,192.65,221.528,193.017Z"/><path class="y" d="M247.151,204.8q.219.183.425.37Q247.371,204.981,247.151,204.8Z"/><path class="y" d="M244.355,202.906c-.145-.082-.294-.163-.443-.243Q244.136,202.783,244.355,202.906Z"/><path class="y" d="M243.4,202.39c-.154-.079-.31-.159-.468-.237C243.085,202.231,243.24,202.311,243.4,202.39Z"/><path class="y" d="M248.465,206.074c-.068-.078-.142-.155-.213-.232C248.323,205.919,248.4,206,248.465,206.074Z"/><path class="y" d="M222.958,193.894c-.1-.06-.211-.119-.313-.179C222.747,193.775,222.854,193.834,222.958,193.894Z"/><path class="y" d="M246.342,204.17c-.093-.067-.182-.137-.279-.2C246.16,204.033,246.249,204.1,246.342,204.17Z"/><path class="y" d="M247.849,205.425c-.088-.087-.18-.172-.273-.257C247.669,205.253,247.761,205.338,247.849,205.425Z"/><path class="y" d="M245.259,203.439c-.123-.077-.252-.151-.379-.226C245.007,203.288,245.136,203.363,245.259,203.439Z"/><path class="y" d="M246.849,204.549c.1.082.2.166.3.249C247.052,204.715,246.952,204.631,246.849,204.549Z"/><path class="y" d="M225.478,195.192c-.108-.05-.214-.1-.32-.152C225.265,195.091,225.37,195.142,225.478,195.192Z"/><path class="y" d="M220.478,192.262c-.036-.028-.068-.058-.1-.087C220.41,192.2,220.442,192.234,220.478,192.262Z"/><path class="y" d="M226.788,195.783l-.138-.062C226.7,195.742,226.741,195.763,226.788,195.783Z"/><path class="y" d="M221.684,193.116c-.051-.033-.1-.065-.156-.1C221.579,193.051,221.633,193.082,221.684,193.116Z"/><path class="y" d="M229.732,196.978l-.034-.013Z"/><path class="y" d="M224.2,194.567c-.118-.06-.235-.121-.352-.183C223.967,194.446,224.084,194.507,224.2,194.567Z"/><path class="y" d="M238.609,200.274l-.356-.139Z"/><path class="y" d="M241.008,201.262c-.153-.067-.308-.132-.463-.2C240.7,201.13,240.855,201.2,241.008,201.262Z"/><path class="y" d="M237.209,199.736l-.045-.017Z"/><path class="y" d="M218.745,190.661c-.089-.1-.173-.2-.257-.3C218.572,190.463,218.656,190.563,218.745,190.661Z"/><path class="y" d="M242.365,201.881c-.151-.071-.3-.144-.454-.215C242.065,201.737,242.214,201.81,242.365,201.881Z"/><path class="y" d="M239.8,200.751c-.142-.059-.285-.116-.428-.174C239.514,200.635,239.657,200.692,239.8,200.751Z"/><path class="y" d="M219.563,191.488c-.087-.08-.167-.162-.251-.243C219.4,191.326,219.476,191.408,219.563,191.488Z"/><path class="y" d="M268.665,211.224c-5.453.569-10.937,1.161-16.4,1.769A31.916,31.916,0,0,0,249,206.748a8.429,8.429,0,0,0-.535-.673c-.071-.076-.141-.152-.212-.236-.131-.135-.263-.278-.4-.413-.091-.085-.182-.169-.273-.262-.141-.119-.283-.245-.424-.364l-.3-.254c-.162-.127-.333-.254-.5-.373-.1-.068-.182-.144-.283-.2-.253-.187-.525-.357-.8-.527-.131-.077-.252-.153-.384-.23-.171-.1-.343-.2-.525-.306-.141-.086-.293-.163-.444-.248-.172-.085-.344-.179-.515-.273-.152-.077-.314-.153-.465-.23-.192-.094-.374-.188-.566-.274-.151-.077-.3-.145-.454-.213-.293-.137-.6-.274-.9-.411-.162-.06-.313-.128-.465-.2-.252-.1-.494-.206-.747-.309-.141-.06-.283-.12-.434-.171-.243-.1-.505-.206-.758-.308-.121-.043-.232-.095-.353-.138-.344-.136-.7-.265-1.051-.4a.1.1,0,0,1-.04-.017c-.434-.163-.879-.326-1.323-.489-2.03-.746-4.1-1.481-6.111-2.246-.01-.009-.02-.009-.03-.017-.99-.383-1.969-.774-2.909-1.18a1.114,1.114,0,0,0-.141-.059c-.394-.178-.788-.355-1.172-.533-.111-.05-.212-.1-.323-.152-.323-.151-.636-.312-.95-.472-.121-.059-.242-.126-.353-.185-.3-.16-.606-.32-.889-.488-.111-.059-.212-.118-.323-.177-.324-.2-.646-.394-.96-.6l-.151-.1c-.364-.243-.717-.494-1.051-.754a.882.882,0,0,1-.1-.084c-.282-.226-.555-.452-.818-.686-.081-.083-.161-.167-.242-.242-.2-.192-.394-.384-.576-.585-.081-.1-.172-.2-.252-.3-.162-.192-.313-.393-.455-.593-.081-.108-.151-.208-.222-.317-.142-.216-.273-.441-.394-.666-.051-.1-.111-.192-.162-.292a8.6,8.6,0,0,1-.4-1.016,34.912,34.912,0,0,1-1.778-10.206,18.76,18.76,0,0,1,.071-2.136q12.255.372,24.611.971c4.323,4.384,8.06,8.7,9.737,10.667C256.16,194.6,262.392,202.965,268.665,211.224Z"/><path class="y" d="M281.439,209.923q-3.18.315-6.392.644c-6.081-8.045-12.142-16.162-18.616-23.768-1.626-1.924-5.212-6.06-9.373-10.327q3.665.192,7.321.408c4,4.142,7.414,8.1,8.989,9.961C269.651,194.234,275.54,202.1,281.439,209.923Z"/><path class="x" d="M383.574,187.662v-.01a19.584,19.584,0,0,0-1.22-4.52,20.52,20.52,0,0,0-17.43-12.69c-32.68-1.96-68.4-2.4-104.23-2.41-2.41,0-4.82.01-7.24.01q-3.6,0-7.21.02-14.4.06-28.66.19c-19.87.17-39.39.41-58.03.65-9.75.14-19.27.27-28.45.4h-.01c-36.67.54-68.11,1-88.87,1.56a18.824,18.824,0,0,0-17.81,15.66v.01a1.991,1.991,0,0,0,.47,1.62,2.116,2.116,0,0,0,1.58.68h.14c11.67,0,133.08-5.87,162.86,3,35.1,10.45,100.89,51.34,104.39,53.55l.15.09q1.9-3.03,3.78-6.07c1.3-2.09,2.59-4.19,3.87-6.28q1.83-2.985,3.64-5.98,5.76-9.48,11.35-18.98,33.105-8.7,65.5-18.33A1.984,1.984,0,0,0,383.574,187.662Z"/><path class="x" d="M382.357,183.133c-21.579,6.37-48.154,15.952-69.052,20.481q-5.277,9.87-10.715,19.716c-4.623-6.366-9.44-12.415-13.83-18.3-7.411-9.968-14.607-20.171-22.125-29.7-1.183-1.5-3.329-4.188-5.938-7.3,35.831.008,71.545.448,104.231,2.409A20.523,20.523,0,0,1,382.357,183.133Z"/><path class="x" d="M131.091,169.305a25.738,25.738,0,0,0-6.734,11.173C85.79,180.371,43.8,182,25.155,183.6A19.016,19.016,0,0,1,42.22,170.864C62.981,170.306,94.42,169.84,131.091,169.305Z"/><path class="x" d="M260.54,219.585c-24.461-14.043-55.7-31.512-75.178-35.243-.55-.1-1.11-.2-1.67-.294A224.457,224.457,0,0,0,159.557,168.9c18.637-.242,38.153-.483,58.03-.655a51.938,51.938,0,0,0,1.766,9.385,9.627,9.627,0,0,0,.43,1.21c.052.13.115.249.167.369.125.26.25.53.4.779.083.13.166.269.249.4.145.229.291.459.456.678.094.129.186.259.29.388a7.961,7.961,0,0,0,.548.647c.093.109.2.229.3.338q.356.374.743.715a1.77,1.77,0,0,0,.207.2c.33.3.681.585,1.042.863.1.079.216.158.33.237.258.2.526.386.805.574.154.109.309.207.464.306.247.158.5.316.763.473.165.1.341.2.5.3.258.148.526.295.8.443.175.088.34.186.515.275.3.157.588.3.888.451.165.078.309.157.474.235.444.216.9.431,1.363.635.1.049.206.1.309.137.382.176.764.341,1.157.507.165.067.33.136.5.2.341.146.682.291,1.023.427.155.068.3.127.455.185,1.5.611,3.009,1.2,4.49,1.789.674.27,1.337.54,2,.81.436.183.872.366,1.3.55.218.1.436.182.644.279.239.106.479.213.718.329.073.028.146.067.219.1.312.135.624.28.926.435.136.057.271.125.4.193a1.184,1.184,0,0,1,.156.077l.344.174c.293.145.585.3.867.455.031.01.052.03.084.039.334.194.669.378.994.572a.745.745,0,0,1,.105.068,20.13,20.13,0,0,1,2.823,2.009c.053.059.117.108.17.157.212.186.4.372.6.569.064.069.138.138.2.206.182.187.353.384.514.571.054.069.118.137.172.207a9.228,9.228,0,0,1,.585.819C256.213,205.216,258.309,212.473,260.54,219.585Z"/><path class="x" d="M299.226,229.4q-1.77,3.175-3.557,6.35c-6.483-10.849-14.454-20.617-21.307-30.014-7.321-10-14.407-20.252-21.83-29.833-1.242-1.587-3.52-4.5-6.285-7.84q3.6-.007,7.209-.017c2.7,3.238,4.915,6.04,6.123,7.584,7.47,9.548,14.626,19.774,21.988,29.764C287.181,213.015,293.524,220.893,299.226,229.4Z"/><path class="y" d="M183.692,184.048c-15.229-2.633-36.723-3.459-59.335-3.57a25.738,25.738,0,0,1,6.734-11.173h.01c9.184-.134,18.7-.263,28.456-.4A224.457,224.457,0,0,1,183.692,184.048Z"/><path class="y" d="M224.18,184.218q-.544-.417-1.044-.859Q223.635,183.8,224.18,184.218Z"/><path class="y" d="M234.07,189.422q-.517-.211-1.028-.428Q233.554,189.21,234.07,189.422Z"/><path class="y" d="M221.886,182.105c-.191-.212-.376-.429-.55-.65C221.51,181.676,221.7,181.892,221.886,182.105Z"/><path class="y" d="M225.318,185.031c-.279-.188-.547-.38-.812-.576C224.771,184.65,225.039,184.843,225.318,185.031Z"/><path class="y" d="M229.25,187.275c-.3-.148-.6-.3-.888-.449C228.653,186.978,228.95,187.127,229.25,187.275Z"/><path class="y" d="M227.839,186.545c-.266-.144-.53-.291-.789-.44Q227.44,186.329,227.839,186.545Z"/><path class="y" d="M232.544,188.785c-.386-.165-.768-.333-1.149-.5C231.776,188.452,232.158,188.62,232.544,188.785Z"/><path class="y" d="M226.538,185.8c-.258-.155-.509-.313-.758-.473C226.029,185.491,226.28,185.649,226.538,185.8Z"/><path class="y" d="M231.084,188.145q-.693-.312-1.368-.638Q230.391,187.832,231.084,188.145Z"/><path class="y" d="M221.047,181.07c-.161-.222-.312-.448-.456-.679C220.735,180.622,220.886,180.848,221.047,181.07Z"/><path class="y" d="M222.926,183.16c-.256-.235-.5-.474-.74-.721C222.421,182.686,222.67,182.925,222.926,183.16Z"/><path class="y" d="M219.78,178.846a10.247,10.247,0,0,1-.43-1.213A10.247,10.247,0,0,0,219.78,178.846Z"/><path class="y" d="M250.584,197.482a20.319,20.319,0,0,0-2.82-2.017A20.319,20.319,0,0,1,250.584,197.482Z"/><path class="y" d="M252.068,198.985c-.163-.2-.332-.387-.51-.574C251.736,198.6,251.905,198.79,252.068,198.985Z"/><path class="y" d="M250.76,197.639c.205.183.4.371.592.561C251.163,198.009,250.965,197.822,250.76,197.639Z"/><path class="y" d="M234.522,189.606a124.06,124.06,0,0,1,12.062,5.183,70.966,70.966,0,0,0-7.568-3.4C237.527,190.8,236.014,190.211,234.522,189.606Z"/><path class="y" d="M252.831,200c-.18-.278-.38-.546-.589-.81C252.452,199.455,252.65,199.724,252.831,200Z"/><path class="y" d="M220.347,179.989c-.143-.252-.272-.513-.4-.777C220.075,179.476,220.2,179.737,220.347,179.989Z"/><path class="y" d="M247.66,195.4q-.487-.291-1-.571Q247.174,195.111,247.66,195.4Z"/><path class="y" d="M251.558,198.411c-.067-.071-.136-.141-.206-.211C251.422,198.27,251.491,198.34,251.558,198.411Z"/><path class="y" d="M252.242,199.192c-.056-.07-.116-.138-.174-.207C252.126,199.054,252.186,199.122,252.242,199.192Z"/><path class="y" d="M231.4,188.283c-.1-.046-.209-.091-.311-.138C231.187,188.192,231.292,188.237,231.4,188.283Z"/><path class="y" d="M234.522,189.606l-.452-.184Z"/><path class="y" d="M233.042,188.994l-.5-.209Z"/><path class="y" d="M246.662,194.832l-.078-.043Z"/><path class="y" d="M247.764,195.465l-.1-.062Z"/><path class="y" d="M225.78,185.331c-.155-.1-.311-.2-.462-.3C225.469,185.133,225.625,185.231,225.78,185.331Z"/><path class="y" d="M220.591,180.391c-.083-.133-.167-.266-.244-.4C220.424,180.125,220.508,180.258,220.591,180.391Z"/><path class="y" d="M219.952,179.212c-.057-.122-.12-.241-.172-.366C219.832,178.971,219.9,179.09,219.952,179.212Z"/><path class="y" d="M222.186,182.439c-.1-.109-.2-.222-.3-.334C221.986,182.216,222.082,182.33,222.186,182.439Z"/><path class="y" d="M229.716,187.507c-.157-.076-.311-.155-.466-.232C229.406,187.352,229.559,187.431,229.716,187.507Z"/><path class="y" d="M250.584,197.482c.06.051.117.1.176.157C250.7,197.586,250.644,197.534,250.584,197.482Z"/><path class="y" d="M221.336,181.455c-.1-.127-.2-.256-.289-.385C221.141,181.2,221.236,181.328,221.336,181.455Z"/><path class="y" d="M228.362,186.826c-.177-.093-.349-.187-.523-.281C228.013,186.639,228.185,186.733,228.362,186.826Z"/><path class="y" d="M224.506,184.455c-.108-.08-.22-.156-.326-.237C224.286,184.3,224.4,184.375,224.506,184.455Z"/><path class="y" d="M227.05,186.105q-.258-.148-.512-.3Q226.791,185.957,227.05,186.105Z"/><path class="y" d="M223.136,183.359c-.073-.064-.139-.133-.21-.2C223,183.226,223.063,183.294,223.136,183.359Z"/><path class="y" d="M295.669,235.748q-1.012,1.8-2.031,3.6c.01-.006-14.4-8.94-33.1-19.762-2.231-7.112-4.327-14.369-7.714-19.578a9.028,9.028,0,0,0-.585-.819c-.054-.07-.118-.138-.172-.207-.161-.187-.332-.384-.514-.571-.064-.068-.138-.137-.2-.206-.192-.2-.384-.383-.6-.569-.053-.049-.117-.1-.17-.157a20.072,20.072,0,0,0-2.823-2.009.691.691,0,0,0-.105-.068c-.325-.194-.659-.378-.994-.572-.031-.01-.053-.029-.084-.039-.282-.155-.574-.31-.867-.455l-.344-.174a1.184,1.184,0,0,0-.156-.077c-.126-.068-.261-.136-.4-.193-.3-.155-.614-.29-.926-.435-.073-.029-.146-.067-.219-.1-.229-.117-.468-.223-.718-.329-.208-.1-.426-.183-.644-.279-.426-.183-.862-.367-1.3-.55-.664-.27-1.327-.54-2-.81-1.481-.589-2.991-1.178-4.49-1.789-.155-.058-.3-.117-.455-.185-.341-.136-.682-.281-1.023-.427l-.5-.2c-.393-.166-.775-.331-1.157-.507-.1-.039-.206-.088-.309-.137-.465-.205-.919-.42-1.363-.635-.165-.079-.309-.157-.474-.235-.3-.147-.588-.294-.888-.451-.175-.089-.34-.187-.515-.275-.268-.148-.537-.295-.8-.443-.165-.1-.34-.2-.5-.3-.258-.157-.516-.315-.763-.473-.155-.1-.31-.2-.464-.306-.279-.188-.547-.376-.805-.574-.114-.079-.227-.158-.33-.237-.361-.278-.712-.565-1.042-.863a1.852,1.852,0,0,1-.207-.2q-.387-.342-.743-.715c-.1-.109-.207-.228-.3-.338a7.961,7.961,0,0,1-.548-.647c-.1-.129-.2-.259-.29-.388-.165-.22-.31-.449-.456-.678-.083-.13-.166-.27-.249-.4-.145-.25-.27-.519-.4-.779-.052-.12-.114-.24-.167-.369a9.627,9.627,0,0,1-.43-1.21,51.938,51.938,0,0,1-1.766-9.385q14.243-.132,28.66-.187c2.765,3.345,5.043,6.253,6.285,7.84,7.424,9.581,14.509,19.83,21.83,29.833C281.215,215.131,289.186,224.9,295.669,235.748Z"/><path class="y" d="M302.59,223.33q-1.674,3.035-3.364,6.068c-5.7-8.5-12.045-16.382-17.659-24.006-7.361-9.99-14.517-20.216-21.988-29.764-1.208-1.543-3.425-4.346-6.123-7.584q3.62,0,7.241-.011c2.609,3.111,4.755,5.8,5.938,7.3,7.518,9.525,14.714,19.729,22.125,29.7C293.15,210.915,297.967,216.964,302.59,223.33Z"/><path class="z" d="M382.144,189.832q-32.4,9.63-65.5,18.33-5.6,9.51-11.35,18.98-1.815,3-3.64,5.98c-1.28,2.09-2.57,4.19-3.87,6.28q-1.875,3.045-3.78,6.07l-.15-.09c-3.5-2.21-69.29-43.1-104.39-53.55-29.78-8.87-151.19-3-162.86-3h-.14a2.116,2.116,0,0,1-1.58-.68,1.991,1.991,0,0,1-.47-1.62v-.01a18.917,18.917,0,0,1,.74-2.92c18.64-1.6,60.64-3.23,99.2-3.12,22.62.11,44.11.93,59.34,3.57.56.09,1.12.19,1.67.29,19.48,3.73,50.71,21.2,75.18,35.24,18.68,10.82,33.09,19.75,33.09,19.76.68-1.19,1.36-2.39,2.04-3.59q1.785-3.18,3.55-6.35,1.695-3.045,3.37-6.07,5.43-9.855,10.71-19.72c20.9-4.53,47.47-14.11,69.05-20.48a19.584,19.584,0,0,1,1.22,4.52v.01A1.984,1.984,0,0,1,382.144,189.832Z"/><path class="v" d="M375.434,172.941c-6.906-5.078-23.152-13.894-39.758-16.467-16.211-2.5-45.441-3.692-96.193-1.91-16.99.594-32.956,2.515-46.721,3.156-26.238,1.211-55.014,1.234-80.413,1.258-32.328.034-72.494.081-78.677,3.761-.9,1.025-1.619,1.933-2.19,2.725-2.492,3.424-2.41,4.833-2.41,4.856.046,0,2.433,3.168,21.381,3.168h.489c13.672-.035,31.641-1.607,50.67-3.273,22.348-1.956,46.815-4.1,68.65-4.1a226.493,226.493,0,0,1,24.817,1.2c9.153,1.013,20.764,2.6,34.215,4.425,29.533,4.018,66.286,9.025,96.588,10.656,47.933,2.573,52.638-5.078,53.01-5.963C379.091,175.98,377.809,174.687,375.434,172.941Z"/><path class="aa" d="M378.893,176.434c-.373.885-5.078,8.536-53.011,5.963-30.3-1.631-67.055-6.638-96.588-10.656-13.451-1.828-25.062-3.412-34.215-4.425a226.493,226.493,0,0,0-24.817-1.2c-21.835,0-46.3,2.143-68.65,4.1-19.029,1.666-37,3.238-50.67,3.273h-.489c-18.948,0-21.335-3.168-21.381-3.168,0-.023-.082-1.432,2.41-4.856,2.655.885,8.071,1.933,18.971,1.933h.489c13.672-.035,31.641-1.619,50.67-3.272,22.348-1.957,46.815-4.1,68.65-4.1a226.244,226.244,0,0,1,24.817,1.2c9.153,1.013,20.764,2.6,34.215,4.425,29.533,4.018,66.286,9.014,96.588,10.656,31.536,1.689,44.358-1.036,49.552-3.366C377.809,174.687,379.091,175.98,378.893,176.434Z"/><path class="ab" d="M375.434,172.94c-5.194,2.33-18.016,5.055-49.552,3.366-30.3-1.642-67.055-6.638-96.588-10.656-13.451-1.828-25.062-3.412-34.215-4.425a226.244,226.244,0,0,0-24.817-1.2c-21.835,0-46.3,2.142-68.65,4.1-19.029,1.653-37,3.237-50.67,3.272h-.489c-10.9,0-16.316-1.048-18.971-1.933.571-.792,1.293-1.7,2.19-2.725,6.183-3.68,46.349-3.727,78.677-3.762,25.4-.023,54.175-.046,80.413-1.257,13.765-.641,29.731-2.562,46.721-3.156,50.752-1.782,79.982-.594,96.193,1.91C352.282,159.047,368.528,167.863,375.434,172.94Z"/><ellipse class="v" cx="275.906" cy="156.376" rx="17.219" ry="2.548"/><path class="ac" d="M192.269,167.044c98.685,14.05,76.882,20.508,82.557,25.58,4.169,3.727,20.185,2.219,20.245,2.212,16.039-1.761,48.966-4.639,78.315-15.011"/><path class="ad" d="M393.354,142.232c0,.26-.01.51-.02.77-1.47,32.19-96.18,36.21-186.26,36.21s-190.86-2.45-192.43-36.18c-.01-.26-.02-.53-.02-.8,0-2.75.07-5.47.22-8.14a3.97,3.97,0,0,0,.92,1.26,4.208,4.208,0,0,1-.91-1.26c.04-.76.09-1.52.14-2.27,2.43-34.61,16.95-62.55,38.99-83.93q4.38-4.245,9.14-8.14c55.47-45.48,224.28-45.21,280.48-.06.01.01.02.01.03.02,3.11,2.51,6.12,5.11,8.99,7.82l.01.01c22.77,21.49,37.83,49.59,40.35,84.24v.01q.09,1.155.15,2.31c0,.01-.01.01-.01.02C393.274,136.782,393.354,139.492,393.354,142.232Z"/><path class="ae" d="M393.124,134.122v-.02a2.319,2.319,0,0,1-.2.38,2.857,2.857,0,0,1-.26.38,4.146,4.146,0,0,1-.45.5c-10.37,10.26-90.68,18.25-188.22,18.25-84.08,0-155.37-5.93-180.08-14.14-.46-.15-.91-.31-1.34-.47h-.01c-1.08-.39-2.05-.79-2.92-1.19h-.01c-.34-.16-.67-.32-.98-.48h-.01c-.31-.16-.6-.32-.87-.49h-.01c-.28-.16-.53-.32-.77-.49a8.716,8.716,0,0,1-1.23-1,3.97,3.97,0,0,1-.92-1.26c-.15,2.67-.22,5.39-.22,8.14,0,.27.01.54.02.8,1.57,33.73,102.35,36.18,192.43,36.18s184.79-4.02,186.26-36.21c.01-.26.02-.51.02-.77C393.354,139.492,393.274,136.782,393.124,134.122Z"/><path class="af" d="M354.084,52.352c0,19.04-67.46,34.47-150.67,34.47s-150.68-15.43-150.68-34.47a9.049,9.049,0,0,1,1.25-4.46q4.38-4.245,9.14-8.14c55.47-45.48,224.28-45.21,280.48-.06.01.01.02.01.03.02,3.11,2.51,6.12,5.11,8.99,7.82l.01.01A9.241,9.241,0,0,1,354.084,52.352Z"/><path class="ad" d="M393.134,134.1c0,.01-.01.01-.01.02a3.32,3.32,0,0,1-.46.74,4.146,4.146,0,0,1-.45.5c-10.37,10.26-90.68,18.25-188.22,18.25-84.08,0-155.37-5.93-180.08-14.14-.46-.16-.91-.31-1.34-.47h-.01c-1.08-.39-2.05-.79-2.92-1.19h-.01c-.34-.16-.67-.32-.98-.48h-.01c-.3-.17-.6-.33-.87-.49h-.01c-.27-.17-.53-.33-.77-.49a8.716,8.716,0,0,1-1.23-1,4.208,4.208,0,0,1-.91-1.26c.04-.76.09-1.52.14-2.27,2.43-34.61,16.95-62.55,38.99-83.93a9.049,9.049,0,0,0-1.25,4.46c0,19.04,67.46,34.47,150.68,34.47s150.67-15.43,150.67-34.47a9.241,9.241,0,0,0-1.45-4.81c22.77,21.49,37.83,49.59,40.35,84.24v.01Q393.074,132.947,393.134,134.1Z"/><path class="ag" d="M274.249,17.24c-.76-3.243,2.244-6.058,7-6.049,5.761.01,6.609,2.887,8.087,6.11C286.187,22.054,275.785,23.8,274.249,17.24Z"/><path class="ag" d="M175.032,5.966c2.806,3.524,6.568,7.589,12.54,6.232,4.344-.987,8.282-5.122,6.365-8.564C189.687-4,172.137,2.179,175.032,5.966Z"/><path class="ag" d="M252.472,12.673c8.85-7.262-2.418-13.314-11.092-10.435C228.444,6.531,244,19.13,252.472,12.673Z"/><path class="ag" d="M81.424,34.957c-2.33-3.5.8-6.591,3.411-8.222.932-.583,12.051-2.306,10.594-.652a1.642,1.642,0,0,1,.923.052C104.367,29.753,88.221,45.159,81.424,34.957Z"/><path class="ag" d="M94.549,26.724q-2.889-.393-3.507,1.313c.08.138,2.7-1.065,2.981.345C95.3,28.5,94.519,27.367,94.549,26.724Z"/><path class="ag" d="M155.047,7.857c-4.854-3.267-6.687-2.3-11.545.071-3.391,1.653-6.667,1.884-5.627,5.065C141.842,25.121,165.209,13.418,155.047,7.857Z"/><path class="ag" d="M310.814,29.261c.259-.286,6.251-2.51,7.542-2.389,3.712.345,7.329,5.577,6.933,8.144h0C320.758,45.982,303.951,36.831,310.814,29.261Z"/><path class="ag" d="M317.273,32.123l0,0S317.277,32.121,317.273,32.123Z"/><path class="ag" d="M317.326,32.163l-.049-.054v.013C317.3,32.135,317.308,32.149,317.326,32.163Z"/><path class="ag" d="M215.259,8c-2.972,2.806-6.119,11.583,2.949,9.337a5.118,5.118,0,0,0,3.765-4.857C222.408,7.534,220.062,8.005,215.259,8Z"/><path class="ag" d="M296.633,36c-10.735-4.479-21.827,6.709-10.054,10.643C294.891,49.418,303.705,41.877,296.633,36Z"/><path class="ag" d="M308.113,50.467h0c-.622,4.293,4.072,10.336,8.026,5.789C319.64,52.234,312.347,45.626,308.113,50.467Z"/><path class="ag" d="M122.188,45.719c-8.5-1.175-20.932,8.023-9.159,12.545C121.12,61.372,131.067,50.118,122.188,45.719Z"/><path class="ag" d="M123.5,35.01c2.968-3.173,7.2-7.216,2.863-10.933-3.047-2.614-8.764-1.912-11.76.518C106.959,30.8,115.716,35.985,123.5,35.01Z"/><path class="ag" d="M153.711,34.739c3.771-4.712-5.351-8.548-9.731-6.271C136.471,32.371,147.154,40.01,153.711,34.739Z"/><path class="ag" d="M196.909,29.253c9.245-1.1,8.493-14.078-3.447-11.624C181.346,20.119,189.68,35.365,196.909,29.253Z"/><path class="ag" d="M175.115,45.626c5.169,1.635,9.187-2.876,4.478-6.019C174.7,36.341,169.765,42.158,175.115,45.626Z"/><path class="ag" d="M245.2,35.4c7.528-4.137-5.924-12.79-12.266-9.965-3.83,1.706-5.193,6.244-2.3,8.994C234.056,37.679,241.023,36.37,245.2,35.4Z"/><path class="ag" d="M150.43,53.344c-4.349.122-7.3-.076-5.957,4.726.926,3.319,3.616,4.418,7.275,3.9C158.978,60.935,157.791,53.137,150.43,53.344Z"/><path class="ag" d="M206.068,45.633c-11.309-6.6-17.555,7.177-7.611,11.033a8.888,8.888,0,0,0,8.966-1.644C211.584,51.211,207.848,48.788,206.068,45.633Z"/><path class="ag" d="M258.827,40.818c-.874,3.748-2.99,12.635,5.694,8.749,3.386-1.514,3.767-3.244,2.548-5.936C265.351,39.835,263.4,40.816,258.827,40.818Z"/><path class="ag" d="M230.046,59.191c-4.924-.24-8.405,4.892-2.453,5.726C231.85,65.514,235.843,59.738,230.046,59.191Z"/><path class="ag" d="M217.91,90.066c-1.671-4.344-2.63-8.223-9.143-8.237-5.373-.012-8.77,3.783-7.911,8.155C202.593,98.829,214.351,96.475,217.91,90.066Z"/><path class="ag" d="M98.666,73.653c2.805,3.523,6.568,7.588,12.54,6.232,4.344-.987,8.281-5.123,6.365-8.565C113.321,63.688,95.771,69.866,98.666,73.653Z"/><path class="ag" d="M182.57,81.429c8.85-7.261-2.418-13.313-11.091-10.434C158.543,75.288,174.1,87.887,182.57,81.429Z"/><path class="ag" d="M233.392,86.939c-2.329-3.5.8-6.591,3.411-8.223.932-.582,12.051-2.3,10.594-.652a1.643,1.643,0,0,1,.923.053C256.335,81.735,240.19,97.141,233.392,86.939Z"/><path class="ag" d="M246.517,78.706q-2.889-.393-3.506,1.313c.079.138,2.7-1.065,2.98.344C247.271,80.48,246.487,79.348,246.517,78.706Z"/><path class="ag" d="M85.537,82.035c-4.853-3.266-6.686-2.3-11.544.072-3.391,1.652-6.667,1.884-5.627,5.064C72.333,99.3,95.7,87.6,85.537,82.035Z"/><path class="ag" d="M226.1,102.621c.259-.286,6.251-2.51,7.543-2.39,3.711.346,7.328,5.578,6.933,8.144h0C236.048,119.341,219.242,110.191,226.1,102.621Z"/><path class="ag" d="M232.564,105.482l0,0S232.568,105.481,232.564,105.482Z"/><path class="ag" d="M232.617,105.523l-.05-.054v.012C232.586,105.5,232.6,105.509,232.617,105.523Z"/><path class="ag" d="M141.9,81.364c-2.972,2.806-6.119,11.582,2.948,9.337a5.118,5.118,0,0,0,3.765-4.857C149.048,80.894,146.7,81.365,141.9,81.364Z"/><path class="ag" d="M234.753,123.827h.005c-.623,4.293,4.071,10.336,8.025,5.788C246.281,125.593,238.988,118.986,234.753,123.827Z"/><path class="ag" d="M54.733,54.965c-8.5-1.175-20.932,8.024-9.159,12.545C53.665,70.618,63.611,59.365,54.733,54.965Z"/><path class="ag" d="M262.438,64.457c-2.279,3.068.107,6.823,4.66,5.37,2.318-.74,3.2-2.169,2.689-3.933C269.1,63.524,264.862,64.473,262.438,64.457Z"/><path class="ag" d="M77.67,110.306c3.771-4.711-5.351-8.547-9.73-6.271C60.43,107.939,71.113,115.578,77.67,110.306Z"/><path class="ag" d="M119.713,102.221c9.245-1.1,8.493-14.078-3.446-11.624C104.151,93.087,112.485,108.333,119.713,102.221Z"/><path class="ag" d="M101.755,118.986c5.17,1.635,9.187-2.876,4.478-6.019C101.341,109.7,96.406,115.517,101.755,118.986Z"/><path class="ag" d="M28.389,91.078c5.17,1.635,9.187-2.876,4.478-6.019C27.974,81.793,23.04,87.609,28.389,91.078Z"/><path class="ag" d="M166.5,112.441c7.529-4.137-5.924-12.79-12.265-9.966-3.83,1.706-5.194,6.245-2.3,9C155.36,114.722,162.328,113.414,166.5,112.441Z"/><path class="ag" d="M187.73,93.907c-4.067-.76-15.833.069-9.954,6.238C183.09,105.719,187.959,97.862,187.73,93.907Z"/><path class="ag" d="M49.541,77.748c-4.35.123-7.3-.076-5.958,4.726.926,3.319,3.617,4.419,7.275,3.9C58.089,85.339,56.9,77.541,49.541,77.748Z"/><path class="ag" d="M132.708,118.993c-11.309-6.595-17.555,7.176-7.61,11.033a8.887,8.887,0,0,0,8.965-1.644C138.224,124.57,134.489,122.148,132.708,118.993Z"/><path class="ag" d="M185.468,114.177c-.875,3.749-2.99,12.635,5.694,8.75,3.385-1.515,3.766-3.245,2.548-5.937C191.992,113.194,190.042,114.176,185.468,114.177Z"/><path class="ag" d="M78.072,67.468c-.034-.236,4.225-1.4,2.011-3.826,1.958.542-1.313-5.42-1.51-5.612-.706-.691-5.662-1.978-5.262-1.364C63.465,52.994,68.14,73.489,78.072,67.468Z"/><path class="ag" d="M66.714,43.092c-4.924-.24-8.405,4.892-2.453,5.726C68.518,49.415,72.511,43.639,66.714,43.092Z"/><path class="ag" d="M334.294,70.343c3.747,2.5,8.57,5.223,13.843,2.11,3.837-2.265,6.325-7.4,3.45-10.1C345.212,56.383,330.383,67.619,334.294,70.343Z"/><path class="ag" d="M313.935,69.311c-4.853-3.267-6.686-2.3-11.544.071-3.391,1.653-6.667,1.884-5.627,5.064C300.731,86.575,324.1,74.872,313.935,69.311Z"/><path class="ag" d="M286.981,105.163c-8.5-1.175-20.931,8.024-9.159,12.545C285.913,120.816,295.86,109.563,286.981,105.163Z"/><path class="ag" d="M271.267,96.464c2.967-3.173,7.194-7.216,2.863-10.933-3.047-2.614-8.764-1.912-11.76.518C254.724,92.251,263.481,97.439,271.267,96.464Z"/><path class="ag" d="M309.919,98.4c3.771-4.712-5.351-8.548-9.73-6.271C292.679,96.033,303.362,103.672,309.919,98.4Z"/><path class="ag" d="M363.741,87.368c9.245-1.1,8.494-14.078-3.446-11.624C348.179,78.234,356.513,93.48,363.741,87.368Z"/><path class="ag" d="M328.6,95.487c8.25,4.315,14.963-6.815,3.726-11.538C320.919,79.156,319.179,96.444,328.6,95.487Z"/><path class="ag" d="M309.319,114.8c-4.349.122-7.3-.076-5.957,4.726.926,3.319,3.616,4.418,7.275,3.9C317.867,122.389,316.68,114.591,309.319,114.8Z"/><path class="ag" d="M371.516,98.734c-11.309-6.6-17.555,7.176-7.61,11.032a8.885,8.885,0,0,0,8.965-1.644C377.032,104.311,373.3,101.888,371.516,98.734Z"/><path class="ag" d="M346.618,39.483c-.214.18-5.21-2.285-5.744.979-1.187-1.836-4.425,4.537-4.448,4.811-.083.986,3.007,5.578,3.286,4.873C344.7,60,361.692,43.063,346.618,39.483Z"/></svg>