<?xml version="1.0" encoding="utf-8"?>
<!-- Generator: Adobe Illustrator 23.0.6, SVG Export Plug-In . SVG Version: 6.00 Build 0)  -->
<svg version="1.1" id="Ebene_1" xmlns:vectornator="http://vectornator.io"
	 xmlns="http://www.w3.org/2000/svg" xmlns:xlink="http://www.w3.org/1999/xlink" x="0px" y="0px" viewBox="0 0 1024 927.9"
	 style="enable-background:new 0 0 1024 927.9;" xml:space="preserve">
<style type="text/css">
	.st0{opacity:0.99;fill-rule:evenodd;clip-rule:evenodd;}
	.st1{opacity:0.99;fill-rule:evenodd;clip-rule:evenodd;fill:#B01C18;}
	.st2{opacity:0.99;fill-rule:evenodd;clip-rule:evenodd;fill-opacity:0.2871;}
	.st3{opacity:0.99;fill-rule:evenodd;clip-rule:evenodd;fill-opacity:0.2909;}
	.st4{opacity:0.99;fill-rule:evenodd;clip-rule:evenodd;fill:#FFFFFF;fill-opacity:0.1021;}
</style>
<path class="st0" d="M545,498.4L545,498.4v4.9l0,0V498.4z"/>
<path class="st0" d="M53.2,68.1h956.2c4,0,7.3,2.9,7.3,6.4V79c0,3.5-3.3,6.4-7.3,6.4H53.2c-4,0-7.3-2.9-7.3-6.4v-4.5
	C45.9,71,49.2,68.1,53.2,68.1z"/>
<path class="st1" d="M1013.4,818.9c-12.2,21.5-53.1,26.9-90.3,14.5c-1.1-0.4-2.3-0.8-3.4-1.1c-15.8-5.4-30.8-11.1-42.4-14.7
	c-5.5-1.8-10.2-3-13.9-3.6h-0.1c-0.4-0.1-0.9-0.1-1.3-0.2c-0.5-0.1-0.9-0.1-1.3-0.2h-0.3c0,0-0.1,0-0.2,0c-0.9-0.1-1.9-0.2-2.9-0.2
	c-1.9-0.1-3.7-0.1-5.6,0c-1,0.1-1.9,0.1-2.9,0.2c-0.3,0-0.5,0.1-0.8,0.1c-0.4,0-0.9,0.1-1.3,0.2c-0.6,0.1-1.1,0.2-1.7,0.3
	c-0.4,0.1-0.8,0.2-1.3,0.3c-0.5,0.1-0.9,0.2-1.4,0.4c-0.5,0.1-1.1,0.3-1.6,0.5c-0.6,0.2-1.3,0.4-1.9,0.6c-1,0.4-2.1,0.8-3.1,1.2
	c-2.5,1.1-5,2.4-7.5,4c-3.9,2.5-8.5,5-13.6,7.5c-0.7,0.3-1.5,0.7-2.2,1c-0.4,0.2-0.8,0.4-1.2,0.6c-0.3,0.2-0.7,0.3-1,0.5
	c-0.8,0.4-1.5,0.7-2.3,1c-0.6,0.3-1.3,0.5-1.9,0.8c-11.2,7-23.2,12.4-35.7,16.6c-67.2,22.5-148,8.2-191-5.9
	c-14.3-4.7-27.4,8.4-59,9.8c-13.3,0.6-29.9-0.9-51.2-6.6c-5.1-1.4-10.3-2.4-15.7-3.2c-62.9-9.2-143.3,18.6-208.4,37
	c-23.1,6.5-44.2,11.9-61.9,14c-93.3,11-147-32.7-140.5-44.2C61.5,816.2,56,224,58.1,112.3v-0.1c0-0.7,0-1.5,0-2.2c0,0,0,0,0,0
	c0.1-5.7,0.1-10.5,0.1-14.4c0-0.2,0-0.4,0-0.5c-0.1-4.4-0.3-7.6-0.6-9.5c-0.1-0.6-0.2-1.1-0.4-1.3c-2.3-4.7-5.3-10.6-3.6-16
	c0.9-3,3.1-5.8,7.6-8.4c5.9-3.4,931.3-1.5,945,3.8c1.7,0.7,2.3,12.7,2.3,33v0c0,3.8,0,8-0.1,12.4c-0.2,14-0.6,30.7-1.1,49.5
	C1002.5,319.9,987.3,771.9,1013.4,818.9z"/>
<path class="st2" d="M1008.5,96.7L1008.5,96.7c0,3.9,0,8-0.1,12.4c-40.5-5-111-7.9-145.8-9.6c-64.4-3.2-158.2,18.6-183,18.1
	c-24.8-0.5-15.9-21.7-64.4-11.3c-65.6,14-145.9-14.6-280.3,15.1c-101.2,22.4-177.3-19.7-270.4-16.5c-0.1,0-2.5,2-6.4,5.2
	c0.1-5.7,0.1-10.5,0.1-14.4c0-0.2,0-0.4,0-0.5h0c78.2,2.3,514.5-0.9,752.9-0.4c55.1,0.2,163.7,0.5,197.3,1.1
	C1008.4,96.1,1008.4,96.4,1008.5,96.7z"/>
<path class="st3" d="M453.1,843.2c-62.9-9.2-143.3,18.6-208.4,37C335.9,795.3,358.8,510,376.5,489
	C401.9,459,350.3,789.6,453.1,843.2z"/>
<path class="st3" d="M919.7,832.3c-15.8-5.4-30.8-11.1-42.4-14.7c-5.5-1.8-10.2-3-13.9-3.6h-0.1c-0.4-0.1-0.9-0.1-1.3-0.2
	c-0.5-0.1-0.9-0.1-1.3-0.2c-0.1,0-0.2,0-0.3,0c0,0-0.1,0-0.2,0c-0.9-0.1-1.9-0.2-2.9-0.2c-1.9-0.1-3.7-0.1-5.6,0
	c-1,0.1-1.9,0.1-2.9,0.2c-0.3,0-0.5,0.1-0.8,0.1c-0.4,0-0.9,0.1-1.3,0.2c-0.6,0.1-1.1,0.2-1.7,0.3c-0.4,0.1-0.8,0.2-1.3,0.3
	s-0.9,0.2-1.4,0.4l0,0c-0.5,0.1-1.1,0.3-1.6,0.5c-0.6,0.2-1.3,0.4-1.9,0.6c-1,0.4-2.1,0.8-3.1,1.2c-2.5,1.1-5,2.4-7.5,4
	c-3.9,2.5-8.5,5-13.6,7.5c-0.7,0.3-1.5,0.7-2.2,1c-0.4,0.2-0.8,0.4-1.2,0.6c-0.3,0.2-0.7,0.3-1,0.5c-0.8,0.4-1.5,0.7-2.3,1
	c-0.6,0.3-1.3,0.5-1.9,0.8c-11.2,7-23.2,12.4-35.7,16.6c35.2-43.8,49.1-121,60.8-197.8c13.1-85.4,5.3-391.8,26.3-403.4
	C879.3,235.7,889.7,724.7,919.7,832.3z"/>
<path class="st4" d="M174.4,249.1c-76.5,19.6-2,257.7-53.5,471.3c-10,41.4,93.2,17.8,98.7-91.4C225,519.7,257.6,227.1,174.4,249.1z"
	/>
<path class="st4" d="M656.2,248.4c-18.5-100.5-68.9,404.8-43.4,440.6C662.6,759,665.5,299.5,656.2,248.4z"/>
<path class="st4" d="M468.6,384.7c-18.8-0.4-25.6,307.9-6.9,308.4C485.2,713.3,473.5,429.4,468.6,384.7z"/>
<path class="st3" d="M579,843.2c-14.3-4.7-27.4,8.4-59,9.8c44.7-64.7,32.7-129.1,42.9-149.4C577.8,673.6,560,838,579,843.2z"/>
</svg>
