<?xml version="1.0" encoding="utf-8"?>
<!-- Generator: Adobe Illustrator 23.0.1, SVG Export Plug-In . SVG Version: 6.00 Build 0)  -->
<svg version="1.1" id="Ebene_1" xmlns:serif="http://www.serif.com/"
	 xmlns="http://www.w3.org/2000/svg" xmlns:xlink="http://www.w3.org/1999/xlink" x="0px" y="0px" viewBox="0 0 573.3 440.4"
	 style="enable-background:new 0 0 573.3 440.4;" xml:space="preserve">
<g>
	<path d="M55.8,245.5c23.1-0.3,46.1-0.5,69.2-0.7c0.1-7.1,0.3-14.9,0.4-23.6c1.4-78.1,76.6-82.3,76.6-82.3s114.3-0.8,149.8-1.1
		c2.7,0,5.4-1.1,7.3-3.1c1.9-2,3-4.6,2.9-7.4c-0.1-4.5-0.2-10-0.2-15.4c-0.1-4.1,2.3-7.9,6.1-9.6c3.8-1.7,8.2-1,11.2,1.8
		c17.5,16.2,43.5,40.2,56.6,52.2c2.1,1.9,3.3,4.7,3.3,7.5c0,2.9-1.1,5.6-3.2,7.5c-12.9,12.2-38.6,36.7-55.8,52.9
		c-3,2.8-7.3,3.6-11.1,2s-6.2-5.2-6.3-9.3c-0.1-5.6-0.2-11.3-0.3-15.9c-0.1-5.5-4.5-9.9-9.9-10.1c-25.8-0.9-96.7-2.8-134.6,0.5
		c-46.9,4.1-41.2,30.2-41.2,30.2s0.1,10.6,0.2,19.7c0,0.9,0,1.9-0.1,2.8c73.2-0.4,146.5-0.4,219.9,0c1-1.4,2.1-2.7,3.3-3.9
		c7.1-7.1,17.2-17.1,25.8-25.8c3-3,7.5-3.8,11.3-2.2c3.9,1.6,6.3,5.5,6.3,9.7c-0.1,6-0.2,13.4-0.4,22.5c24.8,0.2,49.6,0.4,74.5,0.7
		c14.8,0.2,29-5.6,39.4-15.9s16.4-24.5,16.4-39.3c0,0,0,0,0,0c0-49.1-30.1-93.8-79.1-126.8c1.9-5,0.1-10.7-5.1-14.3
		c-1.5-1-4-1.8-6.9-2.3c-4.1-1.7-8.7-0.7-11.7,2.3c-12.7-6.8-26.4-13-40.9-18.4c0.1-1.6-0.1-3.3-0.6-4.9c0.3-0.2,0.3-0.2,0.3-0.3
		c-2.7-7-9.4-13.3-18-9.9c-3.7,1.5-6.4,3.8-7.9,6.4c-9.5-2.7-19.4-5.2-29.4-7.2c-1.3-5-6.1-8.3-11.3-7.6c-1.8,0.1-3.4,0.2-4.5,0.4
		c-3.5,0.6-6.8,1.5-9.5,2.8c-20-2.8-40.7-4.3-62-4.3c-7,0-14,0.2-20.9,0.5c-1.6-4.5-6.2-7.4-11-6.7c-1.8,0.1-3.4,0.2-4.5,0.4
		c-7.5,1.2-14.4,4.3-15.1,8.8c-12.4,1.5-24.6,3.4-36.4,5.9c-2.2-2.9-5.8-4.6-9.6-4.1c-1.8,0.1-3.4,0.2-4.5,0.4
		c-8.6,1.4-16.4,5.2-15,10.9c-25.1,7.2-48.4,16.7-69,28.1c-0.8-0.8-1.9-1.4-3.2-2c-8.5-3.6-19.3-1.3-24,5.1
		c-2.1,2.8-1.8,9.1-0.9,14.6C59,77.8,47.1,88.5,37,99.9c-2.7-1.1-5.7-1.3-9.1,0.1c-8.6,3.4-11.9,11.4-7.4,17.9
		c0.4,0.5,0.9,1,1.6,1.6C7.9,141.2,0,165.2,0,190.3c0,0,0,0,0,0c0,14.7,5.9,28.9,16.4,39.2C26.9,240,41.1,245.7,55.8,245.5z"/>
	<path d="M537.7,261.6c-23.3,0-56.4,0-95,0c-0.1,6.6-0.2,13.8-0.4,21.8c-1.4,78.1-76.7,82.3-76.7,82.3s-114.3,0.8-149.8,1.1
		c-2.7,0-5.4,1.1-7.3,3.1c-1.9,2-3,4.6-2.9,7.4c0.1,4.5,0.2,10,0.2,15.4c0.1,4.1-2.3,7.9-6.1,9.6c-3.8,1.7-8.2,1-11.2-1.8
		C171.1,384.1,145,360,132,348c-2.1-1.9-3.3-4.6-3.3-7.5c0-2.8,1.1-5.6,3.2-7.5c12.9-12.2,38.6-36.6,55.8-52.9c3-2.8,7.3-3.6,11.1-2
		c3.8,1.6,6.2,5.2,6.3,9.3c0.1,5.6,0.2,11.3,0.3,15.9c0.1,5.5,4.5,9.9,9.9,10.1c25.8,0.9,96.7,2.8,134.6-0.5
		c46.9-4.1,41.2-30.2,41.2-30.2s-0.1-10.6-0.2-19.7c0-0.4,0-0.9,0-1.3c-70.8,0-151.4,0-220.9,0c-0.7,0.8-1.4,1.6-2.2,2.4
		c-7.1,7.1-17.2,17.1-25.9,25.8c-3,3-7.4,3.8-11.3,2.2c-3.9-1.6-6.3-5.5-6.3-9.7c0.1-5.6,0.2-12.4,0.4-20.7c-35.4,0-65.9,0-87.9,0
		C16.5,261.6,0,278.1,0,298.4c0,0,0,0,0,0c0,78.4,63.6,141.9,141.9,141.9c87.8,0,200.1,0,288.1,0c38,0,74.4-15.1,101.3-42
		c26.9-26.9,42-63.3,42-101.3v0C573.3,277.5,557.4,261.6,537.7,261.6z"/>
</g>
</svg>
