<?xml version="1.0" encoding="utf-8"?>
<!-- Generator: Adobe Illustrator 23.0.1, SVG Export Plug-In . SVG Version: 6.00 Build 0)  -->
<svg version="1.1" id="Ebene_1" xmlns:serif="http://www.serif.com/"
	 xmlns="http://www.w3.org/2000/svg" xmlns:xlink="http://www.w3.org/1999/xlink" x="0px" y="0px" viewBox="0 0 595.3 130.7"
	 style="enable-background:new 0 0 595.3 130.7;" xml:space="preserve">
<style type="text/css">
	.st0{fill-rule:evenodd;clip-rule:evenodd;fill:#D49445;}
	.st1{fill:none;}
	.st2{clip-path:url(#SVGID_2_);}
	.st3{fill-rule:evenodd;clip-rule:evenodd;fill:#C78C42;}
	.st4{fill-rule:evenodd;clip-rule:evenodd;fill:#BA843E;}
</style>
<g transform="matrix(1,0,0,1,-966,-509)">
	<g transform="matrix(1,0,0,1,0,54)">
		<g transform="matrix(0.620353,0,0,0.787175,641.289,276.326)">
			<path class="st0" d="M1469.9,269.6c0-23.5-24.2-42.6-54-42.6c-165.6,0-665,0-830.6,0c-29.8,0-54,19.1-54,42.6c0,0,0,0,0,0
				c0,32.7,16.5,64,45.8,87.1c29.3,23.1,69.1,36.1,110.6,36.1c173.6,0,452.2,0,625.8,0c41.5,0,81.3-13,110.6-36.1
				C1453.4,333.6,1469.9,302.3,1469.9,269.6C1469.9,269.6,1469.9,269.6,1469.9,269.6z"/>
		</g>
		<g transform="matrix(0.620353,0,0,0.787175,641.289,276.326)">
			<path class="st1" d="M1469.9,269.6c0-23.5-24.2-42.6-54-42.6c-165.6,0-665,0-830.6,0c-29.8,0-54,19.1-54,42.6c0,0,0,0,0,0
				c0,32.7,16.5,64,45.8,87.1c29.3,23.1,69.1,36.1,110.6,36.1c173.6,0,452.2,0,625.8,0c41.5,0,81.3-13,110.6-36.1
				C1453.4,333.6,1469.9,302.3,1469.9,269.6C1469.9,269.6,1469.9,269.6,1469.9,269.6z"/>
			<g>
				<defs>
					<path id="SVGID_1_" d="M1469.9,269.6c0-23.5-24.2-42.6-54-42.6c-165.6,0-665,0-830.6,0c-29.8,0-54,19.1-54,42.6c0,0,0,0,0,0
						c0,32.7,16.5,64,45.8,87.1c29.3,23.1,69.1,36.1,110.6,36.1c173.6,0,452.2,0,625.8,0c41.5,0,81.3-13,110.6-36.1
						C1453.4,333.6,1469.9,302.3,1469.9,269.6C1469.9,269.6,1469.9,269.6,1469.9,269.6z"/>
				</defs>
				<clipPath id="SVGID_2_">
					<use xlink:href="#SVGID_1_"  style="overflow:visible;"/>
				</clipPath>
				<g class="st2">
					<g transform="matrix(1.61199,0,0,1.27037,419.262,-369.115)">
						<path class="st3" d="M69.5,503.2h585.6c0,0-15,95.9-100.1,96.6c-85.1,0.7-386.4,0-386.4,0S81.5,605,69.5,503.2z"/>
					</g>
					<g transform="matrix(1.61199,0,0,1.27037,419.262,-369.115)">
						<path class="st4" d="M75,534.5h571.6c0,0-23.1,65.5-90.3,65.3c-67.2-0.2-402.5,0-402.5,0S105.1,599.3,75,534.5z"/>
					</g>
				</g>
			</g>
			<path class="st1" d="M1469.9,269.6c0-23.5-24.2-42.6-54-42.6c-165.6,0-665,0-830.6,0c-29.8,0-54,19.1-54,42.6c0,0,0,0,0,0
				c0,32.7,16.5,64,45.8,87.1c29.3,23.1,69.1,36.1,110.6,36.1c173.6,0,452.2,0,625.9,0c41.5,0,81.3-13,110.6-36.1
				C1453.4,333.6,1469.9,302.3,1469.9,269.6C1469.9,269.6,1469.9,269.6,1469.9,269.6z"/>
		</g>
	</g>
</g>
</svg>
