<?xml version="1.0" encoding="UTF-8" standalone="no"?>
<!DOCTYPE svg PUBLIC "-//W3C//DTD SVG 1.1//EN" "http://www.w3.org/Graphics/SVG/1.1/DTD/svg11.dtd">
<svg width="100%" height="100%" viewBox="0 0 299 68" version="1.1" xmlns="http://www.w3.org/2000/svg" xmlns:xlink="http://www.w3.org/1999/xlink" xml:space="preserve" xmlns:serif="http://www.serif.com/" style="fill-rule:evenodd;clip-rule:evenodd;stroke-linejoin:round;stroke-miterlimit:1.41421;">
    <g transform="matrix(1,0,0,1,-495,-692)">
        <g transform="matrix(1.50871,0,0,1.91443,-296.526,256.078)">
            <g>
                <path id="_-Kurve-" serif:id="(Kurve)" d="M722.18,236.603C722.18,234.374 721.057,232.237 719.057,230.661C717.057,229.085 714.345,228.2 711.517,228.2C677.224,228.2 570.021,228.2 535.738,228.2C529.852,228.2 525.081,231.96 525.081,236.598C525.081,236.598 525.081,236.599 525.081,236.599C525.081,251.194 540.094,263.025 558.613,263.025C594.887,263.025 652.383,263.025 688.655,263.025C707.17,263.025 722.18,251.196 722.18,236.605C722.18,236.604 722.18,236.604 722.18,236.603Z" style="fill:rgb(238,202,164);"/>
                <clipPath id="_clip1">
                    <path id="_-Kurve-1" serif:id="(Kurve)" d="M722.18,236.603C722.18,234.374 721.057,232.237 719.057,230.661C717.057,229.085 714.345,228.2 711.517,228.2C677.224,228.2 570.021,228.2 535.738,228.2C529.852,228.2 525.081,231.96 525.081,236.598C525.081,236.598 525.081,236.599 525.081,236.599C525.081,251.194 540.094,263.025 558.613,263.025C594.887,263.025 652.383,263.025 688.655,263.025C707.17,263.025 722.18,251.196 722.18,236.605C722.18,236.604 722.18,236.604 722.18,236.603Z"/>
                </clipPath>
                <g clip-path="url(#_clip1)">
                    <g transform="matrix(1,0,0,1,2.27374e-13,-0.475353)">
                        <path d="M722.18,238.647C722.18,235.876 720.784,233.219 718.297,231.259C715.811,229.3 712.44,228.2 708.924,228.2C673.028,228.2 574.233,228.2 538.338,228.2C534.822,228.2 531.45,229.3 528.964,231.259C526.478,233.219 525.081,235.876 525.081,238.647C525.081,239.77 525.081,240.939 525.081,242.131C525.081,253.671 536.951,263.025 551.594,263.025L695.397,263.025C710.189,263.025 722.18,253.575 722.18,241.918C722.18,240.799 722.18,239.702 722.18,238.647Z" style="fill:rgb(224,196,160);"/>
                        <clipPath id="_clip2">
                            <path d="M722.18,238.647C722.18,235.876 720.784,233.219 718.297,231.259C715.811,229.3 712.44,228.2 708.924,228.2C673.028,228.2 574.233,228.2 538.338,228.2C534.822,228.2 531.45,229.3 528.964,231.259C526.478,233.219 525.081,235.876 525.081,238.647C525.081,239.77 525.081,240.939 525.081,242.131C525.081,253.671 536.951,263.025 551.594,263.025L695.397,263.025C710.189,263.025 722.18,253.575 722.18,241.918C722.18,240.799 722.18,239.702 722.18,238.647Z"/>
                        </clipPath>
                        <g clip-path="url(#_clip2)">
                            <g transform="matrix(1.61199,0,0,1.27037,419.262,-369.115)">
                                <path d="M65.645,476.969C105.919,480.061 146.669,479.908 187.916,476.246C190.06,480.077 196.988,509.017 177.975,507.109C177.496,507.061 65.645,506.235 65.645,506.235C65.561,506.391 64.391,505.275 65.645,476.969Z" style="fill:rgb(194,154,100);"/>
                            </g>
                            <g transform="matrix(1.74511,0,0,-1.27037,-401.417,567.025)">
                                <path d="M527.387,258.934C531.554,262.544 570.551,263.815 576.203,263.856C581.791,263.897 609.571,263.966 617.893,264.161C628.906,264.418 644.157,261.584 646.632,258.889C648.651,256.691 649.604,262.359 643.728,265.788C634.098,271.408 534.825,271.184 530.898,265.788C528.893,263.033 525.955,257.693 527.387,258.934Z" style="fill:rgb(98,59,18);fill-opacity:0.435294;"/>
                            </g>
                        </g>
                    </g>
                    <g transform="matrix(1.61199,0,0,1.27037,419.262,-369.59)">
                        <path d="M65.594,480.435C107.637,484.538 148.308,486.678 187.916,481.154C191.385,483.697 207.78,511.121 187.916,511.266C174.403,511.364 58.283,509.67 57.741,507.345C57.46,508.967 65.441,490.83 65.594,480.435Z" style="fill:rgb(186,132,62);"/>
                    </g>
                    <g id="Unterer-Schatten-" serif:id="Unterer Schatten " transform="matrix(1.74511,0,0,1.27037,-401.417,-75.3284)">
                        <path d="M527.387,258.934C531.554,262.544 570.551,263.815 576.203,263.856C581.791,263.897 609.571,263.966 617.893,264.161C628.906,264.418 644.157,261.584 646.632,258.889C648.651,256.691 649.604,262.359 643.728,265.788C634.098,271.408 534.825,271.184 530.898,265.788C528.893,263.033 525.955,257.693 527.387,258.934Z" style="fill:rgb(98,59,18);fill-opacity:0.435294;"/>
                    </g>
                </g>
            </g>
        </g>
    </g>
</svg>
