<?xml version="1.0" encoding="UTF-8" standalone="no"?>
<!DOCTYPE svg PUBLIC "-//W3C//DTD SVG 1.1//EN" "http://www.w3.org/Graphics/SVG/1.1/DTD/svg11.dtd">
<svg width="100%" height="100%" viewBox="0 0 348 119" version="1.1" xmlns="http://www.w3.org/2000/svg" xmlns:xlink="http://www.w3.org/1999/xlink" xml:space="preserve" xmlns:serif="http://www.serif.com/" style="fill-rule:evenodd;clip-rule:evenodd;stroke-linejoin:round;stroke-miterlimit:1.41421;">
    <g transform="matrix(1,0,0,1,-463,-600)">
        <g transform="matrix(-0.668789,-0.00296134,-0.00312695,0.70619,825.431,413.778)">
            <path d="M56.329,316.589C66.772,304.557 80.395,295.359 95.812,289.932C197.136,254.232 336.994,259.95 449.411,290.208C470.355,295.814 488.873,307.583 502.29,323.812C505.403,327.551 508.662,331.492 511.913,335.425C513.456,337.293 513.374,339.936 511.719,341.715C510.064,343.494 507.305,343.904 505.154,342.69C458.246,315.499 399.906,312.146 377.384,365.492C377.193,365.945 377.011,366.401 376.838,366.86C375.049,371.579 359.767,412.006 354.049,427.132C353.581,428.37 352.479,429.296 351.125,429.589C349.772,429.881 348.354,429.499 347.366,428.576C332.354,414.552 283.894,369.284 260.159,347.113C250.053,337.672 237.484,330.936 223.733,327.593C135.472,305.935 68.785,342.943 36.916,354.939C34.49,355.832 31.733,355.062 30.207,353.065C28.681,351.069 28.769,348.348 30.422,346.444C37.862,337.866 48.069,326.106 56.329,316.589Z" style="fill:rgb(255,201,73);"/>
            <clipPath id="_clip1">
                <path d="M56.329,316.589C66.772,304.557 80.395,295.359 95.812,289.932C197.136,254.232 336.994,259.95 449.411,290.208C470.355,295.814 488.873,307.583 502.29,323.812C505.403,327.551 508.662,331.492 511.913,335.425C513.456,337.293 513.374,339.936 511.719,341.715C510.064,343.494 507.305,343.904 505.154,342.69C458.246,315.499 399.906,312.146 377.384,365.492C377.193,365.945 377.011,366.401 376.838,366.86C375.049,371.579 359.767,412.006 354.049,427.132C353.581,428.37 352.479,429.296 351.125,429.589C349.772,429.881 348.354,429.499 347.366,428.576C332.354,414.552 283.894,369.284 260.159,347.113C250.053,337.672 237.484,330.936 223.733,327.593C135.472,305.935 68.785,342.943 36.916,354.939C34.49,355.832 31.733,355.062 30.207,353.065C28.681,351.069 28.769,348.348 30.422,346.444C37.862,337.866 48.069,326.106 56.329,316.589Z"/>
            </clipPath>
            <g clip-path="url(#_clip1)">
                <g transform="matrix(-1.09423,0,0,1.13065,889.971,-84.304)">
                    <path d="M317.272,525.858C329.711,476.886 369.262,436.513 401.041,399.033C421.961,374.359 442.612,349.207 464.87,325.7C477.817,312.028 529.158,258.964 552.689,258.197C558.21,258.017 564.076,264.596 567.043,268.442C573.586,276.924 576.117,287.433 576.115,297.992C576.113,307.99 574.048,317.998 570.811,327.425C560.806,356.556 485.472,359.868 467.408,383.21C446.166,410.659 445.65,460.229 417.142,480.988C395.406,496.816 317.272,525.858 317.272,525.858Z" style="fill:rgb(255,217,111);"/>
                </g>
                <g transform="matrix(-0.498925,0.338697,0.420972,0.857337,308.075,-151.192)">
                    <path d="M317.272,525.858C329.711,476.886 369.262,436.513 401.041,399.033C421.961,374.359 442.612,349.207 464.87,325.7C477.817,312.028 529.158,258.964 552.689,258.197C558.21,258.017 564.076,264.596 567.043,268.442C573.586,276.924 576.117,287.433 576.115,297.992C576.113,307.99 574.048,317.998 570.811,327.425C560.806,356.556 485.472,359.868 467.408,383.21C446.166,410.659 445.65,460.229 417.142,480.988C395.406,496.816 317.272,525.858 317.272,525.858Z" style="fill:rgb(255,217,111);"/>
                </g>
                <g transform="matrix(-9.08988,3.13884,2.66951,10.688,1149.59,-1229.35)">
                    <path d="M110.743,117.211C110.093,117.659 109.615,117.966 109.615,117.966C110.167,114.212 111.923,111.118 113.333,108.245C114.262,106.353 115.178,104.426 116.166,102.624C116.741,101.576 119.02,97.508 120.065,97.45C120.199,97.442 120.339,97.591 120.459,97.776C119.313,98.771 117.646,101.749 117.166,102.624C116.178,104.426 115.262,106.353 114.333,108.245C113.018,110.923 111.404,113.793 110.743,117.211Z" style="fill:rgb(255,217,111);"/>
                </g>
                <g transform="matrix(-2.27475,0,0,2.67468,1938.79,-740.724)">
                    <path d="M609.55,418.118C605.835,415.493 618.15,406.314 634.277,398.97C651.793,390.966 673.865,393.867 687.312,405.941C687.321,405.934 687.321,405.934 687.321,405.934C687.719,406.291 688.071,406.679 688.372,407.093C691.026,410.756 692.844,414.104 694.085,417.118C695.279,420.16 698.42,422.445 702.298,423.093C706.176,423.742 710.186,422.652 712.784,420.245C715.653,417.649 718.194,415.303 720.067,413.521C720.067,413.521 720.067,413.521 720.067,413.521C735.858,398.503 760.111,391.061 784.306,393.809C794.254,394.938 803.577,395.997 808.971,396.61C812.152,396.971 815.245,397.726 818.14,398.848C830.005,403.455 861.316,415.741 853.111,413.964L696.439,445.513L609.55,418.118Z" style="fill:rgb(214,156,0);"/>
                </g>
            </g>
        </g>
    </g>
</svg>
