<?xml version="1.0" encoding="UTF-8" standalone="no"?>
<!DOCTYPE svg PUBLIC "-//W3C//DTD SVG 1.1//EN" "http://www.w3.org/Graphics/SVG/1.1/DTD/svg11.dtd">
<svg width="100%" height="100%" viewBox="0 0 120 38" version="1.1" xmlns="http://www.w3.org/2000/svg" xmlns:xlink="http://www.w3.org/1999/xlink" xml:space="preserve" xmlns:serif="http://www.serif.com/" style="fill-rule:evenodd;clip-rule:evenodd;stroke-linecap:round;stroke-linejoin:round;stroke-miterlimit:1.5;">
    <g transform="matrix(1,0,0,1,-82,-154)">
        <g transform="matrix(0.306461,0,0,0.269311,54.2662,74.1647)">
            <path d="M95.831,317.318C95.831,312.725 97.434,308.32 100.289,305.072C103.143,301.825 107.014,300 111.05,300C172.601,300 402.745,300 464.296,300C468.333,300 472.204,301.825 475.058,305.072C477.912,308.32 479.515,312.725 479.515,317.318C479.515,317.321 479.515,317.323 479.515,317.326C479.515,321.919 477.912,326.324 475.058,329.572C472.204,332.819 468.333,334.644 464.296,334.644C459.339,334.644 453.593,334.644 447.726,334.644C424.912,334.644 404.651,351.234 397.401,375.849C396.657,378.376 395.932,380.835 395.247,383.163C394.422,385.962 392.166,387.892 389.575,388.015C386.983,388.139 384.593,386.431 383.566,383.72C382.761,381.597 381.955,379.472 381.198,377.473C380.477,375.57 378.829,374.337 377.007,374.338C375.185,374.339 373.539,375.573 372.819,377.478C372.817,377.482 372.816,377.486 372.814,377.49C367.871,390.567 357.813,400.238 345.658,403.603C333.503,406.967 320.665,403.633 310.996,394.601C305.847,389.791 300.541,384.835 295.29,379.929C263.944,350.648 224.645,334.644 184.091,334.644C157.264,334.644 128.222,334.644 111.05,334.644C107.014,334.644 103.143,332.819 100.288,329.572C97.434,326.324 95.831,321.919 95.831,317.326C95.831,317.323 95.831,317.321 95.831,317.318Z" style="fill:rgb(255,227,0);"/>
            <clipPath id="_clip1">
                <path d="M95.831,317.318C95.831,312.725 97.434,308.32 100.289,305.072C103.143,301.825 107.014,300 111.05,300C172.601,300 402.745,300 464.296,300C468.333,300 472.204,301.825 475.058,305.072C477.912,308.32 479.515,312.725 479.515,317.318C479.515,317.321 479.515,317.323 479.515,317.326C479.515,321.919 477.912,326.324 475.058,329.572C472.204,332.819 468.333,334.644 464.296,334.644C459.339,334.644 453.593,334.644 447.726,334.644C424.912,334.644 404.651,351.234 397.401,375.849C396.657,378.376 395.932,380.835 395.247,383.163C394.422,385.962 392.166,387.892 389.575,388.015C386.983,388.139 384.593,386.431 383.566,383.72C382.761,381.597 381.955,379.472 381.198,377.473C380.477,375.57 378.829,374.337 377.007,374.338C375.185,374.339 373.539,375.573 372.819,377.478C372.817,377.482 372.816,377.486 372.814,377.49C367.871,390.567 357.813,400.238 345.658,403.603C333.503,406.967 320.665,403.633 310.996,394.601C305.847,389.791 300.541,384.835 295.29,379.929C263.944,350.648 224.645,334.644 184.091,334.644C157.264,334.644 128.222,334.644 111.05,334.644C107.014,334.644 103.143,332.819 100.288,329.572C97.434,326.324 95.831,321.919 95.831,317.326C95.831,317.323 95.831,317.321 95.831,317.318Z"/>
            </clipPath>
            <g clip-path="url(#_clip1)">
                <g transform="matrix(1,0,0,1,-111,-30)">
                    <path d="M317.272,525.858C329.711,476.886 369.262,436.513 401.041,399.033C421.961,374.359 442.612,349.207 464.87,325.7C477.817,312.028 529.158,258.964 552.689,258.197C558.21,258.017 564.076,264.596 567.043,268.442C573.586,276.924 576.117,287.433 576.115,297.992C576.113,307.99 574.048,317.998 570.811,327.425C560.806,356.556 485.472,359.868 467.408,383.21C446.166,410.659 445.65,460.229 417.142,480.988C395.406,496.816 317.272,525.858 317.272,525.858Z" style="fill:rgb(255,251,208);"/>
                </g>
                <g transform="matrix(0.283808,0,0,0.510076,151.609,117.63)">
                    <path d="M317.272,525.858C329.711,476.886 369.262,436.513 401.041,399.033C421.961,374.359 442.612,349.207 464.87,325.7C477.817,312.028 529.158,258.964 552.689,258.197C558.21,258.017 564.076,264.596 567.043,268.442C573.586,276.924 576.117,287.433 576.115,297.992C576.113,307.99 574.048,317.998 570.811,327.425C560.806,356.556 485.472,359.868 467.408,383.21C446.166,410.659 445.65,460.229 417.142,480.988C395.406,496.816 317.272,525.858 317.272,525.858Z" style="fill:rgb(255,251,208);"/>
                </g>
            </g>
            <path d="M95.831,317.318C95.831,312.725 97.434,308.32 100.289,305.072C103.143,301.825 107.014,300 111.05,300C172.601,300 402.745,300 464.296,300C468.333,300 472.204,301.825 475.058,305.072C477.912,308.32 479.515,312.725 479.515,317.318C479.515,317.321 479.515,317.323 479.515,317.326C479.515,321.919 477.912,326.324 475.058,329.572C472.204,332.819 468.333,334.644 464.296,334.644C459.339,334.644 453.593,334.644 447.726,334.644C424.912,334.644 404.651,351.234 397.401,375.849C396.657,378.376 395.932,380.835 395.247,383.163C394.422,385.962 392.166,387.892 389.575,388.015C386.983,388.139 384.593,386.431 383.566,383.72C382.761,381.597 381.955,379.472 381.198,377.473C380.477,375.57 378.829,374.337 377.007,374.338C375.185,374.339 373.539,375.573 372.819,377.478C372.817,377.482 372.816,377.486 372.814,377.49C367.871,390.567 357.813,400.238 345.658,403.603C333.503,406.967 320.665,403.633 310.996,394.601C305.847,389.791 300.541,384.835 295.29,379.929C263.944,350.648 224.645,334.644 184.091,334.644C157.264,334.644 128.222,334.644 111.05,334.644C107.014,334.644 103.143,332.819 100.288,329.572C97.434,326.324 95.831,321.919 95.831,317.326C95.831,317.323 95.831,317.321 95.831,317.318Z" style="fill:none;stroke:black;stroke-width:5.2px;"/>
        </g>
    </g>
</svg>
