<?xml version="1.0" encoding="UTF-8" standalone="no"?>
<!DOCTYPE svg PUBLIC "-//W3C//DTD SVG 1.1//EN" "http://www.w3.org/Graphics/SVG/1.1/DTD/svg11.dtd">
<svg width="100%" height="100%" viewBox="0 0 362 151" version="1.1" xmlns="http://www.w3.org/2000/svg" xmlns:xlink="http://www.w3.org/1999/xlink" xml:space="preserve" xmlns:serif="http://www.serif.com/" style="fill-rule:evenodd;clip-rule:evenodd;stroke-linejoin:round;stroke-miterlimit:1.41421;">
    <g transform="matrix(1,0,0,1,-458,-562)">
        <g transform="matrix(-0.778914,-0.0107602,-0.0095097,0.688395,859.126,381.659)">
            <path d="M79.017,303.329C76.052,304.648 74.332,308.162 74.918,311.706C75.504,315.249 78.231,317.822 81.417,317.838C96.882,317.915 113.377,317.998 121.277,318.038C124.428,318.054 127.558,318.623 130.554,319.726C134.758,321.272 141.359,323.701 148.022,326.153C162.878,331.62 175.422,343.112 183.237,358.416C187.286,366.345 191.627,374.846 195.026,381.501C196.256,383.91 198.551,385.366 201.009,385.298C203.466,385.23 205.695,383.648 206.819,381.173C212.523,368.617 221.095,349.748 225.358,340.365C226.954,336.852 230.151,334.644 233.642,334.644C233.643,334.644 233.643,334.644 233.644,334.644C237.189,334.644 240.49,336.686 242.405,340.062C246.039,346.473 252.164,357.277 256.661,365.208C258.112,367.768 260.445,369.524 263.093,370.048C265.742,370.572 268.463,369.817 270.596,367.966C270.597,367.966 270.598,367.965 270.599,367.964C278.914,360.751 289.71,358.295 299.842,361.311C309.975,364.327 318.305,372.476 322.407,383.385C334.4,415.278 349.541,455.545 356.851,474.984C357.503,476.717 359.045,477.801 360.707,477.695C362.369,477.589 363.794,476.316 364.27,474.511C372.04,444.629 377.298,428.238 386.156,402.195C389.021,393.771 392.263,384.337 396.088,373.109C396.606,371.588 397.223,370.113 397.934,368.695C400.86,362.858 409.225,346.173 415.788,333.081C421.059,322.567 431.337,316.589 441.961,317.858C447.369,318.504 453.62,319.251 460.103,320.025C463.47,320.427 466.579,317.947 467.375,314.224C468.171,310.501 466.407,306.687 463.25,305.303C461.834,304.683 460.456,304.078 459.127,303.496C446.971,298.169 434.5,293.812 421.805,290.456C309.354,260.79 229.906,264.795 173.662,272.784C148.424,276.349 123.68,283.478 100.008,294.003C93.139,297.05 85.886,300.275 79.017,303.329Z" style="fill:rgb(255,201,73);"/>
            <clipPath id="_clip1">
                <path d="M79.017,303.329C76.052,304.648 74.332,308.162 74.918,311.706C75.504,315.249 78.231,317.822 81.417,317.838C96.882,317.915 113.377,317.998 121.277,318.038C124.428,318.054 127.558,318.623 130.554,319.726C134.758,321.272 141.359,323.701 148.022,326.153C162.878,331.62 175.422,343.112 183.237,358.416C187.286,366.345 191.627,374.846 195.026,381.501C196.256,383.91 198.551,385.366 201.009,385.298C203.466,385.23 205.695,383.648 206.819,381.173C212.523,368.617 221.095,349.748 225.358,340.365C226.954,336.852 230.151,334.644 233.642,334.644C233.643,334.644 233.643,334.644 233.644,334.644C237.189,334.644 240.49,336.686 242.405,340.062C246.039,346.473 252.164,357.277 256.661,365.208C258.112,367.768 260.445,369.524 263.093,370.048C265.742,370.572 268.463,369.817 270.596,367.966C270.597,367.966 270.598,367.965 270.599,367.964C278.914,360.751 289.71,358.295 299.842,361.311C309.975,364.327 318.305,372.476 322.407,383.385C334.4,415.278 349.541,455.545 356.851,474.984C357.503,476.717 359.045,477.801 360.707,477.695C362.369,477.589 363.794,476.316 364.27,474.511C372.04,444.629 377.298,428.238 386.156,402.195C389.021,393.771 392.263,384.337 396.088,373.109C396.606,371.588 397.223,370.113 397.934,368.695C400.86,362.858 409.225,346.173 415.788,333.081C421.059,322.567 431.337,316.589 441.961,317.858C447.369,318.504 453.62,319.251 460.103,320.025C463.47,320.427 466.579,317.947 467.375,314.224C468.171,310.501 466.407,306.687 463.25,305.303C461.834,304.683 460.456,304.078 459.127,303.496C446.971,298.169 434.5,293.812 421.805,290.456C309.354,260.79 229.906,264.795 173.662,272.784C148.424,276.349 123.68,283.478 100.008,294.003C93.139,297.05 85.886,300.275 79.017,303.329Z"/>
            </clipPath>
            <g clip-path="url(#_clip1)">
                <g transform="matrix(-1,0,0,1.30118,754.739,-83.0151)">
                    <path d="M317.272,525.858C329.711,476.886 369.262,436.513 401.041,399.033C421.961,374.359 442.612,349.207 464.87,325.7C477.817,312.028 529.158,258.964 552.689,258.197C558.21,258.017 564.076,264.596 567.043,268.442C573.586,276.924 576.117,287.433 576.115,297.992C576.113,307.99 574.048,317.998 570.811,327.425C560.806,356.556 485.472,359.868 467.408,383.21C446.166,410.659 445.65,460.229 417.142,480.988C395.406,496.816 317.272,525.858 317.272,525.858Z" style="fill:rgb(255,217,111);"/>
                </g>
                <g transform="matrix(-0.400136,0,0,0.875834,529.038,-2.475)">
                    <path d="M317.272,525.858C329.711,476.886 369.262,436.513 401.041,399.033C421.961,374.359 442.612,349.207 464.87,325.7C477.817,312.028 529.158,258.964 552.689,258.197C558.21,258.017 564.076,264.596 567.043,268.442C573.586,276.924 576.117,287.433 576.115,297.992C576.113,307.99 574.048,317.998 570.811,327.425C560.806,356.556 485.472,359.868 467.408,383.21C446.166,410.659 445.65,460.229 417.142,480.988C395.406,496.816 317.272,525.858 317.272,525.858Z" style="fill:rgb(255,217,111);"/>
                </g>
                <g transform="matrix(-0.400136,0,0,0.875834,529.038,-2.475)">
                    <path d="M317.272,525.858C329.711,476.886 369.262,436.513 401.041,399.033C421.961,374.359 442.612,349.207 464.87,325.7C477.817,312.028 529.158,258.964 552.689,258.197C558.21,258.017 564.076,264.596 567.043,268.442C573.586,276.924 576.117,287.433 576.115,297.992C576.113,307.99 574.048,317.998 570.811,327.425C560.806,356.556 485.472,359.868 467.408,383.21C446.166,410.659 445.65,460.229 417.142,480.988C395.406,496.816 317.272,525.858 317.272,525.858Z" style="fill:rgb(255,217,111);"/>
                </g>
                <g transform="matrix(-9.0144,0,0,11.4263,1408.23,-889.827)">
                    <path d="M110.743,117.211C110.093,117.659 109.615,117.966 109.615,117.966C110.167,114.212 111.923,111.118 113.333,108.245C114.262,106.353 115.178,104.426 116.166,102.624C116.741,101.576 119.02,97.508 120.065,97.45C120.199,97.442 120.339,97.591 120.459,97.776C119.313,98.771 117.646,101.749 117.166,102.624C116.178,104.426 115.262,106.353 114.333,108.245C113.018,110.923 111.404,113.793 110.743,117.211Z" style="fill:rgb(255,217,111);"/>
                </g>
                <g transform="matrix(-2.07886,0,0,3.07809,1782.36,-359.345)">
                    <path d="M611.751,225.461C615.877,220.64 627.786,217.398 644.843,216.943C649.869,216.8 654.731,218.316 658.192,221.104C668.462,229.415 675.894,242.035 681.513,256.463C681.885,257.421 682.988,258.106 684.292,258.19C685.595,258.273 686.832,257.738 687.409,256.841C692.299,249.233 700.868,235.896 705.478,228.719C707.27,225.931 711.523,224.623 715.342,225.687C718.812,226.653 722.933,227.8 725.914,228.63C728.416,229.327 731.215,228.944 733.245,227.628C735.419,226.219 738.317,224.34 740.812,222.723C742.144,221.859 743.9,221.48 745.626,221.683C747.352,221.886 748.878,222.652 749.808,223.782C752.033,226.485 754.871,229.932 757.173,232.729C758.038,233.78 759.54,234.426 761.165,234.448C762.79,234.47 764.319,233.863 765.232,232.836C771.014,226.29 779.645,219.62 790.171,218.198C810.379,215.467 832.858,216.354 844.233,219.782C844.302,219.802 844.371,219.822 844.441,219.84C857.582,223.342 848.398,236.869 838.485,230.232L684.87,280.95L611.751,225.461Z" style="fill:rgb(214,156,0);"/>
                </g>
            </g>
        </g>
    </g>
</svg>
