<?xml version="1.0" encoding="UTF-8" standalone="no"?><!DOCTYPE svg PUBLIC "-//W3C//DTD SVG 1.1//EN" "http://www.w3.org/Graphics/SVG/1.1/DTD/svg11.dtd"><svg width="100%" height="100%" viewBox="0 0 480 132" version="1.1" xmlns="http://www.w3.org/2000/svg" xmlns:xlink="http://www.w3.org/1999/xlink" xml:space="preserve" xmlns:serif="http://www.serif.com/" style="fill-rule:evenodd;clip-rule:evenodd;stroke-linejoin:round;stroke-miterlimit:1.41421;"><path d="M13.412,49.705c-1.278,0.825 -1.81,2.427 -1.281,3.853c0.53,1.425 1.979,2.292 3.485,2.083c15.138,-2.4 37.684,-5.384 50.308,-4.308c10.875,0.926 26.843,6.191 38.846,10.67c10.505,3.935 19.352,11.337 25.081,20.981c7.477,12.571 18.068,30.403 24.195,40.719c0.978,1.647 2.777,2.628 4.691,2.558c1.914,-0.07 3.637,-1.18 4.492,-2.894c7.252,-14.534 21.165,-42.42 21.165,-42.42c0,0 1.76,-3.527 3.458,-6.93c1.91,-3.828 5.8,-6.267 10.078,-6.318c0.001,0 0.001,0 0.001,0c4.34,-0.052 8.407,2.108 10.793,5.732c4.212,6.396 11.106,16.864 16.562,25.149c2.127,3.229 5.508,5.419 9.324,6.04c3.816,0.62 7.717,-0.386 10.757,-2.775c14.444,-11.351 37.32,-29.328 40.073,-31.492c0.202,-0.159 0.406,-0.315 0.612,-0.468c32.938,-24.548 75.865,-39.297 181.181,-12.442c1.359,0.346 2.777,-0.287 3.428,-1.529c0.65,-1.242 0.363,-2.768 -0.695,-3.688c0,-0.002 -0.001,-0.003 -0.003,-0.004c-33.111,-28.786 -74.658,-46.069 -118.416,-49.261c-103.323,-7.447 -168.172,1.665 -221.635,5.758c-39.4,2.994 -77.429,15.782 -110.633,37.202c-2.066,1.332 -4.034,2.601 -5.867,3.784Z" style="fill:#ffc949;"/><clipPath id="_clip1"><path d="M13.412,49.705c-1.278,0.825 -1.81,2.427 -1.281,3.853c0.53,1.425 1.979,2.292 3.485,2.083c15.138,-2.4 37.684,-5.384 50.308,-4.308c10.875,0.926 26.843,6.191 38.846,10.67c10.505,3.935 19.352,11.337 25.081,20.981c7.477,12.571 18.068,30.403 24.195,40.719c0.978,1.647 2.777,2.628 4.691,2.558c1.914,-0.07 3.637,-1.18 4.492,-2.894c7.252,-14.534 21.165,-42.42 21.165,-42.42c0,0 1.76,-3.527 3.458,-6.93c1.91,-3.828 5.8,-6.267 10.078,-6.318c0.001,0 0.001,0 0.001,0c4.34,-0.052 8.407,2.108 10.793,5.732c4.212,6.396 11.106,16.864 16.562,25.149c2.127,3.229 5.508,5.419 9.324,6.04c3.816,0.62 7.717,-0.386 10.757,-2.775c14.444,-11.351 37.32,-29.328 40.073,-31.492c0.202,-0.159 0.406,-0.315 0.612,-0.468c32.938,-24.548 75.865,-39.297 181.181,-12.442c1.359,0.346 2.777,-0.287 3.428,-1.529c0.65,-1.242 0.363,-2.768 -0.695,-3.688c0,-0.002 -0.001,-0.003 -0.003,-0.004c-33.111,-28.786 -74.658,-46.069 -118.416,-49.261c-103.323,-7.447 -168.172,1.665 -221.635,5.758c-39.4,2.994 -77.429,15.782 -110.633,37.202c-2.066,1.332 -4.034,2.601 -5.867,3.784Z"/></clipPath><g clip-path="url(#_clip1)"><path d="M451.004,353.229c-16.061,-68.786 -65.18,-125.062 -104.732,-177.379c-26.037,-34.441 -51.751,-69.56 -79.408,-102.338c-16.086,-19.065 -79.858,-93.04 -108.689,-93.776c-6.764,-0.172 -13.837,9.18 -17.405,14.639c-7.87,12.042 -10.792,26.879 -10.611,41.75c0.171,14.08 2.869,28.144 6.993,41.373c12.744,40.879 105.059,44.436 127.576,77.044c26.477,38.344 27.948,108.146 63.211,136.964c26.886,21.97 123.065,61.723 123.065,61.723Z" style="fill:#ffd96f;"/><path d="M405.815,198.834c-6.652,-46.35 -26.493,-84.389 -42.492,-119.732c-10.532,-23.266 -20.937,-46.988 -32.112,-69.14c-6.5,-12.885 -32.262,-62.884 -43.802,-63.474c-2.707,-0.138 -5.507,6.133 -6.917,9.797c-3.11,8.079 -4.231,18.055 -4.11,28.065c0.115,9.478 1.24,18.953 2.934,27.87c5.234,27.556 42.188,30.253 51.305,52.274c10.722,25.895 11.538,72.881 25.744,92.393c10.831,14.876 49.45,41.947 49.45,41.947Z" style="fill:#ffd96f;"/><path d="M405.815,198.834c-6.652,-46.35 -26.493,-84.389 -42.492,-119.732c-10.532,-23.266 -20.937,-46.988 -32.112,-69.14c-6.5,-12.885 -32.262,-62.884 -43.802,-63.474c-2.707,-0.138 -5.507,6.133 -6.917,9.797c-3.11,8.079 -4.231,18.055 -4.11,28.065c0.115,9.478 1.24,18.953 2.934,27.87c5.234,27.556 42.188,30.253 51.305,52.274c10.722,25.895 11.538,72.881 25.744,92.393c10.831,14.876 49.45,41.947 49.45,41.947Z" style="fill:#ffd96f;"/><path d="M415.324,189.385c7.248,5.453 12.57,9.184 12.57,9.184c-6.652,-46.35 -26.493,-84.389 -42.492,-119.731c-10.532,-23.267 -20.937,-46.989 -32.112,-69.141c-6.5,-12.885 -32.262,-62.884 -43.802,-63.474c-1.488,-0.076 -3.004,1.785 -4.302,4.085c12.793,12.153 31.639,48.767 37.064,59.521c11.175,22.153 21.58,45.875 32.113,69.141c14.913,32.946 33.166,68.234 40.961,110.415Z" style="fill:#ffd96f;"/><path d="M549.15,98.611c43.213,-40.071 -192.164,-74.481 -239.268,-56.433c-0.462,0.183 -0.914,0.393 -1.352,0.628c-5.372,2.872 -47.936,25.727 -65.074,34.929c-4.301,2.309 -9.571,1.784 -13.331,-1.329c-7.078,-5.86 -18.685,-15.469 -26.647,-22.061c-2.178,-1.804 -5.032,-2.573 -7.822,-2.109c-2.789,0.464 -5.24,2.116 -6.717,4.528c-6.86,11.2 -18.183,29.687 -25.394,41.461c-1.405,2.293 -3.892,3.701 -6.58,3.724c-2.689,0.024 -5.2,-1.339 -6.645,-3.607c-14.908,-23.249 -38.604,-48.669 -67.728,-53.459c-51.547,-8.478 -113.73,21.263 -142.581,33.146c-0.138,0.057 -0.278,0.11 -0.419,0.16c-33.479,11.89 -4.525,30.703 20.48,8.261l393.113,164.278l195.965,-152.117Z" style="fill:#d69c00;"/></g></svg>