<?xml version="1.0" encoding="UTF-8" standalone="no"?>
<!DOCTYPE svg PUBLIC "-//W3C//DTD SVG 1.1//EN" "http://www.w3.org/Graphics/SVG/1.1/DTD/svg11.dtd">
<svg width="100%" height="100%" viewBox="0 0 120 41" version="1.1" xmlns="http://www.w3.org/2000/svg" xmlns:xlink="http://www.w3.org/1999/xlink" xml:space="preserve" xmlns:serif="http://www.serif.com/" style="fill-rule:evenodd;clip-rule:evenodd;stroke-linecap:round;stroke-linejoin:round;stroke-miterlimit:1.5;">
    <g transform="matrix(1,0,0,1,-82,-95)">
        <g transform="matrix(-0.306461,0,0,0.206975,230.587,34.4364)">
            <path d="M95.831,308.902C95.831,308.902 95.831,308.904 95.831,308.908C95.831,316.07 97.768,322.933 101.209,327.966C104.651,332.998 109.31,335.781 114.146,335.692C118.624,335.61 123.603,335.518 128.7,335.424C155.36,334.934 180.59,353.233 196.671,384.722C196.672,384.726 196.674,384.729 196.676,384.733C197.716,386.77 199.357,387.938 201.082,387.867C202.806,387.797 204.401,386.497 205.364,384.377C210.736,372.552 219.949,352.271 224.784,341.629C226.767,337.263 230.088,334.644 233.643,334.644C233.644,334.644 233.644,334.644 233.645,334.644C237.253,334.644 240.678,336.992 243.012,341.066C247.256,348.475 254.05,360.334 257.165,365.771C258.144,367.48 259.774,368.005 261.144,367.054C261.368,366.898 261.607,366.732 261.859,366.557C284.544,350.798 311.603,363.092 324.413,394.98C325.233,397.02 326.06,399.079 326.892,401.151C333.286,417.065 345.249,426.187 357.712,424.651C370.175,423.114 380.954,411.188 385.482,393.927C385.483,393.925 385.483,393.923 385.484,393.92C394.505,359.532 416.641,336.593 441.55,335.821C451.188,335.522 460.699,335.227 467.791,335.007C474.305,334.805 479.515,326.928 479.515,317.28C479.515,317.276 479.515,317.272 479.515,317.268C479.515,307.731 474.294,300 467.853,300C408.933,300 145.103,300 101.842,300C100.247,300 98.719,300.938 97.591,302.607C96.464,304.276 95.831,306.539 95.831,308.9C95.831,308.901 95.831,308.902 95.831,308.902Z" style="fill:rgb(255,227,0);"/>
            <clipPath id="_clip1">
                <path d="M95.831,308.902C95.831,308.902 95.831,308.904 95.831,308.908C95.831,316.07 97.768,322.933 101.209,327.966C104.651,332.998 109.31,335.781 114.146,335.692C118.624,335.61 123.603,335.518 128.7,335.424C155.36,334.934 180.59,353.233 196.671,384.722C196.672,384.726 196.674,384.729 196.676,384.733C197.716,386.77 199.357,387.938 201.082,387.867C202.806,387.797 204.401,386.497 205.364,384.377C210.736,372.552 219.949,352.271 224.784,341.629C226.767,337.263 230.088,334.644 233.643,334.644C233.644,334.644 233.644,334.644 233.645,334.644C237.253,334.644 240.678,336.992 243.012,341.066C247.256,348.475 254.05,360.334 257.165,365.771C258.144,367.48 259.774,368.005 261.144,367.054C261.368,366.898 261.607,366.732 261.859,366.557C284.544,350.798 311.603,363.092 324.413,394.98C325.233,397.02 326.06,399.079 326.892,401.151C333.286,417.065 345.249,426.187 357.712,424.651C370.175,423.114 380.954,411.188 385.482,393.927C385.483,393.925 385.483,393.923 385.484,393.92C394.505,359.532 416.641,336.593 441.55,335.821C451.188,335.522 460.699,335.227 467.791,335.007C474.305,334.805 479.515,326.928 479.515,317.28C479.515,317.276 479.515,317.272 479.515,317.268C479.515,307.731 474.294,300 467.853,300C408.933,300 145.103,300 101.842,300C100.247,300 98.719,300.938 97.591,302.607C96.464,304.276 95.831,306.539 95.831,308.9C95.831,308.901 95.831,308.902 95.831,308.902Z"/>
            </clipPath>
            <g clip-path="url(#_clip1)">
                <g transform="matrix(-0.978677,0,0,1.27343,669.849,-91.4686)">
                    <path d="M317.272,525.858C329.711,476.886 369.262,436.513 401.041,399.033C421.961,374.359 442.612,349.207 464.87,325.7C477.817,312.028 529.158,258.964 552.689,258.197C558.21,258.017 564.076,264.596 567.043,268.442C573.586,276.924 585.916,294.063 576.115,297.992C568.145,301.187 462.833,332.36 467.408,383.21C470.519,417.779 445.65,460.229 417.142,480.988C395.406,496.816 317.272,525.858 317.272,525.858Z" style="fill:rgb(255,251,208);"/>
                </g>
                <g transform="matrix(0.896936,0.57976,0.34409,-1.16707,-237.64,357.092)">
                    <path d="M317.272,525.858C329.711,476.886 369.262,436.513 401.041,399.033C421.961,374.359 442.612,349.207 464.87,325.7C477.817,312.028 546.642,244.389 569.029,251.679C585.432,257.021 574.048,317.998 570.811,327.425C560.806,356.556 485.472,359.868 467.408,383.21C446.166,410.659 445.65,460.229 417.142,480.988C395.406,496.816 317.272,525.858 317.272,525.858Z" style="fill:rgb(255,251,208);"/>
                </g>
                <g transform="matrix(-0.277756,0,0,0.649547,419.84,96.5285)">
                    <path d="M317.272,525.858C329.711,476.886 369.262,436.513 401.041,399.033C421.961,374.359 442.612,349.207 464.87,325.7C477.817,312.028 529.158,258.964 552.689,258.197C558.21,258.017 564.076,264.596 567.043,268.442C573.586,276.924 576.117,287.433 576.115,297.992C576.113,307.99 574.048,317.998 570.811,327.425C560.806,356.556 485.472,359.868 467.408,383.21C446.166,410.659 445.65,460.229 417.142,480.988C395.406,496.816 317.272,525.858 317.272,525.858Z" style="fill:rgb(255,251,208);"/>
                </g>
                <g transform="matrix(0.692859,-1.06767,-0.721073,-1.02589,425.818,734.606)">
                    <path d="M185.329,258.74C178.66,249.725 166.111,247.487 156.738,253.642C147.364,259.797 144.429,272.201 150.051,281.904C150.06,281.93 150.074,281.954 150.088,281.978C153.719,288.222 159.968,295.206 167.849,295.113C183.942,294.924 195.08,272.06 185.63,259.145C185.531,259.011 185.431,258.876 185.329,258.74Z" style="fill:rgb(255,227,0);"/>
                    <path d="M187.056,294.779L186.7,295.132L186.338,295.479L185.971,295.821L185.597,296.157L185.218,296.488L184.833,296.813L184.442,297.133L184.045,297.446L183.643,297.754L183.234,298.055L182.82,298.35L182.4,298.638L181.975,298.92L181.543,299.194L181.106,299.462L180.663,299.722L180.214,299.975L179.76,300.22L179.3,300.457L178.834,300.686L178.363,300.907L177.887,301.12L177.405,301.323L176.918,301.518L176.425,301.704L175.927,301.881L175.425,302.048L174.917,302.205L174.405,302.352L173.888,302.49L173.367,302.616L172.841,302.733L172.311,302.838L171.777,302.932L171.239,303.016L170.698,303.088L170.153,303.148L169.605,303.197L169.054,303.233L168.501,303.258L167.961,303.271L167.646,303.272L167.349,303.269L167.052,303.262L166.757,303.251L166.462,303.237L166.169,303.218L165.876,303.195L165.585,303.168L165.295,303.137L164.98,303.099L164.435,303.023L163.868,302.928L163.308,302.818L162.755,302.696L162.208,302.56L161.669,302.411L161.137,302.25L160.612,302.077L160.096,301.893L159.587,301.699L159.087,301.494L158.594,301.279L158.11,301.056L157.633,300.823L157.164,300.582L156.704,300.333L156.251,300.077L155.806,299.813L155.369,299.543L154.939,299.266L154.517,298.983L154.102,298.694L153.695,298.4L153.295,298.101L152.901,297.797L152.515,297.488L152.136,297.175L151.763,296.858L151.397,296.537L151.037,296.213L150.684,295.885L150.337,295.554L149.996,295.22L149.662,294.883L149.333,294.544L149.01,294.202L148.693,293.858L148.381,293.513L148.075,293.165L147.775,292.816L147.48,292.465L147.19,292.113L146.906,291.76L146.627,291.406L146.353,291.051L146.084,290.696L145.821,290.34L145.562,289.983L145.308,289.627L145.059,289.27L144.816,288.913L144.577,288.557L144.343,288.201L144.113,287.845L143.888,287.49L143.669,287.136L143.453,286.783L143.242,286.431L143.008,286.031L142.944,285.917L142.811,285.669L142.687,285.416L142.571,285.159L142.731,285.531L142.813,285.679L142.738,285.547L142.731,285.531L142.638,285.363L142.467,285.046L142.3,284.728L142.137,284.407L141.978,284.085L141.824,283.763L141.674,283.439L141.528,283.113L141.386,282.787L141.249,282.459L141.116,282.13L140.987,281.801L140.862,281.47L140.741,281.138L140.624,280.805L140.512,280.472L140.404,280.138L140.3,279.803L140.201,279.467L140.105,279.13L140.014,278.793L139.927,278.456L139.844,278.118L139.765,277.779L139.69,277.44L139.619,277.1L139.553,276.76L139.49,276.42L139.432,276.079L139.378,275.738L139.328,275.396L139.282,275.055L139.24,274.713L139.202,274.371L139.168,274.029L139.139,273.688L139.113,273.346L139.091,273.003L139.074,272.661L139.06,272.32L139.051,271.979L139.045,271.637L139.043,271.296L139.046,270.955L139.052,270.614L139.062,270.273L139.076,269.933L139.094,269.594L139.116,269.254L139.142,268.915L139.172,268.577L139.206,268.239L139.244,267.901L139.285,267.564L139.331,267.228L139.38,266.893L139.433,266.558L139.49,266.223L139.551,265.891L139.616,265.557L139.684,265.225L139.756,264.895L139.833,264.564L139.912,264.235L139.996,263.906L140.084,263.579L140.175,263.253L140.27,262.928L140.369,262.603L140.471,262.28L140.578,261.958L140.688,261.637L140.802,261.317L140.919,260.999L141.04,260.681L141.165,260.365L141.294,260.051L141.426,259.737L141.562,259.426L141.702,259.115L141.845,258.806L141.992,258.499L142.143,258.193L142.298,257.888L142.456,257.586L142.617,257.285L142.783,256.985L142.952,256.687L143.124,256.392L143.3,256.098L143.48,255.805L143.664,255.514L143.851,255.226L144.041,254.939L144.235,254.655L144.433,254.372L144.634,254.091L144.839,253.813L145.047,253.536L145.259,253.262L145.475,252.99L145.693,252.72L145.915,252.453L146.141,252.187L146.371,251.925L146.604,251.664L146.84,251.406L147.079,251.151L147.322,250.898L147.568,250.648L147.818,250.399L148.072,250.154L148.328,249.912L148.588,249.673L148.851,249.436L149.118,249.201L149.387,248.97L149.66,248.742L149.937,248.516L150.216,248.293L150.498,248.074L150.784,247.858L151.073,247.644L151.366,247.434L151.661,247.227L151.959,247.024L152.26,246.823L152.564,246.626L152.869,246.433L153.177,246.245L153.486,246.06L153.797,245.88L154.109,245.704L154.422,245.532L154.738,245.363L155.054,245.2L155.373,245.04L155.692,244.884L156.012,244.733L156.335,244.586L156.658,244.443L156.982,244.304L157.308,244.169L157.635,244.038L157.962,243.912L158.291,243.789L158.62,243.671L158.951,243.557L159.283,243.447L159.615,243.341L159.948,243.239L160.282,243.141L160.616,243.048L160.952,242.958L161.288,242.873L161.624,242.792L161.961,242.714L162.299,242.641L162.637,242.572L162.975,242.507L163.314,242.446L163.653,242.389L163.992,242.337L164.332,242.288L164.672,242.243L165.012,242.202L165.353,242.166L165.693,242.133L166.033,242.104L166.374,242.08L166.715,242.059L167.056,242.042L167.396,242.03L167.737,242.021L168.077,242.016L168.417,242.015L168.757,242.018L169.097,242.025L169.437,242.036L169.775,242.051L170.115,242.07L170.454,242.092L170.792,242.119L171.13,242.15L171.467,242.184L171.804,242.222L172.14,242.264L172.476,242.31L172.811,242.36L173.146,242.414L173.48,242.471L173.813,242.533L174.145,242.598L174.478,242.667L174.809,242.74L175.138,242.817L175.467,242.897L175.796,242.982L176.124,243.07L176.45,243.162L176.776,243.257L177.1,243.357L177.424,243.46L177.746,243.567L178.068,243.678L178.388,243.793L178.707,243.911L179.025,244.034L179.341,244.16L179.656,244.289L179.97,244.423L180.283,244.56L180.594,244.701L180.904,244.845L181.212,244.994L181.518,245.146L181.823,245.302L182.127,245.461L182.429,245.624L182.73,245.791L183.028,245.962L183.325,246.136L183.62,246.314L183.913,246.496L184.205,246.681L184.494,246.87L184.782,247.062L185.067,247.258L185.351,247.458L185.632,247.662L185.912,247.868L186.189,248.079L186.465,248.294L186.738,248.511L187.008,248.733L187.277,248.958L187.543,249.186L187.807,249.418L188.068,249.654L188.327,249.893L188.583,250.136L188.837,250.382L189.089,250.631L189.337,250.884L189.583,251.14L189.827,251.401L190.067,251.663L190.304,251.93L190.54,252.2L190.772,252.473L191.001,252.75L191.227,253.03L191.45,253.313L191.67,253.6L191.866,253.861L192.22,254.338L192.535,254.777L192.846,255.232L193.145,255.693L193.434,256.158L193.711,256.627L193.977,257.1L194.233,257.578L194.477,258.059L194.71,258.544L194.932,259.031L195.144,259.521L195.345,260.014L195.535,260.51L195.714,261.007L195.883,261.507L196.041,262.008L196.19,262.51L196.328,263.015L196.455,263.52L196.573,264.026L196.682,264.533L196.78,265.04L196.869,265.548L196.948,266.056L197.018,266.565L197.079,267.074L197.131,267.582L197.174,268.09L197.208,268.598L197.234,269.105L197.251,269.612L197.259,270.118L197.259,270.624L197.251,271.128L197.235,271.631L197.211,272.134L197.179,272.636L197.139,273.136L197.091,273.634L197.036,274.132L196.973,274.628L196.903,275.123L196.826,275.616L196.741,276.108L196.65,276.598L196.551,277.086L196.445,277.572L196.332,278.056L196.213,278.539L196.087,279.019L195.954,279.498L195.814,279.974L195.668,280.448L195.515,280.92L195.356,281.389L195.19,281.856L195.018,282.321L194.84,282.783L194.655,283.243L194.464,283.7L194.267,284.154L194.064,284.605L193.855,285.054L193.639,285.5L193.418,285.943L193.19,286.383L192.957,286.819L192.718,287.253L192.472,287.683L192.221,288.11L191.964,288.534L191.701,288.954L191.432,289.37L191.157,289.783L190.876,290.192L190.59,290.598L190.298,290.999L190,291.397L189.696,291.79L189.386,292.179L189.071,292.564L188.749,292.945L188.422,293.321L188.09,293.693L187.751,294.06L187.406,294.422L187.056,294.779ZM175.844,282.905L176.017,282.718L176.188,282.526L176.358,282.331L176.526,282.132L176.691,281.93L176.855,281.725L177.016,281.516L177.175,281.304L177.332,281.089L177.486,280.871L177.637,280.649L177.786,280.426L177.933,280.199L178.076,279.97L178.217,279.738L178.354,279.504L178.489,279.268L178.621,279.03L178.749,278.789L178.875,278.547L178.997,278.303L179.116,278.056L179.231,277.809L179.343,277.56L179.452,277.31L179.557,277.058L179.658,276.805L179.756,276.552L179.851,276.297L179.941,276.042L180.028,275.786L180.111,275.53L180.19,275.274L180.265,275.017L180.337,274.76L180.404,274.503L180.468,274.246L180.527,273.99L180.583,273.733L180.635,273.477L180.683,273.222L180.726,272.968L180.766,272.715L180.802,272.463L180.834,272.211L180.861,271.962L180.885,271.713L180.905,271.466L180.921,271.22L180.932,270.976L180.94,270.734L180.944,270.494L180.944,270.255L180.94,270.02L180.932,269.786L180.92,269.553L180.905,269.324L180.886,269.097L180.863,268.872L180.836,268.651L180.806,268.431L180.772,268.215L180.735,268L180.694,267.789L180.649,267.58L180.601,267.374L180.55,267.171L180.495,266.971L180.437,266.774L180.375,266.579L180.31,266.387L180.242,266.198L180.171,266.011L180.096,265.828L180.018,265.647L179.936,265.468L179.851,265.292L179.763,265.118L179.672,264.947L179.577,264.778L179.478,264.611L179.376,264.446L179.27,264.283L179.16,264.122L179.039,263.953L178.791,263.62L178.672,263.461L178.573,263.332L178.473,263.206L178.372,263.081L178.27,262.957L178.166,262.835L178.062,262.715L177.956,262.597L177.849,262.479L177.741,262.364L177.633,262.251L177.522,262.139L177.411,262.028L177.299,261.92L177.186,261.813L177.072,261.707L176.957,261.603L176.84,261.501L176.723,261.4L176.605,261.302L176.486,261.204L176.365,261.108L176.244,261.013L176.122,260.921L175.999,260.83L175.875,260.74L175.75,260.652L175.624,260.566L175.498,260.481L175.37,260.398L175.242,260.316L175.113,260.236L174.982,260.158L174.851,260.081L174.719,260.005L174.587,259.932L174.454,259.86L174.32,259.789L174.185,259.72L174.049,259.653L173.913,259.588L173.776,259.523L173.638,259.461L173.5,259.4L173.361,259.341L173.221,259.284L173.081,259.228L172.94,259.174L172.798,259.121L172.656,259.07L172.513,259.021L172.37,258.974L172.227,258.928L172.082,258.883L171.937,258.841L171.792,258.8L171.647,258.761L171.501,258.723L171.354,258.687L171.207,258.653L171.059,258.621L170.912,258.59L170.764,258.561L170.615,258.534L170.467,258.508L170.318,258.484L170.169,258.462L170.019,258.441L169.87,258.423L169.719,258.406L169.569,258.39L169.419,258.377L169.269,258.365L169.118,258.355L168.968,258.347L168.817,258.34L168.666,258.335L168.515,258.332L168.364,258.331L168.213,258.331L168.062,258.333L167.911,258.337L167.76,258.343L167.609,258.35L167.459,258.359L167.308,258.37L167.157,258.383L167.006,258.397L166.856,258.413L166.705,258.431L166.555,258.451L166.406,258.473L166.255,258.496L166.106,258.521L165.957,258.548L165.807,258.577L165.658,258.607L165.51,258.639L165.361,258.673L165.213,258.709L165.065,258.747L164.918,258.786L164.77,258.827L164.623,258.87L164.477,258.915L164.33,258.962L164.184,259.01L164.039,259.06L163.894,259.113L163.749,259.167L163.604,259.222L163.46,259.28L163.317,259.339L163.173,259.401L163.03,259.464L162.888,259.529L162.746,259.596L162.605,259.665L162.464,259.736L162.323,259.809L162.183,259.883L162.043,259.96L161.904,260.039L161.765,260.119L161.627,260.202L161.489,260.286L161.352,260.373L161.215,260.461L161.08,260.551L160.946,260.643L160.813,260.736L160.683,260.83L160.554,260.925L160.426,261.022L160.3,261.12L160.176,261.218L160.054,261.318L159.932,261.42L159.813,261.522L159.695,261.626L159.579,261.73L159.464,261.837L159.35,261.944L159.239,262.052L159.129,262.161L159.021,262.271L158.913,262.383L158.807,262.496L158.703,262.609L158.601,262.724L158.5,262.839L158.401,262.956L158.303,263.074L158.206,263.193L158.112,263.312L158.018,263.433L157.927,263.555L157.837,263.677L157.748,263.801L157.661,263.926L157.575,264.051L157.491,264.178L157.408,264.305L157.327,264.433L157.248,264.562L157.171,264.692L157.094,264.823L157.02,264.955L156.946,265.087L156.875,265.221L156.805,265.355L156.736,265.489L156.67,265.625L156.604,265.761L156.541,265.898L156.479,266.036L156.418,266.175L156.36,266.313L156.303,266.453L156.247,266.593L156.193,266.734L156.141,266.876L156.09,267.018L156.041,267.161L155.994,267.304L155.949,267.448L155.905,267.592L155.862,267.737L155.822,267.883L155.783,268.028L155.746,268.174L155.71,268.321L155.676,268.468L155.644,268.615L155.613,268.763L155.585,268.91L155.557,269.059L155.532,269.208L155.509,269.357L155.486,269.507L155.466,269.656L155.448,269.806L155.431,269.955L155.416,270.106L155.403,270.256L155.391,270.406L155.382,270.557L155.373,270.708L155.367,270.859L155.363,271.01L155.36,271.161L155.359,271.312L155.36,271.463L155.362,271.614L155.366,271.766L155.372,271.917L155.38,272.068L155.39,272.218L155.401,272.37L155.414,272.521L155.429,272.672L155.446,272.822L155.464,272.973L155.485,273.124L155.507,273.274L155.53,273.425L155.556,273.575L155.584,273.725L155.613,273.875L155.644,274.024L155.677,274.173L155.712,274.322L155.748,274.471L155.787,274.62L155.827,274.769L155.869,274.917L155.913,275.064L155.958,275.212L156.006,275.359L156.056,275.507L156.107,275.654L156.16,275.8L156.215,275.946L156.273,276.092L156.332,276.237L156.392,276.382L156.455,276.527L156.52,276.671L156.587,276.815L156.656,276.96L156.726,277.103L156.799,277.245L156.874,277.388L156.95,277.53L157.029,277.672L157.135,277.857L157.221,278.015L157.278,278.112L157.419,278.348L157.563,278.584L157.71,278.821L157.86,279.058L158.012,279.294L158.168,279.53L158.325,279.765L158.486,279.999L158.648,280.232L158.813,280.464L158.98,280.694L159.149,280.923L159.32,281.149L159.493,281.373L159.668,281.595L159.844,281.814L160.023,282.031L160.202,282.244L160.383,282.455L160.565,282.662L160.749,282.865L160.933,283.066L161.118,283.261L161.304,283.453L161.491,283.641L161.678,283.824L161.865,284.003L162.053,284.177L162.24,284.345L162.427,284.51L162.614,284.669L162.801,284.823L162.986,284.971L163.171,285.114L163.356,285.252L163.538,285.384L163.72,285.51L163.9,285.631L164.079,285.746L164.256,285.855L164.43,285.959L164.603,286.057L164.774,286.149L164.942,286.236L165.108,286.317L165.272,286.392L165.433,286.462L165.591,286.527L165.748,286.587L165.901,286.642L166.053,286.691L166.202,286.737L166.348,286.777L166.493,286.813L166.636,286.845L166.778,286.872L166.918,286.896L167.085,286.919L167.127,286.924L167.196,286.932L167.265,286.938L167.334,286.944L167.404,286.948L167.473,286.952L167.543,286.954L167.613,286.956L167.682,286.956L167.736,286.956L167.95,286.951L168.145,286.943L168.339,286.93L168.532,286.912L168.725,286.891L168.916,286.866L169.107,286.836L169.298,286.802L169.488,286.764L169.678,286.722L169.868,286.676L170.058,286.626L170.248,286.571L170.437,286.513L170.627,286.45L170.817,286.382L171.006,286.311L171.196,286.235L171.386,286.154L171.576,286.07L171.767,285.98L171.957,285.887L172.147,285.789L172.337,285.686L172.527,285.579L172.717,285.468L172.906,285.352L173.095,285.232L173.284,285.107L173.473,284.977L173.66,284.843L173.848,284.705L174.034,284.563L174.22,284.416L174.405,284.265L174.589,284.109L174.772,283.949L174.954,283.785L175.135,283.617L175.315,283.445L175.492,283.269L175.669,283.089L175.844,282.905ZM157.397,278.336L157.294,278.15L157.421,278.405L157.548,278.686L157.397,278.336Z" style="fill:rgb(255,227,0);"/>
                </g>
            </g>
            <path d="M95.831,308.902C95.831,308.902 95.831,308.904 95.831,308.908C95.831,316.07 97.768,322.933 101.209,327.966C104.651,332.998 109.31,335.781 114.146,335.692C118.624,335.61 123.603,335.518 128.7,335.424C155.36,334.934 180.59,353.233 196.671,384.722C196.672,384.726 196.674,384.729 196.676,384.733C197.716,386.77 199.357,387.938 201.082,387.867C202.806,387.797 204.401,386.497 205.364,384.377C210.736,372.552 219.949,352.271 224.784,341.629C226.767,337.263 230.088,334.644 233.643,334.644C233.644,334.644 233.644,334.644 233.645,334.644C237.253,334.644 240.678,336.992 243.012,341.066C247.256,348.475 254.05,360.334 257.165,365.771C258.144,367.48 259.774,368.005 261.144,367.054C261.368,366.898 261.607,366.732 261.859,366.557C284.544,350.798 311.603,363.092 324.413,394.98C325.233,397.02 326.06,399.079 326.892,401.151C333.286,417.065 345.249,426.187 357.712,424.651C370.175,423.114 380.954,411.188 385.482,393.927C385.483,393.925 385.483,393.923 385.484,393.92C394.505,359.532 416.641,336.593 441.55,335.821C451.188,335.522 460.699,335.227 467.791,335.007C474.305,334.805 479.515,326.928 479.515,317.28C479.515,317.276 479.515,317.272 479.515,317.268C479.515,307.731 474.294,300 467.853,300C408.933,300 145.103,300 101.842,300C100.247,300 98.719,300.938 97.591,302.607C96.464,304.276 95.831,306.539 95.831,308.9C95.831,308.901 95.831,308.902 95.831,308.902Z" style="fill:none;stroke:black;stroke-width:5.74px;"/>
        </g>
    </g>
</svg>
