<?xml version="1.0" encoding="UTF-8" standalone="no"?><!DOCTYPE svg PUBLIC "-//W3C//DTD SVG 1.1//EN" "http://www.w3.org/Graphics/SVG/1.1/DTD/svg11.dtd"><svg width="100%" height="100%" viewBox="0 0 483 196" version="1.1" xmlns="http://www.w3.org/2000/svg" xmlns:xlink="http://www.w3.org/1999/xlink" xml:space="preserve" xmlns:serif="http://www.serif.com/" style="fill-rule:evenodd;clip-rule:evenodd;stroke-linejoin:round;stroke-miterlimit:1.41421;"><path d="M101.929,14.999c0.064,-0.008 0.128,-0.018 0.192,-0.032c111.915,-23.293 207.642,-19.363 335.897,16.211c1.602,0.445 3.164,1.024 4.669,1.733c23.611,11.093 30.909,18.807 36.272,33.438c0.568,1.466 0.082,3.131 -1.185,4.062c-1.267,0.931 -3.001,0.898 -4.231,-0.082c-28.971,-21.943 -77.699,-19.112 -100.321,-2.314c-3.664,2.707 -6.299,6.578 -7.473,10.98c-2.982,10.983 -9.82,36.623 -14.815,55.352c-0.724,2.717 -3.173,4.616 -5.985,4.641c-2.811,0.026 -5.294,-1.829 -6.067,-4.532c-0.616,-2.153 -1.233,-4.307 -1.825,-6.376c-0.599,-2.094 -2.491,-3.555 -4.668,-3.604c-2.178,-0.05 -4.135,1.323 -4.829,3.387c-6.474,19.256 -17.278,51.391 -21.222,63.121c-0.304,0.905 -1.074,1.576 -2.012,1.753c-0.938,0.177 -1.899,-0.166 -2.513,-0.897c-12.872,-15.337 -63.567,-75.74 -88.495,-105.443c-8.725,-10.395 -21.063,-17.102 -34.532,-18.772c-68.896,-8.484 -91.023,-28.202 -169.144,1.668c-1.197,0.453 -2.549,0.066 -3.324,-0.953c-0.775,-1.018 -0.788,-2.425 -0.031,-3.457c25.978,-35.44 55.483,-44.903 95.642,-49.884Z" style="fill:#ffc949;"/><clipPath id="_clip1"><path d="M101.929,14.999c0.064,-0.008 0.128,-0.018 0.192,-0.032c111.915,-23.293 207.642,-19.363 335.897,16.211c1.602,0.445 3.164,1.024 4.669,1.733c23.611,11.093 30.909,18.807 36.272,33.438c0.568,1.466 0.082,3.131 -1.185,4.062c-1.267,0.931 -3.001,0.898 -4.231,-0.082c-28.971,-21.943 -77.699,-19.112 -100.321,-2.314c-3.664,2.707 -6.299,6.578 -7.473,10.98c-2.982,10.983 -9.82,36.623 -14.815,55.352c-0.724,2.717 -3.173,4.616 -5.985,4.641c-2.811,0.026 -5.294,-1.829 -6.067,-4.532c-0.616,-2.153 -1.233,-4.307 -1.825,-6.376c-0.599,-2.094 -2.491,-3.555 -4.668,-3.604c-2.178,-0.05 -4.135,1.323 -4.829,3.387c-6.474,19.256 -17.278,51.391 -21.222,63.121c-0.304,0.905 -1.074,1.576 -2.012,1.753c-0.938,0.177 -1.899,-0.166 -2.513,-0.897c-12.872,-15.337 -63.567,-75.74 -88.495,-105.443c-8.725,-10.395 -21.063,-17.102 -34.532,-18.772c-68.896,-8.484 -91.023,-28.202 -169.144,1.668c-1.197,0.453 -2.549,0.066 -3.324,-0.953c-0.775,-1.018 -0.788,-2.425 -0.031,-3.457c25.978,-35.44 55.483,-44.903 95.642,-49.884Z"/></clipPath><g clip-path="url(#_clip1)"><path d="M86.372,269.542c14.253,-61.164 56.214,-110.886 90.076,-157.164c22.291,-30.466 44.318,-61.539 67.956,-90.508c13.749,-16.849 68.237,-82.217 92.525,-82.617c5.698,-0.094 11.556,8.303 14.503,13.201c6.501,10.802 8.805,24.051 8.495,37.303c-0.293,12.548 -2.713,25.059 -6.326,36.812c-11.165,36.321 -88.947,38.676 -108.254,67.539c-22.704,33.94 -24.68,96.139 -54.682,121.511c-22.874,19.344 -104.293,53.923 -104.293,53.923Z" style="fill:#ffd96f;"/><path d="M126.06,132.336c4.368,-31.265 16.543,-56.842 26.4,-80.619c6.489,-15.653 12.906,-31.615 19.769,-46.511c3.992,-8.665 19.806,-42.285 26.704,-42.617c1.619,-0.078 3.238,4.174 4.049,6.656c1.789,5.474 2.374,12.219 2.216,18.978c-0.149,6.401 -0.902,12.793 -1.989,18.806c-3.361,18.581 -25.458,20.189 -31.091,35.009c-6.624,17.428 -7.512,49.157 -16.163,62.253c-6.596,9.984 -29.895,28.045 -29.895,28.045Z" style="fill:#ffd96f;"/><path d="M235.102,184.451c31.329,-49.564 73.122,-77.04 109.229,-104.804c23.769,-18.277 47.632,-37.219 71.546,-53.568c13.909,-9.509 68.489,-45.916 81.697,-36.032c3.099,2.319 2.998,12.421 2.687,18.115c-0.687,12.558 -4.576,25.57 -9.87,37.481c-5.013,11.278 -11.156,21.625 -17.646,30.781c-20.056,28.293 -62.77,-2.387 -84.315,15.693c-25.336,21.261 -50.468,76.946 -76.41,87.341c-19.78,7.926 -76.918,4.993 -76.918,4.993Z" style="fill:#ffd96f;"/><path d="M103.27,168.851c-6.46,5.68 -11.209,9.577 -11.209,9.577c5.23,-46.535 22.523,-85.18 36.388,-121.009c9.128,-23.587 18.133,-47.625 27.86,-70.119c5.658,-13.083 28.102,-63.87 38.524,-64.824c1.344,-0.124 2.747,1.689 3.959,3.946c-11.36,12.551 -27.778,49.741 -32.5,60.661c-9.728,22.494 -18.733,46.532 -27.861,70.119c-12.925,33.399 -28.828,69.245 -35.161,111.649Z" style="fill:#ffd96f;"/><path d="M148.639,151.816c-7.471,3.211 -12.901,5.304 -12.901,5.304c15.588,-42.956 40.922,-74.107 62.336,-103.746c14.098,-19.511 28.18,-39.499 42.603,-57.749c8.388,-10.615 41.411,-51.652 51.599,-48.932c1.314,0.351 2.243,2.584 2.89,5.179c-13.723,8.113 -37.888,38.169 -44.89,47.029c-14.423,18.25 -28.505,38.238 -42.602,57.749c-19.963,27.629 -43.33,56.572 -59.035,95.166Z" style="fill:#ffd96f;"/><path d="M-59.792,131.078c24.04,-35.08 52.95,-76.468 118.994,-82.298c34.147,-3.014 101.521,4.085 135.106,13.758c6.855,1.982 13.012,5.858 17.763,11.184c14.879,16.678 51.933,58.217 75.326,84.442c3.984,4.466 10.114,6.359 15.922,4.915c5.809,-1.443 10.34,-5.985 11.77,-11.797c3.775,-15.346 7.977,-32.426 9.865,-40.103c0.262,-1.065 0.957,-1.972 1.917,-2.503c0.96,-0.53 2.098,-0.636 3.139,-0.291c2.264,0.75 5.135,1.701 7.672,2.541c3.486,1.155 7.253,-0.703 8.457,-4.172c6.81,-19.796 6.525,-32.779 20.21,-46.472c0.858,-0.857 1.83,-1.593 2.889,-2.185c27.552,-15.167 77.67,-20.389 121.179,14.987c0.046,0.038 0.072,0.094 0.071,0.153c-0.001,0.059 -0.029,0.114 -0.075,0.15c-6.758,5.176 -188.218,144.176 -188.218,144.176l-361.987,-86.485Z" style="fill:#d69c00;"/></g></svg>