<?xml version="1.0" encoding="UTF-8" standalone="no"?>
<!DOCTYPE svg PUBLIC "-//W3C//DTD SVG 1.1//EN" "http://www.w3.org/Graphics/SVG/1.1/DTD/svg11.dtd">
<svg width="100%" height="100%" viewBox="0 0 120 34" version="1.1" xmlns="http://www.w3.org/2000/svg" xmlns:xlink="http://www.w3.org/1999/xlink" xml:space="preserve" xmlns:serif="http://www.serif.com/" style="fill-rule:evenodd;clip-rule:evenodd;stroke-linecap:round;stroke-linejoin:round;stroke-miterlimit:1.5;">
    <g transform="matrix(1,0,0,1,-82,-207)">
        <g transform="matrix(-0.306461,0,0,0.238193,230.587,137.133)">
            <path d="M95.831,317.314C95.831,307.752 101.856,300 109.288,300C168.658,300 406.845,300 466.111,300C469.666,300 473.075,301.817 475.589,305.051C478.103,308.286 479.515,312.673 479.515,317.247C479.515,317.247 479.515,317.247 479.515,317.248C479.515,327.452 474.081,336.328 466.37,338.717C444.587,345.466 401.701,358.754 384.45,364.099C379.735,365.56 375.775,369.657 373.654,375.268C371.597,380.709 368.81,388.084 365.917,395.738C362.442,404.93 355.982,411.673 348.274,414.153C340.567,416.633 332.401,414.597 325.972,408.591C315.966,399.244 304.211,388.263 292.865,377.665C262.932,349.703 226.89,334.644 189.899,334.644C160.621,334.644 127.369,334.644 109.288,334.644C101.856,334.644 95.831,326.892 95.831,317.33C95.831,317.325 95.831,317.319 95.831,317.314Z" style="fill:rgb(255,227,0);"/>
            <clipPath id="_clip1">
                <path d="M95.831,317.314C95.831,307.752 101.856,300 109.288,300C168.658,300 406.845,300 466.111,300C469.666,300 473.075,301.817 475.589,305.051C478.103,308.286 479.515,312.673 479.515,317.247C479.515,317.247 479.515,317.247 479.515,317.248C479.515,327.452 474.081,336.328 466.37,338.717C444.587,345.466 401.701,358.754 384.45,364.099C379.735,365.56 375.775,369.657 373.654,375.268C371.597,380.709 368.81,388.084 365.917,395.738C362.442,404.93 355.982,411.673 348.274,414.153C340.567,416.633 332.401,414.597 325.972,408.591C315.966,399.244 304.211,388.263 292.865,377.665C262.932,349.703 226.89,334.644 189.899,334.644C160.621,334.644 127.369,334.644 109.288,334.644C101.856,334.644 95.831,326.892 95.831,317.33C95.831,317.325 95.831,317.319 95.831,317.314Z"/>
            </clipPath>
            <g clip-path="url(#_clip1)">
                <g transform="matrix(-1,0,0,1,728.387,-17)">
                    <path d="M317.272,525.858C317.102,475.208 347.986,436.224 401.041,399.033C429.792,378.878 443.915,346.309 464.87,325.7C478.295,312.497 529.158,258.964 552.689,258.197C558.21,258.017 571.381,270.625 567.043,268.442C551.16,260.448 294.671,509.253 317.272,525.858Z" style="fill:rgb(255,251,208);"/>
                </g>
                <g transform="matrix(-0.283656,-0.00926776,-0.0166566,0.509804,462.01,154.034)">
                    <path d="M246.7,542.203C259.139,493.23 369.262,436.513 401.041,399.033C421.961,374.359 442.612,349.207 464.87,325.7C477.817,312.028 545.054,226.806 568.585,226.038C574.106,225.858 574.048,317.998 570.811,327.425C560.806,356.556 485.472,359.868 467.408,383.21C446.166,410.659 445.65,460.229 417.142,480.988C395.406,496.816 246.7,542.203 246.7,542.203Z" style="fill:rgb(255,251,208);"/>
                </g>
            </g>
            <path d="M95.831,317.314C95.831,307.752 101.856,300 109.288,300C168.658,300 406.845,300 466.111,300C469.666,300 473.075,301.817 475.589,305.051C478.103,308.286 479.515,312.673 479.515,317.247C479.515,317.247 479.515,317.247 479.515,317.248C479.515,327.452 474.081,336.328 466.37,338.717C444.587,345.466 401.701,358.754 384.45,364.099C379.735,365.56 375.775,369.657 373.654,375.268C371.597,380.709 368.81,388.084 365.917,395.738C362.442,404.93 355.982,411.673 348.274,414.153C340.567,416.633 332.401,414.597 325.972,408.591C315.966,399.244 304.211,388.263 292.865,377.665C262.932,349.703 226.89,334.644 189.899,334.644C160.621,334.644 127.369,334.644 109.288,334.644C101.856,334.644 95.831,326.892 95.831,317.33C95.831,317.325 95.831,317.319 95.831,317.314Z" style="fill:none;stroke:black;stroke-width:5.47px;"/>
        </g>
    </g>
</svg>
