<?xml version="1.0" encoding="UTF-8" standalone="no"?>
<!DOCTYPE svg PUBLIC "-//W3C//DTD SVG 1.1//EN" "http://www.w3.org/Graphics/SVG/1.1/DTD/svg11.dtd">
<svg width="100%" height="100%" viewBox="0 0 329 123" version="1.1" xmlns="http://www.w3.org/2000/svg" xmlns:xlink="http://www.w3.org/1999/xlink" xml:space="preserve" xmlns:serif="http://www.serif.com/" style="fill-rule:evenodd;clip-rule:evenodd;stroke-linejoin:round;stroke-miterlimit:1.41421;">
    <g transform="matrix(1,0,0,1,-476,-579)">
        <g transform="matrix(0.655244,0.0328418,-0.0399698,0.797457,476.298,344.45)">
            <path d="M139.289,301.283C139.386,301.271 139.483,301.256 139.578,301.237C246.934,280.733 350.938,273.752 475.271,299.123C479.325,299.953 483.218,301.244 486.838,302.958C504.65,311.321 511.953,323.572 517.114,336.359C517.862,338.166 517.095,340.163 515.22,341.29C513.346,342.418 510.797,342.415 508.926,341.284C485.719,327.712 452.722,321.54 429.963,325.529C418.513,327.598 409.501,334.849 406.743,344.212C404.048,353.28 399.936,367.241 396.464,379.028C395.667,381.737 392.767,383.674 389.377,383.764C385.987,383.854 382.942,382.074 381.933,379.413C381.932,379.409 381.931,379.406 381.929,379.402C381.258,377.633 379.264,376.427 377.008,376.428C374.752,376.428 372.759,377.635 372.09,379.405C366.61,393.904 357.995,416.694 354.029,427.185C353.597,428.327 352.449,429.189 351.026,429.438C349.602,429.687 348.126,429.286 347.165,428.388C333.823,415.925 295.265,379.907 270.014,356.319C254.664,341.979 232.62,333.676 209.379,333.481C148.628,332.76 103.521,338.59 35.892,361.558C34.071,362.164 31.982,361.704 30.773,360.432C29.564,359.16 29.528,357.383 30.684,356.079C57.853,327.289 102.048,305.836 139.289,301.283Z" style="fill:rgb(255,201,73);"/>
            <clipPath id="_clip1">
                <path d="M139.289,301.283C139.386,301.271 139.483,301.256 139.578,301.237C246.934,280.733 350.938,273.752 475.271,299.123C479.325,299.953 483.218,301.244 486.838,302.958C504.65,311.321 511.953,323.572 517.114,336.359C517.862,338.166 517.095,340.163 515.22,341.29C513.346,342.418 510.797,342.415 508.926,341.284C485.719,327.712 452.722,321.54 429.963,325.529C418.513,327.598 409.501,334.849 406.743,344.212C404.048,353.28 399.936,367.241 396.464,379.028C395.667,381.737 392.767,383.674 389.377,383.764C385.987,383.854 382.942,382.074 381.933,379.413C381.932,379.409 381.931,379.406 381.929,379.402C381.258,377.633 379.264,376.427 377.008,376.428C374.752,376.428 372.759,377.635 372.09,379.405C366.61,393.904 357.995,416.694 354.029,427.185C353.597,428.327 352.449,429.189 351.026,429.438C349.602,429.687 348.126,429.286 347.165,428.388C333.823,415.925 295.265,379.907 270.014,356.319C254.664,341.979 232.62,333.676 209.379,333.481C148.628,332.76 103.521,338.59 35.892,361.558C34.071,362.164 31.982,361.704 30.773,360.432C29.564,359.16 29.528,357.383 30.684,356.079C57.853,327.289 102.048,305.836 139.289,301.283Z"/>
            </clipPath>
            <g clip-path="url(#_clip1)">
                <g transform="matrix(1,0,0,1,-175.445,-30)">
                    <path d="M317.272,525.858C329.711,476.886 369.262,436.513 401.041,399.033C421.961,374.359 442.612,349.207 464.87,325.7C477.817,312.028 529.158,258.964 552.689,258.197C558.21,258.017 564.076,264.596 567.043,268.442C573.586,276.924 576.117,287.433 576.115,297.992C576.113,307.99 574.048,317.998 570.811,327.425C560.806,356.556 485.472,359.868 467.408,383.21C446.166,410.659 445.65,460.229 417.142,480.988C395.406,496.816 317.272,525.858 317.272,525.858Z" style="fill:rgb(255,217,111);"/>
                </g>
                <g transform="matrix(0.283808,0,0,0.510076,87.1644,117.63)">
                    <path d="M317.272,525.858C329.711,476.886 369.262,436.513 401.041,399.033C421.961,374.359 442.612,349.207 464.87,325.7C477.817,312.028 529.158,258.964 552.689,258.197C558.21,258.017 564.076,264.596 567.043,268.442C573.586,276.924 576.117,287.433 576.115,297.992C576.113,307.99 574.048,317.998 570.811,327.425C560.806,356.556 485.472,359.868 467.408,383.21C446.166,410.659 445.65,460.229 417.142,480.988C395.406,496.816 317.272,525.858 317.272,525.858Z" style="fill:rgb(255,217,111);"/>
                </g>
                <g transform="matrix(0.538446,0.353754,-0.460515,0.907662,355.396,-164.191)">
                    <path d="M317.272,525.858C329.711,476.886 369.262,436.513 401.041,399.033C421.961,374.359 442.612,349.207 464.87,325.7C477.817,312.028 529.158,258.964 552.689,258.197C558.21,258.017 564.076,264.596 567.043,268.442C573.586,276.924 576.117,287.433 576.115,297.992C576.113,307.99 574.048,317.998 570.811,327.425C560.806,356.556 485.472,359.868 467.408,383.21C446.166,410.659 445.65,460.229 417.142,480.988C395.406,496.816 317.272,525.858 317.272,525.858Z" style="fill:rgb(255,217,111);"/>
                </g>
                <g transform="matrix(9.67017,-0.357224,0.350854,9.84573,-956.09,-699.111)">
                    <path d="M110.743,117.211C110.093,117.659 109.615,117.966 109.615,117.966C110.167,114.212 111.923,111.118 113.333,108.245C114.262,106.353 115.178,104.426 116.166,102.624C116.741,101.576 119.02,97.508 120.065,97.45C120.199,97.442 120.339,97.591 120.459,97.776C119.313,98.771 117.646,101.749 117.166,102.624C116.178,104.426 115.262,106.353 114.333,108.245C113.018,110.923 111.404,113.793 110.743,117.211Z" style="fill:rgb(255,217,111);"/>
                </g>
                <g transform="matrix(9.37719,2.43158,-2.38822,9.54743,-559.004,-987.392)">
                    <path d="M110.743,117.211C110.093,117.659 109.615,117.966 109.615,117.966C110.167,114.212 111.923,111.118 113.333,108.245C114.262,106.353 115.178,104.426 116.166,102.624C116.741,101.576 119.02,97.508 120.065,97.45C120.199,97.442 120.339,97.591 120.459,97.776C119.313,98.771 117.646,101.749 117.166,102.624C116.178,104.426 115.262,106.353 114.333,108.245C113.018,110.923 111.404,113.793 110.743,117.211Z" style="fill:rgb(255,217,111);"/>
                </g>
                <g transform="matrix(2.07886,0,0,2.36562,-1217.1,-421.321)">
                    <path d="M582.683,342.246C595.119,325.378 621.775,312.414 692.968,315.171C700.226,315.447 707.047,317.766 711.966,321.63C719.451,327.504 731.155,336.698 740.61,344.125C743.592,346.468 748.129,347.418 752.384,346.592C756.639,345.766 759.905,343.301 760.858,340.195C761.689,337.486 762.448,335.012 762.962,333.337C763.136,332.77 763.63,332.281 764.324,331.989C765.019,331.696 765.851,331.626 766.62,331.796C766.966,331.873 767.324,331.952 767.684,332.031C770.112,332.567 772.706,331.682 773.675,329.988C777.288,323.704 781.809,318.174 787.572,313.684C788.785,312.748 790.332,312.071 792.043,311.726C807.028,308.704 823.848,313.087 841.757,323.366C841.792,323.386 841.811,323.416 841.81,323.449C841.809,323.481 841.787,323.51 841.751,323.529C837.675,325.613 753.747,368.528 753.747,368.528L582.683,342.246Z" style="fill:rgb(214,156,0);"/>
                </g>
            </g>
        </g>
    </g>
</svg>
