<?xml version="1.0" encoding="UTF-8" standalone="no"?><!DOCTYPE svg PUBLIC "-//W3C//DTD SVG 1.1//EN" "http://www.w3.org/Graphics/SVG/1.1/DTD/svg11.dtd"><svg width="100%" height="100%" viewBox="0 0 496 163" version="1.1" xmlns="http://www.w3.org/2000/svg" xmlns:xlink="http://www.w3.org/1999/xlink" xml:space="preserve" xmlns:serif="http://www.serif.com/" style="fill-rule:evenodd;clip-rule:evenodd;stroke-linejoin:round;stroke-miterlimit:1.41421;"><path d="M472.702,55.185c-5.913,-6.165 -13.031,-11.048 -20.912,-14.343c-124.496,-51.48 -314.797,-59.931 -411.341,11.908c-8.848,6.61 -15.97,15.258 -20.76,25.21c-2.646,5.455 -5.77,11.945 -8.737,18.11c-0.736,1.531 -0.258,3.371 1.131,4.35c1.389,0.979 3.282,0.81 4.477,-0.398c40.228,-41.852 78.548,-52.875 133.173,10.085c0.74,0.854 1.429,1.751 2.064,2.685c4.406,6.484 23.433,34.504 30.962,45.591c0.81,1.194 2.069,2.01 3.49,2.264c1.421,0.255 2.884,-0.075 4.059,-0.914c15.948,-11.391 70.002,-50 86.247,-61.603c3.228,-2.306 6.7,-4.246 10.355,-5.787c107.612,-45.143 172.949,-14.715 199.976,-12.723c1.582,0.116 3.072,-0.754 3.748,-2.189c0.675,-1.436 0.396,-3.139 -0.702,-4.284c-4.742,-4.944 -11.72,-12.218 -17.23,-17.962Z" style="fill:#ffc949;"/><clipPath id="_clip1"><path d="M472.702,55.185c-5.913,-6.165 -13.031,-11.048 -20.912,-14.343c-124.496,-51.48 -314.797,-59.931 -411.341,11.908c-8.848,6.61 -15.97,15.258 -20.76,25.21c-2.646,5.455 -5.77,11.945 -8.737,18.11c-0.736,1.531 -0.258,3.371 1.131,4.35c1.389,0.979 3.282,0.81 4.477,-0.398c40.228,-41.852 78.548,-52.875 133.173,10.085c0.74,0.854 1.429,1.751 2.064,2.685c4.406,6.484 23.433,34.504 30.962,45.591c0.81,1.194 2.069,2.01 3.49,2.264c1.421,0.255 2.884,-0.075 4.059,-0.914c15.948,-11.391 70.002,-50 86.247,-61.603c3.228,-2.306 6.7,-4.246 10.355,-5.787c107.612,-45.143 172.949,-14.715 199.976,-12.723c1.582,0.116 3.072,-0.754 3.748,-2.189c0.675,-1.436 0.396,-3.139 -0.702,-4.284c-4.742,-4.944 -11.72,-12.218 -17.23,-17.962Z"/></clipPath><g clip-path="url(#_clip1)"><path d="M-18.597,306.938c10.841,-62.184 53.434,-115.339 87.301,-164.367c22.295,-32.276 44.246,-65.135 68.161,-96.034c13.91,-17.972 69.152,-87.795 96.13,-90.275c6.329,-0.583 13.532,7.285 17.211,11.914c8.114,10.209 11.761,23.217 12.503,36.452c0.702,12.532 -0.966,25.209 -4.021,37.233c-9.442,37.159 -95.75,46.172 -114.858,76.595c-22.469,35.774 -19.571,97.937 -50.859,125.797c-23.854,21.241 -111.568,62.685 -111.568,62.685Z" style="fill:#ffd96f;"/><path d="M155.185,182.466c25.807,-43.456 63.045,-69.142 94.924,-94.698c20.987,-16.823 42.012,-34.207 63.274,-49.429c12.367,-8.854 60.96,-42.838 74.081,-35.444c3.078,1.735 3.718,10.181 3.84,14.959c0.269,10.536 -2.435,21.66 -6.539,31.957c-3.885,9.75 -8.899,18.796 -14.326,26.869c-16.771,24.948 -59.106,2.11 -78.019,18.623c-22.24,19.418 -41.782,67.582 -65.382,77.963c-17.993,7.914 -71.853,9.2 -71.853,9.2Z" style="fill:#ffd96f;"/><path d="M64.028,147.444c-7.292,3.463 -12.603,5.739 -12.603,5.739c13.398,-43.441 37.108,-75.426 56.985,-105.765c13.084,-19.972 26.131,-40.421 39.603,-59.144c7.836,-10.891 38.721,-53.014 49.018,-50.646c1.329,0.306 2.367,2.504 3.142,5.075c-13.282,8.573 -35.881,39.424 -42.422,48.514c-13.472,18.724 -26.518,39.172 -39.603,59.144c-18.528,28.282 -40.388,57.993 -54.12,97.083Z" style="fill:#ffd96f;"/><path d="M-0.115,113.403c-8.164,-6.387 7.59,-23.923 33.414,-40.414c20.669,-13.177 45.828,-17.33 69.637,-11.494c23.808,5.836 44.194,21.153 56.426,42.396c0.027,-0.015 0.027,-0.015 0.027,-0.015c5.313,9.227 11.794,22.351 17.066,33.465c2.109,4.929 6.464,8.539 11.699,9.696c5.235,1.156 10.706,-0.282 14.695,-3.863c23.031,-19.197 61.857,-46.581 87.266,-66.187c20.14,-15.581 45.079,-23.661 70.53,-22.849c79.526,2.62 165.605,24.288 154.614,23.205c0,0 53.373,43.222 28.967,38.106l-368.899,114.567l-175.442,-116.613Z" style="fill:#d69c00;"/></g></svg>