<?xml version="1.0" encoding="UTF-8" standalone="no"?>
<!DOCTYPE svg PUBLIC "-//W3C//DTD SVG 1.1//EN" "http://www.w3.org/Graphics/SVG/1.1/DTD/svg11.dtd">
<svg width="100%" height="100%" viewBox="0 0 297 41" version="1.1" xmlns="http://www.w3.org/2000/svg" xmlns:xlink="http://www.w3.org/1999/xlink" xml:space="preserve" xmlns:serif="http://www.serif.com/" style="fill-rule:evenodd;clip-rule:evenodd;stroke-linejoin:round;stroke-miterlimit:1.41421;">
    <g transform="matrix(1,0,0,1,-494,-638)">
        <g transform="matrix(1.42402,0,0,0.916316,-254.033,107.375)">
            <g transform="matrix(1.11338,0,0,1.68301,308.273,10.7397)">
                <g>
                    <path d="M199.865,338.044C198.708,338.044 197.607,338.556 196.843,339.45C196.079,340.343 195.726,341.532 195.874,342.712C195.874,342.712 195.874,342.712 195.874,342.712C197.154,352.888 205.133,360.788 215.073,361.72C244.471,363.356 301.519,364.896 342.882,362.26C350.635,361.766 361.039,360.217 368.797,358.866C377.193,357.389 382.964,349.37 381.884,340.684C381.865,340.679 381.864,340.672 381.863,340.665C381.676,339.168 380.437,338.048 378.97,338.048C364.303,338.044 290.044,338.044 290.044,338.044C290.044,338.044 218.805,338.044 199.865,338.044Z" style="fill:rgb(101,34,0);"/>
                    <clipPath id="_clip1">
                        <path d="M199.865,338.044C198.708,338.044 197.607,338.556 196.843,339.45C196.079,340.343 195.726,341.532 195.874,342.712C195.874,342.712 195.874,342.712 195.874,342.712C197.154,352.888 205.133,360.788 215.073,361.72C244.471,363.356 301.519,364.896 342.882,362.26C350.635,361.766 361.039,360.217 368.797,358.866C377.193,357.389 382.964,349.37 381.884,340.684C381.865,340.679 381.864,340.672 381.863,340.665C381.676,339.168 380.437,338.048 378.97,338.048C364.303,338.044 290.044,338.044 290.044,338.044C290.044,338.044 218.805,338.044 199.865,338.044Z"/>
                    </clipPath>
                    <g clip-path="url(#_clip1)">
                        <g transform="matrix(1.04345,0,0,0.691646,-76.5712,131.981)">
                            <path d="M446.748,278.483C446.748,278.483 412.319,284.851 438.757,294.106C461.94,302.222 386.92,310.514 349.754,309.873C303.596,309.076 226.918,300.309 260.08,294.106C262.218,293.706 254.146,291.497 254.832,288.203C255.947,282.858 269.946,279.96 274.29,278.237C290.168,271.94 309.605,273.467 326.092,275.257C344.378,277.242 362.241,277.343 380.578,276.918C399.556,276.477 418.884,276.132 437.854,277.407C447.014,278.023 438.551,273.835 446.748,278.483Z" style="fill:rgb(123,78,73);"/>
                        </g>
                        <g transform="matrix(1.04345,0,0,0.691646,-76.5712,130.371)">
                            <path d="M446.748,278.483C446.748,278.483 415.652,278.27 438.757,294.106C453.754,304.385 359.579,309.848 349.461,309.312C323.956,307.96 238.112,302.544 260.08,294.106C262.111,293.326 254.146,291.497 254.832,288.203C255.947,282.858 269.946,279.96 274.29,278.237C290.168,271.94 309.605,273.467 326.092,275.257C344.378,277.242 362.241,277.343 380.578,276.918C399.556,276.477 418.884,276.132 437.854,277.407C447.014,278.023 438.551,273.835 446.748,278.483Z" style="fill:rgb(81,35,13);"/>
                            <clipPath id="_clip2">
                                <path d="M446.748,278.483C446.748,278.483 415.652,278.27 438.757,294.106C453.754,304.385 359.579,309.848 349.461,309.312C323.956,307.96 238.112,302.544 260.08,294.106C262.111,293.326 254.146,291.497 254.832,288.203C255.947,282.858 269.946,279.96 274.29,278.237C290.168,271.94 309.605,273.467 326.092,275.257C344.378,277.242 362.241,277.343 380.578,276.918C399.556,276.477 418.884,276.132 437.854,277.407C447.014,278.023 438.551,273.835 446.748,278.483Z"/>
                            </clipPath>
                            <g clip-path="url(#_clip2)">
                                <g>
                                    <g transform="matrix(0.324617,0,0,0.45189,131.097,189.657)">
                                        <path d="M705.406,231.231C698.439,241.662 682.793,263.996 678.785,260.487C674.945,257.126 685.726,239.982 691.638,231.231L705.406,231.231Z" style="fill:rgb(29,13,5);"/>
                                    </g>
                                    <g transform="matrix(0.324617,0,0,0.45189,114.372,189.657)">
                                        <path d="M705.406,231.231C698.439,241.662 682.793,263.996 678.785,260.487C674.945,257.126 685.726,239.982 691.638,231.231L705.406,231.231Z" style="fill:rgb(29,13,5);"/>
                                    </g>
                                    <g transform="matrix(0.324617,0,0,0.45189,97.6465,188.294)">
                                        <path d="M705.406,231.231C698.439,241.662 682.793,263.996 678.785,260.487C674.945,257.126 685.726,239.982 691.638,231.231L705.406,231.231Z" style="fill:rgb(29,13,5);"/>
                                    </g>
                                    <g transform="matrix(0.324617,0,0,0.45189,80.9213,185.966)">
                                        <path d="M705.406,231.231C701.97,236.375 696.423,244.414 691.203,250.821C685.837,257.405 680.816,262.265 678.785,260.487C674.945,257.126 685.726,239.982 691.638,231.231L705.406,231.231Z" style="fill:rgb(29,13,5);"/>
                                    </g>
                                    <g transform="matrix(0.324617,0,0,0.45189,64.1961,182.163)">
                                        <path d="M705.406,231.231C698.439,241.662 682.793,263.996 678.785,260.487C674.945,257.126 685.726,239.982 691.638,231.231L705.406,231.231Z" style="fill:rgb(29,13,5);"/>
                                    </g>
                                    <g transform="matrix(0.324617,0,0,0.45189,199.241,182.163)">
                                        <path d="M705.406,231.231C698.439,241.662 682.793,263.996 678.785,260.487C674.945,257.126 685.726,239.982 691.638,231.231L705.406,231.231Z" style="fill:rgb(29,13,5);"/>
                                    </g>
                                    <g transform="matrix(0.324617,0,0,0.45189,147.822,189.148)">
                                        <path d="M705.406,231.231C698.439,241.662 682.793,263.996 678.785,260.487C674.945,257.126 685.726,239.982 691.638,231.231L705.406,231.231Z" style="fill:rgb(29,13,5);"/>
                                    </g>
                                    <g transform="matrix(0.324617,0,0,0.45189,164.547,186.82)">
                                        <path d="M705.406,231.231C698.439,241.662 682.793,263.996 678.785,260.487C674.945,257.126 685.726,239.982 691.638,231.231L705.406,231.231Z" style="fill:rgb(29,13,5);"/>
                                    </g>
                                    <g transform="matrix(0.324617,0,0,0.45189,181.273,185.457)">
                                        <path d="M705.406,231.231C698.439,241.662 682.793,263.996 678.785,260.487C674.945,257.126 685.726,239.982 691.638,231.231L705.406,231.231Z" style="fill:rgb(29,13,5);"/>
                                    </g>
                                </g>
                            </g>
                        </g>
                        <g transform="matrix(1.30233,0,0,1.30233,47.1665,-199.01)">
                            <path d="M113.735,417.825C115.409,418.866 113.634,422.968 118.917,426.321C126.992,431.446 223.222,431.065 248.207,426.474C254.393,425.337 256.76,422.162 256.696,420.882C255.332,393.475 272.325,425.486 271.5,433.877C271.179,437.143 267.525,439.88 265.05,441.534C257.912,446.304 249.98,449.361 241.743,451.608C224.723,456.251 205.587,457.654 188.049,455.77C174.961,454.365 162.005,451.108 149.041,448.361C145.055,447.516 141.068,446.72 137.077,446.04C134.083,445.531 131.065,445.109 128.084,444.534C125.521,444.039 122.972,443.498 120.426,442.921C113.038,441.248 113.735,417.825 113.735,417.825Z" style="fill:rgb(54,23,9);"/>
                        </g>
                    </g>
                </g>
            </g>
            <g transform="matrix(0.687114,0.0484188,-0.066065,0.503583,175.811,291.709)">
                <path d="M575.788,536.791C591.588,540.384 605.265,543.759 606.419,544.311C609.625,545.846 611.832,571.604 627.124,570.727C600.675,571.976 593.871,570.68 578.28,567.796C573.043,566.828 568.288,555.485 567.847,550.176C567.727,548.736 567.53,547.254 567.484,545.816C567.419,543.807 568.078,541.196 569.656,539.482C571.234,537.767 573.516,536.274 575.788,536.791Z" style="fill:rgb(123,78,73);fill-opacity:0.34902;"/>
            </g>
            <g transform="matrix(0.999876,-0.0115329,0.0110802,0.515987,36.5172,322.919)">
                <g>
                    <path d="M623.707,572.031C595.494,573.339 557.41,574.028 534.508,568.982C529.536,567.887 524.198,551.364 523.772,547.639C523.618,546.297 523.359,541.014 525.535,538.926C527.579,536.965 532.012,538.14 533.446,538.475C563.3,545.43 609.667,544.224 622.279,543.003C631.251,542.134 632.591,571.619 623.707,572.031Z" style="fill:rgb(123,78,73);fill-opacity:0.34902;"/>
                </g>
            </g>
        </g>
    </g>
</svg>
