<svg xmlns="http://www.w3.org/2000/svg" viewBox="0 0 306.374 22.365"><defs><style>.a{fill:#fbf3f3;}.b{fill:#d2cccc;}.c{fill:#3c2411;}</style></defs><title>plate</title><path class="a" d="M153.181,7.9C64.13,7.725,19.212,6.524,6.637,6.126c1.7,3.762,6.844,5.88,15.573,6.442l.252.017a3,3,0,0,1,2.593,1.889l.748,1.891H280.571l.747-1.891a3,3,0,0,1,2.593-1.889l.252-.017c8.73-.562,13.869-2.68,15.574-6.442-12.576.4-57.494,1.6-146.545,1.774Z"/><path class="b" d="M22.462,12.585a3,3,0,0,1,2.593,1.889l.748,1.891H280.571l.747-1.891a3,3,0,0,1,2.593-1.889l.252-.017c.153-.01.3-.024.446-.035-21.962.516-64.062,1.235-131.417,1.367h-.011c-67.355-.132-109.455-.851-131.416-1.367.15.011.293.025.445.035Z"/><path class="c" d="M305.453.837a3.031,3.031,0,0,0-2.2-.835c-.425.017-43.69,1.689-150.063,1.9C46.837,1.691,3.544.019,3.119,0a3.069,3.069,0,0,0-2.2.835A3,3,0,0,0,0,3C0,14.05,10.6,17.534,20.165,18.425l.809,2.043a3,3,0,0,0,2.789,1.9H282.61a3,3,0,0,0,2.79-1.9l.808-2.043c9.568-.891,20.166-4.375,20.166-15.425A3,3,0,0,0,305.453.837Zm-21.29,11.731-.252.017a3,3,0,0,0-2.593,1.889l-.747,1.891H25.8l-.748-1.891a3,3,0,0,0-2.593-1.889l-.252-.017c-8.729-.562-13.869-2.68-15.573-6.442,12.575.4,57.493,1.6,146.544,1.774h.011c89.051-.175,133.969-1.376,146.545-1.774C298.032,9.888,292.893,12.006,284.163,12.568Z"/></svg>