<?xml version="1.0" encoding="UTF-8" standalone="no"?><!DOCTYPE svg PUBLIC "-//W3C//DTD SVG 1.1//EN" "http://www.w3.org/Graphics/SVG/1.1/DTD/svg11.dtd"><svg width="100%" height="100%" viewBox="0 0 957 79" version="1.1" xmlns="http://www.w3.org/2000/svg" xmlns:xlink="http://www.w3.org/1999/xlink" xml:space="preserve" xmlns:serif="http://www.serif.com/" style="fill-rule:evenodd;clip-rule:evenodd;stroke-linejoin:round;stroke-miterlimit:1.41421;"><g id="Board-gruppe" serif:id="Board gruppe"><path id="Gruppier-board" serif:id="Gruppier board" d="M956.147,60.383c0,-33.194 -26.909,-60.104 -60.104,-60.104c-171.842,0 -663.888,0 -835.751,0c-33.203,0 -60.12,26.917 -60.12,60.12c0,0.001 0,0.002 0,0.003c0,9.952 8.068,18.02 18.02,18.02c119.803,0 800.059,0 919.917,0c9.963,0 18.038,-8.076 18.038,-18.038c0,0 0,0 0,-0.001Z" style="fill:#51230d;"/><clipPath id="_clip1"><path id="Gruppier-board1" serif:id="Gruppier board" d="M956.147,60.383c0,-33.194 -26.909,-60.104 -60.104,-60.104c-171.842,0 -663.888,0 -835.751,0c-33.203,0 -60.12,26.917 -60.12,60.12c0,0.001 0,0.002 0,0.003c0,9.952 8.068,18.02 18.02,18.02c119.803,0 800.059,0 919.917,0c9.963,0 18.038,-8.076 18.038,-18.038c0,0 0,0 0,-0.001Z"/></clipPath><g clip-path="url(#_clip1)"><g><path d="M55.257,127.488c-1.073,-5.851 2.387,-11.584 8.064,-13.363c29.343,-9.194 116.571,-36.524 165.421,-51.83c19.956,-6.252 32.935,-25.473 31.279,-46.32c0,0 0,-0.001 0,-0.001c-1.669,-21.005 10.794,-40.569 30.535,-47.935c33.76,-12.596 85.404,-31.865 117.306,-43.768c7.302,-2.724 15.414,-2.245 22.344,1.319c6.931,3.565 12.038,9.884 14.069,17.408c0,0.001 0,0.001 0,0.001c12.157,45.036 -10.145,92.241 -52.653,111.45c-38.25,17.285 -81.712,36.925 -104.89,47.399c-11.039,4.989 -22.747,8.338 -34.754,9.942c-43.065,5.754 -150.524,20.112 -184.415,24.64c-5.83,0.779 -11.245,-3.155 -12.306,-8.94c0,-0.001 0,-0.001 0,-0.002Z" style="fill:#5d280f;"/><path d="M125.101,106.699c-0.778,-4.243 1.73,-8.4 5.846,-9.689c21.23,-6.652 84.236,-26.393 119.491,-37.439c14.383,-4.506 23.738,-18.36 22.544,-33.385c0,-0.001 0,-0.001 0,-0.002c-1.208,-15.2 7.811,-29.358 22.097,-34.688c19.002,-7.09 45.826,-17.098 67.638,-25.236c9.639,-3.597 20.348,-2.965 29.497,1.741c9.149,4.705 15.891,13.048 18.572,22.98c0.001,0.001 0.001,0.002 0.001,0.003c6.048,22.406 -5.047,45.891 -26.196,55.448c-28.345,12.809 -66.246,29.937 -87.698,39.631c-11.039,4.988 -22.747,8.337 -34.754,9.942c-33.754,4.51 -104.974,14.025 -128.188,17.127c-4.193,0.56 -8.087,-2.269 -8.85,-6.43c0,-0.001 0,-0.002 0,-0.003Z" style="fill:#6d2f12;"/><path d="M169.426,96.275c-0.546,-2.978 1.214,-5.895 4.103,-6.801c14.87,-4.659 58.933,-18.464 83.572,-26.184c10.042,-3.147 16.574,-12.82 15.741,-23.311c0,-0.001 0,-0.001 0,-0.002c-0.846,-10.646 5.471,-20.562 15.476,-24.295c13.271,-4.952 31.986,-11.934 47.22,-17.618c6.755,-2.521 14.26,-2.078 20.672,1.22c6.411,3.297 11.137,9.144 13.016,16.105c0,0.001 0,0.002 0,0.003c4.221,15.635 -3.522,32.024 -18.28,38.693c-17.779,8.034 -40.954,18.507 -56.379,25.478c-11.039,4.988 -22.747,8.337 -34.754,9.941c-25.123,3.357 -69.164,9.242 -84.22,11.253c-2.922,0.391 -5.636,-1.581 -6.167,-4.481c0,0 0,-0.001 0,-0.001Z" style="fill:#873a16;"/><path d="M55.257,127.488c-1.073,-5.851 2.387,-11.584 8.064,-13.363c29.343,-9.194 116.571,-36.524 165.421,-51.83c19.956,-6.252 32.935,-25.473 31.279,-46.32c0,0 0,-0.001 0,-0.001c-1.669,-21.005 10.794,-40.569 30.535,-47.935c33.76,-12.596 85.404,-31.865 117.306,-43.768c7.302,-2.724 15.414,-2.245 22.344,1.319c6.931,3.565 12.038,9.884 14.069,17.408c0,0.001 0,0.001 0,0.001c12.157,45.036 -10.145,92.241 -52.653,111.45c-38.25,17.285 -81.712,36.925 -104.89,47.399c-11.039,4.989 -22.747,8.338 -34.754,9.942c-43.065,5.754 -150.524,20.112 -184.415,24.64c-5.83,0.779 -11.245,-3.155 -12.306,-8.94c0,-0.001 0,-0.001 0,-0.002Z" style="fill:#5d280f;"/><path d="M-142.826,184.176c0.048,-8.787 6.218,-16.35 14.816,-18.161c39.994,-8.423 152.725,-32.166 229.433,-48.322c45.285,-9.538 79.301,-47.115 84.297,-93.123c0,0 0,0 0,0c1.714,-15.79 12.982,-28.891 28.338,-32.949c41.501,-10.967 124.99,-33.028 184.309,-48.703c16.552,-4.374 34.191,-1.179 48.157,8.723c13.967,9.902 22.82,25.489 24.171,42.556c0,0.001 0,0.002 0.001,0.002c4.18,52.804 -28.18,101.654 -78.433,118.399c-70.835,23.604 -165.77,55.238 -203.626,67.852c-11.008,3.669 -22.476,5.779 -34.07,6.269c-55.927,2.366 -229.921,9.725 -282.363,11.944c-3.941,0.166 -7.777,-1.288 -10.617,-4.025c-2.839,-2.736 -4.434,-6.517 -4.413,-10.46c0,-0.001 0,-0.002 0,-0.002Z" style="fill:#381809;fill-opacity:0.345098;"/><path d="M96.582,96.469c-3.122,1.514 -6.78,1.44 -9.838,-0.198c-10.274,-5.507 -34.591,-18.54 -51.205,-27.444c-10.694,-5.732 -23.397,-6.358 -34.603,-1.707c-0.001,0 -0.001,0 -0.001,0c-11.318,4.697 -24.085,4.441 -35.205,-0.708c-7.532,-3.487 -16.497,-7.638 -24.767,-11.466c-4.894,-2.266 -8.096,-7.095 -8.279,-12.486c-0.183,-5.39 2.685,-10.425 7.415,-13.017c0.002,0 0.003,-0.001 0.004,-0.002c15.81,-8.664 34.63,-9.941 51.465,-3.491c11.416,4.374 24.545,9.404 35.154,13.468c13.384,5.128 25.782,12.53 36.645,21.88c11.803,10.159 26.847,23.106 33.987,29.252c0.912,0.784 1.367,1.975 1.212,3.167c-0.156,1.192 -0.901,2.226 -1.982,2.751c-0.001,0 -0.002,0.001 -0.002,0.001Z" style="fill:#381809;fill-opacity:0.345098;"/><path d="M1067.29,-138.988c1.382,9.44 -4.402,18.455 -13.559,21.133c-40.332,11.798 -148.267,43.371 -221.043,64.659c-41.786,12.223 -69.84,51.38 -67.976,94.877c0,0.001 0,0.001 0,0.002c0.752,17.535 -10.058,33.498 -26.619,39.309c-41.861,14.688 -121.912,42.776 -177.144,62.155c-15.053,5.281 -31.642,3.909 -45.623,-3.775c-13.98,-7.683 -24.03,-20.952 -27.64,-36.491c0,-0.001 0,-0.001 -0.001,-0.002c-12.91,-55.575 15.909,-112.405 68.374,-134.827c64.952,-27.76 146.806,-62.743 181.392,-77.525c11.032,-4.715 22.688,-7.809 34.605,-9.187c56.489,-6.529 229.673,-26.548 279.628,-32.322c7.588,-0.877 14.5,4.434 15.606,11.992c0,0.001 0,0.002 0,0.002Z" style="fill:#381809;fill-opacity:0.345098;"/><path d="M125.101,106.699c-0.778,-4.243 1.73,-8.4 5.846,-9.689c21.23,-6.652 84.236,-26.393 119.491,-37.439c14.383,-4.506 23.738,-18.36 22.544,-33.385c0,-0.001 0,-0.001 0,-0.002c-1.208,-15.2 7.811,-29.358 22.097,-34.688c19.002,-7.09 45.826,-17.098 67.638,-25.236c9.639,-3.597 20.348,-2.965 29.497,1.741c9.149,4.705 15.891,13.048 18.572,22.98c0.001,0.001 0.001,0.002 0.001,0.003c6.048,22.406 -5.047,45.891 -26.196,55.448c-28.345,12.809 -66.246,29.937 -87.698,39.631c-11.039,4.988 -22.747,8.337 -34.754,9.942c-33.754,4.51 -104.974,14.025 -128.188,17.127c-4.193,0.56 -8.087,-2.269 -8.85,-6.43c0,-0.001 0,-0.002 0,-0.003Z" style="fill:#6d2f12;"/><path d="M287.776,77.915c-6.647,1.802 -13.585,-1.691 -16.095,-8.104c-2.511,-6.414 0.213,-13.689 6.317,-16.877c0.004,-0.002 0.007,-0.003 0.01,-0.005c8.132,-4.247 12.299,-13.51 10.082,-22.413c-0.218,-0.876 -0.438,-1.761 -0.658,-2.645c-2.565,-10.301 2.544,-20.972 12.176,-25.433c11.774,-5.453 27.822,-12.885 41.347,-19.148c6.973,-3.229 14.949,-3.527 22.144,-0.828c7.195,2.7 13.006,8.171 16.134,15.191c0,0 0.001,0.001 0.001,0.001c6.687,15.007 0.797,32.636 -13.568,40.609c-21.87,12.138 -51.475,28.57 -61.661,34.224c-2.402,1.333 -4.956,2.37 -7.608,3.09c-2.141,0.58 -5.072,1.375 -8.621,2.338Z" style="fill:#873a16;"/><path d="M312.435,48.88c-3.698,1.003 -7.558,-0.94 -8.954,-4.508c-1.397,-3.569 0.118,-7.616 3.514,-9.39c0.001,0 0.002,-0.001 0.003,-0.001c4.535,-2.369 6.859,-7.534 5.623,-12.498c-0.118,-0.472 -0.236,-0.948 -0.355,-1.424c-1.432,-5.75 1.42,-11.706 6.796,-14.196c6.555,-3.035 15.479,-7.168 22.998,-10.65c3.875,-1.795 8.309,-1.961 12.307,-0.46c3.999,1.5 7.229,4.541 8.967,8.442c0,0.001 0.001,0.001 0.001,0.002c3.725,8.36 0.444,18.182 -7.559,22.624c-11.008,6.11 -25.531,14.17 -32.394,17.979c-2.599,1.443 -5.364,2.566 -8.233,3.344c-0.809,0.219 -1.718,0.466 -2.714,0.736Z" style="fill:#903e18;"/><path d="M107.517,152.116c-13.67,-2.103 -24.57,-12.523 -27.287,-26.085c-1.532,-7.649 -3.351,-16.728 -5.289,-26.405c-11.159,-55.701 -54.855,-99.146 -110.62,-109.984c0,0 0,0 -0.001,0c-12.631,-2.455 -22.945,-11.553 -26.957,-23.779c-1.15,-3.504 -2.412,-7.352 -3.753,-11.438c-6.651,-20.264 -2.483,-42.522 11.048,-59.007c13.531,-16.486 34.549,-24.912 55.721,-22.34c4.386,0.533 8.744,1.062 13.03,1.583c41.8,5.079 78.162,31.035 96.545,68.918c6.632,13.666 13.505,27.831 19.598,40.386c12.516,25.793 15.739,55.118 9.124,83.015c-6.425,27.096 -14.21,59.923 -18.105,76.347c-1.395,5.884 -7.076,9.709 -13.053,8.79c0,0 0,0 -0.001,-0.001Z" style="fill:#5d280f;"/><path d="M93.677,104.528c-7.253,-1.116 -13.036,-6.644 -14.478,-13.84c-1.627,-8.12 -3.91,-19.517 -6.306,-31.476c-7.079,-35.341 -34.803,-62.905 -70.183,-69.782c-0.38,-0.073 -0.758,-0.147 -1.132,-0.22c-13.418,-2.607 -24.374,-12.271 -28.636,-25.258c0,-0.001 0,-0.002 -0.001,-0.003c-4.911,-14.966 -1.833,-31.405 8.161,-43.581c9.993,-12.176 25.517,-18.399 41.154,-16.499c0.149,0.018 0.298,0.036 0.447,0.054c34.783,4.226 65.04,25.825 80.337,57.348c2.614,5.387 5.231,10.778 7.733,15.935c11.096,22.866 13.953,48.863 8.089,73.594c-3.723,15.7 -7.765,32.743 -10.377,43.758c-1.583,6.675 -8.026,11.014 -14.806,9.971c-0.001,0 -0.001,-0.001 -0.002,-0.001Z" style="fill:#6d2f12;"/><path d="M93.021,75.891c-5.059,-0.778 -9.092,-4.634 -10.097,-9.652c-1.699,-8.48 -4.425,-22.086 -6.907,-34.478c-3.443,-17.187 -16.926,-30.592 -34.133,-33.936c-2.157,-0.42 -4.315,-0.839 -6.423,-1.249c-13.597,-2.642 -24.699,-12.436 -29.018,-25.596c-0.652,-1.985 -1.323,-4.031 -2.002,-6.1c-2.528,-7.704 -0.944,-16.165 4.2,-22.432c5.144,-6.267 13.134,-9.471 21.183,-8.493c0.001,0 0.002,0.001 0.004,0.001c32.791,3.984 61.316,24.346 75.737,54.064c1.563,3.221 3.054,6.293 4.412,9.092c4.541,9.357 5.71,19.995 3.31,30.116c-3.103,13.083 -7.407,31.234 -9.882,41.672c-1.11,4.68 -5.628,7.723 -10.382,6.992c-0.001,-0.001 -0.002,-0.001 -0.002,-0.001Z" style="fill:#873a16;"/><path d="M452.846,182.206c-16.057,-13.035 -22.495,-34.571 -16.227,-54.28c6.268,-19.708 23.963,-33.57 44.599,-34.936c62.778,-4.157 135.576,-8.977 186.085,-12.321c39.96,-2.645 77.223,-21.088 103.563,-51.254c0,0 0,0 0,-0.001c14.006,-16.04 34.166,-25.376 55.459,-25.68c24.342,-0.348 58.855,-0.842 92.804,-1.327c22.812,-0.326 43.952,11.927 55.008,31.883c11.056,19.956 10.233,44.376 -2.14,63.543c-0.001,0.001 -0.001,0.002 -0.002,0.002c-7.872,12.195 -21.038,19.959 -35.52,20.946c-52.425,3.575 -180.236,12.291 -232.54,15.858c-15.129,1.031 -29.942,4.82 -43.708,11.18c-36.101,16.677 -109.658,50.659 -143.273,66.188c-10.689,4.938 -23.257,3.364 -32.399,-4.058c-8.305,-6.742 -19.432,-15.775 -31.709,-25.743Z" style="fill:#5d280f;"/><path d="M540.229,82.851c3.656,-4.905 9.478,-7.715 15.592,-7.526c23.996,0.74 87.274,2.691 133.307,4.11c33.158,1.023 65.029,-12.871 86.849,-37.861c0,0 0,0 0,0c7.089,-8.12 17.294,-12.845 28.072,-12.999c19.284,-0.276 52.107,-0.745 82.83,-1.185c14.781,-0.211 28.479,7.729 35.643,20.659c7.164,12.931 6.631,28.755 -1.387,41.174c0,0.001 0,0.001 -0.001,0.001c-8.614,13.344 -23.02,21.839 -38.866,22.92c-41.868,2.855 -124.656,8.5 -159.668,10.888c-10.782,0.735 -21.615,0.062 -32.224,-2.002c-35.127,-6.835 -118.176,-22.995 -146.401,-28.487c-2.071,-0.403 -3.79,-1.842 -4.551,-3.81c-0.761,-1.968 -0.457,-4.189 0.804,-5.88c0,-0.001 0.001,-0.002 0.001,-0.002Z" style="fill:#6d2f12;"/><path d="M627.141,88.049c2.569,-3.447 6.659,-5.421 10.956,-5.289c19.096,0.589 73.581,2.269 105.573,3.255c15.351,0.474 30.107,-5.959 40.208,-17.528c0,0 0.001,0 0.001,-0.001c10.143,-11.616 24.743,-18.377 40.163,-18.598c17.994,-0.257 42.803,-0.612 62.943,-0.9c6.901,-0.098 13.296,3.608 16.641,9.646c3.344,6.037 3.095,13.424 -0.648,19.223c0,0 -0.001,0.001 -0.002,0.002c-11.964,18.533 -31.973,30.332 -53.98,31.833c-28.579,1.948 -67.684,4.615 -89.415,6.097c-10.782,0.735 -21.615,0.062 -32.224,-2.002c-26.656,-5.187 -79.093,-15.39 -97.61,-18.993c-1.441,-0.28 -2.637,-1.282 -3.167,-2.651c-0.53,-1.37 -0.318,-2.915 0.559,-4.092c0.001,-0.001 0.001,-0.002 0.002,-0.002Z" style="fill:#873a16;"/><path d="M777.635,110.882c-4.48,0.152 -8.336,-3.137 -8.892,-7.584c-0.556,-4.448 2.371,-8.585 6.75,-9.54c1.263,-0.276 2.472,-0.54 3.621,-0.79c8.124,-1.773 14.782,-7.567 17.66,-15.368c0,-0.001 0,-0.001 0.001,-0.001c2.86,-7.755 9.616,-13.413 17.752,-14.869c11.214,-2.006 27.497,-4.918 40.221,-7.194c4.437,-0.794 8.982,0.629 12.175,3.811c3.193,3.182 4.631,7.722 3.852,12.162c0,0.002 -0.001,0.003 -0.001,0.004c-2.083,11.871 -11.02,21.37 -22.743,24.172c-19.743,4.718 -48.893,11.684 -58.921,14.081c-2.353,0.562 -4.757,0.887 -7.176,0.969c-1.183,0.04 -2.629,0.09 -4.299,0.147Z" style="fill:#903e18;"/><path d="M906.212,-133.7c1.62,5.47 -1.241,11.266 -6.567,13.307c-30.078,11.529 -124.655,47.78 -174.951,67.058c-18.688,7.163 -29.663,26.581 -26.162,46.286c0,0.001 0,0.001 0,0.002c3.541,19.927 -6.996,39.692 -25.513,47.861c-35.79,15.787 -93.493,41.24 -126.795,55.93c-6.798,2.998 -14.523,3.101 -21.398,0.285c-6.875,-2.817 -12.308,-8.31 -15.048,-15.215c-0.001,-0.001 -0.001,-0.001 -0.001,-0.002c-16.734,-42.17 1.192,-90.16 41.474,-111.034c41.297,-21.399 89.806,-46.535 113.742,-58.938c9.893,-5.126 20.43,-8.9 31.329,-11.221c43.712,-9.307 161.961,-34.483 197.054,-41.954c5.615,-1.196 11.205,2.129 12.835,7.633c0,0.001 0,0.002 0.001,0.002Z" style="fill:#5d280f;"/><path d="M819.919,-92.047c1.08,3.647 -0.827,7.513 -4.38,8.874c-20.001,7.667 -82.749,31.718 -116.052,44.483c-12.337,4.728 -19.582,17.547 -17.271,30.555c0,0 0,0 0,0c2.358,13.27 -4.659,26.433 -16.991,31.873c-18.791,8.288 -46.64,20.573 -68.369,30.158c-8.591,3.79 -18.355,3.92 -27.044,0.36c-8.689,-3.559 -15.556,-10.502 -19.019,-19.23c0,-0.001 -0.001,-0.001 -0.001,-0.002c-7.522,-18.957 0.536,-40.531 18.644,-49.914c27.141,-14.064 64.91,-33.634 85.537,-44.323c9.893,-5.126 20.43,-8.9 31.328,-11.221c32.395,-6.897 103.285,-21.99 125.156,-26.647c3.702,-0.788 7.387,1.404 8.462,5.033c0,0 0,0 0,0.001Z" style="fill:#6d2f12;"/><path d="M757.582,-72.939c0.755,2.549 -0.578,5.249 -3.06,6.201c-13.962,5.351 -57.738,22.131 -81.057,31.069c-8.689,3.33 -13.792,12.358 -12.164,21.519c0,0.001 0,0.001 0,0.002c1.637,9.214 -3.235,18.354 -11.797,22.131c-13.154,5.802 -32.716,14.431 -47.958,21.154c-5.997,2.646 -12.813,2.736 -18.879,0.251c-6.066,-2.484 -10.859,-7.331 -13.277,-13.424c0,-0.001 -0.001,-0.001 -0.001,-0.002c-5.27,-13.28 0.375,-28.393 13.061,-34.967c17.149,-8.886 40.349,-20.907 55.297,-28.653c9.894,-5.127 20.431,-8.901 31.329,-11.221c24.252,-5.164 68.318,-14.546 82.584,-17.583c2.591,-0.552 5.17,0.982 5.922,3.522c0,0 0,0.001 0,0.001Z" style="fill:#873a16;"/></g><path d="M-23.349,39.246l62.969,27.715l143.37,0.202l-0.2,-16.952l-0.086,-7.196l-0.225,-19.01l22.51,43.217l30.01,0.034l-1.001,-19.858l14.883,19.901l147.016,0.238l-0.592,-49.945l20.634,50.03l258.173,1.027l12.554,-24.611l0.537,24.581l13.795,0.033l12.017,-13.598l0.447,13.536l201.075,-0.213l65.791,-29.026l0.058,51.18l-1002.38,6.539l-1.354,-57.824Z" style="fill:#381809;fill-opacity:0.615686;"/></g></g></svg>