<?xml version="1.0" encoding="utf-8"?>
<!-- Generator: Adobe Illustrator 23.0.1, SVG Export Plug-In . SVG Version: 6.00 Build 0)  -->
<svg version="1.1" id="Ebene_1" xmlns:serif="http://www.serif.com/"
	 xmlns="http://www.w3.org/2000/svg" xmlns:xlink="http://www.w3.org/1999/xlink" x="0px" y="0px" viewBox="0 0 595.3 123.7"
	 style="enable-background:new 0 0 595.3 123.7;" xml:space="preserve">
<style type="text/css">
	.st0{fill-rule:evenodd;clip-rule:evenodd;fill:#4F9B58;}
	.st1{clip-path:url(#SVGID_2_);}
	.st2{fill-rule:evenodd;clip-rule:evenodd;fill:#7CD486;}
	.st3{clip-path:url(#SVGID_4_);}
	.st4{fill-rule:evenodd;clip-rule:evenodd;fill:#6EEB8A;}
	.st5{fill-rule:evenodd;clip-rule:evenodd;fill:#2F5C34;}
	.st6{clip-path:url(#SVGID_6_);}
	.st7{clip-path:url(#SVGID_8_);}
	.st8{fill-rule:evenodd;clip-rule:evenodd;fill:#40724B;}
	.st9{clip-path:url(#SVGID_10_);}
	.st10{clip-path:url(#SVGID_12_);}
	.st11{fill-rule:evenodd;clip-rule:evenodd;fill:#345D3D;}
</style>
<g transform="matrix(1,0,0,1,-467,-678)">
	<g transform="matrix(0.544103,0,0,0.544103,275.886,430.243)">
		<g transform="matrix(-0.674498,0.0126445,-0.00214292,-0.12069,1200.39,571.982)">
			<path class="st0" d="M762.7-120.8c-5.3-60.9,140.2-300.7,144.8-359.8c7.5-98-230-400-302.2-370.7
				C578-840.1,535.5-725.1,495.7-604c-41.8,127-44.6,266.1-55.4,295.7C292.5,97.7,1.2-642.1-45-713.7
				C-65.2-745-335.5,43.2-305.1,64.3c53.5-83.9,229,241.2,272,279.5c29.4,26.3,63.9,53.4,100.8,68.5c22,9,46.1,11.5,69.6,14.1
				c116.4,12.6,220.5-38.9,321-92.4c58.2-31,115.8-79.9,182-91.3c54.3-9.4,114.7-7.1,168.7,3c47.6,9,94.1,25,143.2,24
				c37.7-0.8,75.5-12.2,110-26.8c195.4,174.8,117.1-61,161.1-113.4c23.1-61.9-71.3-643-100.3-584.9
				C1084.9-378.8,776.9,158.3,762.7-120.8"/>
			<g>
				<defs>
					<path id="SVGID_1_" d="M762.7-120.8c-5.3-60.9,140.2-300.7,144.8-359.8c7.5-98-230-400-302.2-370.7
						C578-840.1,535.5-725.1,495.7-604c-41.8,127-44.6,266.1-55.4,295.7C292.5,97.7,1.2-642.1-45-713.7
						c-20.2-31.3-217.5,534-260.1,778.1c70.5-127.8,229,241.2,272,279.5c29.4,26.3,63.9,53.4,100.8,68.5c22,9,46.1,11.5,69.6,14.1
						c116.4,12.6,220.5-38.9,321-92.4c58.2-31,115.8-79.9,182-91.3c54.3-9.4,114.7-7.1,168.7,3c47.6,9,94.1,25,143.2,24
						c37.7-0.8,75.5-12.2,110-26.8c106.9-27.7,120.7,121.5,161.1-113.4c23.1-61.9-71.3-643-100.3-584.9
						C1084.9-378.8,776.9,158.3,762.7-120.8"/>
				</defs>
				<clipPath id="SVGID_2_">
					<use xlink:href="#SVGID_1_"  style="overflow:visible;"/>
				</clipPath>
				<g class="st1">
					<g transform="matrix(-1,-4.33681e-18,7.04731e-19,1,1623.02,-280.156)">
						<path class="st2" d="M1362.5-310.4c-5.3-60.9,67.1-82.9,71.6-142c7.5-98-123.2-127.6-195.4-98.3
							c-56,22.7-50.4,66.9-97.4,102.1c-25.6,19.2-51.8,36-85.1,35c-58.4-1.9-152.2-27.9-202.8-53c-62.8-31.2-139-52.6-208.8-34
							c-36,9.6-69.4,30.3-100.5,50.1c-29,18.4,20.1,26.4-5.8,49.1c-55.7,48.6-113.5,141.6-102.9,219.6c3.9,28.7,41.8-77.7,54.5-52
							c20,40.3,15.8,212.2,42.4,248.6c33.9,46.4-8.5,101,34.4,139.3c29.4,26.3,63.9,53.4,100.8,68.5c22,9,46.1,11.5,69.6,14.1
							c116.4,12.6,220.5-38.9,321-92.4c58.2-31,115.8-79.9,182-91.3c54.3-9.4,114.7-7.1,168.7,3c47.6,9,94.1,25,143.2,24
							c37.7-0.8,82.3,165.7,116.7,151c67.6-28.8,80.5-250.3,106.7-320.4c23.1-61.9,10-131.3-26.4-185.1
							c-17.9-26.5-49-42.5-77.7-54.4c-36.9-15.3-31.6-48.5-71.8-39.9c-21.6,4.6-41,15.7-59.6,27.3c-37.4,23.4-75.8,53.8-122.3,52.9
							C1401.9-288.8,1374.5-298.8,1362.5-310.4"/>
						<g>
							<defs>
								<path id="SVGID_3_" d="M1362.5-310.4c-5.3-60.9,67.1-82.9,71.6-142c7.5-98-123.2-127.6-195.4-98.3
									c-56,22.7-50.4,66.9-97.4,102.1c-25.6,19.2-51.8,36-85.1,35c-58.4-1.9-152.2-27.9-202.8-53c-62.8-31.2-139-52.6-208.8-34
									c-36,9.6-69.4,30.3-100.5,50.1c-29,18.4,20.1,26.4-5.8,49.1c-55.7,48.6-113.5,141.6-102.9,219.6c3.9,28.7,41.8-77.7,54.5-52
									c20,40.3,15.8,212.2,42.4,248.6c33.9,46.4-8.5,101,34.4,139.3c29.4,26.3,63.9,53.4,100.8,68.5c22,9,46.1,11.5,69.6,14.1
									c116.4,12.6,220.5-38.9,321-92.4c58.2-31,115.8-79.9,182-91.3c54.3-9.4,114.7-7.1,168.7,3c47.6,9,94.1,25,143.2,24
									c37.7-0.8,82.3,165.7,116.7,151c67.6-28.8,80.5-250.3,106.7-320.4c23.1-61.9,10-131.3-26.4-185.1
									c-17.9-26.5-49-42.5-77.7-54.4c-36.9-15.3-31.6-48.5-71.8-39.9c-21.6,4.6-41,15.7-59.6,27.3
									c-37.4,23.4-75.8,53.8-122.3,52.9C1401.9-288.8,1374.5-298.8,1362.5-310.4"/>
							</defs>
							<clipPath id="SVGID_4_">
								<use xlink:href="#SVGID_3_"  style="overflow:visible;"/>
							</clipPath>
							<g class="st3">
								<g transform="matrix(-0.755486,-0.678462,0.19506,-2.62774,1479.08,2614.65)">
									<path class="st4" d="M183.7,697.5c-0.3-3.7-0.6-7.5-1.9-11c-7.8-21.3-34.5-13.9-51.9-16.8c-13.1-2.2-26.7-9.7-18.1-24.6
										c7.9-13.6,24.3-19,39.1-20.8c32.4-4,67.5,3.3,99.6,7.4c37.2,4.7,73.6,14.5,111,18.4c34.5,3.6,70.2,4.9,104.8,1.3
										c32.9-3.5,66.2-11.4,99.4-10.4c26.1,0.7,53,7.4,77.7,15.1c26.9,8.5,76.8,20.9,75.8,58.1c-0.4,16.1-16.5,27.1-30.6,31.2
										c-18.8,5.4-36.6-0.2-55.4-1.7c-12.9-1-25.6,1.4-38,4.8c-27.4,7.5-62.5,26.7-90.9,13.5c-15.7-7.3-22.6-21.5-33.3-34
										c-10.3-12-25.5-21.7-41.4-24c-16.3-2.4-30.8,4-41.8,15.8c-10.1,10.9-14.1,21.7-29.9,25.5c-31.4,7.6-62-14.1-94.2-9.3
										c-24.7,3.7-49.4,10.5-71.5,22C151,779.4,112.1,811.7,66,821.9c-21,4.6-42.2,2.7-62.9-2.4c-27-6.6-54.9-16.6-82.4-7.2
										c-31.1,10.6-51.6,41.5-83,52.7c-10.2,3.6-30.7,7.5-37-5.1c-6.4-12.6,4.8-30.9,9.3-42.5c9.9-25.4,18.7-68-2.6-90.4
										c-19.4-20.5-44.3-8.2-64.5,4.3c-6.8,4.2-23.2,17.6-27.7,6.9c-3.5-8.3-2.4-18-0.2-26.5c9.8-38.1,51.7-49.6,86.5-41.5
										c33.5,7.8,57.2,33.1,84.7,51.8c36.6,24.8,86.4,43.2,131.4,39.7c20.8-1.6,35.8-13,48.1-29.1c8.7-11.4,18-29.6,34.1-31.5
										c7.2-0.8,14.3,0.6,21,3.4c4.5,1.9,8.8,4.4,13,6.9c15.5,9.6,39.1,29.2,48.8-0.1C183.9,707.2,183.7,697.5,183.7,697.5z"/>
								</g>
							</g>
						</g>
					</g>
					<g transform="matrix(-1.68307,0.0100791,-0.00250193,-6.78025,1449.69,4249.68)">
						<path class="st5" d="M121.5,584.4c53.2,16.9,24,61.3,76.1,86.7c11.6,5.6,24.3,5.8,36,0.5c58.6-26,80.7-42.3,158.7-47.6
							c4-0.3,8,0,11.9,0.7c0,0,0,0,0,0c6,1.2,10.7,7.6,11.6,15.9c0.9,8.3-2.2,16.4-7.7,20c-0.9,0.6-1.7,1.1-2.6,1.7
							c-7.3,4.7-11.7,15.2-11,26.3c0.7,11.1,6.2,20.5,14,23.5c10.4,4.1,21.1,8.2,30.5,11.9c19,7.4,63.6,6.6,81.7-4.4
							c27-16.4,44-42.7,74.6-61.3c27.4-16.7,57.6-23,87.3-18.2c84.6,13.5,114,27.5,152.1,47.6c28.2,15,59.8,11.7,86.1-8.8
							c12.3-9.5,21,6.7,31.8-1.7c17.4-13.5,77.8-29.9,96.5-39.5c22.5-11.7-5.7-54-5.7-54L880,838.7l-473.4,6.9L104,720.7
							L121.5,584.4"/>
					</g>
				</g>
			</g>
		</g>
		<g transform="matrix(-0.586513,0.0109951,-0.00250405,-0.141029,1032.97,556.149)">
			<path class="st0" d="M828.1,103.3c-5.3-60.9,67.1-82.9,71.6-142c7.5-98-286.5-23.7-333.6,11.5c-25.6,19.2-51.8,36-85.1,35
				c-58.4-1.9-301-113.3-370.8-94.6c-36,9.6-69.4,30.3-100.5,50.1c-29,18.4-59.1,36.5-85.1,59.2C-131,71.1-188.9,164.1-178.2,242.1
				c3.9,28.7,54.8,141.1,82,153.7c181,84.1,491.5,327.8,802,71c42.4-35.1,114.7-7.1,168.7,3c47.6,9,111.7-39.7,160.7-40.8
				c37.7-0.8,44.7,153.7,79.1,139c51.8-22.1-134.3-514.8-102.9-534.4c-37.4,23.4-81.6,92.4-128,91.4
				C867.5,124.9,840.1,115,828.1,103.3"/>
			<g>
				<defs>
					<path id="SVGID_5_" d="M828.1,103.3c-5.3-60.9,67.1-82.9,71.6-142c7.5-98-286.5-23.7-333.6,11.5c-25.6,19.2-51.8,36-85.1,35
						c-58.4-1.9-301-113.3-370.8-94.6c-36,9.6-69.4,30.3-100.5,50.1c-29,18.4-59.1,36.5-85.1,59.2
						C-131,71.1-188.9,164.1-178.2,242.1c3.9,28.7,54.8,141.1,82,153.7c181,84.1,491.5,327.8,802,71c42.4-35.1,114.7-7.1,168.7,3
						c47.6,9,111.7-39.7,160.7-40.8c37.7-0.8,44.7,153.7,79.1,139c51.8-22.1-122.5-540.9-91.1-560.5
						C985.7,31,929.8,126.1,883.4,125.2C867.5,124.9,840.1,115,828.1,103.3"/>
				</defs>
				<clipPath id="SVGID_6_">
					<use xlink:href="#SVGID_5_"  style="overflow:visible;"/>
				</clipPath>
				<g class="st6">
					<g transform="matrix(-1,-4.33681e-18,7.04731e-19,1,1623.07,-181.304)">
						<path class="st2" d="M1297-19.4c-5.3-60.9,67.1-82.9,71.6-142c7.5-98-123.2-127.6-195.4-98.3c-56,22.7-91.2,74.5-138.2,109.8
							c-25.6,19.2-51.8,36-85.1,35c-58.4-1.9-111.4-35.5-162-60.6c-62.8-31.2-110.5-166.4-180.4-147.8c-36,9.6-69.4,30.3-100.5,50.1
							c-29,18.4-87.5,150.3-113.5,173C337.9-51.6,280,41.4,290.7,119.4c3.9,28.7,17,55.3,29.8,80.9c20,40.3,40.5,79.3,67.2,115.7
							c61.2,83.6,88.5,196,127,230.3c29.4,26.3,33-112.5,70-97.4c22,9,46.1,11.5,69.6,14.1c116.4,12.6,238.1,25.9,338.6-27.7
							c58.2-31,115.8-79.9,182-91.3c54.3-9.4,114.7-7.1,168.7,3c47.6,9,94.1,25,143.2,24c37.7-0.8,75.5-12.2,110-26.8
							c67.6-28.8,139-91.5,165.1-161.6c23.1-61.9,10-131.3-26.4-185.1c-17.9-26.5-49-42.5-77.7-54.4
							c-36.9-15.3-83.2-29.4-123.5-20.8c-21.6,4.6-41,15.7-59.6,27.3c-37.4,23.4-75.8,53.8-122.3,52.9
							C1336.4,2.2,1309-7.8,1297-19.4"/>
						<g>
							<defs>
								<path id="SVGID_7_" d="M1297-19.4c-5.3-60.9,67.1-82.9,71.6-142c7.5-98-123.2-127.6-195.4-98.3
									c-56,22.7-91.2,74.5-138.2,109.8c-25.6,19.2-51.8,36-85.1,35c-58.4-1.9-111.4-35.5-162-60.6
									c-62.8-31.2-110.5-166.4-180.4-147.8c-36,9.6-69.4,30.3-100.5,50.1c-29,18.4-87.5,150.3-113.5,173
									C337.9-51.6,280,41.4,290.7,119.4c3.9,28.7,17,55.3,29.8,80.9c20,40.3,40.5,79.3,67.2,115.7c61.2,83.6,88.5,196,127,230.3
									c29.4,26.3,33-112.5,70-97.4c22,9,46.1,11.5,69.6,14.1c116.4,12.6,238.1,25.9,338.6-27.7c58.2-31,115.8-79.9,182-91.3
									c54.3-9.4,114.7-7.1,168.7,3c47.6,9,94.1,25,143.2,24c37.7-0.8,75.5-12.2,110-26.8c67.6-28.8,139-91.5,165.1-161.6
									c23.1-61.9,10-131.3-26.4-185.1c-17.9-26.5-49-42.5-77.7-54.4c-36.9-15.3-83.2-29.4-123.5-20.8c-21.6,4.6-41,15.7-59.6,27.3
									c-37.4,23.4-75.8,53.8-122.3,52.9C1336.4,2.2,1309-7.8,1297-19.4"/>
							</defs>
							<clipPath id="SVGID_8_">
								<use xlink:href="#SVGID_7_"  style="overflow:visible;"/>
							</clipPath>
							<g class="st7">
								<g transform="matrix(-0.755486,-0.678462,0.19506,-2.62774,1479.08,2614.65)">
									<path class="st4" d="M238.1,572.7c-0.3-3.7-0.6-7.5-1.9-11c-7.8-21.3-34.5-13.9-51.9-16.8c-13.1-2.2-26.7-9.7-18.1-24.6
										c7.9-13.6,24.3-19,39.1-20.8c32.4-4,67.5,3.3,99.6,7.4c37.2,4.7,73.6,14.5,111,18.4c34.5,3.6,70.2,4.9,104.8,1.3
										c32.9-3.5,66.2-11.4,99.4-10.4c26.1,0.7,53,7.4,77.7,15.1c26.9,8.5,76.8,20.9,75.8,58.1c-0.4,16.1-16.5,27.1-30.6,31.2
										c-18.8,5.4-36.6-0.2-55.4-1.7c-12.9-1-25.6,1.4-38,4.8c-27.4,7.5-62.5,26.7-90.9,13.5c-15.7-7.3-22.6-21.5-33.3-34
										c-10.3-12-25.5-21.7-41.4-24c-16.3-2.4-30.8,4-41.8,15.8c-10.1,10.9-14.1,21.7-29.9,25.5c-31.4,7.6-62-14.1-94.2-9.3
										c-24.7,3.7-49.4,10.5-71.5,22c-41.2,21.4-80.1,53.7-126.2,63.8c-21,4.6-42.2,2.7-62.9-2.4c-27-6.6-54.9-16.6-82.4-7.2
										c-31.1,10.6-51.6,41.5-83,52.7c-10.2,3.6-30.7,7.5-37-5.1c-6.4-12.6,4.8-30.9,9.3-42.5c9.9-25.4,18.7-68-2.6-90.4
										c-19.4-20.5-44.3-8.2-64.5,4.3c-6.8,4.2-23.2,17.6-27.7,6.9c-3.5-8.3-2.4-18-0.2-26.5c9.8-38.1,51.7-49.6,86.5-41.5
										c33.5,7.8,57.2,33.1,84.7,51.8c36.6,24.8,86.4,43.2,131.4,39.7c20.8-1.6,35.8-13,48.1-29.1c8.7-11.4,18-29.6,34.1-31.5
										c7.2-0.8,14.3,0.6,21,3.4c4.5,1.9,8.8,4.4,13,6.9c15.5,9.6,39.1,29.2,48.8-0.1C238.3,582.4,238.1,572.7,238.1,572.7z"/>
								</g>
							</g>
						</g>
					</g>
					<g transform="matrix(0.671328,-0.00694219,-0.0014446,-1.69006,104.834,1981.87)">
						<path class="st8" d="M-547.7,662.6c179.9-54.5,356.1-93.1,547.5-79.6c221.7,15.6,420.8,1.3,643.1,3.6
							c80.3,0.9,423.5-105.5,423.2,71c-0.3,157.6-175.8,176.5-310.7,204.9c-164.9,34.8-254.7,73.2-404,72
							c-278-2.1-508,62.9-781.1-32c-88.6-30.8-169.2-68.8-224.9-148.9C-690.8,701.8-547.7,662.6-547.7,662.6z"/>
					</g>
					<g transform="matrix(-3.29747,0.0146947,-0.00490179,-9.88523,2912.28,2805.05)">
						<path class="st5" d="M537.7,219.7c9.7,18,29.5,44.9,42,55.2c7.2,0.7,40.7-10.2,52-8.5c2.5,0.4,19.4,1.3-0.9,18.2
							c-7.5,6.3,63.1-1,72.6-2.7c3.9-0.7,18.8-4.1,34.9-3.5c32.4,1.2,102.9,8.3,107,8.6c44.3,3.2,84.2-25.3,96.9-29.2
							c8.2-2.5,3.7,20.9,2.4,27.6c-5.9,29.7-303.5,19.4-321,16.8c-13.3-2-66-16.5-71.7-23.7C538.4,261.7,537.7,219.7,537.7,219.7z"
							/>
					</g>
				</g>
			</g>
		</g>
		<g id="vvv" transform="matrix(0.501907,-0.0104851,-0.00264069,-0.120681,355.31,562.006)">
			<path class="st0" d="M1613.2,24c-5.3-60.9,67.1-82.9,71.6-142c7.5-98-128.3-391.2-200.5-361.9c-56,22.7-184.9,409.5-218.1,408.4
				c-58.4-1.9-114.5-119-162-60.6c-83,102-422.4,830.9-411,879.3c44.2,187.6,799.2-363.7,800.2-364.3c32.1-17.6,114-2.2,166.1,7.6
				c47.6,9,94.1,25,143.2,24c37.7-0.8,286.3,13.7,341.8,60.9c-1,2.7-112.9-456.6-175.8-482.7c-36.8-15.3-253.8,144.9-300.2,144
				C1652.7,136.5,1615.6,66.1,1613.2,24"/>
			<g>
				<defs>
					<path id="SVGID_9_" d="M1613.2,24c-5.3-60.9,67.1-82.9,71.6-142c7.5-98-128.3-391.2-200.5-361.9
						c-56,22.7-184.9,409.5-218.1,408.4c-58.4-1.9-114.5-119-162-60.6c-83,102-422.4,830.9-411,879.3
						c44.2,187.6,799.2-363.7,800.2-364.3c32.1-17.6,114-2.2,166.1,7.6c47.6,9,94.1,25,143.2,24c37.7-0.8,314.8-31.4,341.8,60.9
						c-1,2.7-112.9-456.6-175.8-482.7c-36.8-15.3-253.8,144.9-300.2,144C1652.7,136.5,1615.6,66.1,1613.2,24"/>
				</defs>
				<clipPath id="SVGID_10_">
					<use xlink:href="#SVGID_9_"  style="overflow:visible;"/>
				</clipPath>
				<g class="st9">
					<g transform="matrix(-1,-4.33681e-18,7.04731e-19,1,1623.02,-280.156)">
						<path class="st2" d="M512-165.6c-5.3-60.9,67.1-82.9,71.6-142c7.5-98-123.2-127.6-195.4-98.3c-56,22.7-91.2,74.5-138.2,109.8
							c-25.6,19.2-51.8,36-85.1,35c-58.4-1.9-111.4-35.5-162-60.6c-62.8-31.2-139-52.6-208.8-34c-36,9.6-69.4,30.3-100.5,50.1
							c-29,18.4-62.9,66.1-88.9,88.7C-451-168.3-508.9-75.3-498.3,2.7c3.9,28.7,17,55.3,29.8,80.9c20,40.3,40.5,79.3,67.2,115.7
							c33.9,46.4,74.5,61.4,117.5,99.7c29.4,26.3,63.9,53.4,100.8,68.5c22,9,46.1,11.5,69.6,14.1c116.4,12.6,220.5-38.9,321-92.4
							c58.2-31,115.8-79.9,182-91.3c54.3-9.4,114.7-7.1,168.7,3c47.6,9,94.1,25,143.2,24c37.7-0.8,75.5-12.2,110-26.8
							c67.6-28.8,139-91.5,165.1-161.6c23.1-61.9,10-131.3-26.4-185.1c-17.9-26.5-49-42.5-77.7-54.4
							c-36.9-15.3-83.2-29.4-123.5-20.8c-21.6,4.6-41,15.7-59.6,27.3c-37.4,23.4-75.8,53.8-122.3,52.9
							C551.3-144.1,524-154,512-165.6"/>
						<g>
							<defs>
								<path id="SVGID_11_" d="M512-165.6c-5.3-60.9,67.1-82.9,71.6-142c7.5-98-123.2-127.6-195.4-98.3
									c-56,22.7-91.2,74.5-138.2,109.8c-25.6,19.2-51.8,36-85.1,35c-58.4-1.9-111.4-35.5-162-60.6c-62.8-31.2-139-52.6-208.8-34
									c-36,9.6-69.4,30.3-100.5,50.1c-29,18.4-62.9,66.1-88.9,88.7C-451-168.3-508.9-75.3-498.3,2.7c3.9,28.7,17,55.3,29.8,80.9
									c20,40.3,40.5,79.3,67.2,115.7c33.9,46.4,74.5,61.4,117.5,99.7c29.4,26.3,63.9,53.4,100.8,68.5c22,9,46.1,11.5,69.6,14.1
									c116.4,12.6,220.5-38.9,321-92.4c58.2-31,115.8-79.9,182-91.3c54.3-9.4,114.7-7.1,168.7,3c47.6,9,94.1,25,143.2,24
									c37.7-0.8,75.5-12.2,110-26.8c67.6-28.8,139-91.5,165.1-161.6c23.1-61.9,10-131.3-26.4-185.1c-17.9-26.5-49-42.5-77.7-54.4
									c-36.9-15.3-83.2-29.4-123.5-20.8c-21.6,4.6-41,15.7-59.6,27.3c-37.4,23.4-75.8,53.8-122.3,52.9
									C551.3-144.1,524-154,512-165.6"/>
							</defs>
							<clipPath id="SVGID_12_">
								<use xlink:href="#SVGID_11_"  style="overflow:visible;"/>
							</clipPath>
							<g class="st10">
								<g transform="matrix(-0.755486,-0.678462,0.19506,-2.62774,1479.08,2614.65)">
									<path class="st4" d="M1225.8,373.3c-0.3-3.7-0.6-7.5-1.9-11c-7.8-21.3-34.5-13.9-51.9-16.8c-13.1-2.2-26.7-9.7-18.1-24.6
										c7.9-13.6,24.3-19,39.1-20.8c32.4-4,67.5,3.3,99.6,7.4c37.2,4.7,73.6,14.5,111,18.4c34.5,3.6,70.2,4.9,104.8,1.3
										c32.9-3.5,66.2-11.4,99.4-10.4c26.1,0.7,53,7.4,77.7,15.1c26.9,8.5,76.8,20.9,75.8,58.1c-0.4,16.1-16.5,27.1-30.6,31.2
										c-18.8,5.4-36.6-0.2-55.4-1.7c-12.9-1-25.6,1.4-38,4.8c-27.4,7.5-62.5,26.7-90.9,13.5c-15.7-7.3-22.6-21.5-33.3-34
										c-10.3-12-25.5-21.7-41.4-24c-16.3-2.4-30.8,4-41.8,15.8c-10.1,10.9-14.1,21.7-29.9,25.5c-31.4,7.6-62-14.1-94.2-9.3
										c-24.7,3.7-49.4,10.5-71.5,22c-41.2,21.4-80.1,53.7-126.2,63.8c-21,4.6-42.2,2.7-62.9-2.4c-27-6.6-54.9-16.6-82.4-7.2
										c-31.1,10.6-51.6,41.5-83,52.7c-10.2,3.6-30.7,7.5-37-5.1c-6.4-12.6,4.8-30.9,9.3-42.5c9.9-25.4,18.7-68-2.6-90.4
										c-19.4-20.5-44.3-8.2-64.5,4.3c-6.8,4.2-23.2,17.6-27.7,6.9c-3.5-8.3-2.4-18-0.2-26.5c9.8-38.1,51.7-49.6,86.5-41.5
										c33.5,7.8,57.2,33.1,84.7,51.8c36.6,24.8,86.4,43.2,131.4,39.7c20.8-1.6,35.8-13,48.1-29.1c8.7-11.4,18-29.6,34.1-31.5
										c7.2-0.8,14.3,0.6,21,3.4c4.5,1.9,8.8,4.4,13,6.9c15.5,9.6,39,29.2,48.8-0.1C1226,383.1,1225.8,373.3,1225.8,373.3z"/>
								</g>
							</g>
						</g>
					</g>
					<g transform="matrix(0.485897,-0.00502465,-0.0014446,-1.69006,339.529,1984.17)">
						<path class="st11" d="M1005.8,602.2c179.9-54.5,340,7.6,531.3,21.1c221.7,15.6,430.9,87.4,653.2,89.8
							c80.3,0.9,413.4-191.6,413.1-15.1c-0.3,157.6-165.7,262.6-300.5,291c-164.9,34.8-268-44.2-414.1-14.1
							C1604.3,1033.6,872.3,811.5,820,698.6C793.5,641.3,1005.8,602.2,1005.8,602.2z"/>
					</g>
					<g transform="matrix(2.26173,-0.0100791,-0.00336213,-6.78025,-356.745,5346.77)">
						<path class="st5" d="M445.5,669.7c0.1-2.2,0.7-4.2,1.8-5.8c2.1-3.2,5.4-3.8,8-2c68.5,48.2,132.1,107.3,197.6,126
							c6.9,1.9,13.9,2.4,20.9,1.4c7.3-1,17.4-2.5,26.7-3.8c15.6-2.2,31.4,1.4,45.6,10.6c15.6,10.1,36.5,23.5,51.7,33.3
							c12.8,8.3,27.5,9.1,40.8,2.4c8.8-4.4,18.9-9.5,27.3-13.8c2.5-1.2,4.5-3.9,5.2-7.4c1-5.2-0.8-10.5-4.1-12.8l0,0
							c-1.6-1-3-2.6-4-4.6c-3.5-7.4-1.6-16.3,3.1-20.3c4.9-4.1,10.1-8.5,14.5-12.2c6.7-5.7,14.6-8.1,22.5-6.8
							c25.1,4.2,83,13.9,112,18.8c11.3,1.9,11.8-29.2,22.9-33.2c81.6-29.9,88.2-60.8,75.8-57.6l-5.8,165.8l-370.4,29.6l-301.7-90.6
							C435.6,786.7,443.5,698.5,445.5,669.7z"/>
					</g>
				</g>
			</g>
		</g>
	</g>
</g>
</svg>
