<?xml version="1.0" encoding="UTF-8" standalone="no"?>
<!DOCTYPE svg PUBLIC "-//W3C//DTD SVG 1.1//EN" "http://www.w3.org/Graphics/SVG/1.1/DTD/svg11.dtd">
<svg width="100%" height="100%" viewBox="0 0 295 49" version="1.1" xmlns="http://www.w3.org/2000/svg" xmlns:xlink="http://www.w3.org/1999/xlink" xml:space="preserve" xmlns:serif="http://www.serif.com/" style="fill-rule:evenodd;clip-rule:evenodd;stroke-linejoin:round;stroke-miterlimit:1.41421;">
    <g transform="matrix(1,0,0,1,-211,-272)">
        <g transform="matrix(0.328067,-0.000487681,-0.00014021,-0.0943204,95.1195,350.378)">
            <path d="M961.25,478.325C958.092,442.005 1001.24,428.894 1003.94,393.642C1008.42,335.17 930.487,317.552 887.423,335.039C854.056,348.589 833.053,379.487 805.002,400.509C789.753,411.937 774.1,422.005 754.264,421.371C719.456,420.258 687.837,400.182 657.644,385.205C620.171,366.616 574.777,353.818 533.121,364.933C511.677,370.655 491.748,383.016 473.174,394.806C455.868,405.79 437.94,416.579 422.452,430.104C389.251,459.099 354.744,514.563 361.093,561.078C363.431,578.208 371.244,594.034 378.847,609.335C390.775,633.341 402.997,656.608 418.896,678.339C439.132,705.998 461.052,732.551 486.675,755.401C504.234,771.06 524.761,787.225 546.783,796.244C559.93,801.629 574.278,803.127 588.287,804.642C657.688,812.152 719.814,781.459 779.727,749.532C814.446,731.031 848.796,701.906 888.26,695.105C920.63,689.528 956.688,690.843 988.859,696.916C1017.23,702.271 1044.99,711.848 1074.25,711.216C1096.71,710.73 1119.28,703.965 1139.83,695.212C1180.15,678.036 1222.71,640.625 1238.29,598.828C1252.04,561.932 1244.23,520.539 1222.56,488.416C1211.89,472.606 1193.33,463.056 1176.25,455.974C1154.27,446.862 1126.62,438.429 1102.62,443.569C1089.72,446.332 1078.17,452.911 1067.09,459.838C1044.78,473.792 1021.88,491.903 994.182,491.36C984.727,491.174 968.41,485.252 961.25,478.325" style="fill:rgb(79,155,88);"/>
            <clipPath id="_clip1">
                <path d="M961.25,478.325C958.092,442.005 1001.24,428.894 1003.94,393.642C1008.42,335.17 930.487,317.552 887.423,335.039C854.056,348.589 833.053,379.487 805.002,400.509C789.753,411.937 774.1,422.005 754.264,421.371C719.456,420.258 687.837,400.182 657.644,385.205C620.171,366.616 574.777,353.818 533.121,364.933C511.677,370.655 491.748,383.016 473.174,394.806C455.868,405.79 437.94,416.579 422.452,430.104C389.251,459.099 354.744,514.563 361.093,561.078C363.431,578.208 371.244,594.034 378.847,609.335C390.775,633.341 402.997,656.608 418.896,678.339C439.132,705.998 461.052,732.551 486.675,755.401C504.234,771.06 524.761,787.225 546.783,796.244C559.93,801.629 574.278,803.127 588.287,804.642C657.688,812.152 719.814,781.459 779.727,749.532C814.446,731.031 848.796,701.906 888.26,695.105C920.63,689.528 956.688,690.843 988.859,696.916C1017.23,702.271 1044.99,711.848 1074.25,711.216C1096.71,710.73 1119.28,703.965 1139.83,695.212C1180.15,678.036 1222.71,640.625 1238.29,598.828C1252.04,561.932 1244.23,520.539 1222.56,488.416C1211.89,472.606 1193.33,463.056 1176.25,455.974C1154.27,446.862 1126.62,438.429 1102.62,443.569C1089.72,446.332 1078.17,452.911 1067.09,459.838C1044.78,473.792 1021.88,491.903 994.182,491.36C984.727,491.174 968.41,485.252 961.25,478.325"/>
            </clipPath>
            <g clip-path="url(#_clip1)">
                <g transform="matrix(1,0,0,3.47822,-2.48958,-1400.37)">
                    <path d="M307.034,619.33C414.349,586.832 519.421,563.801 633.514,571.851C765.711,581.179 890.499,623.965 1023.06,625.376C1070.95,625.886 1269.57,511.119 1269.4,616.371C1269.25,710.38 1170.58,772.973 1090.18,789.921C991.816,810.654 932.216,782.218 843.205,781.538C677.425,780.27 540.23,819.059 377.365,762.462C324.509,744.094 276.452,721.462 243.226,673.665C221.699,642.696 307.034,619.33 307.034,619.33Z" style="fill:rgb(52,93,61);"/>
                </g>
                <g transform="matrix(-1,0,0,1,1605.47,-217.131)">
                    <path d="M961.25,478.325C958.092,442.005 1001.24,428.894 1003.94,393.642C1008.42,335.17 930.487,317.552 887.423,335.039C854.056,348.589 833.053,379.487 805.002,400.509C789.753,411.937 774.1,422.005 754.264,421.371C719.456,420.258 687.837,400.182 657.644,385.205C620.171,366.616 574.777,353.818 533.121,364.933C511.677,370.655 491.748,383.016 473.174,394.806C455.868,405.79 437.94,416.579 422.452,430.104C389.251,459.099 354.744,514.563 361.093,561.078C363.431,578.208 371.244,594.034 378.847,609.335C390.775,633.341 402.997,656.608 418.896,678.339C439.132,705.998 461.052,732.551 486.675,755.401C504.234,771.06 524.761,787.225 546.783,796.244C559.93,801.629 574.278,803.127 588.287,804.642C657.688,812.152 719.814,781.459 779.727,749.532C814.446,731.031 848.796,701.906 888.26,695.105C920.63,689.528 956.688,690.843 988.859,696.916C1017.23,702.271 1044.99,711.848 1074.25,711.216C1096.71,710.73 1119.28,703.965 1139.83,695.212C1180.15,678.036 1222.71,640.625 1238.29,598.828C1252.04,561.932 1244.23,520.539 1222.56,488.416C1211.89,472.606 1193.33,463.056 1176.25,455.974C1154.27,446.862 1126.62,438.429 1102.62,443.569C1089.72,446.332 1078.17,452.911 1067.09,459.838C1044.78,473.792 1021.88,491.903 994.182,491.36C984.727,491.174 968.41,485.252 961.25,478.325" style="fill:rgb(124,212,134);"/>
                    <clipPath id="_clip2">
                        <path d="M961.25,478.325C958.092,442.005 1001.24,428.894 1003.94,393.642C1008.42,335.17 930.487,317.552 887.423,335.039C854.056,348.589 833.053,379.487 805.002,400.509C789.753,411.937 774.1,422.005 754.264,421.371C719.456,420.258 687.837,400.182 657.644,385.205C620.171,366.616 574.777,353.818 533.121,364.933C511.677,370.655 491.748,383.016 473.174,394.806C455.868,405.79 437.94,416.579 422.452,430.104C389.251,459.099 354.744,514.563 361.093,561.078C363.431,578.208 371.244,594.034 378.847,609.335C390.775,633.341 402.997,656.608 418.896,678.339C439.132,705.998 461.052,732.551 486.675,755.401C504.234,771.06 524.761,787.225 546.783,796.244C559.93,801.629 574.278,803.127 588.287,804.642C657.688,812.152 719.814,781.459 779.727,749.532C814.446,731.031 848.796,701.906 888.26,695.105C920.63,689.528 956.688,690.843 988.859,696.916C1017.23,702.271 1044.99,711.848 1074.25,711.216C1096.71,710.73 1119.28,703.965 1139.83,695.212C1180.15,678.036 1222.71,640.625 1238.29,598.828C1252.04,561.932 1244.23,520.539 1222.56,488.416C1211.89,472.606 1193.33,463.056 1176.25,455.974C1154.27,446.862 1126.62,438.429 1102.62,443.569C1089.72,446.332 1078.17,452.911 1067.09,459.838C1044.78,473.792 1021.88,491.903 994.182,491.36C984.727,491.174 968.41,485.252 961.25,478.325"/>
                    </clipPath>
                    <g clip-path="url(#_clip2)">
                        <g transform="matrix(-0.755486,-0.678462,0.19506,-2.62774,1479.08,2614.65)">
                            <path d="M701.972,412.156C701.793,409.971 701.608,407.668 700.853,405.595C696.229,392.899 680.263,397.303 669.924,395.602C662.115,394.318 653.974,389.793 659.127,380.91C663.841,372.784 673.644,369.573 682.453,368.477C701.802,366.068 722.732,370.431 741.876,372.87C764.081,375.699 785.792,381.522 808.044,383.857C828.621,386.015 849.9,386.808 870.536,384.622C890.152,382.545 909.987,377.852 929.807,378.416C945.345,378.858 961.418,382.806 976.138,387.431C992.194,392.476 1021.96,399.866 1021.36,422.052C1021.11,431.665 1011.51,438.222 1003.1,440.65C991.88,443.888 981.253,440.503 970.046,439.637C962.374,439.044 954.777,440.485 947.407,442.505C931.062,446.984 910.159,458.443 893.2,450.567C883.851,446.226 879.725,437.764 873.322,430.315C867.166,423.153 858.104,417.377 848.625,416.003C838.875,414.589 830.263,418.377 823.698,425.438C817.664,431.927 815.301,438.374 805.856,440.665C787.121,445.208 768.853,432.274 749.707,435.113C735,437.294 720.251,441.389 707.039,448.262C682.489,461.033 659.251,480.265 631.759,486.323C619.246,489.081 606.568,487.928 594.229,484.906C578.116,480.961 561.492,475.012 545.061,480.628C526.509,486.97 514.278,505.406 495.59,512.043C489.525,514.197 477.293,516.534 473.501,509.028C469.71,501.521 476.375,490.592 479.075,483.694C484.999,468.561 490.206,443.112 477.528,429.759C465.947,417.562 451.087,424.888 439.046,432.333C434.994,434.838 425.239,442.857 422.529,436.461C420.433,431.513 421.078,425.731 422.38,420.677C428.235,397.952 453.202,391.115 473.97,395.941C493.937,400.581 508.054,415.676 524.51,426.818C546.363,441.614 576.029,452.569 602.851,450.502C615.235,449.548 624.174,442.771 631.533,433.125C636.699,426.354 642.249,415.484 651.892,414.361C656.195,413.859 660.417,414.744 664.405,416.387C667.103,417.498 669.673,418.985 672.148,420.528C681.377,426.279 695.436,437.96 701.241,420.493C702.078,417.974 701.972,412.156 701.972,412.156Z" style="fill:rgb(110,235,138);"/>
                        </g>
                    </g>
                </g>
            </g>
            <path d="M612.412,821.671L614.009,821.643L615.604,821.602L617.197,821.549L618.786,821.484L620.374,821.407L621.959,821.318L623.541,821.217L625.122,821.104L626.699,820.98L628.275,820.844L629.848,820.697L631.418,820.538L632.987,820.368L634.553,820.188L636.117,819.996L637.678,819.793L639.237,819.58L640.794,819.356L642.348,819.121L643.901,818.876L645.451,818.62L646.999,818.355L648.545,818.079L650.088,817.793L651.629,817.497L653.169,817.191L654.706,816.876L656.241,816.551L657.774,816.217L659.304,815.873L660.833,815.52L662.359,815.158L663.884,814.787L665.406,814.407L666.927,814.018L668.445,813.62L669.962,813.214L671.476,812.799L672.989,812.376L674.499,811.944L676.008,811.504L677.514,811.057L679.019,810.601L680.522,810.137L682.023,809.666L683.522,809.187L685.02,808.699L688.007,807.705L690.989,806.68L693.963,805.628L696.93,804.548L699.891,803.442L702.844,802.31L705.791,801.154L708.731,799.974L711.665,798.771L714.592,797.547L717.513,796.3L720.428,795.034L723.337,793.748L726.24,792.444L729.137,791.121L732.028,789.782L734.914,788.427L737.794,787.056L740.669,785.671L743.539,784.273L746.403,782.862L749.263,781.439L752.118,780.005L754.967,778.561L757.813,777.108L760.653,775.646L763.489,774.177L766.321,772.701L769.15,771.219L774.792,768.242L780.421,765.251L782.059,764.371L783.697,763.474L785.334,762.565L786.97,761.642L788.606,760.707L790.241,759.76L791.876,758.803L793.51,757.836L795.145,756.86L796.78,755.874L800.047,753.884L803.317,751.867L806.59,749.832L813.144,745.732L816.43,743.678L819.721,741.63L823.02,739.594L826.329,737.574L827.985,736.574L829.645,735.58L831.307,734.593L832.972,733.614L834.64,732.644L836.311,731.684L837.985,730.734L839.662,729.795L841.343,728.868L843.027,727.954L844.715,727.052L846.406,726.165L848.102,725.293L849.802,724.436L851.505,723.595L853.214,722.772L854.926,721.966L856.643,721.178L858.365,720.41L860.092,719.661L861.823,718.934L863.56,718.227L865.302,717.543L867.05,716.881L868.803,716.243L870.561,715.63L872.325,715.041L874.096,714.478L875.872,713.942L877.654,713.432L879.443,712.951L881.238,712.498L883.043,712.075L883.943,711.875L884.848,711.682L885.755,711.497L886.664,711.32L887.574,711.151L888.486,710.989L889.996,710.734L891.512,710.49L893.033,710.255L894.559,710.03L896.09,709.814L897.626,709.609L899.166,709.413L900.71,709.227L902.259,709.051L903.811,708.884L905.367,708.727L906.927,708.579L908.49,708.44L910.057,708.311L911.626,708.192L913.198,708.082L914.774,707.981L916.351,707.889L917.931,707.806L919.513,707.733L921.097,707.668L922.683,707.613L924.271,707.566L925.86,707.529L927.45,707.5L929.042,707.481L930.634,707.47L932.227,707.467L933.821,707.474L935.415,707.489L937.01,707.513L938.604,707.545L940.198,707.586L941.793,707.635L943.386,707.692L944.979,707.758L946.571,707.832L948.162,707.915L949.752,708.006L951.341,708.104L952.928,708.211L954.514,708.326L956.097,708.449L957.679,708.58L959.258,708.719L960.835,708.866L962.41,709.02L963.981,709.183L965.55,709.353L967.116,709.53L968.678,709.716L970.237,709.909L971.792,710.109L973.344,710.317L974.891,710.532L976.435,710.755L977.974,710.985L979.508,711.222L981.038,711.467L982.563,711.718L984.083,711.977L985.598,712.243L987.108,712.516L988.61,712.796L991.258,713.308L993.902,713.842L996.544,714.395L999.186,714.966L1001.83,715.551L1004.47,716.147L1009.75,717.366L1015.04,718.601L1020.33,719.829L1022.98,720.435L1025.63,721.031L1028.29,721.615L1030.94,722.185L1033.61,722.738L1036.28,723.27L1038.95,723.78L1041.62,724.264L1044.31,724.72L1045.65,724.937L1047,725.146L1048.34,725.346L1049.69,725.538L1051.04,725.721L1052.39,725.894L1053.75,726.058L1055.1,726.212L1056.46,726.355L1057.82,726.487L1059.18,726.609L1060.54,726.719L1061.9,726.817L1063.27,726.903L1064.64,726.977L1066.01,727.039L1067.38,727.087L1068.76,727.121L1070.14,727.142L1071.52,727.149L1072.9,727.141L1074.28,727.119L1075.35,727.091L1076.41,727.054L1077.47,727.008L1078.54,726.953L1079.6,726.889L1080.67,726.817L1081.73,726.736L1082.79,726.646L1083.86,726.547L1084.92,726.441L1085.98,726.326L1087.04,726.202L1088.1,726.071L1089.17,725.931L1091.28,725.63L1093.4,725.297L1095.51,724.934L1097.62,724.542L1099.73,724.122L1101.83,723.674L1103.92,723.199L1106.01,722.699L1108.1,722.173L1110.18,721.624L1112.25,721.05L1114.32,720.454L1116.37,719.836L1118.43,719.197L1120.47,718.537L1122.51,717.858L1124.53,717.16L1126.55,716.444L1128.56,715.711L1130.56,714.962L1132.54,714.197L1134.52,713.417L1136.49,712.623L1138.44,711.816L1140.39,710.996L1142.3,710.169L1144.21,709.311L1146.12,708.424L1148.04,707.509L1149.96,706.565L1151.87,705.592L1153.79,704.593L1155.7,703.565L1157.62,702.511L1159.53,701.43L1161.43,700.323L1163.33,699.19L1165.23,698.031L1167.12,696.847L1169.01,695.638L1170.89,694.405L1172.76,693.147L1174.63,691.865L1176.48,690.56L1178.33,689.231L1180.17,687.88L1181.99,686.506L1183.81,685.11L1185.61,683.692L1187.4,682.252L1189.18,680.791L1190.94,679.309L1192.69,677.809L1193.56,677.047L1194.43,676.283L1195.29,675.514L1196.15,674.74L1197,673.962L1197.85,673.178L1198.7,672.389L1199.54,671.596L1200.38,670.798L1201.21,669.994L1202.04,669.187L1202.86,668.374L1203.68,667.557L1204.49,666.735L1205.3,665.909L1206.1,665.078L1206.9,664.243L1207.7,663.403L1208.49,662.558L1209.27,661.71L1210.05,660.856L1210.82,659.999L1211.59,659.137L1212.35,658.271L1213.11,657.4L1213.86,656.525L1214.6,655.646L1215.34,654.762L1216.07,653.874L1216.8,652.983L1217.52,652.086L1218.24,651.186L1218.94,650.282L1219.65,649.373L1220.34,648.46L1221.03,647.543L1221.72,646.622L1222.39,645.696L1223.06,644.767L1223.73,643.834L1224.38,642.896L1225.03,641.954L1225.68,641.007L1226.31,640.057L1226.94,639.102L1227.57,638.143L1228.18,637.18L1228.79,636.212L1229.39,635.24L1229.98,634.263L1230.57,633.282L1231.15,632.296L1231.72,631.306L1232.28,630.311L1232.84,629.311L1233.38,628.306L1233.93,627.297L1234.46,626.281L1234.98,625.261L1235.5,624.235L1236.01,623.203L1236.51,622.166L1237.01,621.123L1237.49,620.073L1237.97,619.018L1238.44,617.955L1238.9,616.885L1239.35,615.808L1239.8,614.723L1240.23,613.63L1240.66,612.529L1241.08,611.422L1241.44,610.427L1241.8,609.429L1242.15,608.421L1242.5,607.407L1242.83,606.387L1243.16,605.357L1243.48,604.321L1243.8,603.276L1244.11,602.221L1244.4,601.159L1244.7,600.089L1244.98,599.008L1245.26,597.919L1245.53,596.819L1245.8,595.709L1246.05,594.592L1246.3,593.464L1246.54,592.324L1246.77,591.172L1247,590.014L1247.22,588.845L1247.42,587.661L1247.62,586.473L1247.82,585.271L1248,584.055L1248.18,582.833L1248.34,581.599L1248.5,580.355L1248.65,579.102L1248.79,577.842L1248.92,576.569L1249.04,575.288L1249.15,574.002L1249.25,572.704L1249.34,571.402L1249.42,570.095L1249.5,568.782L1249.56,567.463L1249.61,566.142L1249.65,564.821L1249.68,563.494L1249.7,562.164L1249.71,560.839L1249.71,559.515L1249.7,558.19L1249.68,556.871L1249.65,555.55L1249.61,554.236L1249.56,552.932L1249.5,551.626L1249.43,550.329L1249.35,549.044L1249.26,547.763L1249.16,546.491L1249.06,545.227L1248.94,543.971L1248.82,542.727L1248.69,541.49L1248.55,540.265L1248.4,539.049L1248.24,537.842L1248.08,536.645L1247.91,535.461L1247.73,534.286L1247.55,533.121L1247.36,531.965L1247.15,530.818L1246.95,529.684L1246.74,528.56L1246.52,527.443L1246.29,526.335L1246.06,525.236L1245.83,524.147L1245.58,523.067L1245.33,521.996L1245.08,520.934L1244.81,519.878L1244.55,518.831L1244.27,517.792L1243.99,516.759L1243.71,515.736L1243.42,514.72L1243.12,513.708L1242.82,512.705L1242.51,511.709L1242.2,510.719L1241.88,509.735L1241.56,508.757L1241.23,507.786L1240.89,506.821L1240.55,505.862L1240.21,504.909L1239.86,503.96L1239.5,503.018L1239.14,502.081L1238.78,501.149L1238.4,500.222L1238.03,499.301L1237.64,498.384L1237.26,497.473L1236.86,496.566L1236.47,495.664L1236.06,494.767L1235.65,493.875L1235.24,492.987L1234.82,492.105L1234.4,491.226L1233.97,490.351L1233.54,489.482L1233.1,488.617L1232.65,487.756L1232.21,486.9L1231.75,486.049L1231.29,485.201L1230.83,484.358L1230.36,483.519L1229.89,482.684L1229.41,481.854L1228.92,481.028L1228.44,480.206L1227.94,479.389L1227.44,478.575L1226.94,477.767L1226.43,476.962L1225.92,476.161L1225.4,475.365L1224.88,474.573L1224.34,473.774L1223.79,472.973L1223.23,472.174L1222.65,471.39L1222.06,470.62L1221.47,469.863L1220.87,469.119L1220.26,468.387L1219.64,467.667L1219.01,466.959L1218.37,466.262L1217.73,465.576L1217.08,464.9L1216.42,464.235L1215.75,463.58L1215.08,462.935L1214.39,462.299L1213.7,461.673L1213.01,461.056L1212.31,460.448L1211.6,459.849L1210.88,459.258L1210.16,458.676L1209.43,458.102L1208.7,457.536L1207.96,456.979L1207.22,456.429L1206.47,455.887L1205.71,455.352L1204.95,454.825L1204.19,454.305L1203.42,453.793L1202.64,453.287L1201.87,452.789L1201.09,452.297L1200.3,451.811L1199.51,451.333L1198.72,450.861L1197.92,450.393L1196.32,449.482L1194.71,448.593L1193.09,447.728L1191.47,446.885L1189.84,446.064L1188.2,445.264L1186.56,444.483L1184.93,443.723L1183.29,442.98L1181.66,442.256L1180.03,441.549L1178.4,440.858L1176.79,440.183L1174.7,439.326L1172.58,438.476L1170.43,437.634L1168.25,436.803L1166.05,435.986L1163.81,435.184L1161.56,434.4L1159.28,433.636L1156.98,432.897L1155.83,432.535L1154.66,432.181L1153.5,431.833L1152.33,431.493L1151.16,431.16L1149.98,430.835L1148.8,430.518L1147.62,430.21L1146.43,429.91L1145.24,429.619L1144.05,429.338L1142.86,429.066L1141.66,428.804L1140.46,428.552L1139.27,428.311L1138.07,428.08L1136.86,427.86L1135.66,427.652L1134.45,427.456L1133.25,427.272L1132.04,427.099L1130.84,426.94L1129.63,426.794L1128.43,426.66L1127.22,426.54L1126.02,426.435L1124.81,426.343L1123.61,426.265L1122.41,426.203L1121.21,426.155L1120.01,426.123L1118.81,426.106L1117.61,426.105L1116.42,426.121L1115.23,426.154L1114.04,426.203L1112.86,426.269L1111.67,426.353L1110.49,426.455L1109.32,426.575L1108.14,426.714L1106.98,426.871L1105.81,427.048L1104.65,427.244L1103.49,427.459L1102.34,427.695L1101.11,427.971L1099.89,428.269L1098.67,428.589L1097.46,428.929L1096.27,429.29L1095.07,429.669L1093.89,430.068L1092.71,430.485L1091.54,430.919L1090.38,431.37L1089.22,431.837L1088.07,432.32L1086.93,432.817L1085.8,433.328L1084.66,433.853L1083.54,434.391L1082.42,434.941L1081.31,435.502L1080.21,436.074L1079.11,436.656L1078.01,437.247L1076.92,437.847L1075.84,438.456L1074.76,439.071L1073.68,439.694L1072.61,440.324L1070.49,441.595L1068.38,442.884L1066.28,444.186L1064.18,445.512L1062.07,446.858L1059.96,448.218L1057.85,449.588L1053.61,452.341L1051.49,453.716L1049.36,455.085L1047.22,456.442L1045.07,457.785L1042.91,459.109L1040.75,460.412L1039.66,461.051L1038.57,461.685L1037.48,462.311L1036.39,462.928L1035.29,463.537L1034.19,464.137L1033.09,464.726L1031.98,465.306L1030.87,465.874L1029.76,466.432L1028.64,466.978L1027.52,467.511L1026.39,468.032L1025.27,468.539L1024.13,469.033L1023,469.513L1021.86,469.978L1020.71,470.427L1019.56,470.861L1018.41,471.279L1017.25,471.68L1016.09,472.063L1014.92,472.429L1013.74,472.777L1012.57,473.106L1011.38,473.416L1010.19,473.706L1009,473.976L1007.8,474.225L1006.59,474.453L1005.38,474.66L1004.17,474.844L1002.94,475.005L1001.71,475.143L1000.48,475.258L999.237,475.348L997.99,475.414L996.736,475.454L995.475,475.469L994.207,475.457L993.783,475.445L993.353,475.425L992.445,475.36L991.506,475.266L990.531,475.14L989.526,474.986L988.494,474.802L987.437,474.59L986.359,474.351L985.263,474.086L984.152,473.795L983.03,473.479L981.9,473.14L980.765,472.778L979.627,472.394L978.491,471.989L977.358,471.564L976.233,471.12L975.118,470.657L974.017,470.178L972.933,469.683L971.869,469.173L970.827,468.649L969.812,468.113L968.969,467.644L968.988,467.61L969.303,467.06L969.629,466.506L969.965,465.949L970.312,465.391L970.669,464.831L971.036,464.269L971.411,463.706L971.794,463.143L972.188,462.579L972.588,462.014L972.996,461.449L973.413,460.883L973.835,460.319L974.26,459.761L975.144,458.622L976.046,457.492L976.969,456.361L977.911,455.231L978.869,454.1L979.842,452.967L980.827,451.832L981.822,450.696L983.837,448.407L985.862,446.103L986.879,444.937L987.892,443.763L988.902,442.579L989.907,441.383L990.904,440.174L991.892,438.95L992.865,437.715L993.353,437.082L993.834,436.45L994.312,435.812L994.785,435.169L995.256,434.52L995.722,433.865L996.183,433.203L996.641,432.534L997.094,431.858L997.542,431.174L997.985,430.482L998.424,429.78L998.858,429.069L999.286,428.347L999.708,427.616L1000.12,426.872L1000.54,426.116L1000.94,425.347L1001.34,424.563L1001.74,423.763L1002.13,422.946L1002.51,422.111L1002.89,421.256L1003.26,420.378L1003.62,419.477L1003.98,418.55L1004.33,417.597L1004.67,416.608L1005,415.628L1005.17,415.068L1005.34,414.535L1005.5,413.988L1005.66,413.432L1005.82,412.873L1005.97,412.295L1006.12,411.704L1006.28,411.103L1006.43,410.484L1006.57,409.857L1006.71,409.218L1006.85,408.564L1006.99,407.895L1007.12,407.205L1007.25,406.497L1007.38,405.783L1007.5,405.057L1007.62,404.302L1007.73,403.531L1007.84,402.756L1007.94,401.959L1008.04,401.136L1008.13,400.309L1008.21,399.471L1008.29,398.607L1008.36,397.716L1008.45,396.516L1008.52,395.282L1008.58,394.036L1008.63,392.782L1008.67,391.526L1008.69,390.262L1008.7,388.992L1008.69,387.728L1008.67,386.463L1008.64,385.205L1008.59,383.957L1008.53,382.714L1008.46,381.487L1008.37,380.276L1008.27,379.083L1008.16,377.912L1008.04,376.757L1007.9,375.62L1007.76,374.512L1007.61,373.43L1007.44,372.367L1007.27,371.33L1007.09,370.314L1006.9,369.327L1006.71,368.366L1006.51,367.42L1006.3,366.499L1006.09,365.602L1005.87,364.728L1005.64,363.874L1005.41,363.036L1005.17,362.218L1004.93,361.42L1004.69,360.638L1004.44,359.875L1004.18,359.124L1003.92,358.39L1003.65,357.672L1003.39,356.965L1003.11,356.273L1002.84,355.593L1002.55,354.924L1002.27,354.268L1001.98,353.623L1001.68,352.987L1001.38,352.361L1001.08,351.746L1000.77,351.141L1000.46,350.543L1000.14,349.954L999.824,349.373L999.499,348.801L999.172,348.237L998.839,347.68L998.502,347.129L998.161,346.586L997.817,346.05L997.468,345.521L997.115,344.997L996.757,344.479L996.396,343.969L996.03,343.463L995.661,342.965L995.288,342.471L994.909,341.982L994.527,341.499L994.142,341.023L993.752,340.551L993.358,340.084L992.961,339.622L992.559,339.165L992.153,338.714L991.744,338.267L991.324,337.818L990.492,336.954L989.638,336.102L988.769,335.268L987.885,334.451L986.987,333.652L986.074,332.87L985.147,332.104L984.205,331.354L983.25,330.621L982.282,329.905L981.3,329.204L980.305,328.519L979.298,327.849L978.278,327.194L977.246,326.556L976.202,325.932L975.147,325.324L974.08,324.73L973.003,324.152L971.915,323.588L970.816,323.039L969.707,322.505L968.588,321.985L967.46,321.481L966.323,320.99L965.177,320.514L964.022,320.053L962.859,319.606L961.688,319.173L960.509,318.754L959.323,318.35L958.13,317.96L956.931,317.584L955.724,317.222L954.513,316.875L953.295,316.541L952.071,316.222L950.843,315.917L949.61,315.625L948.372,315.347L947.13,315.084L945.885,314.834L944.636,314.598L943.383,314.376L942.128,314.168L940.87,313.973L939.61,313.793L938.349,313.626L937.085,313.473L935.821,313.333L934.555,313.208L933.289,313.096L932.022,312.997L930.756,312.913L929.49,312.842L928.225,312.784L926.961,312.74L925.698,312.71L924.437,312.693L923.177,312.689L921.921,312.7L920.667,312.723L919.415,312.761L918.167,312.811L916.923,312.876L915.683,312.953L914.447,313.044L913.215,313.149L911.989,313.267L910.768,313.397L909.552,313.542L908.342,313.7L907.138,313.872L905.941,314.056L904.751,314.255L903.568,314.466L902.392,314.691L901.224,314.929L900.064,315.181L898.913,315.446L897.77,315.724L896.637,316.016L895.513,316.321L894.398,316.639L893.293,316.971L892.199,317.316L891.116,317.675L890.043,318.046L888.981,318.432L887.931,318.831L886.895,319.242L886.1,319.57L885.311,319.902L884.527,320.241L883.743,320.588L882.2,321.295L880.67,322.028L879.156,322.785L877.659,323.564L876.178,324.364L874.711,325.187L873.26,326.03L871.823,326.894L870.4,327.776L868.991,328.678L867.595,329.597L866.212,330.534L864.841,331.488L863.483,332.458L862.135,333.443L860.8,334.443L859.474,335.457L858.16,336.484L856.854,337.525L855.559,338.577L854.273,339.64L852.995,340.715L851.726,341.799L850.464,342.892L849.21,343.994L847.963,345.104L846.722,346.221L845.488,347.345L844.259,348.475L843.036,349.61L841.817,350.75L840.602,351.895L838.187,354.19L835.783,356.495L833.389,358.803L828.61,363.409L826.221,365.695L823.825,367.968L822.626,369.094L821.423,370.215L820.217,371.33L819.007,372.438L817.793,373.537L816.575,374.629L815.351,375.712L814.122,376.785L812.887,377.848L811.646,378.901L810.398,379.942L809.143,380.972L807.88,381.99L806.608,382.994L805.328,383.986L804.036,384.965L802.618,386.022L801.195,387.072L799.77,388.108L798.343,389.13L796.912,390.137L795.478,391.126L794.038,392.095L792.594,393.045L791.142,393.971L789.684,394.874L788.215,395.753L787.482,396.18L786.744,396.602L786.003,397.016L785.26,397.423L784.514,397.823L783.767,398.215L783.016,398.599L782.262,398.974L781.506,399.342L780.746,399.701L779.984,400.051L779.219,400.392L778.45,400.724L777.677,401.046L776.901,401.36L776.122,401.663L775.34,401.956L774.553,402.24L773.763,402.513L772.968,402.775L772.17,403.027L771.367,403.268L770.561,403.497L769.75,403.715L768.934,403.922L768.114,404.117L767.29,404.3L766.461,404.471L765.627,404.629L764.788,404.775L763.944,404.908L763.095,405.028L762.241,405.135L761.382,405.229L760.517,405.308L759.647,405.374L758.771,405.426L757.89,405.464L757.003,405.487L756.11,405.496L755.211,405.49L754.307,405.468L752.699,405.403L751.097,405.311L749.498,405.193L747.904,405.049L746.314,404.88L744.728,404.686L743.146,404.467L741.568,404.225L739.995,403.96L738.425,403.672L736.859,403.363L735.297,403.032L733.739,402.679L732.184,402.307L730.633,401.914L729.086,401.502L727.543,401.071L726.003,400.622L724.466,400.155L722.933,399.671L721.404,399.17L719.878,398.653L718.355,398.119L716.836,397.572L715.32,397.009L713.807,396.433L712.297,395.843L710.791,395.239L709.287,394.624L707.787,393.997L706.29,393.358L704.796,392.709L703.304,392.049L701.816,391.379L700.33,390.7L698.847,390.013L697.367,389.318L695.891,388.616L692.942,387.188L690.006,385.738L687.079,384.268L684.163,382.782L681.256,381.287L675.466,378.28L669.712,375.284L666.845,373.8L663.986,372.332L661.134,370.884L658.29,369.461L656.517,368.589L654.733,367.725L652.937,366.871L651.131,366.027L649.314,365.194L647.487,364.37L645.65,363.558L643.803,362.757L641.946,361.968L640.08,361.192L638.205,360.427L636.321,359.677L634.429,358.939L632.529,358.216L630.62,357.507L628.704,356.812L626.78,356.133L624.849,355.47L622.911,354.822L620.967,354.191L619.016,353.577L617.059,352.98L615.095,352.4L613.127,351.839L611.153,351.296L609.174,350.773L607.19,350.268L605.201,349.784L603.208,349.319L601.211,348.875L599.211,348.453L597.207,348.052L595.199,347.672L593.189,347.315L591.175,346.98L589.16,346.669L587.142,346.382L585.122,346.118L583.1,345.879L581.077,345.664L579.053,345.475L577.028,345.312L575.002,345.174L572.976,345.064L570.95,344.98L568.924,344.923L566.898,344.894L564.873,344.894L562.849,344.922L560.826,344.979L558.804,345.066L556.784,345.183L554.766,345.33L552.75,345.508L550.74,345.717L549.732,345.833L548.727,345.958L547.722,346.09L546.719,346.231L545.716,346.379L544.715,346.536L543.714,346.701L542.714,346.874L541.715,347.056L540.717,347.246L539.72,347.445L538.724,347.652L537.729,347.867L536.735,348.092L535.743,348.325L534.751,348.566L533.76,348.817L532.771,349.076L531.754,349.353L530.739,349.639L529.726,349.935L528.716,350.24L527.708,350.554L526.703,350.877L525.7,351.209L524.699,351.55L523.7,351.899L522.704,352.257L521.711,352.622L520.72,352.995L519.73,353.376L518.744,353.766L517.76,354.162L516.775,354.566L514.821,355.393L512.874,356.249L510.936,357.129L509.007,358.034L507.087,358.962L505.177,359.912L503.276,360.882L501.384,361.871L499.502,362.877L497.628,363.9L495.764,364.937L493.909,365.988L492.063,367.051L490.226,368.125L488.398,369.208L486.58,370.3L484.77,371.397L482.969,372.501L481.177,373.609L479.394,374.72L475.857,376.942L472.355,379.16L469.105,381.217L465.845,383.274L462.576,385.337L459.304,387.409L456.032,389.496L452.767,391.601L451.136,392.663L449.508,393.731L447.885,394.806L446.265,395.887L444.65,396.977L443.04,398.076L441.435,399.184L439.837,400.301L438.246,401.429L436.662,402.567L435.086,403.717L433.518,404.879L431.959,406.054L430.409,407.242L428.869,408.443L427.34,409.659L425.822,410.89L424.315,412.137L422.821,413.4L421.341,414.678L420.546,415.377L419.754,416.084L418.96,416.8L418.167,417.526L417.374,418.261L416.581,419.005L415.788,419.759L414.995,420.523L414.203,421.295L413.412,422.075L412.621,422.866L411.831,423.664L411.042,424.471L410.254,425.288L409.468,426.112L408.682,426.945L407.899,427.786L407.116,428.635L406.335,429.493L405.556,430.358L404.779,431.231L404.004,432.113L403.23,433.002L402.459,433.899L401.69,434.803L400.924,435.715L400.161,436.634L399.4,437.56L398.641,438.494L397.886,439.435L397.133,440.383L396.384,441.338L395.638,442.3L394.895,443.268L394.156,444.244L393.42,445.226L392.688,446.214L391.96,447.209L391.236,448.211L390.515,449.219L389.799,450.233L389.087,451.253L388.379,452.279L387.676,453.312L386.977,454.35L386.283,455.394L385.594,456.445L384.909,457.501L384.23,458.562L383.556,459.63L382.887,460.703L382.223,461.781L381.564,462.865L380.912,463.954L380.264,465.049L379.623,466.15L378.987,467.255L378.357,468.366L377.734,469.482L377.116,470.603L376.505,471.73L375.9,472.861L375.302,473.998L374.71,475.141L374.124,476.288L373.546,477.44L372.974,478.598L372.409,479.761L371.852,480.929L371.301,482.103L370.758,483.282L370.221,484.467L369.693,485.657L369.172,486.852L368.658,488.054L368.152,489.261L367.654,490.474L367.164,491.693L366.681,492.919L366.207,494.151L365.741,495.39L365.283,496.636L364.833,497.889L364.392,499.149L363.959,500.418L363.535,501.695L363.119,502.98L362.713,504.274L362.315,505.577L361.926,506.891L361.546,508.215L361.176,509.55L360.815,510.897L360.463,512.255L360.122,513.627L359.79,515.013L359.468,516.413L359.164,517.795L359.005,518.543L358.856,519.259L358.71,519.981L358.567,520.708L358.425,521.441L358.288,522.176L358.153,522.915L358.02,523.662L357.891,524.414L357.765,525.167L357.642,525.926L357.522,526.693L357.405,527.463L357.292,528.239L357.182,529.022L357.075,529.81L356.972,530.603L356.872,531.401L356.776,532.205L356.684,533.015L356.595,533.831L356.511,534.652L356.43,535.48L356.354,536.312L356.281,537.151L356.213,537.997L356.149,538.844L356.09,539.7L356.035,540.56L355.985,541.423L355.94,542.295L355.899,543.17L355.864,544.045L355.833,544.929L355.808,545.816L355.788,546.704L355.773,547.595L355.763,548.49L355.759,549.388L355.761,550.287L355.768,551.186L355.78,552.089L355.798,552.989L355.822,553.889L355.852,554.79L355.887,555.688L355.928,556.587L355.974,557.482L356.027,558.375L356.084,559.263L356.148,560.149L356.217,561.032L356.291,561.908L356.371,562.782L356.457,563.652L356.547,564.509L356.643,565.368L356.744,566.218L356.85,567.059L356.966,567.93L357.133,569.109L357.313,570.296L357.502,571.46L357.698,572.602L357.902,573.724L358.113,574.826L358.33,575.907L358.553,576.969L358.783,578.014L359.019,579.042L359.259,580.053L359.505,581.049L359.757,582.032L360.013,583.001L360.274,583.956L360.54,584.9L360.81,585.833L361.084,586.753L361.363,587.666L361.646,588.568L361.933,589.46L362.223,590.343L362.518,591.219L362.816,592.088L363.118,592.948L363.423,593.801L363.732,594.649L364.044,595.489L364.359,596.324L364.677,597.153L364.998,597.976L365.322,598.794L365.649,599.608L365.978,600.416L366.31,601.22L366.65,602.031L367.32,603.604L368.005,605.175L368.697,606.731L369.396,608.274L370.101,609.804L370.811,611.322L371.525,612.828L372.242,614.324L372.962,615.81L373.685,617.291L375.122,620.208L376.557,623.101L377.683,625.362L378.812,627.621L379.945,629.877L381.083,632.131L382.226,634.381L383.374,636.628L384.53,638.872L385.692,641.112L386.861,643.348L388.039,645.58L389.226,647.808L390.423,650.031L391.629,652.249L392.846,654.462L394.073,656.67L395.313,658.872L396.565,661.068L397.83,663.258L399.109,665.441L400.401,667.618L401.709,669.789L403.031,671.952L404.37,674.107L405.724,676.256L407.093,678.391L407.789,679.463L408.486,680.528L409.187,681.591L409.893,682.652L410.604,683.711L411.319,684.768L412.04,685.822L412.765,686.874L413.495,687.924L414.231,688.972L414.971,690.018L415.717,691.061L416.467,692.102L417.223,693.14L419.137,695.746L421.061,698.344L422.997,700.936L424.943,703.52L426.902,706.097L428.872,708.665L430.855,711.223L432.851,713.773L434.86,716.312L436.883,718.841L438.92,721.359L440.971,723.866L443.036,726.36L445.117,728.842L447.213,731.311L449.324,733.766L451.452,736.207L453.594,738.632L454.674,739.842L455.757,741.046L456.844,742.246L457.935,743.442L459.03,744.634L460.13,745.823L461.235,747.006L462.344,748.186L463.457,749.362L464.575,750.533L465.698,751.7L466.826,752.862L467.958,754.02L469.095,755.173L470.237,756.322L471.383,757.466L472.535,758.605L473.691,759.74L474.853,760.869L476.019,761.994L477.191,763.114L478.368,764.228L479.55,765.338L480.737,766.442L481.93,767.541L483.128,768.635L484.331,769.723L485.539,770.806L487.204,772.284L488.886,773.763L490.585,775.244L492.302,776.723L494.036,778.201L495.786,779.674L497.553,781.143L499.335,782.605L501.134,784.059L502.948,785.504L504.778,786.938L506.622,788.36L508.481,789.768L510.355,791.162L512.243,792.538L514.145,793.897L516.06,795.237L517.989,796.555L519.928,797.85L520.907,798.491L521.886,799.125L522.868,799.752L523.853,800.373L524.841,800.987L525.833,801.594L526.827,802.194L527.825,802.788L528.825,803.374L529.828,803.952L530.834,804.523L531.843,805.085L532.855,805.64L533.87,806.187L534.887,806.725L535.907,807.254L536.93,807.775L537.955,808.287L538.983,808.79L540.013,809.283L541.046,809.767L542.082,810.242L543.12,810.706L544.16,811.16L545.203,811.605L546.252,812.04L547.511,812.543L548.779,813.024L550.052,813.482L551.33,813.92L552.614,814.337L553.902,814.733L555.194,815.111L556.491,815.471L557.791,815.812L559.095,816.137L560.402,816.447L561.713,816.74L563.026,817.019L564.341,817.285L565.659,817.537L566.979,817.777L568.301,818.005L569.624,818.223L570.948,818.43L572.273,818.628L573.599,818.818L574.927,818.999L577.577,819.341L580.227,819.66L582.874,819.962L588.147,820.538L589.781,820.708L591.414,820.864L593.045,821.007L594.674,821.135L596.299,821.25L597.922,821.352L599.542,821.44L601.16,821.514L602.775,821.575L604.388,821.624L605.998,821.659L607.605,821.681L609.21,821.69L610.812,821.687L612.412,821.671ZM609.215,789.884L607.631,789.875L606.045,789.853L604.456,789.818L602.865,789.77L601.271,789.71L599.674,789.636L598.075,789.55L596.474,789.45L594.87,789.336L593.264,789.209L591.655,789.069L590.043,788.915L588.427,788.747L583.167,788.172L580.535,787.872L577.905,787.555L575.276,787.216L573.966,787.037L572.657,786.85L571.35,786.654L570.045,786.45L568.743,786.236L567.445,786.012L566.149,785.776L564.857,785.529L563.569,785.269L562.285,784.996L561.006,784.71L559.732,784.408L558.462,784.092L557.199,783.76L555.94,783.411L554.688,783.045L553.442,782.661L552.203,782.258L550.971,781.837L549.746,781.395L548.528,780.933L547.315,780.449L546.301,780.028L545.286,779.596L544.273,779.153L543.262,778.701L542.254,778.239L541.247,777.768L540.243,777.287L539.241,776.797L538.242,776.298L537.244,775.79L536.249,775.273L535.257,774.748L534.267,774.215L533.279,773.674L532.294,773.124L531.312,772.567L530.332,772.002L529.355,771.43L528.38,770.85L527.408,770.263L526.439,769.669L525.472,769.069L524.509,768.462L523.548,767.848L522.59,767.228L521.637,766.604L519.733,765.332L517.843,764.041L515.966,762.728L514.101,761.395L512.249,760.045L510.41,758.677L508.585,757.294L506.772,755.898L504.974,754.488L503.19,753.067L501.42,751.636L499.665,750.197L497.924,748.75L496.199,747.297L494.49,745.84L492.796,744.381L491.117,742.919L489.456,741.457L487.811,739.996L486.622,738.931L485.439,737.861L484.262,736.786L483.089,735.706L481.922,734.62L480.76,733.53L479.604,732.434L478.452,731.333L477.305,730.228L476.163,729.118L475.027,728.003L473.895,726.883L472.768,725.758L471.645,724.629L470.528,723.495L469.415,722.357L468.307,721.215L467.203,720.068L466.104,718.916L465.009,717.761L463.919,716.601L462.833,715.437L461.752,714.269L460.674,713.097L459.602,711.921L458.533,710.74L457.468,709.557L456.41,708.371L454.299,705.982L452.206,703.581L450.129,701.165L448.067,698.736L446.019,696.293L443.986,693.838L441.967,691.37L439.961,688.891L437.969,686.4L435.989,683.898L434.022,681.385L432.067,678.862L430.123,676.329L428.191,673.788L426.27,671.237L424.359,668.678L422.459,666.111L420.569,663.538L419.839,662.536L419.116,661.533L418.397,660.528L417.684,659.521L416.975,658.511L416.272,657.5L415.574,656.486L414.88,655.471L414.191,654.454L413.506,653.434L412.826,652.412L412.151,651.389L411.48,650.363L410.816,649.341L409.492,647.275L408.187,645.206L406.898,643.129L405.624,641.045L404.364,638.952L403.117,636.853L401.883,634.745L400.661,632.631L399.451,630.508L398.252,628.379L397.064,626.241L395.884,624.097L394.714,621.945L393.552,619.786L392.398,617.619L391.251,615.445L390.11,613.265L388.975,611.077L387.845,608.882L386.719,606.68L385.598,604.471L384.479,602.256L383.363,600.034L382.249,597.805L381.136,595.569L379.719,592.712L378.309,589.851L377.617,588.433L376.928,587.011L376.248,585.592L375.577,584.176L374.916,582.762L374.266,581.352L373.628,579.945L373.004,578.543L372.395,577.145L371.796,575.74L371.512,575.059L371.226,574.367L370.945,573.678L370.669,572.991L370.397,572.305L370.131,571.623L369.87,570.943L369.615,570.266L369.364,569.592L369.12,568.922L368.882,568.255L368.649,567.592L368.424,566.935L368.204,566.282L367.991,565.633L367.784,564.99L367.584,564.354L367.392,563.724L367.206,563.101L367.028,562.486L366.857,561.879L366.694,561.28L366.538,560.691L366.39,560.113L366.25,559.545L366.117,558.988L365.993,558.445L365.876,557.915L365.767,557.399L365.667,556.898L365.574,556.414L365.489,555.946L365.412,555.496L365.342,555.063L365.279,554.65L365.219,554.226L365.19,554.005L365.158,553.753L365.129,553.51L365.102,553.272L365.077,553.032L365.055,552.803L365.034,552.577L365.015,552.351L364.997,552.131L364.982,551.912L364.968,551.695L364.955,551.481L364.944,551.267L364.934,551.055L364.926,550.842L364.919,550.631L364.913,550.417L364.909,550.202L364.906,549.989L364.904,549.77L364.904,549.551L364.905,549.33L364.907,549.104L364.911,548.874L364.917,548.638L364.923,548.403L364.932,548.161L364.942,547.911L364.954,547.659L364.967,547.403L364.982,547.138L364.999,546.869L365.018,546.595L365.04,546.311L365.063,546.025L365.088,545.732L365.116,545.431L365.146,545.125L365.178,544.812L365.213,544.492L365.25,544.166L365.289,543.834L365.332,543.495L365.376,543.151L365.424,542.801L365.474,542.445L365.527,542.082L365.583,541.713L365.641,541.34L365.703,540.958L365.768,540.571L365.835,540.182L365.905,539.787L365.978,539.385L366.054,538.978L366.133,538.569L366.215,538.153L366.301,537.733L366.389,537.306L366.473,536.912L366.672,536.008L366.876,535.121L367.091,534.221L367.319,533.307L367.559,532.379L367.81,531.441L368.074,530.491L368.349,529.532L368.636,528.563L368.934,527.585L369.244,526.6L369.565,525.606L369.897,524.607L370.24,523.602L370.594,522.591L370.959,521.575L371.333,520.555L371.719,519.531L372.115,518.503L372.52,517.472L372.936,516.439L373.361,515.403L373.796,514.365L374.24,513.326L374.694,512.284L375.157,511.242L375.629,510.2L376.11,509.156L376.599,508.113L377.098,507.07L377.604,506.026L378.119,504.984L378.642,503.943L379.173,502.902L379.711,501.863L380.258,500.825L380.812,499.788L381.373,498.753L381.942,497.721L382.517,496.691L383.1,495.663L383.69,494.637L384.286,493.614L384.889,492.595L385.498,491.578L386.114,490.564L386.736,489.554L387.364,488.547L387.998,487.544L388.637,486.544L389.282,485.549L389.933,484.558L390.589,483.571L391.25,482.588L391.916,481.61L392.588,480.636L393.264,479.667L393.945,478.703L394.63,477.744L395.32,476.79L396.015,475.842L396.713,474.899L397.416,473.961L398.122,473.029L398.832,472.103L399.546,471.182L400.264,470.268L400.984,469.36L401.709,468.458L402.436,467.562L403.166,466.673L403.899,465.791L404.636,464.915L405.374,464.046L406.115,463.184L406.859,462.329L407.605,461.481L408.353,460.64L409.103,459.807L409.854,458.982L410.608,458.164L411.363,457.354L412.12,456.551L412.878,455.757L413.638,454.97L414.398,454.192L415.16,453.422L415.922,452.66L416.685,451.907L417.449,451.162L418.213,450.427L418.977,449.7L419.743,448.982L420.508,448.273L421.272,447.573L422.037,446.882L422.802,446.201L423.564,445.531L425.002,444.288L426.453,443.062L427.918,441.85L429.397,440.65L430.889,439.464L432.394,438.29L433.911,437.127L435.439,435.976L436.977,434.836L438.526,433.706L440.084,432.586L441.651,431.476L443.227,430.374L444.81,429.28L446.401,428.195L447.998,427.117L449.602,426.046L451.211,424.981L452.824,423.922L454.441,422.87L457.69,420.776L460.948,418.698L464.212,416.63L467.477,414.569L470.74,412.511L473.993,410.452L477.488,408.238L481.013,406.024L482.784,404.921L484.563,403.821L486.349,402.726L488.143,401.638L489.944,400.557L491.752,399.486L493.568,398.424L495.391,397.374L497.221,396.337L499.06,395.314L500.905,394.307L502.758,393.316L504.619,392.344L506.488,391.39L508.364,390.457L510.248,389.546L512.139,388.659L514.039,387.796L515.946,386.958L517.864,386.147L518.822,385.753L519.784,385.365L520.749,384.985L521.715,384.613L522.684,384.248L523.655,383.891L524.627,383.542L525.602,383.201L526.578,382.869L527.557,382.545L528.537,382.23L529.52,381.923L530.504,381.626L531.491,381.338L532.48,381.059L533.471,380.789L534.436,380.536L535.402,380.292L536.37,380.056L537.339,379.829L538.309,379.61L539.281,379.399L540.254,379.197L541.228,379.003L542.204,378.817L543.18,378.639L544.158,378.47L545.137,378.309L546.117,378.155L547.098,378.01L548.08,377.872L549.063,377.743L550.046,377.621L551.028,377.507L553.003,377.302L554.978,377.128L556.956,376.984L558.936,376.869L560.919,376.784L562.904,376.728L564.891,376.7L566.879,376.701L568.868,376.729L570.859,376.785L572.85,376.867L574.841,376.976L576.833,377.111L578.824,377.272L580.815,377.458L582.805,377.669L584.795,377.904L586.783,378.164L588.77,378.447L590.754,378.753L592.737,379.083L594.718,379.434L596.696,379.808L598.671,380.204L600.643,380.62L602.611,381.058L604.576,381.516L606.537,381.993L608.493,382.491L610.446,383.008L612.393,383.543L614.335,384.097L616.272,384.668L618.204,385.258L620.13,385.864L622.049,386.487L623.962,387.126L625.869,387.781L627.768,388.452L629.661,389.138L631.546,389.838L633.423,390.552L635.292,391.281L637.153,392.023L639.005,392.777L640.849,393.545L642.683,394.324L644.508,395.115L646.323,395.918L648.129,396.732L649.924,397.556L651.709,398.39L653.483,399.233L655.246,400.087L656.998,400.949L659.823,402.362L662.658,403.801L665.504,405.263L668.362,406.742L674.114,409.737L679.912,412.748L682.831,414.25L685.764,415.743L688.71,417.223L691.669,418.685L694.641,420.123L696.135,420.834L697.631,421.537L699.13,422.232L700.634,422.919L702.141,423.597L703.652,424.265L705.166,424.924L706.685,425.571L708.207,426.208L709.734,426.833L711.264,427.445L712.798,428.045L714.337,428.631L715.879,429.204L717.426,429.761L718.977,430.304L720.532,430.831L722.091,431.342L723.655,431.836L725.222,432.313L726.795,432.771L728.371,433.211L729.952,433.632L731.538,434.034L733.128,434.415L734.722,434.775L736.321,435.114L737.925,435.431L739.533,435.726L741.146,435.998L742.764,436.246L744.386,436.47L746.013,436.669L747.646,436.843L749.282,436.99L750.924,437.112L752.571,437.206L754.222,437.273L755.171,437.296L756.114,437.303L757.05,437.293L757.981,437.269L758.906,437.229L759.825,437.175L760.738,437.106L761.646,437.022L762.549,436.924L763.446,436.811L764.337,436.685L765.224,436.546L766.105,436.392L766.98,436.226L767.851,436.047L768.718,435.854L769.579,435.649L770.435,435.433L771.286,435.204L772.133,434.962L772.976,434.71L773.813,434.446L774.647,434.17L775.476,433.884L776.3,433.587L777.121,433.279L777.938,432.961L778.75,432.633L779.558,432.296L780.362,431.948L781.163,431.592L781.961,431.226L782.754,430.851L783.543,430.467L784.33,430.075L785.112,429.675L785.892,429.266L786.668,428.851L787.441,428.427L788.211,427.996L788.978,427.558L789.745,427.111L791.261,426.204L792.769,425.27L794.268,424.314L795.756,423.336L797.236,422.339L798.708,421.324L800.172,420.294L801.629,419.251L803.079,418.195L804.524,417.13L805.968,416.054L807.295,415.048L808.615,414.026L809.924,412.991L811.224,411.944L812.515,410.886L813.796,409.816L815.069,408.736L816.335,407.647L817.592,406.548L818.843,405.442L820.086,404.328L821.323,403.206L822.555,402.079L823.781,400.946L825.001,399.808L826.219,398.665L828.637,396.372L831.044,394.068L835.83,389.454L838.219,387.152L840.607,384.862L843.002,382.586L844.2,381.458L845.402,380.333L846.606,379.216L847.814,378.105L849.026,377.002L850.243,375.906L851.464,374.819L852.69,373.742L853.922,372.675L855.16,371.617L856.404,370.571L857.656,369.536L858.916,368.513L860.183,367.503L861.459,366.506L862.744,365.523L864.038,364.554L865.343,363.6L866.657,362.661L867.983,361.739L869.32,360.833L870.669,359.944L872.03,359.074L873.404,358.221L874.792,357.388L876.193,356.574L877.608,355.78L879.038,355.007L880.483,354.255L881.944,353.524L883.421,352.817L884.918,352.131L885.667,351.799L886.425,351.472L887.187,351.151L887.951,350.836L888.946,350.441L889.953,350.058L890.971,349.689L892.002,349.331L893.045,348.986L894.1,348.653L895.166,348.333L896.242,348.026L897.33,347.731L898.427,347.449L899.534,347.179L900.651,346.922L901.776,346.678L902.911,346.446L904.053,346.228L905.204,346.022L906.363,345.829L907.528,345.649L908.701,345.482L909.88,345.328L911.065,345.187L912.256,345.059L913.453,344.944L914.655,344.842L915.862,344.754L917.073,344.678L918.289,344.615L919.508,344.565L920.731,344.529L921.956,344.506L923.185,344.496L924.416,344.499L925.649,344.516L926.883,344.545L928.119,344.588L929.357,344.645L930.594,344.714L931.833,344.797L933.07,344.893L934.308,345.003L935.545,345.126L936.781,345.262L938.016,345.411L939.248,345.575L940.479,345.751L941.707,345.941L942.933,346.144L944.155,346.361L945.374,346.591L946.589,346.834L947.799,347.091L949.005,347.362L950.207,347.646L951.403,347.943L952.593,348.254L953.778,348.579L954.956,348.917L956.128,349.268L957.292,349.633L958.449,350.011L959.599,350.403L960.74,350.808L961.873,351.227L962.998,351.659L964.113,352.105L965.218,352.564L966.314,353.036L967.4,353.522L968.474,354.021L969.538,354.534L970.591,355.06L971.632,355.599L972.661,356.151L973.677,356.717L974.681,357.295L975.671,357.887L976.648,358.492L977.61,359.109L978.558,359.74L979.492,360.383L980.41,361.038L981.313,361.707L982.2,362.387L983.07,363.08L983.924,363.785L984.76,364.501L985.579,365.229L986.379,365.969L987.161,366.719L987.923,367.48L988.673,368.258L989.03,368.641L989.39,369.033L989.744,369.427L990.092,369.824L990.436,370.223L990.774,370.623L991.106,371.026L991.434,371.431L991.756,371.838L992.071,372.245L992.382,372.656L992.687,373.068L992.986,373.481L993.279,373.896L993.566,374.311L993.846,374.727L994.122,375.144L994.391,375.563L994.654,375.981L994.909,376.399L995.159,376.818L995.403,377.238L995.64,377.656L995.87,378.073L996.093,378.489L996.309,378.904L996.52,379.319L996.722,379.73L996.918,380.139L997.106,380.545L997.288,380.948L997.462,381.349L997.629,381.744L997.789,382.134L997.941,382.52L998.086,382.899L998.223,383.274L998.353,383.639L998.475,383.997L998.59,384.348L998.697,384.688L998.798,385.02L998.89,385.338L998.974,385.645L999.053,385.942L999.124,386.227L999.189,386.496L999.246,386.749L999.296,386.985L999.342,387.212L999.381,387.42L999.415,387.607L999.443,387.781L999.467,387.936L999.487,388.08L999.503,388.204L999.516,388.307L999.525,388.4L999.533,388.483L999.539,388.553L999.543,388.612L999.546,388.662L999.548,388.704L999.55,388.748L999.551,388.789L999.552,388.831L999.552,388.882L999.552,388.934L999.551,388.999L999.548,389.08L999.545,389.17L999.54,389.276L999.532,389.402L999.528,389.456L999.527,389.464L999.521,389.502L999.51,389.565L999.498,389.638L999.484,389.712L999.467,389.799L999.446,389.904L999.421,390.021L999.392,390.149L999.361,390.286L999.326,390.428L999.288,390.583L999.245,390.746L999.199,390.918L999.147,391.105L999.093,391.293L999.035,391.485L998.973,391.689L998.918,391.862L998.76,392.339L998.601,392.795L998.426,393.274L998.235,393.768L998.03,394.275L997.811,394.794L997.578,395.324L997.33,395.864L997.07,396.411L996.797,396.964L996.512,397.523L996.215,398.087L995.906,398.654L995.586,399.224L995.255,399.797L994.914,400.372L994.563,400.947L994.202,401.524L993.832,402.102L993.453,402.681L993.066,403.259L992.67,403.838L992.266,404.416L991.855,404.995L991.437,405.572L991.011,406.149L990.579,406.726L990.141,407.303L989.701,407.873L988.791,409.028L987.865,410.175L986.921,411.319L985.961,412.462L984.987,413.604L984.002,414.745L983.009,415.885L980.996,418.175L978.976,420.47L977.963,421.626L976.954,422.789L975.949,423.959L974.95,425.138L973.959,426.327L972.977,427.529L972.007,428.745L971.056,429.969L970.578,430.598L970.108,431.226L969.643,431.859L969.181,432.497L968.724,433.141L968.272,433.79L967.824,434.448L967.381,435.113L966.943,435.784L966.51,436.464L966.082,437.153L965.659,437.851L965.242,438.56L964.831,439.28L964.425,440.012L964.025,440.756L963.63,441.514L963.241,442.288L962.858,443.079L962.482,443.886L962.111,444.715L961.746,445.566L961.387,446.44L961.035,447.339L960.689,448.268L960.35,449.229L960.03,450.187L959.854,450.739L959.692,451.26L959.532,451.794L959.374,452.338L959.219,452.893L959.065,453.463L958.913,454.043L958.764,454.638L958.616,455.251L958.473,455.871L958.332,456.511L958.193,457.165L958.058,457.834L957.926,458.525L957.799,459.224L957.675,459.945L957.555,460.685L957.441,461.439L957.331,462.214L957.225,463.008L957.126,463.818L957.034,464.641L956.947,465.483L956.867,466.344L956.795,467.216L956.73,468.105L956.673,469.011L956.624,469.917L956.584,470.836L956.552,471.774L956.53,472.707L956.516,473.647L956.512,474.594L956.517,475.537L956.531,476.484L956.554,477.43L956.586,478.361L956.626,479.288L956.676,480.218L956.734,481.129L956.799,482.033L956.854,482.697L957.106,484.403L957.281,486.223L957.51,487.137L957.669,488.215L958.09,489.456L958.452,490.904L958.764,491.444L959.03,492.228L959.555,492.815L960.049,493.67L960.415,494.016L960.815,494.379L961.224,494.736L961.643,495.087L962.071,495.432L962.507,495.773L962.954,496.11L963.409,496.441L963.872,496.769L964.345,497.093L964.826,497.412L965.314,497.728L965.811,498.039L966.32,498.35L967.346,498.951L968.403,499.539L969.485,500.112L970.59,500.667L971.714,501.206L972.855,501.727L974.01,502.229L975.177,502.713L976.352,503.177L977.534,503.621L978.72,504.043L979.906,504.443L981.089,504.821L982.269,505.175L983.44,505.505L984.602,505.809L985.75,506.087L986.883,506.338L987.997,506.561L989.09,506.756L990.16,506.921L991.204,507.055L992.22,507.158L993.199,507.227L993.684,507.249L994.157,507.263L995.478,507.275L996.793,507.26L998.101,507.218L999.402,507.149L1000.7,507.055L1001.98,506.936L1003.26,506.792L1004.54,506.624L1005.8,506.432L1007.07,506.217L1008.32,505.98L1009.57,505.721L1010.81,505.44L1012.04,505.139L1013.27,504.817L1014.5,504.475L1015.72,504.114L1016.93,503.735L1018.13,503.337L1019.33,502.922L1020.53,502.49L1021.72,502.041L1022.9,501.576L1024.08,501.096L1025.25,500.601L1026.42,500.091L1027.58,499.568L1028.74,499.032L1029.9,498.483L1031.05,497.922L1032.19,497.349L1033.33,496.765L1034.46,496.171L1035.59,495.567L1036.72,494.953L1037.84,494.331L1038.96,493.7L1040.07,493.062L1041.18,492.416L1042.29,491.762L1044.49,490.441L1046.67,489.098L1048.85,487.739L1051.01,486.369L1053.15,484.99L1055.29,483.609L1059.53,480.854L1061.63,479.489L1063.73,478.137L1065.82,476.802L1067.9,475.49L1069.97,474.203L1072.06,472.931L1074.15,471.678L1075.2,471.062L1076.25,470.452L1077.31,469.85L1078.37,469.255L1079.43,468.67L1080.5,468.093L1081.57,467.527L1082.64,466.971L1083.72,466.426L1084.81,465.892L1085.89,465.371L1086.99,464.863L1088.09,464.369L1089.19,463.888L1090.3,463.423L1091.41,462.972L1092.53,462.538L1093.66,462.12L1094.79,461.719L1095.93,461.336L1097.08,460.971L1098.23,460.625L1099.39,460.298L1100.55,459.992L1101.72,459.706L1102.9,459.442L1104.01,459.216L1105.12,459.009L1106.23,458.82L1107.35,458.651L1108.48,458.499L1109.61,458.366L1110.74,458.25L1111.88,458.152L1113.02,458.071L1114.17,458.006L1115.32,457.959L1116.47,457.927L1117.63,457.912L1118.79,457.913L1119.95,457.929L1121.12,457.96L1122.29,458.006L1123.46,458.067L1124.63,458.143L1125.8,458.232L1126.98,458.335L1128.15,458.452L1129.33,458.583L1130.51,458.726L1131.68,458.881L1132.86,459.049L1134.04,459.23L1135.22,459.422L1136.4,459.625L1137.57,459.84L1138.75,460.066L1139.92,460.303L1141.1,460.55L1142.27,460.807L1143.44,461.074L1144.61,461.35L1145.78,461.635L1146.94,461.93L1148.11,462.233L1149.27,462.545L1150.42,462.864L1151.58,463.191L1152.73,463.526L1153.87,463.868L1155.02,464.217L1156.15,464.572L1158.42,465.302L1160.66,466.054L1162.89,466.827L1165.09,467.619L1167.27,468.426L1169.42,469.246L1171.55,470.078L1173.64,470.919L1175.71,471.766L1177.3,472.433L1178.9,473.115L1180.51,473.813L1182.12,474.526L1183.73,475.256L1185.34,476.003L1186.94,476.768L1188.54,477.551L1190.14,478.354L1191.72,479.176L1193.3,480.019L1194.87,480.883L1196.42,481.77L1197.19,482.218L1197.95,482.675L1198.71,483.137L1199.47,483.604L1200.22,484.078L1200.97,484.557L1201.71,485.042L1202.45,485.533L1203.18,486.029L1203.91,486.532L1204.62,487.041L1205.34,487.556L1206.04,488.077L1206.74,488.605L1207.43,489.138L1208.12,489.678L1208.79,490.224L1209.46,490.776L1210.12,491.334L1210.78,491.899L1211.42,492.469L1212.05,493.047L1212.68,493.63L1213.3,494.219L1213.9,494.814L1214.5,495.416L1215.08,496.023L1215.66,496.636L1216.22,497.255L1216.78,497.879L1217.32,498.509L1217.85,499.144L1218.37,499.784L1218.87,500.428L1219.37,501.077L1219.85,501.73L1220.31,502.386L1220.77,503.058L1221.25,503.768L1221.73,504.492L1222.2,505.218L1222.67,505.947L1223.13,506.678L1223.59,507.411L1224.04,508.146L1224.48,508.883L1224.92,509.621L1225.35,510.362L1225.78,511.105L1226.2,511.848L1226.62,512.594L1227.03,513.342L1227.44,514.089L1227.84,514.839L1228.23,515.59L1228.62,516.342L1229,517.095L1229.38,517.849L1229.75,518.603L1230.11,519.358L1230.47,520.114L1230.82,520.87L1231.16,521.626L1231.51,522.382L1231.84,523.138L1232.16,523.894L1232.49,524.65L1232.8,525.405L1233.11,526.16L1233.41,526.914L1233.71,527.667L1234,528.418L1234.28,529.17L1234.56,529.918L1234.83,530.666L1235.09,531.412L1235.35,532.155L1235.6,532.897L1235.85,533.635L1236.09,534.371L1236.32,535.104L1236.54,535.835L1236.76,536.562L1236.97,537.283L1237.18,538.003L1237.38,538.72L1237.57,539.429L1237.76,540.136L1237.93,540.837L1238.11,541.531L1238.27,542.223L1238.43,542.908L1238.59,543.587L1238.73,544.26L1238.87,544.924L1239.01,545.582L1239.13,546.233L1239.26,546.879L1239.37,547.518L1239.48,548.145L1239.58,548.765L1239.68,549.378L1239.77,549.983L1239.86,550.581L1239.94,551.167L1240.01,551.745L1240.08,552.315L1240.15,552.877L1240.21,553.429L1240.26,553.974L1240.31,554.509L1240.35,555.037L1240.39,555.558L1240.43,556.071L1240.46,556.581L1240.49,557.079L1240.51,557.569L1240.53,558.062L1240.54,558.545L1240.55,559.022L1240.56,559.5L1240.57,559.974L1240.57,560.447L1240.56,560.921L1240.56,561.389L1240.54,561.86L1240.53,562.337L1240.51,562.815L1240.49,563.293L1240.46,563.777L1240.43,564.267L1240.4,564.761L1240.36,565.259L1240.31,565.768L1240.27,566.282L1240.21,566.802L1240.15,567.334L1240.09,567.873L1240.02,568.418L1239.95,568.974L1239.87,569.539L1239.78,570.11L1239.68,570.694L1239.59,571.289L1239.48,571.888L1239.37,572.498L1239.25,573.119L1239.12,573.745L1238.98,574.38L1238.84,575.024L1238.69,575.679L1238.54,576.338L1238.37,577.005L1238.2,577.68L1238.02,578.362L1237.83,579.051L1237.63,579.747L1237.43,580.446L1237.22,581.153L1237,581.866L1236.77,582.582L1236.53,583.306L1236.28,584.033L1236.03,584.763L1235.77,585.498L1235.49,586.235L1235.17,587.085L1234.84,587.938L1234.5,588.796L1234.14,589.659L1233.78,590.526L1233.4,591.397L1233.02,592.27L1232.62,593.147L1232.22,594.026L1231.8,594.907L1231.37,595.791L1230.94,596.675L1230.49,597.561L1230.03,598.449L1229.57,599.336L1229.09,600.225L1228.61,601.114L1228.11,602.003L1227.61,602.892L1227.1,603.782L1226.57,604.67L1226.04,605.558L1225.5,606.446L1224.96,607.333L1224.4,608.218L1223.84,609.102L1223.26,609.986L1222.68,610.867L1222.09,611.748L1221.49,612.627L1220.89,613.503L1220.28,614.379L1219.65,615.252L1219.03,616.123L1218.39,616.992L1217.75,617.859L1217.1,618.723L1216.44,619.586L1215.78,620.445L1215.1,621.302L1214.43,622.157L1213.74,623.009L1213.05,623.857L1212.35,624.704L1211.64,625.546L1210.93,626.386L1210.21,627.223L1209.49,628.057L1208.76,628.887L1208.02,629.714L1207.28,630.538L1206.53,631.358L1205.78,632.175L1205.02,632.989L1204.26,633.798L1203.49,634.604L1202.71,635.406L1201.93,636.204L1201.14,636.998L1200.35,637.789L1199.55,638.576L1198.75,639.358L1197.94,640.136L1197.13,640.91L1196.32,641.68L1195.5,642.446L1194.67,643.207L1193.84,643.964L1193.01,644.716L1192.17,645.464L1191.33,646.208L1190.48,646.944L1188.78,648.41L1187.06,649.855L1185.32,651.28L1183.57,652.685L1181.81,654.07L1180.04,655.434L1178.25,656.777L1176.46,658.098L1174.65,659.398L1172.83,660.676L1171.01,661.931L1169.17,663.162L1167.33,664.371L1165.49,665.555L1163.63,666.715L1161.77,667.851L1159.91,668.962L1158.04,670.047L1156.16,671.107L1154.29,672.141L1152.41,673.148L1150.54,674.128L1148.66,675.082L1146.78,676.007L1144.9,676.905L1143.02,677.774L1141.15,678.615L1139.27,679.427L1137.35,680.236L1135.42,681.034L1133.48,681.818L1131.53,682.588L1129.56,683.343L1127.59,684.083L1125.61,684.807L1123.62,685.513L1121.62,686.202L1119.61,686.871L1117.6,687.522L1115.57,688.152L1113.54,688.761L1111.51,689.348L1109.47,689.913L1107.42,690.454L1105.37,690.972L1103.31,691.464L1101.25,691.931L1099.18,692.371L1097.11,692.784L1095.04,693.169L1092.97,693.526L1090.89,693.853L1088.81,694.149L1087.77,694.286L1086.73,694.415L1085.69,694.536L1084.64,694.648L1083.6,694.753L1082.56,694.85L1081.52,694.938L1080.48,695.017L1079.43,695.088L1078.39,695.151L1077.35,695.205L1076.31,695.25L1075.27,695.286L1074.23,695.313L1072.87,695.335L1071.52,695.342L1070.16,695.336L1068.81,695.315L1067.46,695.281L1066.11,695.234L1064.77,695.174L1063.42,695.101L1062.08,695.017L1060.74,694.92L1059.4,694.812L1058.06,694.692L1056.72,694.562L1055.39,694.421L1054.05,694.27L1052.72,694.108L1051.39,693.937L1050.06,693.757L1048.72,693.568L1047.39,693.37L1046.07,693.164L1044.74,692.95L1042.09,692.498L1039.43,692.019L1036.79,691.514L1034.14,690.986L1031.5,690.437L1028.86,689.871L1026.21,689.29L1023.57,688.696L1020.93,688.092L1015.65,686.865L1010.36,685.631L1005.07,684.409L1002.41,683.81L999.76,683.222L997.103,682.648L994.442,682.091L991.776,681.552L989.108,681.036L987.589,680.754L986.066,680.478L984.537,680.21L983.004,679.949L981.465,679.695L979.921,679.448L978.373,679.209L976.821,678.977L975.264,678.752L973.703,678.535L972.138,678.325L970.569,678.123L968.997,677.929L967.421,677.742L965.842,677.562L964.259,677.391L962.674,677.227L961.087,677.071L959.496,676.923L957.903,676.783L956.308,676.651L954.711,676.527L953.112,676.411L951.511,676.303L949.909,676.204L948.306,676.112L946.701,676.029L945.095,675.954L943.488,675.888L941.88,675.83L940.273,675.78L938.664,675.739L937.056,675.707L935.447,675.683L933.839,675.667L932.231,675.661L930.623,675.663L929.016,675.674L927.41,675.694L925.805,675.723L924.201,675.761L922.599,675.808L920.998,675.864L919.399,675.929L917.801,676.003L916.206,676.086L914.613,676.179L913.022,676.281L911.434,676.392L909.848,676.513L908.266,676.644L906.686,676.783L905.11,676.933L903.537,677.092L901.968,677.26L900.402,677.439L898.841,677.627L897.283,677.825L895.73,678.033L894.181,678.25L892.637,678.478L891.097,678.716L889.563,678.964L888.033,679.222L887.097,679.387L886.163,679.561L885.231,679.743L884.301,679.933L883.373,680.13L882.444,680.336L880.599,680.77L878.76,681.233L876.927,681.727L875.102,682.248L873.284,682.797L871.472,683.373L869.668,683.975L867.87,684.602L866.079,685.254L864.294,685.93L862.516,686.629L860.744,687.35L858.978,688.092L857.218,688.855L855.464,689.637L853.715,690.439L851.973,691.259L850.235,692.097L848.504,692.951L846.777,693.822L845.056,694.708L843.339,695.608L841.628,696.521L839.921,697.448L838.219,698.387L836.522,699.337L834.829,700.297L833.141,701.268L831.456,702.247L829.776,703.235L828.099,704.231L826.427,705.233L824.756,706.241L821.431,708.271L818.117,710.317L814.816,712.371L811.526,714.428L804.976,718.525L801.714,720.553L798.46,722.56L795.211,724.54L793.59,725.516L791.97,726.484L790.35,727.443L788.732,728.39L787.114,729.327L785.497,730.251L783.881,731.162L782.265,732.06L780.65,732.944L779.032,733.813L773.415,736.798L767.783,739.77L764.963,741.248L762.138,742.72L759.311,744.185L756.479,745.641L753.644,747.089L750.805,748.528L747.962,749.956L745.115,751.373L742.263,752.777L739.407,754.169L736.547,755.547L733.682,756.91L730.813,758.258L727.938,759.589L725.059,760.903L722.174,762.2L719.285,763.477L716.39,764.735L713.489,765.972L710.583,767.188L707.672,768.382L704.754,769.553L701.831,770.7L698.902,771.822L695.966,772.919L693.025,773.989L690.077,775.032L687.122,776.047L684.159,777.034L682.678,777.516L681.193,777.99L679.706,778.457L678.218,778.917L676.728,779.368L675.236,779.811L673.743,780.247L672.248,780.674L670.75,781.093L669.251,781.504L667.751,781.906L666.248,782.299L664.744,782.684L663.237,783.06L661.729,783.427L660.219,783.786L658.707,784.135L657.193,784.475L655.677,784.805L654.159,785.127L652.639,785.438L651.117,785.741L649.593,786.033L648.067,786.316L646.539,786.588L645.009,786.851L643.477,787.103L641.943,787.346L640.406,787.578L638.868,787.799L637.327,788.01L635.785,788.21L634.24,788.4L632.693,788.578L631.144,788.746L629.592,788.903L628.038,789.048L626.482,789.182L624.924,789.305L623.364,789.417L621.801,789.516L620.236,789.604L618.669,789.68L617.099,789.745L615.527,789.797L613.953,789.837L612.376,789.865L610.797,789.881L609.215,789.884Z"/>
        </g>
    </g>
</svg>
