<?xml version="1.0" encoding="UTF-8" standalone="no"?>
<!DOCTYPE svg PUBLIC "-//W3C//DTD SVG 1.1//EN" "http://www.w3.org/Graphics/SVG/1.1/DTD/svg11.dtd">
<svg width="100%" height="100%" viewBox="0 0 355 67" version="1.1" xmlns="http://www.w3.org/2000/svg" xmlns:xlink="http://www.w3.org/1999/xlink" xml:space="preserve" xmlns:serif="http://www.serif.com/" style="fill-rule:evenodd;clip-rule:evenodd;stroke-linejoin:round;stroke-miterlimit:1.41421;">
    <g transform="matrix(1,0,0,1,-467,-678)">
        <g transform="matrix(0.544103,0,0,0.544103,275.886,430.243)">
            <g transform="matrix(-0.674498,0.0126445,-0.00214292,-0.12069,1200.39,571.982)">
                <path d="M961.25,478.325C958.092,442.005 1044.88,299.022 1047.58,263.77C1052.06,205.298 934.782,29.796 891.717,47.283C875.429,53.898 850.122,122.497 826.368,194.712C801.461,270.429 775.406,348.801 768.96,366.502C680.811,608.579 476.317,156.047 448.745,113.332C436.709,94.685 290.675,541.601 306.574,563.332C326.81,590.991 461.052,732.551 486.675,755.401C504.234,771.06 524.761,787.225 546.783,796.244C559.93,801.629 574.278,803.127 588.287,804.642C657.688,812.152 719.814,781.459 779.727,749.532C814.446,731.031 848.796,701.906 888.26,695.105C920.63,689.528 956.688,690.843 988.859,696.916C1017.23,702.271 1044.99,711.848 1074.25,711.216C1096.71,710.73 1119.28,703.965 1139.83,695.212C1180.15,678.036 1235.11,748.685 1250.68,706.888C1264.43,669.991 1240.64,250.156 1223.35,284.838C1200.61,330.47 969.707,644.775 961.25,478.325" style="fill:rgb(79,155,88);"/>
                <clipPath id="_clip1">
                    <path d="M961.25,478.325C958.092,442.005 1044.88,299.022 1047.58,263.77C1052.06,205.298 934.782,29.796 891.717,47.283C875.429,53.898 850.122,122.497 826.368,194.712C801.461,270.429 775.406,348.801 768.96,366.502C680.811,608.579 476.317,156.047 448.745,113.332C436.709,94.685 290.675,541.601 306.574,563.332C326.81,590.991 461.052,732.551 486.675,755.401C504.234,771.06 524.761,787.225 546.783,796.244C559.93,801.629 574.278,803.127 588.287,804.642C657.688,812.152 719.814,781.459 779.727,749.532C814.446,731.031 848.796,701.906 888.26,695.105C920.63,689.528 956.688,690.843 988.859,696.916C1017.23,702.271 1044.99,711.848 1074.25,711.216C1096.71,710.73 1119.28,703.965 1139.83,695.212C1180.15,678.036 1235.11,748.685 1250.68,706.888C1264.43,669.991 1240.64,250.156 1223.35,284.838C1200.61,330.47 969.707,644.775 961.25,478.325"/>
                </clipPath>
                <g clip-path="url(#_clip1)">
                    <g transform="matrix(-1,-4.33681e-18,7.04731e-19,1,1623.02,-280.156)">
                        <path d="M961.25,478.325C958.092,442.005 1001.24,428.894 1003.94,393.642C1008.42,335.17 930.487,317.552 887.423,335.039C854.056,348.589 833.053,379.487 805.002,400.509C789.753,411.937 774.1,422.005 754.264,421.371C719.456,420.258 687.837,400.182 657.644,385.205C620.171,366.616 574.777,353.818 533.121,364.933C511.677,370.655 491.748,383.016 473.174,394.806C455.868,405.79 437.94,416.579 422.452,430.104C389.251,459.099 354.744,514.563 361.093,561.078C363.431,578.208 371.244,594.034 378.847,609.335C390.775,633.341 402.997,656.608 418.896,678.339C439.132,705.998 461.052,732.551 486.675,755.401C504.234,771.06 524.761,787.225 546.783,796.244C559.93,801.629 574.278,803.127 588.287,804.642C657.688,812.152 719.814,781.459 779.727,749.532C814.446,731.031 848.796,701.906 888.26,695.105C920.63,689.528 956.688,690.843 988.859,696.916C1017.23,702.271 1044.99,711.848 1074.25,711.216C1096.71,710.73 1119.28,703.965 1139.83,695.212C1180.15,678.036 1222.71,640.625 1238.29,598.828C1252.04,561.932 1244.23,520.539 1222.56,488.416C1211.89,472.606 1193.33,463.056 1176.25,455.974C1154.27,446.862 1126.62,438.429 1102.62,443.569C1089.72,446.332 1078.17,452.911 1067.09,459.838C1044.78,473.792 1021.88,491.903 994.182,491.36C984.727,491.174 968.41,485.252 961.25,478.325" style="fill:rgb(124,212,134);"/>
                        <clipPath id="_clip2">
                            <path d="M961.25,478.325C958.092,442.005 1001.24,428.894 1003.94,393.642C1008.42,335.17 930.487,317.552 887.423,335.039C854.056,348.589 833.053,379.487 805.002,400.509C789.753,411.937 774.1,422.005 754.264,421.371C719.456,420.258 687.837,400.182 657.644,385.205C620.171,366.616 574.777,353.818 533.121,364.933C511.677,370.655 491.748,383.016 473.174,394.806C455.868,405.79 437.94,416.579 422.452,430.104C389.251,459.099 354.744,514.563 361.093,561.078C363.431,578.208 371.244,594.034 378.847,609.335C390.775,633.341 402.997,656.608 418.896,678.339C439.132,705.998 461.052,732.551 486.675,755.401C504.234,771.06 524.761,787.225 546.783,796.244C559.93,801.629 574.278,803.127 588.287,804.642C657.688,812.152 719.814,781.459 779.727,749.532C814.446,731.031 848.796,701.906 888.26,695.105C920.63,689.528 956.688,690.843 988.859,696.916C1017.23,702.271 1044.99,711.848 1074.25,711.216C1096.71,710.73 1119.28,703.965 1139.83,695.212C1180.15,678.036 1222.71,640.625 1238.29,598.828C1252.04,561.932 1244.23,520.539 1222.56,488.416C1211.89,472.606 1193.33,463.056 1176.25,455.974C1154.27,446.862 1126.62,438.429 1102.62,443.569C1089.72,446.332 1078.17,452.911 1067.09,459.838C1044.78,473.792 1021.88,491.903 994.182,491.36C984.727,491.174 968.41,485.252 961.25,478.325"/>
                        </clipPath>
                        <g clip-path="url(#_clip2)">
                            <g transform="matrix(-0.755486,-0.678462,0.19506,-2.62774,1479.08,2614.65)">
                                <path d="M701.972,412.156C701.793,409.971 701.608,407.668 700.853,405.595C696.229,392.899 680.263,397.303 669.924,395.602C662.115,394.318 653.974,389.793 659.127,380.91C663.841,372.784 673.644,369.573 682.453,368.477C701.802,366.068 722.732,370.431 741.876,372.87C764.081,375.699 785.792,381.522 808.044,383.857C828.621,386.015 849.9,386.808 870.536,384.622C890.152,382.545 909.987,377.852 929.807,378.416C945.345,378.858 961.418,382.806 976.138,387.431C992.194,392.476 1021.96,399.866 1021.36,422.052C1021.11,431.665 1011.51,438.222 1003.1,440.65C991.88,443.888 981.253,440.503 970.046,439.637C962.374,439.044 954.777,440.485 947.407,442.505C931.062,446.984 910.159,458.443 893.2,450.567C883.851,446.226 879.725,437.764 873.322,430.315C867.166,423.153 858.104,417.377 848.625,416.003C838.875,414.589 830.263,418.377 823.698,425.438C817.664,431.927 815.301,438.374 805.856,440.665C787.121,445.208 768.853,432.274 749.707,435.113C735,437.294 720.251,441.389 707.039,448.262C682.489,461.033 659.251,480.265 631.759,486.323C619.246,489.081 606.568,487.928 594.229,484.906C578.116,480.961 561.492,475.012 545.061,480.628C526.509,486.97 514.278,505.406 495.59,512.043C489.525,514.197 477.293,516.534 473.501,509.028C469.71,501.521 476.375,490.592 479.075,483.694C484.999,468.561 490.206,443.112 477.528,429.759C465.947,417.562 451.087,424.888 439.046,432.333C434.994,434.838 425.239,442.857 422.529,436.461C420.433,431.513 421.078,425.731 422.38,420.677C428.235,397.952 453.202,391.115 473.97,395.941C493.937,400.581 508.054,415.676 524.51,426.818C546.363,441.614 576.029,452.569 602.851,450.502C615.235,449.548 624.174,442.771 631.533,433.125C636.699,426.354 642.249,415.484 651.892,414.361C656.195,413.859 660.417,414.744 664.405,416.387C667.103,417.498 669.673,418.985 672.148,420.528C681.377,426.279 695.436,437.96 701.241,420.493C702.078,417.974 701.972,412.156 701.972,412.156Z" style="fill:rgb(110,235,138);"/>
                            </g>
                        </g>
                    </g>
                    <g transform="matrix(-1.68307,0.0100791,-0.00250193,-6.78025,1449.69,4249.68)">
                        <path d="M110.234,508.671C142.503,518.939 108.967,557.83 136.324,571.14C143.27,574.505 150.82,574.609 157.811,571.434C192.78,555.951 233.99,547.13 280.508,543.957C282.876,543.797 285.251,543.944 287.6,544.397C287.602,544.39 287.604,544.391 287.606,544.391C291.177,545.079 293.997,548.944 294.537,553.89C295.076,558.835 293.206,563.684 289.941,565.807C289.429,566.14 288.917,566.473 288.403,566.807C284.064,569.628 281.446,575.895 281.839,582.521C282.233,589.148 285.554,594.736 290.168,596.535C296.386,598.958 302.751,601.439 308.355,603.623C319.711,608.049 331.821,606.876 342.623,600.304C358.736,590.502 383.303,575.556 401.586,564.433C417.94,554.483 435.907,550.74 453.646,553.588C504.086,561.616 539.912,571.699 562.657,583.652C579.492,592.569 598.314,590.64 614.023,578.389C621.375,572.695 628.997,566.751 635.395,561.761C645.747,553.688 656.533,546.738 667.658,540.973C681.089,534.013 697.728,525.391 697.728,525.391L600.286,677.52L289.044,676.199L80.478,600.74L110.234,508.671" style="fill:rgb(47,92,52);"/>
                    </g>
                </g>
            </g>
            <g transform="matrix(-0.586513,0.0109951,-0.00250405,-0.141029,1032.97,556.149)">
                <path d="M961.25,478.325C958.092,442.005 1001.24,428.894 1003.94,393.642C1008.42,335.17 833.053,379.487 805.002,400.509C789.753,411.937 774.1,422.005 754.264,421.371C719.456,420.258 574.777,353.818 533.121,364.933C511.677,370.655 491.748,383.016 473.174,394.806C455.868,405.79 437.94,416.579 422.452,430.104C389.251,459.099 354.744,514.563 361.093,561.078C363.431,578.208 393.8,645.239 410.004,652.766C517.522,702.71 711.946,840.939 888.26,695.105C913.57,674.17 956.688,690.843 988.859,696.916C1017.23,702.271 1044.99,711.848 1074.25,711.216C1096.71,710.73 1119.28,703.965 1139.83,695.212C1180.15,678.036 1078.17,452.911 1067.09,459.838C1044.78,473.792 1021.88,491.903 994.182,491.36C984.727,491.174 968.41,485.252 961.25,478.325" style="fill:rgb(79,155,88);"/>
                <clipPath id="_clip3">
                    <path d="M961.25,478.325C958.092,442.005 1001.24,428.894 1003.94,393.642C1008.42,335.17 833.053,379.487 805.002,400.509C789.753,411.937 774.1,422.005 754.264,421.371C719.456,420.258 574.777,353.818 533.121,364.933C511.677,370.655 491.748,383.016 473.174,394.806C455.868,405.79 437.94,416.579 422.452,430.104C389.251,459.099 354.744,514.563 361.093,561.078C363.431,578.208 393.8,645.239 410.004,652.766C517.522,702.71 711.946,840.939 888.26,695.105C913.57,674.17 956.688,690.843 988.859,696.916C1017.23,702.271 1044.99,711.848 1074.25,711.216C1096.71,710.73 1119.28,703.965 1139.83,695.212C1180.15,678.036 1078.17,452.911 1067.09,459.838C1044.78,473.792 1021.88,491.903 994.182,491.36C984.727,491.174 968.41,485.252 961.25,478.325"/>
                </clipPath>
                <g clip-path="url(#_clip3)">
                    <g transform="matrix(-1,-4.33681e-18,7.04731e-19,1,1623.07,-181.304)">
                        <path d="M961.25,478.325C958.092,442.005 1001.24,428.894 1003.94,393.642C1008.42,335.17 930.487,317.552 887.423,335.039C854.056,348.589 833.053,379.487 805.002,400.509C789.753,411.937 774.1,422.005 754.264,421.371C719.456,420.258 687.837,400.182 657.644,385.205C620.171,366.616 574.777,353.818 533.121,364.933C511.677,370.655 491.748,383.016 473.174,394.806C455.868,405.79 437.94,416.579 422.452,430.104C389.251,459.099 354.744,514.563 361.093,561.078C363.431,578.208 371.244,594.034 378.847,609.335C390.775,633.341 402.997,656.608 418.896,678.339C439.132,705.998 461.052,732.551 486.675,755.401C504.234,771.06 524.761,787.225 546.783,796.244C559.93,801.629 574.278,803.127 588.287,804.642C657.688,812.152 719.814,781.459 779.727,749.532C814.446,731.031 848.796,701.906 888.26,695.105C920.63,689.528 956.688,690.843 988.859,696.916C1017.23,702.271 1044.99,711.848 1074.25,711.216C1096.71,710.73 1119.28,703.965 1139.83,695.212C1180.15,678.036 1222.71,640.625 1238.29,598.828C1252.04,561.932 1244.23,520.539 1222.56,488.416C1211.89,472.606 1193.33,463.056 1176.25,455.974C1154.27,446.862 1126.62,438.429 1102.62,443.569C1089.72,446.332 1078.17,452.911 1067.09,459.838C1044.78,473.792 1021.88,491.903 994.182,491.36C984.727,491.174 968.41,485.252 961.25,478.325" style="fill:rgb(124,212,134);"/>
                        <clipPath id="_clip4">
                            <path d="M961.25,478.325C958.092,442.005 1001.24,428.894 1003.94,393.642C1008.42,335.17 930.487,317.552 887.423,335.039C854.056,348.589 833.053,379.487 805.002,400.509C789.753,411.937 774.1,422.005 754.264,421.371C719.456,420.258 687.837,400.182 657.644,385.205C620.171,366.616 574.777,353.818 533.121,364.933C511.677,370.655 491.748,383.016 473.174,394.806C455.868,405.79 437.94,416.579 422.452,430.104C389.251,459.099 354.744,514.563 361.093,561.078C363.431,578.208 371.244,594.034 378.847,609.335C390.775,633.341 402.997,656.608 418.896,678.339C439.132,705.998 461.052,732.551 486.675,755.401C504.234,771.06 524.761,787.225 546.783,796.244C559.93,801.629 574.278,803.127 588.287,804.642C657.688,812.152 719.814,781.459 779.727,749.532C814.446,731.031 848.796,701.906 888.26,695.105C920.63,689.528 956.688,690.843 988.859,696.916C1017.23,702.271 1044.99,711.848 1074.25,711.216C1096.71,710.73 1119.28,703.965 1139.83,695.212C1180.15,678.036 1222.71,640.625 1238.29,598.828C1252.04,561.932 1244.23,520.539 1222.56,488.416C1211.89,472.606 1193.33,463.056 1176.25,455.974C1154.27,446.862 1126.62,438.429 1102.62,443.569C1089.72,446.332 1078.17,452.911 1067.09,459.838C1044.78,473.792 1021.88,491.903 994.182,491.36C984.727,491.174 968.41,485.252 961.25,478.325"/>
                        </clipPath>
                        <g clip-path="url(#_clip4)">
                            <g transform="matrix(-0.755486,-0.678462,0.19506,-2.62774,1479.08,2614.65)">
                                <path d="M701.972,412.156C701.793,409.971 701.608,407.668 700.853,405.595C696.229,392.899 680.263,397.303 669.924,395.602C662.115,394.318 653.974,389.793 659.127,380.91C663.841,372.784 673.644,369.573 682.453,368.477C701.802,366.068 722.732,370.431 741.876,372.87C764.081,375.699 785.792,381.522 808.044,383.857C828.621,386.015 849.9,386.808 870.536,384.622C890.152,382.545 909.987,377.852 929.807,378.416C945.345,378.858 961.418,382.806 976.138,387.431C992.194,392.476 1021.96,399.866 1021.36,422.052C1021.11,431.665 1011.51,438.222 1003.1,440.65C991.88,443.888 981.253,440.503 970.046,439.637C962.374,439.044 954.777,440.485 947.407,442.505C931.062,446.984 910.159,458.443 893.2,450.567C883.851,446.226 879.725,437.764 873.322,430.315C867.166,423.153 858.104,417.377 848.625,416.003C838.875,414.589 830.263,418.377 823.698,425.438C817.664,431.927 815.301,438.374 805.856,440.665C787.121,445.208 768.853,432.274 749.707,435.113C735,437.294 720.251,441.389 707.039,448.262C682.489,461.033 659.251,480.265 631.759,486.323C619.246,489.081 606.568,487.928 594.229,484.906C578.116,480.961 561.492,475.012 545.061,480.628C526.509,486.97 514.278,505.406 495.59,512.043C489.525,514.197 477.293,516.534 473.501,509.028C469.71,501.521 476.375,490.592 479.075,483.694C484.999,468.561 490.206,443.112 477.528,429.759C465.947,417.562 451.087,424.888 439.046,432.333C434.994,434.838 425.239,442.857 422.529,436.461C420.433,431.513 421.078,425.731 422.38,420.677C428.235,397.952 453.202,391.115 473.97,395.941C493.937,400.581 508.054,415.676 524.51,426.818C546.363,441.614 576.029,452.569 602.851,450.502C615.235,449.548 624.174,442.771 631.533,433.125C636.699,426.354 642.249,415.484 651.892,414.361C656.195,413.859 660.417,414.744 664.405,416.387C667.103,417.498 669.673,418.985 672.148,420.528C681.377,426.279 695.436,437.96 701.241,420.493C702.078,417.974 701.972,412.156 701.972,412.156Z" style="fill:rgb(110,235,138);"/>
                            </g>
                        </g>
                    </g>
                    <g transform="matrix(0.671328,-0.00694219,-0.0014446,-1.69006,104.834,1981.87)">
                        <path d="M307.034,619.33C414.349,586.832 519.421,563.801 633.514,571.851C765.711,581.179 890.499,623.965 1023.06,625.376C1070.95,625.886 1269.57,511.119 1269.4,616.371C1269.25,710.38 1170.58,772.973 1090.18,789.921C991.816,810.654 932.216,782.218 843.205,781.538C677.425,780.27 540.23,819.059 377.365,762.462C324.509,744.094 276.452,721.462 243.226,673.665C221.699,642.696 307.034,619.33 307.034,619.33Z" style="fill:rgb(64,114,75);"/>
                    </g>
                    <g transform="matrix(-3.29747,0.0146947,-0.00490179,-9.88523,2912.28,2805.05)">
                        <path d="M532.871,209.792C538.636,220.507 549.354,231.327 563.488,232.726C567.755,233.148 584.583,230.545 591.31,231.543C592.775,231.761 602.884,232.291 590.76,242.415C586.268,246.167 628.378,241.839 634.042,240.786C636.357,240.356 645.239,238.336 654.855,238.681C674.155,239.373 716.204,243.654 718.683,243.836C745.101,245.774 768.879,228.734 776.49,226.444C781.4,224.967 778.724,238.884 777.919,242.907C774.372,260.64 596.912,254.464 586.487,252.905C578.564,251.72 541.855,243.587 538.443,239.306C530.481,229.317 532.871,209.792 532.871,209.792Z" style="fill:rgb(47,92,52);"/>
                    </g>
                </g>
            </g>
            <g id="vvv" transform="matrix(0.501907,-0.0104851,-0.00264069,-0.120681,355.31,562.006)">
                <path d="M961.25,478.325C958.092,442.005 1001.24,428.894 1003.94,393.642C1008.42,335.17 927.411,160.322 884.347,177.809C850.98,191.359 774.1,422.005 754.264,421.371C719.456,420.258 685.964,350.433 657.644,385.205C608.124,446.006 400.997,779.28 407.802,808.19C434.139,920.079 889.173,692.693 889.783,692.36C908.94,681.881 957.745,691.043 988.859,696.916C1017.23,702.271 1044.99,711.848 1074.25,711.216C1096.71,710.73 1277.3,667.953 1292.88,626.157C1306.62,589.26 1190.31,466.804 1173.23,459.722C1151.26,450.61 1021.9,546.145 994.209,545.602C984.754,545.416 962.639,503.444 961.25,478.325" style="fill:rgb(79,155,88);"/>
                <clipPath id="_clip5">
                    <path d="M961.25,478.325C958.092,442.005 1001.24,428.894 1003.94,393.642C1008.42,335.17 927.411,160.322 884.347,177.809C850.98,191.359 774.1,422.005 754.264,421.371C719.456,420.258 685.964,350.433 657.644,385.205C608.124,446.006 400.997,779.28 407.802,808.19C434.139,920.079 889.173,692.693 889.783,692.36C908.94,681.881 957.745,691.043 988.859,696.916C1017.23,702.271 1044.99,711.848 1074.25,711.216C1096.71,710.73 1277.3,667.953 1292.88,626.157C1306.62,589.26 1190.31,466.804 1173.23,459.722C1151.26,450.61 1021.9,546.145 994.209,545.602C984.754,545.416 962.639,503.444 961.25,478.325"/>
                </clipPath>
                <g clip-path="url(#_clip5)">
                    <g transform="matrix(-1,-4.33681e-18,7.04731e-19,1,1623.02,-280.156)">
                        <path d="M961.25,478.325C958.092,442.005 1001.24,428.894 1003.94,393.642C1008.42,335.17 930.487,317.552 887.423,335.039C854.056,348.589 833.053,379.487 805.002,400.509C789.753,411.937 774.1,422.005 754.264,421.371C719.456,420.258 687.837,400.182 657.644,385.205C620.171,366.616 574.777,353.818 533.121,364.933C511.677,370.655 491.748,383.016 473.174,394.806C455.868,405.79 437.94,416.579 422.452,430.104C389.251,459.099 354.744,514.563 361.093,561.078C363.431,578.208 371.244,594.034 378.847,609.335C390.775,633.341 402.997,656.608 418.896,678.339C439.132,705.998 461.052,732.551 486.675,755.401C504.234,771.06 524.761,787.225 546.783,796.244C559.93,801.629 574.278,803.127 588.287,804.642C657.688,812.152 719.814,781.459 779.727,749.532C814.446,731.031 848.796,701.906 888.26,695.105C920.63,689.528 956.688,690.843 988.859,696.916C1017.23,702.271 1044.99,711.848 1074.25,711.216C1096.71,710.73 1119.28,703.965 1139.83,695.212C1180.15,678.036 1222.71,640.625 1238.29,598.828C1252.04,561.932 1244.23,520.539 1222.56,488.416C1211.89,472.606 1193.33,463.056 1176.25,455.974C1154.27,446.862 1126.62,438.429 1102.62,443.569C1089.72,446.332 1078.17,452.911 1067.09,459.838C1044.78,473.792 1021.88,491.903 994.182,491.36C984.727,491.174 968.41,485.252 961.25,478.325" style="fill:rgb(124,212,134);"/>
                        <clipPath id="_clip6">
                            <path d="M961.25,478.325C958.092,442.005 1001.24,428.894 1003.94,393.642C1008.42,335.17 930.487,317.552 887.423,335.039C854.056,348.589 833.053,379.487 805.002,400.509C789.753,411.937 774.1,422.005 754.264,421.371C719.456,420.258 687.837,400.182 657.644,385.205C620.171,366.616 574.777,353.818 533.121,364.933C511.677,370.655 491.748,383.016 473.174,394.806C455.868,405.79 437.94,416.579 422.452,430.104C389.251,459.099 354.744,514.563 361.093,561.078C363.431,578.208 371.244,594.034 378.847,609.335C390.775,633.341 402.997,656.608 418.896,678.339C439.132,705.998 461.052,732.551 486.675,755.401C504.234,771.06 524.761,787.225 546.783,796.244C559.93,801.629 574.278,803.127 588.287,804.642C657.688,812.152 719.814,781.459 779.727,749.532C814.446,731.031 848.796,701.906 888.26,695.105C920.63,689.528 956.688,690.843 988.859,696.916C1017.23,702.271 1044.99,711.848 1074.25,711.216C1096.71,710.73 1119.28,703.965 1139.83,695.212C1180.15,678.036 1222.71,640.625 1238.29,598.828C1252.04,561.932 1244.23,520.539 1222.56,488.416C1211.89,472.606 1193.33,463.056 1176.25,455.974C1154.27,446.862 1126.62,438.429 1102.62,443.569C1089.72,446.332 1078.17,452.911 1067.09,459.838C1044.78,473.792 1021.88,491.903 994.182,491.36C984.727,491.174 968.41,485.252 961.25,478.325"/>
                        </clipPath>
                        <g clip-path="url(#_clip6)">
                            <g transform="matrix(-0.755486,-0.678462,0.19506,-2.62774,1479.08,2614.65)">
                                <path d="M701.972,412.156C701.793,409.971 701.608,407.668 700.853,405.595C696.229,392.899 680.263,397.303 669.924,395.602C662.115,394.318 653.974,389.793 659.127,380.91C663.841,372.784 673.644,369.573 682.453,368.477C701.802,366.068 722.732,370.431 741.876,372.87C764.081,375.699 785.792,381.522 808.044,383.857C828.621,386.015 849.9,386.808 870.536,384.622C890.152,382.545 909.987,377.852 929.807,378.416C945.345,378.858 961.418,382.806 976.138,387.431C992.194,392.476 1021.96,399.866 1021.36,422.052C1021.11,431.665 1011.51,438.222 1003.1,440.65C991.88,443.888 981.253,440.503 970.046,439.637C962.374,439.044 954.777,440.485 947.407,442.505C931.062,446.984 910.159,458.443 893.2,450.567C883.851,446.226 879.725,437.764 873.322,430.315C867.166,423.153 858.104,417.377 848.625,416.003C838.875,414.589 830.263,418.377 823.698,425.438C817.664,431.927 815.301,438.374 805.856,440.665C787.121,445.208 768.853,432.274 749.707,435.113C735,437.294 720.251,441.389 707.039,448.262C682.489,461.033 659.251,480.265 631.759,486.323C619.246,489.081 606.568,487.928 594.229,484.906C578.116,480.961 561.492,475.012 545.061,480.628C526.509,486.97 514.278,505.406 495.59,512.043C489.525,514.197 477.293,516.534 473.501,509.028C469.71,501.521 476.375,490.592 479.075,483.694C484.999,468.561 490.206,443.112 477.528,429.759C465.947,417.562 451.087,424.888 439.046,432.333C434.994,434.838 425.239,442.857 422.529,436.461C420.433,431.513 421.078,425.731 422.38,420.677C428.235,397.952 453.202,391.115 473.97,395.941C493.937,400.581 508.054,415.676 524.51,426.818C546.363,441.614 576.029,452.569 602.851,450.502C615.235,449.548 624.174,442.771 631.533,433.125C636.699,426.354 642.249,415.484 651.892,414.361C656.195,413.859 660.417,414.744 664.405,416.387C667.103,417.498 669.673,418.985 672.148,420.528C681.377,426.279 695.436,437.96 701.241,420.493C702.078,417.974 701.972,412.156 701.972,412.156Z" style="fill:rgb(110,235,138);"/>
                            </g>
                        </g>
                    </g>
                    <g transform="matrix(0.485897,-0.00502465,-0.0014446,-1.69006,339.529,1984.17)">
                        <path d="M307.034,619.33C414.349,586.832 519.421,563.801 633.514,571.851C765.711,581.179 890.499,623.965 1023.06,625.376C1070.95,625.886 1269.57,511.119 1269.4,616.371C1269.25,710.38 1170.58,772.973 1090.18,789.921C991.816,810.654 930.381,763.545 843.205,781.538C673.575,816.548 227.429,744.113 196.271,676.836C180.421,642.612 307.034,619.33 307.034,619.33Z" style="fill:rgb(52,93,61);"/>
                    </g>
                    <g transform="matrix(2.26173,-0.0100791,-0.00336213,-6.78025,-356.745,5346.77)">
                        <path d="M327.261,663.892C327.388,662.05 328.164,660.415 329.333,659.525C330.502,658.634 331.913,658.604 333.101,659.444C373.94,688.198 413.933,708.47 453.018,719.636C457.114,720.79 461.312,721.073 465.469,720.477C469.819,719.867 475.846,719.003 481.367,718.211C490.677,716.876 500.074,719.063 508.561,724.54C517.868,730.546 530.313,738.578 539.375,744.426C547.017,749.358 555.757,749.881 563.677,745.88C568.965,743.208 575.072,740.124 580.122,737.573C581.891,736.679 583.104,734.405 583.201,731.796C583.299,729.188 582.264,726.751 580.571,725.607C580.568,725.605 580.565,725.604 580.563,725.602C578.552,724.243 577.237,721.471 577.132,718.372C577.027,715.274 578.15,712.343 580.059,710.729C582.961,708.277 586.072,705.648 588.691,703.435C592.703,700.045 597.422,698.626 602.086,699.408C617.061,701.918 651.6,707.707 668.871,710.602C675.631,711.736 682.486,711.08 689.07,708.67C737.728,690.864 757.516,683.225 750.131,685.154L723.267,757.879L503.368,772.956L323.464,718.942C323.464,718.942 326.081,681.007 327.261,663.892Z" style="fill:rgb(47,92,52);"/>
                    </g>
                </g>
            </g>
        </g>
    </g>
</svg>
