<?xml version="1.0" encoding="UTF-8" standalone="no"?>
<!DOCTYPE svg PUBLIC "-//W3C//DTD SVG 1.1//EN" "http://www.w3.org/Graphics/SVG/1.1/DTD/svg11.dtd">
<svg width="100%" height="100%" viewBox="0 0 124 33" version="1.1" xmlns="http://www.w3.org/2000/svg" xmlns:xlink="http://www.w3.org/1999/xlink" xml:space="preserve" xmlns:serif="http://www.serif.com/" style="fill-rule:evenodd;clip-rule:evenodd;stroke-linecap:round;stroke-linejoin:round;stroke-miterlimit:1.5;">
    <g transform="matrix(1,0,0,1,-967,-345)">
        <g transform="matrix(-0.315244,0,0,0.213951,1119.5,282.047)">
            <path d="M95.831,308.902C95.831,308.902 95.831,308.904 95.831,308.908C95.831,320.134 101.8,329.392 109.409,329.969C118.446,330.654 130.669,331.58 141.852,332.428C160.387,333.832 177.546,347.271 188.705,369.123C188.706,369.126 188.708,369.129 188.709,369.132C191.58,374.753 196.12,377.977 200.892,377.783C205.665,377.589 210.078,374.001 212.733,368.155C217.859,356.871 223.352,344.78 226.127,338.672C227.271,336.155 229.191,334.644 231.247,334.644C231.999,334.644 232.821,334.644 233.642,334.644C237.251,334.644 240.676,336.988 243.004,341.052C244.298,343.311 245.83,345.986 247.423,348.767C250.15,353.526 254.22,356.154 258.443,355.882C262.666,355.61 266.565,352.468 268.999,347.375C269.098,347.168 269.197,346.962 269.294,346.758C271.684,341.758 275.575,338.784 279.725,338.784C279.726,338.784 279.726,338.784 279.727,338.784C293.753,338.784 307.071,347.861 316.153,363.611C321.059,372.12 326.738,381.969 332.375,391.746C339.778,404.584 350.499,412.255 361.925,412.889C373.35,413.523 384.432,407.061 392.469,395.079C392.47,395.077 392.472,395.075 392.473,395.073C396.863,388.528 402.846,384.837 409.091,384.821C409.434,384.82 409.783,384.819 410.136,384.818C428.354,384.771 445.995,375.404 460.046,358.319C463.733,353.835 467.371,349.411 470.487,345.622C476.204,338.67 479.515,328.318 479.515,317.396C479.515,317.393 479.515,317.39 479.515,317.387C479.515,307.784 474.232,300 467.715,300C408.535,300 145.187,300 101.871,300C98.535,300 95.831,303.984 95.831,308.899C95.831,308.901 95.831,308.902 95.831,308.902Z" style="fill:rgb(196,92,12);"/>
            <clipPath id="_clip1">
                <path d="M95.831,308.902C95.831,308.902 95.831,308.904 95.831,308.908C95.831,320.134 101.8,329.392 109.409,329.969C118.446,330.654 130.669,331.58 141.852,332.428C160.387,333.832 177.546,347.271 188.705,369.123C188.706,369.126 188.708,369.129 188.709,369.132C191.58,374.753 196.12,377.977 200.892,377.783C205.665,377.589 210.078,374.001 212.733,368.155C217.859,356.871 223.352,344.78 226.127,338.672C227.271,336.155 229.191,334.644 231.247,334.644C231.999,334.644 232.821,334.644 233.642,334.644C237.251,334.644 240.676,336.988 243.004,341.052C244.298,343.311 245.83,345.986 247.423,348.767C250.15,353.526 254.22,356.154 258.443,355.882C262.666,355.61 266.565,352.468 268.999,347.375C269.098,347.168 269.197,346.962 269.294,346.758C271.684,341.758 275.575,338.784 279.725,338.784C279.726,338.784 279.726,338.784 279.727,338.784C293.753,338.784 307.071,347.861 316.153,363.611C321.059,372.12 326.738,381.969 332.375,391.746C339.778,404.584 350.499,412.255 361.925,412.889C373.35,413.523 384.432,407.061 392.469,395.079C392.47,395.077 392.472,395.075 392.473,395.073C396.863,388.528 402.846,384.837 409.091,384.821C409.434,384.82 409.783,384.819 410.136,384.818C428.354,384.771 445.995,375.404 460.046,358.319C463.733,353.835 467.371,349.411 470.487,345.622C476.204,338.67 479.515,328.318 479.515,317.396C479.515,317.393 479.515,317.39 479.515,317.387C479.515,307.784 474.232,300 467.715,300C408.535,300 145.187,300 101.871,300C98.535,300 95.831,303.984 95.831,308.899C95.831,308.901 95.831,308.902 95.831,308.902Z"/>
            </clipPath>
            <g clip-path="url(#_clip1)">
                <g id="_-Kurve-" serif:id="(Kurve)" transform="matrix(-1.54781,0,0,2.2806,1098.64,154.038)">
                    <path d="M397.731,65.968C408.599,74.201 421.48,79.681 434.976,81.729C442.469,82.866 451.943,83.489 459.494,83.68C463.485,83.78 475.775,83.324 478.881,82.937C485.55,82.105 513.668,81.122 516.035,80.536C518.415,79.946 567.126,87.256 572.921,88.018C575.762,88.392 578.878,88.46 581.592,87.425C593.729,82.794 600.878,74.878 613.996,72.752C621.722,71.5 627.683,78.277 634.998,75.668C637.946,74.616 650.839,65.832 653.064,69.224C656.379,74.278 615.763,115.11 599.888,118.974C586.957,122.122 409.001,112.946 406.478,109.781C401.256,103.23 397.731,65.968 397.731,65.968Z" style="fill:rgb(215,121,47);"/>
                    <path d="M398.244,60.87L398.93,60.987L399.595,61.195L400.225,61.492L400.809,61.871L401.304,62.244L401.786,62.6L402.27,62.952L402.757,63.301L403.247,63.645L403.74,63.986L404.235,64.323L404.732,64.656L405.232,64.985L405.735,65.311L406.24,65.632L406.748,65.95L407.258,66.263L407.77,66.573L408.285,66.879L408.802,67.18L409.322,67.478L409.843,67.771L410.367,68.061L410.893,68.346L411.421,68.628L411.952,68.905L412.485,69.178L413.019,69.447L413.556,69.712L414.095,69.973L414.635,70.23L415.178,70.482L415.722,70.731L416.269,70.975L416.817,71.215L417.367,71.45L417.919,71.682L418.473,71.909L419.028,72.132L419.585,72.35L420.144,72.564L420.704,72.774L421.266,72.98L421.83,73.181L422.395,73.378L422.962,73.57L423.529,73.758L424.099,73.942L424.67,74.121L425.242,74.295L425.816,74.466L426.391,74.631L426.967,74.793L427.545,74.949L428.124,75.102L428.704,75.249L429.285,75.393L429.867,75.531L430.45,75.665L431.035,75.795L431.62,75.92L432.207,76.04L432.794,76.155L433.382,76.266L433.972,76.373L434.562,76.474L435.153,76.571L435.747,76.664L436.42,76.763L437.108,76.861L437.808,76.956L438.519,77.049L439.24,77.139L439.969,77.226L440.708,77.31L441.454,77.392L442.206,77.471L442.965,77.548L443.729,77.622L444.498,77.693L445.27,77.761L446.045,77.827L446.822,77.89L447.6,77.95L448.379,78.008L449.158,78.063L449.936,78.115L450.713,78.165L451.486,78.212L452.257,78.256L453.024,78.298L453.786,78.337L454.543,78.374L455.293,78.408L456.037,78.439L456.773,78.468L457.5,78.494L458.218,78.518L458.926,78.539L459.613,78.557L459.969,78.564L460.371,78.568L460.824,78.57L461.321,78.569L461.858,78.565L462.431,78.558L463.036,78.549L463.67,78.538L464.327,78.524L465.006,78.508L465.702,78.49L466.412,78.469L467.133,78.447L467.858,78.424L469.328,78.371L470.056,78.343L470.779,78.313L471.494,78.282L472.196,78.25L472.881,78.218L473.547,78.184L474.19,78.15L474.806,78.115L475.392,78.08L475.943,78.045L476.456,78.01L476.926,77.975L477.347,77.941L477.714,77.909L478.016,77.879L478.286,77.848L478.627,77.807L479.029,77.763L479.452,77.72L479.899,77.677L480.367,77.635L480.858,77.593L481.371,77.552L481.909,77.51L483.035,77.427L484.242,77.344L485.519,77.262L486.857,77.179L488.25,77.096L489.688,77.014L491.163,76.932L492.668,76.85L495.729,76.688L498.805,76.528L501.826,76.371L504.724,76.218L506.102,76.143L507.423,76.07L508.678,75.998L509.856,75.927L510.948,75.859L511.944,75.792L512.839,75.728L513.235,75.697L513.603,75.667L513.937,75.639L514.235,75.611L514.491,75.585L514.701,75.562L514.858,75.542L514.938,75.531L514.977,75.522L515.313,75.457L515.706,75.411L516.013,75.389L516.278,75.38L516.522,75.378L516.758,75.38L516.99,75.386L517.224,75.395L517.464,75.407L517.72,75.421L518.231,75.456L518.791,75.501L519.395,75.554L520.042,75.616L520.733,75.686L521.467,75.764L522.243,75.85L523.06,75.943L523.916,76.043L524.809,76.15L525.738,76.263L526.701,76.383L527.696,76.508L528.722,76.639L529.777,76.775L531.96,77.062L534.234,77.365L536.582,77.683L538.988,78.012L541.435,78.351L543.908,78.696L546.39,79.045L548.865,79.395L551.317,79.744L553.729,80.088L558.369,80.755L562.655,81.374L566.455,81.923L569.639,82.382L570.956,82.571L572.068,82.729L572.952,82.852L573.589,82.938L573.817,82.968L574.045,82.995L574.272,83.02L574.498,83.043L574.724,83.064L574.947,83.083L575.169,83.1L575.39,83.114L575.609,83.125L575.826,83.134L576.041,83.141L576.253,83.144L576.463,83.145L576.67,83.143L576.875,83.139L577.076,83.131L577.273,83.121L577.468,83.108L577.659,83.092L577.846,83.073L578.029,83.051L578.209,83.026L578.385,82.999L578.555,82.969L578.722,82.937L578.885,82.901L579.042,82.863L579.209,82.819L579.272,82.802L579.345,82.78L579.418,82.758L579.49,82.735L579.56,82.712L579.629,82.687L579.697,82.663L579.773,82.635L580.021,82.539L580.276,82.44L580.529,82.339L580.78,82.237L581.03,82.134L581.28,82.03L581.528,81.925L581.769,81.821L582.266,81.603L582.752,81.384L583.234,81.16L583.714,80.933L584.19,80.702L584.662,80.468L585.132,80.229L585.6,79.988L586.066,79.744L586.53,79.496L586.992,79.246L587.453,78.992L587.913,78.737L588.373,78.479L588.832,78.218L589.288,77.957L590.211,77.423L591.133,76.885L592.991,75.796L593.93,75.249L594.408,74.974L594.886,74.699L595.367,74.426L595.852,74.153L596.341,73.881L596.834,73.61L597.331,73.34L597.833,73.072L598.339,72.807L598.851,72.543L599.369,72.282L599.891,72.024L600.42,71.769L600.954,71.518L601.494,71.27L602.035,71.029L602.317,70.906L602.595,70.787L602.874,70.669L603.156,70.552L603.438,70.437L603.722,70.323L604.009,70.21L604.298,70.098L604.587,69.989L604.879,69.88L605.173,69.773L605.469,69.667L605.766,69.564L606.065,69.461L606.367,69.36L606.67,69.261L606.976,69.164L607.284,69.069L607.593,68.975L607.904,68.883L608.218,68.793L608.533,68.705L608.851,68.619L609.171,68.535L609.492,68.453L609.817,68.373L610.143,68.295L610.471,68.219L610.801,68.146L611.134,68.074L611.469,68.005L611.806,67.938L612.145,67.874L612.487,67.811L612.83,67.752L613.185,67.693L613.434,67.654L613.691,67.619L613.947,67.587L614.202,67.559L614.456,67.536L614.708,67.516L614.959,67.5L615.209,67.488L615.457,67.479L615.704,67.474L615.95,67.472L616.194,67.474L616.436,67.479L616.677,67.487L616.915,67.498L617.153,67.512L617.389,67.529L617.622,67.549L617.854,67.571L618.084,67.596L618.312,67.624L618.538,67.654L618.762,67.686L618.985,67.72L619.205,67.756L619.423,67.795L619.64,67.835L619.854,67.877L620.068,67.921L620.289,67.969L620.692,68.061L621.1,68.161L621.502,68.267L621.894,68.376L622.28,68.488L622.659,68.604L623.03,68.721L623.395,68.84L623.752,68.96L624.104,69.08L624.452,69.202L625.115,69.438L626.38,69.896L626.983,70.11L627.268,70.209L627.55,70.306L627.827,70.398L628.097,70.485L628.362,70.568L628.62,70.646L628.872,70.718L629.116,70.785L629.355,70.846L629.588,70.901L629.826,70.954L629.925,70.974L630.034,70.995L630.142,71.015L630.249,71.034L630.353,71.051L630.454,71.066L630.556,71.08L630.656,71.093L630.755,71.105L630.852,71.115L630.947,71.123L631.041,71.131L631.134,71.136L631.226,71.141L631.316,71.144L631.406,71.146L631.495,71.147L631.581,71.146L631.667,71.144L631.754,71.141L631.839,71.137L631.923,71.131L632.006,71.124L632.09,71.116L632.173,71.106L632.256,71.095L632.339,71.083L632.422,71.069L632.505,71.053L632.587,71.037L632.671,71.019L632.756,70.998L632.84,70.977L632.925,70.954L633.011,70.929L633.098,70.902L633.187,70.872L633.253,70.85L633.261,70.846L633.295,70.833L633.37,70.8L633.476,70.75L633.613,70.685L633.774,70.605L633.956,70.513L634.156,70.409L634.373,70.294L634.602,70.172L635.115,69.894L635.672,69.588L636.272,69.257L637.574,68.536L638.271,68.154L638.992,67.762L639.727,67.369L640.108,67.167L640.489,66.968L640.872,66.77L641.259,66.572L641.649,66.376L642.041,66.182L642.436,65.989L642.832,65.799L643.23,65.613L643.629,65.43L644.03,65.25L644.432,65.075L644.836,64.905L645.24,64.74L645.646,64.58L646.054,64.426L646.452,64.282L646.668,64.208L646.874,64.139L647.082,64.071L647.289,64.006L647.498,63.943L647.708,63.881L647.919,63.822L648.131,63.766L648.346,63.712L648.563,63.66L648.78,63.611L648.999,63.565L649.223,63.522L649.449,63.483L649.677,63.447L649.908,63.415L650.144,63.387L650.384,63.364L650.629,63.345L650.877,63.333L651.132,63.326L651.394,63.326L651.661,63.334L651.934,63.35L652.214,63.376L652.502,63.412L652.799,63.46L653.101,63.522L653.41,63.598L653.725,63.69L654.048,63.8L654.374,63.931L654.704,64.082L655.034,64.255L655.36,64.449L655.681,64.668L655.997,64.91L656.302,65.174L656.592,65.459L656.865,65.763L657.118,66.08L657.361,66.428L657.578,66.788L657.771,67.164L657.937,67.548L658.072,67.93L658.179,68.306L658.257,68.661L658.315,69.006L658.354,69.352L658.374,69.674L658.38,69.979L658.374,70.279L658.356,70.562L658.33,70.841L658.295,71.106L658.254,71.358L658.206,71.608L658.153,71.847L658.096,72.08L658.034,72.309L657.967,72.533L657.898,72.75L657.827,72.961L657.751,73.173L657.671,73.382L657.59,73.587L657.504,73.794L657.418,73.994L657.328,74.194L657.235,74.396L657.14,74.595L657.041,74.794L656.942,74.991L656.839,75.188L656.733,75.389L656.624,75.588L656.514,75.785L656.402,75.984L656.282,76.191L656.048,76.585L655.8,76.99L655.541,77.398L655.273,77.811L654.995,78.228L654.707,78.649L654.41,79.075L654.102,79.507L653.785,79.943L653.459,80.384L653.124,80.831L652.779,81.282L652.425,81.738L652.063,82.2L651.691,82.666L651.311,83.137L650.923,83.613L650.525,84.094L650.12,84.579L649.706,85.068L649.285,85.561L648.856,86.059L648.419,86.56L647.975,87.065L647.523,87.574L647.065,88.086L646.599,88.601L646.126,89.12L645.648,89.641L645.162,90.165L644.67,90.692L644.173,91.221L643.669,91.753L643.16,92.285L642.645,92.821L642.125,93.357L641.6,93.896L641.069,94.435L640.534,94.976L639.994,95.517L639.45,96.059L638.901,96.602L638.349,97.145L637.792,97.688L637.232,98.231L636.668,98.773L636.1,99.316L635.53,99.857L634.957,100.398L634.381,100.937L633.802,101.476L633.221,102.013L632.637,102.548L632.052,103.081L631.464,103.613L630.875,104.142L630.284,104.669L629.692,105.193L629.099,105.714L628.504,106.233L627.909,106.748L627.314,107.259L626.717,107.768L626.12,108.272L625.524,108.772L624.928,109.268L624.331,109.76L623.735,110.247L623.14,110.729L622.545,111.207L621.952,111.679L621.359,112.146L620.767,112.607L620.177,113.063L619.588,113.513L619.001,113.956L618.416,114.393L617.833,114.824L617.252,115.249L616.673,115.666L616.097,116.076L615.523,116.479L614.952,116.875L614.383,117.263L613.818,117.643L613.255,118.016L612.695,118.38L612.139,118.736L611.586,119.083L611.035,119.422L610.489,119.752L609.945,120.073L609.405,120.385L608.874,120.684L608.601,120.835L608.335,120.98L608.068,121.123L607.804,121.263L607.54,121.401L607.277,121.537L607.014,121.67L606.753,121.8L606.491,121.927L606.231,122.052L605.972,122.175L605.712,122.295L605.453,122.412L605.196,122.526L604.938,122.638L604.682,122.747L604.425,122.853L604.168,122.956L603.913,123.056L603.658,123.153L603.402,123.248L603.146,123.339L602.891,123.428L602.637,123.512L602.381,123.594L602.125,123.673L601.871,123.748L601.614,123.82L601.357,123.888L601.082,123.957L600.808,124.02L600.518,124.078L600.23,124.13L599.942,124.177L599.65,124.219L599.353,124.259L599.049,124.295L598.736,124.33L598.415,124.362L598.085,124.392L597.744,124.42L597.393,124.447L597.031,124.473L596.659,124.497L596.275,124.52L595.88,124.541L595.473,124.561L595.05,124.581L594.185,124.615L593.269,124.646L592.306,124.672L591.298,124.694L590.245,124.712L589.147,124.726L588.006,124.736L586.821,124.743L585.594,124.746L584.325,124.745L583.015,124.741L581.666,124.733L580.277,124.722L578.85,124.707L577.386,124.689L575.885,124.668L574.349,124.644L572.779,124.616L571.174,124.585L569.537,124.552L567.868,124.515L566.168,124.475L564.438,124.433L562.679,124.388L560.893,124.339L559.079,124.289L557.239,124.235L555.374,124.179L553.484,124.12L551.572,124.059L549.637,123.995L547.681,123.929L545.704,123.861L543.708,123.79L541.693,123.717L537.614,123.564L533.472,123.403L529.275,123.234L525.032,123.057L520.75,122.874L516.436,122.683L512.1,122.486L507.747,122.284L503.387,122.076L499.027,121.862L494.674,121.645L490.337,121.423L486.023,121.197L481.739,120.968L477.495,120.735L473.297,120.501L469.153,120.264L465.071,120.025L461.059,119.786L457.124,119.545L453.274,119.304L449.518,119.063L447.676,118.942L445.861,118.822L444.073,118.702L442.313,118.582L440.582,118.462L438.88,118.343L437.21,118.224L435.572,118.105L433.966,117.988L432.394,117.87L430.857,117.753L429.355,117.637L427.89,117.522L426.462,117.407L425.073,117.293L423.723,117.18L422.413,117.067L421.144,116.956L419.917,116.846L418.732,116.736L417.592,116.628L416.495,116.52L415.444,116.414L414.438,116.309L413.479,116.204L412.567,116.101L411.702,115.998L410.884,115.897L410.114,115.796L409.397,115.697L409.048,115.646L408.715,115.595L408.393,115.545L408.082,115.494L407.782,115.443L407.492,115.392L407.21,115.339L406.936,115.285L406.67,115.23L406.408,115.172L406.149,115.11L405.889,115.043L405.625,114.969L405.35,114.884L405.052,114.782L404.717,114.65L404.374,114.493L404.111,114.354L403.857,114.205L403.568,114.014L403.239,113.763L403.059,113.601L402.688,113.229L402.551,113.077L402.353,112.824L402.236,112.668L402.124,112.513L402.017,112.362L401.912,112.206L401.812,112.054L401.712,111.898L401.607,111.727L401.432,111.431L401.257,111.118L401.089,110.802L400.925,110.479L400.769,110.154L400.618,109.827L400.471,109.496L400.327,109.159L400.187,108.816L400.051,108.471L399.917,108.119L399.785,107.762L399.657,107.402L399.53,107.035L399.405,106.662L399.283,106.285L399.162,105.903L399.042,105.515L398.925,105.123L398.809,104.725L398.694,104.322L398.581,103.914L398.469,103.503L398.358,103.086L398.248,102.663L398.14,102.237L398.034,101.808L397.928,101.373L397.823,100.934L397.719,100.492L397.617,100.045L397.515,99.595L397.415,99.142L397.316,98.685L397.217,98.226L397.119,97.758L396.928,96.828L396.74,95.883L396.557,94.929L396.377,93.969L396.201,93.002L396.029,92.03L395.862,91.055L395.697,90.079L395.537,89.102L395.381,88.126L395.229,87.154L395.081,86.185L394.936,85.222L394.796,84.265L394.66,83.318L394.528,82.381L394.4,81.455L394.276,80.542L394.157,79.645L394.041,78.763L393.93,77.899L393.823,77.055L393.72,76.23L393.622,75.426L393.439,73.899L393.273,72.476L393.126,71.174L392.997,70.003L392.887,68.977L392.797,68.109L392.725,67.409L392.673,66.891L392.632,66.465L392.612,65.769L392.686,65.076L392.853,64.401L393.111,63.754L393.454,63.148L393.876,62.594L394.369,62.102L394.924,61.682L395.531,61.341L396.179,61.085L396.855,60.92L397.548,60.848L398.244,60.87ZM404.095,76.602L404.203,77.444L404.316,78.303L404.432,79.177L404.552,80.064L404.677,80.964L404.805,81.874L404.937,82.793L405.073,83.719L405.212,84.651L405.356,85.587L405.502,86.525L405.653,87.464L405.806,88.401L405.964,89.336L406.124,90.268L406.288,91.192L406.454,92.11L406.624,93.019L406.797,93.916L406.973,94.8L407.152,95.674L407.241,96.099L407.332,96.524L407.424,96.945L407.516,97.361L407.608,97.771L407.702,98.176L407.795,98.576L407.889,98.97L407.984,99.358L408.079,99.741L408.174,100.116L408.269,100.483L408.366,100.845L408.462,101.2L408.558,101.546L408.655,101.885L408.751,102.216L408.848,102.538L408.944,102.851L409.04,103.155L409.136,103.45L409.231,103.734L409.326,104.008L409.421,104.273L409.513,104.524L409.605,104.765L409.696,104.996L409.783,105.21L409.865,105.403L410.01,105.426L410.272,105.467L410.551,105.509L410.841,105.551L411.484,105.641L412.181,105.732L412.935,105.826L413.745,105.922L414.61,106.019L415.526,106.119L416.494,106.221L417.511,106.323L418.577,106.428L419.689,106.534L420.848,106.641L422.051,106.749L423.298,106.859L424.588,106.969L425.92,107.081L427.291,107.193L428.703,107.307L430.153,107.421L431.64,107.536L433.164,107.652L434.723,107.768L436.316,107.885L437.943,108.003L439.602,108.121L441.293,108.24L443.014,108.359L444.764,108.478L446.543,108.597L448.349,108.717L450.181,108.837L453.923,109.077L457.757,109.317L461.677,109.557L465.675,109.796L469.744,110.034L473.875,110.27L478.061,110.504L482.293,110.735L486.564,110.964L490.866,111.189L495.192,111.411L499.533,111.628L503.881,111.84L508.23,112.048L512.57,112.25L516.895,112.446L521.195,112.636L525.465,112.819L529.694,112.995L533.877,113.164L538.005,113.324L542.07,113.476L544.076,113.549L546.063,113.62L548.031,113.688L549.979,113.754L551.904,113.817L553.807,113.878L555.687,113.936L557.542,113.992L559.371,114.046L561.174,114.096L562.949,114.144L564.696,114.189L566.413,114.231L568.1,114.27L569.755,114.307L571.377,114.34L572.966,114.371L574.52,114.398L576.039,114.422L577.521,114.443L578.965,114.46L580.371,114.475L581.737,114.486L583.062,114.494L584.345,114.498L585.585,114.498L586.781,114.496L587.931,114.489L589.035,114.479L590.091,114.466L591.098,114.448L592.055,114.428L592.96,114.403L593.811,114.375L594.612,114.343L594.984,114.326L595.346,114.308L595.693,114.289L596.025,114.269L596.341,114.249L596.641,114.228L596.925,114.206L597.191,114.184L597.439,114.161L597.669,114.138L597.88,114.115L598.07,114.092L598.238,114.07L598.383,114.049L598.502,114.029L598.592,114.013L598.651,114.001L598.694,113.991L598.794,113.966L598.916,113.934L599.042,113.898L599.175,113.859L599.311,113.818L599.452,113.773L599.598,113.724L599.748,113.672L599.9,113.617L600.058,113.559L600.219,113.498L600.385,113.433L600.553,113.365L600.725,113.294L600.902,113.219L601.08,113.142L601.263,113.061L601.448,112.977L601.635,112.89L601.827,112.8L602.021,112.707L602.218,112.61L602.419,112.511L602.621,112.408L602.825,112.303L603.033,112.195L603.244,112.083L603.456,111.969L603.67,111.852L603.882,111.735L604.329,111.483L604.778,111.224L605.236,110.954L605.701,110.673L606.174,110.382L606.653,110.081L607.14,109.769L607.633,109.449L608.131,109.119L608.636,108.78L609.146,108.431L609.661,108.075L610.181,107.709L610.705,107.336L611.234,106.954L611.767,106.565L612.304,106.169L612.844,105.765L613.388,105.354L613.935,104.936L614.485,104.512L615.037,104.081L615.592,103.644L616.148,103.201L616.707,102.753L617.268,102.299L617.829,101.84L618.392,101.376L618.956,100.906L619.521,100.433L620.087,99.955L620.652,99.473L621.218,98.987L621.784,98.497L622.349,98.004L622.914,97.508L623.478,97.008L624.041,96.506L624.603,96.001L625.164,95.494L625.723,94.985L626.281,94.474L626.835,93.961L627.389,93.446L627.939,92.931L628.487,92.414L629.032,91.896L629.574,91.378L630.113,90.86L630.648,90.341L631.18,89.823L631.707,89.304L632.231,88.786L632.75,88.269L633.265,87.753L633.775,87.238L634.28,86.724L634.779,86.212L635.274,85.702L635.763,85.194L636.246,84.688L636.722,84.186L637.193,83.685L637.658,83.188L638.115,82.694L638.566,82.203L639.01,81.716L639.446,81.233L639.875,80.754L640.296,80.28L640.708,79.811L641.113,79.346L641.51,78.887L641.897,78.433L642.276,77.985L642.645,77.543L642.798,77.358L642.519,77.511L641.231,78.224L640.617,78.563L640.023,78.889L639.457,79.196L639.175,79.347L638.903,79.49L638.634,79.629L638.37,79.764L638.109,79.893L637.848,80.019L637.582,80.142L637.31,80.261L637.025,80.379L636.743,80.485L636.466,80.581L636.213,80.664L635.96,80.743L635.707,80.817L635.453,80.886L635.199,80.95L634.948,81.01L634.696,81.065L634.443,81.116L634.191,81.162L633.941,81.204L633.691,81.241L633.442,81.275L633.194,81.304L632.948,81.328L632.701,81.349L632.456,81.366L632.212,81.378L631.972,81.387L631.731,81.393L631.491,81.394L631.254,81.393L631.019,81.387L630.785,81.379L630.552,81.367L630.323,81.353L630.094,81.335L629.866,81.315L629.641,81.291L629.419,81.266L629.198,81.238L628.979,81.207L628.76,81.174L628.545,81.139L628.333,81.102L628.121,81.063L627.911,81.022L627.692,80.977L627.295,80.889L626.893,80.793L626.498,80.692L626.111,80.586L625.731,80.477L625.357,80.365L624.99,80.25L624.63,80.134L624.276,80.016L623.928,79.897L623.581,79.776L622.921,79.541L621.653,79.083L621.042,78.865L620.751,78.764L620.462,78.664L620.178,78.569L619.898,78.478L619.624,78.391L619.354,78.309L619.089,78.232L618.829,78.16L618.574,78.093L618.324,78.031L618.066,77.972L617.955,77.948L617.836,77.924L617.718,77.9L617.6,77.879L617.483,77.858L617.367,77.839L617.253,77.821L617.14,77.805L617.027,77.79L616.917,77.777L616.806,77.765L616.696,77.754L616.588,77.745L616.48,77.737L616.373,77.731L616.267,77.726L616.161,77.722L616.056,77.72L615.951,77.72L615.848,77.72L615.744,77.722L615.641,77.726L615.538,77.731L615.434,77.738L615.332,77.746L615.229,77.755L615.126,77.766L615.023,77.779L614.92,77.794L614.807,77.811L614.549,77.854L614.284,77.9L614.022,77.948L613.761,77.997L613.502,78.049L613.245,78.102L612.99,78.157L612.736,78.213L612.485,78.271L612.235,78.331L611.987,78.392L611.74,78.455L611.494,78.52L611.25,78.586L611.007,78.653L610.767,78.722L610.527,78.793L610.288,78.866L610.05,78.939L609.814,79.014L609.579,79.091L609.346,79.169L609.113,79.249L608.881,79.33L608.65,79.412L608.42,79.496L608.19,79.582L607.962,79.668L607.734,79.756L607.508,79.845L607.282,79.936L607.056,80.028L606.831,80.122L606.607,80.216L606.383,80.312L606.166,80.407L605.715,80.608L605.271,80.811L604.828,81.02L604.387,81.233L603.946,81.45L603.506,81.672L603.066,81.899L602.625,82.13L602.184,82.365L601.743,82.604L601.301,82.848L600.858,83.094L600.413,83.345L599.966,83.599L599.518,83.856L599.07,84.114L598.159,84.645L596.306,85.73L595.359,86.283L594.399,86.839L593.906,87.121L593.412,87.401L592.913,87.682L592.408,87.962L591.897,88.243L591.381,88.522L590.859,88.801L590.33,89.078L589.795,89.354L589.253,89.629L588.704,89.901L588.147,90.171L587.584,90.438L587.013,90.703L586.434,90.964L585.854,91.219L585.551,91.349L585.253,91.476L584.953,91.601L584.65,91.725L584.345,91.849L584.038,91.971L583.729,92.092L583.41,92.215L583.231,92.282L583.042,92.35L582.855,92.415L582.667,92.477L582.479,92.537L582.291,92.595L582.103,92.65L581.903,92.706L581.543,92.801L581.17,92.891L580.798,92.972L580.428,93.044L580.058,93.109L579.691,93.166L579.327,93.216L578.963,93.259L578.602,93.296L578.243,93.326L577.887,93.35L577.532,93.369L577.181,93.382L576.832,93.39L576.486,93.393L576.142,93.391L575.801,93.385L575.463,93.375L575.127,93.361L574.795,93.344L574.466,93.323L574.14,93.299L573.816,93.272L573.497,93.242L573.181,93.209L572.868,93.174L572.558,93.137L572.252,93.098L571.556,93.004L570.639,92.876L569.51,92.715L568.181,92.525L564.991,92.065L561.189,91.515L556.908,90.897L552.276,90.232L549.87,89.888L547.426,89.541L544.959,89.192L542.486,88.844L540.025,88.5L537.59,88.164L535.2,87.836L532.869,87.521L530.616,87.22L528.455,86.937L527.417,86.803L526.408,86.674L525.43,86.551L524.487,86.434L523.58,86.323L522.712,86.22L521.885,86.123L521.101,86.033L520.363,85.952L519.674,85.879L519.037,85.814L518.455,85.759L517.933,85.712L517.475,85.676L517.078,85.649L516.922,85.64L516.781,85.633L516.679,85.629L516.534,85.654L516.217,85.699L515.901,85.739L515.572,85.775L515.224,85.81L514.855,85.845L514.462,85.879L514.045,85.913L513.601,85.947L512.653,86.015L511.61,86.085L510.482,86.155L509.276,86.227L508.001,86.3L506.663,86.375L505.271,86.45L502.362,86.604L499.337,86.761L496.266,86.921L493.218,87.082L491.726,87.164L490.265,87.245L488.846,87.326L487.476,87.408L486.166,87.488L484.924,87.569L483.761,87.649L482.681,87.728L482.183,87.767L481.709,87.805L481.262,87.843L480.844,87.881L480.458,87.918L480.107,87.954L479.791,87.988L479.476,88.026L479.111,88.068L478.677,88.111L478.212,88.152L477.714,88.192L477.182,88.232L476.618,88.27L476.023,88.308L475.399,88.345L474.75,88.382L474.077,88.418L473.384,88.452L472.673,88.486L471.947,88.519L471.21,88.551L470.464,88.582L469.711,88.611L468.209,88.665L467.457,88.689L466.714,88.712L465.981,88.733L465.261,88.752L464.557,88.769L463.871,88.783L463.207,88.795L462.567,88.805L461.954,88.812L461.371,88.816L460.819,88.817L460.3,88.816L459.815,88.81L459.376,88.802L458.636,88.782L457.895,88.76L457.146,88.735L456.387,88.708L455.621,88.678L454.846,88.645L454.064,88.61L453.276,88.572L452.483,88.531L451.684,88.487L450.881,88.441L450.075,88.392L449.266,88.34L448.454,88.286L447.641,88.228L446.826,88.168L446.012,88.105L445.198,88.039L444.385,87.97L443.574,87.898L442.765,87.823L441.959,87.746L441.157,87.665L440.359,87.581L439.566,87.494L438.779,87.404L437.998,87.31L437.224,87.214L436.457,87.114L435.698,87.011L434.948,86.904L434.206,86.794L433.535,86.69L432.864,86.58L432.193,86.464L431.524,86.343L430.856,86.218L430.189,86.086L429.523,85.95L428.858,85.808L428.195,85.661L427.533,85.509L426.872,85.352L426.213,85.189L425.556,85.022L424.899,84.849L424.244,84.672L423.591,84.489L422.939,84.301L422.289,84.108L421.64,83.91L420.993,83.707L420.348,83.499L419.704,83.286L419.063,83.068L418.422,82.845L417.784,82.617L417.147,82.384L416.513,82.147L415.88,81.904L415.249,81.657L414.621,81.404L413.994,81.147L413.369,80.885L412.746,80.619L412.125,80.347L411.507,80.071L410.89,79.79L410.276,79.504L409.664,79.213L409.054,78.918L408.447,78.618L407.842,78.314L407.239,78.004L406.639,77.691L406.041,77.372L405.445,77.049L404.852,76.721L404.261,76.388L404.053,76.269L404.095,76.602Z" style="fill:rgb(215,121,47);"/>
                </g>
                <g id="_-Kurve-1" serif:id="(Kurve)" transform="matrix(-1.54781,0,0,2.2806,1098.64,176.844)">
                    <path d="M397.731,65.968C408.599,74.201 421.48,79.681 434.976,81.729C442.469,82.866 451.943,83.489 459.494,83.68C463.485,83.78 475.775,83.324 478.881,82.937C485.55,82.105 509.027,77.343 511.341,78.114C518.639,80.544 566.108,90.211 569.974,89.879C572.829,89.634 575.867,89.547 578.581,88.512C590.718,83.881 600.878,74.878 613.996,72.752C621.722,71.5 627.666,73.106 634.998,75.668C638.585,76.921 641.945,77.585 644.169,80.977C647.485,86.031 615.763,115.11 599.888,118.974C586.957,122.122 409.001,112.946 406.478,109.781C401.256,103.23 397.731,65.968 397.731,65.968Z" style="fill:rgb(202,148,17);"/>
                    <path d="M398.245,60.87L398.931,60.987L399.596,61.196L400.225,61.492L400.809,61.872L401.304,62.244L401.786,62.6L402.27,62.952L402.757,63.3L403.247,63.645L403.74,63.986L404.235,64.323L404.732,64.656L405.232,64.985L405.735,65.311L406.24,65.632L406.748,65.95L407.258,66.263L407.771,66.573L408.285,66.879L408.802,67.18L409.321,67.478L409.843,67.771L410.367,68.061L410.893,68.346L411.421,68.628L411.952,68.905L412.484,69.178L413.019,69.448L413.556,69.712L414.095,69.973L414.635,70.23L415.178,70.482L415.722,70.731L416.269,70.975L416.817,71.215L417.367,71.45L417.919,71.682L418.473,71.909L419.028,72.132L419.585,72.35L420.144,72.564L420.704,72.774L421.266,72.98L421.83,73.181L422.395,73.378L422.961,73.57L423.53,73.758L424.099,73.942L424.67,74.121L425.242,74.295L425.816,74.466L426.391,74.631L426.967,74.793L427.545,74.949L428.124,75.102L428.704,75.249L429.285,75.393L429.867,75.531L430.45,75.665L431.035,75.795L431.62,75.919L432.207,76.04L432.794,76.155L433.382,76.266L433.972,76.372L434.562,76.474L435.153,76.571L435.746,76.663L436.42,76.763L437.109,76.861L437.808,76.956L438.519,77.049L439.24,77.139L439.97,77.226L440.708,77.31L441.454,77.392L442.207,77.471L442.965,77.548L443.729,77.622L444.497,77.693L445.27,77.761L446.045,77.827L446.822,77.89L447.6,77.95L448.379,78.008L449.158,78.063L449.936,78.115L450.713,78.165L451.487,78.212L452.257,78.256L453.024,78.298L453.786,78.337L454.543,78.374L455.293,78.408L456.037,78.439L456.773,78.468L457.5,78.494L458.218,78.518L458.926,78.539L459.613,78.557L459.969,78.564L460.371,78.568L460.824,78.57L461.321,78.569L461.858,78.565L462.431,78.558L463.036,78.549L463.67,78.538L464.327,78.524L465.006,78.508L465.702,78.49L466.412,78.469L467.133,78.447L467.858,78.424L469.328,78.371L470.056,78.343L470.779,78.313L471.494,78.282L472.196,78.25L472.881,78.218L473.547,78.184L474.19,78.15L474.806,78.115L475.392,78.08L475.943,78.045L476.456,78.01L476.926,77.975L477.347,77.941L477.714,77.909L478.017,77.879L478.262,77.851L478.534,77.815L478.849,77.773L479.194,77.724L479.564,77.669L479.959,77.61L480.373,77.546L481.277,77.401L482.253,77.241L483.299,77.065L484.405,76.876L485.563,76.676L488.014,76.248L490.587,75.796L493.225,75.333L494.555,75.103L495.879,74.875L497.193,74.651L498.49,74.433L499.763,74.223L501.006,74.022L502.209,73.833L502.799,73.743L503.376,73.656L503.939,73.573L504.491,73.493L505.029,73.418L505.553,73.347L506.063,73.28L506.558,73.218L507.039,73.16L507.504,73.108L507.953,73.061L508.388,73.019L508.81,72.983L509.218,72.953L509.617,72.93L509.994,72.914L510.2,72.909L510.396,72.907L510.594,72.907L510.794,72.91L510.999,72.917L511.214,72.928L511.44,72.945L511.68,72.971L511.944,73.007L512.239,73.06L512.579,73.137L512.86,73.22L513.086,73.294L513.234,73.341L513.402,73.392L513.582,73.446L514.016,73.571L514.508,73.707L515.058,73.855L515.664,74.013L516.322,74.181L517.029,74.357L517.783,74.542L518.58,74.735L519.419,74.935L520.297,75.141L521.212,75.354L522.162,75.572L523.146,75.796L524.16,76.025L525.203,76.258L526.272,76.495L527.367,76.736L528.484,76.98L529.622,77.226L530.779,77.476L531.954,77.727L533.141,77.979L535.558,78.488L538.009,78.998L540.481,79.507L542.959,80.01L545.428,80.506L546.651,80.749L547.867,80.989L549.073,81.226L550.267,81.459L551.447,81.687L552.61,81.911L553.755,82.129L554.88,82.342L555.983,82.548L557.062,82.748L558.114,82.942L559.138,83.128L560.132,83.306L561.094,83.476L562.021,83.638L562.912,83.791L563.764,83.934L564.575,84.068L565.343,84.191L566.064,84.304L566.738,84.405L567.358,84.495L567.924,84.573L568.437,84.638L568.66,84.665L568.872,84.689L569.066,84.71L569.24,84.727L569.393,84.741L569.522,84.751L569.627,84.758L569.689,84.761L570.1,84.727L570.655,84.684L571.198,84.642L571.727,84.601L572.241,84.558L572.749,84.511L572.987,84.487L573.227,84.462L573.463,84.435L573.695,84.407L573.922,84.378L574.145,84.347L574.364,84.315L574.577,84.28L574.786,84.244L574.99,84.206L575.19,84.167L575.384,84.125L575.572,84.082L575.756,84.037L575.936,83.989L576.109,83.94L576.278,83.889L576.442,83.836L576.6,83.781L576.773,83.717L577.01,83.626L577.268,83.525L577.525,83.423L577.781,83.319L578.037,83.214L578.288,83.11L578.807,82.89L579.319,82.666L579.832,82.436L580.345,82.201L580.857,81.961L581.371,81.715L581.884,81.465L582.398,81.211L582.913,80.951L583.428,80.688L583.944,80.42L584.461,80.149L584.978,79.874L585.497,79.596L586.017,79.315L586.538,79.03L587.059,78.745L588.111,78.163L589.167,77.575L590.231,76.982L591.303,76.385L592.381,75.789L592.928,75.489L593.475,75.19L594.025,74.893L594.578,74.596L595.134,74.301L595.693,74.007L596.256,73.715L596.822,73.425L597.391,73.138L597.965,72.854L598.543,72.572L599.124,72.294L599.71,72.02L600.299,71.75L600.893,71.484L601.492,71.222L602.09,70.968L602.4,70.839L602.704,70.714L603.01,70.591L603.317,70.469L603.625,70.348L603.935,70.229L604.247,70.111L604.559,69.995L604.873,69.881L605.189,69.768L605.505,69.658L605.822,69.549L606.141,69.442L606.462,69.336L606.784,69.233L607.107,69.132L607.431,69.032L607.758,68.935L608.086,68.839L608.415,68.746L608.745,68.655L609.077,68.567L609.41,68.48L609.745,68.396L610.082,68.315L610.42,68.235L610.759,68.159L611.1,68.084L611.442,68.013L611.786,67.944L612.131,67.877L612.478,67.813L612.827,67.752L613.179,67.694L613.589,67.629L613.999,67.569L614.407,67.514L614.814,67.463L615.218,67.417L615.621,67.375L616.022,67.337L616.42,67.304L616.818,67.275L617.213,67.251L617.606,67.231L617.998,67.216L618.388,67.204L618.776,67.197L619.163,67.194L619.548,67.195L619.931,67.201L620.312,67.21L620.693,67.223L621.071,67.24L621.448,67.261L621.823,67.286L622.197,67.314L622.569,67.346L622.939,67.382L623.308,67.421L623.676,67.464L624.042,67.51L624.407,67.559L624.77,67.612L625.132,67.667L625.492,67.726L625.852,67.788L626.21,67.853L626.567,67.921L626.923,67.991L627.277,68.065L627.632,68.141L627.984,68.219L628.335,68.3L628.687,68.384L629.037,68.47L629.386,68.558L629.735,68.648L630.083,68.741L630.431,68.835L630.778,68.932L631.125,69.031L631.472,69.131L631.818,69.234L632.164,69.338L632.515,69.446L633.202,69.661L633.894,69.884L634.589,70.113L635.285,70.347L635.985,70.587L636.674,70.826L636.99,70.935L637.295,71.038L637.939,71.252L638.597,71.469L638.94,71.583L639.288,71.701L639.643,71.823L640.005,71.951L640.373,72.086L640.747,72.229L641.127,72.38L641.501,72.535L641.708,72.625L641.904,72.712L642.101,72.802L642.299,72.895L642.499,72.992L642.7,73.092L642.902,73.196L643.105,73.303L643.308,73.415L643.511,73.529L643.715,73.649L643.918,73.771L644.124,73.9L644.329,74.033L644.533,74.169L644.736,74.311L644.94,74.457L645.142,74.608L645.343,74.763L645.544,74.924L645.745,75.091L645.943,75.263L646.137,75.437L646.331,75.618L646.525,75.806L646.714,75.995L646.901,76.191L647.087,76.392L647.268,76.597L647.447,76.807L647.625,77.024L647.797,77.243L647.966,77.466L648.132,77.696L648.295,77.929L648.477,78.202L648.64,78.464L648.805,78.768L648.951,79.072L649.083,79.39L649.192,79.697L649.285,80.004L649.361,80.308L649.422,80.607L649.469,80.902L649.502,81.185L649.523,81.469L649.533,81.74L649.534,81.999L649.526,82.258L649.509,82.511L649.486,82.752L649.457,82.988L649.421,83.224L649.381,83.449L649.337,83.661L649.288,83.878L649.233,84.092L649.178,84.293L649.118,84.496L649.055,84.695L648.988,84.892L648.919,85.083L648.85,85.269L648.775,85.461L648.698,85.647L648.62,85.829L648.54,86.01L648.457,86.19L648.37,86.372L648.284,86.549L648.189,86.738L648.01,87.079L647.818,87.429L647.616,87.779L647.408,88.127L647.192,88.476L646.968,88.825L646.736,89.176L646.497,89.527L646.25,89.88L645.996,90.235L645.734,90.591L645.466,90.95L645.19,91.31L644.906,91.674L644.615,92.039L644.318,92.406L644.013,92.777L643.702,93.149L643.384,93.524L643.059,93.901L642.728,94.28L642.389,94.662L642.045,95.045L641.694,95.431L641.337,95.819L640.974,96.209L640.605,96.6L640.23,96.994L639.849,97.389L639.463,97.786L639.071,98.184L638.674,98.584L638.271,98.985L637.863,99.387L637.451,99.789L637.033,100.194L636.611,100.599L636.184,101.005L635.752,101.411L635.317,101.818L634.876,102.225L634.431,102.633L633.983,103.041L633.531,103.448L633.075,103.856L632.615,104.263L632.152,104.67L631.685,105.077L631.216,105.483L630.743,105.888L630.268,106.292L629.789,106.696L629.307,107.098L628.823,107.499L628.337,107.899L627.848,108.297L627.357,108.693L626.864,109.088L626.369,109.481L625.872,109.872L625.373,110.261L624.874,110.647L624.372,111.031L623.869,111.413L623.365,111.791L622.86,112.168L622.354,112.541L621.847,112.911L621.34,113.277L620.832,113.641L620.324,114.001L619.815,114.358L619.306,114.71L618.797,115.059L618.287,115.404L617.779,115.745L617.27,116.082L616.761,116.414L616.254,116.742L615.746,117.065L615.24,117.384L614.734,117.697L614.229,118.006L613.725,118.309L613.221,118.608L612.719,118.901L612.219,119.188L611.719,119.47L611.221,119.746L610.724,120.015L610.229,120.28L609.735,120.537L609.243,120.789L608.752,121.034L608.263,121.272L607.776,121.504L607.29,121.729L606.806,121.947L606.323,122.158L605.842,122.361L605.363,122.557L604.884,122.746L604.417,122.923L604.171,123.013L603.933,123.098L603.696,123.181L603.458,123.263L603.222,123.342L602.986,123.418L602.75,123.493L602.513,123.566L602.277,123.636L602.042,123.704L601.806,123.77L601.571,123.833L601.336,123.894L601.077,123.958L600.807,124.02L600.518,124.078L600.231,124.13L599.943,124.177L599.65,124.219L599.353,124.259L599.049,124.295L598.736,124.33L598.415,124.362L598.085,124.392L597.744,124.42L597.393,124.447L597.031,124.473L596.659,124.497L596.275,124.52L595.879,124.541L595.473,124.561L595.05,124.581L594.185,124.615L593.268,124.646L592.306,124.672L591.298,124.694L590.245,124.712L589.147,124.726L588.006,124.736L586.821,124.743L585.594,124.746L584.325,124.745L583.015,124.741L581.666,124.733L580.277,124.722L578.85,124.707L577.386,124.689L575.885,124.668L574.349,124.644L572.779,124.616L571.174,124.585L569.537,124.552L567.868,124.515L566.168,124.475L564.438,124.433L562.679,124.388L560.893,124.339L559.079,124.289L557.239,124.235L555.374,124.179L553.484,124.12L551.572,124.059L549.637,123.995L547.681,123.929L545.704,123.861L543.709,123.79L541.693,123.717L537.614,123.564L533.472,123.403L529.275,123.234L525.032,123.057L520.75,122.874L516.436,122.683L512.1,122.486L507.747,122.284L503.387,122.076L499.027,121.862L494.674,121.645L490.337,121.423L486.023,121.197L481.739,120.968L477.495,120.736L473.297,120.501L469.153,120.264L465.071,120.025L461.059,119.786L457.124,119.545L453.274,119.304L449.518,119.063L447.676,118.942L445.861,118.822L444.073,118.702L442.313,118.582L440.582,118.462L438.88,118.343L437.21,118.224L435.572,118.105L433.966,117.988L432.394,117.87L430.857,117.753L429.355,117.637L427.89,117.522L426.462,117.407L425.073,117.293L423.723,117.18L422.413,117.067L421.144,116.956L419.917,116.846L418.732,116.736L417.592,116.628L416.495,116.52L415.444,116.414L414.438,116.308L413.479,116.204L412.567,116.101L411.702,115.998L410.884,115.897L410.114,115.796L409.398,115.697L409.048,115.646L408.715,115.595L408.393,115.545L408.082,115.494L407.782,115.443L407.491,115.392L407.21,115.339L406.937,115.285L406.67,115.23L406.408,115.172L406.149,115.11L405.89,115.043L405.626,114.97L405.349,114.884L405.051,114.781L404.717,114.65L404.375,114.494L404.113,114.355L403.857,114.206L403.572,114.017L403.246,113.769L403.066,113.607L402.685,113.225L402.55,113.075L402.351,112.821L402.234,112.666L402.124,112.514L402.018,112.363L401.912,112.207L401.81,112.052L401.713,111.899L401.609,111.73L401.432,111.432L401.256,111.117L401.088,110.8L400.926,110.48L400.769,110.156L400.618,109.828L400.471,109.496L400.327,109.158L400.187,108.816L400.051,108.471L399.917,108.119L399.785,107.762L399.657,107.402L399.53,107.035L399.405,106.663L399.283,106.285L399.161,105.902L399.043,105.515L398.925,105.123L398.808,104.724L398.694,104.321L398.581,103.915L398.469,103.503L398.358,103.086L398.249,102.664L398.14,102.238L398.033,101.807L397.928,101.373L397.823,100.934L397.719,100.491L397.617,100.046L397.515,99.596L397.415,99.142L397.315,98.685L397.217,98.225L397.119,97.757L396.928,96.828L396.74,95.883L396.557,94.93L396.377,93.969L396.201,93.001L396.029,92.03L395.861,91.055L395.698,90.079L395.537,89.102L395.381,88.127L395.229,87.154L395.081,86.185L394.936,85.221L394.796,84.266L394.66,83.318L394.528,82.381L394.4,81.455L394.276,80.543L394.156,79.645L394.041,78.762L393.93,77.899L393.823,77.054L393.72,76.231L393.622,75.427L393.439,73.899L393.273,72.476L393.126,71.173L392.998,70.003L392.887,68.978L392.797,68.109L392.725,67.409L392.673,66.89L392.632,66.464L392.612,65.768L392.686,65.076L392.854,64.4L393.111,63.753L393.454,63.147L393.876,62.593L394.37,62.101L394.925,61.681L395.532,61.34L396.18,61.085L396.856,60.92L397.549,60.848L398.245,60.87ZM404.095,76.602L404.203,77.444L404.315,78.303L404.432,79.177L404.552,80.064L404.677,80.964L404.805,81.874L404.937,82.793L405.073,83.72L405.212,84.651L405.356,85.587L405.502,86.525L405.653,87.463L405.806,88.401L405.964,89.337L406.124,90.268L406.288,91.193L406.454,92.11L406.624,93.019L406.797,93.916L406.973,94.8L407.152,95.675L407.241,96.1L407.332,96.525L407.424,96.945L407.516,97.36L407.608,97.77L407.702,98.177L407.795,98.577L407.889,98.97L407.984,99.358L408.079,99.74L408.174,100.116L408.269,100.483L408.365,100.845L408.462,101.2L408.559,101.547L408.655,101.886L408.751,102.215L408.848,102.538L408.944,102.852L409.04,103.155L409.136,103.449L409.231,103.733L409.326,104.008L409.421,104.273L409.513,104.525L409.605,104.765L409.696,104.995L409.784,105.212L409.865,105.403L410.01,105.426L410.272,105.467L410.551,105.509L410.841,105.551L411.484,105.641L412.181,105.732L412.935,105.826L413.746,105.922L414.61,106.019L415.526,106.119L416.494,106.221L417.511,106.324L418.576,106.428L419.689,106.534L420.848,106.641L422.051,106.749L423.298,106.859L424.588,106.969L425.92,107.081L427.292,107.193L428.703,107.307L430.153,107.421L431.64,107.536L433.164,107.652L434.723,107.768L436.316,107.885L437.943,108.003L439.602,108.121L441.293,108.24L443.014,108.359L444.764,108.478L446.543,108.597L448.349,108.717L450.181,108.837L453.922,109.077L457.757,109.317L461.677,109.557L465.675,109.796L469.744,110.034L473.875,110.27L478.061,110.504L482.293,110.735L486.564,110.964L490.866,111.189L495.192,111.411L499.533,111.628L503.882,111.84L508.23,112.048L512.57,112.25L516.895,112.446L521.195,112.636L525.465,112.819L529.694,112.995L533.877,113.164L538.005,113.324L542.07,113.476L544.076,113.549L546.063,113.62L548.031,113.688L549.979,113.754L551.904,113.817L553.808,113.878L555.687,113.936L557.542,113.992L559.371,114.046L561.174,114.096L562.949,114.144L564.696,114.189L566.413,114.231L568.1,114.27L569.755,114.307L571.377,114.34L572.966,114.371L574.52,114.398L576.039,114.422L577.521,114.443L578.965,114.461L580.371,114.475L581.737,114.486L583.062,114.494L584.345,114.498L585.585,114.498L586.781,114.496L587.931,114.489L589.035,114.479L590.091,114.466L591.098,114.449L592.055,114.428L592.96,114.403L593.811,114.375L594.612,114.343L594.984,114.326L595.346,114.308L595.693,114.289L596.025,114.269L596.341,114.249L596.641,114.228L596.925,114.206L597.191,114.184L597.439,114.161L597.67,114.138L597.88,114.115L598.07,114.092L598.238,114.07L598.382,114.049L598.502,114.029L598.592,114.013L598.651,114.001L598.7,113.99L598.814,113.962L598.955,113.925L599.099,113.886L599.246,113.846L599.395,113.802L599.546,113.757L599.7,113.71L599.857,113.66L600.016,113.609L600.178,113.555L600.341,113.499L600.506,113.441L600.674,113.381L600.836,113.321L601.192,113.187L601.545,113.047L601.908,112.899L602.276,112.743L602.652,112.579L603.034,112.407L603.423,112.227L603.817,112.04L604.217,111.844L604.622,111.642L605.033,111.433L605.448,111.216L605.868,110.992L606.292,110.762L606.72,110.524L607.152,110.281L607.588,110.031L608.027,109.775L608.469,109.513L608.914,109.244L609.363,108.97L609.813,108.691L610.267,108.406L610.722,108.116L611.179,107.821L611.639,107.521L612.099,107.216L612.562,106.906L613.025,106.592L613.49,106.273L613.956,105.95L614.422,105.624L614.889,105.293L615.356,104.959L615.824,104.62L616.292,104.279L616.76,103.934L617.227,103.586L617.694,103.235L618.16,102.882L618.625,102.525L619.09,102.166L619.553,101.805L620.016,101.441L620.476,101.075L620.935,100.708L621.393,100.338L621.848,99.967L622.302,99.595L622.753,99.221L623.202,98.846L623.647,98.47L624.091,98.093L624.532,97.715L624.97,97.337L625.404,96.959L625.835,96.58L626.262,96.201L626.686,95.823L627.106,95.444L627.522,95.066L627.933,94.688L628.341,94.312L628.744,93.935L629.142,93.561L629.535,93.187L629.924,92.814L630.306,92.444L630.685,92.074L631.057,91.707L631.424,91.341L631.785,90.978L632.14,90.617L632.488,90.26L632.831,89.904L633.166,89.552L633.496,89.202L633.819,88.856L634.133,88.514L634.441,88.175L634.742,87.84L635.035,87.51L635.32,87.183L635.598,86.862L635.866,86.545L636.127,86.233L636.379,85.927L636.623,85.626L636.857,85.332L637.082,85.044L637.298,84.762L637.504,84.487L637.7,84.219L637.886,83.96L638.062,83.708L638.227,83.466L638.381,83.233L638.524,83.01L638.656,82.797L638.754,82.632L638.691,82.59L638.623,82.546L638.553,82.502L638.479,82.457L638.403,82.413L638.324,82.368L638.243,82.324L638.16,82.28L638.073,82.235L637.983,82.191L637.89,82.145L637.794,82.1L637.694,82.055L637.592,82.009L637.498,81.969L637.266,81.872L637.033,81.779L636.787,81.686L636.529,81.591L636.258,81.495L635.975,81.397L635.68,81.298L635.375,81.196L634.722,80.981L634.04,80.755L633.676,80.632L633.321,80.509L632.644,80.274L631.992,80.051L631.351,79.835L630.72,79.627L630.099,79.427L629.483,79.234L629.187,79.143L628.887,79.053L628.589,78.965L628.294,78.879L628.001,78.796L627.71,78.715L627.421,78.636L627.133,78.56L626.847,78.485L626.563,78.414L626.281,78.345L626,78.278L625.72,78.213L625.442,78.151L625.166,78.092L624.89,78.035L624.615,77.981L624.341,77.929L624.069,77.879L623.797,77.832L623.525,77.788L623.255,77.746L622.985,77.707L622.715,77.671L622.445,77.637L622.176,77.606L621.907,77.577L621.637,77.551L621.367,77.528L621.098,77.507L620.827,77.489L620.556,77.474L620.285,77.462L620.012,77.453L619.738,77.446L619.463,77.442L619.188,77.442L618.911,77.444L618.632,77.449L618.351,77.457L618.07,77.468L617.785,77.483L617.499,77.5L617.212,77.521L616.921,77.545L616.629,77.572L616.333,77.603L616.035,77.637L615.735,77.675L615.431,77.716L615.125,77.761L614.814,77.81L614.552,77.853L614.289,77.899L614.026,77.948L613.764,77.998L613.502,78.051L613.241,78.106L612.981,78.162L612.72,78.221L612.461,78.282L612.202,78.345L611.943,78.41L611.684,78.477L611.426,78.546L611.168,78.617L610.911,78.69L610.654,78.764L610.398,78.841L610.141,78.92L609.884,79L609.628,79.082L609.372,79.166L609.117,79.252L608.861,79.34L608.605,79.43L608.35,79.52L608.095,79.613L607.84,79.708L607.585,79.804L607.331,79.902L607.076,80.002L606.821,80.103L606.566,80.206L606.311,80.311L606.062,80.414L605.547,80.633L605.038,80.855L604.529,81.083L604.019,81.317L603.509,81.556L602.998,81.8L602.487,82.05L601.975,82.303L601.462,82.562L600.949,82.825L600.435,83.091L599.919,83.362L599.403,83.636L598.885,83.914L598.366,84.195L597.846,84.478L597.326,84.764L596.275,85.345L595.219,85.933L594.155,86.526L593.083,87.123L592.003,87.721L591.455,88.021L590.907,88.32L590.356,88.618L589.802,88.915L589.244,89.211L588.684,89.505L588.119,89.798L587.551,90.088L586.98,90.376L586.404,90.662L585.825,90.944L585.241,91.223L584.653,91.499L584.061,91.77L583.464,92.037L582.862,92.3L582.262,92.555L581.952,92.685L581.645,92.811L581.337,92.935L581.029,93.057L580.719,93.179L580.389,93.306L580.051,93.431L579.695,93.554L579.341,93.668L578.989,93.775L578.638,93.874L578.29,93.966L577.945,94.051L577.602,94.13L577.261,94.203L576.924,94.27L576.59,94.332L576.259,94.389L575.93,94.441L575.605,94.49L575.284,94.534L574.966,94.576L574.651,94.614L574.34,94.649L574.033,94.681L573.723,94.712L573.136,94.766L572.556,94.814L571.993,94.859L571.448,94.901L570.922,94.942L570.34,94.99L570.083,95.005L569.79,95.011L569.523,95.009L569.271,95.001L569.025,94.988L568.78,94.972L568.531,94.952L568.276,94.929L568.015,94.903L567.746,94.875L567.468,94.843L567.174,94.808L566.576,94.731L565.929,94.642L565.24,94.542L564.51,94.432L563.74,94.312L562.93,94.182L562.081,94.042L561.196,93.893L560.275,93.735L559.321,93.569L558.335,93.394L557.318,93.212L556.273,93.022L555.201,92.825L554.105,92.622L552.985,92.412L551.844,92.197L550.684,91.975L549.506,91.749L548.313,91.518L547.106,91.283L545.887,91.043L544.658,90.801L543.419,90.554L540.93,90.054L538.429,89.546L535.933,89.033L533.458,88.518L531.02,88.004L529.817,87.749L528.629,87.495L527.458,87.243L526.306,86.993L525.173,86.745L524.063,86.501L522.976,86.26L521.915,86.023L520.882,85.79L519.878,85.562L518.905,85.338L517.964,85.119L517.059,84.907L516.19,84.7L515.358,84.499L514.565,84.304L513.814,84.116L513.104,83.935L512.436,83.761L511.812,83.593L511.231,83.432L510.7,83.279L510.437,83.201L510.296,83.158L510.127,83.165L509.893,83.178L509.62,83.198L509.314,83.225L508.977,83.257L508.612,83.295L508.221,83.339L507.805,83.389L507.367,83.444L506.908,83.504L506.429,83.569L505.932,83.639L505.417,83.713L504.885,83.791L504.339,83.874L503.781,83.959L502.618,84.142L501.414,84.336L500.173,84.541L498.902,84.754L497.609,84.975L496.301,85.2L494.986,85.428L492.357,85.889L489.783,86.341L487.318,86.772L486.14,86.976L485.01,87.168L483.933,87.349L482.915,87.517L481.964,87.668L481.509,87.739L481.074,87.805L480.658,87.866L480.259,87.922L479.878,87.974L479.501,88.023L479.111,88.068L478.677,88.111L478.212,88.152L477.714,88.192L477.182,88.232L476.618,88.27L476.023,88.308L475.399,88.345L474.75,88.382L474.077,88.418L473.384,88.452L472.673,88.486L471.947,88.519L471.21,88.551L470.464,88.582L469.711,88.611L468.209,88.665L467.457,88.689L466.714,88.712L465.981,88.733L465.261,88.752L464.557,88.769L463.871,88.783L463.207,88.795L462.567,88.805L461.954,88.812L461.37,88.816L460.819,88.817L460.3,88.816L459.815,88.81L459.375,88.802L458.636,88.782L457.896,88.76L457.146,88.735L456.387,88.708L455.621,88.678L454.846,88.645L454.064,88.61L453.276,88.572L452.483,88.531L451.684,88.487L450.881,88.441L450.075,88.392L449.265,88.34L448.454,88.286L447.64,88.228L446.826,88.168L446.012,88.105L445.198,88.039L444.385,87.97L443.574,87.898L442.765,87.823L441.959,87.746L441.157,87.665L440.359,87.581L439.566,87.494L438.779,87.404L437.998,87.31L437.224,87.214L436.457,87.114L435.698,87.011L434.948,86.904L434.206,86.794L433.535,86.69L432.863,86.58L432.193,86.464L431.524,86.344L430.855,86.218L430.189,86.086L429.523,85.95L428.858,85.808L428.195,85.661L427.533,85.509L426.873,85.352L426.213,85.19L425.556,85.022L424.899,84.849L424.244,84.672L423.591,84.489L422.939,84.301L422.289,84.108L421.64,83.91L420.993,83.707L420.348,83.499L419.705,83.286L419.062,83.068L418.422,82.845L417.784,82.617L417.148,82.384L416.513,82.147L415.88,81.904L415.249,81.657L414.62,81.404L413.994,81.147L413.369,80.885L412.746,80.619L412.125,80.347L411.507,80.071L410.891,79.79L410.276,79.504L409.664,79.213L409.054,78.918L408.447,78.618L407.842,78.314L407.239,78.004L406.639,77.69L406.041,77.372L405.445,77.049L404.852,76.721L404.261,76.389L404.053,76.269L404.095,76.602Z" style="fill:rgb(215,121,47);"/>
                </g>
            </g>
            <path d="M95.831,308.902C95.831,308.902 95.831,308.904 95.831,308.908C95.831,320.134 101.8,329.392 109.409,329.969C118.446,330.654 130.669,331.58 141.852,332.428C160.387,333.832 177.546,347.271 188.705,369.123C188.706,369.126 188.708,369.129 188.709,369.132C191.58,374.753 196.12,377.977 200.892,377.783C205.665,377.589 210.078,374.001 212.733,368.155C217.859,356.871 223.352,344.78 226.127,338.672C227.271,336.155 229.191,334.644 231.247,334.644C231.999,334.644 232.821,334.644 233.642,334.644C237.251,334.644 240.676,336.988 243.004,341.052C244.298,343.311 245.83,345.986 247.423,348.767C250.15,353.526 254.22,356.154 258.443,355.882C262.666,355.61 266.565,352.468 268.999,347.375C269.098,347.168 269.197,346.962 269.294,346.758C271.684,341.758 275.575,338.784 279.725,338.784C279.726,338.784 279.726,338.784 279.727,338.784C293.753,338.784 307.071,347.861 316.153,363.611C321.059,372.12 326.738,381.969 332.375,391.746C339.778,404.584 350.499,412.255 361.925,412.889C373.35,413.523 384.432,407.061 392.469,395.079C392.47,395.077 392.472,395.075 392.473,395.073C396.863,388.528 402.846,384.837 409.091,384.821C409.434,384.82 409.783,384.819 410.136,384.818C428.354,384.771 445.995,375.404 460.046,358.319C463.733,353.835 467.371,349.411 470.487,345.622C476.204,338.67 479.515,328.318 479.515,317.396C479.515,317.393 479.515,317.39 479.515,317.387C479.515,307.784 474.232,300 467.715,300C408.535,300 145.187,300 101.871,300C98.535,300 95.831,303.984 95.831,308.899C95.831,308.901 95.831,308.902 95.831,308.902Z" style="fill:none;stroke:black;stroke-width:5.57px;"/>
        </g>
    </g>
</svg>
