<?xml version="1.0" encoding="UTF-8" standalone="no"?>
<!DOCTYPE svg PUBLIC "-//W3C//DTD SVG 1.1//EN" "http://www.w3.org/Graphics/SVG/1.1/DTD/svg11.dtd">
<svg width="100%" height="100%" viewBox="0 0 318 76" version="1.1" xmlns="http://www.w3.org/2000/svg" xmlns:xlink="http://www.w3.org/1999/xlink" xml:space="preserve" xmlns:serif="http://www.serif.com/" style="fill-rule:evenodd;clip-rule:evenodd;stroke-linejoin:round;stroke-miterlimit:1.41421;">
    <g transform="matrix(1,0,0,1,-462,-557)">
        <g transform="matrix(-1.36877,0.0164114,0.0164114,1.36877,1177.97,336.12)">
            <g transform="matrix(-0.625377,0,0,0.361316,593.124,52.1818)">
                <path d="M187.542,300C181.271,300 175.012,300.945 168.835,302.824C167.447,303.246 165.939,303.705 164.336,304.192C160.208,305.448 157.229,311.733 157.324,318.986C157.418,326.238 160.559,332.283 164.716,333.214C164.716,333.215 164.716,333.215 164.717,333.215C168.83,334.136 172.612,337.609 175.359,342.988C178.119,348.393 181.9,355.797 185.717,363.272C189.544,370.767 195.097,374.934 200.874,374.646C206.651,374.359 212.056,369.647 215.628,361.783C218.834,354.726 221.958,347.849 224.26,342.782C226.594,337.644 230.162,334.644 233.938,334.644C233.939,334.644 233.94,334.644 233.94,334.644C237.391,334.644 240.7,337.03 243.13,341.272C244.595,343.829 246.35,346.893 248.148,350.031C250.879,354.798 254.646,357.345 258.521,357.043C262.395,356.741 266.015,353.618 268.487,348.446C268.649,348.108 268.808,347.774 268.966,347.445C271.588,341.959 275.487,338.784 279.6,338.784C281.838,338.784 284.446,338.784 287.071,338.784C296.525,338.784 305.59,345.292 312.268,356.874L343.81,411.576C353.607,428.567 369.319,429.592 379.828,413.926C384.104,407.551 388.409,401.132 391.883,395.953C396.69,388.787 402.821,384.837 409.165,384.821C412.967,384.811 417.425,384.799 421.695,384.788C432.511,384.76 443.061,378.972 451.911,368.21C458.326,360.41 465.768,351.361 471.307,344.625C476.453,338.368 479.515,328.166 479.515,317.281C479.515,317.28 479.515,317.28 479.515,317.279C479.515,312.696 478.464,308.301 476.591,305.061C474.719,301.82 472.18,300 469.532,300C423.533,300 232.346,300 187.542,300Z" style="fill:rgb(196,92,12);"/>
                <clipPath id="_clip1">
                    <path d="M187.542,300C181.271,300 175.012,300.945 168.835,302.824C167.447,303.246 165.939,303.705 164.336,304.192C160.208,305.448 157.229,311.733 157.324,318.986C157.418,326.238 160.559,332.283 164.716,333.214C164.716,333.215 164.716,333.215 164.717,333.215C168.83,334.136 172.612,337.609 175.359,342.988C178.119,348.393 181.9,355.797 185.717,363.272C189.544,370.767 195.097,374.934 200.874,374.646C206.651,374.359 212.056,369.647 215.628,361.783C218.834,354.726 221.958,347.849 224.26,342.782C226.594,337.644 230.162,334.644 233.938,334.644C233.939,334.644 233.94,334.644 233.94,334.644C237.391,334.644 240.7,337.03 243.13,341.272C244.595,343.829 246.35,346.893 248.148,350.031C250.879,354.798 254.646,357.345 258.521,357.043C262.395,356.741 266.015,353.618 268.487,348.446C268.649,348.108 268.808,347.774 268.966,347.445C271.588,341.959 275.487,338.784 279.6,338.784C281.838,338.784 284.446,338.784 287.071,338.784C296.525,338.784 305.59,345.292 312.268,356.874L343.81,411.576C353.607,428.567 369.319,429.592 379.828,413.926C384.104,407.551 388.409,401.132 391.883,395.953C396.69,388.787 402.821,384.837 409.165,384.821C412.967,384.811 417.425,384.799 421.695,384.788C432.511,384.76 443.061,378.972 451.911,368.21C458.326,360.41 465.768,351.361 471.307,344.625C476.453,338.368 479.515,328.166 479.515,317.281C479.515,317.28 479.515,317.28 479.515,317.279C479.515,312.696 478.464,308.301 476.591,305.061C474.719,301.82 472.18,300 469.532,300C423.533,300 232.346,300 187.542,300Z"/>
                </clipPath>
                <g clip-path="url(#_clip1)">
                    <g id="_-Kurve-" serif:id="(Kurve)" transform="matrix(-1.54781,0,0,2.2806,1098.64,129.699)">
                        <path d="M397.731,65.968C408.599,74.201 428.211,69.872 434.976,81.729C445.329,99.874 499.827,83.197 516.035,80.536C527.751,78.612 551.304,80.269 554.142,79.929C567.572,78.318 600.878,74.878 613.996,72.752C621.722,71.5 663.552,72.012 665.776,75.404C669.092,80.459 615.763,115.11 599.888,118.974C586.957,122.122 409.001,112.946 406.478,109.781C401.256,103.23 397.731,65.968 397.731,65.968Z" style="fill:rgb(215,121,47);"/>
                    </g>
                    <g id="_-Kurve-1" serif:id="(Kurve)" transform="matrix(-1.54781,0,0,2.2806,1098.64,152.868)">
                        <path d="M397.731,65.968C408.599,74.201 421.48,79.681 434.976,81.729C442.469,82.866 469.376,94.875 477.775,95.584C490.176,96.631 512.219,84.304 520.612,79.779C527.506,76.062 558.015,71.843 561.584,71.438C565.711,70.97 576.177,88.842 582.552,83.907C610.285,62.439 645.82,52.797 653.255,61.04C658.497,66.851 611.613,107.596 599.888,118.974C586.295,132.166 408.349,122.843 406.478,109.781C405.29,101.489 397.731,65.968 397.731,65.968Z" style="fill:rgb(202,148,17);"/>
                    </g>
                    <g id="_-Kurve-2" serif:id="(Kurve)" transform="matrix(-1.87836,0,0,2.76766,2049.03,-813.093)">
                        <path d="M832.315,393.084C835.81,395.629 837.939,405.265 839.558,410.764C844.159,426.391 867.774,431.668 878.344,430.847C881.522,430.601 884.927,433.911 886.646,436.691C888.394,439.519 900.375,442.921 905.854,437.431C911.474,431.798 917.278,426.42 922.824,421.074C928.244,415.85 935.213,412.588 942.645,412.265C948.756,411.999 949.363,419.361 954.322,417.882C961.369,415.782 961.869,411.099 966.543,410.589C968.377,410.389 973.24,416.262 974.439,417.679C976.348,419.936 983.851,425.343 988.613,422.282C991.895,420.172 1005.31,407.082 1008.19,405.915C1020.04,401.126 1011.98,413.228 1032.36,406.421C1041.21,403.461 1041.67,399.49 1042.01,400.45C1050.57,425.113 911.739,501.766 890.594,474.537C885.38,467.824 853.613,438.457 842.974,434.814C810.729,423.773 817.859,392.249 832.315,393.084Z" style="fill:rgb(141,77,27);fill-opacity:0.647059;"/>
                    </g>
                </g>
            </g>
            <g id="_-Kurve-3" serif:id="(Kurve)" transform="matrix(0.912923,0.0961183,-0.121378,1.15284,-242.563,-453.679)">
                <path d="M656.508,482.962C656.155,482.26 656.377,481.459 657.069,480.939C657.761,480.419 658.783,480.285 659.649,480.6C665.656,482.969 671.752,483.101 679.55,484.334C691.752,486.264 716.067,481.237 719.077,481.527C724.799,482.078 723.598,492.041 710.221,495.514C704.874,496.902 683.139,496.582 676.087,494.535C661.273,490.237 658.311,486.534 656.508,482.962Z" style="fill:rgb(220,158,111);fill-opacity:0.509804;"/>
            </g>
            <g id="_-Kurve-4" serif:id="(Kurve)" transform="matrix(0.848972,0.00385133,-0.0657634,0.748932,-203.278,-170.925)">
                <path d="M702.336,452.391C706.311,451.563 708.294,453.11 709.128,454.273C712.527,459.012 713.138,473.011 699.502,478.262C696.626,479.37 686.615,477.172 688.159,476.578C699.703,472.133 705.334,456.314 702.336,452.391Z" style="fill:rgb(220,158,111);fill-opacity:0.509804;"/>
            </g>
            <g id="_-Kurve-5" serif:id="(Kurve)" transform="matrix(0.927099,0.00420576,-0.0874044,0.995386,-234.81,-283.764)">
                <path d="M702.336,452.391C706.311,451.563 708.294,453.11 709.128,454.273C712.527,459.012 713.138,473.011 699.502,478.262C696.626,479.37 686.615,477.172 688.159,476.578C699.703,472.133 705.334,456.314 702.336,452.391Z" style="fill:rgb(220,158,111);fill-opacity:0.509804;"/>
            </g>
            <g transform="matrix(0.510139,0.187974,-0.22466,0.609702,251.667,-257.261)">
                <ellipse cx="647.878" cy="501.667" rx="13.933" ry="7.9" style="fill:rgb(220,158,111);fill-opacity:0.509804;"/>
            </g>
            <g transform="matrix(-6.81283,0,0,-6.81283,1518.72,762.904)">
                <path d="M153.263,86.079C153.453,85.646 154.122,85.49 154.782,85.734C155.459,85.983 155.872,86.558 155.703,87.017C155.646,87.171 155.531,87.292 155.378,87.376C155.382,87.365 155.387,87.354 155.391,87.342C155.56,86.883 155.148,86.308 154.471,86.059C154.021,85.893 153.567,85.913 153.263,86.079Z" style="fill:rgb(220,158,111);fill-opacity:0.509804;"/>
            </g>
            <g transform="matrix(0.342939,-0.17762,0.212286,0.40987,104.499,79.8478)">
                <ellipse cx="647.878" cy="501.667" rx="13.933" ry="7.9" style="fill:rgb(220,158,111);fill-opacity:0.509804;"/>
            </g>
        </g>
    </g>
</svg>
