<?xml version="1.0" encoding="utf-8"?>
<!-- Generator: Adobe Illustrator 23.0.1, SVG Export Plug-In . SVG Version: 6.00 Build 0)  -->
<svg version="1.1" id="Ebene_1" xmlns:serif="http://www.serif.com/"
	 xmlns="http://www.w3.org/2000/svg" xmlns:xlink="http://www.w3.org/1999/xlink" x="0px" y="0px" viewBox="0 0 595.3 68.5"
	 style="enable-background:new 0 0 595.3 68.5;" xml:space="preserve">
<style type="text/css">
	.st0{fill-rule:evenodd;clip-rule:evenodd;fill:#8D2525;}
	.st1{clip-path:url(#SVGID_2_);}
	.st2{fill-rule:evenodd;clip-rule:evenodd;fill:#BC4242;}
	.st3{fill-rule:evenodd;clip-rule:evenodd;fill:#671B1B;}
	.st4{fill-rule:evenodd;clip-rule:evenodd;fill:#CC6F6F;fill-opacity:0.4863;}
	.st5{clip-path:url(#SVGID_4_);}
	.st6{fill-rule:evenodd;clip-rule:evenodd;fill:#CC6F6F;fill-opacity:0.698;}
</style>
<g transform="matrix(1,0,0,1,-496,-670)">
	<g transform="matrix(1.07026,0,0,0.823616,63.2868,340.576)">
		<g transform="matrix(1,0,0,1,211.446,-114.841)">
			<g>
				<path class="st0" d="M470.7,563.8c0-12.6-3.9-24.7-10.7-33.7c-6.9-8.9-16.2-13.9-25.9-13.9c-53.1,0-151,0-204.2,0
					c-9.7,0-19,5-25.9,13.9c-6.9,8.9-10.7,21-10.7,33.7c0,0,0,0,0,0c0,9.5,6,17.3,13.3,17.3c46.9,0,204.9,11.2,251.7,11.2
					C465.7,592.3,470.7,573.4,470.7,563.8C470.7,563.8,470.7,563.8,470.7,563.8z"/>
				<g>
					<defs>
						<path id="SVGID_1_" d="M470.7,563.8c0-12.6-3.9-24.7-10.7-33.7c-6.9-8.9-16.2-13.9-25.9-13.9c-53.1,0-151,0-204.2,0
							c-9.7,0-19,5-25.9,13.9c-6.9,8.9-10.7,21-10.7,33.7c0,0,0,0,0,0c0,9.5,6,17.3,13.3,17.3c46.9,0,166.1,22.4,251.7,11.2
							C465.6,591.3,470.7,573.4,470.7,563.8C470.7,563.8,470.7,563.8,470.7,563.8z"/>
					</defs>
					<clipPath id="SVGID_2_">
						<use xlink:href="#SVGID_1_"  style="overflow:visible;"/>
					</clipPath>
					<g class="st1">
						<g transform="matrix(0.927802,0,0,0.927802,18.9363,38.3397)">
							<path class="st2" d="M476.2,550c0-8.6-2.6-16.9-7.3-22.9c-4.7-6.1-11-9.5-17.7-9.5c-52.7,0-174.8,0-227.5,0
								c-6.6,0-13,3.4-17.7,9.5c-4.7,6.1-7.3,14.3-7.3,22.9c0,0,0,0,0,0c0,8.6,2.6,16.9,7.3,22.9c4.7,6.1,11,9.5,17.7,9.5
								c52.7,0,175.8,12,228.5,12c6.6,0,13-3.4,17.7-9.5C474.5,578.9,476.2,558.7,476.2,550C476.2,550,476.2,550,476.2,550z"/>
						</g>
						<path class="st3" d="M191.1,568.3c9.5,8.4,8.9,0.4,33.1,2.8c16.9-0.6,173.7,18.3,220.1,11.9c11.6-0.2,27.5-13.7,36-16.6
							c1.9-0.7-6.5,21.6-18.7,31.6c-33.8,27.7-247.7-0.7-266.6-18.6C190.9,575.5,191.1,568.3,191.1,568.3z"/>
						<g transform="matrix(0.2561,0,0,0.646964,179.095,186.477)">
							<path class="st4" d="M610.4,556.7c0-8.6-6.6-16.9-18.5-22.9c-11.8-6.1-27.9-9.5-44.6-9.5c-45.3,0-106,0-151.3,0
								c-16.7,0-32.8,3.4-44.6,9.5c-11.8,6.1-18.5,14.3-18.5,22.9v0c0,8.6,6.6,16.9,18.5,22.9c11.8,6.1,27.9,9.5,44.6,9.5
								c45.3,0,106,0,151.3,0c16.7,0,32.8-3.4,44.6-9.5C603.8,573.6,610.4,565.4,610.4,556.7L610.4,556.7z"/>
						</g>
						<g transform="matrix(1,0,0,1,-206.177,84.8409)">
							<path class="st2" d="M522.1,440.8c-11.6,0-21,9.4-21,21l0,0c0,11.6,9.4,21,21,21H552c-15,0-35,0-49.9,0c-11.6,0-21-9.4-21-21
								l0,0c0-11.6,9.4-21,21-21H522.1z"/>
						</g>
						<g transform="matrix(0.899708,0,0,1,-139.012,84.8409)">
							<path class="st2" d="M552.4,440.8c-11.6,0-21,9.4-21,21l0,0c0,11.6,9.4,21,21,21h29.9c-15,0-35,0-49.9,0
								c-11.6,0-21-9.4-21-21l0,0c0-11.6,9.4-21,21-21H552.4z"/>
						</g>
						<g transform="matrix(0.840983,0,0,1,-294.899,98.3386)">
							<path class="st4" d="M637.8,427.3c2.7,0,5.1,1.5,6.5,4c1.4,2.5,1.5,5.6,0.2,8.1c-1.3,2.7-2,5.7-2,8.8l0,0
								c0,11.6,9.4,21,21,21c0,0-22.8,0-37.7,0c-11.6,0-21-9.4-21-21l0,0c0-11.6,9.4-21,21-21C625.7,427.3,631.1,427.3,637.8,427.3z
								"/>
						</g>
						<g transform="matrix(0.23195,0,0,0.463901,234.984,280.726)">
							<path class="st4" d="M857,590.5c0.1-8.6-5-16.9-14.3-23c-9.3-6.1-21.9-9.6-35.2-9.7c-50.3-0.3-127.3-0.8-177.6-1.1
								c-13.2-0.1-26,3.3-35.5,9.3c-9.5,6-14.8,14.2-15,22.9c0,0,0,0,0,0c-0.1,8.6,5,16.9,14.3,23c9.3,6.1,21.9,9.6,35.2,9.7
								c50.3,0.3,127.3,0.8,177.6,1.1c13.2,0.1,26-3.3,35.5-9.3C851.5,607.3,856.9,599.1,857,590.5C857,590.5,857,590.5,857,590.5z"
								/>
						</g>
						<g transform="matrix(1,0,0,1,-205.446,74.8409)">
							<path class="st2" d="M634.3,464.7l-14.2-0.2c-4,0-7.8,1.5-10.7,4.3c-2.8,2.8-4.5,6.6-4.5,10.6c0,0,0,0,0,0
								c0,4,1.5,7.8,4.3,10.7c2.8,2.9,6.6,4.5,10.6,4.5l-20-0.2c-4,0-7.8-1.7-10.6-4.5c-2.8-2.9-4.4-6.7-4.3-10.7c0,0,0,0,0,0
								c0-4,1.6-7.8,4.5-10.6c2.8-2.8,6.7-4.3,10.7-4.3L634.3,464.7z"/>
						</g>
					</g>
				</g>
			</g>
		</g>
		<g transform="matrix(1,0,0,1,349.884,-114.841)">
			<g>
				<path class="st0" d="M609.8,563.8c0-12.6-3.9-24.7-10.7-33.7c-6.9-8.9-16.2-13.9-25.9-13.9c-53.1,0-151,0-204.2,0
					c-9.7,0-19,5-25.9,13.9c-6.9,8.9-10.7,21-10.7,33.7c0,0,0,0,0,0c0,9.5,6.9,27.6,14.2,28.4c73.3,8.1,203.1-11.2,250-11.2
					C603.8,581.1,609.8,573.4,609.8,563.8C609.8,563.8,609.8,563.8,609.8,563.8z"/>
				<g>
					<defs>
						<path id="SVGID_3_" d="M609.8,563.8c0-12.6-3.9-24.7-10.7-33.7c-6.9-8.9-16.2-13.9-25.9-13.9c-53.1,0-151,0-204.2,0
							c-9.7,0-19,5-25.9,13.9c-6.9,8.9-10.7,21-10.7,33.7c0,0,0,0,0,0c0,9.5,6.9,27.2,14.2,28.4c52.3,9.2,203.1-11.2,250-11.2
							C603.8,581.1,609.8,573.4,609.8,563.8C609.8,563.8,609.8,563.8,609.8,563.8z"/>
					</defs>
					<clipPath id="SVGID_4_">
						<use xlink:href="#SVGID_3_"  style="overflow:visible;"/>
					</clipPath>
					<g class="st5">
						<g transform="matrix(0.927802,0,0,0.927802,18.9363,38.3397)">
							<path class="st2" d="M626,550c0-8.6-2.6-16.9-7.3-22.9c-4.7-6.1-11-9.5-17.7-9.5c-52.7,0-174.8,0-227.5,0
								c-6.6,0-13,3.4-17.7,9.5c-4.7,6.1-7.3,14.3-7.3,22.9c0,0,0,0,0,0c0,8.6,3.6,28.9,8.3,35c4.7,6.1,11,9.5,17.7,9.5
								c52.7,0,173.9-12,226.6-12c6.6,0,13-3.4,17.7-9.5C623.4,566.9,626,558.7,626,550C626,550,626,550,626,550z"/>
						</g>
						<g transform="matrix(0.133004,0,0,0.463901,261.412,280.726)">
							<path class="st4" d="M2227.4,560.5c0-8.6-9.2-16.9-25.5-22.9c-16.3-6.1-38.5-9.5-61.6-9.5c-32.9,0-70.4,0-103.3,0
								c-23.1,0-45.3,3.4-61.6,9.5c-16.3,6.1-25.5,14.3-25.5,22.9c0,0,0,0,0,0c0,8.6,9.2,16.9,25.5,22.9c16.3,6.1,38.5,9.5,61.6,9.5
								c32.9,0,70.4,0,103.3,0c23.1,0,45.3-3.4,61.6-9.5C2218.2,577.3,2227.4,569.1,2227.4,560.5
								C2227.4,560.5,2227.4,560.5,2227.4,560.5z"/>
						</g>
						<g transform="matrix(1,0,0,1,-550.846,98.3386)">
							<path class="st4" d="M1111.4,428.6c-0.2-0.1-0.4-0.4-0.3-0.7c0-0.3,0.2-0.6,0.5-0.6c0,0,0,0,0,0c2.2,0,4.6,0,6.8,0
								c8.3,0,15.1,6.7,15.1,15.1c0,0,0,0,0,0c0,8.3-6.7,15.1-15.1,15.1c-2.2,0-4.6,0-6.8,0c0,0,0,0,0,0c-0.3,0-0.5-0.2-0.5-0.6
								c0-0.3,0.1-0.6,0.4-0.7c5.3-2.3,9-7.6,9-13.7c0,0,0,0,0,0C1120.4,436.2,1116.7,431,1111.4,428.6z"/>
						</g>
						<g transform="matrix(0.361775,0,0,0.646964,150.326,186.477)">
							<path class="st6" d="M897,556.2c-0.5-8.6-5.7-16.7-14.4-22.5c-8.7-5.8-20.3-8.9-32.1-8.5c-51.7,1.6-136.3,4.1-188,5.7
								c-11.8,0.4-23,4.1-31,10.5c-8,6.3-12.2,14.7-11.8,23.3l0,0c0.5,8.6,5.7,16.7,14.4,22.5c8.7,5.8,20.3,8.9,32.1,8.5
								c51.7-1.6,136.3-4.1,188-5.7c11.8-0.4,23-4.1,31-10.5C893.3,573.2,897.5,564.8,897,556.2L897,556.2z"/>
						</g>
						<g transform="matrix(1,0,0,1,-357.884,74.8409)">
							<path class="st2" d="M755,454.7l40.1-2.2c11.6-0.6,21.3,8.3,21.7,19.8l0,0c0.4,11.6-8.7,21.5-20.3,22.1
								c-17.1,0.9-41.2,2.2-58.3,3.2l18.3-1c11.6-0.6,20.7-10.5,20.3-22.1l0,0C776.3,462.9,766.6,454,755,454.7z"/>
						</g>
						<path class="st3" d="M330.2,568.3c9.5,8.4,23.6,16.1,47.7,15.3c16.9-0.6,188.7-13.6,207.4-13.8c11.6-0.2,25.6-0.5,34.1-3.4
							c1.9-0.7-7.4,10.4-19.6,20.4c-33.8,27.7-245.9,21.6-264.8,3.7C330.8,586.7,330.2,568.3,330.2,568.3z"/>
					</g>
				</g>
			</g>
		</g>
	</g>
</g>
</svg>
