<?xml version="1.0" encoding="UTF-8" standalone="no"?>
<!DOCTYPE svg PUBLIC "-//W3C//DTD SVG 1.1//EN" "http://www.w3.org/Graphics/SVG/1.1/DTD/svg11.dtd">
<svg width="100%" height="100%" viewBox="0 0 280 42" version="1.1" xmlns="http://www.w3.org/2000/svg" xmlns:xlink="http://www.w3.org/1999/xlink" xml:space="preserve" xmlns:serif="http://www.serif.com/" style="fill-rule:evenodd;clip-rule:evenodd;stroke-linecap:round;stroke-linejoin:round;stroke-miterlimit:1.5;">
    <g transform="matrix(1,0,0,1,-192,-426)">
        <g>
            <g transform="matrix(0.541358,0,0,0.686347,11.5699,206.085)">
                <g transform="matrix(1,0,0,1,7,0)">
                    <path d="M497.992,336.547C497.992,328.657 489.871,322.252 479.868,322.252L346.38,322.252C336.377,322.252 328.256,328.657 328.256,336.547L328.256,365.138C328.256,373.028 336.377,379.433 346.38,379.433L479.868,379.433C489.871,379.433 497.992,373.028 497.992,365.138L497.992,336.547Z" style="fill:rgb(188,66,66);stroke:black;stroke-width:1.62px;"/>
                </g>
                <g transform="matrix(1,0,0,1,178.724,0)">
                    <path d="M497.992,336.547C497.992,328.657 491.587,322.252 483.697,322.252L342.551,322.252C334.661,322.252 328.256,328.657 328.256,336.547L328.256,365.138C328.256,373.028 334.661,379.433 342.551,379.433L483.697,379.433C491.587,379.433 497.992,373.028 497.992,365.138L497.992,336.547Z" style="fill:rgb(188,66,66);stroke:black;stroke-width:1.62px;"/>
                </g>
                <g transform="matrix(1,0,0,1,350.134,0)">
                    <path d="M497.992,336.547C497.992,328.657 489.871,322.252 479.868,322.252L346.38,322.252C336.377,322.252 328.256,328.657 328.256,336.547L328.256,365.138C328.256,373.028 336.377,379.433 346.38,379.433L479.868,379.433C489.871,379.433 497.992,373.028 497.992,365.138L497.992,336.547Z" style="fill:rgb(188,66,66);stroke:black;stroke-width:1.62px;"/>
                </g>
                <g transform="matrix(0.320918,0,0,0.881591,229.914,41.0979)">
                    <path d="M857.159,341.019C857.159,335.045 840.266,330.195 819.459,330.195L365.952,330.195C345.144,330.195 328.251,335.045 328.251,341.019L328.251,362.669C328.251,368.643 345.144,373.493 365.952,373.493L819.459,373.493C840.266,373.493 857.159,368.643 857.159,362.669L857.159,341.019Z" style="fill:rgb(141,37,37);"/>
                </g>
                <g transform="matrix(0.320918,0,0,0.881591,400.914,41.0979)">
                    <path d="M857.159,341.019C857.159,335.045 840.266,330.195 819.459,330.195L365.952,330.195C345.144,330.195 328.251,335.045 328.251,341.019L328.251,362.669C328.251,368.643 345.144,373.493 365.952,373.493L819.459,373.493C840.266,373.493 857.159,368.643 857.159,362.669L857.159,341.019Z" style="fill:rgb(141,37,37);"/>
                </g>
                <g transform="matrix(0.320918,0,0,0.881591,572.914,41.0979)">
                    <path d="M857.159,341.019C857.159,335.045 843.835,330.195 827.423,330.195L357.988,330.195C341.576,330.195 328.252,335.045 328.251,341.019L328.251,362.669C328.251,368.643 341.576,373.493 357.988,373.493L827.423,373.493C843.835,373.493 857.159,368.643 857.159,362.669L857.159,341.019Z" style="fill:rgb(141,37,37);"/>
                </g>
                <g transform="matrix(1,0,0,1,7,0)">
                    <path d="M497.992,336.547C497.992,328.657 489.871,322.252 479.868,322.252L346.38,322.252C336.377,322.252 328.256,328.657 328.256,336.547L328.256,365.138C328.256,373.028 336.377,379.433 346.38,379.433L479.868,379.433C489.871,379.433 497.992,373.028 497.992,365.138L497.992,336.547Z" style="fill:none;stroke:black;stroke-width:1.62px;"/>
                </g>
                <g transform="matrix(1,0,0,1,178.724,0)">
                    <path d="M497.992,336.547C497.992,328.657 489.871,322.252 479.868,322.252L346.38,322.252C336.377,322.252 328.256,328.657 328.256,336.547L328.256,365.138C328.256,373.028 336.377,379.433 346.38,379.433L479.868,379.433C489.871,379.433 497.992,373.028 497.992,365.138L497.992,336.547Z" style="fill:none;stroke:black;stroke-width:1.62px;"/>
                </g>
                <g transform="matrix(1,0,0,1,350.134,0)">
                    <path d="M497.992,336.547C497.992,328.657 489.871,322.252 479.868,322.252L346.38,322.252C336.377,322.252 328.256,328.657 328.256,336.547L328.256,365.138C328.256,373.028 336.377,379.433 346.38,379.433L479.868,379.433C489.871,379.433 497.992,373.028 497.992,365.138L497.992,336.547Z" style="fill:none;stroke:black;stroke-width:1.62px;"/>
                </g>
            </g>
            <g transform="matrix(1,0,0,1,0,125.052)">
                <g transform="matrix(-0.136018,-0.0318775,0.0694302,-0.0523753,249.31,342.927)">
                    <path d="M387.309,64.534C386.897,64.011 386.482,63.842 386.3,64.123C386.118,64.404 386.214,65.064 386.535,65.729C385.804,76.002 369.494,107.487 367.049,120.132C363.081,140.656 367.069,163.097 386.212,163.097C405.355,163.097 420.897,146.126 420.897,125.223C420.897,108.582 393.21,72.117 387.309,64.534Z" style="fill:rgb(255,212,195);"/>
                </g>
                <g transform="matrix(0.00153196,0.0654722,-0.1426,0.000589897,234.316,298.918)">
                    <path d="M420.439,121.107C419.922,114.633 408.543,109.362 394.449,109.068C380.356,108.774 368.402,113.557 367.147,119.994C367.068,120.038 367.058,120.085 367.049,120.132C363.081,140.656 367.069,163.097 386.212,163.097C405.355,163.097 420.897,146.126 420.897,125.223C420.897,123.958 420.737,122.579 420.439,121.107Z" style="fill:rgb(255,212,195);"/>
                </g>
                <g transform="matrix(0.0634702,0.0597897,-0.129088,0.0242267,207.646,293.988)">
                    <path d="M420.895,124.992C420.827,117.95 410.497,108.162 397.433,102.762C384.369,97.362 373.183,98.256 372.027,104.793C369.741,110.912 367.778,116.36 367.049,120.132C363.081,140.656 367.069,163.097 386.212,163.097C405.355,163.097 420.897,146.126 420.897,125.223C420.897,125.146 420.897,125.069 420.895,124.992Z" style="fill:rgb(255,212,195);"/>
                </g>
                <g transform="matrix(0.00508849,-0.0654404,0.142531,0.00195938,210.35,346.85)">
                    <path d="M419.933,118.984C419.223,112.63 407.905,107.924 394.015,108.21C380.125,108.496 368.394,113.675 367.153,120.07C367.057,120.09 367.053,120.111 367.049,120.132C363.081,140.656 367.069,163.097 386.212,163.097C405.355,163.097 420.897,146.126 420.897,125.223C420.897,123.367 420.553,121.265 419.933,118.984Z" style="fill:rgb(255,212,195);"/>
                </g>
                <g transform="matrix(-0.137715,0.0305628,-0.0665666,-0.0530285,296.52,321.087)">
                    <path d="M395.469,75.461C393.625,72.266 389.623,73.19 385.247,77.821C380.871,82.453 376.935,89.931 375.193,96.921C371.652,105.93 368.091,114.743 367.049,120.132C363.081,140.656 367.069,163.097 386.212,163.097C405.355,163.097 420.897,146.126 420.897,125.223C420.897,112.912 405.744,89.751 395.469,75.461Z" style="fill:rgb(255,212,195);"/>
                </g>
                <g transform="matrix(-0.0973298,0.0511101,-0.110348,-0.0371509,294.727,308.86)">
                    <path d="M407.326,93.097C405.298,87.827 396.649,88.812 386.787,95.436C376.925,102.06 368.679,112.423 367.205,120.045C367.049,120.131 367.049,120.132 367.049,120.132C363.081,140.656 367.069,163.097 386.212,163.097C405.355,163.097 420.897,146.126 420.897,125.223C420.897,117.27 414.573,104.789 407.326,93.097Z" style="fill:rgb(255,212,195);"/>
                </g>
                <g transform="matrix(-0.135223,-0.0324703,0.0707212,-0.052069,282.939,335.724)">
                    <path d="M387.348,64.584C386.924,64.047 386.496,63.864 386.305,64.138C386.114,64.412 386.207,65.074 386.533,65.75C385.779,76.049 369.492,107.497 367.049,120.132C363.081,140.656 367.069,163.097 386.212,163.097C405.355,163.097 420.897,146.126 420.897,125.223C420.897,108.617 393.329,72.273 387.348,64.584Z" style="fill:rgb(255,212,195);"/>
                </g>
                <g transform="matrix(-0.154797,-0.00711702,0.0153658,-0.0590864,306.517,328.529)">
                    <path d="M387.071,64.229C386.781,63.859 386.468,64.001 386.315,64.572C386.163,65.143 386.21,65.994 386.429,66.63C385.002,77.554 369.433,107.801 367.049,120.132C363.081,140.656 367.069,163.097 386.212,163.097C405.355,163.097 420.897,146.126 420.897,125.223C420.897,108.345 392.418,71.077 387.071,64.229Z" style="fill:rgb(255,212,195);"/>
                </g>
                <g transform="matrix(0.129944,0.0360804,-0.0785843,0.0500363,232.845,298.368)">
                    <path d="M387.568,64.867C387.105,64.28 386.613,64.017 386.37,64.228C386.127,64.439 386.194,65.07 386.533,65.765C385.754,76.097 369.49,107.506 367.049,120.132C363.081,140.656 367.069,163.097 386.212,163.097C405.355,163.097 420.897,146.126 420.897,125.223C420.897,108.813 393.975,73.127 387.568,64.867Z" style="fill:rgb(255,212,195);"/>
                </g>
                <g transform="matrix(0.0101604,-0.0653358,0.142303,0.00391236,239.941,342.725)">
                    <path d="M419.46,117.376C418.618,111.118 407.37,106.835 393.656,107.55C379.941,108.265 368.392,113.737 367.159,120.103C367.053,120.114 367.051,120.123 367.049,120.132C363.081,140.656 367.069,163.097 386.212,163.097C405.355,163.097 420.897,146.126 420.897,125.223C420.897,122.939 420.375,120.281 419.46,117.376Z" style="fill:rgb(255,212,195);"/>
                </g>
                <g transform="matrix(-0.0526176,-0.0616242,0.133048,-0.0200842,265.656,348.483)">
                    <path d="M420.897,125.096C420.839,118.247 410.322,109.291 396.977,104.726C383.631,100.16 372.14,101.586 370.839,107.969C369.086,112.785 367.649,117.027 367.049,120.132C363.081,140.656 367.069,163.097 386.212,163.097C405.355,163.097 420.897,146.126 420.897,125.223C420.897,125.18 420.897,125.138 420.897,125.096Z" style="fill:rgb(255,212,195);"/>
                </g>
                <g transform="matrix(-0.136018,-0.0318775,0.0694302,-0.0523753,342.31,342.927)">
                    <path d="M387.309,64.534C386.897,64.011 386.482,63.842 386.3,64.123C386.118,64.404 386.214,65.064 386.535,65.729C385.804,76.002 369.494,107.487 367.049,120.132C363.081,140.656 367.069,163.097 386.212,163.097C405.355,163.097 420.897,146.126 420.897,125.223C420.897,108.582 393.21,72.117 387.309,64.534Z" style="fill:rgb(255,212,195);"/>
                </g>
                <g transform="matrix(0.00153196,0.0654722,-0.1426,0.000589897,327.316,298.918)">
                    <path d="M420.439,121.107C419.922,114.633 408.543,109.362 394.449,109.068C380.356,108.774 368.402,113.557 367.147,119.994C367.068,120.038 367.058,120.085 367.049,120.132C363.081,140.656 367.069,163.097 386.212,163.097C405.355,163.097 420.897,146.126 420.897,125.223C420.897,123.958 420.737,122.579 420.439,121.107Z" style="fill:rgb(255,212,195);"/>
                </g>
                <g transform="matrix(0.0634702,0.0597897,-0.129088,0.0242267,300.646,293.988)">
                    <path d="M420.895,124.992C420.827,117.95 410.497,108.162 397.433,102.762C384.369,97.362 373.183,98.256 372.027,104.793C369.741,110.912 367.778,116.36 367.049,120.132C363.081,140.656 367.069,163.097 386.212,163.097C405.355,163.097 420.897,146.126 420.897,125.223C420.897,125.146 420.897,125.069 420.895,124.992Z" style="fill:rgb(255,212,195);"/>
                </g>
                <g transform="matrix(0.00508849,-0.0654404,0.142531,0.00195938,303.35,346.85)">
                    <path d="M419.933,118.984C419.223,112.63 407.905,107.924 394.015,108.21C380.125,108.496 368.394,113.675 367.153,120.07C367.057,120.09 367.053,120.111 367.049,120.132C363.081,140.656 367.069,163.097 386.212,163.097C405.355,163.097 420.897,146.126 420.897,125.223C420.897,123.367 420.553,121.265 419.933,118.984Z" style="fill:rgb(255,212,195);"/>
                </g>
                <g transform="matrix(-0.137715,0.0305628,-0.0665666,-0.0530285,389.52,321.087)">
                    <path d="M395.469,75.461C393.625,72.266 389.623,73.19 385.247,77.821C380.871,82.453 376.935,89.931 375.193,96.921C371.652,105.93 368.091,114.743 367.049,120.132C363.081,140.656 367.069,163.097 386.212,163.097C405.355,163.097 420.897,146.126 420.897,125.223C420.897,112.912 405.744,89.751 395.469,75.461Z" style="fill:rgb(255,212,195);"/>
                </g>
                <g transform="matrix(-0.0973298,0.0511101,-0.110348,-0.0371509,387.727,308.86)">
                    <path d="M407.326,93.097C405.298,87.827 396.649,88.812 386.787,95.436C376.925,102.06 368.679,112.423 367.205,120.045C367.049,120.131 367.049,120.132 367.049,120.132C363.081,140.656 367.069,163.097 386.212,163.097C405.355,163.097 420.897,146.126 420.897,125.223C420.897,117.27 414.573,104.789 407.326,93.097Z" style="fill:rgb(255,212,195);"/>
                </g>
                <g transform="matrix(-0.135223,-0.0324703,0.0707212,-0.052069,375.939,335.724)">
                    <path d="M387.348,64.584C386.924,64.047 386.496,63.864 386.305,64.138C386.114,64.412 386.207,65.074 386.533,65.75C385.779,76.049 369.492,107.497 367.049,120.132C363.081,140.656 367.069,163.097 386.212,163.097C405.355,163.097 420.897,146.126 420.897,125.223C420.897,108.617 393.329,72.273 387.348,64.584Z" style="fill:rgb(255,212,195);"/>
                </g>
                <g transform="matrix(-0.154797,-0.00711702,0.0153658,-0.0590864,399.517,328.529)">
                    <path d="M387.071,64.229C386.781,63.859 386.468,64.001 386.315,64.572C386.163,65.143 386.21,65.994 386.429,66.63C385.002,77.554 369.433,107.801 367.049,120.132C363.081,140.656 367.069,163.097 386.212,163.097C405.355,163.097 420.897,146.126 420.897,125.223C420.897,108.345 392.418,71.077 387.071,64.229Z" style="fill:rgb(255,212,195);"/>
                </g>
                <g transform="matrix(0.129944,0.0360804,-0.0785843,0.0500363,325.845,298.368)">
                    <path d="M387.568,64.867C387.105,64.28 386.613,64.017 386.37,64.228C386.127,64.439 386.194,65.07 386.533,65.765C385.754,76.097 369.49,107.506 367.049,120.132C363.081,140.656 367.069,163.097 386.212,163.097C405.355,163.097 420.897,146.126 420.897,125.223C420.897,108.813 393.975,73.127 387.568,64.867Z" style="fill:rgb(255,212,195);"/>
                </g>
                <g transform="matrix(0.0101604,-0.0653358,0.142303,0.00391236,332.941,342.725)">
                    <path d="M419.46,117.376C418.618,111.118 407.37,106.835 393.656,107.55C379.941,108.265 368.392,113.737 367.159,120.103C367.053,120.114 367.051,120.123 367.049,120.132C363.081,140.656 367.069,163.097 386.212,163.097C405.355,163.097 420.897,146.126 420.897,125.223C420.897,122.939 420.375,120.281 419.46,117.376Z" style="fill:rgb(255,212,195);"/>
                </g>
                <g transform="matrix(-0.0526176,-0.0616242,0.133048,-0.0200842,358.656,348.483)">
                    <path d="M420.897,125.096C420.839,118.247 410.322,109.291 396.977,104.726C383.631,100.16 372.14,101.586 370.839,107.969C369.086,112.785 367.649,117.027 367.049,120.132C363.081,140.656 367.069,163.097 386.212,163.097C405.355,163.097 420.897,146.126 420.897,125.223C420.897,125.18 420.897,125.138 420.897,125.096Z" style="fill:rgb(255,212,195);"/>
                </g>
                <g transform="matrix(-0.136018,-0.0318775,0.0694302,-0.0523753,433.31,342.927)">
                    <path d="M387.309,64.534C386.897,64.011 386.482,63.842 386.3,64.123C386.118,64.404 386.214,65.064 386.535,65.729C385.804,76.002 369.494,107.487 367.049,120.132C363.081,140.656 367.069,163.097 386.212,163.097C405.355,163.097 420.897,146.126 420.897,125.223C420.897,108.582 393.21,72.117 387.309,64.534Z" style="fill:rgb(255,212,195);"/>
                </g>
                <g transform="matrix(0.00153196,0.0654722,-0.1426,0.000589897,418.316,298.918)">
                    <path d="M420.439,121.107C419.922,114.633 408.543,109.362 394.449,109.068C380.356,108.774 368.402,113.557 367.147,119.994C367.068,120.038 367.058,120.085 367.049,120.132C363.081,140.656 367.069,163.097 386.212,163.097C405.355,163.097 420.897,146.126 420.897,125.223C420.897,123.958 420.737,122.579 420.439,121.107Z" style="fill:rgb(255,212,195);"/>
                </g>
                <g transform="matrix(0.0634702,0.0597897,-0.129088,0.0242267,391.646,293.988)">
                    <path d="M420.895,124.992C420.827,117.95 410.497,108.162 397.433,102.762C384.369,97.362 373.183,98.256 372.027,104.793C369.741,110.912 367.778,116.36 367.049,120.132C363.081,140.656 367.069,163.097 386.212,163.097C405.355,163.097 420.897,146.126 420.897,125.223C420.897,125.146 420.897,125.069 420.895,124.992Z" style="fill:rgb(255,212,195);"/>
                </g>
                <g transform="matrix(0.00508849,-0.0654404,0.142531,0.00195938,394.35,346.85)">
                    <path d="M419.933,118.984C419.223,112.63 407.905,107.924 394.015,108.21C380.125,108.496 368.394,113.675 367.153,120.07C367.057,120.09 367.053,120.111 367.049,120.132C363.081,140.656 367.069,163.097 386.212,163.097C405.355,163.097 420.897,146.126 420.897,125.223C420.897,123.367 420.553,121.265 419.933,118.984Z" style="fill:rgb(255,212,195);"/>
                </g>
                <g transform="matrix(-0.137715,0.0305628,-0.0665666,-0.0530285,480.52,321.087)">
                    <path d="M395.469,75.461C393.625,72.266 389.623,73.19 385.247,77.821C380.871,82.453 376.935,89.931 375.193,96.921C371.652,105.93 368.091,114.743 367.049,120.132C363.081,140.656 367.069,163.097 386.212,163.097C405.355,163.097 420.897,146.126 420.897,125.223C420.897,112.912 405.744,89.751 395.469,75.461Z" style="fill:rgb(255,212,195);"/>
                </g>
                <g transform="matrix(-0.0973298,0.0511101,-0.110348,-0.0371509,478.727,308.86)">
                    <path d="M407.326,93.097C405.298,87.827 396.649,88.812 386.787,95.436C376.925,102.06 368.679,112.423 367.205,120.045C367.049,120.131 367.049,120.132 367.049,120.132C363.081,140.656 367.069,163.097 386.212,163.097C405.355,163.097 420.897,146.126 420.897,125.223C420.897,117.27 414.573,104.789 407.326,93.097Z" style="fill:rgb(255,212,195);"/>
                </g>
                <g transform="matrix(-0.135223,-0.0324703,0.0707212,-0.052069,466.939,335.724)">
                    <path d="M387.348,64.584C386.924,64.047 386.496,63.864 386.305,64.138C386.114,64.412 386.207,65.074 386.533,65.75C385.779,76.049 369.492,107.497 367.049,120.132C363.081,140.656 367.069,163.097 386.212,163.097C405.355,163.097 420.897,146.126 420.897,125.223C420.897,108.617 393.329,72.273 387.348,64.584Z" style="fill:rgb(255,212,195);"/>
                </g>
                <g transform="matrix(-0.154797,-0.00711702,0.0153658,-0.0590864,490.517,328.529)">
                    <path d="M387.071,64.229C386.781,63.859 386.468,64.001 386.315,64.572C386.163,65.143 386.21,65.994 386.429,66.63C385.002,77.554 369.433,107.801 367.049,120.132C363.081,140.656 367.069,163.097 386.212,163.097C405.355,163.097 420.897,146.126 420.897,125.223C420.897,108.345 392.418,71.077 387.071,64.229Z" style="fill:rgb(255,212,195);"/>
                </g>
                <g transform="matrix(0.129944,0.0360804,-0.0785843,0.0500363,416.845,298.368)">
                    <path d="M387.568,64.867C387.105,64.28 386.613,64.017 386.37,64.228C386.127,64.439 386.194,65.07 386.533,65.765C385.754,76.097 369.49,107.506 367.049,120.132C363.081,140.656 367.069,163.097 386.212,163.097C405.355,163.097 420.897,146.126 420.897,125.223C420.897,108.813 393.975,73.127 387.568,64.867Z" style="fill:rgb(255,212,195);"/>
                </g>
                <g transform="matrix(0.0101604,-0.0653358,0.142303,0.00391236,423.941,342.725)">
                    <path d="M419.46,117.376C418.618,111.118 407.37,106.835 393.656,107.55C379.941,108.265 368.392,113.737 367.159,120.103C367.053,120.114 367.051,120.123 367.049,120.132C363.081,140.656 367.069,163.097 386.212,163.097C405.355,163.097 420.897,146.126 420.897,125.223C420.897,122.939 420.375,120.281 419.46,117.376Z" style="fill:rgb(255,212,195);"/>
                </g>
                <g transform="matrix(-0.0526176,-0.0616242,0.133048,-0.0200842,449.656,348.483)">
                    <path d="M420.897,125.096C420.839,118.247 410.322,109.291 396.977,104.726C383.631,100.16 372.14,101.586 370.839,107.969C369.086,112.785 367.649,117.027 367.049,120.132C363.081,140.656 367.069,163.097 386.212,163.097C405.355,163.097 420.897,146.126 420.897,125.223C420.897,125.18 420.897,125.138 420.897,125.096Z" style="fill:rgb(255,212,195);"/>
                </g>
            </g>
        </g>
    </g>
</svg>
