<?xml version="1.0" encoding="UTF-8" standalone="no"?>
<!DOCTYPE svg PUBLIC "-//W3C//DTD SVG 1.1//EN" "http://www.w3.org/Graphics/SVG/1.1/DTD/svg11.dtd">
<svg width="100%" height="100%" viewBox="0 0 297 27" version="1.1" xmlns="http://www.w3.org/2000/svg" xmlns:xlink="http://www.w3.org/1999/xlink" xml:space="preserve" xmlns:serif="http://www.serif.com/" style="fill-rule:evenodd;clip-rule:evenodd;stroke-linejoin:round;stroke-miterlimit:1.41421;">
    <g transform="matrix(1,0,0,1,-496,-670)">
        <g transform="matrix(1.07026,0,0,0.823616,63.2868,340.576)">
            <g transform="matrix(1,0,0,1,211.446,-114.841)">
                <g>
                    <path d="M331.501,538.6C331.501,532.298 329.575,526.255 326.146,521.8C322.717,517.344 318.067,514.841 313.218,514.841C286.703,514.841 237.861,514.841 211.347,514.841C206.498,514.841 201.847,517.344 198.418,521.8C194.989,526.255 193.063,532.298 193.063,538.6C193.063,538.6 193.063,538.6 193.063,538.601C193.063,543.365 196.035,547.226 199.701,547.226C223.084,547.226 301.481,547.226 324.863,547.226C328.529,547.226 331.501,543.365 331.501,538.601C331.501,538.6 331.501,538.6 331.501,538.6Z" style="fill:rgb(141,37,37);"/>
                    <clipPath id="_clip1">
                        <path d="M331.501,538.6C331.501,532.298 329.575,526.255 326.146,521.8C322.717,517.344 318.067,514.841 313.218,514.841C286.703,514.841 237.861,514.841 211.347,514.841C206.498,514.841 201.847,517.344 198.418,521.8C194.989,526.255 193.063,532.298 193.063,538.6C193.063,538.6 193.063,538.6 193.063,538.601C193.063,543.365 196.035,547.226 199.701,547.226C223.084,547.226 301.481,547.226 324.863,547.226C328.529,547.226 331.501,543.365 331.501,538.601C331.501,538.6 331.501,538.6 331.501,538.6Z"/>
                    </clipPath>
                    <g clip-path="url(#_clip1)">
                        <g transform="matrix(0.927802,0,0,0.927802,18.9363,38.3397)">
                            <path d="M331.501,531.031C331.501,526.737 330.188,522.619 327.852,519.583C325.515,516.547 322.346,514.841 319.042,514.841C292.742,514.841 231.822,514.841 205.523,514.841C202.218,514.841 199.049,516.547 196.712,519.583C194.376,522.619 193.063,526.737 193.063,531.031C193.063,531.033 193.063,531.034 193.063,531.036C193.063,535.33 194.376,539.448 196.712,542.484C199.049,545.521 202.218,547.226 205.523,547.226C231.822,547.226 292.742,547.226 319.042,547.226C322.346,547.226 325.515,545.521 327.852,542.484C330.188,539.448 331.501,535.33 331.501,531.036C331.501,531.034 331.501,531.033 331.501,531.031Z" style="fill:rgb(188,66,66);"/>
                        </g>
                        <path d="M192.002,540.826C196.717,545.004 206.558,544.611 218.604,544.211C227.017,543.931 306.619,544.2 315.94,544.072C321.721,543.993 332.054,541.337 336.275,539.886C337.237,539.555 332.591,545.089 326.503,550.083C309.658,563.901 203.37,555.288 193.938,546.37C191.894,544.438 192.002,540.826 192.002,540.826Z" style="fill:rgb(103,27,27);"/>
                        <g transform="matrix(0.2561,0,0,0.646964,179.095,186.477)">
                            <path d="M331.501,531.033C331.501,526.739 328.185,522.62 322.281,519.583C316.378,516.547 308.371,514.841 300.023,514.841C277.436,514.841 247.128,514.841 224.542,514.841C216.193,514.841 208.186,516.547 202.283,519.583C196.38,522.62 193.063,526.739 193.063,531.033C193.063,531.033 193.063,531.034 193.063,531.034C193.063,535.329 196.38,539.447 202.283,542.484C208.186,545.52 216.193,547.226 224.542,547.226C247.128,547.226 277.436,547.226 300.023,547.226C308.371,547.226 316.378,545.52 322.281,542.484C328.185,539.447 331.501,535.329 331.501,531.034C331.501,531.034 331.501,531.033 331.501,531.033Z" style="fill:rgb(204,111,111);fill-opacity:0.486275;"/>
                        </g>
                        <g transform="matrix(1,0,0,1,-206.177,84.8409)">
                            <path d="M460.461,434.72C454.675,434.72 449.985,439.41 449.985,445.196C449.985,445.196 449.985,445.196 449.985,445.196C449.985,450.982 454.675,455.672 460.461,455.672L475.363,455.672C467.904,455.672 457.92,455.672 450.461,455.672C444.675,455.672 439.985,450.982 439.985,445.196C439.985,445.196 439.985,445.196 439.985,445.196C439.985,439.41 444.675,434.72 450.461,434.72L460.461,434.72Z" style="fill:rgb(188,66,66);"/>
                        </g>
                        <g transform="matrix(0.899708,0,0,1,-139.012,84.8409)">
                            <path d="M460.461,434.72C454.675,434.72 449.985,439.41 449.985,445.196C449.985,445.196 449.985,445.196 449.985,445.196C449.985,450.982 454.675,455.672 460.461,455.672L475.363,455.672C467.904,455.672 457.92,455.672 450.461,455.672C444.675,455.672 439.985,450.982 439.985,445.196C439.985,445.196 439.985,445.196 439.985,445.196C439.985,439.41 444.675,434.72 450.461,434.72L460.461,434.72Z" style="fill:rgb(188,66,66);"/>
                        </g>
                        <g transform="matrix(0.840983,0,0,1,-294.899,98.3386)">
                            <path d="M608.808,421.222C610.133,421.222 611.362,421.981 612.046,423.222C612.731,424.462 612.771,426.004 612.152,427.285C611.5,428.616 611.149,430.116 611.149,431.698C611.149,431.698 611.149,431.698 611.149,431.698C611.149,437.484 615.839,442.174 621.625,442.174C621.625,442.174 610.26,442.174 602.801,442.174C597.015,442.174 592.325,437.484 592.325,431.698C592.325,431.698 592.325,431.698 592.325,431.698C592.325,425.912 597.015,421.222 602.801,421.222C602.801,421.222 605.475,421.222 608.808,421.222Z" style="fill:rgb(204,111,111);fill-opacity:0.486275;"/>
                        </g>
                        <g transform="matrix(0.23195,0,0,0.463901,234.984,280.726)">
                            <path d="M331.501,531.031C331.501,526.737 328.876,522.619 324.202,519.583C319.529,516.547 313.191,514.841 306.582,514.841C281.508,514.841 243.057,514.841 217.982,514.841C211.373,514.841 205.035,516.547 200.362,519.583C195.689,522.619 193.063,526.737 193.063,531.031C193.063,531.033 193.063,531.034 193.063,531.036C193.063,535.33 195.689,539.448 200.362,542.484C205.035,545.521 211.373,547.226 217.982,547.226C243.057,547.226 281.508,547.226 306.582,547.226C313.191,547.226 319.529,545.521 324.202,542.484C328.876,539.448 331.501,535.33 331.501,531.036C331.501,531.034 331.501,531.033 331.501,531.031Z" style="fill:rgb(204,111,111);fill-opacity:0.486275;"/>
                        </g>
                        <g transform="matrix(1,0,0,1,-205.446,74.8409)">
                            <path d="M515.812,444.72L508.722,444.72C506.73,444.72 504.82,445.511 503.411,446.919C502.003,448.328 501.212,450.238 501.212,452.23C501.212,452.231 501.212,452.232 501.212,452.233C501.212,454.225 502.003,456.135 503.411,457.544C504.82,458.952 506.73,459.743 508.722,459.743L498.722,459.743C496.73,459.743 494.82,458.952 493.411,457.544C492.003,456.135 491.212,454.225 491.212,452.233C491.212,452.232 491.212,452.231 491.212,452.23C491.212,450.238 492.003,448.328 493.411,446.919C494.82,445.511 496.73,444.72 498.722,444.72L515.812,444.72Z" style="fill:rgb(188,66,66);"/>
                        </g>
                    </g>
                </g>
            </g>
            <g transform="matrix(1,0,0,1,349.884,-114.841)">
                <g>
                    <path d="M331.501,538.6C331.501,532.298 329.575,526.255 326.146,521.8C322.717,517.344 318.067,514.841 313.218,514.841C286.703,514.841 237.861,514.841 211.347,514.841C206.498,514.841 201.847,517.344 198.418,521.8C194.989,526.255 193.063,532.298 193.063,538.6C193.063,538.6 193.063,538.6 193.063,538.601C193.063,543.365 196.035,547.226 199.701,547.226C223.084,547.226 301.481,547.226 324.863,547.226C328.529,547.226 331.501,543.365 331.501,538.601C331.501,538.6 331.501,538.6 331.501,538.6Z" style="fill:rgb(141,37,37);"/>
                    <clipPath id="_clip2">
                        <path d="M331.501,538.6C331.501,532.298 329.575,526.255 326.146,521.8C322.717,517.344 318.067,514.841 313.218,514.841C286.703,514.841 237.861,514.841 211.347,514.841C206.498,514.841 201.847,517.344 198.418,521.8C194.989,526.255 193.063,532.298 193.063,538.6C193.063,538.6 193.063,538.6 193.063,538.601C193.063,543.365 196.035,547.226 199.701,547.226C223.084,547.226 301.481,547.226 324.863,547.226C328.529,547.226 331.501,543.365 331.501,538.601C331.501,538.6 331.501,538.6 331.501,538.6Z"/>
                    </clipPath>
                    <g clip-path="url(#_clip2)">
                        <g transform="matrix(0.927802,0,0,0.927802,18.9363,38.3397)">
                            <path d="M331.501,531.031C331.501,526.737 330.188,522.619 327.852,519.583C325.515,516.547 322.346,514.841 319.042,514.841C292.742,514.841 231.822,514.841 205.523,514.841C202.218,514.841 199.049,516.547 196.712,519.583C194.376,522.619 193.063,526.737 193.063,531.031C193.063,531.033 193.063,531.034 193.063,531.036C193.063,535.33 194.376,539.448 196.712,542.484C199.049,545.521 202.218,547.226 205.523,547.226C231.822,547.226 292.742,547.226 319.042,547.226C322.346,547.226 325.515,545.521 327.852,542.484C330.188,539.448 331.501,535.33 331.501,531.036C331.501,531.034 331.501,531.033 331.501,531.031Z" style="fill:rgb(188,66,66);"/>
                        </g>
                        <g transform="matrix(0.133004,0,0,0.463901,261.412,280.726)">
                            <path d="M331.501,531.031C331.501,526.737 326.923,522.619 318.773,519.583C310.623,516.547 299.57,514.841 288.044,514.841C271.622,514.841 252.942,514.841 236.52,514.841C224.994,514.841 213.941,516.547 205.791,519.583C197.642,522.619 193.063,526.737 193.063,531.031C193.063,531.033 193.063,531.034 193.063,531.036C193.063,535.33 197.642,539.448 205.791,542.484C213.941,545.521 224.994,547.226 236.52,547.226C252.942,547.226 271.622,547.226 288.044,547.226C299.57,547.226 310.623,545.521 318.773,542.484C326.923,539.448 331.501,535.33 331.501,531.036C331.501,531.034 331.501,531.033 331.501,531.031Z" style="fill:rgb(204,111,111);fill-opacity:0.486275;"/>
                        </g>
                        <g transform="matrix(1,0,0,1,-550.846,98.3386)">
                            <path d="M857.793,421.863C857.675,421.816 857.601,421.665 857.619,421.507C857.637,421.349 857.741,421.232 857.864,421.232C857.866,421.222 857.868,421.222 857.87,421.222C858.989,421.222 860.144,421.222 861.263,421.222C865.411,421.222 868.773,424.585 868.773,428.732C868.773,428.733 868.773,428.735 868.773,428.736C868.773,432.883 865.411,436.246 861.263,436.246C860.144,436.246 858.989,436.246 857.87,436.246C857.868,436.246 857.866,436.246 857.864,436.246C857.739,436.243 857.634,436.123 857.616,435.962C857.598,435.801 857.672,435.646 857.791,435.596C860.427,434.439 862.264,431.802 862.264,428.736C862.264,428.735 862.264,428.733 862.264,428.732C862.264,425.666 860.427,423.029 857.793,421.863Z" style="fill:rgb(204,111,111);fill-opacity:0.486275;"/>
                        </g>
                        <g transform="matrix(0.361775,0,0,0.646964,150.326,186.477)">
                            <path d="M331.501,531.033C331.501,526.739 329.153,522.62 324.974,519.583C320.795,516.547 315.127,514.841 309.218,514.841C283.412,514.841 241.152,514.841 215.347,514.841C209.437,514.841 203.769,516.547 199.59,519.583C195.411,522.62 193.063,526.739 193.063,531.033C193.063,531.033 193.063,531.034 193.063,531.034C193.063,535.329 195.411,539.447 199.59,542.484C203.769,545.52 209.437,547.226 215.347,547.226C241.152,547.226 283.412,547.226 309.218,547.226C315.127,547.226 320.795,545.52 324.974,542.484C329.153,539.447 331.501,535.329 331.501,531.034C331.501,531.034 331.501,531.033 331.501,531.033Z" style="fill:rgb(204,111,111);fill-opacity:0.698039;"/>
                        </g>
                        <g transform="matrix(1,0,0,1,-357.884,74.8409)">
                            <path d="M589.663,444.72L609.663,444.72C615.449,444.72 620.139,449.41 620.139,455.196C620.139,455.196 620.139,455.196 620.139,455.196C620.139,460.982 615.449,465.672 609.663,465.672C601.111,465.672 589.084,465.672 580.532,465.672C580.532,465.672 589.663,465.672 589.663,465.672C595.449,465.672 600.139,460.982 600.139,455.196C600.139,455.196 600.139,455.196 600.139,455.196C600.139,449.41 595.449,444.72 589.663,444.72Z" style="fill:rgb(188,66,66);"/>
                        </g>
                        <path d="M192.002,540.826C196.717,545.004 206.558,544.611 218.604,544.211C227.017,543.931 306.619,544.2 315.94,544.072C321.721,543.993 332.054,541.337 336.275,539.886C337.237,539.555 332.591,545.089 326.503,550.083C309.658,563.901 203.37,555.288 193.938,546.37C191.894,544.438 192.002,540.826 192.002,540.826Z" style="fill:rgb(103,27,27);"/>
                    </g>
                </g>
            </g>
        </g>
    </g>
</svg>
