<?xml version="1.0" encoding="utf-8"?>
<!-- Generator: Adobe Illustrator 23.0.1, SVG Export Plug-In . SVG Version: 6.00 Build 0)  -->
<svg version="1.1" id="Ebene_1" xmlns:serif="http://www.serif.com/"
	 xmlns="http://www.w3.org/2000/svg" xmlns:xlink="http://www.w3.org/1999/xlink" x="0px" y="0px" viewBox="0 0 595.3 286.2"
	 style="enable-background:new 0 0 595.3 286.2;" xml:space="preserve">
<style type="text/css">
	.st0{fill:#D49445;}
	.st1{fill:#C78C42;}
	.st2{fill:#BA843E;}
	.st3{fill:#F2CFA0;}
	.st4{fill:none;}
	.st5{fill-rule:evenodd;clip-rule:evenodd;fill:#FFEDC3;}
</style>
<g transform="matrix(1,0,0,1,-966,-277)">
	<path class="st0" d="M1552.7,509c0.2,0,0.3,0,0.4,0c0.1,0,0.3,0,0.4,0c0,0.4,0,0.8,0,1.2c0,1.5,0,3.1,0,4.6
		c-0.5,14.5-8.4,27.3-20.7,36.1c-10.8,7.8-25,12.4-40.5,12.3c-156.6-1.6-312.9-1.6-469-0.2c-14.1,0.2-27-4.4-36.3-12.1
		c-8-6.5-13.4-15.2-14.7-25c-0.8-5.2-1.1-10.5-1.1-15.7c0-0.9,0-1.9,0-2.8L1552.7,509z"/>
	<path class="st1" d="M1552.7,509c0.2,0,0.3,0,0.4,0c0.1,0,0.3,0,0.4,0l-2.7-23l-8.6-24.8H982.6c-7,14.7-10.8,30.1-11.2,46.1
		l305.8,0.9L1552.7,509z"/>
	<path class="st2" d="M1542.3,461.3H982.6c3.1-6.6,6.8-13,11.2-19.3c4.5-6.5,9.5-12.7,15.2-18.8c10.4-11.1,22.6-21.5,36.6-30.9
		c8.7-5.9,18.1-11.5,28-16.6c21-10.9,44.6-20,70.1-27l29.6-6.9c12-2.3,24.3-4.2,36.9-5.6c10.3-1.1,20.8-1.9,31.5-2.4
		c6.9-0.3,13.8-0.5,20.8-0.5c21.6,0,42.7,1.4,62.9,4.2c0,0,0,0,0,0l26.1,4.3c10.1,2,19.9,4.2,29.4,6.8c9.1,2.5,18,5.2,26.5,8.2
		c15,5.2,29.1,11.3,42.3,18c3.3,1.7,6.5,3.4,9.7,5.2c4.8,2.7,9.4,5.4,13.9,8.3C1505.1,408.6,1529.1,433.5,1542.3,461.3z"/>
	<path class="st3" d="M1461.9,553.5c-8,4.4-18.5,7.1-30,7c-115.9-0.9-231.6-0.9-347-0.1c-10.4,0.1-19.9-2.5-26.9-6.9H1461.9z"/>
	<path class="st4" d="M1553.6,514.8c-0.9,27.2-28.2,48.8-61.2,48.4c-156.6-1.6-312.9-1.6-469-0.2c-26,0.3-48.1-15.8-51-37.1
		c-0.8-5.2-1.1-10.5-1.1-15.7c0-0.9,0-1.9,0-2.8c0.4-16,4.3-31.4,11.2-46.1c3.1-6.6,6.8-13,11.2-19.3c4.5-6.5,9.5-12.7,15.2-18.8
		c10.4-11.1,22.6-21.5,36.6-30.9c8.7-5.9,18.1-11.5,28-16.6c21-10.9,44.6-20,70.1-27c9.6-2.6,19.5-4.9,29.6-6.9
		c12-2.3,24.3-4.2,36.9-5.6c10.3-1.1,20.8-1.9,31.5-2.4c6.9-0.3,13.8-0.5,20.8-0.5c21.6,0,42.7,1.4,62.9,4.2c0,0,0,0,0,0
		c8.9,1.2,17.6,2.6,26.1,4.3c10.1,2,19.9,4.2,29.4,6.8c9.1,2.5,18,5.2,26.5,8.2c15,5.2,29.1,11.3,42.3,18c3.3,1.7,6.5,3.4,9.7,5.2
		c4.8,2.7,9.4,5.4,13.9,8.3c31.9,20.3,55.9,45.3,69,73c3.8,8,6.7,16.3,8.6,24.8c1.7,7.5,2.6,15.2,2.7,23c0,0.4,0,0.8,0,1.1
		C1553.6,511.7,1553.5,513.2,1553.6,514.8z"/>
	<path class="st5" d="M1105.4,413.3c-0.7,1.9,0.5,3.8,2.9,4.9c2.5,1.1,5.7,1.2,8.3,0.1c3.1-1,5.8-2.1,7.1-2.9c4.8-3,7.3-7.2,0.9-9.1
		c-6.4-1.9-14.5-0.7-18,2.8C1105.6,410,1105.3,411.6,1105.4,413.3z"/>
	<path class="st5" d="M1066.5,387.3c-1.3,0.8-4,1.9-7.1,2.9c-2.5,1-5.8,1-8.3-0.1c-0.8-0.4-1.5-0.8-2-1.3c-1-1-1.4-2.3-0.9-3.6
		c0-1.7,0.3-3.3,1.2-4.2c0.1-0.1,0.2-0.2,0.4-0.3c1.7-1.5,4.1-2.5,6.9-3c3.4-0.6,7.3-0.5,10.8,0.5c1,0.3,1.8,0.7,2.4,1.1
		C1073,381.5,1070.5,384.8,1066.5,387.3z"/>
	<path class="st5" d="M1290.5,435.3c-0.7,1.9,0.5,3.8,2.9,4.9c2.5,1.1,5.7,1.2,8.3,0.1c3.1-1,5.8-2.1,7.1-2.9c4.8-3,7.3-7.2,0.9-9.1
		c-6.4-1.9-14.5-0.7-18,2.8C1290.7,432,1290.4,433.6,1290.5,435.3z"/>
	<path class="st5" d="M1044.3,419.8c-0.7,1.9,0.5,3.8,2.9,4.9c2.5,1.1,5.7,1.2,8.3,0.1c3.1-1,5.8-2.1,7.1-2.9c4.8-3,7.3-7.2,0.9-9.1
		c-6.4-1.9-14.5-0.7-18,2.8C1044.6,416.5,1044.3,418.1,1044.3,419.8z"/>
	<path class="st5" d="M1185.6,370.5c-0.7,1.9,0.5,3.8,2.9,4.9c2.5,1.1,5.7,1.2,8.3,0.1c3.1-1,5.8-2.1,7.1-2.9c4.8-3,7.3-7.2,0.9-9.1
		s-14.5-0.7-18,2.8C1185.8,367.2,1185.5,368.8,1185.6,370.5z"/>
	<path class="st5" d="M1099.3,378.9c-0.7,1.9,0.5,3.8,2.9,4.9c2.5,1.1,5.7,1.2,8.3,0.1c3.1-1,5.8-2.1,7.1-2.9c4.8-3,7.3-7.2,0.9-9.1
		c-6.4-1.9-14.5-0.7-18,2.8C1099.6,375.6,1099.3,377.1,1099.3,378.9z"/>
	<path class="st5" d="M1411.8,381.4c-3.9-1.6-9.1-1.1-12.2,1.1c-3.1,2.2-3.2,5.5-0.2,7.8c-0.1,0.1-0.1,0.1-0.1,0.1
		c4.3,3.3,10.9,5.5,15.6,2.3c4.6-3.2,4.1-7.9-1.2-10.6C1413.1,381.8,1412.5,381.6,1411.8,381.4z"/>
	<path class="st5" d="M1469.8,386.4c-0.5,1-1.4,1.9-2.6,2.8c-4.6,3.2-11.3,1-15.6-2.3c0,0,0,0,0.1-0.1c-3-2.3-2.8-5.6,0.2-7.8
		c0.1-0.1,0.3-0.2,0.4-0.3c3.1-2,8-2.3,11.8-0.8c0.7,0.2,1.3,0.4,1.8,0.6C1469.9,380.5,1471.2,383.6,1469.8,386.4z"/>
	<path class="st5" d="M1502.3,430.6c-3.9-1.6-9.1-1.1-12.2,1.1c-3.1,2.2-3.2,5.5-0.2,7.8c-0.1,0.1-0.1,0.1-0.1,0.1
		c4.3,3.3,10.9,5.5,15.6,2.3c4.6-3.2,4.1-7.9-1.2-10.6C1503.6,431,1503,430.8,1502.3,430.6z"/>
	<path class="st5" d="M1460,412.1c-3.9-1.6-9.1-1.1-12.2,1.1c-3.1,2.2-3.2,5.5-0.2,7.8c-0.1,0.1-0.1,0.1-0.1,0.1
		c4.3,3.3,10.9,5.5,15.6,2.3c4.6-3.2,4.1-7.9-1.2-10.6C1461.3,412.5,1460.7,412.3,1460,412.1z"/>
	<path class="st5" d="M1170.3,431.8c4.6-0.1,8.4-2.3,8.7-5.2c0.3-2.9-2.8-5.5-7.4-6c0,0,0,0,0,0c-7.2-0.8-15,0.1-15,4.1
		c0.1,4,6.1,7.2,13.4,7.2C1170.1,431.8,1170.2,431.8,1170.3,431.8z"/>
	<path class="st5" d="M1165.8,391.7c4.1-1,6.4-3.7,5.4-6.4c-0.9-2.7-4.8-4.6-9.2-4.4c-1.2,0-2.3,0.1-3.1,0.2
		c-7.1,0.8-13.6,3.3-10.6,7C1151.3,391.7,1159.1,393.4,1165.8,391.7C1165.8,391.8,1165.8,391.7,1165.8,391.7z"/>
	<path class="st5" d="M1165.9,353.1C1165.8,353.1,1165.8,353.1,1165.9,353.1c-6.7,1.6-14.5,0-17.5-3.7c-0.3-0.4-0.5-0.7-0.6-1
		c-1.1-3.1,4.8-5.2,11.2-6c0.8-0.1,1.9-0.1,3.1-0.2c3-0.1,5.8,0.7,7.6,2.2c0.8,0.6,1.3,1.4,1.6,2.2
		C1172.2,349.4,1169.9,352.1,1165.9,353.1z"/>
	<path class="st5" d="M1232.5,342.6C1232.5,342.6,1232.5,342.6,1232.5,342.6c-6.7,1.6-14.5,0-17.5-3.7c-0.6-0.8-0.8-1.5-0.7-2.2
		c0.5-2.5,5.7-4.2,11.3-4.8c0.8-0.1,1.9-0.1,3.1-0.2c3.9-0.2,7.5,1.3,8.8,3.6c0.1,0.2,0.3,0.5,0.4,0.8
		C1238.9,338.8,1236.6,341.5,1232.5,342.6z"/>
	<path class="st5" d="M1342.1,349.6C1342,349.6,1342,349.6,1342.1,349.6c-6.7,1.6-14.5,0-17.5-3.7c-1.9-2.3,0-4.2,3.5-5.4
		c0,0,0,0,0,0c2-0.7,4.5-1.3,7.1-1.6c0.8-0.1,1.9-0.1,3.1-0.2c4.2-0.2,8.1,1.6,9.1,4.2c0,0.1,0.1,0.1,0.1,0.2
		C1348.4,345.8,1346.1,348.6,1342.1,349.6z"/>
	<path class="st5" d="M1214.7,390.8c-4.6,0-8.4,2.2-8.8,5.1s2.5,5.5,7,6.1c0,0,0,0,0,0c7.1,1,15,0.3,15.3-3.7
		c0.2-4-5.5-7.4-12.8-7.5C1215.1,390.8,1214.9,390.8,1214.7,390.8z"/>
	<path class="st5" d="M1214.9,441.6c3,2.2,8,2.7,12,1.3c4-1.4,5.8-4.4,4.4-7.2c0.2,0,0.2,0,0.2,0c-2-3.9-7-7.3-13.5-5.4
		c-6.5,1.9-9,6.3-5.5,9.8C1212.9,440.6,1213.7,441.1,1214.9,441.6z"/>
	<path class="st5" d="M1009.7,440.8c-4,1.4-9,0.9-12-1.3c-0.5-0.2-0.9-0.5-1.3-0.7c-0.5-0.3-0.9-0.6-1.2-0.9
		c-3.4-3.5-0.9-7.9,5.5-9.8c2.5-0.7,4.9-0.7,6.9-0.1c3.1,0.9,5.4,3.1,6.6,5.5c0,0,0,0-0.2,0C1015.5,436.4,1013.7,439.4,1009.7,440.8
		z"/>
	<path class="st5" d="M1403.8,355.5c-0.4,1.8-2.1,3.5-4.8,4.4c-4,1.4-9,0.9-12-1.3c-1.1-0.5-2-1-2.5-1.5c-2-2-2-4.3-0.4-6.3
		c1.2-1.5,3.2-2.7,6-3.5c0.4-0.1,0.8-0.2,1.2-0.3c3.8-0.7,7,0.3,9.3,2.1h0c1.3,1,2.3,2.3,3,3.6c0,0,0,0-0.2,0
		C1403.9,353.7,1404,354.6,1403.8,355.5z"/>
	<path class="st5" d="M1252.5,418c3.9,1.2,8.5,0.4,11-1.8c2.5-2.2,2.2-5.2-0.8-7.2c0.1-0.1,0.1-0.1,0.1-0.1
		c-4.6-3.1-11.6-5.1-16.2-2c-4.6,3.1-3.7,7.7,2,10.1C1249.5,417.5,1250.9,417.8,1252.5,418z"/>
	<path class="st5" d="M1232.1,370.5c-0.7,1.9,0.4,3.8,2.8,5c2.5,1.1,5.7,1.2,8.3,0.2c3.1-1,5.8-2.1,7.1-2.9c4.9-3,7.5-7.1,1.1-9.1
		c-6.4-2-14.5-0.8-18.1,2.7C1232.4,367.2,1232.1,368.7,1232.1,370.5z"/>
	<path class="st5" d="M1360.6,375.1c3.5-1.7,4.5-4.8,2.4-7.3c-2.1-2.5-6.7-3.6-10.9-2.7c-1.3,0.3-2.3,0.5-3.1,0.8
		c-6.4,2-11.4,5.6-6.8,8.6C1346.7,377.6,1354.9,377.8,1360.6,375.1C1360.5,375.1,1360.5,375.1,1360.6,375.1z"/>
	<path class="st5" d="M1308.2,373.2c-4.5,0.3-8,2.8-7.9,5.7s3.4,5.3,8,5.7c0,0,0,0,0.1,0c7.1,0.5,14.6-0.7,14.3-4.8
		s-6.4-7.1-13.5-6.7C1308.8,373.1,1308.5,373.1,1308.2,373.2z"/>
	<path class="st5" d="M1365.9,400.4c-1.7-1.9-5.1-2.9-8.4-2.6c-3.4,0.3-6.1,1.9-6.9,4c-0.9,1.4-1.3,2.7-1.3,3.6c0,4.1,3,8.1,10,7.1
		s11.6-5,10.1-8.9C1369,402.7,1367.7,401.5,1365.9,400.4z"/>
	<path class="st5" d="M1282.1,363.8c0.9,1,2.7,1.6,4.5,1.5c1.8-0.2,3.3-1,3.7-2.2c2.2-2.1,4.9-4.5,5.7-5.8c2.3-3.8,1.6-8.1-5.7-8.5
		c-7.3-0.4-13.8,2.4-14.6,6.4C1275.3,357.1,1278.9,360.9,1282.1,363.8z"/>
	<path class="st5" d="M1306.7,403.6c-1.8,0.7-2.9,2-2.6,3.3s1.7,2.5,3.7,2.9c2,0.9,4.1,1.7,6,2c7.1,1.1,15,0.5,15.5-3.5
		s-5.1-7.4-12.4-7.7C1313.8,400.4,1309.9,401.9,1306.7,403.6z"/>
	<path class="st5" d="M1401.9,424.6c-1.8,0.7-2.9,2-2.6,3.3s1.7,2.5,3.7,2.9c2,0.9,4.1,1.7,6,2c7.1,1.1,15,0.5,15.5-3.5
		s-5.1-7.4-12.4-7.7C1409,421.5,1405.2,423,1401.9,424.6z"/>
</g>
</svg>
