<svg version="1" xmlns="http://www.w3.org/2000/svg" width="2582.667" height="2582.667" viewBox="0 0 1937.000000 1937.000000"><path d="M867.6 191.2c-15.1 1.8-29 7.2-35.7 13.9-4.2 4.2-4.8 6.6-2.3 10.4 1.6 2.4 1.5 2.5-.7 2.6-1.3 0-3.1.2-3.9.3-.8.2-6 .7-11.5 1.1-5.5.3-11.1.8-12.5 1-1.4.1-6.5.6-11.5 1-4.9.4-9.7.8-10.5 1-.8.1-5.1.6-9.5 1s-8.9.9-10 1.1c-6.1 1.2-10.2.6-14.5-2.1-7.9-5-14.7-7.5-20.3-7.5-7 0-11.3 1.3-23.4 7.1-5.7 2.7-10.6 4.9-11 4.9-1.7 0-12.1 5.5-14.3 7.5-2 1.9-5.8 3-19.5 5.5-76.3 14.2-148.8 36.2-204.5 62-36.4 16.9-70.8 38.2-94.4 58.5-9.8 8.5-17.1 14.9-21.5 19-9.3 8.5-34.3 34-40.6 41.3-3.3 3.8-7.9 8.1-10.2 9.6-6.4 4.1-13.1 12.1-14.7 17.6-.8 2.6-3.4 7.4-5.9 10.6-42.1 55.5-76 130.3-90.8 199.9-.7 3.3-1.3 6.4-1.5 7-.1.5-.7 3.7-1.3 7-.6 3.3-1.3 6.9-1.5 8-.2 1.1-.7 4-1.1 6.5-.4 2.5-.9 5.4-1.1 6.5-.3 1.8-3.6 29.8-4.8 42-.3 2.7-.9 16.3-1.2 30.1-.6 21.4-.4 26.1 1 32.6 5.8 26.1 27.8 49 64.1 66.9 6.1 3 11.1 5.5 11.3 5.6.2.1-2.1 3.4-5.1 7.3-6.3 8.3-10.7 16.5-11 20.5-.2 2.4.5 3.1 4.3 5.1 2.5 1.3 7.8 3.1 11.8 4 3.9 1 7.2 2 7.2 2.3 0 .3-2.4 1.8-5.3 3.3-15.3 8.1-30.2 26.8-35.6 44.8-2.8 9-3 12.1-1.5 15.2 2 4 4.7 5 12.5 4.7 3.8-.1 7 0 7.1.3.2.2-2.1 3.1-5 6.4-18 20-28.9 45.6-29.8 70.2-.4 11.1-.3 11.3 2.2 13.9 2.4 2.4 2.9 2.5 9.6 1.9 3.8-.4 7.7-1 8.7-1.3.9-.3 0 1-1.9 2.9-14.2 13.7-23.4 32.6-24.7 50.5-.8 11.6.1 12.6 14.7 13.8 4.7.4 8.6.8 8.8 1 .2.1-1 2.4-2.5 5.1-5.2 8.9-7.2 18-6.1 27.5.8 6.5 3.9 15.2 5.8 16.4.6.3 1 1.2 1 1.9 0 1.2-21.7 17.6-23.2 17.6-.5 0-1.7.9-2.8 2-1.2 1.2-2.6 1.8-3.3 1.4-.7-.4-.9-.4-.5.1 1 1.1 1.3.9-35.2 27.4-18.4 13.4-34.6 25.3-36 26.4-2.5 1.9-2.3 1.9 37 1.2 53.8-.9 55.5-.9 55.3-.1-.1.4-1.7 1.9-3.4 3.4-5.6 4.6-7 9.4-6.5 22 1.6 38.8 17.1 73.8 46.8 105.6 3.1 3.3 5.4 6.5 5 7-.3.6-.7.5-1-.2-.2-.8-1.1-.4-2.3 1-1 1.3-1.8 1.7-1.9 1 0-.6-.4-1.2-1-1.2-.5 0-.6.7-.3 1.7.4 1.1.3 1.4-.6.9-.8-.5-1.8 0-2.8 1.4-.8 1.2-2.1 1.9-3 1.6-.9-.4-1.1-.2-.7.6.5.8.2.9-.9.5-1-.4-1.6-.2-1.4.6.1.7-.4 1.1-1.1.9-.6-.1-1.1.3-1 .9.2.6-.3 1.4-1.1 1.7-.9.3-1.1 0-.6-.9.5-.8.4-1.1-.1-.6-.5.5-.9 1.4-.9 2-.1.7-.6 1.1-1.3.9-.7-.1-1.1.2-1 .7.2.5-1 2-2.5 3.5-1.5 1.4-2.6 2.6-2.3 2.6.3 0-1 2.1-3 4.7-6.8 8.9-13.9 27.7-15.8 41.8-2.6 19.5-2.7 60.8-.1 76.5.2 1.4.7 4.7 1 7.5.4 2.7.8 5.7 1 6.5.2.8.7 3.1 1 5 .3 1.9 1.7 7.8 3 13 9.3 37.1 28.3 69.1 54.6 91.9 16 13.9 26.9 21.1 46.9 31.1 13.2 6.6 44.4 18.6 53.5 20.6.6.1 5.6 1.4 11.1 2.8 5.6 1.5 11 2.8 12 3.1 1.1.2 5.3 1.1 9.4 2 4.1.9 8.9 1.9 10.5 2.1 1.7.3 5 .9 7.5 1.4 5.3 1 10.5 1.9 15.8 2.6 2 .2 4.8.6 6.1.9 3.5.6 9.9 1.5 15.1 2 2.5.2 6.1.6 8 .9 1.9.3 6.4.7 10 1.1 3.6.3 8.1.8 10.1 1 2 .3 6.9.7 11 1 4.1.3 10.3.7 13.9 1 48.5 3.6 121.5 4.6 216.5 3 46.7-.7 55.4-.9 111.5-2.1 47.1-1.1 222.2-1.1 272-.1 108.2 2.3 137.5 2.7 187 2.7 41.5 0 67.8-.5 91-1.5 25-1.1 33.7-1.5 38.5-2 2.8-.2 8.4-.7 12.5-1 9.3-.6 19.5-1.5 23.5-2 3.8-.5 15.2-1.7 18.5-2 1.4-.1 3.9-.5 5.5-.8 1.7-.3 5.3-.9 8-1.2 2.8-.3 5.7-.8 6.5-1 .8-.2 3.5-.6 6-.9 2.5-.3 5.5-.8 6.6-1 1.2-.2 3.9-.7 6-1 2.2-.4 4.6-.8 5.4-1.1.8-.2 2.6-.6 4-.9 12.9-2.3 28-6.1 41.5-10.3 4.4-1.3 8.7-2.6 9.5-2.8 7.3-1.8 32.8-12.5 44.7-18.8 10.8-5.7 21.3-12 21.3-12.9 0-.4.5-.8 1.1-.8 2.5 0 18-13 29.6-24.7 26.7-27.1 44.8-65.8 51.3-109.3.6-4.1 1.3-8.6 1.6-10 1.8-11.5 2.6-57.6 1.1-68.9-3.3-24.4-9.5-37.9-24.7-54-1.9-2-2.8-2.8-2-1.7 1.2 1.6.8 1.5-1.6-.4-1.7-1.4-3-2.8-2.8-3.2.3-.4-.1-1-.7-1.4-.8-.4-.9-.3-.5.4s.5 1.2.3 1.2c-1.2 0-9.7-5.3-9.7-6.1 0-.4-.6-.6-1.4-.3-.8.3-1.7.1-2.1-.5-.3-.6-1.6-1.1-2.8-1.2-1.5 0-1.7-.2-.7-.6.8-.3 1.7-.9 2-1.3.3-.4 4.6-3.5 9.5-6.8 25.8-17.4 38.7-37.7 41-64.2.8-9.7.8-31.6.1-32.9-.4-.5-.2-1.2.4-1.6.7-.4.7-1.2 0-2.6-.6-1.1-.7-1.9-.1-1.9.5 0 .6-1.4.1-3.4-.5-2.2-.3-3.9.3-4.5.8-.8.8-1.1 0-1.1-.6 0-1-1.7-.9-4 0-2.2-.2-4-.6-4-.5 0-.8-.5-.8-1 0-.7 1.5-.9 3.8-.6 2 .3 9.6.8 16.7 1.1 7.2.3 15.3.8 18 1 5 .4 13.3.9 31.5 2 5.2.3 12 .8 15 1 3 .2 10.7.7 17 1 6.3.3 13.4.8 15.8 1.1 2.3.2 4.2.2 4.2-.1 0-.6-10.9-7.5-11.9-7.5-.5 0-1.1-.3-1.3-.8-.4-.9-1.4-1.6-51.8-33.8-23.9-15.2-43.7-28.1-44-28.5-.3-.4-2.8-2-5.6-3.5-2.7-1.6-8.8-5.3-13.5-8.3l-8.5-5.5 3.8-5.6c9.2-13.9 8.4-32.2-2.3-48.3l-3.7-5.7h8.8c13.7 0 15.3-2.4 12.3-19-2-10.9-4.8-19.2-10.3-30.6-4.5-9.3-14.4-24.1-18.3-27.3-2.6-2.1-2.1-3 3.7-5.5 20-8.9 25.6-31.8 11.9-48.7-4.5-5.4-12.9-11.2-20.3-13.8-2.9-1-4.8-2.1-4.4-2.3.5-.3 4.2-1.5 8.2-2.7 6.4-1.9 7.5-2.6 8.9-5.6 1.5-3.2 1.5-3.9-.5-12.2-2.5-10.2-9.4-24.7-15.2-31.7-3.1-3.8-3.9-5.3-3.4-7.3.6-2.1-.2-3.3-5.1-7.9-6.7-6.4-22.9-17.3-39.9-27l-11.8-6.7 8.3-2.7c13.3-4.3 33.5-12.5 45.4-18.6 35.5-18 57.2-40.9 62.6-65.9 1.2-5.9 1.5-36.1.5-49-.3-3.3-.8-10.1-1.2-15-.3-5-.8-9.9-1-11-.2-1.1-.6-4.5-.9-7.5-2.4-27.6-11.9-70.9-22.6-103.9-10-30.6-26.8-69-39.8-90.9-1.7-2.9-3.1-5.5-3.1-5.7 0-.2-3.4-5.9-7.6-12.7-22.3-35.9-46.4-66.4-77.4-98.1l-15.6-16V380c.1-7.1-.2-8.2-2.9-12.1-1.6-2.3-5-5.5-7.5-7-4.9-3-19.6-7.6-26.9-8.5-2.9-.3-6.2-1.6-9.1-3.7-7.4-5.2-29-19.7-29.4-19.7-.2 0-4.6-2.5-9.7-5.6-18.3-10.8-55.8-28.3-81.7-38.1-25-9.4-71.5-24-92.4-28.8-6-1.4-7.8-2.3-8.7-4.1-2-4.4-8.2-10.2-13.1-12.3-9-3.9-24.8-3.5-33 .8l-3.8 2-13.4-2.5c-12.6-2.4-37.8-6.6-46.2-7.9-2.1-.3-4.8-.7-6-1-2.2-.5-5.5-.9-14.7-2l-5.6-.7.1-6.1c0-4.5-.5-7-1.9-9.2-6.8-10.8-21.5-16.7-40-16.1-13.6.5-18.1 1.7-27.6 7.2-5.7 3.4-9.1 7.5-10.3 12.7-.6 2.7-.8 2.7-6.4 2.2-3.1-.2-9.5-.7-14.2-1-4.7-.2-11.4-.7-15-1-3.6-.2-11.7-.7-18-1-6.3-.3-17.3-.8-24.5-1.1-7.1-.3-31.9-.7-54.9-.8l-42-.3-.3-2.8c-1.5-10.6-14.5-19.7-29.3-20.4-3-.2-5.7-.4-6-.5-.3-.1-3.6.1-7.4.6z"/><path d="M1675 1408c0 .5.5 1 1.1 1 .5 0 .7-.5.4-1-.3-.6-.8-1-1.1-1-.2 0-.4.4-.4 1z"/></svg>