<svg xmlns="http://www.w3.org/2000/svg" viewBox="0 0 256.491 28.35"><defs><style>.a{fill:#f2bc86;}.b{fill:#e0a879;}</style></defs><title>bottomBun</title><path class="a" d="M3.432,15.887c4.151,7.4,10.985,12.463,14.23,12.463H238.829c3.245,0,10.079-5.059,14.23-12.463-36.5,2.008-79.173,3.165-124.814,3.165S39.928,17.9,3.432,15.887Z"/><path class="b" d="M255.819,1.05c-1.451-1.376-6.571-1.1-11.992-.816-2.912.155-6.212.33-9.789.33L128.253.789,22.446.564c-3.57,0-6.87-.175-9.782-.33C10.44.116,8.264,0,6.374,0,3.657,0,1.527.239.672,1.05A3.594,3.594,0,0,0,0,3.614,25.224,25.224,0,0,0,3.432,15.887c36.5,2.008,79.173,3.165,124.813,3.165s88.317-1.157,124.814-3.165a25.235,25.235,0,0,0,3.432-12.273A3.594,3.594,0,0,0,255.819,1.05Z"/></svg>