<svg xmlns="http://www.w3.org/2000/svg" viewBox="0 0 293.101 211.112"><defs><style>.a{fill:#62370d;}.b{fill:#483115;}.c{fill:#f2bc86;}.d{fill:#e0a879;}.e{fill:#f9c163;}.f{fill:#ffdf69;}.g{fill:#b42b0d;}.h{fill:#f5c99e;}.i{fill:#fff5de;}.j{fill:#fbf3f3;}.k{fill:#d2cccc;}</style></defs><title>burger</title><path class="a" d="M253.432,146.218l-30.561,21.3-33.04-20.744-45.988,15.619L97.854,146.773l-33.04,20.744-30.561-21.3-12.9,3.32a16.268,16.268,0,0,0,15.332,21.84H251.746a16.275,16.275,0,0,0,15.41-21.629Z"/><path class="b" d="M64.814,167.517l33.04-20.744,45.989,15.619,45.988-15.619,33.04,20.744,30.561-21.3,13.724,3.531a16.332,16.332,0,0,0-15.41-11H36.683a16.329,16.329,0,0,0-15.332,10.791l12.9-3.32Z"/><path class="c" d="M19.5,185.506c4.151,7.4,10.985,12.463,14.231,12.463H254.9c3.245,0,10.08-5.06,14.231-12.463-36.5,2.007-79.173,3.165-124.814,3.165S56,187.513,19.5,185.506Z"/><path class="d" d="M271.887,170.668c-1.452-1.376-6.572-1.1-11.993-.815-2.911.155-6.211.33-9.788.33l-105.786.225-105.807-.225c-3.569,0-6.869-.175-9.781-.33-2.225-.119-4.4-.234-6.291-.234-2.716,0-4.846.238-5.7,1.049a3.6,3.6,0,0,0-.671,2.564A25.238,25.238,0,0,0,19.5,185.506c36.5,2.007,79.173,3.165,124.814,3.165s88.317-1.158,124.814-3.165a25.238,25.238,0,0,0,3.431-12.274A3.6,3.6,0,0,0,271.887,170.668Z"/><path class="e" d="M257.311,125.537c-10.926-.734-26.147-1.345-45.238-1.812-32.467-.8-65.356-.909-65.694-.91h-4.338c-.328,0-33.218.114-65.684.91-19.092.467-34.312,1.078-45.24,1.812-6.458.433-11.486.919-14.965,1.442-.421,1.346-.835,2.746-1.23,4.208.366-.059.729-.115,1.084-.169,3.482-.531,8.566-1.024,15.111-1.463,10.928-.734,26.148-1.344,45.24-1.812,32.466-.8,65.356-.909,65.684-.91h4.338c.338,0,33.227.114,65.694.91,19.091.468,34.312,1.078,45.238,1.812,6.546.439,11.63.932,15.112,1.463.355.054.718.11,1.085.169-.4-1.462-.81-2.862-1.231-4.208C268.8,126.456,263.77,125.97,257.311,125.537Z"/><path class="f" d="M76.357,123.725c32.466-.8,65.356-.909,65.684-.91h4.338c.338,0,33.227.114,65.694.91,19.091.467,34.312,1.078,45.238,1.812,6.459.433,11.488.919,14.966,1.442a108.427,108.427,0,0,0-6.133-15.465H22.284a108.53,108.53,0,0,0-6.132,15.465c3.479-.523,8.507-1.009,14.965-1.442C42.045,124.8,57.265,124.192,76.357,123.725Z"/><path class="e" d="M194.414,111.975c-69.37,2.585-85.488,7.193-90.273,9.749-11-5.988-40.947-8.364-51.177-9.176-13.325-1.057-26.095-1.633-33.867-1.918L18.032,115c7.258.242,19.944.9,34.932,2.086,10.23.812,40.173,3.188,51.177,9.177,4.785-2.557,20.9-7.164,90.273-9.749,32.826-1.224,64.837-1.5,75.809-1.568l-1.6-4.528C256.389,110.5,225.781,110.806,194.414,111.975Z"/><path class="f" d="M104.141,121.724c4.785-2.556,20.9-7.164,90.273-9.749,31.367-1.169,61.975-1.477,74.208-1.557l-4.75-8.043L23.615,104.636,19.1,110.63c7.772.285,20.542.861,33.867,1.918C63.194,113.36,93.137,115.736,104.141,121.724Z"/><path class="e" d="M234.678,108.84c-6.929-3.172-29.658-6.935-114.81-8.169-19.449-.283-38.749-.371-55.382-.371-20.06,0-36.224.129-44.074.206l-1.244,4.172c7.3-.074,24.145-.218,45.318-.218,16.633,0,35.933.088,55.382.37,85.152,1.235,107.881,5,114.81,8.17,10.655-6.916,26.257-9.485,34.361-9.643l-.417-4.325C260.04,99.357,244.506,102.461,234.678,108.84Z"/><path class="f" d="M119.868,100.671c85.152,1.234,107.881,5,114.81,8.169,9.828-6.379,25.362-9.483,33.944-9.808l-5.852-7.416-237.148.963-5.21,7.927c7.85-.077,24.014-.206,44.074-.206C81.119,100.3,100.419,100.388,119.868,100.671Z"/><path class="g" d="M212.352,90.031c-8.174-1.265-22.92-1.861-48.528-.964-8.571.3-16.627,1.27-23.569,1.591-13.236.61-27.757.625-40.569.637-16.309.017-36.576.038-39.693,1.9-2.385,2.731-2.322,3.813-2.32,3.823.021,0,1.229,1.6,10.783,1.6H68.7c6.9-.02,15.966-.814,25.562-1.653,11.274-.987,23.622-2.068,34.636-2.068a114.58,114.58,0,0,1,12.523.606c4.615.513,10.475,1.311,17.261,2.234,14.9,2.027,33.439,4.55,48.73,5.376,24.179,1.3,26.551-2.564,26.743-3.009C234.541,99.211,223.619,91.775,212.352,90.031Z"/><path class="h" d="M206.672,12.587a163.431,163.431,0,0,0-125.79,0c17.1,4.562,39,7.31,62.895,7.31S189.57,17.149,206.672,12.587Z"/><path class="d" d="M23.35,64.653c-.5,1.049-.984,2.1-1.432,3.146a90.015,90.015,0,0,0-4.463,12.99q-.714,2.79-1.176,5.614a6.159,6.159,0,0,0,6.067,7.167s69.467,5.005,122.144,5.005c66.338,0,121.593-5.005,121.593-5.005A6.159,6.159,0,0,0,272.15,86.4q-.462-2.823-1.176-5.614a84.692,84.692,0,0,0-5.733-15.472c-.119-.248-.251-.5-.373-.746-28.961,4.763-72.418,7.792-121.009,7.792C95.546,72.363,52.31,69.368,23.35,64.653Z"/><path class="c" d="M233.88,27.628a140.065,140.065,0,0,0-27.208-15.041c-17.1,4.562-39,7.31-62.9,7.31s-45.794-2.748-62.895-7.31A140.117,140.117,0,0,0,53.674,27.628,94.777,94.777,0,0,0,25.75,59.855c-.858,1.6-1.647,3.2-2.4,4.8,28.96,4.715,72.2,7.71,120.509,7.71,48.591,0,92.048-3.029,121.009-7.792-.749-1.527-1.539-3.054-2.386-4.576A99.664,99.664,0,0,0,233.88,27.628Z"/><path class="i" d="M90.307,50.053,86.74,48.582a2.144,2.144,0,0,1-1.2-2.886h0a2.411,2.411,0,0,1,3.083-1.121l3.567,1.471a2.144,2.144,0,0,1,1.2,2.886h0A2.411,2.411,0,0,1,90.307,50.053Z"/><path class="i" d="M87.689,44.39A2.361,2.361,0,0,0,85.542,45.7h0a2.144,2.144,0,0,0,1.2,2.886l3.567,1.471a2.459,2.459,0,0,0,.936.185,2.361,2.361,0,0,0,2.147-1.306h0a2.144,2.144,0,0,0-1.2-2.886l-3.567-1.471a2.459,2.459,0,0,0-.936-.185Z"/><path class="i" d="M72.769,33.677l-3.945,5.134a3.676,3.676,0,0,1-4.9.748h0a3.159,3.159,0,0,1-.8-4.583l3.946-5.134a3.674,3.674,0,0,1,4.9-.748h0A3.16,3.16,0,0,1,72.769,33.677Z"/><path class="i" d="M74.011,34.513h0m-4.082-6.034a3.592,3.592,0,0,0-2.855,1.363l-3.946,5.134a3.159,3.159,0,0,0,.8,4.583,3.639,3.639,0,0,0,2.04.615,3.6,3.6,0,0,0,2.856-1.363l3.945-5.134a3.16,3.16,0,0,0-.8-4.583,3.644,3.644,0,0,0-2.041-.615Z"/><path class="i" d="M142.9,24.947a.552.552,0,0,1-.418-.176.49.49,0,0,1,.07-.7l2.2-1.707a.53.53,0,0,1,.334-.11.553.553,0,0,1,.418.176.466.466,0,0,1,.114.365.475.475,0,0,1-.185.339l-2.2,1.707A.53.53,0,0,1,142.9,24.947Z"/><path class="i" d="M147.477,25.44h0m-2.391-7.19a4.985,4.985,0,0,0-3.06,1.029l-2.2,1.707a4.319,4.319,0,0,0-.636,6.337h0a5.053,5.053,0,0,0,6.769.594l2.2-1.707a4.317,4.317,0,0,0,.635-6.336h0a4.939,4.939,0,0,0-3.708-1.624Z"/><path class="i" d="M221.514,38.792l2.506-4.063a1.354,1.354,0,0,1,1.775-.445h0a1.178,1.178,0,0,1,.475,1.661l-2.505,4.063a1.352,1.352,0,0,1-1.775.445h0A1.178,1.178,0,0,1,221.514,38.792Z"/><path class="i" d="M231.421,38.729h0m-6.272-4.607a1.322,1.322,0,0,0-1.129.607l-2.506,4.063a1.178,1.178,0,0,0,.476,1.661,1.355,1.355,0,0,0,.646.162,1.322,1.322,0,0,0,1.129-.607l2.505-4.063a1.179,1.179,0,0,0-.475-1.661h0a1.358,1.358,0,0,0-.646-.162Z"/><path class="i" d="M172.17,18.292l-3.674-3.44a2.214,2.214,0,0,1,0-3.268h0a2.6,2.6,0,0,1,3.49,0l3.675,3.44a2.214,2.214,0,0,1,0,3.268h0A2.6,2.6,0,0,1,172.17,18.292Z"/><path class="i" d="M170.241,10.91a2.55,2.55,0,0,0-1.745.674,2.213,2.213,0,0,0,0,3.268l3.674,3.44a2.6,2.6,0,0,0,3.491,0,2.214,2.214,0,0,0,0-3.268l-3.675-3.44a2.55,2.55,0,0,0-1.745-.674Z"/><path class="i" d="M127.213,46.4l2.125-3.059a2.445,2.445,0,0,1,3.236-.641h0a2.113,2.113,0,0,1,.685,3.029l-2.125,3.058a2.446,2.446,0,0,1-3.236.642h0A2.113,2.113,0,0,1,127.213,46.4Z"/><path class="i" d="M136.5,47.7h0m-5.2-5.356a2.389,2.389,0,0,0-1.967.994L127.213,46.4a2.113,2.113,0,0,0,.685,3.029h0a2.443,2.443,0,0,0,1.269.352,2.389,2.389,0,0,0,1.967-.994l2.125-3.058a2.113,2.113,0,0,0-.685-3.029,2.432,2.432,0,0,0-1.269-.353Z"/><path class="i" d="M192.578,30.39l5.009,3.051a3.169,3.169,0,0,1,1.028,4.544h0a3.666,3.666,0,0,1-4.853.962l-5.01-3.051a3.169,3.169,0,0,1-1.028-4.543h0A3.668,3.668,0,0,1,192.578,30.39Z"/><path class="i" d="M190.674,29.862a3.582,3.582,0,0,0-2.95,1.491h0a3.169,3.169,0,0,0,1.028,4.543l5.01,3.051a3.658,3.658,0,0,0,1.9.528,3.582,3.582,0,0,0,2.949-1.49,3.169,3.169,0,0,0-1.028-4.544l-5.009-3.05a3.652,3.652,0,0,0-1.9-.529Z"/><path class="i" d="M167.741,52.482l-4.6,3.569a3.685,3.685,0,0,1-4.939-.434h0a3.152,3.152,0,0,1,.463-4.624l4.6-3.569a3.686,3.686,0,0,1,4.939.434h0A3.152,3.152,0,0,1,167.741,52.482Z"/><path class="i" d="M168.717,53.584h0M165.5,46.672a3.639,3.639,0,0,0-2.233.752l-4.6,3.569a3.151,3.151,0,0,0-.463,4.624,3.688,3.688,0,0,0,4.939.434l4.6-3.569a3.152,3.152,0,0,0,.464-4.624h0a3.606,3.606,0,0,0-2.706-1.186Z"/><path class="i" d="M110.332,26.974l-3.106.889a2.443,2.443,0,0,1-3-1.494h0a2.234,2.234,0,0,1,1.6-2.809l3.106-.89a2.444,2.444,0,0,1,3,1.494h0A2.235,2.235,0,0,1,110.332,26.974Z"/><path class="i" d="M111.426,30.321h0m-1.8-7.749a2.551,2.551,0,0,0-.7.1l-3.106.89a2.234,2.234,0,0,0-1.6,2.809,2.4,2.4,0,0,0,2.3,1.592,2.54,2.54,0,0,0,.7-.1l3.106-.889a2.235,2.235,0,0,0,1.6-2.81h0a2.4,2.4,0,0,0-2.3-1.592Z"/><path class="i" d="M213.854,25.459l-3.106.889a2.444,2.444,0,0,1-3-1.493h0a2.236,2.236,0,0,1,1.6-2.81l3.106-.889a2.443,2.443,0,0,1,3,1.493h0A2.234,2.234,0,0,1,213.854,25.459Z"/><path class="i" d="M214.947,28.806h0m-1.8-7.748a2.513,2.513,0,0,0-.7.1l-3.106.889a2.236,2.236,0,0,0-1.6,2.81,2.4,2.4,0,0,0,2.3,1.591,2.515,2.515,0,0,0,.7-.1l3.106-.889a2.234,2.234,0,0,0,1.595-2.81h0a2.4,2.4,0,0,0-2.3-1.591Z"/><path class="i" d="M143.248,6.511l-3.106.89a2.445,2.445,0,0,1-3-1.494h0a2.236,2.236,0,0,1,1.6-2.81l3.106-.889a2.442,2.442,0,0,1,3,1.494h0A2.234,2.234,0,0,1,143.248,6.511Z"/><path class="i" d="M144.341,9.858h0m-1.8-7.748a2.551,2.551,0,0,0-.7.1l-3.106.889a2.236,2.236,0,0,0-1.6,2.81,2.4,2.4,0,0,0,2.3,1.592,2.551,2.551,0,0,0,.7-.1l3.106-.89A2.234,2.234,0,0,0,144.843,3.7a2.4,2.4,0,0,0-2.3-1.592Z"/><path class="i" d="M99.32,12.616,97,9.994a1.168,1.168,0,0,1,.171-1.713h0A1.367,1.367,0,0,1,99,8.442l2.32,2.623a1.166,1.166,0,0,1-.171,1.712h0A1.365,1.365,0,0,1,99.32,12.616Z"/><path class="i" d="M98,8a1.35,1.35,0,0,0-.827.278A1.168,1.168,0,0,0,97,9.994l2.32,2.622a1.334,1.334,0,0,0,1,.439,1.35,1.35,0,0,0,.827-.278,1.166,1.166,0,0,0,.171-1.712L99,8.442A1.337,1.337,0,0,0,98,8Z"/><path class="j" d="M146.544,196.014C57.494,195.7,12.576,193.56,0,192.849c1.705,6.711,6.844,10.488,15.574,11.491l.251.03c1.157.135,2.167,1.447,2.593,3.37l.748,3.372H273.935l.747-3.372c.426-1.923,1.436-3.235,2.592-3.37l.252-.03c8.73-1,13.87-4.78,15.575-11.491-12.577.711-57.495,2.853-146.545,3.165Z"/><path class="k" d="M15.825,204.37c1.157.135,2.167,1.447,2.593,3.37l.748,3.372H273.935l.747-3.372c.426-1.923,1.436-3.235,2.592-3.37l.252-.03c.153-.018.3-.043.446-.062-21.961.919-64.062,2.2-131.416,2.438h-.012C79.19,206.48,37.089,205.2,15.128,204.278c.15.019.293.044.446.062Z"/></svg>