<svg xmlns="http://www.w3.org/2000/svg" viewBox="0 0 258.586 19.673"><defs><style>.a{fill:#f9c163;}.b{fill:#ffdf69;}</style></defs><title>cheese1</title><path class="a" d="M242.39,14.023c-10.927-.734-26.148-1.344-45.239-1.812-32.466-.8-65.356-.909-65.693-.91h-4.339c-.328,0-33.217.114-65.684.91-19.092.468-34.312,1.078-45.239,1.812-6.458.434-11.487.919-14.965,1.442C.809,16.812.4,18.212,0,19.673c.367-.058.73-.114,1.084-.168,3.483-.532,8.567-1.024,15.112-1.463,10.927-.735,26.147-1.345,45.239-1.813,32.467-.8,65.356-.909,65.684-.909h4.339c.337,0,33.227.113,65.693.909,19.091.468,34.312,1.078,45.239,1.813,6.545.439,11.63.931,15.112,1.463.354.054.718.11,1.084.168-.4-1.461-.809-2.861-1.231-4.208C253.878,14.942,248.849,14.457,242.39,14.023Z"/><path class="b" d="M61.435,12.211c32.467-.8,65.356-.909,65.684-.91h4.339c.337,0,33.227.114,65.693.91,19.091.468,34.312,1.078,45.239,1.812,6.459.434,11.488.919,14.965,1.442A108.581,108.581,0,0,0,251.223,0H7.363A108.581,108.581,0,0,0,1.231,15.465c3.478-.523,8.507-1.008,14.965-1.442C27.123,13.289,42.343,12.679,61.435,12.211Z"/></svg>