<svg xmlns="http://www.w3.org/2000/svg" viewBox="0 0 249.871 21.384"><defs><style>.a{fill:#f9c163;}.b{fill:#ffdf69;}</style></defs><title>cheese3</title><path class="a" d="M215.51,17.224c-6.929-3.173-29.658-6.935-114.81-8.17-19.449-.282-38.749-.371-55.382-.371-20.061,0-36.225.13-44.074.206L0,13.061c7.3-.074,24.144-.218,45.318-.218,16.633,0,35.933.088,55.382.371,85.152,1.234,107.881,5,114.81,8.17,10.655-6.917,26.256-9.485,34.361-9.643l-.417-4.326C240.872,7.741,225.337,10.845,215.51,17.224Z"/><path class="b" d="M100.7,9.054c85.152,1.235,107.881,5,114.81,8.17,9.827-6.379,25.362-9.483,33.944-9.809L243.6,0,6.454.963,1.244,8.889c7.849-.076,24.013-.206,44.074-.206C61.951,8.683,81.251,8.772,100.7,9.054Z"/></svg>