<svg xmlns="http://www.w3.org/2000/svg" viewBox="0 0 247.694 32.63"><defs><style>.a{fill:#62370d;}.b{fill:#483115;}</style></defs><title>patty</title><path class="a" d="M233.065,7.471,202.5,28.77,169.464,8.026,123.475,23.645,77.487,8.026,44.447,28.77,13.886,7.471l-12.9,3.32A16.269,16.269,0,0,0,16.315,32.63H231.379A16.274,16.274,0,0,0,246.788,11Z"/><path class="b" d="M44.447,28.77,77.487,8.026l45.988,15.619L169.464,8.026,202.5,28.77l30.561-21.3L246.788,11A16.331,16.331,0,0,0,231.379,0H16.315A16.327,16.327,0,0,0,.983,10.791l12.9-3.32Z"/></svg>