<svg xmlns="http://www.w3.org/2000/svg" viewBox="0 0 293.101 18.263"><defs><style>.a{fill:#f0e8e8;}.b{fill:#d2cccc;}</style></defs><title>plate</title><path class="a" d="M146.544,3.165C57.494,2.853,12.576.711,0,0,1.705,6.711,6.844,10.488,15.574,11.491l.251.03c1.157.135,2.167,1.447,2.593,3.37l.748,3.372H273.935l.747-3.372c.426-1.923,1.436-3.235,2.592-3.37l.252-.03c8.73-1,13.87-4.78,15.575-11.491-12.577.711-57.495,2.853-146.545,3.165Z"/><path class="b" d="M15.825,11.521c1.157.135,2.167,1.447,2.593,3.37l.748,3.372H273.935l.747-3.372c.426-1.923,1.436-3.235,2.592-3.37l.252-.03c.153-.018.3-.042.446-.062-21.961.919-64.062,2.2-131.416,2.438h-.012C79.19,13.631,37.089,12.348,15.128,11.429c.15.02.293.044.446.062Z"/></svg>