<svg xmlns="http://www.w3.org/2000/svg" viewBox="0 0 262.167 38.179"><defs><style>.a{fill:none;}.b{fill:#bede71;}.c{fill:#8ac740;}</style></defs><title>salad</title><path class="a" d="M84.464.45l-8.127,5.1H102.86L86.972.156A2.946,2.946,0,0,0,84.464.45Z"/><path class="a" d="M176.141,0a2.959,2.959,0,0,0-.946.156l-15.888,5.4H185.83L177.7.45A2.948,2.948,0,0,0,176.141,0Z"/><path class="b" d="M233.243,5.552h-4.458L208.427,19.739,185.83,5.552H159.307l-28.224,9.586L102.86,5.552H76.337L53.74,19.739,33.383,5.552H12.246L0,23.9l22.981-5.913a2.942,2.942,0,0,1,2.413.435L53.74,38.179,84.464,18.89a2.939,2.939,0,0,1,2.508-.294l44.111,14.982L175.2,18.6a2.942,2.942,0,0,1,2.509.294l30.723,19.289,28.347-19.755a2.938,2.938,0,0,1,2.413-.435l22.98,5.913L249.921,5.552Z"/><polygon class="c" points="76.337 5.552 33.383 5.552 53.74 19.739 76.337 5.552"/><polygon class="c" points="208.427 19.739 228.785 5.552 185.83 5.552 208.427 19.739"/><polygon class="c" points="131.083 15.138 159.307 5.552 102.86 5.552 131.083 15.138"/></svg>