<svg xmlns="http://www.w3.org/2000/svg" viewBox="0 0 229.271 9.67"><defs><style>.a{fill:#871d08;}.b{fill:#b42b0d;}.c{fill:#f4616a;}</style></defs><title>tomatoes</title><path class="a" d="M221.747.075q-33.111,1-66.235,1.387a3.767,3.767,0,0,0-1.565.359,2.046,2.046,0,0,1-1.737.021,4.081,4.081,0,0,0-1.788-.392q-35.785.336-71.575,0a4.08,4.08,0,0,0-1.787.392,2.04,2.04,0,0,1-1.736-.022,3.785,3.785,0,0,0-1.565-.358Q40.637,1.08,7.524.075a3.868,3.868,0,0,0-3.4,1.833,3.869,3.869,0,0,0,3.28,2.039q33.149,1,66.308,1.389a3.819,3.819,0,0,0,2.359-.781,4.121,4.121,0,0,0,2.735,1.08q35.826.336,71.654,0a4.124,4.124,0,0,0,2.736-1.08,3.819,3.819,0,0,0,2.359.781q33.158-.384,66.308-1.389a3.87,3.87,0,0,0,3.28-2.039A3.87,3.87,0,0,0,221.747.075Z"/><path class="b" d="M72.416,5.43Q38.207,5.034,4.005,4a3.987,3.987,0,0,1-3.384-2.1A3.947,3.947,0,0,0,0,3.873,4,4,0,0,0,3.884,7.991Q38.122,9.029,72.37,9.426a4,4,0,0,0,4.05-3.952,3.939,3.939,0,0,0-.536-2A3.989,3.989,0,0,1,72.416,5.43Z"/><path class="b" d="M148.846,5.513q-34.21.321-68.422,0A3.984,3.984,0,0,1,77,3.481a3.95,3.95,0,0,0-.578,1.993A4,4,0,0,0,80.387,9.51q34.247.321,68.5,0a4,4,0,0,0,3.967-4.036,3.952,3.952,0,0,0-.577-1.993A3.989,3.989,0,0,1,148.846,5.513Z"/><path class="b" d="M225.266,4q-34.2,1.038-68.411,1.434a3.989,3.989,0,0,1-3.469-1.96,3.956,3.956,0,0,0-.536,2A4,4,0,0,0,156.9,9.426q34.246-.4,68.486-1.435a4,4,0,0,0,3.882-4.118,3.948,3.948,0,0,0-.62-1.98A3.984,3.984,0,0,1,225.266,4Z"/><path class="c" d="M4.005,4q34.2,1.038,68.411,1.434a3.987,3.987,0,0,0,3.468-1.96,3.993,3.993,0,0,0-3.422-2.037Q38.29,1.039,4.126,0A4,4,0,0,0,.621,1.893,3.987,3.987,0,0,0,4.005,4Z"/><path class="c" d="M148.808,1.517q-34.171.321-68.346,0A3.992,3.992,0,0,0,77,3.481a3.987,3.987,0,0,0,3.426,2.032q34.21.321,68.422,0a3.987,3.987,0,0,0,3.427-2.032A4,4,0,0,0,148.808,1.517Z"/><path class="c" d="M225.145,0q-34.162,1.037-68.337,1.431a4,4,0,0,0-3.422,2.037,3.989,3.989,0,0,0,3.469,1.96q34.209-.4,68.411-1.434a3.985,3.985,0,0,0,3.383-2.1A3.992,3.992,0,0,0,225.145,0Z"/></svg>