<svg xmlns="http://www.w3.org/2000/svg" viewBox="0 0 256.037 98.575"><defs><style>.a{fill:#f5c99e;}.b{fill:#e0a879;}.c{fill:#f2bc86;}.d{fill:#fff5de;}</style></defs><title>topBun</title><path class="a" d="M190.476,12.587a163.431,163.431,0,0,0-125.79,0c17.1,4.562,39,7.31,62.9,7.31S173.374,17.149,190.476,12.587Z"/><path class="b" d="M7.153,64.653c-.494,1.049-.983,2.1-1.431,3.146a90.015,90.015,0,0,0-4.463,12.99Q.545,83.579.083,86.4A6.158,6.158,0,0,0,6.149,93.57s69.468,5.005,122.145,5.005c66.338,0,121.593-5.005,121.593-5.005a6.159,6.159,0,0,0,6.067-7.167q-.462-2.823-1.176-5.614a84.692,84.692,0,0,0-5.733-15.472c-.12-.248-.251-.5-.373-.746-28.961,4.763-72.418,7.792-121.009,7.792C79.35,72.363,36.114,69.368,7.153,64.653Z"/><path class="c" d="M217.684,27.628a140.065,140.065,0,0,0-27.208-15.041c-17.1,4.562-39,7.31-62.895,7.31s-45.794-2.748-62.895-7.31A140.117,140.117,0,0,0,37.478,27.628,94.777,94.777,0,0,0,9.554,59.855c-.858,1.6-1.647,3.2-2.4,4.8,28.961,4.715,72.2,7.71,120.51,7.71,48.591,0,92.048-3.029,121.009-7.792-.749-1.527-1.539-3.054-2.386-4.576A99.664,99.664,0,0,0,217.684,27.628Z"/><path class="d" d="M74.111,50.053l-3.567-1.471a2.144,2.144,0,0,1-1.2-2.886h0a2.411,2.411,0,0,1,3.083-1.121L76,46.046a2.144,2.144,0,0,1,1.2,2.886h0A2.411,2.411,0,0,1,74.111,50.053Z"/><path class="d" d="M71.493,44.39A2.361,2.361,0,0,0,69.346,45.7h0a2.144,2.144,0,0,0,1.2,2.886l3.567,1.471a2.459,2.459,0,0,0,.936.185,2.361,2.361,0,0,0,2.147-1.306h0A2.144,2.144,0,0,0,76,46.046l-3.567-1.471a2.459,2.459,0,0,0-.936-.185Z"/><path class="d" d="M56.573,33.677l-3.945,5.134a3.677,3.677,0,0,1-4.9.748h0a3.16,3.16,0,0,1-.8-4.583l3.946-5.134a3.674,3.674,0,0,1,4.9-.748h0A3.16,3.16,0,0,1,56.573,33.677Z"/><path class="d" d="M57.815,34.513h0m-4.082-6.034a3.592,3.592,0,0,0-2.855,1.363l-3.946,5.134a3.16,3.16,0,0,0,.8,4.583,3.644,3.644,0,0,0,2.041.615,3.6,3.6,0,0,0,2.856-1.363l3.945-5.134a3.16,3.16,0,0,0-.8-4.583,3.644,3.644,0,0,0-2.041-.615Z"/><path class="d" d="M126.7,24.947a.551.551,0,0,1-.417-.176.49.49,0,0,1,.07-.7l2.2-1.707a.53.53,0,0,1,.334-.11.555.555,0,0,1,.418.176.466.466,0,0,1,.114.365.475.475,0,0,1-.185.339l-2.2,1.707A.531.531,0,0,1,126.7,24.947Z"/><path class="d" d="M131.281,25.44h0m-2.391-7.19a4.985,4.985,0,0,0-3.06,1.029l-2.2,1.707a4.319,4.319,0,0,0-.636,6.337h0a5.053,5.053,0,0,0,6.769.594l2.2-1.707a4.317,4.317,0,0,0,.635-6.336h0a4.939,4.939,0,0,0-3.708-1.624Z"/><path class="d" d="M205.318,38.792l2.506-4.063a1.354,1.354,0,0,1,1.775-.445h0a1.178,1.178,0,0,1,.475,1.661l-2.505,4.063a1.352,1.352,0,0,1-1.775.445h0A1.178,1.178,0,0,1,205.318,38.792Z"/><path class="d" d="M215.225,38.729h0m-6.272-4.607a1.322,1.322,0,0,0-1.129.607l-2.506,4.063a1.178,1.178,0,0,0,.476,1.661,1.355,1.355,0,0,0,.646.162,1.322,1.322,0,0,0,1.129-.607l2.505-4.063a1.179,1.179,0,0,0-.475-1.661h0a1.358,1.358,0,0,0-.646-.162Z"/><path class="d" d="M155.974,18.292l-3.675-3.44a2.214,2.214,0,0,1,0-3.268h0a2.6,2.6,0,0,1,3.491,0l3.675,3.44a2.214,2.214,0,0,1,0,3.268h0A2.6,2.6,0,0,1,155.974,18.292Z"/><path class="d" d="M154.045,10.91a2.552,2.552,0,0,0-1.746.674,2.214,2.214,0,0,0,0,3.268l3.675,3.44a2.6,2.6,0,0,0,3.491,0,2.214,2.214,0,0,0,0-3.268l-3.675-3.44a2.55,2.55,0,0,0-1.745-.674Z"/><path class="d" d="M111.017,46.4l2.125-3.059a2.445,2.445,0,0,1,3.236-.641h0a2.113,2.113,0,0,1,.685,3.029l-2.125,3.058a2.446,2.446,0,0,1-3.236.642h0A2.113,2.113,0,0,1,111.017,46.4Z"/><path class="d" d="M120.306,47.7h0m-5.2-5.356a2.389,2.389,0,0,0-1.967.994L111.017,46.4a2.113,2.113,0,0,0,.685,3.029h0a2.44,2.44,0,0,0,1.269.352,2.389,2.389,0,0,0,1.967-.994l2.125-3.058a2.113,2.113,0,0,0-.685-3.029,2.432,2.432,0,0,0-1.269-.353Z"/><path class="d" d="M176.382,30.39l5.009,3.051a3.169,3.169,0,0,1,1.028,4.544h0a3.666,3.666,0,0,1-4.853.962l-5.01-3.051a3.169,3.169,0,0,1-1.028-4.543h0A3.668,3.668,0,0,1,176.382,30.39Z"/><path class="d" d="M174.478,29.862a3.582,3.582,0,0,0-2.95,1.491h0a3.169,3.169,0,0,0,1.028,4.543l5.01,3.051a3.657,3.657,0,0,0,1.9.528,3.583,3.583,0,0,0,2.95-1.49,3.169,3.169,0,0,0-1.028-4.544l-5.009-3.05a3.652,3.652,0,0,0-1.9-.529Z"/><path class="d" d="M151.545,52.482l-4.6,3.569A3.685,3.685,0,0,1,142,55.617h0a3.151,3.151,0,0,1,.463-4.624l4.6-3.569a3.687,3.687,0,0,1,4.94.434h0A3.152,3.152,0,0,1,151.545,52.482Z"/><path class="d" d="M152.521,53.584h0M149.3,46.672a3.643,3.643,0,0,0-2.234.752l-4.6,3.569A3.151,3.151,0,0,0,142,55.617a3.688,3.688,0,0,0,4.939.434l4.6-3.569a3.152,3.152,0,0,0,.464-4.624h0a3.606,3.606,0,0,0-2.706-1.186Z"/><path class="d" d="M94.136,26.974l-3.106.889a2.443,2.443,0,0,1-3-1.494h0a2.234,2.234,0,0,1,1.6-2.809l3.106-.89a2.444,2.444,0,0,1,3,1.494h0A2.235,2.235,0,0,1,94.136,26.974Z"/><path class="d" d="M95.23,30.321h0m-1.8-7.749a2.551,2.551,0,0,0-.7.1l-3.106.89a2.234,2.234,0,0,0-1.6,2.809,2.4,2.4,0,0,0,2.3,1.592,2.546,2.546,0,0,0,.7-.1l3.106-.889a2.235,2.235,0,0,0,1.6-2.81h0a2.4,2.4,0,0,0-2.3-1.592Z"/><path class="d" d="M197.658,25.459l-3.106.889a2.444,2.444,0,0,1-3-1.493h0a2.236,2.236,0,0,1,1.6-2.81l3.106-.889a2.443,2.443,0,0,1,3,1.493h0A2.234,2.234,0,0,1,197.658,25.459Z"/><path class="d" d="M198.751,28.806h0m-1.8-7.748a2.513,2.513,0,0,0-.7.1l-3.106.889a2.236,2.236,0,0,0-1.6,2.81,2.4,2.4,0,0,0,2.3,1.591,2.515,2.515,0,0,0,.7-.1l3.106-.889a2.234,2.234,0,0,0,1.595-2.81h0a2.4,2.4,0,0,0-2.3-1.591Z"/><path class="d" d="M127.052,6.511l-3.106.89a2.445,2.445,0,0,1-3-1.494h0a2.236,2.236,0,0,1,1.6-2.81l3.106-.889a2.442,2.442,0,0,1,3,1.494h0A2.234,2.234,0,0,1,127.052,6.511Z"/><path class="d" d="M128.145,9.858h0m-1.8-7.748a2.551,2.551,0,0,0-.7.1L122.54,3.1a2.236,2.236,0,0,0-1.6,2.81,2.4,2.4,0,0,0,2.3,1.592,2.553,2.553,0,0,0,.7-.1l3.106-.89A2.234,2.234,0,0,0,128.647,3.7a2.4,2.4,0,0,0-2.3-1.592Z"/><path class="d" d="M83.124,12.616,80.8,9.994a1.168,1.168,0,0,1,.171-1.713h0a1.367,1.367,0,0,1,1.83.161l2.32,2.623a1.166,1.166,0,0,1-.171,1.712h0A1.365,1.365,0,0,1,83.124,12.616Z"/><path class="d" d="M81.8,8a1.35,1.35,0,0,0-.827.278A1.168,1.168,0,0,0,80.8,9.994l2.32,2.622a1.334,1.334,0,0,0,1,.439,1.35,1.35,0,0,0,.827-.278,1.166,1.166,0,0,0,.171-1.712l-2.32-2.623A1.337,1.337,0,0,0,81.8,8Z"/></svg>