<svg xmlns="http://www.w3.org/2000/svg" viewBox="0 0 71.76 117.523"><defs><style>.a{fill:none;stroke:#000;stroke-linejoin:round;stroke-width:5px;}.b{fill-rule:evenodd;}</style></defs><title>for</title><path class="a" d="M17.935,47.718A25.663,25.663,0,1,1,43.6,73.38,25.663,25.663,0,0,1,17.935,47.718Z"/><path class="a" d="M17.461,95.023c.054-10.413.494-95.01.494-95.01"/><path class="b" d="M0,87.432l17.344,30.091L35,87.614Z"/><path d="M53.272,56.968H47.91V45.489a5.511,5.511,0,0,0-.756-3.19,2.748,2.748,0,0,0-2.408-1.064,3.621,3.621,0,0,0-3.252,1.5,9.322,9.322,0,0,0-1,4.984v9.246H35.131V37.315h4.1l.72,2.514h.3a5.666,5.666,0,0,1,2.47-2.153,8.4,8.4,0,0,1,3.577-.73A6.869,6.869,0,0,1,51.5,38.8a7.438,7.438,0,0,1,1.776,5.352Z"/></svg>