<svg xmlns="http://www.w3.org/2000/svg" viewBox="0 0 48.717 117.794"><defs><style>.a{fill:none;stroke:#000;stroke-width:4.335px;}.b{fill-rule:evenodd;}</style></defs><title>foreach</title><path class="a" d="M17.5,92.046V74.993H32.676a13.874,13.874,0,1,0,0-27.747,13.874,13.874,0,0,0,0-27.748H17.5V0"/><path class="b" d="M0,87.75l17.424,30.044L35,87.838Z"/><path d="M27.818,56.955H22.457V45.476a5.511,5.511,0,0,0-.756-3.19,2.751,2.751,0,0,0-2.408-1.064,3.621,3.621,0,0,0-3.252,1.5,9.322,9.322,0,0,0-1,4.984v9.246H9.677V37.3h4.1l.721,2.514h.3a5.663,5.663,0,0,1,2.469-2.153,8.4,8.4,0,0,1,3.577-.73,6.872,6.872,0,0,1,5.2,1.855,7.443,7.443,0,0,1,1.775,5.352Z"/></svg>