<svg xmlns="http://www.w3.org/2000/svg" xmlns:xlink="http://www.w3.org/1999/xlink" viewBox="0 0 353.211 711.299"><defs><style>.a{fill:url(#a);}.b{fill:#252836;}.c,.h{fill:#2f3242;}.ab,.c,.i,.v{isolation:isolate;}.d{fill:#1f1f1f;}.e{fill:#262730;}.f{fill:#253575;}.g{fill:#d1d3d6;}.i{fill:#69001d;}.j,.x{fill:#292929;}.k{fill:#bd9374;}.l{fill:#4d3726;}.m{fill:#634731;}.n{fill:#96755c;}.o,.q{fill:#6b2c15;}.o{opacity:0.3;}.p{fill:#e6e6e6;}.r{fill:#d9a985;}.s{fill:#e0e0e0;}.t{fill:#bfbfbf;}.aa,.ac,.u{fill:#fff;}.u,.x{opacity:0.24;}.v,.y{fill:none;stroke-miterlimit:10;}.v{stroke:#af1745;stroke-width:10.137px;}.w{fill:#0f0f0f;}.y{stroke:#e0e0e0;stroke-width:3.181px;}.z{fill:#222221;}.aa{opacity:0.05;}.ab{fill:#570017;}</style><radialGradient id="a" cx="175.925" cy="360.808" r="271.52" gradientTransform="translate(-18.265 -360.808) scale(1.108 2)" gradientUnits="userSpaceOnUse"><stop offset="0" stop-opacity="0.2"/><stop offset="0.5" stop-opacity="0"/></radialGradient></defs><title>barkeeper</title><ellipse class="a" cx="176.605" cy="360.808" rx="176.605" ry="349.323"/><path class="b" d="M205.13,516.31c2.228,46.987,18.5,78.012,26.2,100.977,6.124,18.258,29.659-43.119,31.793-98.56C265.31,461.945,245.962,412.1,237.5,411.541,220.938,410.439,202.374,458.188,205.13,516.31Z"/><path class="c" d="M208.625,599.293c-1.212,48.03,9.909,86.255,24.714,86.618,14.7.36,28.1-36.772,30.081-84.146,2.037-48.767-8.725-90.2-24.2-91.232C223.635,509.492,209.873,549.832,208.625,599.293Z"/><path class="d" d="M206.614,667.229c-.3,12.92,10.611,23.332,24.277,23.349,13.58.017,24.918-10.249,25.405-23.019.491-12.872-10.207-23.517-23.978-23.684C218.457,643.707,206.912,654.205,206.614,667.229Z"/><path class="e" d="M209.6,652.985c-.187,7.892,10.822,14.335,24.509,14.426,13.6.09,24.806-6.132,25.109-13.932.305-7.838-10.5-14.366-24.217-14.548C221.2,638.747,209.788,645.054,209.6,652.985Z"/><path class="c" d="M186.688,401.287c.12,6.53.506,13.349,1.2,20.421.527,5.44,2.52,12.279,3.411,18,8.3,53.395,13.3,97.355,28.268,111.814,3.686,3.555,7.555,5.35,11.491,5.077,6.029-.42,11.566-5.623,16.31-14.487,10.881-20.3,14.844-60.29,13.964-106.985-.5-26.226-.395-50.839-4.971-71.355v-.012c-1.39-6.191-2.922-12.006-4.589-17.366-7.41-13.488-23.216-24.845-43.123-30.534-7.986,8.71-15.06,24.141-18.923,45.175v.013A203.593,203.593,0,0,0,186.688,401.287Z"/><path class="f" d="M206.279,681.888c-.309,13.539,11.792,24.4,26.93,24.364,15.031-.037,27.568-10.82,28.1-24.186.537-13.476-11.31-24.594-26.564-24.732C219.382,657.2,206.591,668.236,206.279,681.888Z"/><path class="g" d="M208,691.039c-.264,11.279,12.515,20.318,28.435,20.26,15.8-.057,28.9-9.068,29.358-20.2.463-11.206-12.039-20.423-28.036-20.517C221.634,670.491,208.261,679.68,208,691.039Z"/><path class="b" d="M97.566,476.088c-2.91,52.383,9.057,96.911,26.5,100.782,17.265,3.832,22.494-18.46,37.894-84.753,11.762-50.632-7.441-100.631-25.574-105.662C118.057,381.371,100.564,422.141,97.566,476.088Z"/><path class="c" d="M108.889,543.332c3.3,5.858,7.175,9.753,11.605,11.256,5.716,1.959,11.73-.273,17.665-5.914,15.184-14.423,23.331-50.5,40.2-93.855,3.764-9.679,12.353-26.855,14.806-35.315,2.078-7.121,3.716-13.81,4.968-20.11,3.132-15.8-4.295-26.136-5.341-37.305-2.406-25.55-13.7-39.884-24.75-47.765-19.535,2.869-35.494,10.916-44.109,22.008-2.294,4.628-4.525,9.728-6.645,15.249-7.283,18.959-13.321,42.786-17.052,69.223C92.73,474.1,96.876,521.98,108.889,543.332Z"/><path class="c" d="M154.411,596.755c-1.227,48.653-14.764,86.885-30.368,86.652-15.717-.235-28.234-39.371-27.843-88.705.4-50.824,14.267-92.4,30.841-91.457C143.488,504.177,155.676,546.653,154.411,596.755Z"/><path class="d" d="M93.378,650.354c-1.309,10.334,11.539,20.994,28.546,23.838,16.847,2.816,31.566-3.09,33.026-13.221,1.468-10.187-11-20.916-27.992-23.937C109.8,633.984,94.7,639.96,93.378,650.354Z"/><path class="e" d="M92.518,636.928c-.445,5.448,13.189,11.533,30.312,13.591,16.971,2.039,31.049-.645,31.581-5.994.534-5.366-12.749-11.446-29.806-13.584C107.394,628.784,92.964,631.463,92.518,636.928Z"/><path class="b" d="M95.972,530.521c2.077,12.482,8.368,22.788,14.05,23.117,2.144.126,3.9-1.186,5.152-3.531a62.47,62.47,0,0,1-6.9-21.767,40.01,40.01,0,0,1,1.054-15.375c-2.12-2.747-4.444-4.437-6.687-4.592C96.862,507.978,93.875,517.935,95.972,530.521Z"/><path class="f" d="M82.66,666.128c.347,10.6,15.382,18.915,33.453,18.625,17.927-.288,32.253-8.945,32.125-19.4-.129-10.524-14.837-19-32.982-18.859C96.964,646.632,82.311,655.452,82.66,666.128Z"/><path class="g" d="M64.29,676.048c.415,11.76,16.343,20.959,35.433,20.625,18.931-.331,34.033-9.928,33.875-21.514-.159-11.67-15.723-21.068-34.908-20.912C79.34,654.4,63.873,664.2,64.29,676.048Z"/><path class="h" d="M110,330.944c.008.427.564,36.266.594,36.684v.019a61.416,61.416,0,0,0,6.85,25.568c9.789,19.09,30.231,48.934,53.36,55.246,6.816,1.862,17.808-1.754,25.189-1.473,8.7.331,12.5-31.343,20.323-28.832,33.051,10.611,38.978,26.859,44.172,8.693,3.979-13.913,4.775-82.37-1.043-83.568Z"/><path class="i" d="M308.536,190.541c-3.852-9.489-21.4-21.157-28.962-33.808-6.589-11.04-13.412-4.967-38.593-20.781-5.879-3.69-46.925-16.423-77.631-13.736a211.732,211.732,0,0,0-35.6,7.227c-1.865.588-3.538,1.187-4.967,1.795-1.774.75-4.744,4.308-8.333,9.387-3.589,5.058-7.786,11.617-12.063,18.358-8.283,13.067-16.8,26.834-21.461,31.74a9.193,9.193,0,0,1-1.744,1.521A76.352,76.352,0,0,1,63.985,200c-12.631,4.531-10.979-1.754-17.7,24.41-.487,1.906-.923,3.822-1.277,5.738a80.014,80.014,0,0,0-.771,25.577c1.2,9.022,6,14.7,12.874,16.655,15.7,4.531,42.161-10.31,60.966-48.77.507-1.034.912-1.886,1.227-2.585-.183.486-.4,1.054-.619,1.682-.172.487-.354,1.014-.537,1.572a103.2,103.2,0,0,0-2.919,10.918c-1.8,8.6-2.646,25.241-5.738,43.59-1.369,8.16-1.2,16.666-3.758,24.938a5,5,0,0,0-.142,1.348c.01,5.89,2.643,24.826,4.143,37.863l16.149,1,35.8,2.22,2.057-.152,98.048-7.136c1.176-7.583-5.454-39.749-11.567-70.627-3.983-20.133-7.744-39.718-8.971-51.568-.791-7.664-.264-11.222,2.332-8.272,17.344,19.636,39.616,31.658,54.781,31.131C314.284,238.987,322.343,224.572,308.536,190.541Z"/><path class="j" d="M151.927,202.326c-9.162-.106-18.27-.234-27.433.056-.212-3.642-.269-7.235-.224-10.883,9.02-.094,18.106-.012,27.115-.4C151.506,194.843,151.929,198.57,151.927,202.326Z"/><path class="k" d="M204.269,111.892c-.389.941-.844,2.013-1.331,3.116l-1.883.13a.977.977,0,0,1-.064.325c-.747,2.532-19.8,17.075-21.1,17.075-1.169-.065-5.1-.292-7.207-.357-1.851-.032-12.758-8.927-16.1-13.569a47.775,47.775,0,0,1-2.6-7.239,26.441,26.441,0,0,0,20.062,10.388C184.694,119.423,195.537,118.222,204.269,111.892Z"/><path class="k" d="M205.535,108.873s-.519,1.266-1.266,3.019c-8.732,6.33-19.575,7.531-30.223,9.869a26.441,26.441,0,0,1-20.062-10.388,13.765,13.765,0,0,1-.357-2.24V109.1l33.242-7.466Z"/><path class="l" d="M151.313,28.622C142.722,11.627,183.544,0,183.544,0s-6.486,6.521,17.089,7.258c28.831.9,31.476,33.146,27.316,44.855-2.724,7.65-5.338,17.626-6.812,23.634-.791,3.195-1.264,5.263-1.264,5.263a21.317,21.317,0,0,0,.12-5.683v-.01c-.331-2.488-1.342-4.964-3.977-5.432-5.626-1-10.7,15.551-8.934,5.64.335-1.887.768-4.322,1.142-7.025,1.605-11.483,2.182-27.793-10.047-27.454-12.287.339-24.052,3.771-32.232-.329l-10.4-7.48Z"/><path class="m" d="M155.543,33.237c-1.459,3.7-6.3,10.541-8.01,20.153.014-22.834,2.273-19.064,3.78-24.768Z"/><path class="k" d="M221.15,75.761A87.354,87.354,0,0,1,217.774,91.8c-3.214,9.9-7.921,16.069-13.5,20.1-8.732,6.33-19.575,7.531-30.223,9.869a26.441,26.441,0,0,1-20.062-10.388c-6.882-8.733-10.648-23.114-8.538-43.468v-.228c.358-3.213.812-6.557,1.461-10.063h.065c.13-1.4.325-2.792.552-4.22.13-.779.292-1.559.487-2.3a52.362,52.362,0,0,1,7.5-17.79.115.115,0,0,1,.033-.065,42.386,42.386,0,0,1,3.376-4.48h.032c1.169.617,3.668.39,4.61,2.37,3.506,7.629,26.068,11.752,42.494,8.278,12.044-2.532,3.766,17.628,2.175,29.087-.39,2.727-.812,5.162-1.136,7.045-.065.357-.1.649-.163.941-.065.552-.13,1.006-.162,1.331-.1.844.032,1.039.292.811a4.17,4.17,0,0,0,.552-.714c.227-.325.487-.746.779-1.233.39-.585.812-1.3,1.3-1.981.162-.259.324-.487.519-.746a15.693,15.693,0,0,1,2.337-2.695c.163-.13.325-.259.455-.357a1.539,1.539,0,0,1,.389-.292,2.357,2.357,0,0,1,.617-.357,1.4,1.4,0,0,1,.455-.2,2.839,2.839,0,0,1,1.558-.162c2.63.454,3.636,2.954,3.96,5.421v.033a21.273,21.273,0,0,1-.1,5.681S220.338,78.942,221.15,75.761Z"/><path class="n" d="M176.23,57.721c-16.294-2.686-26.933-2.791-27.015,2.692-.061,4.112,7.8,8.439,15.271,10.728,2.491.764,7.305-3.3,9.4-3.07,1.952.212,2.239,4.938,5.185,4.948,9.706.033,22.59-1.228,24.065-5.1C205.059,62.873,182.9,58.82,176.23,57.721Z"/><path class="o" d="M217.774,91.8c-3.214,9.9-7.921,16.069-13.5,20.1-8.732,6.33-19.575,7.531-30.223,9.869a26.441,26.441,0,0,1-20.062-10.388c-6.882-8.733-10.648-23.114-8.538-43.468,0,2.532,3.766,11.1,7.11,18.146,1.266,2.662-.323,3.429.586,5.247.486.974-.813,1.429.485,1.786,2.748.869.357,12.015,9.341,13.4,1.927.3,2.853-4.643,5.994-4.242,4.529.579,3.705,6.274,9.207,5.483,9.593-1.378,10.027-16.224,11.654-15.605a10.818,10.818,0,0,0,6.038.39c4.35-.942,9.123-4.643,11.2-13.895C204.594,107.931,209.918,102.737,217.774,91.8Z"/><path class="p" d="M179.577,101.446c-2.9,1.37-9.136.867-13.681.059s-7.755-4.14-7.168-7.443,7.923.826,12.543.46C187.023,93.273,196.139,93.615,179.577,101.446Z"/><path class="q" d="M170.157,87.739c11.246-7.732,9.914,7.214,21.054,1.814,10.14-4.915,1.3,14.113-21.482,6.964-25.507,1.336-21.708-18.828-17.8-12.1C155.943,91.337,165.272,78.578,170.157,87.739Z"/><path class="r" d="M246.237,90.574c2.882,8.05,8.761,18.545,16.81,15.664s9.562-5.083,6.68-13.132-17.286-37.14-25.335-34.259S243.356,82.525,246.237,90.574Z"/><path class="r" d="M249.425,92.618c.1,8.549,2.244,20.387,10.792,20.285s10.7-1.692,10.593-10.241-4.248-40.745-12.8-40.642S249.323,84.07,249.425,92.618Z"/><path class="r" d="M258.641,103.524c-1.243,8.458-.991,20.486,7.467,21.729s10.829.011,12.072-8.447,2.213-40.907-6.246-42.149S259.884,95.065,258.641,103.524Z"/><path class="r" d="M278.925,106.452v-.01a46.8,46.8,0,0,0-5.545-14.689,41.414,41.414,0,0,0-3.832-2.119c-.476-.243-.993-.486-1.541-.74a60.537,60.537,0,0,0-5.778-2.341,54.7,54.7,0,0,0-12.682-2.839,43.777,43.777,0,0,0-5.676-.182,38.262,38.262,0,0,0-8.648,1.226,20.973,20.973,0,0,0-9.184,4.907c-.263.243-.527.5-.77.76a4.392,4.392,0,0,0,.1,5.586.4.4,0,0,0,.081.1,3.886,3.886,0,0,0-1.044-.172l-3.355,1.683a19.286,19.286,0,0,0-.832,3.8c-.04.223-.06.436-.081.659v.01c-.973,9.833,4.116,22.241,16.4,33.605a124.619,124.619,0,0,0,12.054,9.9c16.615,11.851,29.083,12.854,29.681,1.085.021-.193.021-.365.031-.558C278.631,128.926,281.044,117.745,278.925,106.452Zm-33.878,4.258a9.909,9.909,0,0,1-14.01,0,9.821,9.821,0,0,1-2.078-10.523,4.383,4.383,0,0,0-1.045-2.676,4.621,4.621,0,0,0,.842.081,4.414,4.414,0,0,0,2.24-.608c.081-.091.183-.193.274-.284a8.534,8.534,0,0,1,1.034-.882,9.813,9.813,0,0,1,12.743,14.892Z"/><path class="r" d="M228.959,100.187a9.7,9.7,0,0,0-.639,2.484,4.43,4.43,0,0,1-7.877-.578v-.01a3.934,3.934,0,0,1-.223-.659,4.017,4.017,0,0,1-.131-1.054,4.369,4.369,0,0,1,.963-2.747,3.617,3.617,0,0,1,.466-.507,4.34,4.34,0,0,1,2.889-1.176.5.5,0,0,1,.122-.01,4.619,4.619,0,0,1,.841.081c.132.03.264.061.385.1a4.3,4.3,0,0,1,2.089,1.308.555.555,0,0,1,.07.091A4.383,4.383,0,0,1,228.959,100.187Z"/><path class="r" d="M232.3,95.818a4.319,4.319,0,0,0,.892-2.656,4.439,4.439,0,0,0-4.44-4.44,4.332,4.332,0,0,0-2.717.943,3.9,3.9,0,0,0-.77.76,4.392,4.392,0,0,0,.1,5.586.4.4,0,0,0,.081.1,4.383,4.383,0,0,0,2.088,1.308c.122.03.244.061.376.091a4.6,4.6,0,0,0,.841.081,4.414,4.414,0,0,0,2.24-.608Z"/><path class="r" d="M238.865,121.041c-8.716-15.018,30.365-2.687,32.084,3.755,10.181,38.166,18.788,35.24,28.864,61.046,17.686,45.3-6.188,57.073-29.843,28.663C257.929,200.044,253.4,146.086,238.865,121.041Z"/><path class="r" d="M89.212,109c1.865,6.646,3.151,16.195-2.422,17.6s-7.326.546-9.191-6.1-6.45-32.327-.877-33.733S87.347,102.358,89.212,109Z"/><path class="r" d="M85,115.808c2.317,6.34,4.289,15.736-1.03,18.3s-7.09,2.053-9.407-4.286-8.717-31.376-3.4-33.938S82.682,109.469,85,115.808Z"/><path class="r" d="M89.587,89.962c1.918-6.364,5.983-15.018,11.985-14.257s7.171,2.116,5.253,8.481S95.032,114.22,89.031,113.46,87.668,96.327,89.587,89.962Z"/><path class="r" d="M81.43,130.654c1.665,6.332,2.659,15.68-2.972,18.079s-7.363,1.849-9.028-4.484-5.468-31.271.163-33.67S79.765,124.321,81.43,130.654Z"/><path class="r" d="M113.634,118.273c-.008-.01-.008-.01-.008-.02-.436-1.79-.934-3.507-1.473-5.071-.073-.228-.154-.465-.245-.684v-.01c-2.362-6.532-5.288-10.068-5.961-5.675a16.543,16.543,0,0,0-.138,2.538c.06,5.941-.089,11-.446,15.274a73.959,73.959,0,0,1-1.2,8.959v.01c-.913,4.494-2.167,7.494-3.66,9.346a7.725,7.725,0,0,1-.789.841c-4.779,4.423-11.554-1.45-17.374-8.85l-.055-.072c-.943-1.2-1.86-2.442-2.742-3.689-2.277-3.225-4.292-6.461-5.832-9.067,0-.01-.008-.011-.016-.021-1.082-1.831-1.917-3.347-2.443-4.31,0,0,0-.009-.008-.01-.41-.742-.634-1.173-.634-1.173-1.586,9.061-2.105,20.97-.19,30.679v.01c.948,4.8,2.494,9.049,4.817,12.179.244.335.5.651.761.959.136.154.272.307.416.462.008.01.007.02.015.02a12.6,12.6,0,0,0,3.3,2.553,15.209,15.209,0,0,0,13.86.221,28.329,28.329,0,0,0,8.8-6.54.76.76,0,0,1,.089-.091,60.319,60.319,0,0,0,10.7-16.841,20.615,20.615,0,0,0,1.411-4.7C115.583,130.077,114.935,123.76,113.634,118.273Z"/><path class="s" d="M118.3,96.319a9.348,9.348,0,0,1-.6,2.408l.1.02-18.014,46-.227-.029c1.235-5.337-3.8-11.188-11.421-13.2a19.78,19.78,0,0,0-5.913-.658,15.907,15.907,0,0,0-4.871.928,9.277,9.277,0,0,0-5.878,5.367L77.972,93a10.654,10.654,0,0,1,.05-1.643,11.509,11.509,0,0,1,4.938-7.891,20.354,20.354,0,0,1,8.205-3.443,27.8,27.8,0,0,1,8.633-.261C110.918,81.137,119.207,88.545,118.3,96.319Z"/><path class="t" d="M118.3,96.319a9.828,9.828,0,0,1-.328,1.577c-.017-7.33-8.012-14.071-18.568-15.376a27.784,27.784,0,0,0-8.726.28,20.306,20.306,0,0,0-8.029,3.375,12.06,12.06,0,0,0-4.686,6.305c.009-.377.017-.744.059-1.121a11.509,11.509,0,0,1,4.938-7.891.058.058,0,0,1,.034-.02c.268-.2.537-.386.823-.57.336-.223.688-.426,1.049-.629.269-.145.546-.29.823-.425.261-.126.53-.252.807-.368.1-.048.193-.087.294-.125.277-.116.562-.233.848-.329.1-.039.2-.078.311-.116.293-.1.6-.2.907-.29.369-.116.747-.213,1.133-.31s.781-.184,1.176-.261a27.8,27.8,0,0,1,8.633-.261C110.918,81.137,119.207,88.545,118.3,96.319Z"/><path class="t" d="M77.577,95.755c0-.026,0-.053,0-.079l-6.094,41.479c0-.015.013-.028.018-.042Z"/><path class="r" d="M112.971,116.152c1.671,5.4-.013,10.471-3.2,11.274s-3.262-2.471-4.934-7.867-3.854-10.921-.665-11.723S111.3,110.757,112.971,116.152Z"/><path class="t" d="M99.566,144.717c-.021.109-.043.21-.074.318-1.5,5.409-9.027,8.14-16.793,6.09-6.055-1.6-10.48-5.627-11.42-9.886a6.677,6.677,0,0,1-.185-1.4l.389-2.68c1.8-5.108,9.112-7.624,16.662-5.635C95.77,133.529,100.8,139.385,99.566,144.717Z"/><path class="u" d="M90.678,82.8l-8.449,48.061a15.907,15.907,0,0,0-4.871.928l5.291-45.614A20.306,20.306,0,0,1,90.678,82.8Z"/><path class="r" d="M103.692,144.973s-.036.414-.115,1.184c-.18,1.829-.559,5.7-1.1,10.884a.347.347,0,0,0-.013.1c-.368,3.453-4.354,26.3-4.843,30.7-2.761,25.015-3.785,43.245-7.683,54.212a13.072,13.072,0,0,1-1.063,2.345c-13.409,20.785-29.974,21.215-35.713,4.241a42.43,42.43,0,0,1-2.006-11.516c-.068-1.4-.091-2.853-.052-4.371.03-2.032.166-4.174.392-6.426.725-7.072,5.142-13.067,10.277-23.53,4.567-9.308,9.7-22.144,13.3-42.438.056-.3.113-.6.161-.9.126-.7.243-1.4.361-2.108.951-5.8,7.476-5.4,7.559-5.4,0,0,1.283.973,5.487-.058.145-.04.3-.078.452-.117a.026.026,0,0,0,.025-.008,32.421,32.421,0,0,0,3.719-1.255c1.372-.543,2.91-1.23,4.66-2.116.354-.181.707-.372,1.078-.561h.009C100.137,147.033,101.831,146.085,103.692,144.973Z"/><path class="v" d="M173.715,134.036s-5.093,29.127-2.579,46.8.794,43.606.031,57.447-5.064,88.738-6.237,108.293"/><path class="w" d="M109.734,342.932c-4.038-1.876-2.585,13.628,1.606,17.47,2.608,2.389,134.488-2.069,150.52-9.818.769-.372,3.251-18.888-.433-16.845C247.431,341.5,116.054,345.867,109.734,342.932Z"/><path class="x" d="M118.152,224.281l3.118,28.153-11.777,26.347c3.093-18.348,3.929-34.993,5.732-43.584A101.834,101.834,0,0,1,118.152,224.281Z"/><path class="x" d="M298.353,239.532c-15.156.526-37.428-11.494-54.773-31.131-2.6-2.945-3.13.609-2.335,8.278l-10.376-11.973,2.057-10.06,4.684,10.807s2.057-10.06,4.6-15.2c1.7-3.422,6.292,1.4,22.354,17.085,2.869,2.8-23.8-60.041-6.635-57.212,7,1.154,34.6,86.848,40.342,89.178Z"/><path class="x" d="M51.289,253.522c.252,6.481,4.507,16.046,5.824,18.859-6.877-1.962-11.681-7.639-12.879-16.659A80.337,80.337,0,0,1,45,230.149q.54-2.879,1.281-5.737c6.721-26.168,5.065-19.884,17.7-24.416,5.513-9.758,11.707-23.214,16.057-44.487a1.265,1.265,0,0,1,1.113.061c.164.161.328.323.5.484.01.011.009.021.02.022,2.79,3.352,2.217,13.93-.753,34.65q-.716,4.971-1.607,10.744c-3.64,23.5-19.691,37.861-25.726,46.584C52.1,250.2,51.23,252.006,51.289,253.522Z"/><path class="x" d="M262.042,123.4a7.34,7.34,0,0,1-2.235,2.781c-5.545,4.273-15.251-1.257-21.855-7.073-3.757-3.294-6.5-6.674-6.918-8.392A9.99,9.99,0,0,0,245.278,96.7a21.593,21.593,0,0,1,4.644,2.509c.245.166.489.332.723.518a34.447,34.447,0,0,1,6.367,6.229q.612.78,1.192,1.588a30.369,30.369,0,0,1,3.006,5.324,17.874,17.874,0,0,1,1.571,5.944A9.394,9.394,0,0,1,262.042,123.4Z"/><rect class="y" x="155.074" y="344.075" width="28.655" height="16.264" rx="5.415"/><line class="y" x1="169.402" y1="352.207" x2="184.99" y2="351.991"/><path class="z" d="M180.373,208.829c.979-28.434.922-51.9.1-56.23l1.951-.285,1.347-12.238-3.446-6.548-15.715.5-1.8,11.306,4.809,9.138,1.836-.268c-1.393,15.929-2.138,63.129-6.69,102.765-2.37,20.637-10.159,65.484-15.374,81.146,1.531,10.416,3.29,20.262,3.29,20.262l15.034-13.638S179,248.686,180.373,208.829Z"/><ellipse class="aa" cx="129.446" cy="415.059" rx="38.408" ry="18.789" transform="translate(-303.37 456.296) rotate(-78.121)"/><ellipse class="aa" cx="237.281" cy="415.059" rx="18.814" ry="38.355" transform="translate(-43.819 28.33) rotate(-6.256)"/><path class="x" d="M261.783,338.87l-98.048,7.136-2.057.152-35.795-2.22-16.149-1c-1.5-13.037-4.133-31.973-4.143-37.863,10.117,10.451,29.294,25.941,42.492,32.976q7.071.548,15.764,1.42c31.517,3.2,52.886,3.74,71.042-7.482,17.619-10.877,13.624-42.363,15.328-63.743C256.329,299.121,262.959,331.287,261.783,338.87Z"/><ellipse class="x" cx="222.352" cy="225.389" rx="13.78" ry="3.481" transform="translate(-49.923 63.812) rotate(-14.702)"/><ellipse class="x" cx="136.211" cy="227.822" rx="3.481" ry="13.78" transform="matrix(0.101, -0.995, 0.995, 0.101, -104.161, 340.416)"/><path class="ab" d="M209.723,128.318s-8.927,7.207-24.834,18.212c-.714-6.33-3.636-9.479-6.3-10.973a10.973,10.973,0,0,0-4.869-1.525s-2.532-.13-5.941,2.207c-2.662,1.786-5.876,5.162-8.765,11.395-10.421-10.1-12.4-24.477-12.4-24.477l8.928-4.545.973-.065c0,.032.033.032.065.065,3.344,4.642,14.251,13.537,16.1,13.569,2.11.065,6.038.292,7.207.357,1.3,0,20.354-14.543,21.1-17.075a.977.977,0,0,0,.064-.325l1.883-.13h.163Z"/><path class="ac" d="M128.483,193.6a1.091,1.091,0,0,1,.46.1,1.223,1.223,0,0,1,.376.27,1.286,1.286,0,0,1,.253.4,1.271,1.271,0,0,1,.094.489v1.63a1.306,1.306,0,0,1-.347.889,1.223,1.223,0,0,1-.376.27,1.091,1.091,0,0,1-.46.1h-.44v2.708c0,.094-.044.14-.132.14h-.835c-.088,0-.132-.046-.132-.14V193.74c0-.093.044-.14.132-.14Zm.085,1.31a.241.241,0,0,0-.065-.17.213.213,0,0,0-.16-.071h-.3v2.009h.3a.212.212,0,0,0,.16-.07.241.241,0,0,0,.065-.17Z"/><path class="ac" d="M132.857,200.456c.013.094-.025.14-.113.14h-.854c-.081,0-.128-.046-.14-.14l-.076-.979h-.581l-.075.979c-.013.094-.06.14-.141.14h-.854c-.088,0-.125-.046-.113-.14l.7-5.716a.139.139,0,0,1,.15-.14H132a.139.139,0,0,1,.15.14Zm-1.258-2.1-.178-2.208h-.075l-.178,2.208Z"/><path class="ac" d="M135.936,197.768a.916.916,0,0,1,.2.33,1.294,1.294,0,0,1,.065.42v.819a1.294,1.294,0,0,1-.347.89,1.188,1.188,0,0,1-.375.269,1.079,1.079,0,0,1-.46.1h-1.38a.391.391,0,0,1-.108-.015c-.034-.01-.051-.051-.051-.125V194.74c0-.094.043-.14.131-.14h1.408a1.079,1.079,0,0,1,.46.1,1.188,1.188,0,0,1,.375.269,1.294,1.294,0,0,1,.347.89v.66a1.076,1.076,0,0,1-.6,1.029A.922.922,0,0,1,135.936,197.768Zm-.836-1.859a.242.242,0,0,0-.065-.17.21.21,0,0,0-.16-.07h-.3v1.359h.3a.21.21,0,0,0,.16-.07.24.24,0,0,0,.065-.169Zm0,2.448a.244.244,0,0,0-.065-.17.213.213,0,0,0-.16-.069h-.3v1.409h.3a.214.214,0,0,0,.16-.07.244.244,0,0,0,.065-.17Z"/><path class="ac" d="M139.342,199.567v.889c0,.094-.044.14-.131.14H137.08c-.087,0-.131-.046-.131-.14V194.74c0-.094.044-.14.131-.14h.836c.087,0,.131.046.131.14v4.687h1.164C139.3,199.427,139.342,199.474,139.342,199.567Z"/><path class="ac" d="M142.486,199.407a1.293,1.293,0,0,1-.347.889,1.2,1.2,0,0,1-.375.27,1.079,1.079,0,0,1-.46.1h-.357a1.076,1.076,0,0,1-.46-.1,1.191,1.191,0,0,1-.375-.27,1.277,1.277,0,0,1-.254-.4,1.29,1.29,0,0,1-.093-.489v-3.618a1.294,1.294,0,0,1,.347-.89,1.207,1.207,0,0,1,.375-.27,1.09,1.09,0,0,1,.46-.1h.357a1.093,1.093,0,0,1,.46.1,1.218,1.218,0,0,1,.375.27,1.319,1.319,0,0,1,.254.4,1.3,1.3,0,0,1,.093.49Zm-1.1-3.568a.239.239,0,0,0-.066-.17.21.21,0,0,0-.159-.07h-.075a.214.214,0,0,0-.16.07.238.238,0,0,0-.065.17v3.518a.24.24,0,0,0,.065.17.21.21,0,0,0,.16.07h.075a.207.207,0,0,0,.159-.07.24.24,0,0,0,.066-.17Z"/></svg>