<?xml version="1.0" encoding="utf-8"?>
<!-- Generator: Adobe Illustrator 23.0.6, SVG Export Plug-In . SVG Version: 6.00 Build 0)  -->
<svg version="1.1" xmlns="http://www.w3.org/2000/svg" xmlns:xlink="http://www.w3.org/1999/xlink" x="0px" y="0px"
	 viewBox="0 0 595.3 841.9" style="enable-background:new 0 0 595.3 841.9;" xml:space="preserve">
<style type="text/css">
	.st0{display:none;}
	.st1{display:inline;}
	.st2{fill:#363636;}
	.st3{fill:#424242;enable-background:new    ;}
	.st4{fill:#1F1F1F;}
	.st5{fill:#303030;}
	.st6{fill:#757575;}
	.st7{fill:#D6D6D6;}
	.st8{fill:#424242;}
	.st9{fill:#EDEDED;}
	.st10{fill:#292929;}
	.st11{fill:#2E241C;}
	.st12{fill:#4A392D;}
	.st13{fill:#BD9374;}
	.st14{fill:#E6E6E6;}
	.st15{fill:#96755C;}
	.st16{fill:#D9A985;}
	.st17{fill:none;stroke:#AF1745;stroke-width:10.8353;stroke-miterlimit:10;enable-background:new    ;}
	.st18{fill:#252836;}
	.st19{fill:#2F3242;enable-background:new    ;}
	.st20{fill:#262730;}
	.st21{fill:#253575;}
	.st22{fill:#D1D3D6;}
	.st23{fill:#2F3242;}
	.st24{fill:#570018;enable-background:new    ;}
	.st25{fill:#4D3726;}
	.st26{fill:#634731;}
	.st27{opacity:0.3;fill:#6B2C15;}
	.st28{fill:#6B2C15;}
	.st29{fill:#E0E0E0;}
	.st30{fill:#BFBFBF;}
	.st31{opacity:0.24;fill:#FFFFFF;}
	.st32{fill:none;stroke:#AF1745;stroke-width:10.1373;stroke-miterlimit:10;enable-background:new    ;}
	.st33{fill:#0F0F0F;}
	.st34{opacity:0.24;fill:#292929;}
	.st35{fill:none;stroke:#E0E0E0;stroke-width:3.1807;stroke-miterlimit:10;}
	.st36{fill:#222221;}
	.st37{opacity:5.000000e-02;fill:#FFFFFF;}
</style>
<g id="Ebene_3" class="st0">
	<g class="st1">
		<g>
			<path class="st2" d="M901.4,588.6c3.7,46.3,23.3,77.2,33.1,100.7c7.9,19,33.1-45.1,33.1-100.7c0-55.6-14.8-100.7-33.1-100.7
				S897,533.2,901.4,588.6z"/>
			<ellipse class="st3" cx="939.6" cy="671.9" rx="32.1" ry="90.3"/>
			<ellipse class="st4" cx="939.6" cy="735.5" rx="39.2" ry="12.6"/>
			<ellipse class="st5" cx="936.9" cy="723" rx="34.4" ry="15.2"/>
			<path class="st3" d="M878.7,481.6c0.2,5.9,0.8,12.1,1.6,18.5c0.7,5,1.5,10.1,2.6,15.3c10.3,49.9,18.3,93.4,35.7,107.2
				c4.3,3.4,8.8,5.1,13.4,4.7c6.9-0.6,13.2-6,18.3-15c11.7-20.5,18-59.8,15-104.2c-1.7-24.4-5.9-46.7-11.8-65v0
				c-1.8-5.5-3.7-10.5-5.7-15.2c-8.5-11.4-25.9-20.1-47.3-23.6c-8.3,8.2-15.5,22.1-19.3,40.9v0C879.2,456,878.2,468.1,878.7,481.6z"
				/>
			<ellipse class="st6" cx="946.1" cy="757.9" rx="38.4" ry="26.5"/>
			<ellipse class="st7" cx="950.9" cy="767.8" rx="40.6" ry="22.2"/>
			<path class="st2" d="M778.8,552.6c-4.5,49.4,7.3,92.5,26.4,96.2s25.2-18.5,42.8-82.9c13.1-47.8-7.3-92.5-26.4-96.2
				S783.4,503.2,778.8,552.6z"/>
			<path class="st3" d="M789.3,616.1c3.5,5.6,7.6,9.4,12.4,10.8c6.2,1.8,12.9-0.4,19.6-6c17-14.3,26.2-49.2,44.9-90.6
				c4.1-9.1,13.5-25.3,16.1-33.2c2.2-6.6,4-12.8,5.3-18.5c3.3-14.4-4.8-23.3-5.9-33.2c-2.6-22.4-14.6-34.2-26.2-40.3
				c-20.4,3.6-37,11.4-46.1,21.4c-2.4,4.1-4.8,8.6-7.1,13.5c-7.9,16.9-14.7,38.2-19.3,62C773.8,550.9,776.9,595.8,789.3,616.1z"/>
			
				<ellipse transform="matrix(3.877627e-02 -0.9992 0.9992 3.877627e-02 108.1403 1447.6278)" class="st3" cx="806.5" cy="667.6" rx="90.3" ry="32.4"/>
			
				<ellipse transform="matrix(0.1645 -0.9864 0.9864 0.1645 -49.5526 1397.8766)" class="st4" cx="800.4" cy="728.2" rx="9.5" ry="40"/>
			
				<ellipse transform="matrix(0.1165 -0.9932 0.9932 0.1165 -5.13 1432.6393)" class="st5" cx="802.7" cy="719.2" rx="15.7" ry="36.7"/>
			<path class="st2" d="M775.7,604c1.9,12,8.5,21.9,14.7,22.1c2.3,0.1,4.3-1.2,5.7-3.5c-3.8-6.8-6.3-13.9-7-20.9
				c-0.5-5.4,0-10.4,1.5-14.7c-2.2-2.6-4.7-4.1-7.1-4.2C777.2,582.5,773.8,592,775.7,604z"/>
			<ellipse class="st6" cx="794" cy="739.2" rx="37.1" ry="20"/>
			<ellipse class="st7" cx="775.2" cy="749.3" rx="39.1" ry="22.2"/>
			<path class="st8" d="M934.2,433.2c0-30.5,5.3-54-41.8-56.3c-1.3-0.1-2.5-0.1-3.8-0.1c-1.4,0-2.8,0-4.2,0.1
				c-47.4,2.5-89.1,47.2-89.1,77.7c0,0.3,0,0.7,0,1v0c0.2,7.4,2.6,14.5,6.9,21c10.4,15.7,44.7,23.9,70.7,28.7c7.7,1.4,9.8-1,18.2-1
				c10,0,12.6-12.3,21.5-10.4c38.4,8,49.3,22,54.9,5.8c4.3-12.4-0.2-70.9-6.9-71.6C926.2,424.4,934.2,435,934.2,433.2z"/>
		</g>
		<path class="st9" d="M971.8,440.9c-3.9,30.2-83.2,11.5-106,28.8c-6.7,5.1-8.6-18.1-8.6-18.1s-1.1,22-8.2,18.1
			c-28.1-15.4-50.6,2.1-55.9-28.5c-2.6-15.2,4-54.7,4.9-58.4c7.3-29.2,15.6-48.7,10.5-57.9c-7.9-14.1-6-38.2-10.9-26.6
			c-25.6,60.6-71,70-76.9,38.6c-13.5-71.2,69.3-152.7,119.3-149.5c158.1,10,152,171.9,118.7,166.2c-20.4-3.5,11.5,55.4,9.8,72.3
			L971.8,440.9z"/>
		<ellipse class="st9" cx="857.4" cy="249.4" rx="62.6" ry="61.3"/>
		<g>
			<path class="st10" d="M843.1,283.4c-11.1,0.5-22.1,0.9-33.2,1.9c-0.5-4.4-0.8-8.7-1-13.2c10.9-0.7,21.9-1.2,32.8-2.3
				C842.1,274.3,842.8,278.8,843.1,283.4z"/>
		</g>
		<path class="st10" d="M831.5,184l-9.3,5.4c0,0,3,15.2,14.7,25.4c6.2-15.4,14.9-15.4,14.9-15.4s10.5-0.4,12.7,12.7
			c16.3-12.7,25.4-20.9,25.4-20.9L831.5,184z"/>
		<g>
			<path class="st11" d="M815.2,100.4c-13-16.3,30.4-36.1,30.4-36.1s-5,12.4,20.6,4.4c32.4-10.1,41.9,29,39.5,42.1
				c-1.5,8.6-2.5,19.5-2.9,26.1c-0.2,3.5-0.4,5.8-0.4,5.8s0-3.1-1-6c0,0,0,0,0,0c-0.9-2.6-2.5-5-5.5-5c-6.5,0-8.9,18.4-8.9,7.6
				c0-2,0-4.7-0.1-7.6c-0.5-12.4-3.1-29.7-16.7-27c-13.7,2.7-26.2,8.5-36.2,5.7l-13.1-5.9"/>
			<path class="st12" d="M820.9,104.4c-0.9,4.2-5,12.3-5,22.7c-4.5-24-1.2-20.5-0.7-26.8L820.9,104.4z"/>
			<path class="st13" d="M859.3,194.2c-22,2.8-43.3-15.9-43.2-62.5h0.1c-0.1-1.5-0.2-3-0.2-4.6c0-10.4,2.9-20.1,7.8-28c0,0,0,0,0,0
				c0,0,0,0,0,0c1.4,0.4,3.3,1,5.6,1.7c10,2.8,27.1,6.6,40.8,4c13.6-2.6,16.2,14.6,16.7,27c0.1,2.9,0.1,5.6,0.1,7.6
				c0,10.8,2.4-7.6,8.9-7.6c3,0,4.7,2.4,5.5,5c0,0,0,0,0,0c1,2.9,1,6,1,6s0.1-2.3,0.4-5.8C905.3,181.3,881.4,185.6,859.3,194.2z"/>
			<path class="st14" d="M856.7,175.9c-3.1,1.8-6.8,2.1-12.1,2.1s-9.5-2.9-9.5-6.5c0-3.6,9-0.6,14.1-1.9
				C866.7,165.4,878.4,163.1,856.7,175.9z"/>
			<path class="st15" d="M844.2,132.3c-16.3,0.2-23,0.2-22.2,6s15.5,9.3,23.8,8.7s28.9-5.2,29.9-10.9
				C876.7,130.5,850.8,132.2,844.2,132.3z"/>
		</g>
		<g>
			<g>
				<path class="st16" d="M894.2,115.7c3.6,13.8,11.9,32.1,25.7,28.5s16.6-7.1,13-20.9S909.5,59,895.7,62.6
					C881.9,66.3,890.6,101.9,894.2,115.7z"/>
				<path class="st16" d="M899.2,119.5c-1.1,14.2,0.8,34.2,15,35.3s18-1.3,19.1-15.5s-1.2-68.4-15.4-69.4
					C903.7,68.8,900.3,105.3,899.2,119.5z"/>
				<path class="st16" d="M913,139c-3.3,13.9-4.6,33.9,9.3,37.2c13.9,3.3,18,1.6,21.3-12.3c3.3-13.9,9.6-67.7-4.3-71
					C925.3,89.6,916.2,125.1,913,139z"/>
				<path class="st16" d="M871.6,189.3c34.5,38,65.3,48.5,68,23.3c4.3-40.5,13.8-60.3-0.4-91.1c0,0-29.3-22.8-62.5-17.1
					C843.6,110.1,836.6,150.9,871.6,189.3z M866,147c-5.8-7-4.7-17.4,2.4-23.3s17.5-5,23.3,2s4.7,17.4-2.4,23.3
					C882.2,154.8,871.8,153.9,866,147z"/>
			</g>
			<path class="st16" d="M889.9,207.8c17.1,11.5,49.6-1.9,49.6-1.9s49.1,48.9,45.4,90.5c-5.4,61.8-30.2,52.9-60.5,19.6
				C909.9,299.9,889.9,207.8,889.9,207.8z"/>
		</g>
		<g>
			<g>
				<path class="st16" d="M811.8,127c-2.5,9.1-8.1,21.1-17.2,18.6c-9.1-2.5-10.9-4.8-8.5-13.9c2.5-9.1,15.9-42.3,25-39.8
					C820.3,94.4,814.3,117.9,811.8,127z"/>
				<path class="st16" d="M808.5,129.5c0.6,9.4-0.7,22.6-10.2,23.2s-11.9-1-12.5-10.4c-0.6-9.4,1.2-45.2,10.6-45.8
					C805.9,96,807.9,120.1,808.5,129.5z"/>
				<path class="st16" d="M799.3,142.2c2.1,9.2,2.8,22.4-6.4,24.5c-9.2,2.1-11.9,0.9-14-8.3c-2.1-9.2-5.9-44.8,3.3-46.9
					C791.4,109.5,797.2,133.1,799.3,142.2z"/>
				<path class="st16" d="M827.6,120.8c-21.8-4-41.4,10.9-41.4,10.9c-9.6,20.3-12.8,48.5-0.8,60.2c12,11.7,22,3.6,45-15
					C857.1,155.4,849.4,124.8,827.6,120.8z M819,150.2c-4.7-3.9-5.3-10.8-1.4-15.4c3.9-4.6,10.8-5.1,15.4-1.2s5.3,10.8,1.4,15.4
					C830.5,153.6,823.6,154.1,819,150.2z"/>
			</g>
			<path class="st16" d="M816.1,186.8c-25.8,10-30.7,5.1-30.7,5.1s-54.7,70.3-61.3,94.5c-13.7,50.1,17.7,66.4,49,32.6
				C784,307.3,816.1,186.8,816.1,186.8z"/>
		</g>
		<path class="st17" d="M851.8,199.4c0,0-3.7,31.4,0,50.1s3.4,46.5,3.4,61.3c0,14.8-1.5,81-1.6,101.9s10.3,57.7,10.3,57.7"/>
		<polygon class="st8" points="845.6,202 840.1,214.7 845.6,224.3 863.9,220.9 862.3,208.2 858.3,201.4 		"/>
		<path class="st8" d="M846.8,216.5c0,0,16.6,69.8,5.2,114.7c-5.5,21.5-14.9,79.9-20.5,88.5c2.1,11.1,4.4,21.5,4.4,21.5l15.5-15.2
			c0,0,19.9-103.2,17-146.2c-2.3-33.5-9-61.4-9-61.4"/>
	</g>
</g>
<g id="Ebene_1">
	<g>
		<path class="st18" d="M323.2,575.8c2.2,47,18.5,78,26.2,101c6.1,18.3,29.7-43.1,31.8-98.6c2.2-56.8-17.2-106.6-25.6-107.2
			C339,469.9,320.4,517.7,323.2,575.8z"/>
		<path class="st19" d="M326.7,658.8c-1.2,48,9.9,86.3,24.7,86.6c14.7,0.4,28.1-36.8,30.1-84.1c2-48.8-8.7-90.2-24.2-91.2
			C341.7,569,327.9,609.3,326.7,658.8z"/>
		<path class="st4" d="M324.7,726.7c-0.3,12.9,10.6,23.3,24.3,23.3c13.6,0,24.9-10.2,25.4-23c0.5-12.9-10.2-23.5-24-23.7
			C336.5,703.2,325,713.7,324.7,726.7z"/>
		<path class="st20" d="M327.7,712.5c-0.2,7.9,10.8,14.3,24.5,14.4c13.6,0.1,24.8-6.1,25.1-13.9c0.3-7.8-10.5-14.4-24.2-14.5
			C339.3,698.2,327.8,704.5,327.7,712.5z"/>
		<path class="st19" d="M304.7,460.8c0.1,6.5,0.5,13.3,1.2,20.4c0.5,5.4,2.5,12.3,3.4,18c8.3,53.4,13.3,97.4,28.3,111.8
			c3.7,3.6,7.6,5.4,11.5,5.1c6-0.4,11.6-5.6,16.3-14.5c10.9-20.3,14.8-60.3,14-107c-0.5-26.2-0.4-50.8-5-71.4l0,0
			c-1.4-6.2-2.9-12-4.6-17.4c-7.4-13.5-23.2-24.8-43.1-30.5c-8,8.7-15.1,24.1-18.9,45.2l0,0C305.6,432.3,304.5,445.8,304.7,460.8z"
			/>
		<path class="st21" d="M324.3,741.4c-0.3,13.5,11.8,24.4,26.9,24.4c15,0,27.6-10.8,28.1-24.2c0.5-13.5-11.3-24.6-26.6-24.7
			C337.4,716.7,324.7,727.7,324.3,741.4z"/>
		<path class="st22" d="M326.1,750.5c-0.3,11.3,12.5,20.3,28.4,20.3c15.8-0.1,28.9-9.1,29.4-20.2c0.5-11.2-12-20.4-28-20.5
			C339.7,730,326.3,739.2,326.1,750.5z"/>
		<path class="st18" d="M215.6,535.6c-2.9,52.4,9.1,96.9,26.5,100.8c17.3,3.8,22.5-18.5,37.9-84.8c11.8-50.6-7.4-100.6-25.6-105.7
			C236.1,440.9,218.6,481.6,215.6,535.6z"/>
		<path class="st19" d="M226.9,602.8c3.3,5.9,7.2,9.8,11.6,11.3c5.7,2,11.7-0.3,17.7-5.9c15.2-14.4,23.3-50.5,40.2-93.9
			c3.8-9.7,12.4-26.9,14.8-35.3c2.1-7.1,3.7-13.8,5-20.1c3.1-15.8-4.3-26.1-5.3-37.3c-2.4-25.5-13.7-39.9-24.7-47.8
			c-19.5,2.9-35.5,10.9-44.1,22c-2.3,4.6-4.5,9.7-6.6,15.2c-7.3,19-13.3,42.8-17.1,69.2C210.8,533.6,214.9,581.5,226.9,602.8z"/>
		<path class="st19" d="M272.5,656.2c-1.2,48.7-14.8,86.9-30.4,86.7c-15.7-0.2-28.2-39.4-27.8-88.7c0.4-50.8,14.3-92.4,30.8-91.5
			C261.5,563.7,273.7,606.1,272.5,656.2z"/>
		<path class="st4" d="M211.4,709.8c-1.3,10.3,11.5,21,28.5,23.8c16.8,2.8,31.6-3.1,33-13.2c1.5-10.2-11-20.9-28-23.9
			C227.9,693.5,212.8,699.4,211.4,709.8z"/>
		<path class="st20" d="M210.6,696.4c-0.4,5.4,13.2,11.5,30.3,13.6c17,2,31-0.6,31.6-6c0.5-5.4-12.7-11.4-29.8-13.6
			C225.5,688.3,211,690.9,210.6,696.4z"/>
		<path class="st18" d="M214,590c2.1,12.5,8.4,22.8,14,23.1c2.1,0.1,3.9-1.2,5.2-3.5c-3.7-7-6.1-14.4-6.9-21.8
			c-0.6-5.7-0.2-10.9,1.1-15.4c-2.1-2.7-4.4-4.4-6.7-4.6C214.9,567.5,211.9,577.4,214,590z"/>
		<path class="st21" d="M200.7,725.6c0.3,10.6,15.4,18.9,33.5,18.6c17.9-0.3,32.3-8.9,32.1-19.4c-0.1-10.5-14.8-19-33-18.9
			C215,706.1,200.4,714.9,200.7,725.6z"/>
		<path class="st22" d="M182.4,735.5c0.4,11.8,16.3,21,35.4,20.6c18.9-0.3,34-9.9,33.9-21.5c-0.2-11.7-15.7-21.1-34.9-20.9
			C197.4,713.9,181.9,723.7,182.4,735.5z"/>
		<path class="st23" d="M228.1,390.4c0,0.4,0.6,36.3,0.6,36.7l0,0c0.4,9,2.8,17.6,6.8,25.6c9.8,19.1,30.2,48.9,53.4,55.2
			c6.8,1.9,17.8-1.8,25.2-1.5c8.7,0.3,12.5-31.3,20.3-28.8c33.1,10.6,39,26.9,44.2,8.7c4-13.9,4.8-82.4-1-83.6L228.1,390.4z"/>
	</g>
	<path class="st24" d="M416.4,299c-15.2,0.5-37.4-11.5-54.8-31.1c-2.6-2.9-3.1,0.6-2.3,8.3c1.2,11.9,5,31.4,9,51.6
		c6.1,30.9,12.7,63,11.6,70.6l-98,7.1l-2.1,0.2l-35.8-2.2l-16.1-1c-1.5-13-4.1-32-4.1-37.9c0-0.6,0.1-1,0.1-1.3
		c2.6-8.3,2.4-16.8,3.8-24.9c3.1-18.3,3.9-35,5.7-43.6c0.9-4.4,2-8.1,2.9-10.9c0.2-0.6,0.4-1.1,0.5-1.6c0.2-0.6,0.4-1.2,0.6-1.7
		c-0.3,0.7-0.7,1.6-1.2,2.6c-18.8,38.5-45.3,53.3-61,48.8c-6.9-2-11.7-7.6-12.9-16.7c-1.2-8.6-0.8-17.2,0.8-25.6
		c0.4-1.9,0.8-3.8,1.3-5.7c6.7-26.2,5.1-19.9,17.7-24.4c3.7-1.3,8.6-3.5,15.2-7.8c0.5-0.3,1.1-0.8,1.7-1.5
		c4.7-4.9,13.2-18.7,21.5-31.7c4.3-6.7,8.5-13.3,12.1-18.4c3.6-5.1,6.6-8.6,8.3-9.4c1.4-0.6,3.1-1.2,5-1.8
		c11.1-3.5,28.4-6.6,35.6-7.2c30.7-2.7,71.8,10,77.6,13.7c25.2,15.8,32,9.7,38.6,20.8c7.6,12.7,25.1,24.3,29,33.8
		C440.4,284.1,432.3,298.5,416.4,299z"/>
	
		<ellipse transform="matrix(5.502716e-02 -0.9985 0.9985 5.502716e-02 37.9666 521.3293)" class="st24" cx="294.4" cy="240.6" rx="57.4" ry="58.6"/>
	<g>
		<path class="st10" d="M271.9,271.6c-10.4-0.1-20.7-0.3-31.1,0.1c-0.2-4.1-0.3-8.2-0.3-12.4c10.2-0.1,20.6,0,30.8-0.5
			C271.4,263.1,271.9,267.3,271.9,271.6z"/>
	</g>
	<g>
		<path class="st13" d="M322.3,171.4c-0.4,0.9-0.8,2-1.3,3.1l-1.9,0.1c0,0.1,0,0.2-0.1,0.3c-0.7,2.5-19.8,17.1-21.1,17.1
			c-1.2-0.1-5.1-0.3-7.2-0.4c-1.9,0-12.8-8.9-16.1-13.6c-1.2-2.7-2.1-5.2-2.6-7.2c5.3,6.7,12.3,10.1,20.1,10.4
			C302.8,178.9,313.6,177.7,322.3,171.4z"/>
		<path class="st13" d="M323.6,168.4c0,0-0.5,1.3-1.3,3c-8.7,6.3-19.6,7.5-30.2,9.9c-7.7-0.3-14.8-3.7-20.1-10.4
			c-0.2-0.8-0.3-1.6-0.4-2.2c0,0,0,0,0,0l33.2-7.5L323.6,168.4z"/>
		<path class="st25" d="M269.4,88.1c-8.6-17,32.2-28.6,32.2-28.6s-6.5,6.5,17.1,7.3c28.8,0.9,31.5,33.1,27.3,44.9
			c-2.7,7.6-5.3,17.6-6.8,23.6c-0.8,3.2-1.3,5.3-1.3,5.3s0.5-2.9,0.1-5.7c0,0,0,0,0,0c-0.3-2.5-1.3-5-4-5.4
			c-5.6-1-10.7,15.6-8.9,5.6c0.3-1.9,0.8-4.3,1.1-7c1.6-11.5,2.2-27.8-10-27.5c-12.3,0.3-24.1,3.8-32.2-0.3l-10.4-7.5L269.4,88.1z"
			/>
		<path class="st26" d="M273.6,92.7c-1.5,3.7-6.3,10.5-8,20.2c0-22.8,2.3-19.1,3.8-24.8L273.6,92.7z"/>
		<path class="st13" d="M339.2,135.2c-0.8,6.2-1.9,11.5-3.4,16c-3.2,9.9-7.9,16.1-13.5,20.1c-8.7,6.3-19.6,7.5-30.2,9.9
			c-7.7-0.3-14.8-3.7-20.1-10.4c-6.9-8.7-10.6-23.1-8.5-43.5v-0.2c0,0,0,0,0,0c0.4-3.2,0.8-6.6,1.5-10.1h0.1
			c0.1-1.4,0.3-2.8,0.6-4.2c0.1-0.8,0.3-1.6,0.5-2.3c1.5-6.6,4.1-12.6,7.5-17.8c0,0,0-0.1,0-0.1c1-1.6,2.2-3.1,3.4-4.5c0,0,0,0,0,0
			c1.2,0.6,3.7,0.4,4.6,2.4c3.5,7.6,26.1,11.8,42.5,8.3c12-2.5,3.8,17.6,2.2,29.1c-0.4,2.7-0.8,5.2-1.1,7c-0.1,0.4-0.1,0.6-0.2,0.9
			c-0.1,0.6-0.1,1-0.2,1.3c-0.1,0.8,0,1,0.3,0.8c0.1-0.1,0.3-0.4,0.6-0.7c0.2-0.3,0.5-0.7,0.8-1.2c0.4-0.6,0.8-1.3,1.3-2
			c0.2-0.3,0.3-0.5,0.5-0.7c0.7-1,1.5-1.9,2.3-2.7c0.2-0.1,0.3-0.3,0.5-0.4c0.1-0.1,0.3-0.2,0.4-0.3c0.2-0.2,0.4-0.3,0.6-0.4
			c0.2-0.1,0.3-0.2,0.5-0.2c0.5-0.2,1-0.3,1.6-0.2c2.6,0.5,3.6,3,4,5.4c0,0,0,0,0,0c0.4,2.8-0.1,5.7-0.1,5.7
			S338.4,138.4,339.2,135.2z"/>
		<path class="st15" d="M290.4,118.3c-16.3-2.7-23-3.9-23.1,1.6c-0.1,4.1,7.8,8.4,15.3,10.7c2.5,0.8,7.3-3.3,9.4-3.1
			c2,0.2,2.2,4.9,5.2,4.9c9.7,0,22.6-1.2,24.1-5.1C323.1,122.4,297,119.4,290.4,118.3z"/>
		<path class="st27" d="M335.8,151.3c-3.2,9.9-7.9,16.1-13.5,20.1c-8.7,6.3-19.6,7.5-30.2,9.9c-7.7-0.3-14.8-3.7-20.1-10.4
			c-6.9-8.7-10.6-23.1-8.5-43.5c0,2.5,3.8,11.1,7.1,18.1c1.3,2.7,2.5,5.1,3.4,6.9c0.5,1,1.4,1.6,2.7,2c3.2,1,8.3,0.4,13.6-0.5
			c7.5-1.3,15.2-3.2,17.5-2.3c1.6,0.6,3.8,0.9,6,0.4c4.3-0.9,9.1-4.6,11.2-13.9C322.7,167.4,328,162.2,335.8,151.3z"/>
		<path class="st14" d="M294.7,160.9c-3,1.2-6.2,0.8-10.8,0c-4.5-0.8-7.8-4.1-7.2-7.4c0.6-3.3,7.9,0.8,12.5,0.5
			C305.1,152.8,315.6,152.5,294.7,160.9z"/>
		<path class="st28" d="M287.9,148c11.4-8.8,13.2,5.2,23.6,0.7s-1.9,17-24.1,8c-25.5,0.9-21.4-19.2-17.6-12.4
			C273.6,151.4,283.1,138.8,287.9,148z"/>
	</g>
	<g>
		<g>
			<path class="st16" d="M364.3,150.1c2.9,8,8.8,18.5,16.8,15.7s9.6-5.1,6.7-13.1s-17.3-37.1-25.3-34.3
				C354.4,121.2,361.4,142,364.3,150.1z"/>
			<path class="st16" d="M367.5,152.1c0.1,8.5,2.2,20.4,10.8,20.3c8.5-0.1,10.7-1.7,10.6-10.2c-0.1-8.5-4.2-40.7-12.8-40.6
				S367.4,143.6,367.5,152.1z"/>
			<path class="st16" d="M376.7,163c-1.2,8.5-1,20.5,7.5,21.7c8.5,1.2,10.8,0,12.1-8.4c1.2-8.5,2.2-40.9-6.2-42.1
				C381.5,132.9,377.9,154.6,376.7,163z"/>
			<path class="st16" d="M397,165.9C397,165.9,397,165.9,397,165.9c-0.9-4.7-2.6-9.5-5.5-14.7c0,0-1.4-0.9-3.8-2.1
				c-0.5-0.2-1-0.5-1.5-0.7c-1.6-0.8-3.6-1.6-5.8-2.3c-3.6-1.3-8-2.4-12.7-2.8c-1.8-0.2-3.7-0.3-5.7-0.2c-2.8,0.1-5.7,0.5-8.6,1.2
				c-3.7,1-6.8,2.7-9.2,4.9c-0.3,0.2-0.5,0.5-0.8,0.8c-0.6,0.8-1,1.7-1,2.7c0,1.1,0.4,2.1,1.1,2.8c0,0,0.1,0.1,0.1,0.1
				c-0.3-0.1-0.7-0.2-1-0.2l-3.4,1.7c-0.4,1.2-0.7,2.5-0.8,3.8c0,0.2-0.1,0.4-0.1,0.7v0c-1,9.8,4.1,22.2,16.4,33.6
				c4.2,3.9,8.2,7.2,12.1,9.9c16.6,11.9,29.1,12.9,29.7,1.1c0-0.2,0-0.4,0-0.6C396.7,188.4,399.1,177.2,397,165.9z M363.1,170.2
				c-3.9,3.9-10.2,3.9-14,0c-2.2-2.2-3.1-5.2-2.7-8c0.1-0.8,0.3-1.7,0.6-2.5c0-1-0.4-1.9-1-2.7c0.3,0.1,0.6,0.1,0.8,0.1
				c0.8,0,1.6-0.2,2.2-0.6c0.1-0.1,0.2-0.2,0.3-0.3c0.3-0.3,0.7-0.6,1-0.9c3.9-2.9,9.5-2.7,13,0.9
				C367.1,160.1,367,166.3,363.1,170.2z"/>
			<path class="st16" d="M347,159.7c-0.3,0.8-0.5,1.6-0.6,2.5c-0.8,1.3-2.2,2.1-3.8,2.1c-1.8,0-3.4-1.1-4.1-2.7v0
				c-0.1-0.2-0.2-0.4-0.2-0.7c-0.1-0.3-0.1-0.7-0.1-1.1c0-1,0.4-2,1-2.7c0.1-0.2,0.3-0.4,0.5-0.5c0.8-0.7,1.8-1.2,2.9-1.2
				c0,0,0.1,0,0.1,0c0.3,0,0.6,0,0.8,0.1c0.1,0,0.3,0.1,0.4,0.1c0.8,0.2,1.5,0.7,2.1,1.3c0,0,0.1,0.1,0.1,0.1
				C346.6,157.7,347,158.6,347,159.7z"/>
			<path class="st16" d="M350.4,155.3c0.6-0.7,0.9-1.7,0.9-2.7c0-2.5-2-4.4-4.4-4.4c-1,0-2,0.3-2.7,0.9c-0.3,0.2-0.5,0.5-0.8,0.8
				c-0.6,0.8-1,1.7-1,2.7c0,1.1,0.4,2.1,1.1,2.8c0,0,0.1,0.1,0.1,0.1c0.5,0.6,1.3,1.1,2.1,1.3c0.1,0,0.2,0.1,0.4,0.1
				c0.3,0.1,0.6,0.1,0.8,0.1c0.8,0,1.6-0.2,2.2-0.6L350.4,155.3z"/>
		</g>
		<path class="st16" d="M356.9,180.5c-8.7-15,30.4-2.7,32.1,3.8c10.2,38.2,18.8,35.2,28.9,61c17.7,45.3-6.2,57.1-29.8,28.7
			C376,259.5,371.5,205.6,356.9,180.5z"/>
	</g>
	<g>
		<g>
			<path class="st16" d="M215.2,161.2c2.3,7,3.8,17-2.9,18.5c-6.7,1.5-8.8,0.6-11.1-6.4c-2.3-7-7.8-33.9-1.1-35.4
				C206.8,136.4,212.9,154.2,215.2,161.2z"/>
			<path class="st16" d="M210.1,168.3c2.8,6.6,5.2,16.5-1.2,19.2s-8.6,2.2-11.4-4.5c-2.8-6.6-10.5-32.9-4.1-35.6
				C199.8,144.7,207.3,161.6,210.1,168.3z"/>
			<path class="st16" d="M215.6,141.2c2.3-6.7,7.2-15.7,14.5-14.9c7.2,0.8,8.7,2.2,6.3,8.9c-2.3,6.7-14.2,31.5-21.5,30.7
				C207.7,165,213.3,147.9,215.6,141.2z"/>
			<path class="st16" d="M205.8,183.9c2,6.6,3.2,16.4-3.6,19c-6.8,2.5-8.9,1.9-10.9-4.7c-2-6.6-6.6-32.8,0.2-35.3
				C198.3,160.3,203.8,177.2,205.8,183.9z"/>
			<path class="st16" d="M244.6,170.9C244.6,170.9,244.6,170.9,244.6,170.9c-0.5-1.9-1.1-3.7-1.8-5.3c-0.1-0.2-0.2-0.5-0.3-0.7l0,0
				c-2.9-6.8-6.4-10.6-7.2-6c-0.1,0.7-0.2,1.6-0.2,2.7c0.1,6.2-0.1,11.5-0.5,16c-0.3,3.7-0.8,6.8-1.5,9.4l0,0
				c-1.1,4.7-2.6,7.9-4.4,9.8c-0.3,0.3-0.6,0.6-1,0.9c-5.8,4.6-13.9-1.5-21-9.3c0,0,0-0.1-0.1-0.1c-1.1-1.3-2.2-2.6-3.3-3.9
				c-2.7-3.4-5.2-6.8-7-9.5c0,0,0,0,0,0c-1.3-1.9-2.3-3.5-2.9-4.5c0,0,0,0,0,0c-0.5-0.8-0.8-1.2-0.8-1.2c-1.9,9.5-2.5,22-0.2,32.2
				l0,0c1.1,5,3,9.5,5.8,12.8c0.3,0.4,0.6,0.7,0.9,1c0.2,0.2,0.3,0.3,0.5,0.5c0,0,0,0,0,0c1.2,1.1,2.5,2,4,2.7
				c5.4,2.5,11.1,2.4,16.7,0.2c3.6-1.4,7.2-3.7,10.6-6.9c0,0,0.1-0.1,0.1-0.1c4.8-4.4,9.2-10.4,12.9-17.7c0.8-1.5,1.3-3.2,1.7-4.9
				C247,183.3,246.2,176.6,244.6,170.9z"/>
			<path class="st29" d="M250.3,147.9c-0.1,0.9-0.3,1.7-0.7,2.5l0.1,0l-21.7,48.2l-0.3,0c1.5-5.6-4.6-11.7-13.8-13.8
				c-2.4-0.6-4.9-0.8-7.1-0.7c-2.1,0.1-4.1,0.4-5.9,1c-3.4,1.1-6,3-7.1,5.6l7.8-46.3c0-0.6,0-1.1,0.1-1.7c0.4-3.3,2.6-6.1,6-8.3
				c2.7-1.7,6.1-3,9.9-3.6c3.2-0.5,6.8-0.7,10.4-0.3C241.4,131.9,251.4,139.7,250.3,147.9z"/>
			<g>
				<path class="st30" d="M250.3,147.9c-0.1,0.6-0.2,1.1-0.4,1.7c0-7.7-9.7-14.7-22.4-16.1c-3.7-0.4-7.3-0.3-10.5,0.3
					c-3.7,0.6-7.1,1.9-9.7,3.5c-2.8,1.8-4.8,4-5.7,6.6c0-0.4,0-0.8,0.1-1.2c0.4-3.3,2.6-6.1,6-8.3c0,0,0,0,0,0
					c0.3-0.2,0.6-0.4,1-0.6c0.4-0.2,0.8-0.4,1.3-0.7c0.3-0.2,0.7-0.3,1-0.4c0.3-0.1,0.6-0.3,1-0.4c0.1-0.1,0.2-0.1,0.4-0.1
					c0.3-0.1,0.7-0.2,1-0.3c0.1,0,0.2-0.1,0.4-0.1c0.4-0.1,0.7-0.2,1.1-0.3c0.4-0.1,0.9-0.2,1.4-0.3c0.5-0.1,0.9-0.2,1.4-0.3
					c3.2-0.5,6.8-0.7,10.4-0.3C241.4,131.9,251.4,139.7,250.3,147.9z"/>
				<path class="st30" d="M201.1,147.3C201.1,147.2,201.1,147.2,201.1,147.3l-7.4,43.4c0,0,0,0,0,0L201.1,147.3z"/>
			</g>
			<path class="st16" d="M243.8,168.7c2,5.7,0,11-3.9,11.8c-3.8,0.8-3.9-2.6-6-8.2s-4.7-11.4-0.8-12.3
				C237.1,159.1,241.8,163,243.8,168.7z"/>
			<path class="st30" d="M227.7,198.6c0,0.1-0.1,0.2-0.1,0.3c-1.8,5.7-10.9,8.5-20.3,6.4c-7.3-1.7-12.6-5.9-13.8-10.4
				c-0.1-0.5-0.2-1-0.2-1.5l0.5-2.8c2.2-5.4,11-8,20.1-5.9C223.1,186.9,229.2,193,227.7,198.6z"/>
			<path class="st31" d="M216.9,133.7l-10.2,50.4c-2.1,0.1-4.1,0.4-5.9,1l6.4-47.8C209.9,135.6,213.2,134.3,216.9,133.7z"/>
		</g>
		<path class="st16" d="M232.6,198.9c0,0,0,0.4-0.1,1.2c-0.2,1.9-0.7,6-1.3,11.4c0,0,0,0.1,0,0.1c-0.4,3.6-5.3,27.6-5.8,32.2
			c-3.3,26.2-4.6,45.3-9.3,56.8c-0.4,1.1-0.9,1.9-1.3,2.5c-16.2,21.8-36.2,22.2-43.1,4.4c-1.3-3.4-2.2-7.4-2.4-12.1
			c-0.1-1.5-0.1-3-0.1-4.6c0-2.1,0.2-4.4,0.5-6.7c0.9-7.4,6.2-13.7,12.4-24.7c5.5-9.8,11.7-23.2,16.1-44.5c0.1-0.3,0.1-0.6,0.2-0.9
			c0.2-0.7,0.3-1.5,0.4-2.2c1.1-6.1,9-5.7,9.1-5.7c0,0,1.5,1,6.6-0.1c0.2,0,0.4-0.1,0.5-0.1c0,0,0,0,0,0c1.3-0.3,2.8-0.7,4.5-1.3
			c1.7-0.6,3.5-1.3,5.6-2.2c0.4-0.2,0.9-0.4,1.3-0.6l0,0C228.4,201,230.4,200,232.6,198.9z"/>
	</g>
	<path class="st32" d="M291.8,193.5c0,0-5.1,29.1-2.6,46.8s0.8,43.6,0,57.4c-0.8,13.8-5.1,88.7-6.2,108.3"/>
	<path class="st33" d="M227.8,402.4c-4-1.9-2.6,13.6,1.6,17.5c2.6,2.4,134.5-2.1,150.5-9.8c0.8-0.4,3.3-18.9-0.4-16.8
		C365.5,401,234.1,405.4,227.8,402.4z"/>
	<path class="st34" d="M236.2,283.8l3.1,28.2l-11.8,26.3c3.1-18.3,3.9-35,5.7-43.6C234.2,290.3,235.3,286.6,236.2,283.8z"/>
	<path class="st34" d="M416.4,299c-15.2,0.5-37.4-11.5-54.8-31.1c-2.6-2.9-3.1,0.6-2.3,8.3l-10.4-12l2.1-10.1l4.7,10.8
		c0,0,2.1-10.1,4.6-15.2c1.7-3.4,6.3,1.4,22.4,17.1c2.9,2.8-23.8-60-6.6-57.2c7,1.2,34.6,86.8,40.3,89.2L416.4,299z"/>
	<path class="st34" d="M169.3,313c0.3,6.5,4.5,16,5.8,18.9c-6.9-2-11.7-7.6-12.9-16.7c-1.1-8.6-0.8-17.2,0.8-25.6
		c0.4-1.9,0.8-3.8,1.3-5.7c6.7-26.2,5.1-19.9,17.7-24.4c5.5-9.8,11.7-23.2,16.1-44.5c0.5-0.1,0.9-0.1,1.1,0.1
		c0.2,0.2,0.3,0.3,0.5,0.5c0,0,0,0,0,0c2.8,3.4,2.2,13.9-0.8,34.7c-0.5,3.3-1,6.9-1.6,10.7c-3.6,23.5-19.7,37.9-25.7,46.6
		C170.2,309.7,169.3,311.5,169.3,313z"/>
	<path class="st34" d="M380.1,182.9c-0.5,1.1-1.2,2-2.2,2.8c-5.5,4.3-15.3-1.3-21.9-7.1c-3.8-3.3-6.5-6.7-6.9-8.4
		c3.8,3.9,10.1,3.9,14,0c3.9-3.9,4-10.1,0.2-14c1.6,0.6,3.1,1.5,4.6,2.5c0.2,0.2,0.5,0.3,0.7,0.5c2.3,1.7,4.5,3.9,6.4,6.2
		c0.4,0.5,0.8,1,1.2,1.6c1.2,1.7,2.2,3.5,3,5.3c0.9,2,1.5,4.1,1.6,5.9C381,180,380.7,181.5,380.1,182.9z"/>
	<path class="st35" d="M296.4,419.8h-17.8c-3,0-5.4-2.4-5.4-5.4V409c0-3,2.4-5.4,5.4-5.4h17.8c3,0,5.4,2.4,5.4,5.4v5.4
		C301.8,417.4,299.4,419.8,296.4,419.8z"/>
	<line class="st35" x1="287.5" y1="411.7" x2="303.1" y2="411.5"/>
	<path class="st36" d="M298.4,268.3c1-28.4,0.9-51.9,0.1-56.2l2-0.3l1.3-12.2l-3.4-6.5l-15.7,0.5l-1.8,11.3l4.8,9.1l1.8-0.3
		c-1.4,15.9-2.1,63.1-6.7,102.8c-2.4,20.6-10.2,65.5-15.4,81.1c1.5,10.4,3.3,20.3,3.3,20.3l15-13.6
		C283.8,404.2,297.1,308.2,298.4,268.3z"/>
	
		<ellipse transform="matrix(0.2058 -0.9786 0.9786 0.2058 -267.8226 619.069)" class="st37" cx="247.5" cy="474.5" rx="38.4" ry="18.8"/>
	<ellipse transform="matrix(0.994 -0.109 0.109 0.994 -49.5979 41.5502)" class="st37" cx="355.3" cy="474.5" rx="18.8" ry="38.4"/>
	<path class="st34" d="M379.8,398.4l-98,7.1l-2.1,0.2l-35.8-2.2l-16.1-1c-1.5-13-4.1-32-4.1-37.9c10.1,10.5,29.3,25.9,42.5,33
		c4.7,0.4,10,0.8,15.8,1.4c31.5,3.2,52.9,3.7,71-7.5c17.6-10.9,13.6-42.4,15.3-63.7C374.4,358.6,381,390.8,379.8,398.4z"/>
	
		<ellipse transform="matrix(0.9673 -0.2538 0.2538 0.9673 -61.1543 95.7233)" class="st34" cx="340.4" cy="284.9" rx="13.8" ry="3.5"/>
	
		<ellipse transform="matrix(0.1006 -0.9949 0.9949 0.1006 -57.1644 511.3772)" class="st34" cx="254.3" cy="287.3" rx="3.5" ry="13.8"/>
	<path class="st10" d="M327.8,187.8c0,0-8.9,7.2-24.8,18.2c-0.7-6.3-3.6-9.5-6.3-11c-2.6-1.5-4.9-1.5-4.9-1.5s-2.5-0.1-5.9,2.2
		c-2.7,1.8-5.9,5.2-8.8,11.4c-10.4-10.1-12.4-24.5-12.4-24.5l8.9-4.5l1-0.1c0,0,0,0,0.1,0.1c3.3,4.6,14.3,13.5,16.1,13.6
		c2.1,0.1,6,0.3,7.2,0.4c1.3,0,20.4-14.5,21.1-17.1c0-0.1,0.1-0.2,0.1-0.3l1.9-0.1h0.2L327.8,187.8z"/>
</g>
</svg>
