<svg xmlns="http://www.w3.org/2000/svg" xmlns:xlink="http://www.w3.org/1999/xlink" viewBox="0 0 447.489 731.509"><defs><style>.a{fill:url(#a);}.b{fill:#8f8f8f;}.c{fill:#999;}.c,.i{isolation:isolate;}.d{fill:#757575;}.e{fill:#d6d6d6;}.f{fill:#f2eeed;}.g{fill:#fcf8f7;}.h,.m{fill:none;}.h{stroke:#2b2b2b;stroke-miterlimit:10;stroke-width:21.008px;}.i{fill:#af1745;}.j,.l,.t{fill:#292929;}.j{opacity:0.24;}.k{fill:#7b4e49;}.m{stroke:#292929;stroke-linecap:round;stroke-linejoin:round;stroke-width:6.91px;}.n{fill:#5c3a37;}.o{fill:#1d0d05;}.p{fill:#f5f1f0;}.q{fill:#d4d0cf;}.r{fill:#b5b2b1;}.s{fill:#fff;}.t{opacity:0.05;}</style><radialGradient id="a" cx="223.745" cy="358.63" r="276.94" gradientTransform="translate(-84.103 -358.63) scale(1.376 2)" gradientUnits="userSpaceOnUse"><stop offset="0" stop-opacity="0.2"/><stop offset="0.5" stop-opacity="0"/></radialGradient></defs><title>chef</title><ellipse class="a" cx="223.745" cy="358.63" rx="223.745" ry="356.297"/><ellipse class="b" cx="172.798" cy="562.568" rx="46.439" ry="93.855"/><ellipse class="c" cx="171.986" cy="620.473" rx="42.119" ry="84.2" transform="translate(-43.882 13.87) rotate(-4.096)"/><ellipse class="b" cx="174.75" cy="668.087" rx="34.889" ry="14.122"/><ellipse class="b" cx="171.986" cy="679.798" rx="39.766" ry="11.711"/><path class="c" d="M246.534,471.338c0,47.772-18.735,88.3-44.7,102.551a42.34,42.34,0,0,1-20.531,5.459c-11,0-21.353-4.5-30.434-12.452-20.69-18.113-34.787-54.109-34.787-95.558,0-59.658,29.2-108.018,65.221-108.018S246.534,411.68,246.534,471.338Z"/><path class="b" d="M197.151,583.937c0,13.434-12.446,24.332-27.794,24.332s-27.787-10.9-27.787-24.332a21.951,21.951,0,0,1,3.911-12.453c9.08,7.954,19.439,12.453,30.434,12.453a42.333,42.333,0,0,0,20.531-5.46A21.354,21.354,0,0,1,197.151,583.937Z"/><ellipse class="d" cx="165.396" cy="700.662" rx="39.037" ry="24.69"/><ellipse class="e" cx="160.554" cy="709.864" rx="41.174" ry="20.682"/><ellipse class="b" cx="279.001" cy="566.267" rx="83.862" ry="44.366" transform="translate(-287.619 844.55) rotate(-89.927)"/><path class="c" d="M305.784,571.484a32.5,32.5,0,0,1-17.9,9.17c-8.666,1.279-17.539-1.285-26.059-6.938-21.782-14.457-41.221-49.119-48.781-91.446-10.518-58.884,5.936-110.3,36.756-114.845s64.323,39.5,74.841,98.384C332.88,511.923,324.574,553.455,305.784,571.484Z"/><ellipse class="c" cx="279.42" cy="623.009" rx="84.229" ry="40.567" transform="translate(-371.267 829.945) rotate(-83.486)"/><ellipse class="b" cx="273.569" cy="684.307" rx="40.573" ry="8.849" transform="translate(-29.04 12.337) rotate(-2.453)"/><ellipse class="b" cx="275.22" cy="670.035" rx="40.574" ry="14.615" transform="translate(-27.833 12.12) rotate(-2.401)"/><path class="b" d="M291.964,610.736c-14.774.642-27.317-9.723-28.022-23.144a22.5,22.5,0,0,1,3.918-13.876c8.521,5.653,17.394,8.217,26.06,6.938a32.5,32.5,0,0,0,17.9-9.17,22.956,22.956,0,0,1,5.618,13.793C318.141,598.7,306.739,610.1,291.964,610.736Z"/><ellipse class="d" cx="283.07" cy="701.501" rx="37.694" ry="23.845" transform="translate(-27.093 11.551) rotate(-2.231)"/><ellipse class="e" cx="287.133" cy="710.778" rx="39.664" ry="20.686" transform="translate(-28.099 12.008) rotate(-2.284)"/><path class="f" d="M174.61,256.266c-7.49,50.93-29.03,89.942-48.111,87.136s-28.477-46.368-20.987-97.3,14.12-73.3,48.111-87.136C280.858,125.713,182.1,205.336,174.61,256.266Z"/><path class="f" d="M354.855,316.647c-4.989,10.448-14.166,15.749-27.849,13.3-33.681-6.04-37.593-22.75-45.084-73.68C143.9,149.241,253.41,141.308,291.846,160.242s41.939,33.24,59.174,85.863q2.25,6.872,3.911,13.5v.021C360.826,283.166,361.006,303.8,354.855,316.647Z"/><path class="f" d="M331.029,365.46c-1.55,16.02-1.91,31.21-4.98,44.27a.142.142,0,0,0-.02.06c-.26,1.07-.54,2.13-.83,3.18a.292.292,0,0,0-.02.09c-6.56,23.25-23.37,38.92-74.47,38.92-9.77,0-20.77-.56-33.2-1.77-76.72-7.41-95.82-27.98-98.49-56.21a83.96,83.96,0,0,1-.34-8.77c.07-10.72,1.74-22.36,3.09-34.67.19-1.74.37-3.49.54-5.26q.15-1.545.36-3.06v-.01c3.55-26.94,19.3-49.83,41.74-64.57,2.28-1.49,4.64-2.91,7.06-4.23a113.684,113.684,0,0,1,113.75,3.86q2.19,1.365,4.29,2.84c17.88,12.52,31.2,29.98,37.63,49.83.04.12.08.24.12.35a87.529,87.529,0,0,1,3.95,20.54A86.06,86.06,0,0,1,331.029,365.46Z"/><ellipse class="f" cx="228.267" cy="226.177" rx="85.924" ry="76.935"/><path class="g" d="M195.8,11.024c-.276.028-.546.063-.815.09l.062-.428C195.3,10.8,195.548,10.914,195.8,11.024Z"/><path class="g" d="M186.171,71.968l-.152-.021.145-.967A3.18,3.18,0,0,0,186.171,71.968Z"/><path class="g" d="M275.523,84.137l-.145.988-.159-.02A3.272,3.272,0,0,0,275.523,84.137Z"/><path class="g" d="M195.8,11.024c-.276.028-.546.063-.815.09l.062-.428C195.3,10.8,195.548,10.914,195.8,11.024Z"/><path class="h" d="M231.7,169.06c0,15.774,13.1,60.564,11.35,91.4S232.3,275.365,241.3,312.9s12.419,87.387-2.849,146.706"/><circle class="i" cx="230.32" cy="183.5" r="4.464"/><circle class="i" cx="238.93" cy="207.882" r="4.464"/><circle class="i" cx="242.012" cy="229.193" r="4.464"/><circle class="i" cx="243.712" cy="252.773" r="4.464"/><circle class="i" cx="243.712" cy="321.114" r="4.464"/><circle class="i" cx="246.794" cy="341.38" r="4.464"/><circle class="i" cx="249.259" cy="364.599" r="4.464"/><circle class="i" cx="248.867" cy="387.818" r="4.464"/><circle class="i" cx="246.868" cy="413.11" r="4.464"/><circle class="i" cx="243.095" cy="437.352" r="4.464"/><path class="j" d="M331.209,350.85c-4.03-.39-10.75-2.91-21.4-9.47-63.18-38.89-128.61-8.18-152.66,4.46-26.93,14.16-34.04,10.24-35.38,4.72-.91-3.79.89-8.33.89-8.33h.01c1.89.52,3.71.96,5.48,1.3,15.04,2.98,25.63.1,27.94-2.15,2.59-2.51,2.59-8.87,2.59-8.87,13.3-11.49,22.28-25.92,39.81-34.15,7.83-3.68,17.38-6.12,29.78-6.5,10.11-.31,21.4,1.94,32.62,5.5a242.7,242.7,0,0,1,34.94,14.62v.01a324.514,324.514,0,0,1,31.18,17.95c.08.12.17.25.25.37A87.529,87.529,0,0,1,331.209,350.85Z"/><path class="k" d="M308.348,277.658a21.714,21.714,0,0,1-.422,4.851,12.637,12.637,0,0,1-2.335,4.506l-.007.007c-7.1,8.949-25.306,10.2-25.306,10.2a283.9,283.9,0,0,1-62.084,19.426c-45.761,8.279-83.859,29.832-101.784,7.2a54.228,54.228,0,0,1,.711-9.516c4.423-26.039,28.935-33.2,59.285-33.447q4.178-.032,8.493.1c3.082.1,14.284-1.963,17.318-3.068,2.343-.85,11.119-2.571,13.427-3.352,8.742-2.965,21.222-5.058,32.7-7.442,4.105-.857,8.079-1.749,11.707-2.737a61.444,61.444,0,0,0,15.279-6.821c14.966-8.622,23.352-6.065,27.358-4.789.238.076.27.422.4.636.1.166.207.339.3.518.055.09.111.18.159.277.083.152.173.311.249.47.255.483.5.981.725,1.5.18.408.353.823.519,1.251l.1.27c.09.248.187.5.277.753A60.091,60.091,0,0,1,308.348,277.658Z"/><path class="j" d="M308.3,277.644a61.194,61.194,0,0,0-2.875-19.2c-.09-.256-.187-.5-.277-.753l-.1-.27c-.166-.428-.339-.843-.519-1.251-.228-.518-.47-1.016-.725-1.5-.076-.159-.166-.318-.249-.47-.048-.1-.1-.187-.159-.277-.1-.179-.2-.352-.3-.518-.131-.214-.263-.428-.4-.636-1.679,1.313.035,2.758,0,7.243s-25.562,10.3-42.637,4.367c0,0,3.178,2.571,8.057,6.206l-19.764-3.469c-11.478,2.384-23.958,4.477-32.7,7.442-2.308.781-11.084,2.5-13.427,3.352-3.034,1.105-14.236,3.165-17.318,3.068q-4.311-.125-8.493-.1c7.788,2.509,45.326,14.968,39.031,20.4-7.021,6.053-88.862,25.983-98.316,13.047a54.228,54.228,0,0,0-.711,9.516c17.925,22.631,56.023,1.078,101.784-7.2a283.9,283.9,0,0,0,62.084-19.426s18.209-1.25,25.306-10.2l.007-.007c.953-.643,1.748-2.046,2.335-4.506a21.714,21.714,0,0,0,.422-4.851Z"/><path class="k" d="M257.1,317.207c-38.07-18-47.793-25.583-63.265-37.241l-.581-.435c-.864-.65-2.847-.581-5.259-.035a38.4,38.4,0,0,0-9.115,3.476,12.216,12.216,0,0,1-3.87-2.529,77.1,77.1,0,0,1-1.907-8.424c-.539-2.813-1.05-5.217-1.762-6.074-5.729-6.966,2.343-12.2,6.862-13.932,13.572-5.19,31.572-2,61.9,9.038,43.695,15.908,102.382,26.972,100.466,49.137-.16,1.854,1.507,5.215,1.763,6.618C345.6,334.766,296.1,335.637,257.1,317.207Z"/><path class="j" d="M257.1,317.207c-38.07-18-47.793-25.583-63.265-37.241l-.581-.435c-.864-.65-2.847-.581-5.259-.035a38.4,38.4,0,0,0-9.115,3.476,12.216,12.216,0,0,1-3.87-2.529,77.1,77.1,0,0,1-1.907-8.424,15.994,15.994,0,0,1,3.6-6.074c6.723-13.883,14.684-1.9,18.92,6.7,0,0,0,.007.014.021.2.3,49.2,31.444,76.917,37.607,49.9,11.095,62.93,13.406,69.772,6.537C345.6,334.766,296.1,335.637,257.1,317.207Z"/><path class="i" d="M312.425,551.435c-.007.007-.021.014-.028.021-5.5,4.035-10.193,6.378-12.19,6.191-11.312-1.057-18.312,11.7-34.628,19.453l-.007.007a59.665,59.665,0,0,1-21.975,5.556,83.126,83.126,0,0,1-50.156-12.128l-.007-.006c-16.164-9.689-25.362-21.029-32.106-17.767a21.771,21.771,0,0,1-4.223,1.52c-23.087,5.653-51.787-28.236-49.789-50.246l7.041-106.792c.173-1.88,1.742-9.744,4.665-3.241,2.667,28.222,21.768,48.8,98.488,56.209,80.507,7.775,101.508-10.821,108.515-40.426.007-.021.014-.034.021-.055,1.064-3.531,2.639-5.522,6.461,2.266l-3.549,7.824,3.589,3.747,7.568,83.17C342.085,523.772,325.12,542.106,312.425,551.435Z"/><path class="j" d="M193.434,570.529c-16.164-9.689-25.362-21.029-32.106-17.767a21.771,21.771,0,0,1-4.223,1.52l-.006-.007c12.031-14.588,3.464-85.562,3.464-85.562C179.2,495.533,162.288,533.654,193.434,570.529Z"/><path class="j" d="M312.4,551.456c-5.5,4.035-10.193,6.378-12.19,6.191-11.312-1.057-18.312,11.7-34.628,19.453,32.652-32.88,27.656-103.383,32.652-108.387s-1.513,93.82,14.014,82.846C312.294,551.525,312.349,551.49,312.4,551.456Z"/><path class="l" d="M113.863,402.7c11.657,28.458,33.627,53.233,97.267,54.657s85.887.161,107.607-21.382c16.948-16.809,6.438-22.911,13.77-23.973,3.755-.543,3.586,4.485,1.223,9.232-12.48,25.062-29.029,47.484-123.861,41.588-62.492-3.886-87.564-26.733-97.334-47.316-8.635-18.191,1.822-18.257,1.822-18.257Z"/><path class="m" d="M124.214,430.506c-17.114,11.678-19.932,19.933-14.5,28.792S124.214,430.506,124.214,430.506Z"/><path class="m" d="M127.783,430.506c1.062,18.121-.579,58.992,8.4,50.738S127.783,430.506,127.783,430.506Z"/><path class="j" d="M325.175,413.062c-6.558,23.246-23.371,38.919-74.467,38.919-9.765,0-20.773-.566-33.2-1.769C140.79,442.8,121.689,422.225,119.022,394a84.867,84.867,0,0,1-.346-8.77C201.148,468.713,310.562,430.506,325.175,413.062Z"/><path class="l" d="M354.855,316.647c-9.419,3.476-5.176,5.832-12.556,3.476s-1.907-13.248-1.907-13.248c8-5.839,18.216,1.1,14.539-47.253C360.826,283.166,361.006,303.8,354.855,316.647Z"/><path class="l" d="M108.182,229.193c-.406,48.13-.153,78.872,10.484,78.944s12.655,22.734,4.86,21.932-20.284-6.418-20.591-53.682S108.182,229.193,108.182,229.193Z"/><path class="l" d="M182.6,153.988c-27.685,3.292-39.964,11.569-48.58,15.665s-17.143,17.308-11.3,13.933c11.689-6.749,57.193-21.4,64.007-22.005S182.6,153.988,182.6,153.988Z"/><path class="l" d="M275.523,155.886c22.417,1.813,39.728,16.416,36.385,15.782s-30.572-10.042-36.689-10.042S275.523,155.886,275.523,155.886Z"/><path class="l" d="M182.549,158.288s9.427,39.573,29.829,49.594c1.849-9.774,13.478-15.357,13.478-15.357S198.943,183.752,182.549,158.288Z"/><path class="l" d="M275.523,155.886c-.3,40.488-10.962,46.641-11.771,47.108-12.008-15.039-18.45-11.789-18.266-11.864C256.812,177.348,275.523,155.886,275.523,155.886Z"/><path class="k" d="M275.908,106.655c-2.408,56.606-16.773,62.527-42.7,64.331s-48.853-24.075-51.2-57.8,16.773-62.527,42.7-64.33S277.346,72.879,275.908,106.655Z"/><path class="n" d="M211.8,110.228c14.257-.842,45.91,10.083,55.841,3.851s8.114,4.024,6.126,6.56-34.3,17.291-54.11,7.608S204.616,110.653,211.8,110.228Z"/><path class="o" d="M181.2,107.848c7.517,0,19.35,33.046,27.1,37.091s18.9-3.371,26.477-5.057,23.122-3.469,28.815-3.034c7.926.6,15.44,14.088,11.62,23.4s-22.661,38.894-49.363,32.281-48.04-32.419-47.555-50.283S176.75,107.848,181.2,107.848Z"/><ellipse class="n" cx="246.476" cy="158.288" rx="12.259" ry="6.051" transform="translate(-16.527 29.312) rotate(-6.586)"/><path class="g" d="M281.383,59.344,278.948,75.7a206.883,206.883,0,0,1-33.167-2.3c-25.946-3.787-47.546-11.264-55.9-18.6l1.179-7.912c10.779,4.616,26,8.714,43.116,11.209C252.632,60.789,269.522,61.079,281.383,59.344Z"/><path class="g" d="M284.752,36.65l-.132.906q-.765-.352-1.57-.7C283.629,36.789,284.194,36.726,284.752,36.65Z"/><path class="g" d="M297.408,53.422a1.647,1.647,0,0,1-.223.1c.048-.049.09-.1.132-.145A.876.876,0,0,1,297.408,53.422Z"/><path class="g" d="M283.05,36.851c.579-.062,1.144-.125,1.7-.2l-.132.906Q283.855,37.2,283.05,36.851Z"/><path class="g" d="M297.408,53.422a1.647,1.647,0,0,1-.223.1c.048-.049.09-.1.132-.145A.876.876,0,0,1,297.408,53.422Z"/><path class="p" d="M278.948,75.7,275.822,96.7a3.249,3.249,0,0,1-.307.968c-2.811,5.853-22.932,7.836-46.583,4.388S186.6,90.939,185.614,84.526a3.18,3.18,0,0,1-.007-.988V83.51L189.884,54.8c8.351,7.339,29.951,14.816,55.9,18.6A206.883,206.883,0,0,0,278.948,75.7Z"/><path class="p" d="M306.826,36.692c0,7.622-3.907,14.132-9.418,16.73a.876.876,0,0,0-.091-.041c-.042.048-.084.1-.132.145-2.5,2.716-8.086,4.692-15.8,5.818-11.861,1.735-28.751,1.445-47.2-1.25-17.114-2.5-32.337-6.593-43.116-11.209q-1.863-.788-3.537-1.6a42.262,42.262,0,0,1-9.1-5.653c-4.207-3.165-7.012-8.825-7.012-15.279,0-7.457,3.746-13.849,9.077-16.558,4.883-7.6,31.98-10.089,63.71-5.459,31.053,4.533,55.883,14.346,59.218,22.894A20.321,20.321,0,0,1,306.826,36.692Z"/><path class="q" d="M281.383,59.344,278.948,75.7a206.883,206.883,0,0,1-33.167-2.3c-25.946-3.787-47.546-11.264-55.9-18.6l1.179-7.912c10.779,4.616,26,8.714,43.116,11.209C252.632,60.789,269.522,61.079,281.383,59.344Z"/><path class="r" d="M281.445,59.337l-5.5,36.564-.126.822a3.272,3.272,0,0,1-.3.94c-1.067,2.218-4.618,3.884-9.914,4.906l4.054-26.957,2.309-15.369c3.4-.18,6.558-.477,9.419-.9C281.4,59.344,281.424,59.337,281.445,59.337Z"/><path class="j" d="M200.824,48.818c-6.921-14.536,2.533-25.836,7.6-29.888S196.265,31.088,200.824,48.818Z"/><path class="l" d="M211.521,245.512c-11.995.523-23.919,1.011-35.885,2.052-.539-4.75-.873-9.446-1.077-14.221,11.793-.774,23.685-1.321,35.442-2.484C210.43,235.754,211.252,240.6,211.521,245.512Z"/><path class="s" d="M181.833,239.623a.993.993,0,0,1,.262.365,1.393,1.393,0,0,1,.118.486c.043.514.1,1.177.144,1.691a1.456,1.456,0,0,1-.052.585,1.33,1.33,0,0,1-.25.493,1.269,1.269,0,0,1-.409.353,1.159,1.159,0,0,1-.528.166c-.5.046-1.124.115-1.638.147-.129.007-.162-.01-.178-.152-.3-2.561-.483-5.195-.57-7.772,0-.143.025-.166.153-.181.512-.059,1.135-.1,1.639-.151a1.293,1.293,0,0,1,1.006.341,1.232,1.232,0,0,1,.319.441,1.411,1.411,0,0,1,.141.575c.021.278.038.811.062,1.132a1.522,1.522,0,0,1-.243.9,1.4,1.4,0,0,1-.389.359A1,1,0,0,1,181.833,239.623Zm-1.131-2.456a.237.237,0,0,0-.088-.193.225.225,0,0,0-.2-.065c-.094,0-.245.024-.349.03.029.658.061,1.313.1,1.97.1-.013.255-.019.35-.032a.24.24,0,0,0,.187-.1.254.254,0,0,0,.067-.207C180.752,238.119,180.726,237.618,180.7,237.167Zm.2,3.231a.245.245,0,0,0-.095-.193.233.233,0,0,0-.2-.065c-.095,0-.246.025-.35.03.064.8.141,1.6.22,2.4.1-.013.255-.019.348-.033a.224.224,0,0,0,.182-.1.244.244,0,0,0,.058-.207C181.01,241.635,180.953,240.993,180.9,240.4Z"/><path class="s" d="M185.87,242.175c.022.181.073.8.079.983s-.009.182-.139.2c-.755.077-1.577.139-2.331.194-.131.01-.158-.011-.172-.153-.224-2.173-.386-4.43-.494-6.612-.007-.143.016-.168.148-.181.765-.077,1.6-.16,2.368-.208.132-.008.148-.009.166.17s.052.8.055.981-.016.174-.145.195c-.4.062-.839.064-1.246.115.029.438.044.884.086,1.321.28-.006.829-.1,1.048-.084s.152-.021.189.169a6.717,6.717,0,0,1,.07.982c-.01.193.05.151-.164.2s-.768.051-1.044.093c.025.52.078,1.046.121,1.565.405-.019.839-.091,1.235-.093C185.83,242,185.847,241.994,185.87,242.175Z"/><path class="s" d="M189.475,241.905c.021.182.066.805.07.985s-.012.182-.142.2c-.761.071-1.59.123-2.351.172-.131.009-.157-.013-.169-.156-.184-2.182-.336-4.447-.447-6.635-.007-.143.016-.168.149-.181.768-.073,1.609-.141,2.381-.183.133-.008.149-.009.167.17s.051.8.053.982-.018.176-.147.194c-.4.058-.844.058-1.253.1.025.439.044.886.084,1.323.28,0,.832-.086,1.051-.072s.154-.019.189.171a6.751,6.751,0,0,1,.062.985c-.012.194.049.152-.166.2s-.773.045-1.05.085c.022.522.07,1.05.106,1.571.408-.015.845-.081,1.244-.079C189.436,241.734,189.454,241.724,189.475,241.905Z"/><path class="s" d="M192.824,236.034c.018.18.047.8.047.978s-.02.174-.152.191c-.4.05-.857.044-1.273.087.025.439.039.887.075,1.326.284,0,.844-.08,1.065-.065s.157-.019.191.173a7.081,7.081,0,0,1,.055.988c-.011.194.049.153-.169.2s-.785.036-1.065.076c.036.919.14,1.875.177,2.782,0,.142.013.156-.163.179s-.757.06-.933.059-.174-.014-.185-.157c-.176-2.194-.3-4.463-.408-6.659-.007-.143.017-.167.151-.178.779-.062,1.634-.12,2.417-.149C192.788,235.856,192.806,235.854,192.824,236.034Z"/><path class="t" d="M302.329,241.591c-2.6,3.684-11.872-18.182-8.837-17.949s5.369,3.035,6.3,2.8-.348-6.355,3.154-6.355S309.772,231.047,302.329,241.591Z"/><path class="t" d="M165.917,245.429c5.164-.843,9.706-27.784,2.647-18.456-10.893-8.005-6.92,5.216-7.987,8.516S162.626,245.966,165.917,245.429Z"/></svg>