<?xml version="1.0" encoding="utf-8"?>
<!-- Generator: Adobe Illustrator 23.0.6, SVG Export Plug-In . SVG Version: 6.00 Build 0)  -->
<svg version="1.1" xmlns="http://www.w3.org/2000/svg" xmlns:xlink="http://www.w3.org/1999/xlink" x="0px" y="0px"
	 viewBox="0 0 595.3 841.9" style="enable-background:new 0 0 595.3 841.9;" xml:space="preserve">
<style type="text/css">
	.st0{display:none;}
	.st1{display:inline;}
	
		.st2{fill-rule:evenodd;clip-rule:evenodd;fill:#7B4E49;stroke:#000000;stroke-width:1.28;stroke-linecap:round;stroke-linejoin:round;stroke-miterlimit:1.5;}
	.st3{fill-rule:evenodd;clip-rule:evenodd;fill:#7B4E49;}
	.st4{clip-path:url(#SVGID_2_);}
	.st5{fill-rule:evenodd;clip-rule:evenodd;fill:#8D2525;}
	.st6{fill-rule:evenodd;clip-rule:evenodd;fill:#FFFFFF;}
	.st7{fill-rule:evenodd;clip-rule:evenodd;fill:#5C3A37;}
	.st8{fill-rule:evenodd;clip-rule:evenodd;fill:#452B29;}
	.st9{fill-rule:evenodd;clip-rule:evenodd;fill:#1D0D05;}
	.st10{fill-rule:evenodd;clip-rule:evenodd;fill:#27180D;fill-opacity:0.54;}
	.st11{clip-path:url(#SVGID_4_);}
	.st12{fill-rule:evenodd;clip-rule:evenodd;fill:#361709;}
	.st13{fill-rule:evenodd;clip-rule:evenodd;}
	.st14{fill-rule:evenodd;clip-rule:evenodd;fill:#8C8C8C;}
	.st15{clip-path:url(#SVGID_6_);}
	.st16{fill:#8F8F8F;}
	.st17{fill:#999999;enable-background:new    ;}
	.st18{fill:#757575;}
	.st19{fill:#D6D6D6;}
	.st20{fill:#FCF8F7;}
	.st21{fill:none;stroke:#2B2B2B;stroke-width:21.0082;stroke-miterlimit:10;}
	.st22{fill:#AF1745;enable-background:new    ;}
	.st23{opacity:0.24;fill:#292929;}
	.st24{fill:#7B4E49;}
	.st25{fill:#292929;}
	.st26{fill:none;stroke:#292929;stroke-width:6.9105;stroke-linecap:round;stroke-linejoin:round;stroke-miterlimit:10;}
	.st27{fill:#5C3A37;}
	.st28{fill:#1D0D05;}
	.st29{fill:#D4D0CF;}
	.st30{fill:#B5B2B1;}
	.st31{fill:#FFFFFF;}
</style>
<g id="Ebene_2" class="st0">
	<g transform="matrix(1,0,0,1,-834,-1011)" class="st1">
		<g transform="matrix(1,0,0,1,-480.513,364.328)">
			<g>
				<g transform="matrix(0.836579,0,0,0.836579,548.401,419.113)">
					<g transform="matrix(3.10222,0,0,3.10222,-1824.32,-3714.17)">
						<path class="st2" d="M753.5,1404.6c-3.9-5.4-7.7-12.8-14.2-14.2c-10.7-2.4-39.2-2.4-49.9,0c-6.5,1.5-10.3,8.8-14.2,14.2
							c-5.2,7.1-16.4,21.3-16.8,28.4c-0.4,6.7,7.6,13.3,14.2,14.2c16.3,2.4,67.2,2.4,83.5,0c6.6-1,14.6-7.5,14.2-14.2
							C769.9,1425.9,758.7,1411.7,753.5,1404.6z"/>
					</g>
					<g transform="matrix(2.54577,0,0,2.54577,-1814.8,-2962.69)">
						<g transform="matrix(0.46954,-0,-0,0.46954,1072.59,1270.62)">
							<g transform="matrix(1,0,0,0.99929,0,0)">
								
									<image style="overflow:visible;enable-background:new    ;" width="321" height="572" id="_Image1" xlink:href="C55511CD29BCA1E4.png"  transform="matrix(0.8402 0 0 0.8396 -567.1394 353.236)">
								</image>
							</g>
						</g>
					</g>
					<g transform="matrix(2.07562,0,0,2.07562,-1269.06,-2273.21)">
						<g id="Arm-" transform="matrix(0.575896,-0,-0,0.575896,1052.61,1226.25)">
							<g transform="matrix(1,0,0,0.999998,0,0)">
								
									<image style="overflow:visible;enable-background:new    ;" width="361" height="209" id="_Image2" xlink:href="C55511CD29BCA1E5.png"  transform="matrix(0.8402 0 0 0.8402 -588.9836 273.4637)">
								</image>
							</g>
						</g>
					</g>
					<g transform="matrix(2.07562,0,0,2.07562,-1269.06,-2273.21)">
						<g transform="matrix(0.575896,-0,-0,0.575896,1052.61,1226.25)">
							<g transform="matrix(1,0,0,0.996154,0,0)">
								
									<image style="overflow:visible;enable-background:new    ;" width="375" height="218" id="_Image3" xlink:href="C55511CD29BCA1E3.png"  transform="matrix(0.8402 0 0 0.837 -596.5454 267.1898)">
								</image>
							</g>
						</g>
					</g>
					<g transform="matrix(1.19534,-0,-0,1.19534,915.767,272.012)">
						<g transform="matrix(0.997872,0,0,0.99871,0,0)">
							
								<image style="overflow:visible;enable-background:new    ;" width="139" height="161" id="_Image4" xlink:href="C55511CD29BCA1EC.png"  transform="matrix(0.8384 0 0 0.8391 -496.5324 218.5172)">
							</image>
						</g>
					</g>
					<g transform="matrix(1.09552,0,0,1.09552,-1707.19,-483.061)">
						<g transform="matrix(1,0,0,1,637.001,-34.4048)">
							<path class="st3" d="M1278.4,771.7c35.4,0,72.9,16.8,83.8,62.4c3.9,16.5-6.2,55.1-6.2,72.1c0,20.8-8.2,33.3-14,47.6
								c-12.1,30-31.1,50.8-63.7,50.8c-34.5,0-52-17.5-63.1-51.1c-4.4-13.3-13.6-29.1-13.6-47.3c0-17.1-13.3-55-9.4-71.5
								C1203,789.2,1243.1,771.7,1278.4,771.7z"/>
							<g>
								<defs>
									<path id="SVGID_1_" d="M1278.4,771.7c35.4,0,72.9,16.8,83.8,62.4c3.9,16.5-6.2,55.1-6.2,72.1c0,20.8-8.2,33.3-14,47.6
										c-12.1,30-31.1,50.8-63.7,50.8c-34.5,0-52-17.5-63.1-51.1c-4.4-13.3-13.6-29.1-13.6-47.3c0-17.1-13.3-55-9.4-71.5
										C1203,789.2,1243.1,771.7,1278.4,771.7z"/>
								</defs>
								<clipPath id="SVGID_2_">
									<use xlink:href="#SVGID_1_"  style="overflow:visible;"/>
								</clipPath>
								<g class="st4">
									<g transform="matrix(1,0,0,1,6.97625,47.6017)">
										<path class="st5" d="M1247.7,895c0,0,1.7-14,24.4-13c22.6,1,26.3,13,26.3,13H1247.7z"/>
									</g>
									<g transform="matrix(1,0,0,1,6.97625,47.6017)">
										<path class="st6" d="M1245.2,893.9l55.9,0.1l0.1,2.1l-56.3-0.1L1245.2,893.9z"/>
									</g>
									<g transform="matrix(1,0,0,1,-3.02375,37.6017)">
										<path class="st7" d="M1179.8,844.2c0,0,70.5,31.9,79.8,101.4c7.9,59.7,0.8,66.8,0.8,66.8
											C1222.4,958,1191.2,902.5,1179.8,844.2z"/>
									</g>
									<g transform="matrix(1.09112,-0,-0,1.09112,1757.27,723.644)">
										<g transform="matrix(0.995531,0,0,0.994643,0,0)">
											
												<image style="overflow:visible;enable-background:new    ;" width="173" height="28" id="_Image6" xlink:href="C55511CD29BCA1EF.png"  transform="matrix(0.8365 0 0 0.8357 -511.7303 75.8146)">
											</image>
										</g>
									</g>
									<g transform="matrix(-1,0,0,1,3929.54,37.6017)">
										<path class="st7" d="M2547.4,844.2c0,0,70.5,31.9,79.8,101.4c7.9,59.7,0.8,66.8,0.8,66.8
											C2590,958,2558.8,902.5,2547.4,844.2z"/>
									</g>
									<g transform="matrix(-1,0,0,1,3945.35,54.8926)">
										<path class="st8" d="M2550,841.4c0,0,70.5,31.9,79.8,101.4c7.9,59.7,0.8,66.8,0.8,66.8
											C2592.5,955.2,2561.3,899.8,2550,841.4z"/>
									</g>
									<g transform="matrix(1,0,0,1,-22.057,54.8926)">
										<path class="st8" d="M1182.8,841.4c0,0,70.5,31.9,79.8,101.4c7.9,59.7,0.8,66.8,0.8,66.8
											C1225.4,955.2,1194.2,899.8,1182.8,841.4z"/>
									</g>
									<g>
										<g transform="matrix(1.09112,-0,-0,1.09112,1757.27,723.644)">
											<g transform="matrix(0.997723,0,0,0.991759,0,0)">
												
													<image style="overflow:visible;enable-background:new    ;" width="123" height="105" id="_Image7" xlink:href="C55511CD29BCA1ED.png"  transform="matrix(0.8383 0 0 0.8333 -489.8787 170.066)">
												</image>
											</g>
										</g>
										<g transform="matrix(1,0,0,0.756666,6.97625,277.428)">
											<path class="st9" d="M1229.6,901.7c0.1-53.3,42.4-48.3,42.4-48.3s42.2-5,42.4,48.3c0.1,36.6-0.4,54-0.7,61.2
												c-0.2,2.8-1.7,5.1-3.7,5.9c-9.6,3.7-35.8,13.7-37.9,14.5c-0.1,0-0.2,0-0.3,0c-2.1-0.8-28.3-10.8-37.9-14.5
												c-2.1-0.7-3.5-3.1-3.7-5.9C1230,955.7,1229.5,938.3,1229.6,901.7z M1272,870.3c0.3-0.5,0.4,0.5,0.4,0.5
												c1.2,1.4,4.2,2.7,11.4,1.9c13-1.5,12.9,16.7,12.4,19.7c-0.5,3-5.2,19.4-17.1,6.2c0,0-1.9-5.2,0.8-7.5
												c2.7-2.3,8.4-3.1,8.4-3.1s4.9-0.7,2.1-7.6l-18.4-0.3l-18.4,0.3c-2.8,6.9,2.1,7.6,2.1,7.6s5.7,0.8,8.4,3.1
												c2.7,2.3,0.8,7.5,0.8,7.5c-11.8,13.2-16.6-3.2-17.1-6.2c-0.5-3-0.6-21.3,12.4-19.7c7.3,0.8,10.2-0.5,11.4-1.9
												C1271.7,870.8,1271.8,869.8,1272,870.3z"/>
										</g>
									</g>
									<g>
										<g transform="matrix(1.09112,-0,-0,1.09112,1757.27,723.644)">
											<g transform="matrix(0.988199,0,0,0.997971,0,0)">
												
													<image style="overflow:visible;enable-background:new    ;" width="62" height="170" id="_Image8" xlink:href="C55511CD29BCA1E2.png"  transform="matrix(0.8303 0 0 0.8385 -412.6467 44.0517)">
												</image>
											</g>
										</g>
										<g transform="matrix(-1.14075,0,0,1.14075,3706.2,-112.143)">
											<path class="st10" d="M2059.5,906.2c0,0-5.4-29.6-5.6-63.4c0-5,14.7-51.2,34.3-60l4.4,29.6c0,0-7,2.6-5.3,26
												c1.8,23.3-7.2,10-14.2,19.7C2066,867.8,2059.5,906.2,2059.5,906.2z"/>
										</g>
									</g>
									<g>
										<g transform="matrix(1.09112,-0,-0,1.09112,1757.27,723.644)">
											<g transform="matrix(0.986179,0,0,0.997971,0,0)">
												
													<image style="overflow:visible;enable-background:new    ;" width="64" height="170" id="_Image9" xlink:href="C55511CD29BCA1E6.png"  transform="matrix(0.8286 0 0 0.8385 -518.4218 44.0517)">
												</image>
											</g>
										</g>
										<g transform="matrix(1.14075,0,0,1.14075,217.471,-112.143)">
											<path class="st10" d="M861,906.2c0,0-5.4-29.6-5.6-63.4c0-5,14.7-51.2,34.3-60l4.4,29.6c0,0-7,2.6-5.3,26
												c1.8,23.3-7.2,10-14.2,19.7C867.5,867.8,861,906.2,861,906.2z"/>
										</g>
									</g>
								</g>
							</g>
						</g>
						<g transform="matrix(1.09112,-0,-0,1.09112,2394.27,689.239)">
							<g transform="matrix(0.991935,0,0,0.997805,0,0)">
								
									<image style="overflow:visible;enable-background:new    ;" width="71" height="151" id="_Image10" xlink:href="C55511CD29BCA1E7.png"  transform="matrix(0.8334 0 0 0.8384 -534.3392 49.197)">
								</image>
							</g>
						</g>
						<g transform="matrix(1,0,0,1,1049.97,-25.9969)">
							<path class="st9" d="M791,898.7c0,0-16.6-24.8-16.8-58.7c0-5,14.7-51.2,34.3-60l4.4,29.6c0,0-7,2.6-5.3,26
								c1.8,23.3-7.2,10-14.2,19.7C786.3,865,791,898.7,791,898.7z"/>
						</g>
						<g transform="matrix(1.09112,-0,-0,1.09112,2394.27,689.239)">
							<g transform="matrix(0.991935,0,0,0.997805,0,0)">
								
									<image style="overflow:visible;enable-background:new    ;" width="71" height="151" id="_Image11" xlink:href="854B92A708436643.png"  transform="matrix(0.8334 0 0 0.8384 -402.306 49.197)">
								</image>
							</g>
						</g>
						<g transform="matrix(-1,0,0,1,4148.45,-25.9969)">
							<path class="st9" d="M2158.3,898.7c0,0-16.6-24.8-16.8-58.7c0-1.9,2.2-10.1,6.1-19.8c6.1-15.4,16.2-34.8,28.2-40.2l4.4,29.6
								c0,0-7,2.6-5.3,26c1.8,23.3-7.2,10-14.2,19.7C2153.7,865,2158.3,898.7,2158.3,898.7z"/>
							<g>
								<defs>
									<path id="SVGID_3_" d="M2158.3,898.7c0,0-16.6-24.8-16.8-58.7c0-1.9,2.2-10.1,6.1-19.8c6.1-15.4,16.2-34.8,28.2-40.2
										l4.4,29.6c0,0-7,2.6-5.3,26c1.8,23.3-7.2,10-14.2,19.7C2153.7,865,2158.3,898.7,2158.3,898.7z"/>
								</defs>
								<clipPath id="SVGID_4_">
									<use xlink:href="#SVGID_3_"  style="overflow:visible;"/>
								</clipPath>
								<g class="st11">
									<g transform="matrix(1,0,0,1,-709.432,29.1938)">
										<path class="st12" d="M2868.1,748.3c2.3-2.2,4.8-3.9,7.3-5.1l4.4,29.6c0,0-7,2.6-5.3,26c1.8,23.3-7.2,10-14.2,19.7
											c-7,9.7-2.4,43.4-2.4,43.4s-5-7.5-9.5-19.8c-0.2-9.2,0.5-19.1,3.9-23.7c7-9.7,16,3.6,14.2-19.7c-1.8-23.3,5.3-26,5.3-26
											L2868.1,748.3z"/>
									</g>
								</g>
							</g>
						</g>
						<g transform="matrix(1,0,0,1,-133.725,3.19689)">
							<g transform="matrix(0.18056,0.673859,-0.527751,0.141411,2850.4,-704.54)">
								<path class="st13" d="M1848.6,2052.4c-0.4-3.4-2.7-5.9-5.4-5.9c-2.7,0-5,2.5-5.4,5.9c-2.4,15.5-4.6,33-4.6,43.7
									c0,5.5,4.5,10,10,10c5.5,0,10-4.5,10-10C1853.2,2085.4,1851,2067.9,1848.6,2052.4z"/>
							</g>
							<g transform="matrix(-0.18056,0.673859,0.527751,0.141411,2614.73,-704.54)">
								<path class="st13" d="M2355.8-364.7c-0.4-3.4-2.7-5.9-5.4-5.9c-2.7,0-5,2.5-5.4,5.9c-2.4,15.5-4.6,33-4.6,43.7
									c0,5.5,4.5,10,10,10c5.5,0,10-4.5,10-10C2360.4-331.7,2358.2-349.2,2355.8-364.7z"/>
							</g>
							<g transform="matrix(1.09112,-0,-0,1.09112,2527.99,686.042)">
								<g transform="matrix(0.998737,0,0,0.999299,0,0)">
									
										<image style="overflow:visible;enable-background:new    ;" width="115" height="27" id="_Image13" xlink:href="854B92A708436641.png"  transform="matrix(0.8391 0 0 0.8396 -488.8916 141.0512)">
									</image>
								</g>
							</g>
							<g transform="matrix(0.369933,-0.929058,1.57612,0.627579,448.167,2248.9)">
								<path class="st13" d="M1870.5,569.8c-4.7,0-8.6,2.5-8.6,5.5c0,3,3.8,5.5,8.6,5.5c-1.4-1.3-2.6-3.3-2.6-5.5
									S1869.1,571.1,1870.5,569.8z"/>
							</g>
						</g>
					</g>
					<g transform="matrix(1.19534,-0,-0,1.19534,915.767,272.012)">
						<g transform="matrix(0.985439,0,0,0.993631,0,0)">
							
								<image style="overflow:visible;enable-background:new    ;" width="40" height="91" id="_Image14" xlink:href="854B92A708436647.png"  transform="matrix(0.828 0 0 0.8349 -504.2094 361.5379)">
							</image>
						</g>
					</g>
					<g transform="matrix(1.19534,-0,-0,1.19534,915.767,272.012)">
						<g transform="matrix(0.989415,0,0,0.999755,0,0)">
							
								<image style="overflow:visible;enable-background:new    ;" width="42" height="90" id="_Image15" xlink:href="854B92A708436642.png"  transform="matrix(0.8313 0 0 0.84 -405.1766 361.1756)">
							</image>
						</g>
					</g>
				</g>
				<g transform="matrix(0.220213,0,0,0.21023,1110.59,307.934)">
					<g transform="matrix(1,0,0,1,897.803,145.729)">
						<path class="st14" d="M-2231.5,1470.8c0,0-77.4,61.5-58.6,307.3c0,0-11.2,48.7,325.2,40.1c0,0,305.8-5.1,325.2-40.1
							c0,0,26.9-55.4,25-102.6c0,0,8.2,47-337.5-72.2C-2297.9,1484.1-2231.5,1470.8-2231.5,1470.8z"/>
						<g>
							<defs>
								<path id="SVGID_5_" d="M-2231.5,1470.8c0,0-77.4,61.5-58.6,307.3c0,0-11.2,48.7,325.2,40.1c0,0,305.8-5.1,325.2-40.1
									c0,0,26.9-55.4,25-102.6c0,0,8.2,47-337.5-72.2C-2297.9,1484.1-2231.5,1470.8-2231.5,1470.8z"/>
							</defs>
							<clipPath id="SVGID_6_">
								<use xlink:href="#SVGID_5_"  style="overflow:visible;"/>
							</clipPath>
							<g class="st15">
								<g transform="matrix(4.54106,-0,-0,4.7567,28.2431,1465.55)">
									<g transform="matrix(0.998883,0,0,0.99082,0,0)">
										
											<image style="overflow:visible;enable-background:new    ;" width="178" height="88" id="_Image17" xlink:href="854B92A70843665D.png"  transform="matrix(0.8393 0 0 0.8325 -511.1632 1.1086)">
										</image>
									</g>
								</g>
							</g>
						</g>
					</g>
					<g transform="matrix(4.54106,-0,-0,4.7567,926.047,1611.28)">
						<g transform="matrix(0.996452,0,0,0.996345,0,0)">
							
								<image style="overflow:visible;enable-background:new    ;" width="179" height="105" id="_Image18" xlink:href="854B92A70843665E.png"  transform="matrix(0.8372 0 0 0.8371 -511.3995 -1.122983e-03)">
							</image>
						</g>
					</g>
				</g>
				<g transform="matrix(1,-0,-0,1,1314.51,646.672)">
					<g transform="matrix(0.997903,0,0,0.998852,0,0)">
						
							<image style="overflow:visible;enable-background:new    ;" width="289" height="138" id="_Image19" xlink:href="854B92A70843665F.png"  transform="matrix(0.8384 0 0 0.8392 -560.0284 473.1093)">
						</image>
					</g>
				</g>
			</g>
		</g>
	</g>
</g>
<g id="Ebene_1" xmlns:serif="http://www.serif.com/">
	<g>
		<ellipse class="st16" cx="239.3" cy="618.3" rx="46.4" ry="93.9"/>
		
			<ellipse transform="matrix(0.9974 -7.143141e-02 7.143141e-02 0.9974 -47.6902 18.7606)" class="st17" cx="238.5" cy="676.2" rx="42.1" ry="84.2"/>
		<ellipse class="st16" cx="241.2" cy="723.8" rx="34.9" ry="14.1"/>
		<ellipse class="st16" cx="238.5" cy="735.5" rx="39.8" ry="11.7"/>
		<path class="st17" d="M313,527c0,47.8-18.7,88.3-44.7,102.6c-6.5,3.5-13.4,5.5-20.5,5.5c-11,0-21.4-4.5-30.4-12.5
			c-20.7-18.1-34.8-54.1-34.8-95.6c0-59.7,29.2-108,65.2-108C283.8,419,313,467.4,313,527z"/>
		<path class="st16" d="M263.6,639.6c0,13.4-12.4,24.3-27.8,24.3c-15.3,0-27.8-10.9-27.8-24.3c0-4.6,1.4-8.8,3.9-12.5
			c9.1,8,19.4,12.5,30.4,12.5c7.2,0,14.1-1.9,20.5-5.5C263.4,635.9,263.6,637.7,263.6,639.6z"/>
		<ellipse class="st18" cx="231.9" cy="756.4" rx="39" ry="24.7"/>
		<ellipse class="st19" cx="227" cy="765.6" rx="41.2" ry="20.7"/>
	</g>
	<g>
		
			<ellipse transform="matrix(1.267572e-03 -1 1 1.267572e-03 -276.9225 966.6413)" class="st16" cx="345.5" cy="622" rx="83.9" ry="44.4"/>
		<path class="st17" d="M372.3,627.2c-5.2,5-11.2,8.2-17.9,9.2c-8.7,1.3-17.5-1.3-26.1-6.9c-21.8-14.5-41.2-49.1-48.8-91.4
			c-10.5-58.9,5.9-110.3,36.8-114.8c30.8-4.5,64.3,39.5,74.8,98.4C399.4,567.6,391,609.1,372.3,627.2z"/>
		
			<ellipse transform="matrix(0.1134 -0.9935 0.9935 0.1134 -367.6674 945.3599)" class="st17" cx="345.9" cy="678.7" rx="84.2" ry="40.6"/>
		
			<ellipse transform="matrix(0.9991 -4.280327e-02 4.280327e-02 0.9991 -31.3626 15.233)" class="st16" cx="340" cy="740" rx="40.6" ry="8.8"/>
		
			<ellipse transform="matrix(0.9991 -4.189979e-02 4.189979e-02 0.9991 -30.1077 14.9541)" class="st16" cx="341.7" cy="725.7" rx="40.6" ry="14.6"/>
		<path class="st16" d="M358.4,666.4c-14.8,0.6-27.3-9.7-28-23.1c-0.3-5.1,1.2-9.9,3.9-13.9c8.5,5.7,17.4,8.2,26.1,6.9
			c6.7-1,12.7-4.2,17.9-9.2c3.3,3.8,5.3,8.6,5.6,13.8C384.6,654.4,373.2,665.8,358.4,666.4z"/>
		
			<ellipse transform="matrix(0.9992 -3.892720e-02 3.892720e-02 0.9992 -29.2104 14.1806)" class="st18" cx="349.5" cy="757.2" rx="37.7" ry="23.8"/>
		
			<ellipse transform="matrix(0.9992 -3.985401e-02 3.985401e-02 0.9992 -30.2659 14.7015)" class="st19" cx="353.6" cy="766.5" rx="39.7" ry="20.7"/>
	</g>
	<path class="st20" d="M241.1,312c-7.5,50.9-29,89.9-48.1,87.1s-28.5-46.4-21-97.3c7.5-50.9,14.1-73.3,48.1-87.1
		C347.3,181.4,248.6,261,241.1,312z"/>
	<path class="st20" d="M421.3,372.3c-5,10.4-14.2,15.7-27.8,13.3c-33.7-6-37.6-22.7-45.1-73.7c-138-107-28.5-115,9.9-96
		c38.4,18.9,41.9,33.2,59.2,85.9c1.5,4.6,2.8,9.1,3.9,13.5v0C427.3,338.9,427.5,359.5,421.3,372.3z"/>
	<path class="st20" d="M397.5,421.2c-1.5,16-1.9,31.2-5,44.3c0,0,0,0,0,0.1c-0.3,1.1-0.5,2.1-0.8,3.2c0,0,0,0.1,0,0.1
		c-6.6,23.2-23.4,38.9-74.5,38.9c-9.8,0-20.8-0.6-33.2-1.8c-76.7-7.4-95.8-28-98.5-56.2c-0.3-2.8-0.4-5.8-0.3-8.8
		c0.1-12.2,2.3-25.7,3.6-39.9c5.1-52.4,55.9-90.3,113.5-84.7C359.9,321.8,402.6,368.8,397.5,421.2z"/>
	<ellipse class="st20" cx="294.7" cy="281.9" rx="85.9" ry="76.9"/>
	<path class="st20" d="M262.3,66.7c-0.3,0-0.5,0.1-0.8,0.1l0.1-0.4C261.8,66.5,262,66.6,262.3,66.7z"/>
	<path class="st20" d="M252.6,127.7l-0.2,0l0.1-1C252.6,127,252.6,127.3,252.6,127.7z"/>
	<path class="st20" d="M342,139.8l-0.1,1l-0.2,0C341.8,140.5,341.9,140.2,342,139.8z"/>
	<path class="st20" d="M262.3,66.7c-0.3,0-0.5,0.1-0.8,0.1l0.1-0.4C261.8,66.5,262,66.6,262.3,66.7z"/>
	<path class="st21" d="M298.2,224.8c0,15.8,13.1,60.6,11.3,91.4c-1.7,30.8-10.8,14.9-1.7,52.4c9,37.5,11.1,70.3-2.8,146.7"/>
	<circle class="st22" cx="296.8" cy="239.2" r="4.5"/>
	<circle class="st22" cx="305.4" cy="263.6" r="4.5"/>
	<circle class="st22" cx="308.5" cy="284.9" r="4.5"/>
	<circle class="st22" cx="310.2" cy="308.5" r="4.5"/>
	<circle class="st22" cx="310.2" cy="376.8" r="4.5"/>
	<circle class="st22" cx="313.3" cy="397.1" r="4.5"/>
	<circle class="st22" cx="315.7" cy="420.3" r="4.5"/>
	<circle class="st22" cx="315.3" cy="443.5" r="4.5"/>
	<circle class="st22" cx="313.3" cy="468.8" r="4.5"/>
	<circle class="st22" cx="309.6" cy="493" r="4.5"/>
	<path class="st23" d="M189.1,397.9c17.9,5,30.8,1.7,33.4-0.8c2.6-2.5,2.6-8.9,2.6-8.9c19.2-16.6,29.4-39.4,69.6-40.6
		s98.7,38.1,98.7,38.1c4.4,6.5,6.8,13.5,6.8,13.5c4.8,2.4,6.5,16.7-24-2c-63.2-38.9-128.6-8.2-152.7,4.5
		C178.2,425.4,189.1,397.9,189.1,397.9z"/>
	<path class="st24" d="M374.8,333.3c0,2.3-0.2,4-0.4,4.9c-0.5,1.7-1.3,3.2-2.3,4.5l0,0c-7.1,8.9-25.3,10.2-25.3,10.2
		c-17.3,7.8-41.1,15.6-62.1,19.4c-45.8,8.3-83.9,29.8-101.8,7.2c0-3.4,0.2-6.6,0.7-9.5c4.4-26,28.9-33.2,59.3-33.4
		c2.8,0,5.6,0,8.5,0.1c3.1,0.1,14.3-2,17.3-3.1c2.3-0.8,11.1-2.6,13.4-3.4c8.7-3,21.2-5.1,32.7-7.4c4.1-0.9,8.1-1.7,11.7-2.7
		c6.8-1.8,11.7-4.8,15.3-6.8c15-8.6,23.4-6.1,27.4-4.8c0.2,0.1,0.3,0.4,0.4,0.6c0.1,0.2,0.2,0.3,0.3,0.5c0.1,0.1,0.1,0.2,0.2,0.3
		c0.1,0.2,0.2,0.3,0.2,0.5c0.3,0.5,0.5,1,0.7,1.5c0.2,0.4,0.4,0.8,0.5,1.3l0.1,0.3c0.1,0.2,0.2,0.5,0.3,0.8
		C374.2,320.5,374.9,328.3,374.8,333.3z"/>
	<path class="st23" d="M374.8,333.3c0-5.1-0.6-12.8-2.9-19.2c-0.1-0.3-0.2-0.5-0.3-0.8l-0.1-0.3c-0.2-0.4-0.3-0.8-0.5-1.3
		c-0.2-0.5-0.5-1-0.7-1.5c-0.1-0.2-0.2-0.3-0.2-0.5c0-0.1-0.1-0.2-0.2-0.3c-0.1-0.2-0.2-0.4-0.3-0.5c-0.1-0.2-0.3-0.4-0.4-0.6
		c-1.7,1.3,0,2.8,0,7.2c0,4.5-25.6,10.3-42.6,4.4c0,0,3.2,2.6,8.1,6.2l-19.8-3.5c-11.5,2.4-24,4.5-32.7,7.4
		c-2.3,0.8-11.1,2.5-13.4,3.4c-3,1.1-14.2,3.2-17.3,3.1c-2.9-0.1-5.7-0.1-8.5-0.1c7.8,2.5,45.3,15,39,20.4c-7,6.1-88.9,26-98.3,13
		c-0.5,2.9-0.7,6.1-0.7,9.5c17.9,22.6,56,1.1,101.8-7.2c21-3.8,44.8-11.6,62.1-19.4c0,0,18.2-1.3,25.3-10.2l0,0c1-0.6,1.7-2,2.3-4.5
		C374.6,337.3,374.8,335.6,374.8,333.3L374.8,333.3z"/>
	<g>
		<path class="st24" d="M323.6,372.9c-38.1-18-47.8-25.6-63.3-37.2c-0.2-0.1-0.4-0.3-0.6-0.4c-0.9-0.6-2.8-0.6-5.3,0
			c-2.8,0.6-6.2,1.9-9.1,3.5c-1.6-0.7-2.9-1.6-3.9-2.5c-0.8-2.5-1.4-5.6-1.9-8.4c-0.5-2.8-1.1-5.2-1.8-6.1c-5.7-7,2.3-12.2,6.9-13.9
			c13.6-5.2,31.6-2,61.9,9c43.7,15.9,102.4,27,100.5,49.1c-0.2,1.9,1.5,5.2,1.8,6.6C412.1,390.5,362.6,391.3,323.6,372.9z"/>
		<path class="st23" d="M323.6,372.9c-38.1-18-47.8-25.6-63.3-37.2c-0.2-0.1-0.4-0.3-0.6-0.4c-0.9-0.6-2.8-0.6-5.3,0
			c-2.8,0.6-6.2,1.9-9.1,3.5c-1.6-0.7-2.9-1.6-3.9-2.5c-0.8-2.5-1.4-5.6-1.9-8.4c0.6-2.1,1.9-4.2,3.6-6.1
			c6.7-13.9,14.7-1.9,18.9,6.7c0,0,0,0,0,0c0.2,0.3,49.2,31.4,76.9,37.6c49.9,11.1,62.9,13.4,69.8,6.5
			C412.1,390.5,362.6,391.3,323.6,372.9z"/>
	</g>
	<g>
		<path class="st22" d="M378.9,607.1C378.9,607.1,378.9,607.1,378.9,607.1c-5.5,4.1-10.2,6.4-12.2,6.2
			c-11.3-1.1-18.3,11.7-34.6,19.5l0,0c-5.9,2.8-13,4.9-22,5.6c-21.9,1.5-38-4.9-50.2-12.1l0,0c-16.2-9.7-25.4-21-32.1-17.8
			c-1.4,0.7-2.8,1.2-4.2,1.5c-23.1,5.7-51.8-28.2-49.8-50.2l7-106.8c0.2-1.9,1.7-9.7,4.7-3.2c2.7,28.2,21.8,48.8,98.5,56.2
			c80.5,7.8,101.5-10.8,108.5-40.4c0,0,0,0,0-0.1c1.1-3.5,2.6-5.5,6.5,2.3l-3.5,7.8l3.6,3.7l7.6,83.2
			C408.6,579.5,391.6,597.8,378.9,607.1z"/>
		<path class="st23" d="M259.9,626.2c-16.2-9.7-25.4-21-32.1-17.8c-1.4,0.7-2.8,1.2-4.2,1.5c0,0,0,0,0,0c12-14.6,3.5-85.6,3.5-85.6
			C245.7,551.2,228.8,589.3,259.9,626.2z"/>
		<path class="st23" d="M378.9,607.1c-5.5,4-10.2,6.4-12.2,6.2c-11.3-1.1-18.3,11.7-34.6,19.5c32.7-32.9,27.7-103.4,32.7-108.4
			c5-5-1.5,93.8,14,82.8C378.8,607.2,378.8,607.2,378.9,607.1z"/>
		<path class="st25" d="M180.3,458.4c11.7,28.5,33.6,53.2,97.3,54.7s85.9,0.2,107.6-21.4c16.9-16.8,6.4-22.9,13.8-24
			c3.8-0.5,3.6,4.5,1.2,9.2c-12.5,25.1-29,47.5-123.9,41.6c-62.5-3.9-87.6-26.7-97.3-47.3c-8.6-18.2,1.8-18.3,1.8-18.3L180.3,458.4z
			"/>
		<path class="st26" d="M190.7,486.2c-17.1,11.7-19.9,19.9-14.5,28.8C181.6,523.8,190.7,486.2,190.7,486.2z"/>
		<path class="st26" d="M194.3,486.2c1.1,18.1-0.6,59,8.4,50.7C211.6,528.7,194.3,486.2,194.3,486.2z"/>
	</g>
	<path class="st23" d="M391.6,468.8c-6.6,23.2-23.4,38.9-74.5,38.9c-9.8,0-20.8-0.6-33.2-1.8c-76.7-7.4-95.8-28-98.5-56.2
		c-0.3-2.8-0.4-5.8-0.3-8.8C285.3,527.2,373.4,484.6,391.6,468.8z"/>
	<g>
		<g>
			<path class="st25" d="M421.3,372.3c-9.4,3.5-5.2,5.8-12.6,3.5c-7.4-2.3-1.9-13.2-1.9-13.2c8-5.8,18.2,1.1,14.5-47.3
				C427.3,338.9,427.5,359.5,421.3,372.3z"/>
			<path class="st25" d="M174.7,284.9c-0.4,48.1-0.2,78.9,10.5,78.9c10.6,0.1,12.7,22.7,4.9,21.9s-20.3-6.4-20.6-53.7
				C169.1,284.8,174.7,284.9,174.7,284.9z"/>
			<path class="st25" d="M249.1,209.7c-27.7,3.3-40,11.6-48.6,15.7c-8.6,4.1-17.1,17.3-11.3,13.9c11.7-6.7,57.2-21.4,64-22
				C260,216.7,249.1,209.7,249.1,209.7z"/>
			<path class="st25" d="M342,211.6c22.4,1.8,39.7,16.4,36.4,15.8c-3.3-0.6-30.6-10-36.7-10C335.6,217.3,342,211.6,342,211.6z"/>
		</g>
		<path class="st25" d="M249,214c0,0,9.4,39.6,29.8,49.6c1.8-9.8,13.5-15.4,13.5-15.4S265.4,239.4,249,214z"/>
		<path class="st25" d="M342,211.6c-0.3,40.5-11,46.6-11.8,47.1c-12-15-18.5-11.8-18.3-11.9C323.3,233,342,211.6,342,211.6z"/>
	</g>
	<g>
		<g>
			
				<ellipse transform="matrix(0.9976 -6.938039e-02 6.938039e-02 0.9976 -10.7783 20.8961)" class="st24" cx="295.4" cy="165.6" rx="47.1" ry="61.2"/>
			<path class="st27" d="M278.3,165.9c14.3-0.8,45.9,10.1,55.8,3.9c9.9-6.2,8.1,4,6.1,6.6c-2,2.5-34.3,17.3-54.1,7.6
				C266.3,174.3,271.1,166.3,278.3,165.9z"/>
			<path class="st28" d="M247.7,163.5c7.5,0,19.4,33,27.1,37.1c7.8,4,18.9-3.4,26.5-5.1s23.1-3.5,28.8-3
				c7.9,0.6,15.4,14.1,11.6,23.4c-3.8,9.3-22.7,38.9-49.4,32.3c-26.7-6.6-48-32.4-47.6-50.3S243.2,163.5,247.7,163.5z"/>
			
				<ellipse transform="matrix(0.9976 -6.938039e-02 6.938039e-02 0.9976 -14.0918 22.228)" class="st27" cx="312.9" cy="214" rx="12.3" ry="6.1"/>
		</g>
		<g>
			<path class="st20" d="M346.8,114l-2.4,16.4c-9.7,0.2-20.9-0.5-32.9-2.3c-25.7-3.8-47.1-11.3-55.4-18.6l1.2-7.9
				c10.7,4.6,25.8,8.7,42.7,11.2C318.3,115.5,335.1,115.8,346.8,114z"/>
			<path class="st20" d="M350.1,91.3l-0.1,0.9c-0.5-0.2-1-0.5-1.6-0.7C349,91.5,349.6,91.4,350.1,91.3z"/>
			<path class="st20" d="M362.7,108.1c-0.1,0-0.1,0.1-0.2,0.1C362.5,108.2,362.6,108.1,362.7,108.1
				C362.6,108.1,362.7,108.1,362.7,108.1z"/>
			<path class="st20" d="M348.5,91.5c0.6-0.1,1.1-0.1,1.7-0.2l-0.1,0.9C349.5,92,349,91.8,348.5,91.5z"/>
			<path class="st20" d="M362.7,108.1c-0.1,0-0.1,0.1-0.2,0.1C362.5,108.2,362.6,108.1,362.7,108.1
				C362.6,108.1,362.7,108.1,362.7,108.1z"/>
			<g>
				<path class="st20" d="M344.4,130.4l-3.1,21c0,0.3-0.2,0.7-0.3,1c-2.8,5.9-22.7,7.8-46.1,4.4c-23.4-3.5-41.9-11.1-42.9-17.5
					c-0.1-0.3-0.1-0.7,0-1v0l4.2-28.7c8.3,7.3,29.7,14.8,55.4,18.6C323.5,129.8,334.7,130.6,344.4,130.4z"/>
				<path class="st20" d="M372,91.4c0,7.6-3.9,14.1-9.3,16.7c0,0-0.1,0-0.1,0c0,0-0.1,0.1-0.1,0.1c-2.5,2.7-8,4.7-15.7,5.8
					c-11.7,1.7-28.5,1.4-46.8-1.3c-17-2.5-32-6.6-42.7-11.2c-1.2-0.5-2.4-1.1-3.5-1.6c-3.8-1.8-6.8-3.8-9-5.7
					c-4.2-3.2-6.9-8.8-6.9-15.3c0-7.5,3.7-13.8,9-16.6c4.8-7.6,31.7-10.1,63.1-5.5c30.8,4.5,55.4,14.3,58.7,22.9
					C370.7,83,372,87,372,91.4z"/>
				<path class="st29" d="M346.8,114l-2.4,16.4c-9.7,0.2-20.9-0.5-32.9-2.3c-25.7-3.8-47.1-11.3-55.4-18.6l1.2-7.9
					c10.7,4.6,25.8,8.7,42.7,11.2C318.3,115.5,335.1,115.8,346.8,114z"/>
				<path class="st30" d="M346.9,114l-5.5,36.6l-0.1,0.8c0,0.3-0.2,0.6-0.3,0.9c-1.1,2.2-4.6,3.9-9.8,4.9l4-27l2.3-15.4
					C340.8,114.8,344,114.5,346.9,114C346.8,114,346.9,114,346.9,114z"/>
			</g>
		</g>
	</g>
	<g>
		<path class="st25" d="M278,301.2c-12,0.5-23.9,1-35.9,2.1c-0.5-4.7-0.9-9.4-1.1-14.2c11.8-0.8,23.7-1.3,35.4-2.5
			C276.9,291.4,277.7,296.3,278,301.2z"/>
		<g>
			<path class="st31" d="M248.3,295.3c0.1,0.1,0.2,0.2,0.3,0.4c0.1,0.2,0.1,0.3,0.1,0.5c0,0.5,0.1,1.2,0.1,1.7c0,0.2,0,0.4-0.1,0.6
				s-0.1,0.3-0.2,0.5c-0.1,0.2-0.2,0.3-0.4,0.4c-0.2,0.1-0.3,0.1-0.5,0.2c-0.5,0-1.1,0.1-1.6,0.1c-0.1,0-0.2,0-0.2-0.2
				c-0.3-2.6-0.5-5.2-0.6-7.8c0-0.1,0-0.2,0.2-0.2c0.5-0.1,1.1-0.1,1.6-0.2c0.2,0,0.4,0,0.5,0.1c0.2,0.1,0.3,0.1,0.5,0.3
				c0.1,0.1,0.2,0.2,0.3,0.4c0.1,0.2,0.1,0.3,0.1,0.6c0,0.3,0,0.8,0.1,1.1c0,0.3-0.1,0.7-0.2,0.9c-0.2,0.2-0.2,0.2-0.4,0.4
				C248,295.1,248.2,295.2,248.3,295.3z M247.2,292.9c0-0.1,0-0.1-0.1-0.2c-0.1-0.1-0.1-0.1-0.2-0.1c-0.1,0-0.2,0-0.3,0
				c0,0.7,0.1,1.3,0.1,2c0.1,0,0.3,0,0.4,0c0.1,0,0.1,0,0.2-0.1c0.1-0.1,0.1-0.1,0.1-0.2C247.2,293.8,247.2,293.3,247.2,292.9z
				 M247.4,296.1c0-0.1,0-0.1-0.1-0.2c-0.1-0.1-0.1-0.1-0.2-0.1c-0.1,0-0.2,0-0.3,0c0.1,0.8,0.1,1.6,0.2,2.4c0.1,0,0.3,0,0.3,0
				c0.1,0,0.1,0,0.2-0.1c0-0.1,0.1-0.1,0.1-0.2C247.5,297.3,247.4,296.7,247.4,296.1z"/>
			<path class="st31" d="M252.3,297.9c0,0.2,0.1,0.8,0.1,1c0,0.2,0,0.2-0.1,0.2c-0.8,0.1-1.6,0.1-2.3,0.2c-0.1,0-0.2,0-0.2-0.2
				c-0.2-2.2-0.4-4.4-0.5-6.6c0-0.1,0-0.2,0.1-0.2c0.8-0.1,1.6-0.2,2.4-0.2c0.1,0,0.1,0,0.2,0.2c0,0.2,0.1,0.8,0.1,1
				c0,0.2,0,0.2-0.1,0.2c-0.4,0.1-0.8,0.1-1.2,0.1c0,0.4,0,0.9,0.1,1.3c0.3,0,0.8-0.1,1-0.1c0.2,0,0.2,0,0.2,0.2
				c0,0.2,0.1,0.8,0.1,1c0,0.2,0,0.2-0.2,0.2c-0.2,0-0.8,0.1-1,0.1c0,0.5,0.1,1,0.1,1.6c0.4,0,0.8-0.1,1.2-0.1
				C252.3,297.7,252.3,297.7,252.3,297.9z"/>
			<path class="st31" d="M255.9,297.6c0,0.2,0.1,0.8,0.1,1c0,0.2,0,0.2-0.1,0.2c-0.8,0.1-1.6,0.1-2.4,0.2c-0.1,0-0.2,0-0.2-0.2
				c-0.2-2.2-0.3-4.4-0.4-6.6c0-0.1,0-0.2,0.1-0.2c0.8-0.1,1.6-0.1,2.4-0.2c0.1,0,0.1,0,0.2,0.2s0.1,0.8,0.1,1c0,0.2,0,0.2-0.1,0.2
				c-0.4,0.1-0.8,0.1-1.3,0.1c0,0.4,0,0.9,0.1,1.3c0.3,0,0.8-0.1,1.1-0.1c0.2,0,0.2,0,0.2,0.2c0,0.2,0.1,0.8,0.1,1
				c0,0.2,0,0.2-0.2,0.2c-0.2,0-0.8,0-1.1,0.1c0,0.5,0.1,1,0.1,1.6c0.4,0,0.8-0.1,1.2-0.1C255.9,297.4,255.9,297.4,255.9,297.6z"/>
			<path class="st31" d="M259.3,291.7c0,0.2,0,0.8,0,1c0,0.2,0,0.2-0.2,0.2c-0.4,0.1-0.9,0-1.3,0.1c0,0.4,0,0.9,0.1,1.3
				c0.3,0,0.8-0.1,1.1-0.1c0.2,0,0.2,0,0.2,0.2c0,0.2,0.1,0.8,0.1,1c0,0.2,0,0.2-0.2,0.2c-0.2,0-0.8,0-1.1,0.1
				c0,0.9,0.1,1.9,0.2,2.8c0,0.1,0,0.2-0.2,0.2s-0.8,0.1-0.9,0.1c-0.2,0-0.2,0-0.2-0.2c-0.2-2.2-0.3-4.5-0.4-6.7
				c0-0.1,0-0.2,0.2-0.2c0.8-0.1,1.6-0.1,2.4-0.1C259.3,291.5,259.3,291.5,259.3,291.7z"/>
		</g>
	</g>
</g>
</svg>
