<svg xmlns="http://www.w3.org/2000/svg" xmlns:xlink="http://www.w3.org/1999/xlink" viewBox="0 0 301.464 688.322"><defs><style>.a{fill:url(#a);}.b{fill:#e9c499;}.b,.d{isolation:isolate;}.c,.t{fill:#fff;}.c{opacity:0.15;}.d{opacity:0.06;}.e{fill:#bc4241;}.f,.k,.r{fill:#292929;}.f{opacity:0.24;}.g{fill:#837058;}.h{fill:#675845;}.i{fill:#bbd271;}.j{fill:#e7c298;}.k{opacity:0.05;}.l{fill:#3e3f37;}.m{fill:#ffc849;}.n{fill:#ffe399;}.o{fill:#f9b700;}.p{fill:#6aa4f5;}.q{fill:#ffca4a;}.r{opacity:0.14;}.s{fill:#dd8080;}.u,.v{fill:none;stroke-miterlimit:10;}.u{stroke:#fff;stroke-width:10px;opacity:0.22;}.v{stroke:#837058;stroke-width:5px;}</style><radialGradient id="a" cx="150.732" cy="353.399" r="256.698" gradientTransform="translate(0 -353.399) scale(1 2)" gradientUnits="userSpaceOnUse"><stop offset="0" stop-opacity="0.2"/><stop offset="0.5" stop-opacity="0"/></radialGradient></defs><title>guest</title><ellipse class="a" cx="150.732" cy="353.399" rx="150.732" ry="330.253"/><path class="b" d="M214.644,328.67c1.564,17.656-26.585,33.6-65.789,35.386-39.223,1.79-71.211-11.388-71.426-29.121-.212-17.4,30.344-32.648,68.23-34.362C183.527,298.86,213.109,311.348,214.644,328.67Z"/><path class="b" d="M153.034,331.215c-.134,1.915-.669,12.47-2.36,25.5-.5,3.849-1.1,7.912-1.814,12.04-.452,2.577-.952,5.186-1.5,7.776-5.878,27.62-5.437,49.918-4.525,68.728.164,3.306.335,6.512.493,9.619.279,5.473.5,10.639.488,15.552-.011,8.645-.729,16.525-3.115,23.922l-.053.182c-1.664,5.111-12.675,8.754-22.291,9.337a35.2,35.2,0,0,1-7.805-.311c-3.976-.672-6.8-2.236-7.084-4.907-.177-1.645-.352-3.23-.516-4.775-.017-.21-.044-.409-.061-.619-1.34-12.711-2.144-22.339-2.917-30.5-.6-6.423-1.173-11.927-1.96-17.323-2.179-14.963-5.947-29-16.293-59.071-6.43-18.669-3.832-52.589-3.832-52.589l.68-.024,73.017-2.487Z"/><path class="b" d="M153.084,331.213l-.05,0C153.069,330.8,153.079,330.783,153.084,331.213Z"/><path class="b" d="M211.481,322.022a22.268,22.268,0,0,1,3.583,9.555c2.239,18.244,2.283,54.416.182,69.447-1.316,9.4-2.761,19.4-4.21,29.264-.625,4.2-1.251,8.378-1.86,12.481h-.01c-.144,1.045-.308,2.082-.462,3.118-4.285,28.545-8.088,52.531-8.088,52.531a.031.031,0,0,0-.02.01c-.844.47-34.161,18.753-38.658,11.114a28.842,28.842,0,0,1-1.829-3.689v-.01c-5.472-12.978-4.052-31.778-3.584-48.044.062-1.954.106-3.876.121-5.748.028-3.533-.038-6.883-.294-9.946-.055-.7-.118-1.376-.182-2.055-3.113-36.474-5.645-46.312-7.227-67.15-.077-1.078-.106-2.488-.083-4.149.038-3.234.252-7.444.555-11.987.581-8.655,1.5-18.563,2.169-25.5.519-5.261.9-8.816.9-8.816Z"/><path class="b" d="M157.68,645.272c.312,4.952-7.714,6.361-11.782,9.383-4.36,3.243-15.61,9.816-15.61,9.816s4.709-8.778,4.759-11.962c.059-3.214-3.317-8.25-4.909-12.317a9.642,9.642,0,0,1-.791-3.485c.034-1.622,1.625-3.939,2.84-6.122a10.968,10.968,0,0,0,1.313-3.107,2.906,2.906,0,0,0,.036-1c-3.236-20.36-19.978-51.33-24.916-72.582a163.226,163.226,0,0,1-2.81-17.873c-.874-7.915-1.537-16.657-2.062-25.164-.344-5.6-.634-11.1-.88-16.179a2.586,2.586,0,0,1,.082-.8,1.942,1.942,0,0,1,.242-.549c2.264-3.951,16.361-2.558,26.764-.927,5,.778,9.151,1.615,10.743,1.95.454.094.7.146.7.146s7.229,34.541,6.39,53.381c-1.283,28.531,3.923,52.035,8.724,76.264.049.278.1.687.161,1.2C157.138,629.891,157.523,642.746,157.68,645.272Z"/><path class="b" d="M188.787,620.941a61.342,61.342,0,0,0,.295,10.256c.373,4.12.868,8.295,1.034,11.061.266,4.213,1.057,16.954,1.057,16.954l5.1,17.724-16.1-9.479-1.033-20.6s-18.7-19.535-11.451-23.548a4.5,4.5,0,0,0,1.625-1.608c5.893-9.549-6.582-48.8-7.554-63.306-3.012-45.093-.518-37.8-1.649-52.545v-.01c0-.06-.014-.119-.016-.179-1.039-13.232,15.474-29.033,27.805-26.918a12.857,12.857,0,0,1,1.523.357,11.591,11.591,0,0,1,2.418,1.047,15.27,15.27,0,0,1,6.244,7.539,36.045,36.045,0,0,1,2.513,10.739c.087.768.144,1.556.193,2.375.8,13.9,5.543,32.678,4.1,46.967C203.018,566.076,190.832,601.659,188.787,620.941Z"/><path class="c" d="M206.513,336.835c-9.529,6.246-23.791,145.644-17.165,146.911S231.27,320.61,206.513,336.835Z"/><path class="c" d="M135.007,375.624c-10.092,23.025-18.61,64.09-18.178,78.068.434,14.057,14.91,29.106,17.686,13.382C137.314,451.222,143.568,356.092,135.007,375.624Z"/><path class="c" d="M135.071,508.977c-4.708,8.286,2.411,61.238,6.494,64.788C145.664,577.327,140.888,498.742,135.071,508.977Z"/><path class="c" d="M179.443,477.2c-10.21,3.61-6.633,14.382-3.892,17.911s20.325,9.161,22.348-5.151C199.9,475.8,185.32,475.119,179.443,477.2Z"/><path class="c" d="M124.345,470.125c-8.7-.57-10.976,6.526-9.383,10.147s12.3,9.918,16.949,3.6C136.537,477.59,130.309,470.515,124.345,470.125Z"/><path class="c" d="M196.522,573.651c9.22-7.8,7.16-51.265,2.285-59.244C194.584,507.5,191.083,578.249,196.522,573.651Z"/><path class="d" d="M135.634,643.453c.051-.271-2.774-1.8-5.5-3.261a9.642,9.642,0,0,1-.791-3.485c.034-1.622,1.625-3.939,2.84-6.122a10.968,10.968,0,0,0,1.313-3.107,2.906,2.906,0,0,0,.036-1c-3.236-20.36-19.978-51.33-24.916-72.582a163.226,163.226,0,0,1-2.81-17.873c-.874-7.915-1.537-16.657-2.062-25.164-.344-5.6-.634-11.1-.88-16.179a2.586,2.586,0,0,1,.082-.8c-.017-.21-.044-.409-.061-.619a1.677,1.677,0,0,1,.3.07c2.405.687,4.865,4.4,7.358,10.231,12.315,28.832,25.221,109.453,33.72,132.093C144.666,636.7,139.208,651.585,135.634,643.453Z"/><path class="d" d="M161.415,507.025c7.382,6.258,10.579,13.964,10.12,19.517s3.228,65.026-4.11,50.624S159.624,505.507,161.415,507.025Z"/><path class="e" d="M162.26,642.248c-2.052,7.276-7.51,15.631-15.635,22.927-14.836,13.318-32.713,17.846-39.692,10.016-6.914-7.768-.335-24.625,14.441-37.549a65.521,65.521,0,0,1,9.108-6.686c9.747-5.915,19.519-8.05,25.849-5.543a10.621,10.621,0,0,1,3.893,2.58,10.5,10.5,0,0,1,2.605,5.055A19.16,19.16,0,0,1,162.26,642.248Z"/><path class="e" d="M194.159,687.857c-9.806,3.12-22.77-9.812-28.812-28.543a61.239,61.239,0,0,1-2.986-15.869,40.142,40.142,0,0,1,.6-9.646c1.087-5.731,3.551-10.048,7.182-12.023a9.27,9.27,0,0,1,1.78-.748c6.247-1.923,13.861,2.688,20.106,11.255a61.67,61.67,0,0,1,8.234,16.13C206.616,666.935,203.943,684.75,194.159,687.857Z"/><path class="f" d="M144.01,472.94A83.178,83.178,0,0,1,129.9,487.713a67.746,67.746,0,0,1-11.729,7.761,45.819,45.819,0,0,1-14.682,4.817c-.279-3.721-.505-7.371-.692-10.749a1.186,1.186,0,0,1,.091-.535c-1.219-8.643-1.925-15.155-2.616-20.658,1.586-.148,3.2-.317,4.856-.5,4.186-.458,8.561-1,13.073-1.583.378-.053.757-.1,1.145-.153,3.008-.4,6.075-.829,9.182-1.275q3.793-.542,7.666-1.11,3.733-.558,7.5-1.125C143.918,466.24,144.077,469.673,144.01,472.94Z"/><path class="f" d="M209.166,442.77c-.144,1.045-.308,2.082-.462,3.118a82.565,82.565,0,0,1-8.88,7.091,63.412,63.412,0,0,1-11.852,6.514c-12.944,5.3-24.258,3.931-31.447-1.693.062-1.954.106-3.876.121-5.748,5.573-1.163,11.116-2.326,16.532-3.414q4.545-.922,8.964-1.751,3.386-.642,6.653-1.211c2.675-.473,5.3-.914,7.849-1.3,1.831-.284,3.633-.546,5.387-.777,1.324-.186,2.619-.341,3.895-.485C207.022,442.984,208.109,442.866,209.166,442.77Z"/><path class="g" d="M57.055,442.1c-3.933-4.935-7.306-2.51-12.009-38.882-3.325-25.714-9.234-74.37-5.915-80.176s8.511-5.731,32.46,2.2c28.912,9.576,48.354,48.406,48.354,48.406S77.054,467.2,57.055,442.1Z"/><path class="h" d="M65.293,446.437c-6.31-.01-8.69-13.167-12.008-38.882s-9.234-74.37-5.916-80.176,8.511-5.731,32.46,2.2c28.913,9.576,48.354,48.406,48.354,48.406S85.077,446.47,65.293,446.437Z"/><path class="i" d="M109.055,142.321a37.923,37.923,0,0,0-3.15,7.45,31.766,31.766,0,0,0,3.14,4.44,3.873,3.873,0,0,0-2.41,6.53,3.954,3.954,0,0,0,2.94,1.26h.08c-.49,1.3-.94,2.64-1.33,4.05-5.94,21.76-9.27,29.16-11.57,34.95a56.768,56.768,0,0,0-2.58,7.69c-.11.4-.2.8-.3,1.23-.11.45-.22.93-.33,1.43a20.919,20.919,0,0,0,.02,7.89c.07.39.15.79.24,1.19.01.02.01.05.02.07a32.155,32.155,0,0,0,4.01,9.76v.01c.29,1.7.59,3.68.88,5.81-17.14-11.92-26.68-3.75-32.64,2.55-.38.42-.76.83-1.13,1.23-1.2-26.77,1.19-70.72,7.68-80.95,5.18-8.17,21.87-15.92,35.09-21.03,2.23-.86,4.36-1.64,6.32-2.34a32.322,32.322,0,0,0-4.98,6.78Z"/><path class="j" d="M223.515,234.721v.01c-2.73,25.98-5.48,48.21-5.48,48.21l-8.61,18.25-24.56,52.04-15.99,33.88-34.56-38.52-46.09-51.38s-.63-1.21-1.68-3.19c-4.06-7.71-14.41-27.16-18.66-33.79-1.49-2.32-2.48-10.08-2.94-20.37.37-.4.75-.81,1.13-1.23,5.96-6.3,15.5-14.47,32.64-2.55-.29-2.13-.59-4.11-.88-5.81v-.01a32.155,32.155,0,0,1-4.01-9.76c-.01-.02-.01-.05-.02-.07-.09-.4-.17-.8-.24-1.19a20.919,20.919,0,0,1-.02-7.89c.11-.5.22-.98.33-1.43.1-.43.19-.83.3-1.23a56.768,56.768,0,0,1,2.58-7.69c2.3-5.79,5.63-13.19,11.57-34.95.39-1.41.84-2.75,1.33-4.05h-.08a3.954,3.954,0,0,1-2.94-1.26,3.873,3.873,0,0,1,2.41-6.53,31.766,31.766,0,0,1-3.14-4.44,37.923,37.923,0,0,1,3.15-7.45,32.322,32.322,0,0,1,4.98-6.78c4.76-1.69,8.52-2.89,10.24-3.42l1.02-.31a6.838,6.838,0,0,1,.57-.51,23.313,23.313,0,0,1,5.15-3.1,39.284,39.284,0,0,1,10.08-2.89c1.6-.25,3.32-.43,5.19-.54a70.581,70.581,0,0,1,12.71.53,100.782,100.782,0,0,1,13.86,2.83c.18,1.1.4,2.21.68,3.32,11.55,5.31,19.24,12.77,17.26,18.84a3.064,3.064,0,0,1,1.99.94c1.38,1.49.95,4.12-.96,5.9a5.166,5.166,0,0,1-3.78,1.48c2.62,15.45,17.82,27.9,23.64,49.69a24.07,24.07,0,0,1,.64,3.33,22.126,22.126,0,0,1-1.31,10.59c-.15.43-.32.85-.49,1.27a2.55,2.55,0,0,1-.13.29,36.95,36.95,0,0,1-3.03,5.87C212.605,229.651,222.835,230.581,223.515,234.721Z"/><path class="i" d="M223.515,234.721c-.68-4.14-10.91-5.07-16.15-5.07a36.95,36.95,0,0,0,3.03-5.87,2.55,2.55,0,0,0,.13-.29c.17-.42.34-.84.49-1.27a22.126,22.126,0,0,0,1.31-10.59,24.07,24.07,0,0,0-.64-3.33c-5.82-21.79-21.02-34.24-23.64-49.69a5.166,5.166,0,0,0,3.78-1.48c1.91-1.78,2.34-4.41.96-5.9a3.064,3.064,0,0,0-1.99-.94c1.98-6.07-5.71-13.53-17.26-18.84-.28-1.11-.5-2.22-.68-3.32.31.08.63.17.95.26.82.23,1.65.47,2.49.73,6.29,1.91,45.99,18.87,51.41,25.41C230.815,158.281,227.185,199.881,223.515,234.721Z"/><path class="k" d="M109.055,142.321a37.923,37.923,0,0,0-3.15,7.45,31.766,31.766,0,0,0,3.14,4.44,3.873,3.873,0,0,0-2.41,6.53,3.954,3.954,0,0,0,2.94,1.26h.08c-.49,1.3-.94,2.64-1.33,4.05-5.94,21.76-9.27,29.16-11.57,34.95a56.768,56.768,0,0,0-2.58,7.69c-.11.4-.2.8-.3,1.23-.11.45-.22.93-.33,1.43a20.919,20.919,0,0,0,.02,7.89c.07.39.15.79.24,1.19.01.02.01.05.02.07a32.155,32.155,0,0,0,4.01,9.76v.01c.29,1.7.59,3.68.88,5.81-17.14-11.92-26.68-3.75-32.64,2.55-.38.42-.76.83-1.13,1.23-1.2-26.77,1.19-70.72,7.68-80.95,5.18-8.17,21.87-15.92,35.09-21.03,2.23-.86,4.36-1.64,6.32-2.34a32.322,32.322,0,0,0-4.98,6.78Z"/><path class="k" d="M223.515,234.721c-.68-4.14-10.91-5.07-16.15-5.07a36.95,36.95,0,0,0,3.03-5.87,2.55,2.55,0,0,0,.13-.29c.17-.42.34-.84.49-1.27a22.126,22.126,0,0,0,1.31-10.59,24.07,24.07,0,0,0-.64-3.33c-5.82-21.79-21.02-34.24-23.64-49.69a5.166,5.166,0,0,0,3.78-1.48c1.91-1.78,2.34-4.41.96-5.9a3.064,3.064,0,0,0-1.99-.94c1.98-6.07-5.71-13.53-17.26-18.84-.28-1.11-.5-2.22-.68-3.32.31.08.63.17.95.26.82.23,1.65.47,2.49.73,6.29,1.91,45.99,18.87,51.41,25.41C230.815,158.281,227.185,199.881,223.515,234.721Z"/><path class="i" d="M212.365,330.871c-1.24,15.35-11.29,21.32-27.5,22.36-11.92.76-27.19-1.15-44.73-3.96-1.99-.23-3.93-.45-5.82-.68-35-4.25-52.07-9.39-51.4-32.15a64.31,64.31,0,0,1,3.63-22.42c4.35-12.94,11.19-23.69,12.6-35.49a49.091,49.091,0,0,0,.63-9.52c0-.18-.01-.37-.02-.55-.07-3.08-.33-6.24-.65-9.22-.01-.07-.02-.14-.03-.22-.11-1-.24-1.99-.36-2.94-.29-2.13-.59-4.11-.88-5.81v-.01c-.29-1.7-.55-3.12-.75-4.16-.23-1.19-.38-1.87-.38-1.87a25.278,25.278,0,0,0,2.75,1.28c.67.28,1.38.54,2.11.79a82.438,82.438,0,0,0,21.93,3.93c6.94.16,12.98-.94,15.91-2.46,7.09-3.68,13.79-2.55,22.74-.48,5.21,1.2,11.18,2.71,18.43,3.79,7.76,1.15,18.23-.42,22.89-2.26a9.389,9.389,0,0,1-.65,1.97c-.14.34-.29.72-.45,1.15-.51,1.32-1.15,3.03-1.78,5.1-.23.75-.46,1.55-.69,2.39-.1.38-.2.78-.3,1.18-.45,1.78-.87,3.75-1.19,5.89-.06.37-.12.74-.17,1.12a68.775,68.775,0,0,0-.63,12.72c.59,12.13,7.49,25.84,11.82,40.85C212.135,310.591,213.845,320.511,212.365,330.871Z"/><path class="i" d="M212.485,214.411a22.031,22.031,0,0,1-1.47,7.81c-.15.43-.32.85-.49,1.27a2.55,2.55,0,0,1-.13.29,36.95,36.95,0,0,1-3.03,5.87,26.652,26.652,0,0,1-6.78,7.39,21.19,21.19,0,0,1-2.69,1.67c-.49.26-.99.5-1.47.72-.19.09-.38.18-.57.26a30.561,30.561,0,0,1-2.99,1.15c-.22.07-.44.14-.66.2-4.39,1.32-8.54,1.43-11.47.06-10.85-5.08-38.17-1.45-58.12,1.67a22.407,22.407,0,0,1-14.26-2.32c-.58-.31-1.15-.65-1.69-.99a.865.865,0,0,1-.1-.07c-.58-.38-1.14-.78-1.69-1.2-.28-.21-.56-.44-.83-.68a1.238,1.238,0,0,1-.18-.14c-.13-.11-.25-.22-.38-.32-.34-.31-.69-.63-1.04-.97-.27-.26-.54-.54-.81-.82a31.017,31.017,0,0,1-3.8-4.99v-.01a32.155,32.155,0,0,1-4.01-9.76c-.01-.02-.01-.05-.02-.07-.09-.4-.17-.8-.24-1.19a20.919,20.919,0,0,1-.02-7.89c.11-.5.22-.98.33-1.43.1-.43.19-.83.3-1.23a56.768,56.768,0,0,1,2.58-7.69c2.3-5.79,5.63-13.19,11.57-34.95.39-1.41.84-2.75,1.33-4.05.02-.06.04-.11.06-.17a.789.789,0,0,1,.12.15.01.01,0,0,1,.01.01,26.8,26.8,0,0,0,5.19,4.51c4.26,3,9.49,5.66,13.52,8.27,11.93,7.71,14.943,11.445,24.915,15.07,6.927-2.868,11.055-5.97,20.955-13.93,4.69-3.77,11.24-11.7,13.4-17.31.04-.09.07-.18.1-.27.02-.04.03-.09.05-.13a.675.675,0,0,1,.02.14,2.558,2.558,0,0,0,.05.27c2.62,15.45,17.82,27.9,23.64,49.69a24.07,24.07,0,0,1,.64,3.33A21.909,21.909,0,0,1,212.485,214.411Z"/><path class="i" d="M190.8,150.291c-.02.06-.04.14-.06.2a1.3,1.3,0,0,0-.04-.21c-1.26-7.37-7.91-12.58-16.36-15.94a77.2,77.2,0,0,0-30.78-4.79,43.532,43.532,0,0,0-13.8,2.98c-.74.3-1.47.62-2.19.97-.5.25-.99.5-1.47.77a35.823,35.823,0,0,0-14.35,14.47,44.53,44.53,0,0,0-2.59,5.47c-.01.03-.03.07-.04.1a.607.607,0,0,1-.07-.1,31.766,31.766,0,0,1-3.14-4.44,37.923,37.923,0,0,1,3.15-7.45,32.322,32.322,0,0,1,4.98-6.78,34.681,34.681,0,0,1,17.44-9.54,50.067,50.067,0,0,1,9.04-1.23,55.525,55.525,0,0,1,5.77,0,70.71,70.71,0,0,1,11.24,1.46,76.5,76.5,0,0,1,14.54,4.57c.5.21.99.43,1.47.65C185.085,136.761,192.775,144.221,190.8,150.291Z"/><path class="i" d="M112.155,160.971a3.811,3.811,0,0,1-2.32,1.01.17.17,0,0,1-.07.01.375.375,0,0,1-.11.01h-.08a3.954,3.954,0,0,1-2.94-1.26,3.873,3.873,0,0,1,2.41-6.53.4.4,0,0,1,.11,0,3.933,3.933,0,0,1,3,6.76Z"/><path class="i" d="M191.825,157.131a5.166,5.166,0,0,1-3.78,1.48.608.608,0,0,1-.19-.01h-.03c-.02,0-.03,0-.04-.01a3.073,3.073,0,0,1-1.9-.93c-1.37-1.49-.95-4.13.96-5.9a5.183,5.183,0,0,1,3.85-1.48.308.308,0,0,1,.1.01,3.064,3.064,0,0,1,1.99.94C194.165,152.721,193.735,155.351,191.825,157.131Z"/><path class="f" d="M210.4,223.781a36.95,36.95,0,0,1-3.03,5.87,26.652,26.652,0,0,1-6.78,7.39c-.23.75-.46,1.55-.69,2.39-.1.38-.2.78-.3,1.18-.45,1.78-.87,3.75-1.19,5.89-17.13-8.54-63.96-6.69-98.65,1.96-.07-3.08-.33-6.24-.65-9.22-.01-.07-.02-.14-.03-.22-.11-1-.24-1.99-.36-2.94-.29-2.13-.59-4.11-.88-5.81v-.01a32.155,32.155,0,0,1-4.01-9.76l.86.77.01.01c1.59,1.4,3.19,2.86,4.76,4.23.06.06.12.11.18.16a19.811,19.811,0,0,0,1.92,1.5h.01c6.27,4.41,14.86,5.97,23.02,4.39,12.83-2.48,24.01-5.24,37.56-4.27a83.765,83.765,0,0,1,14.64,2.39c5.63,1.4,21.45.72,28.06-2.47a5.278,5.278,0,0,0,.58-.3C207,226.051,208.7,224.951,210.4,223.781Z"/><path class="l" d="M216.671,449.741c-4.868-1.221-20.654-1.982-33.042,1.5-25.9,7.278-59.146,21.31-82.788,18.549-27.37-3.2-20.036-15.342-15.855-35.054,5.894-27.788-6.3-53.987-7.158-82.944a167.562,167.562,0,0,1,2.938-35.661c.855-4.273,17,1.636,65.747,5.09C199.82,325,212.922,314.1,214.034,319.7,226.7,383.41,208.578,402.11,216.671,449.741Z"/><path class="m" d="M238.554,125.289c-8.31-21.408,14.355-45.675,2.175-72.838S198.067,35.278,196.505,40.5s30.823,16.865,7.118,81.672c-20.964,57.312,8.5,51.954,6.65,66.867S259.257,178.627,238.554,125.289Z"/><path class="n" d="M208.117,35.077c26.9-.592,35.285,29.11,30.7,46.686-5.049,19.355-6.679,30.543,2.394,55.426,9.442,25.9-6.776,43.637-21.577,52.725-11.421,7.013,27.408-14.943,15.655-45.759-9.426-24.714-16.608-32.1-4.566-71.179C234.485,60.769,216.705,37.553,208.117,35.077Z"/><path class="o" d="M211.506,113.574c-3.14-11.234-11.2,31.919.677,52.53s11.549-15.483,5.9-23.824C213,134.771,213.034,119.039,211.506,113.574Z"/><circle class="p" cx="201.191" cy="40.146" r="5.784"/><circle class="p" cx="203.615" cy="50.404" r="5.784"/><path class="q" d="M178.213,19.339c.894.7,1.769,1.386,2.623,2.059,2.09,1.675,4.065,3.278,5.888,4.838,21.063,17.962,23.553,29.754.29,66.4-2.687,4.24-5.72,8.811-9.114,13.761-4.41,6.442-9.24,10.7-14.314,13.16C127.02,137.4,78.042,61.9,83.026,43.34,88.708,22.2,155.7,1.741,178.213,19.339Z"/><path class="j" d="M167.709,112.07a28.56,28.56,0,0,1-14.731,7.215,26.743,26.743,0,0,1-17.18-3.334c-13.225-7.335-21.733-32.791-23.249-48.4-1.03-10.607.317-45.593,26.721-52.9,20.138-5.575,52.892,11.2,49.653,42.239C184.858,95.828,179.753,101.333,167.709,112.07Z"/><path class="f" d="M125.143,70.987c-4.279-.733-2-4.361,4.767-4.859,10.216-.752,16.025,3.476,14.422,3.365C138.712,69.1,127.96,71.469,125.143,70.987Z"/><path class="f" d="M169.036,66.623c4.138.394,9.794,2.7,6.531,4.034-2.3.936-10.121-1.371-19.665-.884C154.532,69.843,156.891,65.469,169.036,66.623Z"/><path class="j" d="M174.335,138.039a62.549,62.549,0,0,0,2.24,6.544,81.879,81.879,0,0,1-49.59-1.291,59.044,59.044,0,0,0,2.77-7.3,49.012,49.012,0,0,0,1.26-4.9c.18-.827.33-1.665.46-2.491a51.106,51.106,0,0,0,.49-11.718,55.763,55.763,0,0,0-3.45-15.4c-.06-.17-.12-.34-.19-.51,1.18-.328,2.35-.634,3.53-.917a79.963,79.963,0,0,1,25.26-1.981c1.74.136,3.48.34,5.22.6a1.989,1.989,0,0,1,.25.045c.33.046.66.1.99.147a85.793,85.793,0,0,1,13.36,3.374c-.25.578-.48,1.144-.71,1.721a52.4,52.4,0,0,0-3.37,27.049c.18,1.245.4,2.5.68,3.758C173.765,135.853,174.035,136.952,174.335,138.039Z"/><path class="f" d="M165.361,111.987c-1.164,8.886-6.208,15.3-16.2,15.07-8.188-.187-10.6-4.9-13.232-11.549,6.293,3.005,8.65,4.162,15.592,3.281C157.856,117.984,160.332,115.823,165.361,111.987Z"/><ellipse class="q" cx="191.005" cy="47.363" rx="11.202" ry="24.79" transform="translate(-0.548 2.266) rotate(-0.679)"/><ellipse class="q" cx="108.007" cy="46.184" rx="14.858" ry="16.087" transform="translate(-0.539 1.283) rotate(-0.679)"/><path class="r" d="M170.607,90.907c1.766-7.663,9.531-5.816,8.24-5.826S170.429,91.68,170.607,90.907Z"/><path class="r" d="M125.021,91.55c2.862-6.872-7.063-10.055-5.7-9.644S124.686,92.355,125.021,91.55Z"/><path class="s" d="M138.506,97.815c1.339.745,4.659-1.215,7.7-.666.839.152,1.618.788,2.495.909.821.114,2.162-.475,2.984-.394,3.732.367,6.219,3.245,8.126,2.624,4.4-1.433.359,1.9-.235,2.5s-11.713,8.236-20.944-.451C133.522,97.529,136.729,96.827,138.506,97.815Z"/><path class="t" d="M145.155,101.356c1.1.958,6.261.67,6.648.6S144.591,100.863,145.155,101.356Z"/><path class="q" d="M182.153,44.177c-1.611,2.708-8.32-8.294-14.317-6.22s-5,4.637-11.736,9.37c-5.833,4.087-16.037-.094-27.848-3.06-1.825-.465-3.7-.894-5.6-1.265-3.326-.647-9.879-3.826-15.111-7.874a29.749,29.749,0,0,1-5.29-5.072,11.921,11.921,0,0,1-2.164-3.945,5.546,5.546,0,0,1,1.261-5.567C108.766,12.281,143.892-.97,173.665.056S183.754,41.468,182.153,44.177Z"/><path class="u" d="M219.07,293.687c-.04.14-.07.29-.1.43v.01"/><path class="v" d="M113.956,135.733C100.664,121.909,59.1,301.014,56.9,323.533"/></svg>