<?xml version="1.0" encoding="utf-8"?>
<!-- Generator: Adobe Illustrator 23.0.6, SVG Export Plug-In . SVG Version: 6.00 Build 0)  -->
<svg version="1.1" id="Ebene_1" xmlns="http://www.w3.org/2000/svg" xmlns:xlink="http://www.w3.org/1999/xlink" x="0px" y="0px"
	 viewBox="0 0 595.3 841.9" style="enable-background:new 0 0 595.3 841.9;" xml:space="preserve">
<style type="text/css">
	.st0{fill:#837058;}
	.st1{fill:#675845;}
	.st2{fill:#BBD271;}
	.st3{fill:#E7C298;}
	.st4{opacity:0.24;fill:#292929;}
	.st5{fill:#D8B68F;enable-background:new    ;}
	.st6{fill:#E9C499;enable-background:new    ;}
	.st7{opacity:0.15;fill:#FFFFFF;}
	.st8{fill:#BEDE71;}
	.st9{fill:#3E3F37;}
	.st10{fill:#BC4241;}
	.st11{fill:#FFC849;}
	.st12{fill:#FFE399;}
	.st13{fill:#F9B700;}
	.st14{fill:#6AA4F5;}
	.st15{fill:#FFCA4A;}
	.st16{opacity:0.14;fill:#292929;}
	.st17{fill:#DD8080;}
	.st18{fill:#FFFFFF;}
	.st19{opacity:0.22;}
	.st20{fill:#1D1D1B;}
	.st21{opacity:0.22;fill:none;stroke:#FFFFFF;stroke-width:10;stroke-miterlimit:10;}
	.st22{opacity:0.22;fill:#1D1D1B;}
	.st23{fill:#282827;}
	.st24{opacity:0.22;fill:none;stroke:#5C5C5B;stroke-width:2;stroke-miterlimit:10;}
	.st25{fill:none;stroke:#837058;stroke-width:5;stroke-miterlimit:10;}
</style>
<path class="st0" d="M222.7,529.1c-6.3,0-8.7-13.2-12-38.9c-3.3-25.7-9.2-74.4-5.9-80.2c3.3-5.8,8.5-5.7,32.5,2.2
	c28.9,9.6,48.4,48.4,48.4,48.4S242.4,529.1,222.7,529.1z"/>
<path class="st1" d="M230.9,533.4c-6.3,0-8.7-13.2-12-38.9c-3.3-25.7-9.2-74.4-5.9-80.2c3.3-5.8,8.5-5.7,32.5,2.2
	c28.9,9.6,48.4,48.4,48.4,48.4S250.7,533.4,230.9,533.4z"/>
<path class="st2" d="M274.7,229.3c-1.2,2.2-2.3,4.7-3.1,7.5c0.9,1.5,1.9,3,3.1,4.4c-0.8,0.1-1.6,0.4-2.2,1c-1.6,1.5-1.6,3.9-0.2,5.5
	c0.8,0.9,1.9,1.3,2.9,1.3h0.1c-0.5,1.3-0.9,2.6-1.3,4c-5.9,21.8-9.3,29.2-11.6,35c-1,2.5-1.8,4.7-2.6,7.7c-0.1,0.4-0.2,0.8-0.3,1.2
	c-0.1,0.5-0.2,0.9-0.3,1.4c-0.5,2.4-0.5,5.1,0,7.9c0.1,0.4,0.2,0.8,0.2,1.2c0,0,0,0,0,0.1c0.7,3.3,2.1,6.7,4,9.8c0,0,0,0,0,0
	c0.3,1.7,0.6,3.7,0.9,5.8c-17.1-11.9-26.7-3.8-32.6,2.5c-0.4,0.4-0.8,0.8-1.1,1.2c-1.2-26.8,1.2-70.7,7.7-81
	c5.2-8.2,21.9-15.9,35.1-21c2.2-0.9,4.4-1.6,6.3-2.3c-1.2,1.2-2.3,2.6-3.3,4.1C275.7,227.4,275.2,228.3,274.7,229.3z"/>
<path class="st3" d="M389.1,321.7L389.1,321.7c-2.7,26-5.5,48.2-5.5,48.2l-8.6,18.2l-24.6,52l-16,33.9l-34.6-38.5l-46.1-51.4
	c0,0-0.6-1.2-1.7-3.2c-4.1-7.7-14.4-27.2-18.7-33.8c-1.5-2.3-2.5-10.1-2.9-20.4c0.4-0.4,0.8-0.8,1.1-1.2c6-6.3,15.5-14.5,32.6-2.5
	c-0.3-2.1-0.6-4.1-0.9-5.8c0,0,0,0,0,0c-1.9-3.1-3.3-6.5-4-9.8c0,0,0,0,0-0.1c-0.1-0.4-0.2-0.8-0.2-1.2c-0.5-2.8-0.5-5.5,0-7.9
	c0.1-0.5,0.2-1,0.3-1.4c0.1-0.4,0.2-0.8,0.3-1.2c0.8-3,1.6-5.2,2.6-7.7c2.3-5.8,5.6-13.2,11.6-35c0.4-1.4,0.8-2.8,1.3-4h-0.1
	c-1.1,0-2.2-0.4-2.9-1.3c-1.5-1.6-1.4-4.1,0.2-5.5c0.6-0.6,1.4-0.9,2.2-1c-1.2-1.4-2.2-2.9-3.1-4.4c0.8-2.7,1.9-5.2,3.1-7.5
	c0.5-1,1.1-1.9,1.7-2.7c1-1.5,2.1-2.8,3.3-4.1c4.8-1.7,8.5-2.9,10.2-3.4c0.7-0.2,1-0.3,1-0.3s0.2-0.2,0.6-0.5
	c0.8-0.7,2.5-1.9,5.2-3.1c2.5-1.1,5.8-2.2,10.1-2.9c1.6-0.2,3.3-0.4,5.2-0.5c3.7-0.2,7.9-0.1,12.7,0.5c4.2,0.5,8.8,1.4,13.9,2.8
	c0.2,1.1,0.4,2.2,0.7,3.3c11.5,5.3,19.2,12.8,17.3,18.8c0.8,0.1,1.5,0.4,2,0.9c1.4,1.5,1,4.1-1,5.9c-1.1,1.1-2.5,1.6-3.8,1.5
	c2.6,15.5,17.8,27.9,23.6,49.7c0.3,1.1,0.5,2.2,0.6,3.3c0.1,0.9,0.2,1.9,0.2,2.8c0,2.8-0.5,5.4-1.5,7.8c-0.2,0.4-0.3,0.9-0.5,1.3
	c0,0.1-0.1,0.2-0.1,0.3c-0.8,2.1-1.9,4-3,5.9C378.2,316.6,388.4,317.5,389.1,321.7z"/>
<path class="st2" d="M389.1,321.7c-0.7-4.1-10.9-5.1-16.2-5.1c1.2-1.8,2.2-3.8,3-5.9c0-0.1,0.1-0.2,0.1-0.3c0.2-0.4,0.3-0.8,0.5-1.3
	c0.9-2.4,1.5-5,1.5-7.8c0-0.9-0.1-1.8-0.2-2.8c-0.1-1.1-0.3-2.2-0.6-3.3c-5.8-21.8-21-34.2-23.6-49.7c1.2,0.1,2.6-0.4,3.8-1.5
	c1.9-1.8,2.3-4.4,1-5.9c-0.5-0.5-1.2-0.9-2-0.9c2-6.1-5.7-13.5-17.3-18.8c-0.3-1.1-0.5-2.2-0.7-3.3c0.3,0.1,0.6,0.2,0.9,0.3
	c0.8,0.2,1.7,0.5,2.5,0.7c6.3,1.9,46,18.9,51.4,25.4C396.4,245.2,392.8,286.8,389.1,321.7z"/>
<ellipse class="st4" cx="315.2" cy="333.7" rx="54.5" ry="64.5"/>
<g>
	<path class="st5" d="M291.7,682.7c-7.4,38,0.2,64.4-17.9,77c-9.9,0.2-12.5-38-14-81.1c-9.8-48.9-0.4-82,11-82.8
		C282.2,595,291.6,635.5,291.7,682.7z"/>
	<path class="st5" d="M339.3,681.1c3.6,77,3.1,60.5,12.6,60.4c9.6-0.1,7.9,4.5,16.9-58.5c14.5-62.4,0.8-93.5-10.3-92.7
		C347.5,591,327.9,599.2,339.3,681.1z"/>
	<path class="st3" d="M294.3,602.1c-2.6,46.4-11.2,68.9-21.5,67.4c-12.8-6.7-21.6-11.3-23.4-65.9c-2-59.9,7-113.7,20.5-114.5
		C283.5,488.2,297.7,541.4,294.3,602.1z"/>
	<path class="st6" d="M318.1,478.7c-0.3,7.5-0.9,15.2-1.7,23.1c-0.6,6.1-5.9,13.1-6.8,19.3C301.2,578,299.2,623,286.4,637
		c-3.1,3.4-6.4,5.1-9.6,4.8c-5-0.5-9.6-5.7-13.6-14.5c-9.3-20.5-15.5-61.9-15.1-112.3c0.2-29.5,2.7-57.9,6.8-82.1l0,0
		c1.3-7.4,2.7-14.4,4.2-20.9c7-16.4,22-30.1,41-36.6c7.4,11.2,13.6,30.6,16.5,56.2l0,0C318.2,445.5,318.9,461.4,318.1,478.7z"/>
	<path class="st3" d="M377.1,562.7c-0.5,53.5-11.5,96.5-24.6,99.8c-12.9,3.3-16.2-18.1-26.2-84.8c-8.1-54.2,8.8-109.8,23.9-115.1
		C365.4,457.4,377.5,504.3,377.1,562.7z"/>
	<path class="st6" d="M368.4,630.6c-2.4,5.7-5.2,9.4-8.1,10.8c-3.8,1.8-7.6-0.4-11.2-5.9c-9.3-14.4-13.4-50.9-23.3-96.9
		c-2.3-10.6-7.7-29.6-9.2-39.1c-1.3-8.1-2.2-15.7-2.9-22.9c-1.8-18.4,3.8-30.4,4.9-43.6c2.6-31,11.4-48.5,19.9-58.2
		c14.3,4.1,25.6,14.6,31.3,28.6c1.4,5.7,2.7,12,3.9,18.7c4,22.8,6.8,50.7,7.7,80.6C383.1,560.5,377.4,609.6,368.4,630.6z"/>
	<path class="st3" d="M378.5,594.9c-1.2,12.5-5.9,22.9-10.5,23.6c-1.7,0.3-3.3-0.9-4.4-3.1c2.7-7.1,4.3-14.5,4.6-21.9
		c0.3-5.7-0.3-10.9-1.6-15.4c1.6-2.9,3.5-4.8,5.4-5.1C376.8,572.3,379.7,582.2,378.5,594.9z"/>
	<path class="st3" d="M354.9,398.4c12.9-0.8,23.4,10,22.4,22.9c-0.4,5.7-0.8,10.2-0.8,10.3l0,0c-0.8,8.3-3.3,16.1-7.1,23.1
		c-8.9,16.7-26.6,42.1-45.3,47c-5.5,1.4-14.2-1.9-20.1-1.8c-7,0.1-9.7-27.5-16.1-25.4c-26.9,8.5-34,22.3-38.4,6.5
		c-3.5-12.4-2.7-75.5,2.2-76.5L354.9,398.4z"/>
</g>
<ellipse class="st7" cx="355.3" cy="548.8" rx="18.6" ry="69.7"/>
<ellipse transform="matrix(7.106112e-02 -0.9975 0.9975 7.106112e-02 -307.466 793.8912)" class="st7" cx="272.5" cy="562" rx="68.3" ry="18.6"/>
<g>
	<path class="st2" d="M378,417.8c-1.2,15.3-11.3,21.3-27.5,22.4c-11.9,0.8-27.2-1.1-44.7-4c-2-0.2-3.9-0.5-5.8-0.7
		c-35-4.2-52.1-9.4-51.4-32.2c-0.2-8.4,1.4-15.7,3.6-22.4c4.3-12.9,11.2-23.7,12.6-35.5c0.5-2.8,0.7-6.1,0.6-9.5c0-0.2,0-0.4,0-0.5
		c-0.1-3.1-0.3-6.2-0.6-9.2c0-0.1,0-0.1,0-0.2c-0.1-1-0.2-2-0.4-2.9c-0.3-2.1-0.6-4.1-0.9-5.8c0,0,0,0,0,0c-0.3-1.7-0.5-3.1-0.8-4.2
		c-0.2-1.2-0.4-1.9-0.4-1.9c0.8,0.5,1.8,0.9,2.8,1.3c0.7,0.3,1.4,0.5,2.1,0.8c7,2.4,16.3,3.8,21.9,3.9c6.9,0.2,13-0.9,15.9-2.5
		c7.1-3.7,13.8-2.6,22.7-0.5c5.2,1.2,11.2,2.7,18.4,3.8c7.8,1.1,18.2-0.4,22.9-2.3c0,0.3-0.2,0.9-0.7,2c-0.1,0.3-0.3,0.7-0.5,1.2
		c-0.5,1.3-1.1,3-1.8,5.1c-0.2,0.8-0.5,1.6-0.7,2.4c-0.1,0.4-0.2,0.8-0.3,1.2c-0.5,1.8-0.9,3.8-1.2,5.9c-0.1,0.4-0.1,0.7-0.2,1.1
		c-0.5,3.8-0.8,8-0.6,12.7c0.6,12.1,7.5,25.8,11.8,40.8C377.7,397.6,379.4,407.5,378,417.8z"/>
	<path class="st8" d="M378.1,301.4c0,2.8-0.5,5.4-1.5,7.8c-0.2,0.4-0.3,0.9-0.5,1.3c0,0.1-0.1,0.2-0.1,0.3c-0.8,2.1-1.9,4-3,5.9
		c-1.8,2.9-4.1,5.4-6.8,7.4c-0.8,0.6-1.8,1.2-2.7,1.7c-0.5,0.3-1,0.5-1.5,0.7c-0.2,0.1-0.4,0.2-0.6,0.3c-1,0.4-2,0.8-3,1.2
		c-0.2,0.1-0.4,0.1-0.7,0.2c-4.4,1.3-8.5,1.4-11.5,0.1c-10.9-5.1-38.2-1.4-58.1,1.7c-5.4,0.8-10.2-0.2-14.3-2.3
		c-0.6-0.3-1.2-0.7-1.7-1c0,0-0.1-0.1-0.1-0.1c-0.6-0.4-1.1-0.8-1.7-1.2c-0.3-0.2-0.6-0.4-0.8-0.7c-0.1,0-0.1-0.1-0.2-0.1
		c-0.1-0.1-0.2-0.2-0.4-0.3c-0.3-0.3-0.7-0.6-1-1c-0.3-0.3-0.5-0.5-0.8-0.8c-1.4-1.5-2.7-3.2-3.8-5c0,0,0,0,0,0
		c-1.9-3.1-3.3-6.5-4-9.8c0,0,0,0,0-0.1c-0.1-0.4-0.2-0.8-0.2-1.2c-0.5-2.8-0.5-5.5,0-7.9c0.1-0.5,0.2-1,0.3-1.4
		c0.1-0.4,0.2-0.8,0.3-1.2c0.8-3,1.6-5.2,2.6-7.7c2.3-5.8,5.6-13.2,11.6-35c0.4-1.4,0.8-2.8,1.3-4c0-0.1,0-0.1,0.1-0.2
		c0,0,0.1,0.1,0.1,0.1c0,0,0,0,0,0c1.3,1.6,3.2,3.1,5.2,4.5c4.3,3,9.5,5.7,13.5,8.3c11.9,7.7,8.7,3.9,23.7,10.1
		c7.1-4.2,12.3-1,22.2-9c4.7-3.8,11.2-11.7,13.4-17.3c0-0.1,0.1-0.2,0.1-0.3c0,0,0-0.1,0.1-0.1c0,0,0,0.1,0,0.1c0,0.1,0,0.2,0.1,0.3
		c2.6,15.5,17.8,27.9,23.6,49.7c0.3,1.1,0.5,2.2,0.6,3.3C378,299.5,378.1,300.5,378.1,301.4z"/>
	<path class="st8" d="M356.4,237.3c0,0.1,0,0.1-0.1,0.2c0-0.1,0-0.1,0-0.2c-1.3-7.4-7.9-12.6-16.4-15.9c-9.7-3.9-21.8-5.3-30.8-4.8
		c-4.9,0.3-9.6,1.3-13.8,3c-0.7,0.3-1.5,0.6-2.2,1c-0.5,0.2-1,0.5-1.5,0.8c-5.8,3.2-10.7,7.9-14.4,14.5c-1,1.7-1.8,3.5-2.6,5.5
		c0,0,0,0.1,0,0.1c0,0,0-0.1-0.1-0.1c-1.2-1.4-2.2-2.9-3.1-4.4c0.8-2.7,1.9-5.2,3.1-7.5c0.5-1,1.1-1.9,1.7-2.7
		c1-1.5,2.1-2.8,3.3-4.1c4.8-5,10.8-8,17.4-9.5c2.9-0.7,6-1.1,9-1.2c1.9-0.1,3.8-0.1,5.8,0c3.8,0.2,7.6,0.7,11.2,1.5
		c5.1,1.1,10.1,2.7,14.5,4.6c0.5,0.2,1,0.4,1.5,0.7C350.7,223.7,358.4,231.2,356.4,237.3z"/>
	<path class="st8" d="M277.8,247.9c-0.7,0.6-1.5,1-2.3,1c0,0,0,0-0.1,0c0,0-0.1,0-0.1,0h-0.1c-1.1,0-2.2-0.4-2.9-1.3
		c-1.5-1.6-1.4-4.1,0.2-5.5c0.6-0.6,1.4-0.9,2.2-1c0,0,0.1,0,0.1,0c1.1-0.1,2.3,0.3,3.2,1.2C279.4,244,279.3,246.5,277.8,247.9z"/>
	<path class="st8" d="M357.4,244.1c-1.1,1.1-2.5,1.6-3.8,1.5c-0.1,0-0.1,0-0.2,0h0c0,0,0,0,0,0c-0.7-0.1-1.4-0.4-1.9-0.9
		c-1.4-1.5-1-4.1,1-5.9c1.2-1.1,2.6-1.6,3.8-1.5c0,0,0.1,0,0.1,0c0.8,0.1,1.5,0.4,2,0.9C359.8,239.7,359.3,242.3,357.4,244.1z"/>
	<path class="st4" d="M376,310.7c-0.8,2.1-1.9,4-3,5.9c-1.8,2.9-4.1,5.4-6.8,7.4c-0.2,0.8-0.5,1.6-0.7,2.4c-0.1,0.4-0.2,0.8-0.3,1.2
		c-0.5,1.8-0.9,3.8-1.2,5.9c-17.1-8.5-64-6.7-98.7,2c-0.1-3.1-0.3-6.2-0.6-9.2c0-0.1,0-0.1,0-0.2c-0.1-1-0.2-2-0.4-2.9
		c-0.3-2.1-0.6-4.1-0.9-5.8c0,0,0,0,0,0c-1.9-3.1-3.3-6.5-4-9.8c0.3,0.2,0.6,0.5,0.9,0.8l0,0c1.6,1.4,3.2,2.9,4.8,4.2
		c0.1,0.1,0.1,0.1,0.2,0.2c0.6,0.5,1.2,1,1.9,1.5h0c6.3,4.4,14.9,6,23,4.4c12.8-2.5,24-5.2,37.6-4.3c4.6,0.3,9.4,1.1,14.6,2.4
		c5.6,1.4,21.5,0.7,28.1-2.5c0.2-0.1,0.4-0.2,0.6-0.3C372.6,313,374.3,311.9,376,310.7z"/>
	<path class="st8" d="M266.8,327.1"/>
</g>
<path class="st9" d="M315.1,399.3c-43.6-2.7-62.6-5.8-68.6-7.7c0.8-1.8,1.6-3.5,2.5-5.3c3.4,7.4,127.3,10.7,129.3,12
	c0.6,0.4,1.3,1.5,2.1,3.4C370,401.9,345.1,401.2,315.1,399.3z"/>
<path class="st9" d="M391.6,534.8c-1.5-0.6-3.1-1.1-5-1.5c-2.9-0.6-6.3-0.8-10.2-0.8c-3.6,0-7.6,0.2-11.9,0.5
	c-3,0.2-6.1,0.5-9.3,0.9c-4.7,0.5-9.5,1.2-14.6,2c-3,0.5-6,0.9-9,1.4c-5.6,0.9-11.3,1.9-17,2.9c-3,0.5-6,1.1-9,1.6
	c-6.5,1.1-13,2.2-19.3,3.3c-3.1,0.5-6.2,1-9.2,1.4c-4.9,0.7-9.7,1.4-14.3,1.9c-3.4,0.4-6.6,0.7-9.7,0.9c-5.6,0.4-10.6,0.5-15,0.2
	c-3.9-0.2-7.3-0.8-10.1-1.7c-8-2.6-10.7-8.4-5.3-18.8c24-46.6,3-83.6,21.1-131.1c0.1,0,0.3,0.1,0.4,0.1c0.1-0.2,0.1-0.5,0.2-0.7
	l8.5,2.7c2.9,0.5,6.4,1.1,10.7,1.7c3,0.4,6.3,0.8,10.1,1.2c3.5,0.4,7.4,0.7,11.7,1.1c3.1,0.3,6.5,0.6,10.1,0.8
	c4.2,0.3,8.8,0.7,13.7,1c1.4,0.1,2.8,0.2,4.3,0.3c1.9,0.1,3.9,0.2,5.9,0.4c3.6,0.2,7.3,0.4,11.1,0.6c3.4,0.2,6.8,0.3,10.2,0.5
	c4.5,0.2,9,0.4,13.2,0.6c3.6,0.1,7,0.2,10.2,0.3c4,0.1,7.6,0.2,10.8,0.2h1.3c2.6,0,4.9,0,6.7-0.1c0.5,1.4,0.9,3,1.4,4.7
	C394.1,447.3,408.1,527.6,391.6,534.8z"/>
<ellipse transform="matrix(0.8472 -0.5312 0.5312 0.8472 -360.4435 250.134)" class="st10" cx="254.7" cy="751.7" rx="35.1" ry="18.5"/>
<ellipse transform="matrix(0.9984 -5.725675e-02 5.725675e-02 0.9984 -43.1418 21.6174)" class="st10" cx="355.7" cy="763.7" rx="17.3" ry="36.2"/>
<g>
	<g>
		<path class="st11" d="M404.2,212.3c-8.3-21.4,14.4-45.7,2.2-72.8c-12.2-27.2-42.7-17.2-44.2-11.9c-1.6,5.2,30.8,16.9,7.1,81.7
			c-21,57.3,8.5,52,6.7,66.9S424.9,265.6,404.2,212.3z"/>
		<path class="st12" d="M373.7,122c26.9-0.6,35.3,29.1,30.7,46.7c-5,19.4-6.7,30.5,2.4,55.4c9.4,25.9-6.8,43.6-21.6,52.7
			c-11.4,7,27.4-14.9,15.7-45.8c-9.4-24.7-16.6-32.1-4.6-71.2C400.1,147.7,382.3,124.5,373.7,122z"/>
		<path class="st13" d="M377.1,200.5c-3.1-11.2-11.2,31.9,0.7,52.5c11.9,20.6,11.5-15.5,5.9-23.8C378.6,221.7,378.6,206,377.1,200.5
			z"/>
	</g>
	<circle class="st14" cx="366.8" cy="127.1" r="5.8"/>
	<circle class="st14" cx="369.2" cy="137.4" r="5.8"/>
	<path class="st15" d="M343.8,106.3c0.9,0.7,1.8,1.4,2.6,2.1c2.1,1.7,4.1,3.3,5.9,4.8c21.1,18,23.6,29.8,0.3,66.4
		c-2.7,4.2-5.7,8.8-9.1,13.8c-4.4,6.4-9.2,10.7-14.3,13.2c-36.6,17.8-85.5-57.7-80.6-76.2C254.3,109.2,321.3,88.7,343.8,106.3z"/>
	<path class="st3" d="M333.1,198.1c-4.7,3.8-10.2,6.4-16.1,7.2c-6.5,0.9-12.9-0.4-18.8-3.4c-14.5-7.4-23.9-32.8-25.6-48.4
		c-1.2-10.6,0.2-45.6,29.2-52.8c22.1-5.5,58,11.3,54.5,42.4C351.8,181.9,346.3,187.4,333.1,198.1z"/>
	<path class="st4" d="M285.1,151.9c-4.3-0.7,2.6-3.9,9.4-4.4c10.2-0.8,16,3.5,14.4,3.4C303.3,150.5,287.9,152.4,285.1,151.9z"/>
	<path class="st4" d="M332.3,148.1c3.8,0.4,12.8,3.9,9.8,5.1c-2.1,0.9-14.1-3.4-22.9-2.9C318,150.4,321.2,147.1,332.3,148.1z"/>
	<path class="st3" d="M339.9,225c0.6,2.2,1.4,4.4,2.2,6.5c-16.6,4.7-33.2,4.3-49.6-1.3c1.1-2.4,2-4.9,2.8-7.3
		c0.5-1.6,0.9-3.3,1.3-4.9c0.2-0.8,0.3-1.7,0.5-2.5c0.6-3.9,0.8-7.8,0.5-11.7c-0.4-5.1-1.5-10.2-3.5-15.4c-0.1-0.2-0.1-0.3-0.2-0.5
		c1.2-0.3,2.3-0.6,3.5-0.9c8.4-2,16.9-2.7,25.3-2c1.7,0.1,3.5,0.3,5.2,0.6c0.1,0,0.2,0,0.2,0c0.3,0,0.7,0.1,1,0.1
		c4.5,0.7,8.9,1.9,13.4,3.4c-0.2,0.6-0.5,1.1-0.7,1.7c-3.5,9-4.7,18-3.4,27c0.2,1.2,0.4,2.5,0.7,3.8
		C339.4,222.8,339.6,223.9,339.9,225z"/>
	<path class="st4" d="M331,199c-1.2,8.9-6.2,15.3-16.2,15.1c-8.2-0.2-10.6-4.9-13.2-11.5c6.3,3,8.6,4.2,15.6,3.3
		C323.5,204.9,325.9,202.8,331,199z"/>
	
		<ellipse transform="matrix(0.9999 -1.184476e-02 1.184476e-02 0.9999 -1.5661 4.2333)" class="st15" cx="356.6" cy="134.3" rx="11.2" ry="24.8"/>
	
		<ellipse transform="matrix(0.9999 -1.184476e-02 1.184476e-02 0.9999 -1.5579 3.2502)" class="st15" cx="273.6" cy="133.1" rx="14.9" ry="16.1"/>
	<path class="st16" d="M351.7,165.3c0,7.9-8,7.8-6.7,7.5C346.3,172.5,351.7,164.5,351.7,165.3z"/>
	<path class="st16" d="M276.3,161.5c-1.6,7.3,8.7,8.6,7.3,8.5C282.3,169.8,276.5,160.6,276.3,161.5z"/>
	<g>
		<path class="st17" d="M300.1,183.8c1.7,1,6-1.6,9.9-0.9c1.1,0.2,2.1,1,3.2,1.2c1.1,0.1,2.8-0.6,3.9-0.5c4.8,0.5,8,4.2,10.5,3.4
			c5.7-1.9,0.5,2.5-0.3,3.2c-0.8,0.8-15.1,10.6-27-0.6C293.7,183.4,297.8,182.5,300.1,183.8z"/>
		<path class="st18" d="M308.7,188.4c1.4,1.2,8.1,0.9,8.6,0.8C317.8,189.1,308,187.7,308.7,188.4z"/>
	</g>
	<path class="st15" d="M347.8,131.1c-1.6,2.7-8.3-8.3-14.3-6.2c-6,2.1-5,4.6-11.7,9.4c-5.8,4.1-16-0.1-27.8-3.1
		c-1.8-0.5-3.7-0.9-5.6-1.3c-3.3-0.6-9.9-3.8-15.1-7.9c-2.1-1.6-3.9-3.3-5.3-5.1c-1-1.3-1.8-2.6-2.2-3.9c-0.6-2-0.3-3.9,1.3-5.6
		c7.4-8.3,42.5-21.5,72.3-20.5C369,88,349.4,128.4,347.8,131.1z"/>
</g>
<path class="st12" d="M243,119.9c0.7,1.3,1.5,2.5,2.3,3.5c-1.1-1.2-2-2.4-2.5-3.6C242.8,119.7,242.9,119.8,243,119.9z"/>
<g class="st19">
	<g>
		<path class="st20" d="M250.6,461.6c1.3,12.7,2.6,25.7,1.6,40.2c-1,12.8-8.8,33.5-13.5,45.9c-0.2,0.6-0.5,1.2-0.7,1.8
			c-3.9-0.2-7.3-0.8-10.1-1.7c0.4-1.1,0.9-2.3,1.4-3.6c4.5-11.9,12-31.8,12.8-43.1c1-13.6-0.3-26.3-1.5-38.5
			c-2-19.7-4.1-40.2,3.6-64.5c0.1-0.2,0.1-0.5,0.2-0.7l8.5,2.7l1.1,0.4C246.7,423.1,248.6,441.8,250.6,461.6z"/>
	</g>
</g>
<g class="st19">
	<g>
		<path class="st20" d="M298.2,499.5c-0.6,12.6-7.6,33-11.9,45.6c-3.1,0.5-6.2,1-9.2,1.4l-1.7-0.6c0.3-1,0.7-2.1,1.1-3.3
			c4.2-12,11.2-32.2,11.7-43.6c0.6-13.7-1-26.3-2.6-38.4c-2.3-17.5-4.6-35.5-0.2-56.5c3.1,0.3,6.5,0.6,10.1,0.8
			c-4.5,19.8-2.3,36.6,0.1,54.4C297.2,471.9,298.9,485,298.2,499.5z"/>
	</g>
</g>
<g class="st19">
	<g>
		<path class="st20" d="M274.5,503.9c-0.6,12.3-7.3,31.8-11.7,44.5c-3.4,0.4-6.6,0.7-9.7,0.9l-1.1-0.4l0.6-1.9
			c4.2-12,11.3-32.2,11.8-43.6c0.7-13.7-0.9-26.3-2.5-38.4c-2.5-19.3-5-39.3,1.6-63.2c3,0.4,6.3,0.8,10.1,1.2
			c-6.6,22.6-4.3,41.1-1.8,60.7C273.5,476.3,275.2,489.4,274.5,503.9z"/>
	</g>
</g>
<g class="st19">
	<g>
		<path class="st20" d="M322.2,505.9c-0.3,9.5-4.2,23.4-7.6,34.3c-3,0.5-6,1.1-9,1.6l-1.8-0.6c2-6.2,8.1-25.1,8.4-35.6
			c0.5-13.7-1.3-26.2-3.1-38.4c-2.7-18.8-5.5-38.1,0.1-61.3c1.4,0.1,2.8,0.2,4.3,0.3c1.9,0.1,3.9,0.2,5.9,0.4
			c-5.7,22-3.1,40.1-0.4,59.2C320.8,478.4,322.6,491.4,322.2,505.9z"/>
	</g>
</g>
<g class="st19">
	<g>
		<path class="st20" d="M346.2,505.6c-0.1,6.9-1.8,16.6-5.6,30.3c-3,0.5-6,0.9-9,1.4l-1.7-0.5c4.1-14.6,6.2-24.9,6.2-31.3
			c0.1-13.7-2-26.2-4-38.3c-3.1-18.3-6.3-37.3-1.6-60c3.4,0.2,6.8,0.3,10.2,0.5c-4.8,21.5-1.8,39.2,1.4,57.9
			C344.1,478.1,346.3,491,346.2,505.6z"/>
	</g>
</g>
<g class="st19">
	<g>
		<path class="st20" d="M368.9,507.4c-0.1,6-1.6,14.4-4.5,25.5c-3,0.2-6.1,0.5-9.3,0.9l-1.3-0.3c3.2-11.8,4.9-20.6,5-26.3
			c0.2-13.7-1.9-26.2-3.8-38.3c-3-18.5-6.2-37.7-1.2-60.7c3.6,0.1,7,0.2,10.2,0.3c-5.2,21.9-2.2,39.8,0.9,58.8
			C367,479.9,369.1,492.8,368.9,507.4z"/>
	</g>
</g>
<path class="st21" d="M381.2,403.1c0,0.1-0.1,0.3-0.1,0.4v0"/>
<path class="st20" d="M387.4,408.1c-0.4,0.1-1.2,0.2-2.2,0.4c-0.7,0-1.4,0.1-2.3,0.1c-1.8,0.1-4.1,0.1-6.7,0.1h-1.3
	c-3.2,0-6.8-0.1-10.8-0.2c-3.2-0.1-6.7-0.2-10.2-0.3c-4.3-0.2-8.8-0.3-13.2-0.6c-3.4-0.1-6.8-0.3-10.2-0.5
	c-3.8-0.2-7.5-0.4-11.1-0.6c-2-0.1-4-0.2-5.9-0.4c-1.5-0.1-2.9-0.2-4.3-0.3c-4.9-0.3-9.5-0.6-13.7-1c-3.6-0.3-7-0.5-10.1-0.8
	c-4.3-0.4-8.1-0.8-11.7-1.1c-3.8-0.4-7.1-0.8-10.1-1.2c-4.3-0.6-7.8-1.1-10.7-1.7l-8.5-2.7c-0.1,0.2-0.2,0.5-0.2,0.7
	c-0.2-0.1-0.3-0.1-0.4-0.1c-3.7-1.2-4.4-2.3-4.9-3l5.8-3.9c-0.1-0.1-0.2-0.2-0.2-0.3c0.3,0.2,1,0.5,1.9,0.8c6,1.9,25.1,5,68.6,7.7
	c30,1.9,55,2.6,65.3,2.4c2.4,0,4-0.1,4.8-0.2L387.4,408.1z"/>
<path class="st22" d="M391.3,505.6c0,6.4-1.6,15.5-4.8,27.7c-2.9-0.6-6.3-0.8-10.2-0.8c3.2-12.1,4.9-21.2,4.9-26.9
	c0.1-13.7-2.1-26.2-4.2-38.3c-3.1-17.9-6.3-36.4-2.2-58.5h1.3c2.6,0,4.9,0,6.7-0.1c0.5,1.4,0.9,3,1.4,4.7
	c-3.1,19.1-0.3,35.2,2.7,52.2C389.2,478,391.4,491,391.3,505.6z"/>
<g>
	<path class="st23" d="M252.9,400.2c-3.9-0.7-6.7-1.4-8.7-2c0.1-0.2,0.1-0.5,0.2-0.7L252.9,400.2z"/>
</g>
<path class="st24" d="M287,710.8c-0.5,5.3-2.1,9.6-4.6,9.6s-4.6-4.3-4.6-9.6s3-16.5,2.8-19.1C278.2,651.9,292,662.7,287,710.8z"/>
<ellipse class="st24" cx="346.5" cy="710.8" rx="4.6" ry="9.6"/>
<path class="st24" d="M254.9,373.6c-4.5-3.1-5.3-8.4-5.3-12.1s7,7.9,7,7.9"/>
<path class="st24" d="M375.9,384.7c-2.1-6.6-3.1-13.8-2.4-16.9c0.7-3.1,1-5.5,5.5-12.8c4.5-7.3,6.6-6.9,6.6-6.9"/>
<path class="st24" d="M384,363.6c-2.7,3.2-2.4,9.4-2.2,10.5"/>
<path class="st24" d="M269.6,724.1c-3.6-19.3,4.8-24.7,1.8-35c-3-10.3-13.9-20.5-13.9-20.5"/>
<path class="st24" d="M360.1,728.2c0-17,8.7-45.2,8.7-45.2"/>
<path class="st24" d="M346.6,224.8c-1,2.5-2.3,5.4-4.4,6.8c-2.1,1.4-1.7,4.7-0.3,5.2c1.4,0.4,4.3-0.1,5.7-1c1.4-0.8,4.9-5,5.4-5.8"
	/>
<path class="st24" d="M371.9,668.2c0,0-10,15-14.5,19.1c-4.6,4.2-10.5-5.8-13.7-21.6c-2.1-10.4-6.1-8.1-6.2-13.4
	c0-9.4,9.2-0.6,9.5-3.1c0.3-2.5-5.9-11.9-9.7-8.5"/>
<path class="st24" d="M253.6,647.5c14.4,5.9,33-16.9,42.3-33.9"/>
<path class="st24" d="M256,657.8c10.3,0,22.4-2.2,33.6-17.9"/>
<path class="st24" d="M249.6,568.1c6.2-1.2,6.8,14.2-0.3,14.5c-0.7,5.2,4.3,11.3,7.8,8.7c3.5-2.6,5.6-10.9,0-13
	c10-2.6,7.8-8.7,4.8-10.4c-3-1.7-6.1-0.9-6.1-0.9c9.1-6.9-5.6-13.9-6.1-3.5"/>
<path class="st25" d="M277.6,220.5c-10.9,8.4-52.7,165.3-55.1,190"/>
</svg>
