<svg xmlns="http://www.w3.org/2000/svg" xmlns:xlink="http://www.w3.org/1999/xlink" viewBox="0 0 389.241 688.322"><defs><style>.a{fill:url(#a);}.b{fill:#e9c499;}.b,.d{isolation:isolate;}.c,.u{fill:#fff;}.c{opacity:0.15;}.d{opacity:0.06;}.e{fill:#bc4241;}.f,.k,.l,.s{fill:#292929;}.f{opacity:0.24;}.g{fill:#837058;}.h{fill:#675845;}.i{fill:#c0d24a;}.j{fill:#e7c298;}.k{opacity:0.05;}.l{opacity:0.17;}.m{fill:#3e3f37;}.n{fill:#ffc849;}.o{fill:#ffe399;}.p{fill:#f9b700;}.q{fill:#6aa4f5;}.r{fill:#ffca4a;}.s{opacity:0.14;}.t{fill:#dd8080;}.v,.w,.y,.z{fill:none;stroke-miterlimit:10;}.v,.y,.z{stroke:#fff;}.v{stroke-width:10px;opacity:0.22;}.w{stroke:#837058;stroke-width:5px;}.x{fill:#7e451f;}.y{stroke-linecap:round;}.y,.z{stroke-width:2px;}.aa{fill:#c9c9c9;}.ab{fill:#878787;}.ac{fill:#a1a1a1;}.ad{fill:#e6e6e6;}.ae{fill:#28001d;}.af{fill:#69001d;}</style><radialGradient id="a" cx="238.51" cy="353.062" r="256.698" gradientTransform="translate(0 -353.062) scale(1 2)" gradientUnits="userSpaceOnUse"><stop offset="0" stop-opacity="0.2"/><stop offset="0.5" stop-opacity="0"/></radialGradient></defs><title>guest</title><ellipse class="a" cx="238.51" cy="353.062" rx="150.732" ry="330.253"/><path class="b" d="M302.422,328.67c1.564,17.656-26.585,33.6-65.789,35.386-39.223,1.79-71.211-11.388-71.427-29.121-.211-17.4,30.345-32.648,68.231-34.362C271.305,298.86,300.887,311.348,302.422,328.67Z"/><path class="b" d="M240.811,331.215c-.133,1.915-.669,12.47-2.359,25.5-.5,3.849-1.1,7.912-1.815,12.04-.451,2.577-.951,5.186-1.5,7.776-5.879,27.62-5.437,49.918-4.526,68.728.165,3.306.336,6.512.493,9.619.28,5.473.5,10.639.489,15.552-.011,8.645-.729,16.525-3.115,23.922l-.053.182c-1.665,5.111-12.675,8.754-22.291,9.337a35.2,35.2,0,0,1-7.805-.311c-3.976-.672-6.8-2.236-7.084-4.907-.177-1.645-.352-3.23-.516-4.775-.017-.21-.044-.409-.061-.619-1.341-12.711-2.144-22.339-2.917-30.5-.6-6.423-1.173-11.927-1.96-17.323-2.179-14.963-5.947-29-16.293-59.071-6.43-18.669-3.832-52.589-3.832-52.589l.68-.024,73.017-2.487Z"/><path class="b" d="M240.861,331.213l-.05,0C240.847,330.8,240.857,330.783,240.861,331.213Z"/><path class="b" d="M299.259,322.022a22.268,22.268,0,0,1,3.583,9.555c2.239,18.244,2.283,54.416.182,69.447-1.316,9.4-2.761,19.4-4.211,29.264-.625,4.2-1.251,8.378-1.859,12.481h-.01c-.144,1.045-.308,2.082-.462,3.118-4.286,28.545-8.088,52.531-8.088,52.531a.031.031,0,0,0-.02.01c-.844.47-34.161,18.753-38.658,11.114a28.842,28.842,0,0,1-1.829-3.689v-.01c-5.473-12.978-4.052-31.778-3.585-48.044.063-1.954.106-3.876.122-5.748.027-3.533-.038-6.883-.3-9.946-.054-.7-.117-1.376-.181-2.055-3.113-36.474-5.645-46.312-7.227-67.15-.077-1.078-.106-2.488-.084-4.149.039-3.234.253-7.444.556-11.987.581-8.655,1.5-18.563,2.169-25.5.519-5.261.9-8.816.9-8.816Z"/><path class="b" d="M245.458,645.272c.312,4.952-7.714,6.361-11.782,9.383-4.361,3.243-15.61,9.816-15.61,9.816s4.709-8.778,4.759-11.962c.059-3.214-3.317-8.25-4.909-12.317a9.642,9.642,0,0,1-.791-3.485c.034-1.622,1.625-3.939,2.84-6.122a10.968,10.968,0,0,0,1.313-3.107,2.906,2.906,0,0,0,.036-1c-3.237-20.36-19.978-51.33-24.916-72.582a162.985,162.985,0,0,1-2.81-17.873c-.874-7.915-1.537-16.657-2.062-25.164-.344-5.6-.634-11.1-.88-16.179a2.586,2.586,0,0,1,.082-.8,1.939,1.939,0,0,1,.241-.549c2.265-3.951,16.362-2.558,26.764-.927,5,.778,9.152,1.615,10.744,1.95.454.094.7.146.7.146s7.229,34.541,6.39,53.381c-1.284,28.531,3.922,52.035,8.723,76.264.05.278.1.687.162,1.2C244.916,629.891,245.3,642.746,245.458,645.272Z"/><path class="b" d="M276.565,620.941a61.342,61.342,0,0,0,.3,10.256c.373,4.12.868,8.295,1.033,11.061.266,4.213,1.057,16.954,1.057,16.954l5.1,17.724-16.1-9.479-1.033-20.6s-18.7-19.535-11.451-23.548a4.511,4.511,0,0,0,1.625-1.608c5.893-9.549-6.582-48.8-7.554-63.306-3.012-45.093-.519-37.8-1.649-52.545v-.01c0-.06-.015-.119-.017-.179-1.038-13.232,15.475-29.033,27.806-26.918a12.9,12.9,0,0,1,1.523.357,11.591,11.591,0,0,1,2.418,1.047,15.276,15.276,0,0,1,6.244,7.539,36.045,36.045,0,0,1,2.513,10.739c.087.768.144,1.556.193,2.375.8,13.9,5.543,32.678,4.1,46.967C290.8,566.076,278.609,601.659,276.565,620.941Z"/><path class="c" d="M294.291,336.835c-9.53,6.246-23.792,145.644-17.165,146.911S319.047,320.61,294.291,336.835Z"/><path class="c" d="M222.785,375.624c-10.093,23.025-18.61,64.09-18.178,78.068.434,14.057,14.91,29.106,17.686,13.382C225.092,451.222,231.346,356.092,222.785,375.624Z"/><path class="c" d="M222.849,508.977c-4.709,8.286,2.411,61.238,6.494,64.788C233.441,577.327,228.665,498.742,222.849,508.977Z"/><path class="c" d="M265.7,477.2c-10.21,3.61-6.632,14.382-3.892,17.911s20.325,9.161,22.348-5.151C286.161,475.8,271.581,475.119,265.7,477.2Z"/><path class="c" d="M212.123,470.125c-8.7-.57-10.977,6.526-9.384,10.147s12.3,9.918,16.95,3.6C224.315,477.59,218.087,470.515,212.123,470.125Z"/><path class="c" d="M284.3,573.651c9.22-7.8,7.16-51.265,2.284-59.244C282.362,507.5,278.861,578.249,284.3,573.651Z"/><path class="d" d="M223.412,643.453c.051-.271-2.774-1.8-5.5-3.261a9.642,9.642,0,0,1-.791-3.485c.034-1.622,1.625-3.939,2.84-6.122a10.968,10.968,0,0,0,1.313-3.107,2.906,2.906,0,0,0,.036-1c-3.237-20.36-19.978-51.33-24.916-72.582a162.985,162.985,0,0,1-2.81-17.873c-.874-7.915-1.537-16.657-2.062-25.164-.344-5.6-.634-11.1-.88-16.179a2.586,2.586,0,0,1,.082-.8c-.017-.21-.044-.409-.061-.619a1.667,1.667,0,0,1,.3.07c2.406.687,4.866,4.4,7.359,10.231,12.314,28.832,25.221,109.453,33.719,132.093C232.444,636.7,226.986,651.585,223.412,643.453Z"/><path class="d" d="M249.193,507.025c7.381,6.258,10.579,13.964,10.12,19.517s3.228,65.026-4.11,50.624S247.4,505.507,249.193,507.025Z"/><path class="e" d="M250.037,642.248c-2.051,7.276-7.509,15.631-15.634,22.927-14.836,13.318-32.713,17.846-39.692,10.016-6.914-7.768-.335-24.625,14.441-37.549a65.572,65.572,0,0,1,9.107-6.686c9.747-5.915,19.52-8.05,25.85-5.543a10.621,10.621,0,0,1,3.893,2.58,10.5,10.5,0,0,1,2.6,5.055A19.136,19.136,0,0,1,250.037,642.248Z"/><path class="e" d="M281.937,687.857c-9.806,3.12-22.77-9.812-28.813-28.543a61.281,61.281,0,0,1-2.986-15.869,40.139,40.139,0,0,1,.6-9.646c1.086-5.731,3.551-10.048,7.182-12.023a9.27,9.27,0,0,1,1.78-.748c6.247-1.923,13.861,2.688,20.106,11.255a61.7,61.7,0,0,1,8.234,16.13C294.393,666.935,291.72,684.75,281.937,687.857Z"/><path class="f" d="M231.788,472.94a83.213,83.213,0,0,1-14.107,14.773,67.746,67.746,0,0,1-11.729,7.761,45.819,45.819,0,0,1-14.682,4.817c-.279-3.721-.505-7.371-.692-10.749a1.186,1.186,0,0,1,.091-.535c-1.22-8.643-1.925-15.155-2.616-20.658,1.586-.148,3.2-.317,4.856-.5,4.186-.458,8.56-1,13.073-1.583.378-.053.757-.1,1.145-.153,3.008-.4,6.075-.829,9.181-1.275q3.793-.542,7.667-1.11,3.732-.558,7.5-1.125C231.7,466.24,231.855,469.673,231.788,472.94Z"/><path class="f" d="M296.944,442.77c-.144,1.045-.308,2.082-.462,3.118a82.565,82.565,0,0,1-8.88,7.091,63.412,63.412,0,0,1-11.852,6.514c-12.945,5.3-24.259,3.931-31.448-1.693.063-1.954.106-3.876.122-5.748,5.573-1.163,11.116-2.326,16.531-3.414q4.546-.922,8.965-1.751,3.386-.642,6.652-1.211c2.676-.473,5.3-.914,7.85-1.3,1.831-.284,3.633-.546,5.386-.777,1.325-.186,2.62-.341,3.9-.485C294.8,442.984,295.887,442.866,296.944,442.77Z"/><path class="g" d="M140.75,403.991c-4.6-2.713-6.469-2.158-10.891-39.772-3.028-25.751-6.269-35.37-2.951-41.176s50.3-12.019,74.246-4.087c28.912,9.576,6.568,54.695,6.568,54.695S178.043,404.6,152.2,407.929C146.231,408.7,142.109,404.791,140.75,403.991Z"/><path class="h" d="M149.757,407.992c-6.31-.01-8.342-13.722-11.66-39.437s-6.268-35.37-2.95-41.176,50.832-8.491,74.781-.558c28.913,9.576-3.666,72.838-3.666,72.838S169.541,408.025,149.757,407.992Z"/><path class="i" d="M196.832,142.321a37.923,37.923,0,0,0-3.15,7.45,31.766,31.766,0,0,0,3.14,4.44,3.873,3.873,0,0,0-2.41,6.53,3.954,3.954,0,0,0,2.94,1.26h.08c-.49,1.3-.94,2.64-1.33,4.05-5.94,21.76-9.27,29.16-11.57,34.95a56.768,56.768,0,0,0-2.58,7.69c-.11.4-.2.8-.3,1.23-.11.45-.22.93-.33,1.43a20.919,20.919,0,0,0,.02,7.89c.07.39.15.79.24,1.19.01.02.01.05.02.07a32.155,32.155,0,0,0,4.01,9.76v.01c.29,1.7.59,3.68.88,5.81-17.14-11.92-26.68-3.75-32.64,2.55-.38.42-.76.83-1.13,1.23-1.2-26.77,1.19-70.72,7.68-80.95,5.18-8.17,21.87-15.92,35.09-21.03,2.23-.86,4.36-1.64,6.32-2.34a32.322,32.322,0,0,0-4.98,6.78Z"/><path class="j" d="M311.292,234.721v.01c-2.73,25.98-5.48,48.21-5.48,48.21l-8.61,18.25-24.56,52.04-15.99,33.88-34.56-38.52L176,297.211s-.63-1.21-1.68-3.19c-4.06-7.71-14.41-27.16-18.66-33.79-1.49-2.32-2.48-10.08-2.94-20.37.37-.4.75-.81,1.13-1.23,5.96-6.3,15.5-14.47,32.64-2.55-.29-2.13-.59-4.11-.88-5.81v-.01a32.155,32.155,0,0,1-4.01-9.76c-.01-.02-.01-.05-.02-.07-.09-.4-.17-.8-.24-1.19a20.919,20.919,0,0,1-.02-7.89c.11-.5.22-.98.33-1.43.1-.43.19-.83.3-1.23a56.768,56.768,0,0,1,2.58-7.69c2.3-5.79,5.63-13.19,11.57-34.95.39-1.41.84-2.75,1.33-4.05h-.08a3.954,3.954,0,0,1-2.94-1.26,3.873,3.873,0,0,1,2.41-6.53,31.766,31.766,0,0,1-3.14-4.44,37.923,37.923,0,0,1,3.15-7.45,32.322,32.322,0,0,1,4.98-6.78c4.76-1.69,8.52-2.89,10.24-3.42l1.02-.31a6.838,6.838,0,0,1,.57-.51,23.313,23.313,0,0,1,5.15-3.1,39.284,39.284,0,0,1,10.08-2.89c1.6-.25,3.32-.43,5.19-.54a70.581,70.581,0,0,1,12.71.53,100.782,100.782,0,0,1,13.86,2.83c.18,1.1.4,2.21.68,3.32,11.55,5.31,19.24,12.77,17.26,18.84a3.064,3.064,0,0,1,1.99.94c1.38,1.49.95,4.12-.96,5.9a5.166,5.166,0,0,1-3.78,1.48c2.62,15.45,17.82,27.9,23.64,49.69a24.07,24.07,0,0,1,.64,3.33,22.126,22.126,0,0,1-1.31,10.59c-.15.43-.32.85-.49,1.27a2.55,2.55,0,0,1-.13.29,36.95,36.95,0,0,1-3.03,5.87C300.382,229.651,310.612,230.581,311.292,234.721Z"/><path class="i" d="M311.3,234.721c-.43-2.64-10.92-2.94-19.81-2.8a22.59,22.59,0,0,0,6.69-16.3c.23-20.97-18.18-37.24-22.33-57.01a5.19,5.19,0,0,0,3.76-1.48c1.91-1.78,2.34-4.41.96-5.9a3.064,3.064,0,0,0-1.99-.94c1.98-6.07-5.71-13.53-17.26-18.84-.28-1.11-.5-2.22-.68-3.32.31.08.63.17.95.26.82.23,1.65.47,2.49.73,6.29,1.91,45.99,18.87,51.41,25.41C318.6,158.281,314.967,199.881,311.3,234.721Z"/><path class="k" d="M311.3,234.721c-.43-2.64-10.92-2.94-19.81-2.8a22.59,22.59,0,0,0,6.69-16.3c.23-20.97-18.18-37.24-22.33-57.01a5.19,5.19,0,0,0,3.76-1.48c1.91-1.78,2.34-4.41.96-5.9a3.064,3.064,0,0,0-1.99-.94c1.98-6.07-5.71-13.53-17.26-18.84-.28-1.11-.5-2.22-.68-3.32.31.08.63.17.95.26.82.23,1.65.47,2.49.73,6.29,1.91,45.99,18.87,51.41,25.41C318.6,158.281,314.967,199.881,311.3,234.721Z"/><path class="k" d="M196.832,142.321a37.923,37.923,0,0,0-3.15,7.45,31.766,31.766,0,0,0,3.14,4.44,3.873,3.873,0,0,0-2.41,6.53,3.954,3.954,0,0,0,2.94,1.26h.08c-.49,1.3-.94,2.64-1.33,4.05-5.94,21.76-9.27,29.16-11.57,34.95a56.768,56.768,0,0,0-2.58,7.69c-.11.4-.2.8-.3,1.23-.11.45-.22.93-.33,1.43a20.919,20.919,0,0,0,.02,7.89c.07.39.15.79.24,1.19.01.02.01.05.02.07a32.155,32.155,0,0,0,4.01,9.76v.01c.29,1.7.59,3.68.88,5.81-17.14-11.92-26.68-3.75-32.64,2.55-.38.42-.76.83-1.13,1.23-1.2-26.77,1.19-70.72,7.68-80.95,5.18-8.17,21.87-15.92,35.09-21.03,2.23-.86,4.36-1.64,6.32-2.34a32.322,32.322,0,0,0-4.98,6.78Z"/><path class="i" d="M300.147,330.871c-1.24,15.35-11.29,21.32-27.5,22.36-11.92.76-27.19-1.15-44.73-3.96-1.99-.23-3.93-.45-5.82-.68-35-4.25-52.07-9.39-51.4-32.15a64.31,64.31,0,0,1,3.63-22.42c4.35-12.94,11.19-23.69,12.6-35.49a49.091,49.091,0,0,0,.63-9.52c0-.18-.01-.37-.02-.55-.02-.76-.05-1.52-.09-2.29-.11-2.34-.32-4.69-.56-6.93-.01-.07-.02-.14-.03-.22-.11-1-.24-1.99-.36-2.94-.11-.83-.23-1.63-.34-2.41-.18-1.22-.36-2.36-.54-3.4v-.01c-.29-1.7-.55-3.12-.75-4.16-.06-.3-.11-.57-.16-.8v-.02h-.01c-.13-.68-.21-1.05-.21-1.05a25.278,25.278,0,0,0,2.75,1.28c.67.28,1.38.54,2.11.79a82.438,82.438,0,0,0,21.93,3.93c6.94.16,12.98-.94,15.91-2.46,7.09-3.68,13.79-2.55,22.74-.48,5.21,1.2,11.18,2.71,18.43,3.79a50.964,50.964,0,0,0,13.28-.09c.01,0,.01,0,.02-.01a42.932,42.932,0,0,0,9.59-2.16v.02a10.16,10.16,0,0,1-.65,1.95c-.14.34-.29.72-.45,1.15-.21.55-.45,1.17-.69,1.85-.35.96-.72,2.04-1.09,3.25-.23.75-.46,1.55-.69,2.39-.1.38-.2.78-.3,1.18-.45,1.78-.87,3.75-1.19,5.89l-.12.78c-.02.11-.03.22-.05.34a68.775,68.775,0,0,0-.63,12.72c.59,12.13,7.49,25.84,11.82,40.85C299.917,310.591,301.627,320.511,300.147,330.871Z"/><path class="i" d="M298.177,215.621c0,.52-.02,1.03-.06,1.54a22.353,22.353,0,0,1-1.95,8.03,23.211,23.211,0,0,1-4.68,6.73c-.64.65-1.32,1.27-2.03,1.87-4.98,4.17-11.76,7.14-19.49,9.15-19.55,5.06-45.11,3.9-62.64.22-8.64-1.82-15.33-4.24-18.4-6.83a28.135,28.135,0,0,1-2.77-2.66,25.381,25.381,0,0,1-6.71-15.1,33.031,33.031,0,0,1-.16-3.87c.25-17.56,13.15-37.87,18.15-52.7.02-.06.04-.11.06-.17l.15.15c27.22,27.14,57.87,36.18,77.91-3.39.07-.13.13-.26.2-.39.03.14.06.27.09.41C280,178.381,298.407,194.651,298.177,215.621Z"/><path class="i" d="M278.577,150.291c-.02.06-.04.14-.06.2a1.3,1.3,0,0,0-.04-.21c-1.26-7.37-7.91-12.58-16.36-15.94a77.2,77.2,0,0,0-30.78-4.79,43.532,43.532,0,0,0-13.8,2.98c-.74.3-1.47.62-2.19.97-.5.25-.99.5-1.47.77a35.823,35.823,0,0,0-14.35,14.47,44.53,44.53,0,0,0-2.59,5.47c-.01.03-.03.07-.04.1a.607.607,0,0,1-.07-.1,31.766,31.766,0,0,1-3.14-4.44,37.923,37.923,0,0,1,3.15-7.45,32.322,32.322,0,0,1,4.98-6.78,34.681,34.681,0,0,1,17.44-9.54,50.067,50.067,0,0,1,9.04-1.23,55.525,55.525,0,0,1,5.77,0,70.71,70.71,0,0,1,11.24,1.46,76.5,76.5,0,0,1,14.54,4.57c.5.21.99.43,1.47.65C272.867,136.761,280.557,144.221,278.577,150.291Z"/><path class="i" d="M199.932,160.971a3.811,3.811,0,0,1-2.32,1.01.17.17,0,0,1-.07.01.375.375,0,0,1-.11.01h-.08a3.954,3.954,0,0,1-2.94-1.26,3.873,3.873,0,0,1,2.41-6.53.4.4,0,0,1,.11,0,3.933,3.933,0,0,1,3,6.76Z"/><path class="i" d="M279.607,157.131a5.19,5.19,0,0,1-3.76,1.48h-.02a.608.608,0,0,1-.19-.01h-.03c-.02,0-.03,0-.04-.01h-.01a3.047,3.047,0,0,1-1.89-.93c-1.37-1.49-.95-4.13.96-5.9a5.183,5.183,0,0,1,3.85-1.48.308.308,0,0,1,.1.01,3.064,3.064,0,0,1,1.99.94C281.947,152.721,281.517,155.351,279.607,157.131Z"/><path class="l" d="M298.117,217.161a22.353,22.353,0,0,1-1.95,8.03,23.211,23.211,0,0,1-4.68,6.73c-.64.65-1.32,1.27-2.03,1.87-.35.96-.72,2.04-1.09,3.25-.23.75-.46,1.55-.69,2.39-.1.38-.2.78-.3,1.18-.45,1.78-.87,3.75-1.19,5.89l-.12.78a61.91,61.91,0,0,0-16.1-4.34c-16.79-2.61-40.24-2.39-62.64.22-6.8.78-13.49,1.79-19.88,3.01-.11-2.34-.32-4.69-.56-6.93-.01-.07-.02-.14-.03-.22-.11-1-.24-1.99-.36-2.94-.11-.83-.23-1.63-.34-2.41a25.381,25.381,0,0,1-6.71-15.1,33.031,33.031,0,0,1-.16-3.87c1.16,4.37,2.84,8.42,5.41,10.58h.01a6.043,6.043,0,0,0,.71.54c11.08,7.32,23.358,5.17,50.268,5.17,26.94,0,33.642,1.97,39.742,1.2a38.483,38.483,0,0,0,6.21-1.2c.01,0,.01,0,.02-.01C287.057,229.411,294.3,225.811,298.117,217.161Z"/><path class="m" d="M304.448,449.741c-4.867-1.221-20.653-1.982-33.041,1.5-25.9,7.278-59.146,21.31-82.788,18.549-27.37-3.2-20.037-15.342-15.855-35.054,5.894-27.788-6.3-53.987-7.158-82.944a167.562,167.562,0,0,1,2.938-35.661c.855-4.273,17,1.636,65.747,5.09C287.6,325,300.7,314.1,301.812,319.7,314.478,383.41,296.355,402.11,304.448,449.741Z"/><path class="n" d="M326.332,125.289c-8.31-21.408,14.355-45.675,2.175-72.838S285.845,35.278,284.283,40.5s30.823,16.865,7.118,81.672c-20.965,57.312,8.5,51.954,6.65,66.867S347.035,178.627,326.332,125.289Z"/><path class="o" d="M295.9,35.077c26.9-.592,35.285,29.11,30.7,46.686-5.05,19.355-6.679,30.543,2.393,55.426,9.442,25.9-6.775,43.637-21.576,52.725-11.422,7.013,27.407-14.943,15.654-45.759-9.425-24.714-16.607-32.1-4.565-71.179C322.262,60.769,304.483,37.553,295.9,35.077Z"/><path class="p" d="M299.284,113.574c-3.141-11.234-11.2,31.919.677,52.53s11.549-15.483,5.9-23.824C300.776,134.771,300.812,119.039,299.284,113.574Z"/><circle class="q" cx="288.968" cy="40.146" r="5.784"/><circle class="q" cx="291.393" cy="50.404" r="5.784"/><path class="p" d="M265.99,19.339c.895.7,1.77,1.386,2.624,2.059,2.09,1.675,4.064,3.278,5.888,4.838,21.063,17.962,23.553,29.754.29,66.4-2.687,4.24-5.72,8.811-9.114,13.761-4.41,6.442-9.24,10.7-14.314,13.16C214.8,137.4,165.819,61.9,170.8,43.34,176.486,22.2,243.481,1.741,265.99,19.339Z"/><path class="j" d="M255.487,112.07a28.563,28.563,0,0,1-14.732,7.215,26.744,26.744,0,0,1-17.18-3.334c-13.224-7.335-21.733-32.791-23.248-48.4-1.03-10.607.317-45.593,26.72-52.9,20.139-5.575,52.893,11.2,49.653,42.239C272.636,95.828,267.531,101.333,255.487,112.07Z"/><path class="f" d="M212.921,70.987c-4.279-.733-2-4.361,4.767-4.859,10.215-.752,16.025,3.476,14.422,3.365C226.489,69.1,215.737,71.469,212.921,70.987Z"/><path class="f" d="M258.163,66.623c4.137.394,9.794,2.7,6.531,4.034-2.3.936-10.122-1.371-19.665-.884C243.658,69.843,246.018,65.469,258.163,66.623Z"/><path class="j" d="M262.112,138.039a62.549,62.549,0,0,0,2.24,6.544,81.879,81.879,0,0,1-49.59-1.291,59.044,59.044,0,0,0,2.77-7.3,49.012,49.012,0,0,0,1.26-4.9c.18-.827.33-1.665.46-2.491a51.106,51.106,0,0,0,.49-11.718,55.763,55.763,0,0,0-3.45-15.4c-.06-.17-.12-.34-.19-.51,1.18-.328,2.35-.634,3.53-.917a79.963,79.963,0,0,1,25.26-1.981c1.74.136,3.48.34,5.22.6a1.989,1.989,0,0,1,.25.045c.33.046.66.1.99.147a85.793,85.793,0,0,1,13.36,3.374c-.25.578-.48,1.144-.71,1.721a52.4,52.4,0,0,0-3.37,27.049c.18,1.245.4,2.5.68,3.758C261.542,135.853,261.812,136.952,262.112,138.039Z"/><path class="f" d="M253.139,111.987c-1.164,8.886-6.208,15.3-16.206,15.07-8.187-.187-10.6-4.9-13.231-11.549,6.293,3.005,8.649,4.162,15.591,3.281C245.633,117.984,248.11,115.823,253.139,111.987Z"/><path class="r" d="M289.984,47.23c.162,13.69-4.722,24.847-10.908,24.921s-8.7-14.543-11.42-28.233c-2.666-13.429,4.646-21.27,10.833-21.343S289.821,33.54,289.984,47.23Z"/><path class="r" d="M206.967,41.891c-10.268,15.67-2.639,32.691-10.844,32.789S181.115,62.1,180.928,46.36s6.314-28.575,14.52-28.672S226.718,40.1,206.967,41.891Z"/><path class="s" d="M258.385,90.907c1.766-7.663,9.531-5.816,8.24-5.826S258.207,91.68,258.385,90.907Z"/><path class="s" d="M212.8,91.55c2.862-6.872-7.063-10.055-5.7-9.644S212.463,92.355,212.8,91.55Z"/><path class="t" d="M226.284,97.815c1.339.745,4.659-1.215,7.7-.666.839.152,1.618.788,2.5.909.82.114,2.162-.475,2.983-.394,3.733.367,6.22,3.245,8.126,2.624,4.4-1.433.36,1.9-.234,2.5s-11.713,8.236-20.944-.451C221.3,97.529,224.507,96.827,226.284,97.815Z"/><path class="u" d="M232.933,101.356c1.1.958,6.261.67,6.647.6S232.369,100.863,232.933,101.356Z"/><path class="r" d="M269.93,44.177c-1.611,2.708-8.32-8.294-14.317-6.22s-4.994,4.637-11.735,9.37c-5.833,4.087-16.037-.094-27.848-3.06-1.825-.465-3.7-.894-5.6-1.265-3.326-.647-9.879-3.826-15.111-7.874a29.715,29.715,0,0,1-5.29-5.072,11.921,11.921,0,0,1-2.164-3.945,5.544,5.544,0,0,1,1.261-5.567C196.543,12.281,231.67-.97,261.443.056S271.531,41.468,269.93,44.177Z"/><ellipse class="o" cx="266.769" cy="20.077" rx="14.778" ry="9.254" transform="translate(156.445 263.793) rotate(-69.949)"/><ellipse class="o" cx="277.115" cy="33.637" rx="7.989" ry="2.916" transform="translate(99.422 248.926) rotate(-57.386)"/><path class="p" d="M189.18,46.022c-2.094-3.28-6.281,16,1.279,19.985s6.761-9.789,3.191-11.124C190.436,53.682,190.2,47.618,189.18,46.022Z"/><path class="v" d="M306.848,293.687c-.04.14-.07.29-.1.43v.01"/><path class="w" d="M201.734,135.733c-13.292-13.824-55.209,162.386-57.407,184.906"/><path class="x" d="M198.178,64.75l.055,2.8s.523-.162,2.3.7-.407,14.225,5.3,18.891c5.626,4.6,24.216,1.862,26.233-.486s2.315-16.245,6.11-17.352c3.777,1.09,4.185,14.885,6.178,17.142s19.452,4.179,24.476-.386c5-4.538,2.991-17.023,4.538-17.83s2-.654,2-.654l.027-2.611s-1.462-.44-4.947-1.781c-4.311-1.659-22.969-2.942-26.5-.119a14.909,14.909,0,0,1-5.782,2.306,15.282,15.282,0,0,1-5.862-2.359c-3.66-2.9-23.667-1.835-28.486-.128C199.855,64.288,198.178,64.75,198.178,64.75Zm45.562,3.4a5.069,5.069,0,0,1,3.239-2.977c6.881-1.516,21.411-.868,22.96,1.516,1.013,1.56.244,13.5-2.173,16.757-1.539,2.077-16.517,4.126-21.642.144C245.085,82.784,242.869,70.3,243.74,68.151Zm-39.327-1.538c1.721-2.521,17.561-3.082,24.777-1.485a5.252,5.252,0,0,1,3.351,3.025c.905,2.172-1.257,14.821-2.319,15.669-5.3,4.233-21.489,2.658-23.223.518C204.254,80.953,203.281,68.27,204.413,66.613Z"/><ellipse class="u" cx="202.624" cy="85.861" rx="2.259" ry="5.308" transform="translate(-13.531 44.56) rotate(-12.147)"/><ellipse class="u" cx="273.533" cy="84.34" rx="5.308" ry="2.259" transform="translate(156.445 345.537) rotate(-82.991)"/><ellipse class="u" cx="230.869" cy="164.396" rx="3.508" ry="2.965" transform="translate(-2.719 324.907) rotate(-69.949)"/><path class="y" d="M202.624,87.931c-.183,11.5,29.021,65.225,28.245,76.465s-23.551,28.872-29.715,36.239c-4.65,5.558-13.79,14.167-9.512,36.736s12.949,46.816,6,56.756c-15.817,22.623-32.5,3.581-42.861,10.775-6.781,4.706-.9,14.95-.9,14.95"/><path class="z" d="M273.857,85.861c-.648,9.747-14.381,29.162-12.9,38.821s-19.844,24.171-30.363,42.4"/><ellipse class="aa" cx="103.483" cy="671.116" rx="49.239" ry="12.199"/><path class="ab" d="M94.379,297.767V658.821c0,3.12,4.076,5.65,9.1,5.65s9.1-2.53,9.1-5.65V297.767Z"/><path class="ac" d="M180.665,293.514c-18.951-4.248-46.5-6.922-77.182-6.922s-58.231,2.674-77.181,6.922H0v13.8c0,11.447,46.331,20.727,103.483,20.727s103.484-9.28,103.484-20.727v-13.8Z"/><ellipse class="ad" cx="103.483" cy="293.514" rx="103.483" ry="20.726"/><ellipse class="ad" cx="103.483" cy="293.514" rx="103.483" ry="20.726"/><polygon class="ae" points="74.54 289.975 34.453 291.275 38.611 262.422 78.698 261.123 74.54 289.975"/><polygon class="af" points="86.442 294.757 46.355 296.056 38.611 262.422 78.698 261.123 86.442 294.757"/><path class="u" d="M67.058,280.035a.393.393,0,0,1,.148.229l.417,2.109a.287.287,0,0,1-.053.254.4.4,0,0,1-.212.1h-.824l.634,3.2c.046.236-.051.356-.291.356H64.583a.4.4,0,0,1-.431-.356l-.634-3.2H59.523a.391.391,0,0,1-.252-.1.369.369,0,0,1-.153-.254l-.428-2.16a.418.418,0,0,1-.009-.178.094.094,0,0,1,.01-.077,25.684,25.684,0,0,0,.921-3.749q.3-1.817.391-3.3a25.24,25.24,0,0,0,.049-2.554q-.043-1.068-.083-1.525a.246.246,0,0,1,.021-.152l.094-.114a.223.223,0,0,1,.181-.063h3.093a.4.4,0,0,1,.431.355l2.192,11.081h.825A.6.6,0,0,1,67.058,280.035Zm-5.275-5.948c0,.525-.023,1.1-.07,1.728a18.328,18.328,0,0,1-.213,1.856q-.168,1.042-.442,2.262H62.94Z"/></svg>