<?xml version="1.0" encoding="UTF-8" standalone="no"?>
<!DOCTYPE svg PUBLIC "-//W3C//DTD SVG 1.1//EN" "http://www.w3.org/Graphics/SVG/1.1/DTD/svg11.dtd">
<svg width="100%" height="100%" viewBox="0 0 119 33" version="1.1" xmlns="http://www.w3.org/2000/svg" xmlns:xlink="http://www.w3.org/1999/xlink" xml:space="preserve" xmlns:serif="http://www.serif.com/" style="fill-rule:evenodd;clip-rule:evenodd;stroke-linejoin:round;stroke-miterlimit:1.41421;">
    <path d="M118.219,4.672C118.219,2.394 116.372,0.548 114.095,0.548C95.9,0.548 22.905,0.548 4.743,0.548C3.653,0.548 2.608,0.981 1.838,1.751C1.067,2.522 0.635,3.566 0.635,4.656C0.635,4.656 0.635,4.656 0.635,4.656C0.635,7.087 2.3,9.201 4.663,9.77C11.339,11.378 24.482,14.543 29.768,15.816C31.213,16.164 32.427,17.14 33.077,18.476C33.707,19.772 34.562,21.529 35.448,23.352C36.513,25.542 38.493,27.148 40.855,27.738C43.217,28.329 45.719,27.844 47.69,26.413C50.756,24.187 54.359,21.572 57.836,19.047C67.009,12.387 78.054,8.8 89.391,8.8C98.363,8.8 108.554,8.8 114.095,8.8C116.372,8.8 118.219,6.953 118.219,4.676C118.219,4.675 118.219,4.673 118.219,4.672Z" style="fill:rgb(255,227,0);"/>
    <clipPath id="_clip1">
        <path d="M118.219,4.672C118.219,2.394 116.372,0.548 114.095,0.548C95.9,0.548 22.905,0.548 4.743,0.548C3.653,0.548 2.608,0.981 1.838,1.751C1.067,2.522 0.635,3.566 0.635,4.656C0.635,4.656 0.635,4.656 0.635,4.656C0.635,7.087 2.3,9.201 4.663,9.77C11.339,11.378 24.482,14.543 29.768,15.816C31.213,16.164 32.427,17.14 33.077,18.476C33.707,19.772 34.562,21.529 35.448,23.352C36.513,25.542 38.493,27.148 40.855,27.738C43.217,28.329 45.719,27.844 47.69,26.413C50.756,24.187 54.359,21.572 57.836,19.047C67.009,12.387 78.054,8.8 89.391,8.8C98.363,8.8 108.554,8.8 114.095,8.8C116.372,8.8 118.219,6.953 118.219,4.676C118.219,4.675 118.219,4.673 118.219,4.672Z"/>
    </clipPath>
    <g clip-path="url(#_clip1)">
        <path d="M21.597,50.296C21.545,38.232 31.009,28.946 47.269,20.088C56.08,15.287 60.408,7.529 66.83,2.62C70.944,-0.525 86.531,-13.276 93.743,-13.459C95.435,-13.501 99.471,-10.498 98.142,-11.018C93.274,-12.922 14.67,46.341 21.597,50.296Z" style="fill:rgb(255,251,208);"/>
        <path d="M30.213,31.076C31.044,25.102 40.327,17.971 42.898,13.35C44.591,10.308 46.258,7.208 48.073,4.304C49.128,2.615 54.538,-7.882 56.58,-8.027C57.059,-8.061 57.524,3.128 57.291,4.28C56.57,7.839 50.038,8.408 48.587,11.282C46.881,14.662 47.089,20.683 44.716,23.266C42.908,25.236 30.213,31.076 30.213,31.076Z" style="fill:rgb(255,251,208);"/>
    </g>
</svg>
