<?xml version="1.0" encoding="utf-8"?>
<!-- Generator: Adobe Illustrator 23.0.1, SVG Export Plug-In . SVG Version: 6.00 Build 0)  -->
<svg version="1.1" id="Ebene_1" xmlns:serif="http://www.serif.com/"
	 xmlns="http://www.w3.org/2000/svg" xmlns:xlink="http://www.w3.org/1999/xlink" x="0px" y="0px" viewBox="0 0 595.3 128.2"
	 style="enable-background:new 0 0 595.3 128.2;" xml:space="preserve">
<style type="text/css">
	.st0{fill:#FFCC3B;}
	.st1{fill-rule:evenodd;clip-rule:evenodd;fill:#FFBD39;}
	.st2{opacity:0.3;fill:#B78413;}
</style>
<path class="st0" d="M567.7,19.4c17.4,49.2,7.2,68.4-42,32.3c-24.7-18.1-98.6-19-98.6-19c-56.2,0-87.4,18.2-132.9,51.3
	c-17.2,12.5-35.1,25.5-50.3,36.5c-7.8,5.6-17.2,8.3-26.7,7.7c-2.4-0.2-4.8-0.5-7.2-1.1c-11.7-2.9-21.5-10.9-26.8-21.8
	c-0.6-1.2-1.2-2.4-1.7-3.6c-3.8-7.7-9.7-42.1-37.2-56.5C120.3,32.5,74,28.4,44.7,45.7c-11.7,6.9-18-11.6-16.2-23.5
	C31.9,0,113.3,2.6,190.5,0c70.2-2.3,281.1,0,281.1,0C482.9,0,560.7-0.5,567.7,19.4z"/>
<g>
	<path class="st1" d="M393.3,0c-54.8,38.3-120.5,81.9-176.1,128.1c-2.4-0.2-4.8-0.5-7.2-1.1c-11.7-2.9-21.5-10.9-26.8-21.8
		c-0.6-1.2-1.2-2.4-1.7-3.6c14.6-17.1,31.7-33.4,38.7-46c8.4-15.1,14.4-22.5,23.4-36.9c1.7-2.7,5.7-10,10.6-18.6h35.3
		c0.3,9.1,0.3,16.6-0.1,18.5c-3.6,17.6-36,20.5-43.2,34.7c-6.3,12.5-5,24.4-10,39c1.9-1.1,3.8-2.1,5.8-3.2
		c43.7-23.8,62.9-54.4,94.7-78.7c3.2-2.4,7.7-6,13.2-10.3H393.3z"/>
</g>
<path class="st2" d="M483.1,25.7c-27.9-7.9-56-6.9-56-6.9c-56.2,0-109.5,9-146.6,51.3c-13.9,15.9-26.4,27.1-41.6,38.2
	c-7.8,5.6-17.2,8.3-26.7,7.7c-2.4-0.2-4.8-0.5-7.2-1.1c-11.7-2.9-16.6-12.5-21.9-23.4c-0.6-1.2-1.2-2.4-1.7-3.6
	c-3.8-7.7-4.5-36.8-32-51.3c-23.9-12.6-73-9.4-86.7-7.6C53.3,30.2,31,29.3,29,20.3c-0.2,0.6-0.4,1.3-0.5,1.9
	C26.7,34.2,33,52.7,44.7,45.7c29.3-17.4,75.6-13.2,99.4-0.7c27.5,14.5,33.4,48.8,37.2,56.5c0.6,1.2,1.2,2.4,1.7,3.6
	c5.3,10.9,15.1,18.8,26.8,21.8c2.4,0.6,4.8,1,7.2,1.1c9.4,0.6,18.9-2.1,26.7-7.7c15.2-11,33.1-24,50.3-36.5
	c45.5-33,76.7-51.3,132.9-51.3c0,0,71.4,0.9,98.6,19C566.8,79,580.4,79,572.5,34.8C575.4,59.2,522.3,36.8,483.1,25.7z"/>
</svg>
