<?xml version="1.0" encoding="UTF-8" standalone="no"?>
<!DOCTYPE svg PUBLIC "-//W3C//DTD SVG 1.1//EN" "http://www.w3.org/Graphics/SVG/1.1/DTD/svg11.dtd">
<svg width="100%" height="100%" viewBox="0 0 99 20" version="1.1" xmlns="http://www.w3.org/2000/svg" xmlns:xlink="http://www.w3.org/1999/xlink" xml:space="preserve" xmlns:serif="http://www.serif.com/" style="fill-rule:evenodd;clip-rule:evenodd;stroke-linejoin:round;stroke-miterlimit:1.41421;">
    <g transform="matrix(1,0,0,1,-577,-61)">
        <g transform="matrix(0.526377,0,0,0.450359,438.247,-68.4632)">
            <g>
                <g>
                    <g transform="matrix(1,0,0,1,68.931,-49.107)">
                        <path d="M209.232,338.044C205.732,338.044 202.405,339.824 200.117,342.92C197.829,346.016 196.807,350.122 197.316,354.17C197.374,354.635 197.431,355.086 197.485,355.519C197.88,358.659 199.363,361.471 201.586,363.294C229.402,381.012 344.092,390.446 376.061,362.134C377.199,361.045 377.973,359.521 378.245,357.831C378.277,357.837 378.278,357.836 378.278,357.834C379.065,352.95 377.951,347.91 375.236,344.084C372.522,340.258 368.491,338.044 364.239,338.044C337.748,338.044 290.044,338.044 290.044,338.044C290.044,338.044 235.577,338.044 209.232,338.044Z" style="fill:rgb(115,39,0);"/>
                        <clipPath id="_clip1">
                            <path d="M209.232,338.044C205.732,338.044 202.405,339.824 200.117,342.92C197.829,346.016 196.807,350.122 197.316,354.17C197.374,354.635 197.431,355.086 197.485,355.519C197.88,358.659 199.363,361.471 201.586,363.294C229.402,381.012 344.092,390.446 376.061,362.134C377.199,361.045 377.973,359.521 378.245,357.831C378.277,357.837 378.278,357.836 378.278,357.834C379.065,352.95 377.951,347.91 375.236,344.084C372.522,340.258 368.491,338.044 364.239,338.044C337.748,338.044 290.044,338.044 290.044,338.044C290.044,338.044 235.577,338.044 209.232,338.044Z"/>
                        </clipPath>
                        <g clip-path="url(#_clip1)">
                            <g transform="matrix(1,0,0,1,-61.2789,43.9381)">
                                <path d="M446.748,278.483C446.748,278.483 445.965,291.251 421.128,304.204C404.048,313.111 370.023,316.256 344.433,316.465C326.058,316.615 290.161,307.984 273.337,299.774C271.382,298.82 254.146,291.497 254.832,288.203C255.947,282.858 269.946,279.96 274.29,278.237C290.168,271.94 309.605,273.467 326.092,275.257C344.378,277.242 362.241,277.343 380.578,276.918C399.556,276.477 418.884,276.132 437.854,277.407C447.014,278.023 438.551,273.835 446.748,278.483Z" style="fill:rgb(81,35,13);"/>
                            </g>
                            <g transform="matrix(1.30233,0,0,1.30233,47.1665,-189.274)">
                                <path d="M109.12,414.328C112.623,417.312 138.002,422.519 148.1,428.705C155.454,433.211 250.951,434.323 256.696,412.446C258.194,406.742 272.06,428.165 271.5,433.877C271.18,437.143 267.525,439.88 265.05,441.534C257.912,446.304 249.98,449.361 241.743,451.608C224.723,456.251 205.587,457.654 188.049,455.77C174.961,454.365 162.005,451.108 149.041,448.361C145.055,447.516 141.068,446.72 137.077,446.04C134.083,445.531 131.065,445.109 128.084,444.534C125.521,444.039 122.972,443.498 120.426,442.921C113.038,441.248 109.12,414.328 109.12,414.328Z" style="fill:rgb(58,50,50);"/>
                            </g>
                        </g>
                    </g>
                    <g transform="matrix(0.831701,0,0,0.831701,5.15092,78.4845)">
                        <path d="M480.113,253.548C480.113,253.548 474.134,263.113 472.991,264.94C472.824,265.207 472.742,265.533 472.759,265.863C472.92,267.248 473.784,268.241 475.795,267.591C476.081,267.518 476.332,267.321 476.498,267.039C477.73,265.056 484.499,253.548 484.499,253.548L480.113,253.548Z"/>
                    </g>
                    <g transform="matrix(0.831701,0,0,0.831701,-89.8491,78.4845)">
                        <path d="M480.113,253.548C480.113,253.548 476.282,259.677 474.167,263.06C473.864,263.546 473.754,264.161 473.865,264.749C473.976,265.336 474.297,265.84 474.748,266.131C474.769,266.102 474.774,266.106 474.78,266.11C475.715,266.719 476.893,266.396 477.499,265.365C479.782,261.568 484.499,253.548 484.499,253.548L480.113,253.548Z"/>
                    </g>
                    <g transform="matrix(0.836749,0,0,0.952357,-45.0804,47.8927)">
                        <path d="M480.113,253.548C480.113,253.548 473.522,264.092 472.858,265.154C472.67,265.451 472.596,265.81 472.65,266.16C473.004,268.894 475.268,267.369 476.093,267.281C476.138,267.329 476.202,267.352 476.266,267.345C476.33,267.338 476.387,267.3 476.42,267.244C477.237,265.895 484.499,253.548 484.499,253.548L480.113,253.548Z"/>
                    </g>
                    <g transform="matrix(0.836749,0,0,0.952357,-70.0804,47.8927)">
                        <path d="M480.113,253.548C480.113,253.548 472.905,265.079 472.805,265.238C472.632,265.515 472.58,265.854 472.663,266.172C472.96,266.748 473.438,267.049 474.137,267.202C475.359,267.474 476.613,266.919 477.26,265.82C479.398,262.221 484.499,253.548 484.499,253.548L480.113,253.548Z"/>
                    </g>
                    <g transform="matrix(0.836749,0,0,0.952357,-22.0804,47.8927)">
                        <path d="M480.113,253.548C480.113,253.548 472.845,265.174 472.804,265.239C472.76,265.31 472.729,265.388 472.712,265.469C472.451,266.605 472.827,267.098 473.921,267.286C475.288,267.522 476.657,266.876 477.374,265.657C479.555,261.954 484.499,253.548 484.499,253.548L480.113,253.548Z"/>
                    </g>
                    <g transform="matrix(0.679727,0,0,0.679727,95.4527,117.017)">
                        <path d="M480.113,253.548C480.113,253.548 475.839,260.384 473.828,263.602C473.566,264.021 473.472,264.553 473.571,265.059C473.67,265.565 473.953,265.996 474.345,266.24C474.363,266.202 474.363,266.202 474.363,266.202C475.52,266.765 476.857,266.304 477.568,265.096C479.958,261.269 484.499,253.548 484.499,253.548L480.113,253.548Z"/>
                    </g>
                </g>
            </g>
        </g>
    </g>
</svg>
