<?xml version="1.0" encoding="UTF-8" standalone="no"?>
<!DOCTYPE svg PUBLIC "-//W3C//DTD SVG 1.1//EN" "http://www.w3.org/Graphics/SVG/1.1/DTD/svg11.dtd">
<svg width="100%" height="100%" viewBox="0 0 205 52" version="1.1" xmlns="http://www.w3.org/2000/svg" xmlns:xlink="http://www.w3.org/1999/xlink" xml:space="preserve" xmlns:serif="http://www.serif.com/" style="fill-rule:evenodd;clip-rule:evenodd;stroke-linejoin:round;stroke-miterlimit:1.41421;">
    <g transform="matrix(1,0,0,1,-576,-400)">
        <g transform="matrix(-0.532378,0,0,0.361316,831.424,292.334)">
            <path d="M95.831,308.902C95.831,308.902 95.831,308.902 95.831,308.902C95.831,320.132 101.801,329.393 109.413,329.969C119.784,330.755 134.349,331.859 146.723,332.797C162.171,333.967 176.472,345.168 185.772,363.381C185.773,363.381 185.773,363.382 185.773,363.383C189.319,370.326 194.928,374.309 200.823,374.069C206.718,373.83 212.169,369.397 215.449,362.176C218.975,354.415 222.419,346.833 224.798,341.598C226.772,337.252 230.087,334.644 233.636,334.644C233.637,334.644 233.638,334.644 233.638,334.644C237.249,334.644 240.677,336.99 243.006,341.055C243.662,342.201 244.379,343.453 245.134,344.771C248.408,350.486 253.296,353.642 258.367,353.315C263.438,352.988 268.12,349.215 271.042,343.1C271.043,343.099 271.043,343.098 271.044,343.097C272.336,340.393 274.441,338.784 276.686,338.784C277.496,338.784 278.414,338.784 279.407,338.784C293.636,338.784 307.147,347.992 316.36,363.97C320.374,370.931 324.893,378.769 329.478,386.72C337.625,400.85 349.424,409.293 361.999,409.99C374.573,410.688 386.769,403.577 395.615,390.389C395.615,390.388 395.616,390.388 395.616,390.387C397.995,386.841 401.236,384.841 404.62,384.833C406.784,384.827 409.458,384.82 412.347,384.812C429.135,384.769 445.392,376.137 458.34,360.393C462.576,355.241 466.845,350.051 470.429,345.693C476.183,338.696 479.515,328.278 479.515,317.285C479.515,317.284 479.515,317.283 479.515,317.281C479.515,307.737 474.264,300 467.787,300C408.749,300 145.209,300 101.872,300C100.27,300 98.733,300.938 97.6,302.607C96.467,304.276 95.831,306.54 95.831,308.901C95.831,308.901 95.831,308.902 95.831,308.902Z" style="fill:rgb(196,92,12);"/>
            <clipPath id="_clip1">
                <path d="M95.831,308.902C95.831,308.902 95.831,308.902 95.831,308.902C95.831,320.132 101.801,329.393 109.413,329.969C119.784,330.755 134.349,331.859 146.723,332.797C162.171,333.967 176.472,345.168 185.772,363.381C185.773,363.381 185.773,363.382 185.773,363.383C189.319,370.326 194.928,374.309 200.823,374.069C206.718,373.83 212.169,369.397 215.449,362.176C218.975,354.415 222.419,346.833 224.798,341.598C226.772,337.252 230.087,334.644 233.636,334.644C233.637,334.644 233.638,334.644 233.638,334.644C237.249,334.644 240.677,336.99 243.006,341.055C243.662,342.201 244.379,343.453 245.134,344.771C248.408,350.486 253.296,353.642 258.367,353.315C263.438,352.988 268.12,349.215 271.042,343.1C271.043,343.099 271.043,343.098 271.044,343.097C272.336,340.393 274.441,338.784 276.686,338.784C277.496,338.784 278.414,338.784 279.407,338.784C293.636,338.784 307.147,347.992 316.36,363.97C320.374,370.931 324.893,378.769 329.478,386.72C337.625,400.85 349.424,409.293 361.999,409.99C374.573,410.688 386.769,403.577 395.615,390.389C395.615,390.388 395.616,390.388 395.616,390.387C397.995,386.841 401.236,384.841 404.62,384.833C406.784,384.827 409.458,384.82 412.347,384.812C429.135,384.769 445.392,376.137 458.34,360.393C462.576,355.241 466.845,350.051 470.429,345.693C476.183,338.696 479.515,328.278 479.515,317.285C479.515,317.284 479.515,317.283 479.515,317.281C479.515,307.737 474.264,300 467.787,300C408.749,300 145.209,300 101.872,300C100.27,300 98.733,300.938 97.6,302.607C96.467,304.276 95.831,306.54 95.831,308.901C95.831,308.901 95.831,308.902 95.831,308.902Z"/>
            </clipPath>
            <g clip-path="url(#_clip1)">
                <g id="_-Kurve-" serif:id="(Kurve)" transform="matrix(-1.54781,0,0,2.2806,1098.64,154.038)">
                    <path d="M397.731,65.968C408.599,74.201 421.48,79.681 434.976,81.729C442.469,82.866 451.943,83.489 459.494,83.68C463.485,83.78 475.775,83.324 478.881,82.937C485.55,82.105 513.668,81.122 516.035,80.536C518.415,79.946 567.126,87.256 572.921,88.018C575.762,88.392 578.878,88.46 581.592,87.425C593.729,82.794 600.878,74.878 613.996,72.752C621.722,71.5 627.683,78.277 634.998,75.668C637.946,74.616 650.839,65.832 653.064,69.224C656.379,74.278 615.763,115.11 599.888,118.974C586.957,122.122 409.001,112.946 406.478,109.781C401.256,103.23 397.731,65.968 397.731,65.968Z" style="fill:rgb(215,121,47);"/>
                    <path d="M398.071,62.953L398.6,63.061L399.101,63.261L399.558,63.546L399.809,63.735L400.055,63.919L400.302,64.103L400.55,64.285L400.798,64.466L401.048,64.647L401.298,64.826L401.548,65.005L401.799,65.182L402.051,65.359L402.304,65.534L402.557,65.709L402.811,65.883L403.065,66.055L403.32,66.227L403.577,66.397L403.833,66.567L404.09,66.735L404.348,66.903L404.606,67.07L404.865,67.235L405.125,67.4L405.385,67.563L405.646,67.726L405.908,67.887L406.17,68.048L406.433,68.207L406.697,68.366L406.96,68.523L407.225,68.679L407.49,68.835L407.756,68.989L408.022,69.143L408.29,69.295L408.557,69.446L408.825,69.596L409.094,69.746L409.363,69.894L409.633,70.041L409.904,70.187L410.175,70.332L410.446,70.476L410.718,70.619L410.991,70.761L411.264,70.902L411.538,71.041L411.812,71.18L412.087,71.318L412.362,71.454L412.638,71.59L412.914,71.724L413.191,71.858L413.468,71.99L413.746,72.121L414.025,72.251L414.303,72.38L414.583,72.509L414.863,72.636L415.143,72.761L415.424,72.886L415.705,73.01L415.987,73.132L416.269,73.254L416.552,73.374L416.835,73.494L417.118,73.612L417.403,73.729L417.687,73.845L417.972,73.96L418.257,74.074L418.543,74.187L418.83,74.299L419.116,74.409L419.403,74.518L419.691,74.627L419.979,74.734L420.267,74.84L420.556,74.945L420.845,75.049L421.135,75.152L421.425,75.253L421.715,75.354L422.006,75.453L422.297,75.551L422.589,75.648L422.881,75.744L423.173,75.839L423.466,75.933L423.759,76.026L424.052,76.117L424.346,76.207L424.64,76.296L424.935,76.384L425.229,76.471L425.524,76.557L425.82,76.642L426.116,76.725L426.412,76.807L426.708,76.888L427.006,76.968L427.302,77.047L427.6,77.125L427.898,77.201L428.196,77.276L428.494,77.351L428.793,77.424L429.092,77.495L429.391,77.566L429.69,77.635L429.99,77.704L430.291,77.771L430.591,77.837L430.891,77.901L431.192,77.965L431.494,78.027L431.795,78.089L432.097,78.148L432.399,78.207L432.701,78.265L433.003,78.321L433.306,78.376L433.609,78.43L433.912,78.483L434.216,78.535L434.519,78.585L434.823,78.635L435.127,78.683L435.432,78.729L435.774,78.781L436.12,78.832L436.469,78.882L436.821,78.931L437.175,78.98L437.533,79.028L437.892,79.075L438.255,79.122L438.619,79.168L438.986,79.213L439.355,79.257L439.727,79.301L440.1,79.345L440.473,79.387L441.23,79.47L441.992,79.55L442.76,79.627L443.533,79.702L444.309,79.774L445.089,79.843L445.872,79.909L446.657,79.973L447.442,80.034L448.229,80.092L449.015,80.148L449.799,80.2L450.583,80.25L451.363,80.298L452.14,80.343L452.914,80.385L453.682,80.424L454.445,80.461L455.202,80.495L455.952,80.527L456.694,80.556L457.428,80.582L458.152,80.606L458.867,80.628L459.569,80.647L459.747,80.651L459.934,80.654L460.357,80.658L460.823,80.66L461.331,80.658L461.878,80.655L462.459,80.648L463.071,80.639L463.711,80.627L464.374,80.613L465.058,80.597L465.759,80.578L466.474,80.558L467.199,80.536L467.931,80.512L468.668,80.486L469.405,80.459L470.139,80.431L470.867,80.401L471.586,80.37L472.293,80.338L472.984,80.305L473.655,80.271L474.304,80.236L474.927,80.201L475.521,80.166L476.081,80.13L476.604,80.095L477.087,80.059L477.527,80.023L477.724,80.006L477.911,79.989L478.084,79.973L478.241,79.956L478.382,79.941L478.522,79.924L478.865,79.883L479.249,79.841L479.658,79.8L480.091,79.758L480.549,79.717L481.031,79.676L481.537,79.635L482.064,79.594L482.614,79.553L483.184,79.512L483.773,79.471L484.382,79.429L485.008,79.388L485.651,79.347L486.31,79.306L486.985,79.265L488.371,79.183L489.805,79.1L491.278,79.018L492.78,78.937L494.303,78.855L495.839,78.775L498.913,78.615L501.936,78.458L503.405,78.38L504.835,78.304L506.216,78.229L507.541,78.156L508.8,78.084L509.985,78.013L510.545,77.978L511.084,77.944L511.599,77.91L512.09,77.877L512.554,77.844L512.991,77.812L513.4,77.781L513.778,77.75L514.125,77.72L514.436,77.691L514.711,77.663L514.951,77.636L515.047,77.625L515.136,77.613L515.212,77.603L515.272,77.594L515.316,77.587L515.338,77.583L515.37,77.575L515.486,77.55L515.645,77.523L515.781,77.505L515.903,77.492L516.016,77.483L516.136,77.476L516.324,77.47L516.522,77.468L516.72,77.47L516.923,77.475L517.134,77.483L517.354,77.494L517.584,77.507L517.825,77.522L518.077,77.541L518.341,77.561L518.617,77.583L518.904,77.608L519.204,77.635L519.515,77.665L519.839,77.696L520.517,77.765L521.242,77.842L522.01,77.927L522.82,78.019L523.67,78.119L524.558,78.225L525.483,78.338L526.442,78.457L527.434,78.581L528.456,78.712L529.507,78.848L530.584,78.988L531.686,79.133L532.811,79.283L533.956,79.436L535.12,79.593L536.3,79.753L537.495,79.917L538.703,80.082L541.147,80.421L543.618,80.765L546.098,81.114L548.571,81.464L551.022,81.812L553.432,82.157L555.788,82.495L558.071,82.823L562.356,83.442L566.157,83.991L569.342,84.451L570.661,84.64L571.776,84.798L572.67,84.923L573.025,84.971L573.314,85.01L573.56,85.041L573.805,85.071L574.05,85.098L574.294,85.123L574.539,85.146L574.783,85.166L575.026,85.184L575.269,85.2L575.511,85.213L575.752,85.223L575.992,85.23L576.236,85.234L576.349,85.235L576.468,85.235L576.586,85.234L576.703,85.233L576.82,85.231L576.937,85.228L577.053,85.224L577.169,85.219L577.284,85.213L577.399,85.207L577.513,85.2L577.626,85.192L577.74,85.182L577.852,85.173L577.963,85.162L578.074,85.15L578.185,85.138L578.294,85.124L578.403,85.11L578.512,85.094L578.619,85.078L578.726,85.061L578.833,85.043L578.938,85.024L579.042,85.004L579.146,84.983L579.249,84.961L579.351,84.938L579.452,84.915L579.553,84.89L579.652,84.864L579.751,84.838L579.849,84.81L579.945,84.782L580.042,84.752L580.138,84.722L580.232,84.69L580.325,84.658L580.418,84.624L580.515,84.588L580.777,84.487L581.043,84.383L581.307,84.278L581.569,84.172L581.83,84.065L582.09,83.956L582.349,83.847L582.605,83.736L582.861,83.625L583.116,83.512L583.369,83.399L583.621,83.284L583.872,83.169L584.121,83.052L584.37,82.935L584.618,82.817L584.864,82.698L585.11,82.578L585.354,82.457L585.598,82.336L585.841,82.213L586.083,82.09L586.324,81.967L586.565,81.842L586.804,81.717L587.043,81.591L587.281,81.464L587.517,81.338L587.992,81.08L588.463,80.822L588.933,80.561L589.401,80.298L589.867,80.034L590.332,79.767L590.796,79.499L591.259,79.231L592.188,78.689L593.115,78.145L594.044,77.601L594.511,77.329L594.98,77.057L595.45,76.785L595.922,76.514L596.396,76.245L596.873,75.976L597.353,75.709L597.835,75.444L598.319,75.182L598.565,75.05L598.81,74.92L599.056,74.79L599.303,74.661L599.551,74.533L599.8,74.405L600.051,74.278L600.302,74.152L600.554,74.027L600.808,73.902L601.062,73.778L601.319,73.656L601.576,73.534L601.834,73.413L602.094,73.293L602.355,73.174L602.617,73.057L602.881,72.94L603.146,72.824L603.413,72.71L603.681,72.597L603.951,72.485L604.222,72.374L604.494,72.265L604.769,72.157L605.045,72.05L605.322,71.945L605.601,71.841L605.882,71.739L606.164,71.638L606.448,71.539L606.735,71.441L607.022,71.345L607.312,71.25L607.603,71.158L607.896,71.067L608.191,70.977L608.488,70.89L608.787,70.804L609.087,70.72L609.39,70.638L609.694,70.558L610.001,70.48L610.31,70.404L610.62,70.329L610.933,70.257L611.248,70.187L611.565,70.119L611.884,70.053L612.205,69.99L612.528,69.928L612.853,69.869L613.181,69.812L613.516,69.756L613.737,69.722L613.962,69.691L614.187,69.663L614.411,69.639L614.634,69.618L614.856,69.6L615.077,69.586L615.297,69.576L615.516,69.568L615.734,69.563L615.95,69.562L616.166,69.563L616.38,69.568L616.593,69.575L616.805,69.585L617.016,69.597L617.225,69.612L617.433,69.63L617.64,69.65L617.846,69.672L618.05,69.697L618.253,69.724L618.454,69.753L618.655,69.784L618.854,69.816L619.051,69.851L619.248,69.888L619.443,69.926L619.637,69.966L619.829,70.007L620.02,70.05L620.21,70.094L620.399,70.14L620.586,70.187L620.772,70.235L620.957,70.284L621.14,70.335L621.322,70.386L621.504,70.438L621.684,70.491L621.862,70.545L622.044,70.601L622.391,70.711L622.739,70.824L623.082,70.939L623.42,71.055L623.754,71.172L624.085,71.289L624.412,71.406L625.05,71.637L625.678,71.864L625.984,71.973L626.287,72.08L626.587,72.185L626.883,72.286L627.175,72.383L627.464,72.477L627.753,72.567L627.891,72.609L628.03,72.651L628.17,72.691L628.309,72.73L628.446,72.768L628.583,72.805L628.719,72.841L628.854,72.874L628.987,72.907L629.121,72.938L629.253,72.968L629.384,72.996L629.515,73.023L629.644,73.048L629.773,73.072L629.901,73.094L630.028,73.115L630.154,73.134L630.279,73.152L630.404,73.168L630.528,73.182L630.65,73.195L630.773,73.206L630.895,73.215L631.016,73.223L631.136,73.229L631.256,73.233L631.375,73.236L631.494,73.237L631.612,73.236L631.73,73.233L631.847,73.229L631.965,73.223L632.081,73.215L632.199,73.205L632.315,73.193L632.432,73.18L632.549,73.164L632.665,73.147L632.782,73.127L632.9,73.106L633.017,73.082L633.136,73.056L633.254,73.028L633.372,72.998L633.492,72.965L633.613,72.93L633.734,72.892L633.856,72.853L633.977,72.81L633.998,72.803L634.027,72.792L634.065,72.776L634.112,72.756L634.167,72.733L634.221,72.709L634.368,72.64L634.53,72.563L634.711,72.473L634.91,72.372L635.124,72.261L635.353,72.14L635.595,72.011L635.849,71.874L636.114,71.73L636.68,71.419L637.282,71.086L637.918,70.733L638.583,70.366L639.271,69.989L639.625,69.796L639.983,69.602L640.345,69.407L640.711,69.212L641.08,69.017L641.452,68.823L641.827,68.629L642.204,68.436L642.583,68.245L642.964,68.057L643.345,67.871L643.727,67.688L644.11,67.509L644.489,67.335L644.683,67.247L644.874,67.162L645.065,67.078L645.256,66.996L645.447,66.915L645.637,66.834L645.828,66.756L646.018,66.679L646.208,66.604L646.397,66.53L646.587,66.458L646.776,66.387L646.965,66.318L647.153,66.251L647.342,66.186L647.53,66.123L647.718,66.062L647.906,66.003L648.094,65.946L648.281,65.891L648.469,65.838L648.657,65.788L648.845,65.741L649.033,65.696L649.222,65.654L649.41,65.614L649.601,65.578L649.791,65.544L649.982,65.514L650.175,65.488L650.368,65.465L650.563,65.446L650.76,65.431L650.959,65.421L651.16,65.416L651.362,65.416L651.569,65.422L651.765,65.433L651.882,65.443L651.988,65.454L652.095,65.466L652.202,65.481L652.312,65.497L652.421,65.516L652.53,65.537L652.642,65.561L652.754,65.587L652.865,65.616L652.979,65.648L653.093,65.683L653.206,65.72L653.321,65.761L653.435,65.805L653.55,65.852L653.665,65.904L653.78,65.958L653.894,66.016L654.009,66.078L654.124,66.144L654.237,66.214L654.348,66.287L654.457,66.364L654.567,66.445L654.675,66.53L654.78,66.619L654.882,66.711L654.983,66.806L655.081,66.906L655.177,67.009L655.268,67.114L655.355,67.22L655.442,67.332L655.525,67.447L655.603,67.562L655.677,67.679L655.752,67.808L655.818,67.933L655.881,68.059L655.937,68.187L655.988,68.311L656.036,68.439L656.079,68.566L656.117,68.693L656.15,68.815L656.18,68.94L656.204,69.06L656.226,69.179L656.244,69.301L656.259,69.417L656.27,69.532L656.279,69.646L656.285,69.762L656.289,69.872L656.289,69.979L656.288,70.087L656.284,70.209L656.273,70.401L656.253,70.604L656.227,70.803L656.196,70.994L656.159,71.186L656.118,71.373L656.073,71.556L656.023,71.738L655.97,71.918L655.913,72.096L655.853,72.274L655.79,72.451L655.723,72.626L655.653,72.802L655.581,72.977L655.505,73.153L655.426,73.329L655.344,73.505L655.26,73.682L655.172,73.859L655.082,74.039L654.989,74.218L654.893,74.398L654.794,74.579L654.693,74.762L654.588,74.946L654.482,75.13L654.371,75.318L654.259,75.505L654.144,75.694L654.026,75.884L653.905,76.077L653.782,76.27L653.656,76.465L653.528,76.661L653.396,76.859L653.263,77.058L653.126,77.259L652.987,77.462L652.846,77.665L652.702,77.871L652.555,78.078L652.405,78.287L652.254,78.497L652.099,78.708L651.943,78.921L651.784,79.136L651.622,79.352L651.458,79.569L651.292,79.788L651.122,80.008L650.951,80.23L650.778,80.453L650.602,80.677L650.423,80.905L650.061,81.359L649.689,81.82L649.308,82.286L648.918,82.758L648.52,83.234L648.114,83.715L647.699,84.2L647.277,84.69L646.847,85.184L646.409,85.682L645.963,86.183L645.511,86.688L645.051,87.197L644.585,87.709L644.112,88.224L643.632,88.742L643.146,89.263L642.654,89.786L642.155,90.312L641.651,90.839L641.142,91.369L640.627,91.9L640.107,92.433L639.582,92.967L639.052,93.503L638.517,94.039L637.978,94.576L637.434,95.114L636.887,95.651L636.335,96.19L635.78,96.728L635.221,97.265L634.659,97.803L634.094,98.339L633.526,98.875L632.955,99.41L632.381,99.943L631.805,100.475L631.227,101.006L630.647,101.534L630.065,102.061L629.481,102.585L628.896,103.107L628.31,103.626L627.722,104.142L627.134,104.655L626.545,105.165L625.955,105.672L625.365,106.174L624.775,106.673L624.185,107.168L623.595,107.659L623.005,108.145L622.416,108.626L621.828,109.103L621.241,109.574L620.654,110.04L620.069,110.501L619.486,110.956L618.905,111.405L618.614,111.628L618.324,111.849L618.035,112.068L617.746,112.286L617.458,112.502L617.17,112.716L616.883,112.929L616.596,113.14L616.31,113.349L616.025,113.557L615.74,113.763L615.457,113.967L615.173,114.17L614.89,114.37L614.609,114.568L614.328,114.765L614.047,114.96L613.768,115.153L613.489,115.344L613.211,115.533L612.934,115.72L612.658,115.905L612.383,116.088L612.109,116.269L611.835,116.447L611.563,116.624L611.291,116.798L611.02,116.971L610.751,117.141L610.482,117.309L610.214,117.475L609.948,117.638L609.682,117.799L609.418,117.958L609.154,118.114L608.892,118.269L608.63,118.42L608.37,118.57L608.111,118.717L607.853,118.861L607.596,119.003L607.34,119.143L607.085,119.279L606.831,119.414L606.579,119.546L606.327,119.675L606.077,119.802L605.828,119.926L605.58,120.047L605.333,120.166L605.087,120.282L604.842,120.395L604.599,120.505L604.356,120.613L604.115,120.717L603.875,120.819L603.635,120.918L603.397,121.014L603.16,121.107L602.923,121.197L602.688,121.284L602.454,121.368L602.22,121.449L601.987,121.526L601.755,121.601L601.524,121.672L601.294,121.739L601.063,121.804L600.834,121.865L600.606,121.922L600.487,121.95L600.366,121.977L600.245,122.002L600.125,122.026L600.001,122.049L599.87,122.072L599.624,122.111L599.362,122.15L599.091,122.186L598.81,122.219L598.519,122.251L598.216,122.281L597.902,122.31L597.577,122.337L597.239,122.363L596.891,122.388L596.53,122.411L596.156,122.433L595.771,122.454L595.373,122.474L594.964,122.493L594.542,122.51L594.109,122.527L593.663,122.542L593.205,122.557L592.736,122.57L592.255,122.583L591.762,122.594L591.257,122.605L590.741,122.614L590.213,122.622L589.674,122.63L589.124,122.636L588.563,122.642L587.99,122.647L587.407,122.65L586.813,122.653L586.208,122.655L585.591,122.656L584.329,122.655L583.025,122.651L581.68,122.643L580.296,122.632L578.874,122.618L577.414,122.6L575.917,122.579L574.384,122.554L572.817,122.527L571.215,122.496L569.581,122.463L567.915,122.426L566.218,122.386L564.491,122.344L562.734,122.299L560.95,122.251L559.138,122.2L557.301,122.146L555.438,122.09L553.55,122.032L551.64,121.97L549.707,121.907L547.752,121.841L545.777,121.772L543.783,121.701L541.771,121.628L539.74,121.553L537.694,121.476L535.631,121.396L533.554,121.315L531.464,121.231L529.361,121.146L527.246,121.059L525.12,120.97L522.985,120.879L520.84,120.786L518.689,120.692L516.53,120.596L514.365,120.498L512.196,120.399L510.022,120.298L507.846,120.196L505.667,120.093L503.488,119.988L501.308,119.882L499.13,119.775L496.953,119.667L494.78,119.558L492.61,119.447L490.445,119.336L488.285,119.223L486.133,119.11L483.988,118.996L481.852,118.881L479.726,118.765L477.61,118.649L475.506,118.532L473.415,118.414L471.337,118.296L469.273,118.178L467.225,118.059L465.194,117.939L463.18,117.82L461.185,117.7L459.209,117.58L457.253,117.459L455.318,117.339L453.406,117.218L451.517,117.098L449.653,116.977L447.813,116.857L446,116.737L444.214,116.617L442.456,116.497L440.727,116.377L439.028,116.258L437.36,116.14L435.724,116.021L434.12,115.904L432.551,115.786L431.017,115.67L429.518,115.554L428.056,115.439L426.631,115.324L425.245,115.21L423.899,115.098L422.593,114.986L421.329,114.875L420.107,114.765L418.928,114.656L417.793,114.548L416.702,114.441L415.659,114.335L415.153,114.283L414.661,114.231L414.179,114.179L413.71,114.127L413.253,114.076L412.807,114.025L412.374,113.974L411.954,113.924L411.545,113.874L411.149,113.824L410.765,113.774L410.394,113.725L410.035,113.676L409.688,113.627L409.354,113.579L409.033,113.53L408.723,113.482L408.426,113.433L408.14,113.385L407.866,113.336L407.603,113.287L407.351,113.237L407.109,113.187L406.876,113.135L406.651,113.081L406.431,113.025L406.225,112.967L406.109,112.932L406,112.898L405.89,112.861L405.777,112.821L405.662,112.777L405.541,112.728L405.411,112.671L405.276,112.606L405.127,112.528L404.964,112.432L404.781,112.311L404.576,112.155L404.463,112.053L404.243,111.833L404.154,111.734L404.009,111.549L403.916,111.426L403.825,111.3L403.737,111.174L403.65,111.047L403.565,110.918L403.483,110.788L403.401,110.656L403.322,110.523L403.244,110.389L403.167,110.253L403.091,110.116L403.017,109.978L402.943,109.838L402.871,109.696L402.799,109.553L402.728,109.409L402.659,109.262L402.59,109.115L402.522,108.966L402.454,108.815L402.387,108.663L402.321,108.509L402.256,108.353L402.191,108.196L402.126,108.037L402.062,107.877L401.999,107.715L401.936,107.551L401.872,107.382L401.75,107.051L401.628,106.709L401.508,106.361L401.39,106.007L401.273,105.647L401.157,105.281L401.042,104.908L400.929,104.53L400.817,104.146L400.706,103.756L400.596,103.361L400.487,102.961L400.379,102.555L400.273,102.144L400.167,101.728L400.063,101.308L399.959,100.883L399.856,100.453L399.755,100.019L399.654,99.582L399.555,99.14L399.456,98.694L399.358,98.244L399.261,97.792L399.165,97.336L399.07,96.876L398.976,96.414L398.883,95.949L398.791,95.482L398.7,95.012L398.61,94.54L398.521,94.066L398.432,93.59L398.345,93.112L398.258,92.633L398.173,92.152L398.088,91.671L398.004,91.188L397.922,90.705L397.84,90.221L397.759,89.737L397.679,89.252L397.6,88.767L397.445,87.8L397.294,86.834L397.147,85.872L397.004,84.915L396.864,83.965L396.729,83.024L396.598,82.092L396.47,81.172L396.347,80.264L396.228,79.371L396.113,78.494L396.003,77.634L395.896,76.794L395.794,75.974L395.697,75.176L395.603,74.402L395.514,73.654L395.43,72.932L395.35,72.238L395.274,71.574L395.203,70.941L395.075,69.778L394.965,68.757L394.875,67.894L394.804,67.199L394.753,66.686L394.712,66.262L394.707,65.722L394.799,65.191L394.983,64.684L395.253,64.217L395.602,63.806L396.019,63.464L396.489,63.2L396.999,63.024L397.532,62.941L398.071,62.953ZM649.298,71.93L649.159,71.978L649.018,72.028L648.875,72.08L648.729,72.135L648.58,72.191L648.43,72.25L648.278,72.31L648.123,72.373L647.967,72.438L647.809,72.504L647.65,72.572L647.488,72.641L647.326,72.713L647.162,72.785L647,72.858L646.663,73.013L646.326,73.171L645.985,73.334L645.641,73.502L645.296,73.673L644.948,73.848L644.6,74.026L644.252,74.206L643.903,74.388L643.555,74.572L643.209,74.757L642.864,74.942L642.521,75.128L642.182,75.313L641.51,75.682L640.855,76.043L640.221,76.395L639.609,76.733L639.025,77.054L638.741,77.208L638.465,77.357L638.196,77.501L637.935,77.638L637.68,77.77L637.433,77.896L637.192,78.015L636.956,78.129L636.731,78.233L636.609,78.288L636.493,78.337L636.377,78.386L636.26,78.434L636.14,78.48L636.018,78.525L635.797,78.601L635.578,78.674L635.358,78.742L635.139,78.805L634.921,78.865L634.701,78.921L634.483,78.973L634.265,79.02L634.048,79.064L633.831,79.104L633.614,79.14L633.398,79.172L633.183,79.201L632.969,79.226L632.755,79.247L632.543,79.265L632.331,79.28L632.119,79.291L631.909,79.299L631.7,79.303L631.492,79.305L631.285,79.303L631.079,79.299L630.875,79.291L630.671,79.281L630.469,79.268L630.268,79.253L630.067,79.235L629.869,79.214L629.671,79.191L629.474,79.166L629.279,79.139L629.085,79.109L628.893,79.078L628.701,79.045L628.511,79.01L628.322,78.973L628.134,78.934L627.947,78.894L627.762,78.852L627.578,78.809L627.395,78.764L627.212,78.718L627.031,78.671L626.852,78.623L626.673,78.574L626.496,78.524L626.32,78.472L626.144,78.42L625.965,78.366L625.624,78.259L625.282,78.148L624.944,78.036L624.609,77.921L624.278,77.806L623.95,77.69L623.624,77.573L622.987,77.343L622.356,77.115L622.047,77.004L621.74,76.895L621.435,76.789L621.133,76.685L620.834,76.585L620.537,76.488L620.239,76.394L620.096,76.35L619.95,76.306L619.805,76.263L619.661,76.222L619.517,76.181L619.374,76.142L619.231,76.104L619.089,76.067L618.947,76.032L618.806,75.998L618.666,75.965L618.526,75.933L618.387,75.903L618.248,75.875L618.11,75.848L617.972,75.822L617.834,75.798L617.697,75.775L617.561,75.754L617.426,75.735L617.29,75.717L617.154,75.701L617.02,75.686L616.885,75.673L616.751,75.662L616.617,75.652L616.483,75.644L616.351,75.638L616.217,75.633L616.084,75.631L615.951,75.63L615.818,75.631L615.686,75.633L615.553,75.638L615.419,75.645L615.286,75.653L615.153,75.664L615.019,75.676L614.886,75.691L614.752,75.707L614.617,75.726L614.476,75.748L614.199,75.794L613.918,75.843L613.639,75.893L613.362,75.946L613.088,76.001L612.815,76.057L612.544,76.115L612.275,76.175L612.007,76.237L611.741,76.3L611.478,76.365L611.216,76.432L610.955,76.501L610.696,76.571L610.439,76.643L610.183,76.716L609.928,76.791L609.675,76.868L609.424,76.946L609.173,77.026L608.924,77.107L608.676,77.19L608.43,77.274L608.185,77.359L607.94,77.447L607.698,77.535L607.456,77.625L607.215,77.717L606.975,77.809L606.736,77.903L606.498,77.999L606.26,78.096L606.024,78.194L605.789,78.293L605.554,78.394L605.32,78.496L605.087,78.599L604.854,78.704L604.622,78.809L604.391,78.916L604.16,79.024L603.929,79.133L603.7,79.243L603.47,79.355L603.241,79.467L603.013,79.581L602.785,79.695L602.557,79.811L602.329,79.927L602.102,80.045L601.875,80.163L601.648,80.283L601.422,80.403L601.197,80.524L600.742,80.77L600.289,81.019L599.837,81.271L599.384,81.526L598.93,81.784L598.476,82.044L598.021,82.307L597.564,82.573L597.106,82.84L596.183,83.38L595.251,83.926L594.311,84.476L593.834,84.752L593.355,85.028L592.872,85.305L592.384,85.582L591.893,85.858L591.397,86.133L590.897,86.408L590.394,86.68L590.137,86.818L589.881,86.954L589.624,87.089L589.365,87.225L589.106,87.359L588.844,87.493L588.581,87.627L588.317,87.76L588.051,87.893L587.783,88.025L587.514,88.156L587.243,88.287L586.971,88.417L586.698,88.546L586.422,88.675L586.144,88.802L585.866,88.929L585.584,89.055L585.302,89.18L585.017,89.304L584.731,89.427L584.443,89.549L584.153,89.671L583.861,89.791L583.567,89.91L583.271,90.027L582.973,90.144L582.668,90.261L582.51,90.321L582.347,90.379L582.183,90.436L582.018,90.491L581.855,90.543L581.691,90.593L581.527,90.642L581.362,90.688L581.197,90.732L581.033,90.775L580.868,90.815L580.703,90.854L580.539,90.89L580.375,90.925L580.21,90.958L580.046,90.99L579.881,91.02L579.717,91.047L579.553,91.074L579.389,91.099L579.225,91.122L579.062,91.143L578.898,91.163L578.735,91.182L578.573,91.199L578.41,91.215L578.247,91.229L578.085,91.242L577.923,91.254L577.762,91.264L577.6,91.273L577.439,91.281L577.279,91.287L577.119,91.293L576.958,91.297L576.799,91.3L576.639,91.302L576.481,91.303L576.322,91.303L576.159,91.301L575.85,91.296L575.537,91.287L575.225,91.274L574.916,91.258L574.609,91.238L574.304,91.215L574.002,91.19L573.701,91.162L573.403,91.131L573.108,91.098L572.815,91.063L572.528,91.027L572.211,90.984L571.839,90.933L570.93,90.806L569.805,90.647L568.479,90.457L565.289,89.997L561.488,89.447L557.206,88.829L554.925,88.501L552.573,88.163L550.165,87.819L547.719,87.472L545.251,87.122L542.776,86.774L540.312,86.431L537.875,86.093L536.672,85.928L535.482,85.766L534.306,85.606L533.148,85.45L532.008,85.297L530.89,85.149L529.795,85.004L528.725,84.865L527.683,84.73L526.671,84.601L525.689,84.478L524.742,84.36L523.831,84.249L522.957,84.144L522.124,84.047L521.334,83.957L520.588,83.875L519.89,83.8L519.24,83.734L518.937,83.705L518.646,83.678L518.37,83.653L518.107,83.63L517.86,83.61L517.628,83.592L517.412,83.576L517.213,83.563L517.033,83.553L516.871,83.545L516.73,83.54L516.612,83.537L516.52,83.536L516.513,83.536L516.472,83.544L516.338,83.568L516.206,83.59L516.073,83.609L515.939,83.628L515.8,83.646L515.651,83.664L515.351,83.697L515.022,83.73L514.667,83.763L514.287,83.796L513.88,83.829L513.448,83.863L512.99,83.897L512.508,83.93L512.003,83.965L511.474,83.999L510.925,84.034L510.353,84.07L509.154,84.141L507.883,84.214L506.549,84.288L505.16,84.363L503.725,84.44L502.252,84.517L499.229,84.674L496.156,84.834L494.624,84.915L493.106,84.996L491.611,85.077L490.148,85.159L488.724,85.24L487.349,85.322L486.684,85.362L486.034,85.403L485.4,85.443L484.785,85.484L484.189,85.524L483.612,85.564L483.058,85.604L482.526,85.644L482.018,85.683L481.535,85.723L481.079,85.762L480.651,85.8L480.253,85.838L479.887,85.875L479.554,85.912L479.241,85.949L479.076,85.969L478.886,85.99L478.688,86.01L478.48,86.03L478.262,86.05L478.033,86.07L477.553,86.109L477.034,86.147L476.48,86.185L475.894,86.222L475.278,86.259L474.636,86.295L473.969,86.331L473.281,86.365L472.575,86.399L471.855,86.432L471.122,86.463L470.381,86.494L469.634,86.523L468.885,86.55L468.136,86.576L467.391,86.601L466.653,86.623L465.924,86.644L465.209,86.663L464.51,86.679L463.83,86.694L463.172,86.706L462.539,86.715L461.935,86.722L461.36,86.726L460.82,86.728L460.314,86.726L459.85,86.721L459.627,86.717L459.42,86.713L458.695,86.693L457.961,86.671L457.218,86.647L456.466,86.619L455.705,86.59L454.937,86.557L454.162,86.522L453.38,86.484L452.593,86.444L451.801,86.401L451.005,86.355L450.205,86.306L449.402,86.255L448.597,86.201L447.791,86.144L446.984,86.084L446.177,86.022L445.371,85.956L444.565,85.888L443.762,85.817L442.961,85.743L442.164,85.666L441.371,85.586L440.582,85.503L439.801,85.417L439.41,85.373L439.022,85.328L438.636,85.282L438.251,85.236L437.868,85.189L437.488,85.141L437.109,85.092L436.732,85.043L436.358,84.992L435.986,84.941L435.616,84.889L435.248,84.836L434.883,84.783L434.521,84.728L434.193,84.678L433.865,84.626L433.537,84.573L433.21,84.519L432.883,84.463L432.556,84.406L432.229,84.348L431.903,84.288L431.576,84.228L431.251,84.166L430.925,84.102L430.6,84.038L430.275,83.972L429.95,83.904L429.626,83.836L429.302,83.766L428.978,83.695L428.655,83.623L428.332,83.549L428.009,83.474L427.687,83.398L427.364,83.321L427.042,83.242L426.721,83.162L426.4,83.081L426.079,82.999L425.759,82.915L425.439,82.83L425.119,82.744L424.8,82.657L424.481,82.568L424.162,82.479L423.844,82.387L423.526,82.295L423.208,82.202L422.891,82.107L422.575,82.011L422.258,81.914L421.942,81.815L421.627,81.715L421.311,81.614L420.997,81.512L420.683,81.409L420.368,81.304L420.055,81.199L419.742,81.092L419.429,80.984L419.117,80.874L418.805,80.764L418.494,80.652L418.183,80.539L417.873,80.425L417.563,80.309L417.254,80.193L416.944,80.075L416.635,79.956L416.328,79.836L416.02,79.714L415.713,79.592L415.406,79.468L415.1,79.343L414.794,79.217L414.489,79.09L414.184,78.961L413.88,78.832L413.576,78.701L413.273,78.569L412.97,78.436L412.668,78.302L412.366,78.166L412.065,78.029L411.765,77.892L411.465,77.753L411.165,77.613L410.866,77.471L410.568,77.329L410.27,77.186L409.972,77.041L409.676,76.895L409.379,76.748L409.084,76.6L408.789,76.451L408.494,76.3L408.2,76.149L407.907,75.996L407.614,75.842L407.322,75.687L407.03,75.531L406.739,75.374L406.449,75.216L406.159,75.056L405.87,74.896L405.581,74.734L405.293,74.571L405.006,74.408L404.719,74.242L404.433,74.076L404.148,73.909L403.863,73.741L403.579,73.571L403.295,73.401L403.012,73.229L402.73,73.056L402.449,72.883L402.168,72.708L401.887,72.532L401.608,72.354L401.46,72.26L401.54,72.943L401.628,73.681L401.72,74.444L401.816,75.23L401.917,76.038L402.022,76.866L402.131,77.713L402.244,78.576L402.361,79.455L402.482,80.348L402.607,81.253L402.736,82.169L402.869,83.093L403.006,84.026L403.146,84.964L403.29,85.906L403.438,86.851L403.59,87.799L403.667,88.271L403.745,88.743L403.824,89.216L403.903,89.687L403.984,90.158L404.065,90.627L404.148,91.095L404.231,91.562L404.315,92.027L404.399,92.489L404.485,92.95L404.571,93.408L404.658,93.864L404.746,94.317L404.835,94.767L404.924,95.214L405.015,95.658L405.106,96.097L405.197,96.533L405.29,96.965L405.383,97.393L405.476,97.816L405.571,98.235L405.666,98.649L405.761,99.057L405.858,99.46L405.955,99.858L406.052,100.249L406.15,100.635L406.248,101.014L406.347,101.387L406.447,101.753L406.547,102.113L406.647,102.464L406.747,102.809L406.848,103.145L406.949,103.473L407.05,103.793L407.152,104.105L407.253,104.407L407.354,104.701L407.455,104.984L407.558,105.262L407.606,105.391L407.656,105.521L407.706,105.649L407.756,105.775L407.806,105.897L407.855,106.016L407.904,106.133L407.953,106.246L408.002,106.357L408.05,106.465L408.098,106.57L408.146,106.672L408.193,106.77L408.239,106.865L408.285,106.957L408.33,107.045L408.375,107.13L408.419,107.212L408.45,107.268L408.556,107.29L408.746,107.328L408.954,107.366L409.179,107.406L409.421,107.448L409.68,107.49L409.955,107.533L410.244,107.576L410.55,107.621L410.869,107.666L411.204,107.712L411.553,107.758L411.916,107.805L412.293,107.852L412.684,107.9L413.088,107.949L413.505,107.997L413.935,108.047L414.379,108.096L414.835,108.147L415.304,108.197L415.786,108.248L416.278,108.299L417.304,108.403L418.376,108.508L419.494,108.614L420.658,108.722L421.866,108.831L423.118,108.941L424.412,109.051L425.747,109.163L427.122,109.276L428.537,109.39L429.99,109.504L431.48,109.62L433.007,109.736L434.569,109.852L436.165,109.97L437.794,110.087L439.455,110.206L441.148,110.324L442.871,110.443L444.623,110.563L446.404,110.682L448.212,110.802L450.046,110.922L451.906,111.042L453.79,111.163L455.698,111.283L457.628,111.403L459.579,111.523L461.551,111.643L463.542,111.763L465.552,111.882L467.579,112.001L469.623,112.12L471.683,112.238L473.757,112.356L475.845,112.474L477.945,112.59L480.057,112.707L482.18,112.822L484.312,112.937L486.454,113.051L488.603,113.164L490.758,113.276L492.92,113.387L495.086,113.498L497.257,113.607L499.43,113.715L501.605,113.822L503.781,113.928L505.957,114.032L508.131,114.135L510.304,114.237L512.474,114.337L514.64,114.436L516.801,114.534L518.956,114.63L521.104,114.724L523.245,114.816L525.376,114.907L527.498,114.996L529.609,115.083L531.708,115.169L533.794,115.252L535.867,115.333L537.925,115.413L539.967,115.49L541.993,115.565L544.001,115.638L545.99,115.708L547.96,115.776L549.909,115.842L551.837,115.906L553.742,115.967L555.623,116.025L557.48,116.081L559.312,116.134L561.117,116.185L562.894,116.233L564.644,116.278L566.363,116.32L568.053,116.36L569.71,116.396L571.336,116.429L572.928,116.46L574.485,116.487L576.008,116.511L577.494,116.532L578.942,116.55L580.352,116.564L581.722,116.576L583.052,116.583L584.341,116.587L585.588,116.588L586.193,116.587L586.789,116.585L587.373,116.583L587.946,116.579L588.508,116.574L589.058,116.569L589.596,116.563L590.123,116.555L590.637,116.547L591.139,116.538L591.629,116.528L592.106,116.517L592.571,116.505L593.023,116.492L593.462,116.478L593.888,116.463L594.3,116.447L594.699,116.431L595.084,116.413L595.455,116.395L595.812,116.375L596.154,116.355L596.482,116.334L596.795,116.312L597.092,116.289L597.373,116.265L597.638,116.241L597.887,116.216L598.118,116.191L598.332,116.165L598.526,116.14L598.701,116.114L598.862,116.088L598.924,116.077L598.985,116.066L599.043,116.054L599.092,116.044L599.134,116.035L599.171,116.026L599.316,115.99L599.466,115.95L599.619,115.907L599.776,115.861L599.937,115.811L600.102,115.759L600.269,115.703L600.44,115.644L600.615,115.581L600.792,115.516L600.973,115.447L601.156,115.375L601.343,115.3L601.532,115.222L601.724,115.14L601.919,115.056L602.117,114.968L602.317,114.877L602.52,114.783L602.725,114.687L602.933,114.587L603.143,114.484L603.355,114.378L603.57,114.27L603.787,114.158L604.006,114.044L604.227,113.927L604.451,113.807L604.676,113.684L604.903,113.558L605.133,113.43L605.364,113.299L605.597,113.165L605.832,113.029L606.068,112.89L606.307,112.748L606.547,112.604L606.789,112.457L607.032,112.308L607.277,112.156L607.524,112.002L607.772,111.846L608.021,111.687L608.273,111.526L608.525,111.362L608.779,111.196L609.034,111.028L609.291,110.857L609.549,110.684L609.808,110.51L610.068,110.333L610.33,110.153L610.592,109.972L610.856,109.789L611.121,109.603L611.387,109.416L611.654,109.226L611.922,109.035L612.191,108.841L612.461,108.646L612.732,108.449L613.004,108.249L613.277,108.049L613.55,107.846L613.825,107.642L614.1,107.435L614.376,107.227L614.653,107.018L614.93,106.806L615.207,106.594L615.766,106.163L616.326,105.726L616.889,105.283L617.453,104.834L618.019,104.379L618.586,103.92L619.155,103.455L619.725,102.985L620.296,102.51L620.867,102.031L621.439,101.548L622.011,101.061L622.583,100.57L623.154,100.075L623.726,99.576L624.296,99.075L624.866,98.571L625.435,98.063L626.002,97.554L626.569,97.041L627.133,96.527L627.696,96.011L628.256,95.493L628.815,94.974L629.37,94.454L629.923,93.932L630.474,93.409L631.021,92.886L631.565,92.363L632.105,91.839L632.642,91.316L633.174,90.792L633.703,90.269L634.227,89.747L634.747,89.226L635.262,88.706L635.772,88.187L636.277,87.67L636.777,87.154L637.271,86.64L637.76,86.129L638.242,85.62L638.718,85.114L639.188,84.611L639.651,84.111L640.108,83.613L640.557,83.12L640.999,82.631L641.434,82.145L641.862,81.664L642.281,81.187L642.692,80.715L643.095,80.248L643.49,79.786L643.875,79.329L644.252,78.879L644.62,78.434L644.978,77.995L645.327,77.563L645.667,77.136L645.831,76.928L645.994,76.72L646.155,76.513L646.313,76.308L646.468,76.106L646.621,75.905L646.771,75.706L646.918,75.51L647.062,75.315L647.204,75.122L647.343,74.932L647.479,74.744L647.613,74.558L647.742,74.375L647.87,74.193L647.994,74.014L648.115,73.837L648.234,73.663L648.349,73.491L648.461,73.323L648.569,73.157L648.675,72.993L648.778,72.832L648.877,72.674L648.973,72.519L649.066,72.367L649.155,72.218L649.24,72.073L649.323,71.93L649.329,71.92L649.298,71.93Z" style="fill:rgb(215,121,47);"/>
                </g>
                <g id="_-Kurve-1" serif:id="(Kurve)" transform="matrix(-1.54781,0,0,2.2806,1098.64,176.844)">
                    <path d="M397.731,65.968C408.599,74.201 421.48,79.681 434.976,81.729C442.469,82.866 451.943,83.489 459.494,83.68C463.485,83.78 475.775,83.324 478.881,82.937C485.55,82.105 509.027,77.343 511.341,78.114C518.639,80.544 566.108,90.211 569.974,89.879C572.829,89.634 575.867,89.547 578.581,88.512C590.718,83.881 600.878,74.878 613.996,72.752C621.722,71.5 627.666,73.106 634.998,75.668C638.585,76.921 641.945,77.585 644.169,80.977C647.485,86.031 615.763,115.11 599.888,118.974C586.957,122.122 409.001,112.946 406.478,109.781C401.256,103.23 397.731,65.968 397.731,65.968Z" style="fill:rgb(202,148,17);"/>
                    <path d="M510.909,75.004L511.078,75.013L511.25,75.027L511.429,75.045L511.619,75.072L511.823,75.108L512.025,75.154L512.169,75.194L512.265,75.224L512.447,75.284L512.613,75.336L512.797,75.392L512.998,75.452L513.215,75.515L513.448,75.582L513.696,75.651L513.957,75.723L514.234,75.798L514.523,75.875L514.826,75.954L515.142,76.036L515.47,76.12L515.809,76.206L516.527,76.386L517.288,76.573L518.093,76.767L518.938,76.968L519.821,77.176L520.742,77.39L521.697,77.609L522.684,77.834L523.702,78.064L524.749,78.298L525.822,78.536L526.92,78.777L528.04,79.022L529.181,79.269L530.341,79.519L531.518,79.77L532.71,80.024L533.914,80.278L535.129,80.533L536.354,80.789L537.586,81.045L538.823,81.3L540.063,81.554L541.304,81.807L542.545,82.058L543.783,82.308L545.017,82.555L546.244,82.799L547.464,83.04L548.672,83.277L549.869,83.51L551.051,83.739L552.217,83.963L553.366,84.182L554.494,84.395L555.6,84.603L556.682,84.803L557.739,84.997L558.767,85.184L559.766,85.363L560.733,85.534L561.665,85.697L562.562,85.851L563.421,85.995L564.24,86.13L565.018,86.255L565.388,86.314L565.748,86.369L566.096,86.422L566.432,86.473L566.756,86.52L567.067,86.564L567.365,86.606L567.65,86.644L567.92,86.68L568.176,86.712L568.417,86.741L568.642,86.766L568.851,86.789L569.043,86.808L569.217,86.823L569.371,86.836L569.504,86.844L569.613,86.85L569.694,86.853L569.751,86.853L570.268,86.81L570.817,86.767L571.36,86.726L571.898,86.683L572.162,86.662L572.425,86.639L572.686,86.616L572.944,86.592L573.2,86.566L573.454,86.539L573.705,86.511L573.954,86.481L574.2,86.449L574.443,86.415L574.683,86.38L574.92,86.342L575.154,86.301L575.39,86.258L575.499,86.236L575.612,86.213L575.725,86.19L575.836,86.166L575.947,86.14L576.057,86.115L576.165,86.088L576.274,86.061L576.381,86.034L576.487,86.005L576.592,85.976L576.697,85.946L576.8,85.915L576.903,85.883L577.005,85.851L577.105,85.818L577.206,85.784L577.304,85.749L577.402,85.714L577.503,85.676L577.767,85.574L578.035,85.469L578.302,85.363L578.569,85.255L578.836,85.146L579.102,85.035L579.368,84.922L579.634,84.809L579.899,84.693L580.164,84.577L580.429,84.459L580.694,84.34L580.959,84.219L581.223,84.097L581.487,83.974L581.751,83.85L582.015,83.724L582.279,83.598L582.542,83.47L582.805,83.341L583.069,83.211L583.332,83.08L583.595,82.948L583.856,82.816L584.385,82.545L584.91,82.273L585.436,81.997L585.962,81.718L586.488,81.436L587.014,81.151L587.541,80.864L588.068,80.575L588.596,80.283L589.124,79.991L590.185,79.4L591.248,78.807L592.316,78.213L592.853,77.915L593.391,77.618L593.931,77.322L594.472,77.027L595.016,76.732L595.562,76.44L596.11,76.149L596.66,75.86L597.213,75.573L597.766,75.29L598.047,75.148L598.326,75.007L598.606,74.868L598.887,74.729L599.169,74.591L599.451,74.454L599.734,74.318L600.018,74.183L600.302,74.049L600.588,73.916L600.875,73.784L601.162,73.653L601.45,73.523L601.739,73.395L602.028,73.267L602.319,73.141L602.611,73.016L602.903,72.893L603.197,72.771L603.492,72.65L603.787,72.531L604.084,72.413L604.381,72.296L604.68,72.182L604.98,72.068L605.28,71.957L605.582,71.847L605.885,71.739L606.189,71.632L606.494,71.528L606.8,71.425L607.108,71.324L607.416,71.225L607.726,71.128L608.037,71.032L608.349,70.939L608.662,70.848L608.976,70.759L609.292,70.672L609.609,70.588L609.927,70.505L610.246,70.425L610.567,70.347L610.888,70.272L611.212,70.199L611.537,70.128L611.862,70.06L612.189,69.994L612.518,69.931L612.847,69.87L613.178,69.812L613.508,69.757L613.707,69.726L613.902,69.696L614.097,69.667L614.291,69.639L614.485,69.612L614.678,69.586L614.871,69.561L615.063,69.538L615.255,69.515L615.446,69.494L615.636,69.473L615.826,69.454L616.016,69.436L616.205,69.419L616.394,69.403L616.582,69.388L616.769,69.374L616.956,69.361L617.143,69.349L617.334,69.337L617.701,69.319L618.07,69.304L618.438,69.293L618.804,69.287L619.168,69.284L619.531,69.285L619.892,69.29L620.252,69.299L620.609,69.311L620.966,69.327L621.321,69.347L621.675,69.37L622.027,69.397L622.379,69.427L622.729,69.461L623.077,69.498L623.425,69.538L623.771,69.582L624.117,69.629L624.461,69.678L624.804,69.731L625.147,69.787L625.488,69.846L625.829,69.908L626.169,69.972L626.508,70.04L626.847,70.11L627.185,70.182L627.522,70.257L627.86,70.335L628.196,70.415L628.532,70.497L628.869,70.582L629.205,70.669L629.54,70.759L629.876,70.85L630.212,70.944L630.548,71.039L630.884,71.137L631.22,71.236L631.557,71.338L631.894,71.441L632.231,71.546L632.57,71.653L632.908,71.761L633.247,71.871L633.588,71.982L633.929,72.095L634.271,72.21L634.616,72.327L635.303,72.562L635.99,72.801L636.315,72.913L636.633,73.02L636.955,73.128L637.281,73.235L637.94,73.452L638.275,73.564L638.612,73.678L638.953,73.796L639.292,73.916L639.468,73.98L639.64,74.043L639.815,74.109L639.989,74.176L640.164,74.245L640.339,74.315L640.515,74.388L640.692,74.462L640.868,74.538L641.045,74.617L641.223,74.698L641.4,74.782L641.578,74.868L641.757,74.957L641.935,75.048L642.113,75.143L642.291,75.24L642.469,75.341L642.648,75.445L642.825,75.552L643.002,75.663L643.179,75.777L643.355,75.895L643.53,76.017L643.705,76.143L643.878,76.272L644.051,76.406L644.223,76.543L644.393,76.685L644.561,76.83L644.728,76.98L644.893,77.134L645.057,77.292L645.219,77.455L645.378,77.622L645.535,77.792L645.691,77.968L645.844,78.148L645.994,78.331L646.142,78.519L646.287,78.711L646.43,78.908L646.569,79.108L646.711,79.319L646.77,79.412L646.831,79.514L646.889,79.617L646.943,79.719L646.994,79.823L647.042,79.926L647.088,80.033L647.131,80.141L647.17,80.246L647.211,80.367L647.27,80.561L647.323,80.771L647.365,80.979L647.398,81.185L647.421,81.387L647.436,81.585L647.444,81.779L647.444,81.971L647.438,82.16L647.426,82.344L647.409,82.524L647.387,82.704L647.36,82.879L647.329,83.051L647.294,83.221L647.256,83.389L647.214,83.556L647.168,83.72L647.12,83.883L647.069,84.044L647.015,84.205L646.957,84.364L646.898,84.522L646.836,84.68L646.771,84.837L646.704,84.994L646.635,85.15L646.563,85.307L646.489,85.464L646.412,85.621L646.333,85.777L646.252,85.933L646.169,86.09L646.083,86.248L645.996,86.405L645.906,86.563L645.813,86.722L645.72,86.881L645.623,87.04L645.525,87.201L645.424,87.362L645.321,87.523L645.217,87.685L645.11,87.848L645.001,88.011L644.89,88.176L644.777,88.341L644.661,88.507L644.544,88.673L644.425,88.84L644.304,89.008L644.181,89.177L644.056,89.347L643.929,89.517L643.8,89.688L643.669,89.86L643.536,90.032L643.401,90.206L643.265,90.38L643.126,90.555L642.983,90.734L642.699,91.085L642.405,91.442L642.104,91.802L641.796,92.165L641.481,92.531L641.159,92.899L640.83,93.271L640.494,93.644L640.152,94.02L639.803,94.399L639.449,94.78L639.088,95.163L638.721,95.548L638.348,95.935L637.969,96.324L637.585,96.715L637.195,97.107L636.8,97.5L636.4,97.895L635.994,98.292L635.583,98.689L635.168,99.087L634.748,99.487L634.323,99.887L633.894,100.287L633.46,100.688L633.023,101.09L632.581,101.491L632.135,101.893L631.686,102.295L631.233,102.696L630.776,103.098L630.316,103.499L629.853,103.899L629.386,104.298L628.917,104.697L628.445,105.095L627.971,105.492L627.493,105.887L627.013,106.281L626.531,106.674L626.047,107.065L625.561,107.454L625.073,107.841L624.583,108.227L624.092,108.61L623.599,108.991L623.105,109.369L622.61,109.745L622.113,110.118L621.616,110.488L621.118,110.856L620.619,111.22L620.12,111.581L619.62,111.939L619.12,112.293L618.62,112.643L618.12,112.99L617.62,113.333L617.12,113.671L616.62,114.006L616.121,114.336L615.623,114.662L615.126,114.983L614.629,115.299L614.133,115.611L613.641,115.916L613.392,116.069L613.145,116.219L612.899,116.368L612.653,116.515L612.408,116.661L612.162,116.806L611.917,116.95L611.673,117.092L611.429,117.232L611.185,117.371L610.942,117.509L610.7,117.645L610.458,117.78L610.216,117.913L609.975,118.045L609.734,118.175L609.494,118.304L609.254,118.431L609.015,118.557L608.776,118.68L608.538,118.803L608.301,118.923L608.064,119.042L607.828,119.16L607.592,119.275L607.357,119.389L607.122,119.502L606.888,119.612L606.655,119.721L606.422,119.828L606.19,119.933L605.959,120.036L605.728,120.138L605.498,120.238L605.269,120.335L605.04,120.431L604.812,120.526L604.584,120.618L604.358,120.708L604.131,120.796L603.906,120.882L603.682,120.967L603.457,121.049L603.234,121.129L603.012,121.207L602.79,121.283L602.568,121.357L602.348,121.429L602.127,121.498L601.908,121.565L601.69,121.631L601.471,121.694L601.254,121.754L601.038,121.812L600.821,121.868L600.602,121.923L600.486,121.95L600.367,121.977L600.246,122.002L600.124,122.026L600.002,122.048L599.871,122.071L599.624,122.111L599.362,122.15L599.091,122.186L598.81,122.219L598.519,122.251L598.216,122.281L597.902,122.31L597.577,122.337L597.24,122.363L596.89,122.388L596.529,122.411L596.156,122.433L595.771,122.454L595.373,122.474L594.964,122.493L594.542,122.51L594.109,122.527L593.663,122.542L593.205,122.557L592.736,122.57L592.255,122.583L591.762,122.594L591.257,122.604L590.741,122.614L590.213,122.622L589.675,122.63L589.124,122.636L588.563,122.642L587.99,122.647L587.407,122.65L586.813,122.653L586.208,122.655L585.591,122.656L584.329,122.655L583.025,122.651L581.68,122.643L580.296,122.632L578.874,122.617L577.414,122.6L575.917,122.579L574.384,122.554L572.817,122.527L571.215,122.496L569.581,122.462L567.915,122.426L566.218,122.386L564.491,122.344L562.734,122.299L560.95,122.251L559.138,122.2L557.301,122.146L555.438,122.09L553.55,122.032L551.64,121.97L549.707,121.907L547.752,121.841L545.778,121.772L543.783,121.701L541.771,121.628L539.74,121.553L537.694,121.476L535.631,121.396L533.554,121.315L531.464,121.231L529.361,121.146L527.246,121.059L525.12,120.97L522.985,120.879L520.84,120.786L518.689,120.692L516.53,120.596L514.365,120.498L512.196,120.399L510.022,120.298L507.846,120.196L505.667,120.093L503.488,119.988L501.308,119.882L499.13,119.775L496.953,119.667L494.78,119.558L492.61,119.447L490.445,119.336L488.285,119.223L486.133,119.11L483.988,118.996L481.852,118.881L479.726,118.765L477.61,118.649L475.506,118.532L473.415,118.414L471.337,118.296L469.273,118.178L467.226,118.059L465.194,117.939L463.18,117.82L461.185,117.7L459.209,117.58L457.253,117.459L455.318,117.339L453.406,117.218L451.517,117.098L449.653,116.977L447.813,116.857L446,116.737L444.214,116.617L442.456,116.497L440.727,116.377L439.028,116.258L437.36,116.14L435.724,116.021L434.12,115.904L432.551,115.786L431.016,115.67L429.518,115.554L428.056,115.439L426.631,115.324L425.245,115.21L423.899,115.098L422.593,114.986L421.329,114.875L420.107,114.765L418.928,114.656L417.793,114.548L416.702,114.441L415.659,114.335L415.154,114.283L414.66,114.231L414.179,114.179L413.71,114.127L413.253,114.076L412.807,114.025L412.374,113.974L411.954,113.924L411.545,113.874L411.149,113.824L410.765,113.775L410.394,113.725L410.035,113.676L409.688,113.627L409.354,113.579L409.033,113.53L408.723,113.482L408.426,113.433L408.14,113.385L407.866,113.336L407.603,113.287L407.351,113.237L407.11,113.187L406.876,113.135L406.651,113.081L406.432,113.025L406.226,112.968L406.108,112.932L406,112.898L405.891,112.861L405.777,112.821L405.662,112.777L405.541,112.728L405.411,112.671L405.275,112.606L405.128,112.528L404.964,112.432L404.78,112.311L404.576,112.154L404.464,112.054L404.241,111.831L404.153,111.733L404.01,111.55L403.916,111.426L403.825,111.3L403.737,111.174L403.65,111.047L403.565,110.918L403.483,110.787L403.402,110.656L403.322,110.523L403.243,110.389L403.166,110.253L403.091,110.117L403.017,109.978L402.943,109.838L402.87,109.696L402.799,109.553L402.729,109.409L402.659,109.263L402.59,109.115L402.521,108.966L402.454,108.815L402.387,108.663L402.321,108.509L402.255,108.353L402.191,108.196L402.126,108.037L402.062,107.877L401.999,107.715L401.936,107.551L401.872,107.382L401.75,107.051L401.629,106.709L401.508,106.361L401.39,106.007L401.273,105.647L401.157,105.281L401.042,104.908L400.929,104.53L400.817,104.146L400.706,103.756L400.596,103.361L400.487,102.961L400.379,102.555L400.273,102.144L400.167,101.729L400.063,101.308L399.959,100.883L399.856,100.453L399.755,100.02L399.654,99.582L399.555,99.14L399.456,98.694L399.358,98.245L399.261,97.792L399.165,97.336L399.07,96.876L398.977,96.414L398.883,95.949L398.791,95.482L398.7,95.012L398.61,94.54L398.521,94.066L398.432,93.59L398.345,93.112L398.258,92.633L398.173,92.152L398.088,91.671L398.004,91.188L397.922,90.705L397.84,90.221L397.759,89.737L397.679,89.252L397.6,88.767L397.445,87.8L397.294,86.834L397.147,85.872L397.003,84.915L396.864,83.965L396.729,83.024L396.598,82.092L396.47,81.171L396.347,80.264L396.228,79.371L396.113,78.494L396.003,77.634L395.896,76.794L395.794,75.974L395.697,75.176L395.603,74.402L395.514,73.654L395.43,72.932L395.349,72.238L395.274,71.574L395.203,70.941L395.075,69.778L394.965,68.757L394.875,67.894L394.804,67.199L394.753,66.686L394.712,66.262L394.707,65.722L394.799,65.191L394.983,64.684L395.253,64.217L395.603,63.806L396.019,63.463L396.49,63.2L396.999,63.024L397.532,62.941L398.072,62.953L398.6,63.061L399.101,63.261L399.559,63.546L399.809,63.735L400.055,63.919L400.303,64.103L400.55,64.285L400.798,64.466L401.048,64.647L401.297,64.826L401.548,65.005L401.799,65.182L402.051,65.359L402.304,65.534L402.557,65.709L402.811,65.883L403.065,66.055L403.32,66.227L403.576,66.397L403.833,66.567L404.09,66.735L404.348,66.903L404.606,67.07L404.865,67.235L405.125,67.4L405.385,67.563L405.647,67.726L405.908,67.887L406.17,68.048L406.433,68.207L406.697,68.366L406.96,68.523L407.225,68.679L407.49,68.835L407.756,68.989L408.023,69.143L408.289,69.295L408.557,69.446L408.825,69.596L409.094,69.746L409.363,69.894L409.633,70.041L409.904,70.187L410.175,70.332L410.446,70.476L410.718,70.619L410.991,70.761L411.264,70.901L411.538,71.041L411.812,71.18L412.087,71.318L412.362,71.454L412.638,71.59L412.914,71.724L413.191,71.858L413.468,71.99L413.746,72.121L414.025,72.251L414.303,72.38L414.583,72.509L414.863,72.635L415.143,72.761L415.424,72.886L415.705,73.01L415.987,73.132L416.269,73.254L416.552,73.374L416.835,73.494L417.118,73.612L417.403,73.729L417.687,73.845L417.972,73.96L418.257,74.074L418.543,74.187L418.83,74.298L419.116,74.409L419.403,74.518L419.691,74.627L419.979,74.734L420.267,74.84L420.556,74.945L420.845,75.049L421.135,75.152L421.425,75.253L421.715,75.354L422.006,75.453L422.297,75.551L422.589,75.649L422.881,75.744L423.173,75.839L423.466,75.933L423.759,76.026L424.052,76.117L424.346,76.207L424.64,76.296L424.935,76.385L425.229,76.471L425.525,76.557L425.82,76.642L426.116,76.725L426.412,76.807L426.709,76.888L427.005,76.968L427.302,77.047L427.6,77.125L427.898,77.201L428.196,77.276L428.494,77.351L428.793,77.424L429.092,77.495L429.391,77.566L429.691,77.636L429.99,77.704L430.29,77.771L430.591,77.837L430.891,77.901L431.192,77.965L431.494,78.027L431.795,78.089L432.097,78.148L432.399,78.207L432.701,78.265L433.003,78.321L433.306,78.377L433.609,78.431L433.912,78.483L434.215,78.535L434.519,78.585L434.823,78.635L435.127,78.683L435.432,78.729L435.774,78.781L436.12,78.832L436.469,78.882L436.821,78.931L437.175,78.98L437.532,79.028L437.892,79.075L438.255,79.122L438.619,79.168L438.986,79.213L439.355,79.257L439.727,79.301L440.1,79.345L440.473,79.387L441.23,79.47L441.992,79.55L442.76,79.628L443.532,79.702L444.309,79.774L445.089,79.843L445.872,79.909L446.657,79.973L447.442,80.034L448.229,80.092L449.015,80.148L449.8,80.2L450.583,80.25L451.363,80.298L452.14,80.343L452.914,80.385L453.682,80.424L454.445,80.461L455.202,80.495L455.952,80.527L456.694,80.556L457.428,80.582L458.152,80.606L458.867,80.628L459.569,80.647L459.747,80.65L459.934,80.654L460.357,80.658L460.822,80.66L461.331,80.658L461.878,80.654L462.459,80.648L463.071,80.639L463.711,80.627L464.374,80.613L465.058,80.597L465.759,80.578L466.474,80.558L467.199,80.536L467.931,80.512L468.668,80.486L469.405,80.459L470.139,80.431L470.867,80.401L471.586,80.37L472.293,80.338L472.984,80.305L473.655,80.271L474.304,80.236L474.927,80.201L475.52,80.166L476.081,80.13L476.604,80.095L477.087,80.059L477.527,80.024L477.724,80.006L477.911,79.989L478.083,79.973L478.241,79.956L478.382,79.941L478.507,79.926L478.808,79.887L479.137,79.842L479.492,79.792L479.872,79.736L480.275,79.675L480.7,79.61L481.145,79.539L481.61,79.464L482.094,79.385L482.594,79.303L483.648,79.126L484.759,78.936L485.922,78.735L487.129,78.524L488.374,78.306L490.947,77.854L492.261,77.623L493.585,77.392L494.911,77.162L496.232,76.934L497.542,76.711L498.832,76.494L499.47,76.389L500.099,76.285L500.721,76.184L501.334,76.086L501.938,75.99L502.531,75.898L503.113,75.809L503.683,75.723L504.241,75.641L504.785,75.562L505.315,75.488L505.83,75.418L506.329,75.353L506.813,75.292L507.28,75.236L507.73,75.185L508.159,75.14L508.372,75.12L508.577,75.1L508.777,75.083L508.974,75.066L509.167,75.052L509.355,75.039L509.54,75.027L509.72,75.017L509.897,75.009L510.07,75.003L510.241,74.998L510.41,74.996L510.576,74.996L510.743,74.999L510.909,75.004ZM401.54,72.943L401.628,73.681L401.72,74.444L401.816,75.23L401.917,76.038L402.022,76.866L402.131,77.713L402.244,78.576L402.361,79.455L402.482,80.348L402.607,81.253L402.736,82.169L402.869,83.093L403.006,84.026L403.146,84.964L403.29,85.906L403.438,86.851L403.59,87.799L403.667,88.271L403.745,88.743L403.824,89.216L403.903,89.687L403.984,90.158L404.065,90.627L404.148,91.095L404.231,91.562L404.315,92.026L404.399,92.489L404.485,92.95L404.571,93.408L404.658,93.864L404.746,94.317L404.835,94.767L404.924,95.214L405.015,95.658L405.106,96.097L405.197,96.533L405.29,96.965L405.383,97.393L405.476,97.816L405.571,98.235L405.666,98.648L405.761,99.057L405.858,99.46L405.955,99.858L406.052,100.249L406.15,100.635L406.248,101.015L406.347,101.387L406.447,101.753L406.547,102.113L406.647,102.464L406.747,102.809L406.848,103.145L406.949,103.473L407.05,103.793L407.152,104.105L407.253,104.407L407.354,104.7L407.455,104.984L407.558,105.262L407.607,105.391L407.656,105.521L407.707,105.649L407.756,105.774L407.806,105.896L407.856,106.017L407.905,106.133L407.953,106.246L408.002,106.357L408.05,106.466L408.098,106.57L408.145,106.671L408.192,106.77L408.239,106.865L408.285,106.957L408.33,107.046L408.375,107.13L408.419,107.212L408.45,107.268L408.557,107.29L408.746,107.328L408.954,107.366L409.179,107.406L409.421,107.448L409.68,107.49L409.955,107.533L410.245,107.576L410.55,107.621L410.869,107.666L411.204,107.712L411.553,107.758L411.916,107.805L412.293,107.852L412.683,107.9L413.088,107.949L413.505,107.997L413.936,108.047L414.379,108.096L414.835,108.147L415.304,108.197L415.786,108.248L416.278,108.299L417.304,108.403L418.376,108.508L419.494,108.614L420.658,108.722L421.866,108.831L423.118,108.941L424.412,109.051L425.747,109.163L427.122,109.276L428.537,109.39L429.99,109.504L431.48,109.62L433.007,109.736L434.569,109.852L436.165,109.97L437.794,110.087L439.455,110.206L441.148,110.324L442.871,110.443L444.623,110.563L446.404,110.682L448.212,110.802L450.046,110.922L451.906,111.042L453.79,111.163L455.698,111.283L457.628,111.403L459.579,111.523L461.551,111.643L463.542,111.763L465.552,111.882L467.579,112.001L469.623,112.12L471.683,112.238L473.757,112.356L475.845,112.474L477.945,112.59L480.057,112.707L482.18,112.822L484.313,112.937L486.454,113.051L488.603,113.164L490.758,113.276L492.92,113.387L495.086,113.498L497.257,113.607L499.43,113.715L501.605,113.822L503.781,113.928L505.957,114.032L508.131,114.135L510.304,114.237L512.474,114.337L514.64,114.436L516.801,114.534L518.956,114.63L521.104,114.724L523.245,114.816L525.376,114.907L527.498,114.996L529.609,115.083L531.708,115.169L533.794,115.252L535.867,115.333L537.925,115.412L539.967,115.49L541.993,115.565L544.001,115.638L545.99,115.708L547.96,115.776L549.909,115.842L551.837,115.906L553.742,115.967L555.623,116.025L557.48,116.081L559.312,116.134L561.117,116.185L562.894,116.233L564.643,116.278L566.363,116.32L568.052,116.36L569.71,116.396L571.336,116.429L572.928,116.46L574.485,116.487L576.008,116.511L577.494,116.532L578.942,116.55L580.352,116.564L581.722,116.576L583.052,116.583L584.341,116.587L585.588,116.588L586.193,116.587L586.789,116.585L587.373,116.583L587.946,116.579L588.508,116.574L589.058,116.569L589.596,116.563L590.123,116.555L590.637,116.547L591.139,116.538L591.629,116.528L592.106,116.517L592.571,116.505L593.023,116.492L593.462,116.478L593.887,116.463L594.3,116.447L594.699,116.431L595.084,116.413L595.455,116.395L595.812,116.375L596.154,116.355L596.482,116.334L596.794,116.312L597.091,116.289L597.373,116.265L597.638,116.241L597.887,116.216L598.118,116.191L598.332,116.165L598.526,116.14L598.701,116.114L598.861,116.088L598.923,116.077L598.986,116.066L599.042,116.055L599.091,116.044L599.135,116.035L599.174,116.025L599.329,115.987L599.489,115.946L599.651,115.902L599.816,115.856L599.983,115.808L600.152,115.757L600.322,115.705L600.495,115.65L600.67,115.594L600.846,115.535L601.025,115.474L601.205,115.41L601.388,115.345L601.571,115.277L601.757,115.208L601.945,115.136L602.133,115.062L602.324,114.987L602.516,114.909L602.709,114.829L602.905,114.747L603.101,114.663L603.299,114.577L603.499,114.49L603.7,114.4L603.902,114.308L604.106,114.215L604.31,114.119L604.517,114.022L604.724,113.923L604.932,113.822L605.142,113.719L605.353,113.614L605.565,113.507L605.778,113.399L605.991,113.289L606.207,113.178L606.423,113.064L606.64,112.949L606.858,112.832L607.077,112.714L607.297,112.594L607.518,112.472L607.739,112.349L607.962,112.224L608.185,112.097L608.409,111.969L608.634,111.84L608.86,111.708L609.086,111.576L609.313,111.442L609.541,111.306L609.769,111.169L609.998,111.031L610.228,110.891L610.456,110.751L610.92,110.464L611.384,110.172L611.85,109.875L612.318,109.573L612.787,109.267L613.258,108.955L613.729,108.639L614.202,108.319L614.676,107.994L615.151,107.665L615.626,107.332L616.101,106.995L616.577,106.655L617.052,106.311L617.528,105.964L618.004,105.613L618.479,105.259L618.953,104.903L619.427,104.543L619.899,104.181L620.371,103.817L620.842,103.45L621.311,103.081L621.779,102.709L622.245,102.336L622.709,101.961L623.171,101.585L623.632,101.207L624.089,100.827L624.545,100.447L624.998,100.065L625.448,99.683L625.895,99.299L626.339,98.916L626.78,98.532L627.218,98.147L627.651,97.762L628.082,97.378L628.508,96.993L628.931,96.609L629.349,96.225L629.763,95.842L630.173,95.46L630.578,95.078L630.978,94.698L631.373,94.319L631.764,93.942L632.149,93.565L632.528,93.191L632.902,92.818L633.271,92.448L633.633,92.079L633.989,91.713L634.34,91.35L634.684,90.989L635.021,90.631L635.351,90.276L635.675,89.925L635.992,89.576L636.302,89.231L636.604,88.89L636.899,88.553L637.185,88.22L637.464,87.892L637.735,87.568L637.998,87.248L638.255,86.932L638.377,86.779L638.498,86.625L638.618,86.473L638.735,86.322L638.851,86.171L638.964,86.023L639.074,85.877L639.182,85.732L639.288,85.588L639.392,85.447L639.493,85.306L639.592,85.167L639.688,85.03L639.782,84.895L639.873,84.762L639.962,84.63L640.048,84.501L640.132,84.373L640.214,84.247L640.292,84.124L640.368,84.003L640.441,83.884L640.512,83.767L640.58,83.652L640.645,83.54L640.707,83.431L640.767,83.323L640.824,83.219L640.877,83.117L640.929,83.018L640.977,82.922L641.022,82.829L641.065,82.74L641.104,82.654L641.141,82.57L641.175,82.491L641.206,82.416L641.235,82.343L641.26,82.275L641.283,82.213L641.296,82.173L641.262,82.129L641.185,82.036L641.109,81.947L641.032,81.86L640.954,81.775L640.875,81.693L640.796,81.613L640.716,81.535L640.634,81.459L640.552,81.385L640.467,81.312L640.382,81.242L640.296,81.173L640.208,81.105L640.119,81.038L640.028,80.973L639.935,80.908L639.841,80.845L639.745,80.783L639.647,80.721L639.547,80.661L639.445,80.602L639.341,80.543L639.235,80.485L639.126,80.427L639.016,80.371L638.904,80.315L638.789,80.259L638.672,80.204L638.553,80.15L638.432,80.096L638.308,80.042L638.182,79.989L638.054,79.936L637.923,79.884L637.791,79.832L637.656,79.78L637.519,79.729L637.38,79.677L637.241,79.627L636.948,79.523L636.651,79.42L636.345,79.317L636.032,79.212L635.38,78.998L635.045,78.887L634.702,78.773L634.352,78.654L634.005,78.534L633.325,78.298L632.661,78.071L632.336,77.961L632.011,77.852L631.688,77.745L631.367,77.64L631.048,77.537L630.731,77.435L630.417,77.336L630.105,77.239L629.794,77.144L629.485,77.051L629.177,76.96L628.872,76.871L628.567,76.784L628.265,76.7L627.963,76.618L627.664,76.538L627.365,76.461L627.068,76.386L626.771,76.313L626.476,76.243L626.182,76.175L625.889,76.11L625.596,76.047L625.304,75.987L625.013,75.929L624.722,75.874L624.432,75.821L624.143,75.771L623.853,75.724L623.564,75.68L623.275,75.638L622.986,75.599L622.696,75.562L622.407,75.529L622.117,75.498L621.827,75.47L621.537,75.445L621.245,75.423L620.954,75.404L620.661,75.387L620.368,75.374L620.073,75.364L619.778,75.357L619.481,75.353L619.183,75.352L618.883,75.354L618.582,75.36L618.279,75.369L617.975,75.381L617.664,75.396L617.515,75.405L617.36,75.415L617.205,75.426L617.05,75.437L616.894,75.45L616.738,75.463L616.581,75.477L616.423,75.493L616.265,75.509L616.106,75.526L615.946,75.544L615.786,75.562L615.626,75.582L615.464,75.603L615.302,75.624L615.139,75.647L614.976,75.67L614.812,75.695L614.647,75.72L614.484,75.746L614.2,75.794L613.919,75.843L613.64,75.894L613.36,75.948L613.082,76.004L612.804,76.062L612.528,76.122L612.251,76.185L611.976,76.25L611.701,76.316L611.426,76.385L611.152,76.456L610.879,76.529L610.607,76.604L610.335,76.681L610.063,76.76L609.792,76.841L609.522,76.924L609.252,77.008L608.982,77.095L608.713,77.183L608.444,77.273L608.176,77.365L607.909,77.459L607.641,77.555L607.374,77.652L607.107,77.751L606.841,77.852L606.575,77.954L606.309,78.058L606.044,78.163L605.778,78.27L605.514,78.379L605.249,78.489L604.985,78.601L604.721,78.714L604.457,78.828L604.193,78.944L603.929,79.061L603.666,79.18L603.403,79.3L603.14,79.421L602.878,79.544L602.615,79.667L602.352,79.792L602.089,79.919L601.827,80.046L601.565,80.174L601.303,80.304L601.041,80.434L600.778,80.566L600.518,80.698L599.992,80.967L599.468,81.239L598.943,81.514L598.419,81.793L597.894,82.074L597.369,82.358L596.843,82.645L596.317,82.934L595.789,83.225L595.262,83.517L594.202,84.108L593.138,84.701L592.07,85.295L591.532,85.593L590.994,85.891L590.453,86.187L589.91,86.483L589.365,86.778L588.818,87.071L588.269,87.363L587.717,87.653L587.163,87.94L586.608,88.224L586.326,88.366L586.046,88.507L585.764,88.647L585.483,88.786L585.2,88.925L584.916,89.062L584.632,89.199L584.347,89.334L584.061,89.469L583.774,89.603L583.487,89.735L583.199,89.867L582.909,89.997L582.619,90.126L582.327,90.254L582.035,90.381L581.742,90.506L581.448,90.631L581.153,90.754L580.857,90.875L580.56,90.995L580.262,91.114L579.962,91.231L579.659,91.348L579.505,91.405L579.347,91.463L579.189,91.518L579.031,91.572L578.873,91.624L578.716,91.674L578.559,91.722L578.401,91.769L578.244,91.815L578.087,91.858L577.93,91.9L577.773,91.941L577.617,91.98L577.461,92.018L577.305,92.054L577.149,92.09L576.994,92.123L576.839,92.156L576.684,92.187L576.524,92.219L576.222,92.275L575.916,92.327L575.611,92.376L575.308,92.421L575.006,92.463L574.707,92.502L574.409,92.538L574.113,92.571L573.82,92.602L573.528,92.631L573.239,92.659L572.952,92.684L572.668,92.708L572.384,92.732L571.831,92.775L571.287,92.817L570.754,92.859L570.208,92.904L570.11,92.911L569.994,92.917L569.883,92.92L569.765,92.921L569.568,92.92L569.359,92.913L569.148,92.902L568.931,92.888L568.706,92.87L568.473,92.849L568.23,92.825L567.976,92.798L567.711,92.767L567.435,92.734L567.148,92.698L566.85,92.659L566.541,92.617L566.22,92.573L565.888,92.525L565.545,92.475L565.192,92.422L564.827,92.367L564.452,92.309L564.065,92.248L563.265,92.119L562.424,91.981L561.546,91.833L560.631,91.676L559.683,91.511L558.701,91.337L557.689,91.155L556.649,90.966L555.581,90.77L554.488,90.568L553.372,90.359L552.234,90.143L551.077,89.923L549.902,89.697L548.712,89.467L547.507,89.232L546.291,88.993L545.064,88.751L543.83,88.505L542.589,88.257L541.343,88.006L540.096,87.753L538.847,87.499L537.6,87.243L536.357,86.987L535.118,86.73L533.886,86.473L532.663,86.216L531.452,85.96L530.252,85.705L529.068,85.451L527.9,85.2L526.75,84.951L525.621,84.704L524.514,84.461L523.43,84.22L522.373,83.984L521.344,83.752L520.344,83.525L519.375,83.302L518.44,83.085L517.54,82.873L516.677,82.667L515.852,82.468L515.068,82.276L514.327,82.09L513.97,82L513.626,81.912L513.293,81.825L512.971,81.741L512.661,81.658L512.362,81.577L512.075,81.498L511.799,81.421L511.536,81.346L511.283,81.273L511.042,81.201L510.811,81.13L510.607,81.066L510.595,81.065L510.529,81.064L510.449,81.064L510.358,81.065L510.257,81.068L510.145,81.072L510.024,81.077L509.894,81.085L509.756,81.093L509.609,81.103L509.456,81.115L509.295,81.128L509.126,81.143L508.95,81.16L508.772,81.177L508.386,81.218L507.98,81.264L507.551,81.315L507.101,81.371L506.632,81.433L506.144,81.499L505.638,81.57L505.115,81.645L504.577,81.724L504.025,81.808L503.459,81.894L502.88,81.985L502.29,82.078L501.688,82.175L501.077,82.274L500.458,82.376L499.831,82.48L498.553,82.694L497.256,82.915L495.945,83.141L494.627,83.37L493.308,83.6L491.997,83.83L489.423,84.283L488.174,84.502L486.96,84.713L485.787,84.916L484.661,85.108L483.592,85.288L483.078,85.373L482.581,85.454L482.101,85.531L481.638,85.604L481.193,85.673L480.767,85.738L480.359,85.798L479.972,85.853L479.604,85.903L479.255,85.947L479.076,85.969L478.886,85.99L478.688,86.01L478.48,86.031L478.262,86.05L478.032,86.07L477.553,86.109L477.034,86.147L476.48,86.185L475.894,86.222L475.278,86.259L474.636,86.295L473.969,86.331L473.281,86.365L472.576,86.399L471.855,86.432L471.122,86.463L470.381,86.494L469.634,86.523L468.885,86.55L468.136,86.576L467.391,86.601L466.653,86.623L465.924,86.644L465.209,86.663L464.51,86.679L463.83,86.694L463.172,86.706L462.539,86.715L461.934,86.722L461.361,86.726L460.82,86.728L460.314,86.726L459.85,86.721L459.628,86.717L459.42,86.713L458.695,86.693L457.961,86.671L457.218,86.647L456.466,86.619L455.705,86.59L454.937,86.557L454.162,86.522L453.38,86.484L452.593,86.444L451.801,86.401L451.005,86.355L450.205,86.306L449.402,86.255L448.598,86.201L447.791,86.144L446.984,86.084L446.177,86.022L445.37,85.956L444.565,85.888L443.762,85.817L442.961,85.743L442.164,85.666L441.371,85.586L440.582,85.503L439.801,85.417L439.409,85.373L439.022,85.328L438.636,85.283L438.251,85.236L437.869,85.189L437.488,85.141L437.109,85.092L436.733,85.043L436.358,84.992L435.986,84.941L435.616,84.889L435.248,84.836L434.883,84.783L434.52,84.728L434.193,84.678L433.865,84.626L433.537,84.573L433.21,84.519L432.883,84.463L432.556,84.406L432.229,84.348L431.903,84.288L431.577,84.228L431.251,84.166L430.925,84.102L430.6,84.037L430.275,83.972L429.95,83.904L429.626,83.836L429.302,83.766L428.978,83.695L428.655,83.623L428.332,83.549L428.009,83.474L427.687,83.398L427.364,83.321L427.043,83.242L426.721,83.162L426.4,83.081L426.079,82.999L425.759,82.915L425.439,82.83L425.119,82.744L424.8,82.657L424.481,82.568L424.162,82.479L423.844,82.387L423.526,82.295L423.208,82.202L422.891,82.107L422.575,82.011L422.258,81.914L421.942,81.815L421.627,81.715L421.311,81.615L420.997,81.512L420.682,81.409L420.369,81.305L420.055,81.199L419.742,81.092L419.429,80.984L419.117,80.874L418.806,80.764L418.494,80.652L418.183,80.539L417.873,80.425L417.563,80.309L417.253,80.193L416.944,80.075L416.636,79.956L416.327,79.836L416.02,79.714L415.713,79.592L415.406,79.468L415.1,79.343L414.794,79.217L414.489,79.09L414.184,78.961L413.88,78.832L413.576,78.701L413.273,78.569L412.97,78.436L412.668,78.301L412.366,78.166L412.065,78.029L411.765,77.892L411.465,77.753L411.165,77.613L410.866,77.471L410.568,77.329L410.27,77.185L409.973,77.041L409.676,76.895L409.379,76.748L409.084,76.6L408.789,76.451L408.494,76.3L408.2,76.149L407.907,75.996L407.614,75.842L407.322,75.687L407.03,75.531L406.739,75.374L406.449,75.216L406.159,75.056L405.87,74.896L405.581,74.734L405.293,74.571L405.006,74.407L404.719,74.242L404.433,74.076L404.148,73.909L403.863,73.741L403.579,73.571L403.295,73.401L403.013,73.229L402.73,73.056L402.449,72.882L402.168,72.708L401.887,72.532L401.608,72.354L401.46,72.26L401.54,72.943Z" style="fill:rgb(215,121,47);"/>
                </g>
            </g>
        </g>
    </g>
</svg>
