<?xml version="1.0" encoding="UTF-8" standalone="no"?>
<!DOCTYPE svg PUBLIC "-//W3C//DTD SVG 1.1//EN" "http://www.w3.org/Graphics/SVG/1.1/DTD/svg11.dtd">
<svg width="100%" height="100%" viewBox="0 0 197 53" version="1.1" xmlns="http://www.w3.org/2000/svg" xmlns:xlink="http://www.w3.org/1999/xlink" xml:space="preserve" xmlns:serif="http://www.serif.com/" style="fill-rule:evenodd;clip-rule:evenodd;stroke-linecap:round;stroke-linejoin:round;stroke-miterlimit:1.5;">
    <g transform="matrix(1,0,0,1,-578,-262)">
        <g transform="matrix(-0.500802,0,0,0.332298,820.483,165.199)">
            <path d="M95.831,308.902C95.831,308.902 95.831,308.904 95.831,308.907C95.831,320.13 101.669,329.383 109.107,329.946C119.533,330.736 134.333,331.858 146.858,332.807C162.238,333.973 176.508,345.238 185.9,363.631C185.901,363.632 185.901,363.634 185.902,363.635C189.456,370.595 195.007,374.57 200.833,374.326C206.659,374.082 212.055,369.649 215.347,362.401C218.922,354.533 222.423,346.827 224.825,341.539C226.785,337.224 230.031,334.644 233.501,334.644C233.552,334.644 233.602,334.644 233.653,334.644C237.259,334.644 240.688,337.009 243.045,341.123C243.765,342.381 244.558,343.765 245.393,345.223C248.638,350.887 253.425,353.999 258.385,353.67C263.345,353.341 267.933,349.607 270.834,343.535C270.836,343.533 270.837,343.53 270.838,343.528C272.262,340.549 274.549,338.784 276.985,338.784C277.48,338.784 278.013,338.784 278.575,338.784C293.352,338.784 307.403,348.437 317.096,365.247C320.978,371.979 325.294,379.465 329.665,387.044C337.833,401.211 349.528,409.65 361.973,410.357C374.417,411.064 386.501,403.977 395.354,390.778C395.354,390.778 395.355,390.777 395.355,390.777C397.904,386.977 401.343,384.841 404.928,384.832C406.936,384.827 409.353,384.82 411.957,384.813C429.015,384.769 445.55,375.945 458.825,359.803C462.962,354.773 467.103,349.737 470.582,345.506C476.231,338.637 479.515,328.285 479.515,317.345C479.515,317.343 479.515,317.342 479.515,317.34C479.515,307.763 474.364,300 468.01,300C409.355,300 144.716,300 101.738,300C100.171,300 98.669,300.938 97.561,302.607C96.453,304.277 95.831,306.541 95.831,308.902C95.831,308.902 95.831,308.902 95.831,308.902Z" style="fill:rgb(168,49,55);stroke:rgb(169,53,58);stroke-width:10.59px;"/>
        </g>
    </g>
</svg>
