<svg xmlns="http://www.w3.org/2000/svg" viewBox="0 0 176.496 14.738"><defs><style>.a{fill:#b42b0d;}</style></defs><title>sauce</title><path class="a" d="M154.68,1.394C146.506.129,131.759-.467,106.151.43c-8.57.3-16.627,1.27-23.568,1.591-13.236.61-27.757.625-40.569.637C25.7,2.675,5.438,2.7,2.321,4.554-.064,7.285,0,8.367,0,8.377c.022,0,1.229,1.6,10.784,1.6h.248c6.9-.02,15.966-.814,25.561-1.653,11.275-.987,23.623-2.068,34.636-2.068a114.567,114.567,0,0,1,12.523.606c4.615.513,10.475,1.311,17.262,2.234,14.9,2.027,33.439,4.55,48.729,5.376,24.18,1.3,26.552-2.564,26.743-3.009C176.868,10.574,165.947,3.138,154.68,1.394Z"/></svg>