<svg xmlns="http://www.w3.org/2000/svg" viewBox="0 0 246.677 37.941"><defs><style>.a{fill:#3c2411;}.b{fill:#f2bc86;}.c{fill:#d49d67;}</style></defs><title>bottomBun</title><path class="a" d="M244.191,2.609c-3.2-3.033-8.329-2.761-15.419-2.385-2.59.138-5.525.294-8.638.294h-.007L123.345.724,26.543.518C23.43.518,20.5.362,17.906.224,10.811-.152,5.685-.424,2.486,2.609A8.829,8.829,0,0,0,0,9.308c0,15.25,13.812,28.633,22.16,28.633H224.517c8.349,0,22.16-13.383,22.16-28.633A8.829,8.829,0,0,0,244.191,2.609ZM6.615,6.963C7.4,6.221,9.346,6,11.832,6c1.73,0,3.72.1,5.755.214,2.664.141,5.684.3,8.95.3l96.808.206,96.789-.206c3.273,0,6.292-.16,8.956-.3,4.96-.265,9.645-.513,10.973.746a3.291,3.291,0,0,1,.614,2.345c0,12.353-11.733,22.633-16.16,22.633H22.16C17.733,31.941,6,21.661,6,9.308A3.286,3.286,0,0,1,6.615,6.963Z"/><path class="b" d="M9.14,20.538c3.8,6.774,10.051,11.4,13.02,11.4H224.517c2.969,0,9.222-4.629,13.02-11.4-33.392,1.837-72.439,2.9-114.2,2.9S42.533,22.375,9.14,20.538Z"/><path class="c" d="M240.063,6.963c-1.328-1.259-6.013-1.011-10.973-.746-2.664.141-5.683.3-8.956.3l-96.789.206L26.537,6.518c-3.266,0-6.286-.16-8.95-.3C15.552,6.108,13.562,6,11.832,6c-2.486,0-4.435.218-5.217.96A3.286,3.286,0,0,0,6,9.308a23.086,23.086,0,0,0,3.14,11.23c33.393,1.837,72.44,2.9,114.2,2.9s80.806-1.059,114.2-2.9a23.086,23.086,0,0,0,3.14-11.23A3.291,3.291,0,0,0,240.063,6.963Z"/></svg>