<svg xmlns="http://www.w3.org/2000/svg" viewBox="0 0 366.101 87.833"><defs><style>.a{fill:none;}.a,.b,.c,.d,.e,.f{fill-rule:evenodd;}.b{fill:#e0a879;}.c{fill:#f5c99e;}.d{fill:#c29a64;}.e{fill:#f2bc86;}.f{fill:#ffdf69;}</style></defs><title>bottomBun</title><path class="a" d="M0,30.233C0,100.3,81.433,86.785,184.382,86.785S366.1,100.3,366.1,27.953c0-34.549-23.132-26.7-183.019-26.7S0-9.187,0,30.233Z"/><path class="b" d="M350.581,69.174c-27.84,24.92-90.48,17.61-166.2,17.61-77.29,0-142.45,7.62-170.13-18.24,9.68,5.98,81.56,10.62,168.8,10.62C267.181,79.164,337.021,74.844,350.581,69.174Z"/><path class="c" d="M141.091.724c-2.65.06-5.29.13-7.9.21Q124.326.829,116.231.7h-.07c-70.9-1.08-99.68-2.42-110.42,8.75a.01.01,0,0,1-.01.01l-.05.06-.93,1.07c0,5.89,79.83,10.67,178.3,10.67s178.29-4.78,178.29-10.67v-.04l-1.2-1.21c-10.65-9.66-38.53-9.24-105.8-8.53h-.07q-8.91.09-18.77.18-3.51-.1-7.06-.2Z"/><path class="d" d="M365.361,19.124c-2.24,10-82.92,18.05-182.13,18.05-100.54,0-182.07-8.27-182.18-18.46v-.02c.07-.32.15-.63.23-.93,0-.01,0-.01.01-.02a19.3,19.3,0,0,1,3.46-7.15c0,5.89,79.83,10.67,178.3,10.67s178.29-4.78,178.29-10.67v-.04a16.989,16.989,0,0,1,3.58,6.78C365.091,17.914,365.231,18.5,365.361,19.124Z"/><path class="e" d="M366.1,27.954c0,17.58-4.65,30.09-13.18,38.96-.74.78-1.53,1.54-2.34,2.26-13.56,5.67-83.4,9.99-167.53,9.99-87.24,0-159.12-4.64-168.8-10.62-.35-.31-.69-.64-1.02-.98C4.691,59.044,0,47.044,0,30.234a52.062,52.062,0,0,1,1.05-11.52c.11,10.19,81.64,18.46,182.18,18.46,99.21,0,179.89-8.05,182.13-18.05A44.322,44.322,0,0,1,366.1,27.954Z"/><path class="f" d="M141.091.724c-2.65.06-5.29.13-7.9.21Q124.326.829,116.231.7l24.86.02,87.35.07q3.555.09,7.06.2,9.855-.09,18.77-.18l-25.83-.02Z"/></svg>