<svg xmlns="http://www.w3.org/2000/svg" viewBox="0 0 306.374 268.966"><defs><style>.a{fill:#3c2411;}.b{fill:#62370d;}.c{fill:#483115;}.d{fill:#f2bc86;}.e{fill:#d49d67;}.f{fill:#bede71;}.g{fill:#8ac740;}.h{fill:#f4616a;}.i,.j{fill:#ffdf69;}.j,.k{stroke:#3c2411;stroke-width:6px;}.j{stroke-linejoin:round;}.k{fill:#b42b0d;stroke-miterlimit:10;}.l{fill:#f1caa7;}.m{fill:#fbf3f3;}.n{fill:#d2cccc;}</style></defs><title>burger</title><path class="a" d="M258.383,177.985H43.319a22.315,22.315,0,0,0,0,44.63H258.383a22.315,22.315,0,0,0,0-44.63ZM43.319,216.615a16.315,16.315,0,0,1,0-32.63H258.383a16.315,16.315,0,0,1,0,32.63Z"/><path class="b" d="M260.069,191.456l-30.561,21.3-33.04-20.744L150.479,207.63l-45.988-15.619-33.04,20.744-30.562-21.3-12.9,3.319a16.27,16.27,0,0,0,15.332,21.84H258.383a16.274,16.274,0,0,0,15.409-21.628Z"/><path class="c" d="M71.451,212.755l33.04-20.744,45.988,15.619,45.989-15.619,33.04,20.744,30.561-21.3,13.723,3.531a16.331,16.331,0,0,0-15.409-11H43.319a16.328,16.328,0,0,0-15.332,10.79l12.9-3.319Z"/><path class="a" d="M283.035,217.756c-3.5-3.316-9.1-3.018-16.852-2.607-2.831.151-6.039.321-9.441.321h-.007l-105.778.226-105.8-.226c-3.4,0-6.61-.17-9.441-.321-7.754-.411-13.356-.709-16.853,2.607-1.8,1.709-2.717,4.173-2.717,7.321,0,16.668,15.1,31.3,24.22,31.3H261.533c9.124,0,24.22-14.627,24.22-31.3C285.753,221.929,284.839,219.465,283.035,217.756ZM23.376,222.514c.855-.811,2.985-1.049,5.7-1.049,1.89,0,4.066.115,6.291.233,2.911.155,6.211.33,9.781.33l105.807.225,105.785-.225c3.577,0,6.877-.175,9.789-.33,5.421-.289,10.541-.56,11.993.816a3.6,3.6,0,0,1,.671,2.563c0,13.5-12.824,24.737-17.662,24.737H40.366c-4.838,0-17.662-11.236-17.662-24.737A3.592,3.592,0,0,1,23.376,222.514Z"/><path class="d" d="M26.136,237.351c4.151,7.4,10.985,12.463,14.23,12.463H261.533c3.245,0,10.079-5.059,14.23-12.463-36.5,2.007-79.173,3.165-124.813,3.165S62.633,239.358,26.136,237.351Z"/><path class="e" d="M278.524,222.514c-1.452-1.376-6.572-1.105-11.993-.816-2.912.155-6.212.33-9.789.33l-105.785.225L45.15,222.028c-3.57,0-6.87-.175-9.781-.33-2.225-.118-4.4-.233-6.291-.233-2.717,0-4.847.238-5.7,1.049a3.592,3.592,0,0,0-.672,2.563,25.225,25.225,0,0,0,3.432,12.274c36.5,2.007,79.173,3.165,124.814,3.165s88.316-1.158,124.813-3.165a25.225,25.225,0,0,0,3.432-12.274A3.6,3.6,0,0,0,278.524,222.514Z"/><path class="a" d="M293.618,189.6l-17.745-26.59a3,3,0,0,0-2.5-1.334H27.581a3,3,0,0,0-2.5,1.334L7.34,189.6a3,3,0,0,0,3.243,4.57L40.3,186.526l29.431,20.512a3.005,3.005,0,0,0,3.311.08l31.831-19.986,44.637,15.16a2.991,2.991,0,0,0,1.929,0l44.638-15.16,31.832,19.986a3,3,0,0,0,3.31-.08l29.432-20.512,29.721,7.647a3,3,0,0,0,3.242-4.57Zm-32.8-9.231a3,3,0,0,0-2.463.444L229.422,200.98l-31.359-19.688a2.993,2.993,0,0,0-2.56-.3l-45.024,15.292-45.023-15.292a3.006,3.006,0,0,0-2.56.3L71.537,200.98,42.605,180.816a3,3,0,0,0-2.463-.444l-23.456,6.036,12.5-18.729H271.773l12.5,18.729Z"/><path class="f" d="M271.773,167.679H254.751l-25.243,8.853-28.021-8.853h-14.3l-36.71,6.274-36.71-6.274h-14.3l-28.021,8.853-25.244-8.853H29.185l-12.5,18.729,23.456-6.036a3,3,0,0,1,2.463.444L71.537,200.98,102.9,181.292a3.006,3.006,0,0,1,2.56-.3l45.023,15.292L195.5,180.992a2.993,2.993,0,0,1,2.56.3l31.359,19.688,28.932-20.164a3,3,0,0,1,2.463-.444l23.455,6.036Z"/><polygon class="g" points="150.479 173.953 187.189 167.679 113.769 167.679 150.479 173.953"/><polygon class="g" points="229.508 176.532 254.751 167.679 201.487 167.679 229.508 176.532"/><polygon class="g" points="99.472 167.679 46.207 167.679 71.451 176.532 99.472 167.679"/><path class="h" d="M99.031,152.725H25.2a4.322,4.322,0,0,0,0,8.643H99.031a4.322,4.322,0,0,0,0-8.643Z"/><path class="a" d="M99.031,146.725H25.2a10.322,10.322,0,0,0,0,20.643H99.031a10.322,10.322,0,0,0,0-20.643Zm0,14.643H25.2a4.322,4.322,0,0,1,0-8.643H99.031a4.322,4.322,0,0,1,0,8.643Z"/><path class="h" d="M188.229,152.725H114.394a4.322,4.322,0,0,0,0,8.643h73.835a4.322,4.322,0,0,0,0-8.643Z"/><path class="a" d="M188.229,146.725H114.394a10.322,10.322,0,0,0,0,20.643h73.835a10.322,10.322,0,0,0,0-20.643Zm0,14.643H114.394a4.322,4.322,0,0,1,0-8.643h73.835a4.322,4.322,0,0,1,0,8.643Z"/><path class="h" d="M277.427,152.725H203.592a4.322,4.322,0,0,0,0,8.643h73.835a4.322,4.322,0,0,0,0-8.643Z"/><path class="a" d="M277.427,146.725H203.592a10.322,10.322,0,0,0,0,20.643h73.835a10.322,10.322,0,0,0,0-20.643Zm0,14.643H203.592a4.322,4.322,0,0,1,0-8.643h73.835a4.322,4.322,0,0,1,0,8.643Z"/><path class="i" d="M24.33,133.652a113.478,113.478,0,0,0-7.579,20.25c.377-.061.751-.119,1.116-.174,3.585-.547,8.818-1.054,15.554-1.506,11.248-.756,26.914-1.384,46.566-1.865,33.418-.82,67.271-.936,67.609-.937h4.466c.347,0,34.2.117,67.619.937,19.65.481,35.317,1.109,46.564,1.865,6.737.452,11.971.959,15.555,1.506.365.055.739.113,1.116.174a113.478,113.478,0,0,0-7.579-20.25Z"/><path class="a" d="M289.97,157.458a114.088,114.088,0,0,0-10.186-28.265,3,3,0,0,0-2.621-1.541H22.5a3,3,0,0,0-2.622,1.541A114.157,114.157,0,0,0,9.7,157.458a3.592,3.592,0,0,0-.182,1.158,3,3,0,0,0,5.376,1.832c8.66-3.378,85.487-4.877,132.715-5.028h4.446c47.237.151,124.063,1.649,132.724,5.028a3,3,0,0,0,2.373,1.168,2.945,2.945,0,0,0,.324-.018,3,3,0,0,0,2.679-2.982A3.565,3.565,0,0,0,289.97,157.458Zm-8.17-3.73c-3.584-.547-8.818-1.054-15.555-1.506-11.247-.756-26.914-1.384-46.564-1.865-33.418-.82-67.272-.936-67.619-.937H147.6c-.338,0-34.191.117-67.609.937-19.652.481-35.318,1.109-46.566,1.865-6.736.452-11.969.959-15.554,1.506-.365.055-.739.113-1.116.174a113.478,113.478,0,0,1,7.579-20.25H275.337a113.478,113.478,0,0,1,7.579,20.25C282.539,153.841,282.165,153.783,281.8,153.728Z"/><path class="j" d="M21.719,119.187l-8.652,14.341S95.66,135.374,109.71,145.9c14.782-12.1,177.09-12.375,177.09-12.375h.082l-5.66-16.015Z"/><path class="j" d="M275.545,101.194l8.433,16.881s-27.183-1.193-40.878,9.07c-14.407-11.8-225.935-9.07-225.935-9.07h-.08L22.6,99.562Z"/><path class="k" d="M236.747,92.465c39.433,31.718-55.371,14.306-86.682,10.819-34.943-3.892-101.735,13.539-83.246-7.391,3.891-4.4,47.149-1.809,82.271-3.428C177.652,91.149,227.031,84.651,236.747,92.465Z"/><path class="d" d="M276.594,82.648c-4.647-18.156-17.263-35.162-36.658-49.02a140.027,140.027,0,0,0-27.207-15.041c-17.1,4.562-39,7.31-62.9,7.31s-45.794-2.748-62.9-7.31A140.109,140.109,0,0,0,59.731,33.628c-19.394,13.859-32.01,30.864-36.656,49.02a1127.152,1127.152,0,0,0,126.759,6.978A1127.184,1127.184,0,0,0,276.594,82.648Z"/><path class="e" d="M278.526,95.43a63.824,63.824,0,0,0-1.932-12.782,1127.184,1127.184,0,0,1-126.76,6.978A1127.152,1127.152,0,0,1,23.075,82.648,63.754,63.754,0,0,0,21.142,95.43Z"/><path class="l" d="M212.729,18.587a163.434,163.434,0,0,0-125.791,0c17.1,4.562,39,7.31,62.9,7.31S195.627,23.149,212.729,18.587Z"/><path class="d" d="M96.574,79.105l-4.459-1.838a2.68,2.68,0,0,1-1.5-3.608h0a3.014,3.014,0,0,1,3.854-1.4L98.93,74.1a2.679,2.679,0,0,1,1.5,3.608h0A3.013,3.013,0,0,1,96.574,79.105Z"/><path class="a" d="M93.3,72.027a2.951,2.951,0,0,0-2.684,1.632h0a2.68,2.68,0,0,0,1.5,3.608l4.459,1.838a3.061,3.061,0,0,0,1.17.231,2.949,2.949,0,0,0,2.683-1.632h0a2.679,2.679,0,0,0-1.5-3.608l-4.458-1.838a3.065,3.065,0,0,0-1.17-.231Z"/><path class="a" d="M243.825,28.858C218.16,10.519,183.9,0,149.834,0S81.509,10.519,55.843,28.858C29.286,47.834,14.661,72.542,14.661,98.43v3H285.007v-3C285.007,72.542,270.382,47.834,243.825,28.858ZM21.142,95.43c1.1-22.888,14.7-44.732,38.589-61.8C84.3,16.07,117.144,6,149.834,6s65.531,10.07,90.1,27.628c23.89,17.07,37.495,38.914,38.59,61.8Z"/><path class="d" d="M69,54.433,64.072,60.85a4.6,4.6,0,0,1-6.12.936h0a3.951,3.951,0,0,1-1-5.73l4.931-6.418A4.6,4.6,0,0,1,68,48.7h0A3.95,3.95,0,0,1,69,54.433Z"/><path class="a" d="M70.556,55.478h0m-5.1-7.543a4.491,4.491,0,0,0-3.569,1.7l-4.931,6.418a3.951,3.951,0,0,0,1,5.73,4.557,4.557,0,0,0,2.551.768,4.489,4.489,0,0,0,3.569-1.7L69,54.433a3.95,3.95,0,0,0-1-5.73,4.557,4.557,0,0,0-2.551-.768Z"/><path class="d" d="M134.365,38.354a.689.689,0,0,1-.523-.22.614.614,0,0,1,.089-.88l2.751-2.133a.661.661,0,0,1,.418-.138.691.691,0,0,1,.522.22.585.585,0,0,1,.144.457.6.6,0,0,1-.232.423l-2.752,2.134A.661.661,0,0,1,134.365,38.354Z"/><path class="a" d="M140.089,38.971h0M137.1,29.983a6.233,6.233,0,0,0-3.825,1.287L130.523,33.4a5.4,5.4,0,0,0-.794,7.92h0a6.317,6.317,0,0,0,8.461.743l2.751-2.133a5.4,5.4,0,0,0,.794-7.921h0a6.177,6.177,0,0,0-4.635-2.03Z"/><path class="d" d="M226.354,67.515l3.132-5.078a1.69,1.69,0,0,1,2.218-.556h0a1.472,1.472,0,0,1,.595,2.076l-3.132,5.079a1.692,1.692,0,0,1-2.219.556h0A1.473,1.473,0,0,1,226.354,67.515Z"/><path class="a" d="M238.737,67.437h0m-7.84-5.759a1.653,1.653,0,0,0-1.411.759l-3.132,5.078a1.473,1.473,0,0,0,.594,2.077,1.691,1.691,0,0,0,.808.2,1.653,1.653,0,0,0,1.411-.759l3.132-5.079a1.472,1.472,0,0,0-.595-2.076h0a1.7,1.7,0,0,0-.807-.2Z"/><path class="d" d="M178.25,34.2l-4.593-4.3a2.768,2.768,0,0,1,0-4.085h0a3.244,3.244,0,0,1,4.363,0l4.594,4.3a2.768,2.768,0,0,1,0,4.085h0A3.245,3.245,0,0,1,178.25,34.2Z"/><path class="a" d="M175.839,24.973a3.186,3.186,0,0,0-2.182.843,2.768,2.768,0,0,0,0,4.085l4.593,4.3a3.245,3.245,0,0,0,4.364,0,2.768,2.768,0,0,0,0-4.085l-4.594-4.3a3.186,3.186,0,0,0-2.181-.843Z"/><path class="d" d="M128.235,59.162l2.656-3.823a3.056,3.056,0,0,1,4.045-.8h0a2.64,2.64,0,0,1,.856,3.786l-2.656,3.824a3.056,3.056,0,0,1-4.045.8h0A2.64,2.64,0,0,1,128.235,59.162Z"/><path class="a" d="M139.845,60.792h0m-6.5-6.695a2.985,2.985,0,0,0-2.458,1.242l-2.656,3.823a2.64,2.64,0,0,0,.856,3.786h0a3.047,3.047,0,0,0,1.587.441,2.988,2.988,0,0,0,2.458-1.242l2.656-3.824a2.64,2.64,0,0,0-.856-3.786,3.046,3.046,0,0,0-1.587-.44Z"/><path class="d" d="M194.661,49.9l6.262,3.813a3.961,3.961,0,0,1,1.285,5.68h0a4.584,4.584,0,0,1-6.067,1.2l-6.262-3.813a3.961,3.961,0,0,1-1.285-5.68h0A4.583,4.583,0,0,1,194.661,49.9Z"/><path class="a" d="M192.281,49.237a4.479,4.479,0,0,0-3.687,1.862h0a3.961,3.961,0,0,0,1.285,5.68l6.262,3.813a4.569,4.569,0,0,0,2.38.66,4.479,4.479,0,0,0,3.687-1.862,3.961,3.961,0,0,0-1.285-5.68L194.661,49.9a4.569,4.569,0,0,0-2.38-.66Z"/><path class="d" d="M167.128,66.667l-5.753,4.461a4.608,4.608,0,0,1-6.174-.542h0a3.939,3.939,0,0,1,.579-5.78l5.753-4.461a4.606,4.606,0,0,1,6.174.542h0A3.939,3.939,0,0,1,167.128,66.667Z"/><path class="a" d="M168.348,68.045h0m-4.023-8.64a4.547,4.547,0,0,0-2.792.94l-5.753,4.461a3.939,3.939,0,0,0-.579,5.78,4.61,4.61,0,0,0,6.174.542l5.753-4.461a3.939,3.939,0,0,0,.579-5.78h0a4.506,4.506,0,0,0-3.382-1.482Z"/><path class="d" d="M103.288,54.035l-3.883,1.112a3.054,3.054,0,0,1-3.751-1.867h0a2.794,2.794,0,0,1,1.994-3.513l3.883-1.111a3.053,3.053,0,0,1,3.751,1.867h0A2.793,2.793,0,0,1,103.288,54.035Z"/><path class="a" d="M104.655,58.219h0M102.4,48.533a3.16,3.16,0,0,0-.872.123l-3.883,1.111a2.794,2.794,0,0,0-1.994,3.513,3,3,0,0,0,2.879,1.989,3.164,3.164,0,0,0,.872-.122l3.883-1.112a2.793,2.793,0,0,0,1.994-3.512h0a3,3,0,0,0-2.879-1.99Z"/><path class="d" d="M220.475,40.661l-3.883,1.112a3.055,3.055,0,0,1-3.752-1.867h0a2.794,2.794,0,0,1,2-3.512l3.882-1.112a3.055,3.055,0,0,1,3.752,1.867h0A2.793,2.793,0,0,1,220.475,40.661Z"/><path class="a" d="M221.841,44.845h0M219.59,35.16a3.171,3.171,0,0,0-.873.122l-3.882,1.112a2.794,2.794,0,0,0-2,3.512,3,3,0,0,0,2.879,1.989,3.171,3.171,0,0,0,.873-.122l3.883-1.112a2.793,2.793,0,0,0,1.994-3.512h0a3,3,0,0,0-2.879-1.989Z"/><path class="d" d="M149.869,21.714l-3.883,1.111a3.055,3.055,0,0,1-3.752-1.867h0a2.794,2.794,0,0,1,2-3.512l3.882-1.112a3.055,3.055,0,0,1,3.752,1.867h0A2.794,2.794,0,0,1,149.869,21.714Z"/><path class="a" d="M151.235,25.9h0m-2.251-9.685a3.171,3.171,0,0,0-.873.122l-3.882,1.112a2.794,2.794,0,0,0-2,3.512,3,3,0,0,0,2.879,1.99,3.173,3.173,0,0,0,.873-.123l3.883-1.111a2.794,2.794,0,0,0,1.994-3.513,3,3,0,0,0-2.879-1.989Z"/><path class="d" d="M105.417,28.209l-2.9-3.279a1.459,1.459,0,0,1,.215-2.14h0a1.706,1.706,0,0,1,2.287.2l2.9,3.278a1.458,1.458,0,0,1-.214,2.14h0A1.707,1.707,0,0,1,105.417,28.209Z"/><path class="a" d="M103.765,22.442a1.686,1.686,0,0,0-1.034.348,1.459,1.459,0,0,0-.215,2.14l2.9,3.279a1.708,1.708,0,0,0,2.287.2,1.458,1.458,0,0,0,.214-2.14l-2.9-3.278a1.669,1.669,0,0,0-1.253-.549Z"/><path class="m" d="M153.181,254.5c-89.051-.175-133.969-1.376-146.544-1.775,1.7,3.763,6.844,5.88,15.573,6.443l.252.016a3,3,0,0,1,2.593,1.89l.748,1.89H280.571l.747-1.89a3,3,0,0,1,2.593-1.89l.252-.016c8.73-.563,13.869-2.68,15.574-6.443-12.576.4-57.494,1.6-146.545,1.775Z"/><path class="n" d="M22.462,259.186a3,3,0,0,1,2.593,1.89l.748,1.89H280.571l.747-1.89a3,3,0,0,1,2.593-1.89l.252-.016c.153-.01.3-.024.446-.035-21.962.515-64.062,1.234-131.417,1.367h-.011c-67.355-.133-109.455-.852-131.416-1.367.15.011.293.025.445.035Z"/><path class="a" d="M305.453,247.438a3.04,3.04,0,0,0-2.2-.835c-.425.018-43.69,1.69-150.063,1.9-106.355-.209-149.648-1.881-150.073-1.9a3.073,3.073,0,0,0-2.2.835A3,3,0,0,0,0,249.6c0,11.051,10.6,14.534,20.165,15.426l.809,2.043a3,3,0,0,0,2.789,1.9H282.61a3,3,0,0,0,2.79-1.9l.808-2.043c9.568-.892,20.166-4.375,20.166-15.426A3,3,0,0,0,305.453,247.438Zm-21.29,11.732-.252.016a3,3,0,0,0-2.593,1.89l-.747,1.89H25.8l-.748-1.89a3,3,0,0,0-2.593-1.89l-.252-.016c-8.729-.563-13.869-2.68-15.573-6.443,12.575.4,57.493,1.6,146.544,1.775h.011c89.051-.175,133.969-1.376,146.545-1.775C298.032,256.49,292.893,258.607,284.163,259.17Z"/></svg>