<svg xmlns="http://www.w3.org/2000/svg" viewBox="0 0 287.287 256.372"><defs><style>.a{fill:#3c2411;}.b{fill:#62370d;}.c{fill:#483115;}.d{fill:#f2bc86;}.e{fill:#d49d67;}.f{fill:#bede71;}.g{fill:#8ac740;}.h{fill:#f4616a;}.i,.j{fill:#ffdf69;}.j,.k{stroke:#3c2411;stroke-width:6px;}.j{stroke-linejoin:round;}.k{fill:#b42b0d;stroke-miterlimit:10;}.l{fill:#f1caa7;}</style></defs><title>burger</title><path class="a" d="M251.547,177.985H36.484a22.315,22.315,0,1,0,0,44.63H251.547a22.315,22.315,0,1,0,0-44.63ZM36.484,216.615a16.315,16.315,0,1,1,0-32.63H251.547a16.315,16.315,0,1,1,0,32.63Z"/><path class="b" d="M253.233,191.456l-30.561,21.3-33.04-20.744L143.644,207.63,97.655,192.011l-33.04,20.744-30.561-21.3-12.9,3.319a16.268,16.268,0,0,0,15.332,21.84H251.547a16.274,16.274,0,0,0,15.41-21.628Z"/><path class="c" d="M64.615,212.755l33.04-20.744,45.989,15.619,45.988-15.619,33.04,20.744,30.561-21.3,13.724,3.531a16.332,16.332,0,0,0-15.41-11H36.484a16.328,16.328,0,0,0-15.332,10.79l12.9-3.319Z"/><path class="a" d="M276.2,217.756c-3.5-3.316-9.1-3.018-16.853-2.607-2.83.151-6.039.321-9.44.321H249.9l-105.778.226-105.8-.226c-3.4,0-6.61-.17-9.44-.321-7.755-.411-13.357-.709-16.853,2.607-1.8,1.709-2.717,4.173-2.717,7.321,0,16.668,15.1,31.3,24.22,31.3H254.7c9.125,0,24.22-14.627,24.22-31.3C278.917,221.929,278,219.465,276.2,217.756ZM16.54,222.514c.856-.811,2.986-1.049,5.7-1.049,1.891,0,4.066.115,6.291.233,2.912.155,6.212.33,9.781.33l105.807.225,105.786-.225c3.576,0,6.877-.175,9.788-.33,5.421-.289,10.541-.56,11.993.816a3.6,3.6,0,0,1,.671,2.563c0,13.5-12.824,24.737-17.662,24.737H33.531c-4.838,0-17.663-11.236-17.663-24.737A3.592,3.592,0,0,1,16.54,222.514Z"/><path class="d" d="M19.3,237.351c4.151,7.4,10.985,12.463,14.231,12.463H254.7c3.245,0,10.08-5.059,14.231-12.463-36.5,2.007-79.174,3.165-124.814,3.165S55.8,239.358,19.3,237.351Z"/><path class="e" d="M271.688,222.514c-1.452-1.376-6.572-1.105-11.993-.816-2.911.155-6.212.33-9.788.33l-105.786.225-105.807-.225c-3.569,0-6.869-.175-9.781-.33-2.225-.118-4.4-.233-6.291-.233-2.716,0-4.846.238-5.7,1.049a3.592,3.592,0,0,0-.672,2.563A25.236,25.236,0,0,0,19.3,237.351c36.5,2.007,79.173,3.165,124.814,3.165s88.317-1.158,124.814-3.165a25.235,25.235,0,0,0,3.431-12.274A3.6,3.6,0,0,0,271.688,222.514Z"/><path class="a" d="M286.783,189.6l-17.746-26.59a3,3,0,0,0-2.5-1.334H20.745a3,3,0,0,0-2.5,1.334L.505,189.6a3,3,0,0,0,3.242,4.57l29.721-7.647L62.9,207.038a3,3,0,0,0,3.31.08l31.832-19.986,44.637,15.16a2.991,2.991,0,0,0,1.929,0l44.637-15.16,31.833,19.986a3,3,0,0,0,3.309-.08l29.433-20.512,29.72,7.647a3,3,0,0,0,3.243-4.57Zm-32.8-9.231a3,3,0,0,0-2.463.444L222.586,200.98l-31.358-19.688a3,3,0,0,0-2.561-.3l-45.024,15.292L98.62,180.992a3.006,3.006,0,0,0-2.56.3L64.7,200.98,35.769,180.816a3,3,0,0,0-2.462-.444L9.85,186.408l12.5-18.729H264.938l12.5,18.729Z"/><path class="f" d="M264.938,167.679H247.915l-25.243,8.853-28.021-8.853h-14.3l-36.709,6.274-36.71-6.274h-14.3l-28.021,8.853-25.243-8.853H22.349L9.85,186.408l23.457-6.036a3,3,0,0,1,2.462.444L64.7,200.98,96.06,181.292a3.006,3.006,0,0,1,2.56-.3l45.023,15.292,45.024-15.292a3,3,0,0,1,2.561.3l31.358,19.688,28.933-20.164a3,3,0,0,1,2.463-.444l23.455,6.036Z"/><polygon class="g" points="143.644 173.953 180.353 167.679 106.934 167.679 143.644 173.953"/><polygon class="g" points="222.672 176.532 247.915 167.679 194.651 167.679 222.672 176.532"/><polygon class="g" points="92.636 167.679 39.372 167.679 64.615 176.532 92.636 167.679"/><path class="h" d="M92.2,152.725H18.361a4.322,4.322,0,1,0,0,8.643H92.2a4.322,4.322,0,0,0,0-8.643Z"/><path class="a" d="M92.2,146.725H18.361a10.322,10.322,0,1,0,0,20.643H92.2a10.322,10.322,0,0,0,0-20.643Zm0,14.643H18.361a4.322,4.322,0,1,1,0-8.643H92.2a4.322,4.322,0,0,1,0,8.643Z"/><path class="h" d="M181.393,152.725H107.558a4.322,4.322,0,0,0,0,8.643h73.835a4.322,4.322,0,0,0,0-8.643Z"/><path class="a" d="M181.393,146.725H107.558a10.322,10.322,0,0,0,0,20.643h73.835a10.322,10.322,0,0,0,0-20.643Zm0,14.643H107.558a4.322,4.322,0,0,1,0-8.643h73.835a4.322,4.322,0,0,1,0,8.643Z"/><path class="h" d="M270.591,152.725H196.756a4.322,4.322,0,0,0,0,8.643h73.835a4.322,4.322,0,0,0,0-8.643Z"/><path class="a" d="M270.591,146.725H196.756a10.322,10.322,0,0,0,0,20.643h73.835a10.322,10.322,0,0,0,0-20.643Zm0,14.643H196.756a4.322,4.322,0,0,1,0-8.643h73.835a4.322,4.322,0,0,1,0,8.643Z"/><path class="i" d="M17.494,133.652A113.478,113.478,0,0,0,9.915,153.9c.378-.061.751-.119,1.116-.174,3.585-.547,8.818-1.054,15.555-1.506,11.247-.756,26.914-1.384,46.565-1.865,33.418-.82,67.272-.936,67.61-.937h4.465c.348,0,34.2.117,67.619.937,19.65.481,35.317,1.109,46.565,1.865,6.737.452,11.97.959,15.554,1.506.365.055.739.113,1.116.174a113.317,113.317,0,0,0-7.579-20.25Z"/><path class="a" d="M283.134,157.458a114.157,114.157,0,0,0-10.185-28.265,3,3,0,0,0-2.621-1.541H15.668a3,3,0,0,0-2.621,1.541A114.11,114.11,0,0,0,2.862,157.458a3.565,3.565,0,0,0-.183,1.158,3,3,0,0,0,5.376,1.832c8.661-3.378,85.488-4.877,132.715-5.028h4.446c47.237.151,124.064,1.649,132.725,5.028a3,3,0,0,0,2.373,1.168,2.927,2.927,0,0,0,.323-.018,3,3,0,0,0,2.68-2.982A3.565,3.565,0,0,0,283.134,157.458Zm-8.17-3.73c-3.584-.547-8.817-1.054-15.554-1.506-11.248-.756-26.915-1.384-46.565-1.865-33.418-.82-67.271-.936-67.619-.937h-4.465c-.338,0-34.192.117-67.61.937-19.651.481-35.318,1.109-46.565,1.865-6.737.452-11.97.959-15.555,1.506-.365.055-.738.113-1.116.174a113.478,113.478,0,0,1,7.579-20.25H268.5a113.317,113.317,0,0,1,7.579,20.25C275.7,153.841,275.329,153.783,274.964,153.728Z"/><path class="j" d="M14.883,119.187,6.232,133.528s82.593,1.846,96.643,12.375c14.781-12.1,177.089-12.375,177.089-12.375h.082l-5.66-16.015Z"/><path class="j" d="M268.709,101.194l8.433,16.881s-27.182-1.193-40.877,9.07c-14.408-11.8-225.935-9.07-225.935-9.07h-.081l5.517-18.513Z"/><path class="k" d="M229.911,92.465c39.433,31.718-55.371,14.306-86.682,10.819-34.943-3.892-101.735,13.539-83.245-7.391,3.89-4.4,47.148-1.809,82.27-3.428C170.817,91.149,220.2,84.651,229.911,92.465Z"/><path class="d" d="M269.758,82.648C265.111,64.492,252.5,47.486,233.1,33.628a140.056,140.056,0,0,0-27.207-15.041c-17.1,4.562-39,7.31-62.9,7.31S97.205,23.149,80.1,18.587A140.117,140.117,0,0,0,52.9,33.628C33.5,47.487,20.886,64.492,16.239,82.648A1127.152,1127.152,0,0,0,143,89.626,1127.157,1127.157,0,0,0,269.758,82.648Z"/><path class="e" d="M271.69,95.43a63.752,63.752,0,0,0-1.932-12.782A1127.157,1127.157,0,0,1,143,89.626,1127.152,1127.152,0,0,1,16.239,82.648,63.752,63.752,0,0,0,14.307,95.43Z"/><path class="l" d="M205.894,18.587a163.434,163.434,0,0,0-125.791,0c17.1,4.562,39,7.31,62.9,7.31S188.792,23.149,205.894,18.587Z"/><path class="d" d="M89.738,79.105,85.28,77.267a2.679,2.679,0,0,1-1.5-3.608h0a3.013,3.013,0,0,1,3.853-1.4L92.1,74.1a2.68,2.68,0,0,1,1.5,3.608h0A3.014,3.014,0,0,1,89.738,79.105Z"/><path class="a" d="M86.466,72.027a2.949,2.949,0,0,0-2.683,1.632h0a2.679,2.679,0,0,0,1.5,3.608l4.458,1.838a3.065,3.065,0,0,0,1.17.231A2.951,2.951,0,0,0,93.592,77.7h0A2.68,2.68,0,0,0,92.1,74.1l-4.459-1.838a3.061,3.061,0,0,0-1.17-.231Z"/><path class="a" d="M236.99,28.858C211.324,10.519,177.065,0,143,0S74.673,10.519,49.007,28.858C22.45,47.834,7.825,72.542,7.825,98.43v3H278.171v-3C278.171,72.542,263.546,47.834,236.99,28.858ZM14.307,95.43C15.4,72.542,29.007,50.7,52.9,33.628,77.467,16.07,110.309,6,143,6s65.531,10.07,90.1,27.628C256.99,50.7,270.6,72.542,271.69,95.43Z"/><path class="d" d="M62.168,54.433,57.236,60.85a4.6,4.6,0,0,1-6.12.936h0a3.951,3.951,0,0,1-1-5.73l4.932-6.418a4.6,4.6,0,0,1,6.12-.935h0A3.951,3.951,0,0,1,62.168,54.433Z"/><path class="a" d="M63.72,55.478h0m-5.1-7.543a4.491,4.491,0,0,0-3.569,1.7l-4.932,6.418a3.951,3.951,0,0,0,1,5.73,4.562,4.562,0,0,0,2.551.768,4.489,4.489,0,0,0,3.569-1.7l4.932-6.417a3.951,3.951,0,0,0-1-5.73,4.562,4.562,0,0,0-2.551-.768Z"/><path class="d" d="M127.529,38.354a.688.688,0,0,1-.522-.22.613.613,0,0,1,.088-.88l2.752-2.133a.659.659,0,0,1,.418-.138.693.693,0,0,1,.522.22.587.587,0,0,1,.143.457.6.6,0,0,1-.231.423l-2.752,2.134A.666.666,0,0,1,127.529,38.354Z"/><path class="a" d="M133.254,38.971h0m-2.99-8.988a6.235,6.235,0,0,0-3.825,1.287L123.688,33.4a5.4,5.4,0,0,0-.794,7.92h0a6.316,6.316,0,0,0,8.46.743l2.752-2.133a5.4,5.4,0,0,0,.794-7.921h0a6.178,6.178,0,0,0-4.636-2.03Z"/><path class="d" d="M219.518,67.515l3.132-5.078a1.691,1.691,0,0,1,2.219-.556h0a1.472,1.472,0,0,1,.594,2.076l-3.132,5.079a1.69,1.69,0,0,1-2.218.556h0A1.473,1.473,0,0,1,219.518,67.515Z"/><path class="a" d="M231.9,67.437h0m-7.84-5.759a1.653,1.653,0,0,0-1.411.759l-3.132,5.078a1.473,1.473,0,0,0,.595,2.077,1.687,1.687,0,0,0,.807.2,1.652,1.652,0,0,0,1.411-.759l3.132-5.079a1.472,1.472,0,0,0-.594-2.076h0a1.7,1.7,0,0,0-.808-.2Z"/><path class="d" d="M171.415,34.2l-4.594-4.3a2.768,2.768,0,0,1,0-4.085h0a3.245,3.245,0,0,1,4.364,0l4.593,4.3a2.768,2.768,0,0,1,0,4.085h0A3.244,3.244,0,0,1,171.415,34.2Z"/><path class="a" d="M169,24.973a3.186,3.186,0,0,0-2.182.843,2.768,2.768,0,0,0,0,4.085l4.594,4.3a3.244,3.244,0,0,0,4.363,0,2.768,2.768,0,0,0,0-4.085l-4.593-4.3A3.186,3.186,0,0,0,169,24.973Z"/><path class="d" d="M121.4,59.162l2.657-3.823a3.055,3.055,0,0,1,4.044-.8h0a2.641,2.641,0,0,1,.857,3.786L126.3,62.147a3.055,3.055,0,0,1-4.044.8h0A2.641,2.641,0,0,1,121.4,59.162Z"/><path class="a" d="M133.01,60.792h0m-6.5-6.695a2.984,2.984,0,0,0-2.458,1.242L121.4,59.162a2.641,2.641,0,0,0,.857,3.786h0a3.044,3.044,0,0,0,1.586.441,2.986,2.986,0,0,0,2.458-1.242l2.657-3.824a2.641,2.641,0,0,0-.857-3.786,3.043,3.043,0,0,0-1.586-.44Z"/><path class="d" d="M187.825,49.9l6.262,3.813a3.961,3.961,0,0,1,1.285,5.68h0a4.583,4.583,0,0,1-6.067,1.2l-6.262-3.813a3.962,3.962,0,0,1-1.284-5.68h0A4.582,4.582,0,0,1,187.825,49.9Z"/><path class="a" d="M185.446,49.237a4.477,4.477,0,0,0-3.687,1.862h0a3.962,3.962,0,0,0,1.284,5.68l6.262,3.813a4.569,4.569,0,0,0,2.38.66,4.479,4.479,0,0,0,3.687-1.862,3.961,3.961,0,0,0-1.285-5.68L187.825,49.9a4.565,4.565,0,0,0-2.379-.66Z"/><path class="d" d="M160.292,66.667l-5.753,4.461a4.608,4.608,0,0,1-6.174-.542h0a3.94,3.94,0,0,1,.58-5.78l5.753-4.461a4.606,4.606,0,0,1,6.174.542h0A3.94,3.94,0,0,1,160.292,66.667Z"/><path class="a" d="M161.512,68.045h0m-4.023-8.64a4.544,4.544,0,0,0-2.791.94l-5.753,4.461a3.94,3.94,0,0,0-.58,5.78,4.61,4.61,0,0,0,6.174.542l5.753-4.461a3.94,3.94,0,0,0,.58-5.78h0a4.508,4.508,0,0,0-3.383-1.482Z"/><path class="d" d="M96.452,54.035,92.57,55.147a3.055,3.055,0,0,1-3.752-1.867h0a2.794,2.794,0,0,1,1.994-3.513L94.7,48.656a3.055,3.055,0,0,1,3.752,1.867h0A2.794,2.794,0,0,1,96.452,54.035Z"/><path class="a" d="M97.819,58.219h0m-2.251-9.686a3.173,3.173,0,0,0-.873.123l-3.883,1.111a2.794,2.794,0,0,0-1.994,3.513A3,3,0,0,0,91.7,55.269a3.171,3.171,0,0,0,.873-.122l3.882-1.112a2.793,2.793,0,0,0,2-3.512h0a3,3,0,0,0-2.879-1.99Z"/><path class="d" d="M213.639,40.661l-3.883,1.112a3.054,3.054,0,0,1-3.751-1.867h0A2.793,2.793,0,0,1,208,36.394l3.883-1.112a3.054,3.054,0,0,1,3.751,1.867h0A2.793,2.793,0,0,1,213.639,40.661Z"/><path class="a" d="M215.006,44.845h0m-2.252-9.685a3.164,3.164,0,0,0-.872.122L208,36.394a2.793,2.793,0,0,0-1.994,3.512,3,3,0,0,0,2.879,1.989,3.159,3.159,0,0,0,.872-.122l3.883-1.112a2.793,2.793,0,0,0,1.994-3.512h0a3,3,0,0,0-2.879-1.989Z"/><path class="d" d="M143.033,21.714l-3.882,1.111a3.054,3.054,0,0,1-3.752-1.867h0a2.793,2.793,0,0,1,1.994-3.512l3.883-1.112a3.054,3.054,0,0,1,3.751,1.867h0A2.794,2.794,0,0,1,143.033,21.714Z"/><path class="a" d="M144.4,25.9h0m-2.252-9.685a3.164,3.164,0,0,0-.872.122l-3.883,1.112a2.793,2.793,0,0,0-1.994,3.512,3,3,0,0,0,2.879,1.99,3.173,3.173,0,0,0,.873-.123l3.882-1.111a2.794,2.794,0,0,0,1.994-3.513,3,3,0,0,0-2.879-1.989Z"/><path class="d" d="M98.582,28.209l-2.9-3.279a1.458,1.458,0,0,1,.214-2.14h0a1.706,1.706,0,0,1,2.287.2l2.9,3.278a1.458,1.458,0,0,1-.215,2.14h0A1.706,1.706,0,0,1,98.582,28.209Z"/><path class="a" d="M96.929,22.442a1.686,1.686,0,0,0-1.034.348,1.458,1.458,0,0,0-.214,2.14l2.9,3.279a1.707,1.707,0,0,0,2.286.2,1.458,1.458,0,0,0,.215-2.14l-2.9-3.278a1.669,1.669,0,0,0-1.253-.549Z"/></svg>