<svg xmlns="http://www.w3.org/2000/svg" viewBox="0 0 369.224 55.389"><defs><style>.a{fill:#ffdf69;}.b{fill:#ffebb4;}.c{fill:#f9c163;}</style></defs><title>cheese1</title><path class="a" d="M368.5,26.6c-3.332-13.5-17.141-23.748-34.035-24.537C299.236.622,246.052-.613,188.911.33q-3.644.064-7.319.137-3.645.064-7.3.155c-8.468.2-17,.446-25.536.746C125.927,2.174,103,3.392,80.8,5.133q-7.165.553-14.229,1.192c-16.053,1.449-31.615,3.19-46.336,5.283C9.657,13.271,1.712,20.424.267,29.146A19.056,19.056,0,0,0,0,31.8a1.92,1.92,0,0,0,1.876,1.775c6.469.584,28.806,2.6,57.5,5.2,30.651,2.77,68.55,6.2,102.082,9.236,11.461,1.038,22.409,2.024,32.384,2.933,10.159.918,19.313,1.741,26.961,2.436,2.86.257,5.5.5,7.914.711,3.014.275,5.669.515,7.893.721,2.6.231,4.634.42,6.018.54a8.267,8.267,0,0,0,4.09-.66C254.468,51.28,283.8,38.682,301.7,35.44c18.083-3.276,56-2.692,65.465-2.487a2.214,2.214,0,0,0,1.5-.514,1.527,1.527,0,0,0,.564-1.261A26.14,26.14,0,0,0,368.5,26.6Z"/><path class="a" d="M224.4,48.682c-2.46-.215-5.126-.455-7.965-.712-3.414-4.091-6.889-8.036-10.139-11.895-7.165-8.5-14.259-17.186-21.815-25.248C182.7,8.932,178.8,4.833,174.293.622q3.659-.09,7.3-.155c4.418,4.134,8.231,8.139,9.974,10.009,7.566,8.07,14.659,16.74,21.825,25.247C216.918,39.917,220.711,44.214,224.4,48.682Z"/><path class="a" d="M66.572,6.325a29.081,29.081,0,0,0-4.736,3.825,19.921,19.921,0,0,0-6.11,16.063,30.216,30.216,0,0,0,1.6,7.709C32.292,31.761,11.41,30,.267,29.146c1.445-8.722,9.39-15.875,19.969-17.538C34.957,9.515,50.519,7.774,66.572,6.325Z"/><path class="a" d="M191.925,45.783c-11.871-1.055-25.085-2.23-38.914-3.456-2.911-1.93-5.833-3.842-8.8-5.72C134.9,30.689,101.457,9.927,80.8,5.133,103,3.392,125.927,2.174,148.757,1.368c.01.429.02.849.051,1.278A37.121,37.121,0,0,0,151.166,13.1c2.276,6.08,11.543,8.567,20.031,11.26,5.833,1.844,11.286,3.8,13.829,7.093C188,35.3,189.987,40.5,191.925,45.783Z"/><path class="a" d="M368.5,26.6c-20.513.3-47.638,1.329-62.011,3.559-21.281,3.31-56.894,17.529-61.548,20.1a1.48,1.48,0,0,1-.872.189s-4.275-.386-11.707-1.047c-3.957-4.862-8.078-9.5-11.891-14.03-7.166-8.5-14.25-17.187-21.815-25.248-1.722-1.835-5.423-5.729-9.749-9.794,57.141-.943,110.324.292,145.558,1.732C351.363,2.851,365.172,13.1,368.5,26.6Z"/><path class="b" d="M153.011,42.327c-31.646-2.8-66.49-5.875-95.686-8.405a30.216,30.216,0,0,1-1.6-7.709,19.921,19.921,0,0,1,6.11-16.063,29.081,29.081,0,0,1,4.736-3.825Q73.63,5.7,80.8,5.133c20.656,4.794,54.1,25.556,63.414,31.474C147.178,38.485,150.1,40.4,153.011,42.327Z"/><path class="b" d="M216.436,47.97c-7.166-.635-15.439-1.381-24.511-2.187-1.938-5.283-3.926-10.488-6.9-14.33-2.543-3.294-8-5.249-13.829-7.093-8.488-2.693-17.755-5.18-20.031-11.26a37.121,37.121,0,0,1-2.358-10.454c-.031-.429-.041-.849-.051-1.278,8.539-.3,17.068-.549,25.536-.746,4.51,4.211,8.406,8.31,10.189,10.205,7.556,8.062,14.65,16.749,21.815,25.248C209.547,39.934,213.022,43.879,216.436,47.97Z"/><path class="b" d="M232.366,49.4c-2.347-.214-5.013-.454-7.965-.72-3.69-4.468-7.483-8.765-11.01-12.959-7.166-8.507-14.259-17.177-21.825-25.247C189.823,8.606,186.01,4.6,181.592.467Q185.267.39,188.911.33c4.326,4.065,8.027,7.959,9.749,9.794,7.565,8.061,14.649,16.749,21.815,25.248C224.288,39.9,228.409,44.54,232.366,49.4Z"/><path class="c" d="M369.221,31.178a1.527,1.527,0,0,1-.564,1.261,2.214,2.214,0,0,1-1.5.514c-9.462-.205-47.382-.789-65.465,2.487-17.9,3.242-47.228,15.84-54.978,19.254a8.267,8.267,0,0,1-4.09.66c-1.384-.12-3.414-.309-6.018-.54-2.224-.206-4.879-.446-7.893-.721-2.409-.214-5.054-.454-7.914-.711-7.648-.7-16.8-1.518-26.961-2.436-9.975-.909-20.923-1.895-32.384-2.933-33.532-3.036-71.431-6.466-102.082-9.236-28.694-2.6-51.031-4.614-57.5-5.2A1.92,1.92,0,0,1,0,31.8a19.056,19.056,0,0,1,.267-2.658C11.41,30,32.292,31.761,57.325,33.922c29.2,2.53,64.04,5.6,95.686,8.405,13.829,1.226,27.043,2.4,38.914,3.456,9.072.806,17.345,1.552,24.511,2.187,2.839.257,5.5.5,7.965.712,2.952.266,5.618.506,7.965.72,7.432.661,11.707,1.047,11.707,1.047a1.48,1.48,0,0,0,.872-.189c4.654-2.573,40.267-16.792,61.548-20.1,14.373-2.23,41.5-3.259,62.011-3.559A26.234,26.234,0,0,1,369.221,31.178Z"/></svg>