<svg xmlns="http://www.w3.org/2000/svg" viewBox="0 0 359.201 77.44"><defs><style>.a{fill:#ffdf69;}.b{fill:#ffebb4;}.c{fill:#f9c163;}</style></defs><title>cheese3</title><path class="a" d="M359.184,19.63v-.01a19.584,19.584,0,0,0-1.22-4.52,20.52,20.52,0,0,0-17.43-12.69C307.854.45,272.134.01,236.3,0c-2.41,0-4.82.01-7.24.01q-3.6,0-7.21.02-14.4.06-28.66.19c-19.87.17-39.39.41-58.03.65-9.75.14-19.27.27-28.45.4h-.01c-36.67.54-68.11,1-88.87,1.56A18.824,18.824,0,0,0,.024,18.49v.01a1.991,1.991,0,0,0,.47,1.62,2.116,2.116,0,0,0,1.58.68h.14c11.67,0,133.08-5.87,162.86,3,35.1,10.45,100.89,51.34,104.39,53.55l.15.09q1.905-3.03,3.78-6.07c1.3-2.09,2.59-4.19,3.87-6.28q1.83-2.985,3.64-5.98,5.76-9.48,11.35-18.98,33.105-8.7,65.5-18.33A1.984,1.984,0,0,0,359.184,19.63Z"/><path class="a" d="M357.967,15.1c-21.579,6.371-48.155,15.953-69.052,20.482Q283.637,45.451,278.2,55.3c-4.623-6.365-9.44-12.414-13.831-18.3-7.41-9.967-14.607-20.171-22.124-29.695-1.184-1.5-3.329-4.189-5.938-7.3,35.831.007,71.544.448,104.231,2.408A20.527,20.527,0,0,1,357.967,15.1Z"/><path class="a" d="M106.7,1.272a25.751,25.751,0,0,0-6.734,11.174C61.4,12.338,19.407,13.971.765,15.567A19.014,19.014,0,0,1,17.83,2.832C38.591,2.273,70.03,1.807,106.7,1.272Z"/><path class="a" d="M236.15,51.552c-24.462-14.043-55.7-31.512-75.178-35.242-.55-.105-1.11-.2-1.67-.295A224.541,224.541,0,0,0,135.167.871C153.8.628,173.32.387,193.2.215A51.965,51.965,0,0,0,194.963,9.6a9.4,9.4,0,0,0,.43,1.209c.052.13.114.25.167.37.124.259.25.529.4.778.083.13.166.27.249.4.145.23.29.459.456.678.093.13.186.259.29.389a7.765,7.765,0,0,0,.548.647c.093.109.2.228.3.338q.357.372.744.715a1.937,1.937,0,0,0,.206.2c.331.3.682.585,1.043.862.1.079.216.159.33.238.257.2.526.386.8.573.155.11.31.208.464.307.248.157.506.315.764.473.165.1.34.2.505.3.258.148.526.295.794.443.176.088.341.187.516.275.3.158.588.3.887.451.165.079.31.157.475.235.444.216.9.431,1.362.636.1.049.207.1.31.136.382.176.764.342,1.157.507l.5.2c.341.146.682.292,1.023.428.155.068.3.127.455.184,1.5.612,3.008,1.2,4.49,1.789.673.271,1.337.541,2,.81.436.184.872.367,1.3.55.218.1.436.183.644.28.239.106.478.212.718.328.073.029.146.068.218.1.312.134.625.279.927.434.135.058.271.126.4.193a1.272,1.272,0,0,1,.157.078l.344.174c.292.145.585.3.867.455.031.009.052.029.083.038.335.2.67.379,1,.573a.745.745,0,0,1,.1.068,20.107,20.107,0,0,1,2.823,2.009c.053.059.117.108.17.157.212.186.4.372.6.569.064.068.138.137.2.206.182.186.353.383.514.57.054.069.118.138.172.207a9.392,9.392,0,0,1,.585.82C231.823,37.183,233.919,44.44,236.15,51.552Z"/><path class="a" d="M274.836,61.365q-1.77,3.177-3.557,6.351C264.8,56.866,256.824,47.1,249.972,37.7c-7.322-10-14.407-20.251-21.831-29.832-1.242-1.587-3.52-4.5-6.284-7.841q3.6-.008,7.208-.017c2.7,3.238,4.916,6.041,6.124,7.585,7.47,9.548,14.626,19.774,21.987,29.764C262.791,44.983,269.134,52.86,274.836,61.365Z"/><path class="b" d="M159.3,16.015c-15.229-2.633-36.723-3.459-59.336-3.569A25.745,25.745,0,0,1,106.7,1.272h.01c9.185-.133,18.7-.263,28.457-.4A224.541,224.541,0,0,1,159.3,16.015Z"/><path class="b" d="M199.79,16.185q-.544-.415-1.044-.858Q199.244,15.77,199.79,16.185Z"/><path class="b" d="M209.68,21.389c-.345-.14-.687-.284-1.028-.427Q209.164,21.177,209.68,21.389Z"/><path class="b" d="M197.5,14.073c-.19-.213-.375-.429-.55-.651C197.12,13.644,197.305,13.86,197.5,14.073Z"/><path class="b" d="M200.927,17c-.278-.187-.546-.38-.811-.575C200.381,16.618,200.649,16.811,200.927,17Z"/><path class="b" d="M204.859,19.243c-.3-.148-.6-.3-.888-.45C204.263,18.946,204.56,19.1,204.859,19.243Z"/><path class="b" d="M203.449,18.513q-.4-.218-.789-.44C202.919,18.222,203.183,18.368,203.449,18.513Z"/><path class="b" d="M208.154,20.752c-.387-.164-.769-.332-1.149-.5C207.385,20.42,207.767,20.587,208.154,20.752Z"/><path class="b" d="M202.148,17.772q-.387-.232-.758-.473Q201.762,17.539,202.148,17.772Z"/><path class="b" d="M206.693,20.113q-.693-.312-1.367-.638Q206,19.8,206.693,20.113Z"/><path class="b" d="M196.657,13.037c-.161-.221-.312-.447-.456-.678C196.345,12.589,196.5,12.816,196.657,13.037Z"/><path class="b" d="M198.536,15.128c-.256-.236-.5-.475-.741-.721C198.031,14.653,198.28,14.892,198.536,15.128Z"/><path class="b" d="M195.389,10.814a10.445,10.445,0,0,1-.43-1.214A10.634,10.634,0,0,0,195.389,10.814Z"/><path class="b" d="M226.194,29.449a20.315,20.315,0,0,0-2.82-2.016A20.315,20.315,0,0,1,226.194,29.449Z"/><path class="b" d="M227.678,30.953c-.163-.2-.332-.387-.51-.574C227.346,30.566,227.515,30.758,227.678,30.953Z"/><path class="b" d="M226.369,29.606q.308.276.593.562Q226.677,29.882,226.369,29.606Z"/><path class="b" d="M210.132,21.573a123.813,123.813,0,0,1,12.062,5.184,70.767,70.767,0,0,0-7.568-3.4C213.136,22.767,211.624,22.178,210.132,21.573Z"/><path class="b" d="M228.441,31.97c-.18-.278-.38-.547-.589-.81C228.061,31.423,228.26,31.692,228.441,31.97Z"/><path class="b" d="M195.957,11.956c-.144-.252-.272-.512-.395-.776C195.685,11.444,195.813,11.7,195.957,11.956Z"/><path class="b" d="M223.27,27.371q-.488-.293-1-.571Q222.782,27.079,223.27,27.371Z"/><path class="b" d="M227.168,30.379c-.068-.071-.137-.141-.206-.211C227.031,30.238,227.1,30.308,227.168,30.379Z"/><path class="b" d="M227.852,31.16c-.056-.07-.116-.138-.174-.207C227.736,31.022,227.8,31.09,227.852,31.16Z"/><path class="b" d="M207.005,20.25c-.1-.046-.209-.09-.312-.137Z"/><path class="b" d="M210.132,21.573l-.452-.184Z"/><path class="b" d="M208.652,20.962c-.166-.07-.333-.139-.5-.21C208.319,20.823,208.486,20.892,208.652,20.962Z"/><path class="b" d="M222.272,26.8l-.078-.043Z"/><path class="b" d="M223.374,27.433l-.1-.062Z"/><path class="b" d="M201.39,17.3c-.155-.1-.311-.2-.463-.3C201.079,17.1,201.235,17.2,201.39,17.3Z"/><path class="b" d="M196.2,12.359c-.083-.133-.167-.266-.244-.4C196.034,12.092,196.118,12.226,196.2,12.359Z"/><path class="b" d="M195.562,11.18c-.057-.122-.12-.241-.173-.366C195.442,10.938,195.505,11.058,195.562,11.18Z"/><path class="b" d="M197.8,14.407c-.1-.109-.2-.223-.3-.334C197.6,14.184,197.691,14.3,197.8,14.407Z"/><path class="b" d="M205.326,19.475c-.158-.076-.311-.155-.467-.232C205.015,19.32,205.168,19.4,205.326,19.475Z"/><path class="b" d="M226.194,29.449c.06.052.117.1.175.157C226.311,29.554,226.254,29.5,226.194,29.449Z"/><path class="b" d="M196.945,13.422c-.1-.126-.194-.255-.288-.385C196.751,13.167,196.846,13.3,196.945,13.422Z"/><path class="b" d="M203.971,18.793c-.176-.092-.349-.186-.522-.28C203.623,18.607,203.8,18.7,203.971,18.793Z"/><path class="b" d="M200.116,16.423c-.108-.08-.221-.157-.326-.238C199.9,16.266,200.008,16.343,200.116,16.423Z"/><path class="b" d="M202.66,18.073c-.173-.1-.343-.2-.512-.3C202.317,17.873,202.487,17.973,202.66,18.073Z"/><path class="b" d="M198.746,15.327c-.073-.065-.139-.134-.21-.2C198.607,15.193,198.673,15.262,198.746,15.327Z"/><path class="b" d="M271.279,67.716q-1.013,1.8-2.031,3.6c.009-.006-14.4-8.94-33.1-19.762-2.231-7.112-4.327-14.368-7.714-19.577a9.1,9.1,0,0,0-.585-.82c-.054-.069-.118-.138-.172-.207-.161-.187-.332-.383-.514-.57-.064-.069-.138-.138-.2-.206-.192-.2-.384-.383-.6-.569-.053-.05-.117-.1-.17-.157a20.107,20.107,0,0,0-2.823-2.009.665.665,0,0,0-.1-.068c-.325-.194-.66-.378-1-.573-.031-.009-.052-.029-.083-.038-.282-.155-.575-.31-.867-.455l-.344-.174a1.346,1.346,0,0,0-.157-.078c-.125-.067-.261-.135-.4-.193-.3-.155-.615-.29-.927-.434-.072-.029-.145-.068-.218-.1-.23-.116-.468-.222-.718-.328-.208-.1-.426-.183-.644-.28-.426-.183-.862-.366-1.3-.55-.664-.269-1.328-.539-2-.81-1.481-.588-2.992-1.178-4.49-1.789-.155-.058-.3-.116-.455-.184-.341-.136-.682-.281-1.023-.428l-.5-.2c-.393-.165-.775-.331-1.157-.507-.1-.038-.206-.087-.31-.136-.464-.205-.918-.42-1.362-.636-.165-.078-.31-.156-.475-.235-.3-.147-.588-.294-.887-.451-.175-.088-.34-.187-.516-.275-.268-.147-.536-.295-.794-.443-.165-.1-.34-.2-.505-.3-.258-.158-.516-.315-.764-.473-.154-.1-.309-.2-.464-.307-.278-.188-.546-.375-.8-.573-.114-.079-.227-.159-.33-.238-.361-.277-.712-.565-1.043-.862a2.04,2.04,0,0,1-.206-.2q-.387-.342-.744-.715c-.1-.109-.207-.229-.3-.338a7.765,7.765,0,0,1-.548-.647c-.1-.13-.2-.259-.29-.389-.166-.219-.311-.448-.456-.678-.083-.129-.166-.269-.249-.4-.145-.249-.27-.519-.4-.778-.053-.12-.115-.24-.167-.37a9.457,9.457,0,0,1-.43-1.209A51.965,51.965,0,0,1,193.2.215q14.241-.13,28.66-.187c2.764,3.345,5.042,6.254,6.284,7.841C235.565,17.45,242.65,27.7,249.972,37.7,256.824,47.1,264.8,56.866,271.279,67.716Z"/><path class="b" d="M278.2,55.3q-1.674,3.036-3.364,6.068c-5.7-8.5-12.045-16.382-17.66-24.005-7.361-9.991-14.517-20.216-21.987-29.764-1.208-1.544-3.425-4.347-6.124-7.585q3.621,0,7.242-.01c2.609,3.111,4.754,5.8,5.938,7.3,7.517,9.524,14.714,19.728,22.124,29.7C268.76,42.882,273.576,48.931,278.2,55.3Z"/><path class="c" d="M357.754,21.8q-32.4,9.63-65.5,18.33-5.6,9.51-11.35,18.98-1.815,3-3.64,5.98c-1.28,2.09-2.57,4.19-3.87,6.28q-1.875,3.045-3.78,6.07l-.15-.09c-3.5-2.21-69.29-43.1-104.39-53.55-29.78-8.87-151.19-3-162.86-3h-.14a2.116,2.116,0,0,1-1.58-.68,1.991,1.991,0,0,1-.47-1.62v-.01a18.917,18.917,0,0,1,.74-2.92c18.64-1.6,60.64-3.23,99.2-3.12,22.62.11,44.11.93,59.34,3.57.56.09,1.12.19,1.67.29,19.48,3.73,50.71,21.2,75.18,35.24,18.68,10.82,33.09,19.75,33.09,19.76.68-1.19,1.36-2.39,2.04-3.59q1.785-3.18,3.55-6.35,1.695-3.045,3.37-6.07,5.43-9.855,10.71-19.72c20.9-4.53,47.47-14.11,69.05-20.48a19.584,19.584,0,0,1,1.22,4.52v.01A1.984,1.984,0,0,1,357.754,21.8Z"/></svg>