<svg xmlns="http://www.w3.org/2000/svg" viewBox="0 0 359.199 77.438"><defs><style>.a{fill:#ffdf69;}.b{fill:#ffebb4;}.c{fill:#f9c163;}</style></defs><title>cheese3</title><path class="a" d="M359.18,19.625v-.01a19.362,19.362,0,0,0-1.214-4.515A20.524,20.524,0,0,0,340.536,2.409C307.849.448,272.136.008,236.3,0q-3.621,0-7.241.011c.523.627,1.02,1.231,1.5,1.819-.483-.588-.98-1.192-1.5-1.819q-3.6,0-7.209.017-14.4.06-28.659.186C173.318.387,153.8.628,135.165.87c-9.754.139-19.272.268-28.457.4h-.01c-36.67.536-68.109,1-88.87,1.56A19.015,19.015,0,0,0,.763,15.567a18.088,18.088,0,0,0-.737,2.922v.01A1.968,1.968,0,0,0,.5,20.116a2.1,2.1,0,0,0,1.573.687c10.8.045,55.691-.085,96.71,1.137,22.225.736,43.367,2,57.593,4.867a184.8,184.8,0,0,1,29.75,9.294c18.513,7.278,37.835,16.874,53.351,24.94,17.576,9.151,30.151,16.39,30.142,16.4q1.9-3.032,3.779-6.065,1.945-3.141,3.871-6.286,1.826-2.985,3.635-5.973,5.759-9.48,11.356-18.987,33.095-8.694,65.5-18.326A1.98,1.98,0,0,0,359.18,19.625Z"/><path class="a" d="M357.965,15.1c-21.579,6.37-48.155,15.952-69.052,20.481Q283.635,45.451,278.2,55.3c-4.624-6.366-9.441-12.415-13.831-18.3-7.41-9.968-14.607-20.172-22.125-29.7-1.183-1.5-3.328-4.188-5.938-7.3,35.832.008,71.545.448,104.232,2.409A20.524,20.524,0,0,1,357.965,15.1Z"/><path class="a" d="M106.7,1.272a25.748,25.748,0,0,0-6.734,11.173C61.4,12.338,19.405,13.97.763,15.567A19.015,19.015,0,0,1,17.828,2.831C38.589,2.273,70.028,1.807,106.7,1.272Z"/><path class="a" d="M236.148,51.552c-24.462-14.043-55.7-31.512-75.178-35.243-.55-.1-1.11-.2-1.67-.294A224.555,224.555,0,0,0,135.165.87C153.8.628,173.318.387,193.2.215A51.938,51.938,0,0,0,194.961,9.6a9.471,9.471,0,0,0,.43,1.21c.052.13.114.249.167.369.124.26.25.53.4.779.083.13.166.269.249.4.145.229.29.459.456.678.093.129.186.259.29.388a7.765,7.765,0,0,0,.548.647c.093.109.2.229.3.338q.357.374.744.715a1.843,1.843,0,0,0,.206.2c.33.3.682.585,1.042.863.1.079.217.158.33.237.258.2.527.386.805.574.155.109.31.207.464.306.248.158.506.316.764.473.165.1.34.2.5.3.258.148.526.295.794.443.176.088.341.186.516.275.3.157.588.3.887.451.165.078.31.157.475.235.444.216.9.431,1.362.635.1.049.207.1.31.137.382.176.764.341,1.156.507.166.067.331.136.5.2.341.146.682.291,1.023.427.155.068.3.127.454.185,1.5.611,3.009,1.2,4.491,1.789.673.27,1.337.54,2,.81.436.183.872.366,1.3.55.218.1.436.182.644.279.239.106.478.213.718.329.073.028.146.067.218.1.312.135.625.28.927.435.135.057.271.125.4.193a1.2,1.2,0,0,1,.157.077l.344.174c.292.145.584.3.867.455.031.01.052.03.083.039.335.194.67.378,1,.572a.745.745,0,0,1,.105.068,20.119,20.119,0,0,1,2.822,2.009c.054.059.117.108.17.157.213.186.4.372.6.569.065.069.139.138.2.206.181.187.353.384.514.571.054.069.118.137.172.207a9.228,9.228,0,0,1,.585.819C231.821,37.183,233.917,44.44,236.148,51.552Z"/><path class="a" d="M274.834,61.365q-1.77,3.175-3.557,6.35C264.794,56.866,256.822,47.1,249.97,37.7c-7.322-10-14.407-20.252-21.831-29.833-1.242-1.587-3.52-4.495-6.285-7.84q3.6-.008,7.209-.017c2.7,3.238,4.916,6.04,6.124,7.584,7.47,9.548,14.626,19.774,21.987,29.764C262.789,44.982,269.131,52.86,274.834,61.365Z"/><path class="b" d="M159.3,16.015c-15.229-2.633-36.723-3.459-59.336-3.57A25.748,25.748,0,0,1,106.7,1.272h.01c9.185-.134,18.7-.263,28.457-.4A224.555,224.555,0,0,1,159.3,16.015Z"/><path class="b" d="M199.788,16.185q-.544-.417-1.044-.859Q199.242,15.769,199.788,16.185Z"/><path class="b" d="M209.677,21.389q-.516-.211-1.027-.428Q209.162,21.177,209.677,21.389Z"/><path class="b" d="M197.493,14.072c-.191-.212-.375-.429-.55-.65C197.118,13.643,197.3,13.859,197.493,14.072Z"/><path class="b" d="M200.925,17c-.278-.188-.547-.38-.811-.576C200.379,16.617,200.647,16.81,200.925,17Z"/><path class="b" d="M204.857,19.242c-.3-.148-.6-.3-.888-.449C204.261,18.945,204.558,19.094,204.857,19.242Z"/><path class="b" d="M203.447,18.512q-.4-.216-.789-.44Q203.047,18.3,203.447,18.512Z"/><path class="b" d="M208.152,20.752c-.387-.165-.769-.333-1.149-.5C207.383,20.419,207.765,20.587,208.152,20.752Z"/><path class="b" d="M202.145,17.771q-.386-.233-.757-.473Q201.76,17.538,202.145,17.771Z"/><path class="b" d="M206.691,20.112q-.693-.312-1.367-.638Q206,19.8,206.691,20.112Z"/><path class="b" d="M196.655,13.037c-.161-.222-.312-.448-.456-.679C196.343,12.589,196.494,12.815,196.655,13.037Z"/><path class="b" d="M198.534,15.127c-.256-.235-.5-.474-.741-.721C198.029,14.653,198.277,14.892,198.534,15.127Z"/><path class="b" d="M195.387,10.813a10.429,10.429,0,0,1-.43-1.213A10.618,10.618,0,0,0,195.387,10.813Z"/><path class="b" d="M226.192,29.449a20.319,20.319,0,0,0-2.82-2.017A20.319,20.319,0,0,1,226.192,29.449Z"/><path class="b" d="M227.676,30.952c-.163-.2-.332-.387-.51-.574C227.344,30.565,227.512,30.757,227.676,30.952Z"/><path class="b" d="M226.367,29.606c.205.183.4.371.593.561Q226.675,29.88,226.367,29.606Z"/><path class="b" d="M210.129,21.573a123.975,123.975,0,0,1,12.063,5.183,71.056,71.056,0,0,0-7.568-3.4C213.134,22.766,211.622,22.178,210.129,21.573Z"/><path class="b" d="M228.439,31.969c-.181-.278-.38-.546-.589-.81C228.059,31.422,228.258,31.691,228.439,31.969Z"/><path class="b" d="M195.954,11.956c-.143-.252-.271-.513-.394-.777C195.683,11.443,195.811,11.7,195.954,11.956Z"/><path class="b" d="M223.268,27.37q-.487-.291-1-.571Q222.78,27.078,223.268,27.37Z"/><path class="b" d="M227.166,30.378c-.068-.071-.137-.141-.206-.211C227.029,30.237,227.1,30.307,227.166,30.378Z"/><path class="b" d="M227.85,31.159c-.056-.07-.116-.138-.174-.207C227.733,31.021,227.794,31.089,227.85,31.159Z"/><path class="b" d="M207,20.25c-.1-.046-.209-.091-.312-.138C206.794,20.159,206.9,20.2,207,20.25Z"/><path class="b" d="M210.129,21.573l-.452-.184Z"/><path class="b" d="M208.65,20.961l-.5-.209Z"/><path class="b" d="M222.27,26.8l-.078-.043Z"/><path class="b" d="M223.372,27.432l-.1-.062Z"/><path class="b" d="M201.388,17.3c-.156-.1-.312-.2-.463-.3C201.077,17.1,201.233,17.2,201.388,17.3Z"/><path class="b" d="M196.2,12.358c-.084-.133-.167-.266-.245-.4C196.032,12.092,196.115,12.225,196.2,12.358Z"/><path class="b" d="M195.56,11.179c-.057-.122-.12-.241-.173-.366C195.439,10.938,195.5,11.057,195.56,11.179Z"/><path class="b" d="M197.793,14.406c-.1-.109-.2-.222-.3-.334C197.593,14.183,197.689,14.3,197.793,14.406Z"/><path class="b" d="M205.324,19.474c-.158-.076-.311-.155-.467-.232C205.013,19.319,205.166,19.4,205.324,19.474Z"/><path class="b" d="M226.192,29.449c.06.051.117.1.175.157C226.309,29.553,226.252,29.5,226.192,29.449Z"/><path class="b" d="M196.943,13.422c-.1-.127-.194-.256-.288-.385C196.749,13.166,196.844,13.3,196.943,13.422Z"/><path class="b" d="M203.969,18.793c-.176-.093-.349-.187-.522-.281C203.62,18.606,203.793,18.7,203.969,18.793Z"/><path class="b" d="M200.114,16.422c-.108-.08-.221-.156-.326-.237C199.893,16.266,200.006,16.342,200.114,16.422Z"/><path class="b" d="M202.658,18.072c-.173-.1-.343-.2-.513-.3C202.315,17.873,202.485,17.973,202.658,18.072Z"/><path class="b" d="M198.744,15.326c-.073-.064-.139-.133-.21-.2C198.605,15.193,198.671,15.261,198.744,15.326Z"/><path class="b" d="M271.277,67.715q-1.012,1.8-2.031,3.6c.009-.006-14.4-8.94-33.1-19.762-2.231-7.112-4.327-14.369-7.714-19.578a9.228,9.228,0,0,0-.585-.819c-.054-.07-.118-.138-.172-.207-.161-.187-.333-.384-.514-.571-.064-.068-.138-.137-.2-.206-.191-.2-.383-.383-.6-.569-.053-.049-.116-.1-.17-.157a20.119,20.119,0,0,0-2.822-2.009.745.745,0,0,0-.105-.068c-.325-.194-.66-.378-1-.572-.031-.01-.052-.029-.083-.039-.282-.155-.575-.31-.867-.455l-.344-.174a1.2,1.2,0,0,0-.157-.077c-.125-.068-.261-.136-.4-.193-.3-.155-.615-.29-.927-.435-.072-.029-.145-.067-.218-.1-.23-.117-.469-.223-.718-.329-.208-.1-.426-.183-.644-.279-.427-.183-.862-.367-1.3-.55-.664-.27-1.328-.54-2-.81-1.482-.589-2.992-1.178-4.491-1.789-.154-.058-.3-.117-.454-.185-.341-.136-.682-.281-1.023-.427l-.5-.2c-.392-.166-.774-.331-1.156-.507-.1-.039-.206-.088-.31-.137-.464-.2-.918-.42-1.362-.635-.165-.079-.31-.157-.475-.235-.3-.147-.588-.294-.887-.451-.176-.089-.341-.187-.516-.275-.268-.148-.536-.295-.794-.443-.165-.1-.34-.2-.5-.3-.258-.157-.516-.315-.764-.473-.154-.1-.309-.2-.464-.306-.278-.188-.547-.376-.805-.574-.113-.079-.226-.158-.33-.237-.36-.278-.711-.565-1.042-.863a1.843,1.843,0,0,1-.206-.2q-.387-.342-.744-.715c-.1-.109-.207-.228-.3-.338a7.765,7.765,0,0,1-.548-.647c-.1-.129-.2-.259-.29-.388-.166-.22-.311-.449-.456-.678-.083-.13-.166-.27-.249-.4-.145-.25-.27-.519-.4-.779-.053-.12-.115-.24-.167-.369a9.471,9.471,0,0,1-.43-1.21A51.851,51.851,0,0,1,193.2.215Q207.436.083,221.854.028c2.765,3.345,5.043,6.253,6.285,7.84,7.424,9.581,14.509,19.83,21.831,29.833C256.822,47.1,264.794,56.866,271.277,67.715Z"/><path class="b" d="M278.2,55.3q-1.674,3.035-3.364,6.068c-5.7-8.505-12.045-16.382-17.66-24.006-7.361-9.99-14.517-20.216-21.987-29.764-1.208-1.543-3.426-4.346-6.124-7.584q3.621,0,7.241-.011c2.61,3.111,4.755,5.8,5.938,7.3,7.518,9.524,14.715,19.729,22.125,29.7C268.757,42.882,273.574,48.931,278.2,55.3Z"/><path class="c" d="M359.179,19.615v.01a1.98,1.98,0,0,1-1.429,2.176q-32.4,9.627-65.495,18.326-5.6,9.507-11.356,18.987-1.809,2.988-3.635,5.973-1.926,3.144-3.87,6.286-1.882,3.034-3.78,6.065c.009-.007-12.566-7.246-30.142-16.4-15.516-8.066-34.838-17.662-53.351-24.94a184.8,184.8,0,0,0-29.75-9.294C142.146,23.936,121,22.676,98.779,21.94,57.76,20.718,12.866,20.848,2.069,20.8A2.1,2.1,0,0,1,.5,20.116,1.968,1.968,0,0,1,.025,18.5v-.01a18.088,18.088,0,0,1,.737-2.922c18.641-1.6,60.635-3.23,99.2-3.122,22.613.111,44.107.937,59.336,3.57.56.095,1.12.19,1.67.294,19.479,3.731,50.716,21.2,75.178,35.243,18.7,10.822,33.107,19.756,33.1,19.762q1.019-1.8,2.031-3.6,1.787-3.174,3.557-6.35,1.689-3.033,3.364-6.068,5.438-9.846,10.715-19.716c20.9-4.529,47.472-14.111,69.052-20.481A19.362,19.362,0,0,1,359.179,19.615Z"/></svg>