<svg xmlns="http://www.w3.org/2000/svg" viewBox="0 0 366.079 57.817"><defs><style>.a{fill:#ffdf69;}.b{fill:#f9c163;}.c{fill:#ffebb4;}</style></defs><title>cheese2</title><path class="a" d="M365.932,23.778c-.718-3.536-4.068-6.473-8.325-7.277-36.765-6.7-80.232-11.487-124.181-14.048h0q-3.649-.213-7.321-.408h0q-3.651-.191-7.3-.365-12.346-.6-24.612-.971h0C128.331-1.4,65.619,1.519,27.3,5.209,11.286,7.354-1,21.965.065,35.092c.01.091.01.174.02.265l-.041,0a1.752,1.752,0,0,0,2.007,1.387c0-.062,34.935-4.666,35.371-4.633l2.6-.154c.323-.024.645-.04.968-.064l.3-.015c.273-.021.555-.035.828-.048,1.311-.08,2.583-.15,3.814-.224l.273-.013c.3-.014.595-.036.888-.05.484-.031.959-.061,1.423-.083s.928-.059,1.382-.08c.283-.021.576-.034.858-.047s.565-.026.838-.046c.323-.023.636-.037.939-.051a35.534,35.534,0,0,1,16.814,3.069c.161.077.323.145.5.23a1.8,1.8,0,0,1,.232.1l.01.008c.242.107.484.222.737.337.1.054.212.1.323.154.322.145.645.3.968.453.646.292,1.3.6,1.979.906.343.162.7.332,1.049.493s.707.323,1.06.493.727.331,1.09.5c9.912,4.6,22.481,10.506,31.4,14.747,1.475.693,2.838,1.342,4.08,1.935.626.3,1.212.578,1.767.839q1.364.654,2.423,1.166c.152.071.293.135.435.206s.262.127.383.183a8.192,8.192,0,0,0,4.6.682c4.413-.6,14.473-1.959,28.109-3.7,14.727-1.887,33.617-4.2,54.1-6.485,9.353-1.045,19.04-2.091,28.806-3.111,6.241-.64,12.5-1.277,18.733-1.9,2.141-.207,4.272-.42,6.392-.623q3.212-.315,6.392-.617c40.594-3.93,77.873-6.763,93.433-8.583a10.819,10.819,0,0,0,2.471-.6,8.649,8.649,0,0,0,3.689-2.6A6.793,6.793,0,0,0,365.932,23.778Z"/><path class="b" d="M364.5,29.523a8.649,8.649,0,0,1-3.689,2.6,10.819,10.819,0,0,1-2.471.6c-15.56,1.82-52.839,4.653-93.433,8.583q-3.18.3-6.392.617c-2.12.2-4.251.416-6.392.623-6.23.625-12.492,1.262-18.733,1.9-9.766,1.02-19.453,2.066-28.806,3.111-20.484,2.289-39.374,4.6-54.1,6.485-13.636,1.741-23.7,3.1-28.109,3.7a8.192,8.192,0,0,1-4.6-.682c-.121-.056-.252-.119-.383-.183s-.283-.135-.435-.206q-1.059-.511-2.423-1.166c-.555-.261-1.141-.538-1.767-.839-1.242-.593-2.605-1.242-4.08-1.935-8.916-4.241-21.485-10.15-31.4-14.747-.363-.17-.727-.34-1.09-.5s-.706-.331-1.06-.493-.706-.331-1.049-.493c-.676-.307-1.333-.614-1.979-.906-.323-.154-.646-.308-.968-.453-.111-.054-.223-.1-.323-.154-.253-.115-.5-.23-.737-.337l-.01-.008a1.8,1.8,0,0,0-.232-.1c-.172-.085-.334-.154-.5-.23A35.534,35.534,0,0,0,52.54,31.239c-.3.014-.616.028-.939.051-.272.02-.555.033-.838.046s-.575.026-.858.047c-.454.021-.908.05-1.382.08s-.939.052-1.423.083c-.293.014-.586.036-.888.05l-.273.013c-1.231.074-2.5.144-3.814.224-.273.013-.555.027-.828.048l-.3.015c-.323.024-.645.04-.968.064l-2.6.154c-.436-.033-35.374,4.571-35.371,4.633A1.75,1.75,0,0,1,.045,35.36l.04,0c-.01-.091-.01-.174-.02-.265,8.588-2.191,59.911-9.3,59.916-9.172a6.676,6.676,0,0,1,3.128.6c8.584,3.834,51.713,24.109,56.391,26.451a1.447,1.447,0,0,0,.859.123s5.383-.822,14.513-2.155c14.06-2.057,37.01-5.277,62.837-8.448,10.848-1.334,22.191-2.67,33.6-3.926,5.464-.608,10.948-1.2,16.4-1.769q3.195-.34,6.382-.658,3.211-.332,6.392-.643c35.5-3.567,67.815-5.946,82.774-6.738A168.9,168.9,0,0,1,364.5,29.523Z"/><path class="a" d="M364.5,29.523a169.09,169.09,0,0,0-21.243-.765c-14.959.792-47.27,3.171-82.774,6.738-5.9-7.82-11.789-15.689-18.071-23.082-1.576-1.861-4.99-5.819-8.99-9.961C277.375,5.014,320.842,9.806,357.607,16.5c4.257.8,7.607,3.741,8.325,7.277A6.79,6.79,0,0,1,364.5,29.523Z"/><path class="a" d="M231.312,38.566c-11.412,1.256-22.755,2.592-33.6,3.926-3.222-2.344-6.474-4.674-9.777-6.948C177.85,28.521,137.918,1.958,119.8,2.3c-4.251.05-8.725,3.617-10.987,5.687a20.108,20.108,0,0,0-6.77,15.532,33.151,33.151,0,0,0,4.3,15.011c3.25,6.04,14.923,9.5,28.537,12.413-9.13,1.333-14.513,2.157-14.513,2.155a1.455,1.455,0,0,1-.859-.123c-4.678-2.342-47.807-22.617-56.391-26.451a6.676,6.676,0,0,0-3.128-.6C59.976,25.791,8.653,32.9.065,35.092-1,21.965,11.286,7.354,27.3,5.209c38.322-3.69,101.034-6.609,166.9-4.5a18.994,18.994,0,0,0-.07,2.136A34.846,34.846,0,0,0,195.9,13.051a8.427,8.427,0,0,0,.4,1.016c.05.1.111.192.161.292.121.225.253.45.394.666.071.109.142.209.222.317.142.2.293.4.455.593.081.1.172.2.252.3.182.2.374.392.576.585.081.075.162.159.243.242.262.234.535.46.818.686a.817.817,0,0,0,.1.084c.333.26.687.511,1.05.754l.152.1c.313.21.636.4.959.6.111.059.212.118.323.177.283.168.586.328.889.488.111.059.233.126.354.185.313.16.626.32.949.472.111.051.212.1.323.152.384.178.778.355,1.172.533a1,1,0,0,1,.141.059c.94.406,1.919.8,2.909,1.18.01.008.02.008.031.017,2.009.765,4.08,1.5,6.11,2.246.444.163.889.326,1.323.489a.09.09,0,0,0,.041.017c.353.137.707.265,1.05.4.121.043.232.1.354.138.252.1.514.2.757.308.152.052.293.111.434.171.253.1.5.206.748.309.151.068.3.137.464.2.3.137.606.274.9.411.152.068.3.136.455.213.192.086.373.179.565.274.152.076.314.154.465.23.172.094.344.188.515.273.152.085.3.163.445.248.181.1.353.2.525.306.131.077.252.153.384.23.272.17.545.34.8.527.1.06.181.135.282.2.172.119.344.246.5.373l.3.254c.142.119.283.245.425.364.091.092.182.177.272.262.142.135.273.278.4.413.071.084.142.16.213.236.191.219.374.446.535.673A31.914,31.914,0,0,1,231.312,38.566Z"/><path class="a" d="M254.1,36.139q-3.181.322-6.382.658c-6.273-8.26-12.506-16.624-19.173-24.45-1.676-1.971-5.414-6.283-9.736-10.667q3.651.169,7.3.365c4.161,4.267,7.747,8.4,9.373,10.327C241.952,19.978,248.014,28.1,254.1,36.139Z"/><path class="c" d="M197.709,42.492c-25.827,3.171-48.777,6.391-62.837,8.448-13.614-2.911-25.287-6.374-28.537-12.413a33.154,33.154,0,0,1-4.3-15.011,20.109,20.109,0,0,1,6.77-15.532c2.262-2.07,6.736-5.637,10.987-5.687,18.123-.339,58.054,26.224,68.137,33.247C191.234,37.818,194.487,40.148,197.709,42.492Z"/><path class="c" d="M219.593,26.637c-.247-.105-.495-.21-.747-.313C219.1,26.427,219.346,26.532,219.593,26.637Z"/><path class="c" d="M217.3,25.708q-.517-.2-1.044-.4Q216.783,25.507,217.3,25.708Z"/><path class="c" d="M218.418,26.15q-.378-.153-.762-.3Q218.04,26,218.418,26.15Z"/><path class="c" d="M208.745,22.538c-.992-.382-1.967-.774-2.909-1.182C206.778,21.764,207.752,22.156,208.745,22.538Z"/><path class="c" d="M202.9,19.957c-.305-.16-.6-.324-.892-.49C202.3,19.633,202.593,19.8,202.9,19.957Z"/><path class="c" d="M204.205,20.613q-.486-.233-.955-.473Q203.718,20.38,204.205,20.613Z"/><path class="c" d="M205.7,21.294q-.6-.258-1.172-.529Q205.1,21.035,205.7,21.294Z"/><path class="c" d="M228.045,32.325a8.382,8.382,0,0,0-.533-.678A8.61,8.61,0,0,1,228.045,32.325Z"/><path class="c" d="M225.9,30.122c-.163-.128-.334-.254-.506-.379C225.562,29.868,225.733,29.994,225.9,30.122Z"/><path class="c" d="M227.3,31.415c-.129-.141-.262-.281-.4-.417C227.037,31.135,227.17,31.274,227.3,31.415Z"/><path class="c" d="M220.958,27.239c-.3-.136-.6-.271-.9-.4C220.36,26.968,220.662,27.1,220.958,27.239Z"/><path class="c" d="M201.692,19.288q-.5-.293-.96-.6Q201.2,19,201.692,19.288Z"/><path class="c" d="M221.974,27.726c-.184-.092-.373-.182-.561-.272C221.6,27.544,221.79,27.634,221.974,27.726Z"/><path class="c" d="M222.959,28.236c-.17-.092-.341-.183-.516-.273C222.618,28.053,222.789,28.144,222.959,28.236Z"/><path class="c" d="M223.928,28.786c-.173-.1-.346-.206-.525-.307C223.582,28.58,223.755,28.683,223.928,28.786Z"/><path class="c" d="M225.111,29.54c-.259-.18-.527-.355-.8-.528C224.583,29.184,224.852,29.36,225.111,29.54Z"/><path class="c" d="M199.421,17.748q-.424-.335-.81-.687C198.868,17.3,199.139,17.525,199.421,17.748Z"/><path class="c" d="M198.36,16.818c-.2-.191-.388-.385-.568-.584C197.972,16.433,198.163,16.627,198.36,16.818Z"/><path class="c" d="M208.779,22.551c2.444.94,4.993,1.823,7.432,2.741q-.657-.248-1.322-.493C212.861,24.055,210.784,23.322,208.779,22.551Z"/><path class="c" d="M200.575,18.59c-.365-.244-.716-.5-1.049-.755Q200.027,18.224,200.575,18.59Z"/><path class="c" d="M226.2,30.371c.145.122.287.245.424.37C226.486,30.616,226.344,30.493,226.2,30.371Z"/><path class="c" d="M223.4,28.479q-.219-.123-.444-.243Q223.184,28.356,223.4,28.479Z"/><path class="c" d="M222.443,27.963c-.155-.079-.311-.159-.469-.237C222.132,27.8,222.288,27.884,222.443,27.963Z"/><path class="c" d="M227.512,31.647c-.067-.078-.141-.155-.213-.232C227.371,31.492,227.445,31.569,227.512,31.647Z"/><path class="c" d="M202.006,19.467c-.1-.06-.211-.119-.314-.179C201.8,19.348,201.9,19.407,202.006,19.467Z"/><path class="c" d="M225.39,29.743c-.094-.067-.183-.137-.279-.2C225.207,29.606,225.3,29.676,225.39,29.743Z"/><path class="c" d="M226.9,31c-.089-.087-.181-.172-.274-.257C226.716,30.826,226.808,30.911,226.9,31Z"/><path class="c" d="M224.307,29.012c-.124-.077-.253-.151-.379-.226C224.054,28.861,224.183,28.936,224.307,29.012Z"/><path class="c" d="M225.9,30.122c.1.082.2.166.3.249C226.1,30.288,226,30.2,225.9,30.122Z"/><path class="c" d="M204.525,20.765c-.108-.05-.213-.1-.32-.152C204.312,20.664,204.417,20.715,204.525,20.765Z"/><path class="c" d="M199.526,17.835c-.036-.028-.069-.058-.105-.087C199.457,17.777,199.49,17.807,199.526,17.835Z"/><path class="c" d="M205.836,21.356l-.139-.062Z"/><path class="c" d="M200.732,18.689c-.051-.033-.106-.065-.157-.1C200.626,18.624,200.68,18.655,200.732,18.689Z"/><path class="c" d="M208.779,22.551l-.034-.013Z"/><path class="c" d="M203.25,20.14c-.118-.06-.236-.121-.352-.183C203.014,20.019,203.132,20.08,203.25,20.14Z"/><path class="c" d="M217.656,25.847l-.356-.139Z"/><path class="c" d="M220.055,26.835c-.153-.067-.308-.132-.462-.2C219.748,26.7,219.9,26.768,220.055,26.835Z"/><path class="c" d="M216.256,25.309l-.045-.017Z"/><path class="c" d="M197.792,16.234c-.088-.1-.173-.2-.257-.3C197.619,16.036,197.7,16.136,197.792,16.234Z"/><path class="c" d="M221.413,27.454c-.152-.071-.3-.144-.455-.215C221.112,27.31,221.261,27.383,221.413,27.454Z"/><path class="c" d="M218.846,26.324c-.142-.059-.285-.116-.428-.174C218.561,26.208,218.7,26.265,218.846,26.324Z"/><path class="c" d="M198.611,17.061c-.087-.08-.167-.162-.251-.243C198.444,16.9,198.524,16.981,198.611,17.061Z"/><path class="c" d="M247.713,36.8c-5.453.569-10.937,1.161-16.4,1.769a31.914,31.914,0,0,0-3.263-6.245c-.162-.227-.344-.454-.535-.673-.071-.076-.142-.152-.213-.236-.131-.135-.262-.278-.4-.413-.091-.085-.182-.169-.272-.262-.142-.119-.283-.245-.425-.364l-.3-.254c-.161-.127-.333-.254-.5-.373-.1-.068-.181-.144-.282-.2-.253-.187-.525-.357-.8-.527-.132-.077-.253-.153-.384-.23-.172-.1-.344-.2-.525-.306-.142-.086-.293-.163-.445-.248-.172-.085-.343-.179-.515-.273-.152-.077-.313-.153-.465-.23-.191-.094-.373-.188-.565-.274-.152-.077-.3-.145-.455-.213-.293-.137-.6-.274-.9-.411-.161-.06-.313-.129-.464-.2-.253-.1-.5-.206-.748-.309-.141-.06-.282-.12-.434-.171-.242-.1-.505-.206-.757-.308-.122-.043-.233-.095-.354-.138-.343-.136-.7-.265-1.05-.4a.1.1,0,0,1-.041-.017c-.434-.163-.879-.326-1.323-.489-2.03-.746-4.1-1.481-6.11-2.246-.011-.009-.021-.009-.031-.017-.99-.383-1.969-.774-2.909-1.18a1,1,0,0,0-.141-.059c-.394-.178-.788-.355-1.172-.533-.111-.05-.212-.1-.323-.152-.323-.151-.636-.312-.949-.472-.121-.059-.243-.126-.354-.185-.3-.16-.606-.32-.889-.488-.111-.059-.212-.118-.323-.177-.323-.2-.646-.394-.959-.6l-.152-.1c-.363-.243-.717-.494-1.05-.754a.737.737,0,0,1-.1-.084c-.283-.226-.556-.452-.818-.686-.081-.083-.162-.167-.243-.242-.2-.192-.394-.384-.576-.585-.08-.1-.171-.2-.252-.3-.162-.192-.313-.393-.455-.593-.08-.108-.151-.208-.222-.317-.141-.216-.272-.441-.394-.666-.05-.1-.11-.192-.161-.292a8.427,8.427,0,0,1-.4-1.016,34.846,34.846,0,0,1-1.778-10.206,18.994,18.994,0,0,1,.07-2.136q12.256.372,24.612.971c4.322,4.384,8.06,8.7,9.736,10.667C235.207,20.173,241.44,28.538,247.713,36.8Z"/><path class="c" d="M260.487,35.5q-3.182.315-6.392.643c-6.082-8.044-12.142-16.161-18.617-23.767-1.626-1.924-5.212-6.06-9.373-10.327q3.666.192,7.321.408c4,4.142,7.414,8.1,8.99,9.961C248.7,19.807,254.587,27.676,260.487,35.5Z"/></svg>