<svg xmlns="http://www.w3.org/2000/svg" viewBox="0 0 280.638 33.964"><defs><style>.a{fill:#ffdf69;}.b{fill:#3c2411;}</style></defs><title>cheese</title><path class="a" d="M14.815,6A113.478,113.478,0,0,0,7.236,26.25c.378-.061.751-.118,1.116-.174,3.585-.547,8.818-1.054,15.555-1.506,11.247-.756,26.914-1.383,46.565-1.865,33.418-.819,67.272-.935,67.61-.936h4.465c.348,0,34.2.117,67.619.936,19.65.482,35.317,1.109,46.564,1.865,6.738.452,11.971.959,15.555,1.506.365.056.739.113,1.116.174A113.317,113.317,0,0,0,265.822,6Z"/><path class="b" d="M280.455,29.807A114.155,114.155,0,0,0,270.27,1.541,3,3,0,0,0,267.648,0H12.989a3,3,0,0,0-2.621,1.541A114.108,114.108,0,0,0,.183,29.807,3.554,3.554,0,0,0,0,30.964,3,3,0,0,0,5.376,32.8c8.661-3.378,85.488-4.877,132.715-5.027h4.446c47.237.15,124.064,1.648,132.725,5.027a3,3,0,0,0,2.373,1.168,2.927,2.927,0,0,0,.323-.018,3,3,0,0,0,2.68-2.982A3.554,3.554,0,0,0,280.455,29.807Zm-8.17-3.731c-3.584-.547-8.817-1.054-15.555-1.506-11.247-.756-26.914-1.383-46.564-1.865-33.418-.819-67.271-.935-67.619-.936h-4.465c-.338,0-34.192.117-67.61.936-19.651.482-35.318,1.109-46.565,1.865-6.737.452-11.97.959-15.555,1.506-.365.056-.738.113-1.116.174A113.478,113.478,0,0,1,14.815,6H265.822A113.317,113.317,0,0,1,273.4,26.25C273.024,26.189,272.65,26.132,272.285,26.076Z"/></svg>