<svg xmlns="http://www.w3.org/2000/svg" viewBox="0 0 367.533 53.924"><defs><style>.a,.b{fill:#623307;}.b{fill-rule:evenodd;opacity:0.32;}.c{fill:#4a210b;}.d{fill:#452705;}.e{fill:#724b46;}.f{fill:#5e2a12;}.g{fill:#331604;}</style></defs><title>patty</title><path class="a" d="M367.43,12.094c0-1.09-.03-2.07-.11-2.97-.02-.24-.04-.48-.07-.71a5.968,5.968,0,0,0-.09-.63,9.174,9.174,0,0,0-.59-2.2.01.01,0,0,0-.01-.01,3.478,3.478,0,0,0-.21-.48,1.091,1.091,0,0,0-.06-.11.01.01,0,0,1,.01-.01,6.706,6.706,0,0,0-3.83-3.1h-.01c-2.16-.82-5.22-1.28-9.56-1.52-5.39-.32-12.75-.32-22.77-.32q-11.49,0-22.46-.01-4.245.015-8.41,0-16.59.015-31.98-.01-4.71.015-9.3,0H226.06c-3.14,0-6.23-.01-9.29-.01q-16.05,0-30.54,0-4.725,0-9.3.01-16.425,0-30.87.02c-3.26,0-6.45.01-9.57.01-10.54.02-20.27.05-29.25.09-3.02.01-5.95.03-8.8.04-10.86.06-20.52.15-29.12.25q-4.32.06-8.28.12c-34.81.55-49.88,1.65-56.33,3.81a1.006,1.006,0,0,0,.17.2,1.123,1.123,0,0,1-.18-.2c-.07.02-.13.05-.2.07a10.815,10.815,0,0,0-2.22,1.02.01.01,0,0,0-.01.01H2.26a.435.435,0,0,0-.07.04A4.986,4.986,0,0,0,.76,6.814a4.92,4.92,0,0,0-.26.43A5.492,5.492,0,0,0,0,9.794a35.521,35.521,0,0,0,.46,5.69,39.757,39.757,0,0,0,11.23,21.45c.23.23.45.45.68.67.33.32.66.63,1,.94l2.1,1.79h.01c6.61,5.28,14.49,8.4,21.84,8.4,17.23,0,230.23,9.09,282.47,0,12.62-2.19,21.93-4.76,28.78-7.57a54.424,54.424,0,0,0,6.18-2.95c.12-.06.23-.13.34-.19.33-.19.65-.37.95-.56,10.26-6.2,11.48-13.17,11.49-19.65C367.54,15.844,367.43,13.934,367.43,12.094Z"/><path class="b" d="M362.02,42.934v.04c0,6.04-79.8,10.95-178.25,10.95S5.52,49.014,5.52,42.974l.93-1.1.05-.06a.01.01,0,0,0,.01-.01,19.433,19.433,0,0,1,5.86-4.2c.33.32.66.63,1,.94l2.1,1.79h.01c6.61,5.28,14.49,8.4,21.84,8.4,17.23,0,230.23,9.09,282.47,0,12.62-2.19,21.93-4.76,28.78-7.57a54.424,54.424,0,0,0,6.18-2.95c.12-.06.23-.13.34-.19a20.451,20.451,0,0,1,5.73,3.66Z"/><path class="c" d="M348.568,41.168c-6.851,2.81-16.161,5.38-28.78,7.57-52.24,9.09-265.24,0-282.47,0-7.351,0-15.231-3.12-21.84-8.4,14.219,3.31,84.46,5.82,168.979,5.82C261.717,46.158,327.048,44.058,348.568,41.168Z"/><path class="a" d="M367.533,17.819c-.01,6.48-1.23,13.45-11.49,19.65q-.615.375-1.29.75a54.623,54.623,0,0,1-6.19,2.95c-.34.05-.68.09-1.04.14s-.72.08-1.1.13c-2.65.31-5.81.61-9.45.9l-1.58.12c-3.59.27-7.61.54-12.02.79-.87.05-1.75.09-2.65.14-1.54.09-3.13.17-4.76.25l-2.58.12q-4.41.21-9.18.4h-.06c-1.45.06-2.92.12-4.41.17-2.28.09-4.63.17-7.03.25-.2.01-.41.02-.61.02l-4.68.15c-1.79.06-3.61.11-5.46.16s-3.72.11-5.61.16c-3.79.1-7.69.19-11.68.28q-2.895.045-5.85.12L257,45.5q-8.925.18-18.39.3-4.365.06-8.82.11-3.33.045-6.72.07-10.455.105-21.37.14c-1.42.01-2.84.02-4.27.02q-6.42.015-12.98.02c-1.72,0-3.43,0-5.13-.01-1.71.01-3.41,0-5.1-.01a2.255,2.255,0,0,1-.26,0c-1.16,0-2.32-.01-3.47-.01-12.22-.04-24.07-.14-35.43-.27-.18-.01-.36-.01-.54-.01q-8.655-.1-16.89-.25h-.18q-4.845-.09-9.53-.18c-1.06-.02-2.12-.05-3.17-.07-2.09-.05-4.16-.09-6.21-.14-11.25-.27-21.68-.58-31.13-.95-.86-.03-1.71-.06-2.55-.1q-3.78-.15-7.35-.31c-.75-.03-1.49-.07-2.22-.1l-1.2-.06c-1.17-.05-2.32-.11-3.45-.17-1.55-.08-3.07-.16-4.55-.24-1.46-.08-2.87-.17-4.24-.25-1.03-.06-2.03-.13-3-.19-1.4-.09-2.74-.18-4.04-.28q-1.23-.09-2.4-.18c-.32-.03-.64-.05-.95-.08-1.08-.08-2.11-.17-3.11-.26-.98-.09-1.93-.18-2.83-.27-.45-.05-.89-.09-1.32-.14l-.85-.09c-.65-.07-1.27-.15-1.86-.22s-1.15-.15-1.68-.22l-.2-.03q-.42-.06-.81-.12a1.1,1.1,0,0,0-.18-.02c-.28-.05-.54-.09-.79-.13-.03-.01-.06-.01-.09-.02-.27-.04-.52-.09-.76-.13-.29-.05-.56-.11-.82-.16-.24-.05-.47-.1-.68-.15h-.01l-2.1-1.79c-.57-.52-1.13-1.05-1.68-1.61A39.757,39.757,0,0,1,.463,15.489,35.521,35.521,0,0,1,0,9.8a5.492,5.492,0,0,1,.5-2.55c3.71,2.84,17.72,5.45,39.03,7.57q5.43.555,11.48,1.06c9,.74,18.98,1.41,29.79,1.99h.01c3.42.18,6.91.36,10.49.52h.01c21.4,1,45.54,1.67,71.33,1.93h.03q10.125.09,20.58.1h.02c.89.01,1.79.01,2.69.01,18,0,35.4-.2,51.87-.58h.01q7.95-.18,15.58-.42h.04c23.95-.73,45.51-1.85,63.48-3.25h.01c1.17-.09,2.33-.18,3.47-.27a.41.41,0,0,1,.11-.01c22.53-1.86,38.98-4.18,46.79-6.77.08.9.11,1.88.11,2.97C367.433,13.939,367.543,15.849,367.533,17.819Z"/><path class="d" d="M15.478,40.338c-.72-.57-1.42-1.17-2.1-1.79Z"/><path class="e" d="M367.323,9.129c-7.81,2.59-24.26,4.91-46.79,6.77a.41.41,0,0,0-.11.01c-1.14.09-2.3.18-3.47.27h-.01c-17.97,1.4-39.53,2.52-63.48,3.25h-.04q-7.635.24-15.58.42h-.01c-16.47.38-33.87.58-51.87.58-.9,0-1.8,0-2.69-.01h-.02q-10.44,0-20.58-.1h-.03c-25.79-.26-49.93-.93-71.33-1.93H91.3c-3.58-.16-7.07-.34-10.49-.52H80.8c-10.81-.58-20.79-1.25-29.79-1.99q-6.045-.51-11.48-1.06C18.223,12.7,4.213,10.089.5,7.249a4.92,4.92,0,0,1,.26-.43A4.986,4.986,0,0,1,2.193,5.5a.435.435,0,0,1,.07-.04h.01a.01.01,0,0,1,.01-.01A10.815,10.815,0,0,1,4.5,4.429c.07-.02.13-.05.2-.07a3.527,3.527,0,0,0,1.5,1.02h.01a.01.01,0,0,0,.01.01h.01a5.718,5.718,0,0,0,.6.25c.11.04.23.08.34.12.19.07.39.13.59.2a1.543,1.543,0,0,1,.17.05c.13.04.27.08.41.12s.28.08.43.12c.44.12.92.24,1.43.36.34.08.7.16,1.07.24.43.09.88.18,1.35.28.34.06.68.13,1.04.19.43.08.87.15,1.33.23l.69.12c.23.03.47.07.72.11q.555.09,1.14.18c.37.05.74.1,1.12.16.74.1,1.5.21,2.28.31a1.1,1.1,0,0,0,.18.02c.28.04.56.08.85.11.95.12,1.93.24,2.95.36l1.63.18q2.895.315,6.12.62,2.565.24,5.34.48c.58.05,1.16.1,1.75.14.67.06,1.35.11,2.04.17.85.06,1.73.13,2.62.2,1.33.1,2.69.19,4.07.29.92.06,1.86.13,2.81.19s1.9.13,2.88.19q5.835.36,12.24.7h.01c.58.04,1.18.07,1.77.09q2.31.12,4.71.24l2.55.12c1.18.05,2.37.11,3.57.16l2.07.09h.01q7.95.33,16.51.62c1.12.04,2.25.08,3.39.11q7.74.24,15.91.45c1.85.05,3.71.09,5.59.13.82.02,1.65.04,2.48.05,4.07.09,8.22.17,12.42.24.44.01.88.01,1.32.02,2.21.03,4.43.07,6.67.1,12.3.17,25.08.26,38.2.27h2.26c2.13,0,4.24,0,6.35-.01s4.21-.01,6.3-.02c12.53-.05,24.71-.18,36.42-.37h.04l8.12-.15c2.1-.04,4.17-.09,6.22-.13.95-.02,1.9-.05,2.84-.07,1.9-.04,3.78-.09,5.65-.14.35-.01.69-.01,1.03-.03,1.29-.03,2.56-.06,3.83-.1s2.52-.07,3.77-.11,2.49-.08,3.73-.11l3.67-.12,1.8-.06,3.43-.12c3.04-.11,6.02-.23,8.94-.34,1.15-.05,2.28-.09,3.41-.14s2.24-.11,3.34-.15c.96-.05,1.91-.09,2.85-.13h.01c8.78-.42,16.9-.88,24.27-1.38,1.57-.11,3.09-.21,4.59-.32h.05c2.62-.2,5.14-.4,7.54-.6.56-.05,1.12-.1,1.67-.14.11-.02.21-.02.31-.03.37-.04.74-.07,1.11-.1l1.56-.15c.75-.07,1.48-.14,2.2-.21s1.44-.14,2.13-.22c.35-.04.7-.07,1.04-.11.42-.04.84-.08,1.24-.13.59-.06,1.17-.13,1.73-.2l1.04-.12c.41-.05.83-.1,1.23-.15.46-.06.92-.11,1.36-.17q3.105-.4,5.65-.83c.25-.04.48-.08.72-.12q.705-.12,1.35-.24a39.169,39.169,0,0,0,6.74-1.72,1.6,1.6,0,0,0,.23-.1.01.01,0,0,0,.01-.01h.01a.133.133,0,0,0,.08-.03,3.9,3.9,0,0,0,.41-.19,3.952,3.952,0,0,0,.41-.22l.06.12a3.478,3.478,0,0,1,.21.48.01.01,0,0,1,.01.01,9.174,9.174,0,0,1,.59,2.2,5.968,5.968,0,0,1,.09.63C367.283,8.649,367.3,8.889,367.323,9.129Z"/><path class="f" d="M366.3,4.978a7.316,7.316,0,0,1-1.15.55c-13.13,5.24-88.4,9.24-179.28,9.24-97.63,0-177.22-4.62-181.16-10.41,6.45-2.16,21.52-3.26,56.33-3.81q3.96-.06,8.28-.12c8.6-.1,18.26-.19,29.12-.25,2.85-.01,5.78-.03,8.8-.04,8.98-.04,18.71-.07,29.25-.09,3.12,0,6.31-.01,9.57-.01q14.46-.03,30.87-.02,4.575-.015,9.3-.01,14.5-.015,30.54,0c3.06,0,6.15.01,9.29.01h31.92q4.59.015,9.3,0,15.39.015,31.98.01,4.17.015,8.41,0,10.965.015,22.46.01c10.02,0,17.38,0,22.77.32,4.34.24,7.4.7,9.56,1.52h.01A6.706,6.706,0,0,1,366.3,4.978Z"/><path class="g" d="M69.316.428c-3.98,4.55-7.49,7.13-8.85,6.2-.96-.66-.67-2.93.57-6.08Q65,.488,69.316.428Z"/><path class="g" d="M107.236.138c-4.42,5.34-8.47,8.51-9.95,7.49-1.09-.75-.57-3.6,1.15-7.45C101.286.168,104.216.148,107.236.138Z"/><path class="g" d="M146.056.038c-5.16,6.83-10.24,11.19-11.95,10.02-1.31-.91-.27-4.89,2.38-10.01C139.606.048,142.8.038,146.056.038Z"/><path class="g" d="M186.226.008c-4.89,6.27-9.57,10.16-11.19,9.05-1.24-.85-.4-4.39,1.89-9.04Q181.5,0,186.226.008Z"/><path class="g" d="M226.056.018c-4.89,6.26-9.57,10.15-11.19,9.04-1.24-.85-.39-4.4,1.9-9.05C219.826.008,222.916.018,226.056.018Z"/><path class="g" d="M257.976.018c-2.28,4.65-3.12,8.19-1.89,9.04,1.62,1.11,6.31-2.78,11.19-9.04h-9.3Z"/><path class="g" d="M307.666.028c-4.12,4.8-7.8,7.56-9.19,6.6-1.01-.7-.63-3.18.78-6.6Q303.426.043,307.666.028Z"/></svg>