<svg xmlns="http://www.w3.org/2000/svg" viewBox="0 0 259.694 44.63"><defs><style>.a{fill:#3c2411;}.b{fill:#62370d;}.c{fill:#483115;}</style></defs><title>patty</title><path class="a" d="M237.379,0H22.315a22.315,22.315,0,0,0,0,44.63H237.379a22.315,22.315,0,1,0,0-44.63ZM22.315,38.63a16.315,16.315,0,0,1,0-32.63H237.379a16.315,16.315,0,0,1,0,32.63Z"/><path class="b" d="M239.065,13.471,208.5,34.77l-33.04-20.744L129.475,29.645,83.487,14.026,50.447,34.77l-30.561-21.3-12.9,3.32A16.269,16.269,0,0,0,22.315,38.63H237.379A16.274,16.274,0,0,0,252.788,17Z"/><path class="c" d="M50.447,34.77l33.04-20.744,45.988,15.619,45.989-15.619L208.5,34.77l30.561-21.3L252.788,17A16.331,16.331,0,0,0,237.379,6H22.315A16.327,16.327,0,0,0,6.983,16.791l12.9-3.32Z"/></svg>