<svg xmlns="http://www.w3.org/2000/svg" viewBox="0 0 416.582 59.29"><defs><style>.a{fill:#87af29;}.b{fill:none;}.c{fill:#bede71;}.d{fill:#63801e;}.e{fill:#001000;opacity:0.2;}</style></defs><title>salad</title><path class="a" d="M416.442,26.29v-.01L375.4,0l-16.63.01L43.1.09H30.962L0,22.65l5.66-.1h.02l8.37-.14,8.88-.15h.01l3.95-.07h.01l36.35-.62,5.46-.09,18.38,7.4h.01l14.37,5.79h.01l35.57,14.32.02.01.02.01.43.24.09-.03h.02l.06.03,66.23-12.03h.02l30.07-5.46,24.49,4.89h.01l63.1,12.6.21.04L341.2,32.7l5.99-5.13,5.98-5.12,25.9,1.6,8.76.54,11.45.71,17.3,1.07Z"/><polygon class="b" points="137.62 49.216 137.52 49.246 137.07 48.996 137.62 49.216"/><polygon class="b" points="323.03 48.036 321.82 49.286 321.63 49.236 323.03 48.036"/><polygon class="c" points="137.07 48.999 137.62 49.221 231.123 24.463 321.626 49.232 323.032 48.038 352.39 17.732 416.444 26.283 375.401 0.003 358.767 0.008 377.109 11.421 347.208 6.932 317.549 29.827 233.161 12.825 150.1 24.628 86.398 6.932 32.528 6.932 43.098 0.088 30.958 0.091 0 22.645 5.659 22.549 71.627 12.99 137.07 48.999"/><polygon class="a" points="377.11 11.416 347.21 6.936 317.55 29.826 233.16 12.826 150.1 24.626 86.4 6.936 32.53 6.936 43.1 0.086 358.77 0.006 377.11 11.416"/><polygon class="d" points="321.63 49.236 321.61 49.246 234.01 31.756 137.69 49.246 137.62 49.216 231.12 24.466 321.63 49.236"/><polygon class="d" points="416.582 26.37 399.282 25.3 387.832 24.59 379.072 24.05 353.172 22.45 347.142 27.57 341.092 32.71 323.032 48.04 337.622 32.98 342.552 27.89 352.392 17.74 386.042 22.23 387.242 22.39 416.442 26.29 416.582 26.37"/><polygon class="d" points="137.052 48.99 101.482 34.67 101.472 34.67 87.102 28.88 87.092 28.88 68.712 21.48 63.252 21.57 26.902 22.19 26.892 22.19 22.942 22.26 22.932 22.26 14.052 22.41 5.682 22.55 71.632 12.99 79.622 17.39 81.342 18.33 86.252 21.04 101.772 29.58 101.782 29.58 111.972 35.19 111.982 35.19 137.052 48.99"/><path class="e" d="M388.2,34.62l-35.03-2.17-31.35,26.84-87.81-17.53-96.32,17.49-.06-.03h-.02l-.09.03-.43-.24-.02-.01-.02-.01L71.682,32.68l-2.97-1.2-8.51.14-39.07.67a35.521,35.521,0,0,1-.46-5.69,5.492,5.492,0,0,1,.5-2.55,4.92,4.92,0,0,1,.26-.43,4.986,4.986,0,0,1,1.43-1.32.435.435,0,0,1,.07-.04l-8.88.15.01-.01,8.89-.15,3.92-.07h.01l36.37-.61,5.46-.09,18.38,7.4h.01l14.37,5.79h.01l35.57,14.32.02.01.02.01.43.24.09-.03h.02l.06.03,66.23-12.03h.02l30.07-5.46,24.49,4.89h.01l63.1,12.6v-.01h.02l.19.05L341.2,32.7l5.99-5.13,5.98-5.12,25.9,1.6,8.76.54a5.968,5.968,0,0,1,.09.63c.03.23.05.47.07.71.08.9.11,1.88.11,2.97C388.1,30.74,388.212,32.65,388.2,34.62Z"/></svg>