<svg xmlns="http://www.w3.org/2000/svg" viewBox="0 0 287.287 45.898"><defs><style>.a{fill:#3c2411;}.b{fill:#bede71;}.c{fill:#8ac740;}</style></defs><title>salad</title><path class="a" d="M286.783,27.924,269.037,1.334A3,3,0,0,0,266.542,0H20.745a3,3,0,0,0-2.5,1.334L.505,27.924a3,3,0,0,0,3.242,4.571l29.721-7.648L62.9,45.359a3,3,0,0,0,3.31.08L98.042,25.454l44.637,15.16a2.991,2.991,0,0,0,1.929,0l44.637-15.16,31.833,19.985a3,3,0,0,0,3.309-.08L253.82,24.847l29.72,7.648a3,3,0,0,0,3.243-4.571Zm-32.8-9.23a3,3,0,0,0-2.463.444L222.586,39.3,191.228,19.613a3.006,3.006,0,0,0-2.561-.3L143.643,34.6,98.62,19.313a3.006,3.006,0,0,0-2.56.3L64.7,39.3,35.769,19.138a3,3,0,0,0-2.462-.444L9.85,24.729,22.349,6H264.938l12.5,18.729Z"/><path class="b" d="M264.938,6H247.915l-25.243,8.854L194.651,6h-14.3l-36.709,6.274L106.934,6h-14.3L64.615,14.854,39.372,6H22.349L9.85,24.729l23.457-6.035a3,3,0,0,1,2.462.444L64.7,39.3,96.06,19.613a3.006,3.006,0,0,1,2.56-.3L143.643,34.6l45.024-15.292a3.006,3.006,0,0,1,2.561.3L222.586,39.3l28.933-20.163a3,3,0,0,1,2.463-.444l23.455,6.035Z"/><polygon class="c" points="143.644 12.274 180.353 6 106.934 6 143.644 12.274"/><polygon class="c" points="222.672 14.854 247.915 6 194.651 6 222.672 14.854"/><polygon class="c" points="92.636 6 39.372 6 64.615 14.854 92.636 6"/></svg>