<svg xmlns="http://www.w3.org/2000/svg" viewBox="0 0 349.841 41.433"><defs><style>.a,.d{fill:#c74e3c;}.b{fill:#83220b;}.c{fill:#b42b0d;}.d{opacity:0.15;}</style></defs><title>sauce</title><path class="a" d="M346.362,19.23c-6.905-5.078-23.151-13.893-39.757-16.467C290.394.259,261.164-.929,210.412.853c-16.991.594-32.957,2.516-46.722,3.156C137.453,5.22,108.677,5.244,83.278,5.267,50.95,5.3,10.784,5.348,4.6,9.028c-.9,1.025-1.618,1.934-2.189,2.726C-.081,15.177,0,16.586,0,16.61c.047,0,2.434,3.167,21.382,3.167h.489c13.672-.035,31.641-1.607,50.669-3.272,22.348-1.957,46.816-4.1,68.651-4.1a226.244,226.244,0,0,1,24.817,1.2c9.153,1.013,20.764,2.6,34.214,4.425,29.534,4.018,66.287,9.026,96.589,10.656,47.933,2.574,52.638-5.077,53.01-5.962C350.019,22.269,348.738,20.977,346.362,19.23Z"/><path class="b" d="M349.821,22.724c-.372.885-5.077,8.536-53.01,5.962-30.3-1.63-67.055-6.638-96.589-10.656-13.45-1.828-25.061-3.412-34.214-4.425a226.244,226.244,0,0,0-24.817-1.2c-21.835,0-46.3,2.142-68.651,4.1-19.028,1.665-37,3.237-50.669,3.272h-.489C2.434,19.777.047,16.61,0,16.61c0-.024-.081-1.433,2.411-4.857,2.655.886,8.07,1.934,18.971,1.934h.489c13.672-.035,31.641-1.619,50.669-3.273,22.348-1.956,46.816-4.1,68.651-4.1a226.492,226.492,0,0,1,24.817,1.2c9.153,1.014,20.764,2.6,34.214,4.426,29.534,4.018,66.287,9.013,96.589,10.656,31.536,1.688,44.358-1.037,49.551-3.366C348.738,20.977,350.019,22.269,349.821,22.724Z"/><path class="c" d="M346.362,19.23c-5.193,2.329-18.015,5.054-49.551,3.366-30.3-1.643-67.055-6.638-96.589-10.656-13.45-1.829-25.061-3.412-34.214-4.426a226.492,226.492,0,0,0-24.817-1.2c-21.835,0-46.3,2.143-68.651,4.1-19.028,1.654-37,3.238-50.669,3.273h-.489c-10.9,0-16.316-1.048-18.971-1.934.571-.791,1.293-1.7,2.189-2.725C10.784,5.348,50.95,5.3,83.278,5.267c25.4-.023,54.175-.047,80.412-1.258,13.765-.64,29.731-2.562,46.722-3.156,50.752-1.782,79.982-.594,96.193,1.91C323.211,5.337,339.457,14.152,346.362,19.23Z"/><ellipse class="a" cx="246.835" cy="2.665" rx="17.219" ry="2.548"/><path class="d" d="M163.2,13.333c98.684,14.05,76.882,20.508,82.556,25.58,4.17,3.728,20.186,2.219,20.246,2.213,16.039-1.762,48.966-4.64,78.314-15.012"/></svg>