<svg xmlns="http://www.w3.org/2000/svg" viewBox="0 0 373.672 35.137"><defs><style>.a{fill:none;}.b{fill:#681a16;}.c{fill:#991b02;}.d{fill:#ad1c04;}.e,.f{fill:#c74e3c;}.f{opacity:0.29;}</style></defs><title>tomatoes</title><path class="a" d="M245.235,21.71a16.433,16.433,0,0,0,2.583-8.547v-.028c.021-.482.019-.977,0-1.473h-.234C246.309,5.3,242.052.4,237.241.329Q187.42-.329,137.6.33c-2.78.038-5.359,1.688-7.3,4.278a17.265,17.265,0,0,0-2.716,5.693l-.446,0-.458.016c-1.079-5.69-4.711-9.76-9.18-9.668q-49.817.926-99.608,3.171a12.588,12.588,0,0,0-7.654,3.4,13.736,13.736,0,0,0-4,6.307,10.431,10.431,0,0,0-.253,1.093,8.968,8.968,0,0,0,8.479,10.813q50.793,2.291,101.621,3.236a9.428,9.428,0,0,0,7.464-4.02,17.459,17.459,0,0,0,3.343-8.631c.175,7.152,4.358,12.894,9.7,12.977q50.828.674,101.659,0a8.88,8.88,0,0,0,7.11-4.28,16.866,16.866,0,0,0,2.586-10.058c-.022-.51-.063-1-.125-1.5A16.433,16.433,0,0,1,245.235,21.71Zm-129.007,4a9.045,9.045,0,0,0,6.678-3.142A9.04,9.04,0,0,1,116.228,25.709Zm10.79-12.546a.625.625,0,0,0-.016.142c-.009-.043-.006-.1-.015-.142a18.318,18.318,0,0,1-1.981,6.416,18.318,18.318,0,0,0,1.981-6.416v-.014c.011-.028.013-.071.024-.1a.247.247,0,0,0,.007.085v.028c.228,7.094,4.386,12.737,9.677,12.8C131.4,25.9,127.245,20.257,127.018,13.163Z"/><path class="a" d="M368.948,14.625a10.431,10.431,0,0,0-.253-1.093c-1.455-5.142-6.473-9.438-11.651-9.71Q307.256,1.577,257.435.651a8.27,8.27,0,0,0-6.948,4.022,15.693,15.693,0,0,0-2.438,6.99h-.234c.021.5.063.991.124,1.473v.028c-.019.5-.018.991,0,1.5.322,7.818,5.23,14.133,10.905,14.01q50.825-.945,101.622-3.236a9.031,9.031,0,0,0,6.749-3.409A9.265,9.265,0,0,0,368.948,14.625Zm-4.022,6.96a8.74,8.74,0,0,0,1.916-1.772A8.74,8.74,0,0,1,364.926,21.585Z"/><path class="b" d="M126.893,14.664c-.02.453-.018.906-.007,1.359a17.459,17.459,0,0,1-3.343,8.631,9.428,9.428,0,0,1-7.464,4.02q-50.824-.945-101.621-3.236A8.968,8.968,0,0,1,5.979,14.625a10.431,10.431,0,0,1,.253-1.093,8.8,8.8,0,0,0,8.588,9.619q50.686,1.811,101.408,2.558a9.448,9.448,0,0,0,7.45-4.047,17.436,17.436,0,0,0,3.309-8.5c.009.043.006.1.015.142C126.952,13.758,126.912,14.211,126.893,14.664Z"/><path class="c" d="M126.984,14.664c-.019.453-.058.906-.1,1.359-.011-.453-.013-.906.007-1.359s.059-.906.109-1.359C127,13.758,127,14.211,126.984,14.664Z"/><path class="b" d="M247.943,14.664a16.866,16.866,0,0,1-2.586,10.058,8.88,8.88,0,0,1-7.11,4.28q-50.828.672-101.659,0c-5.344-.082-9.527-5.825-9.7-12.977.039-.453.079-.906.1-1.359s.018-.906.018-1.359a.625.625,0,0,1,.016-.142c.227,7.094,4.385,12.737,9.677,12.8q50.72.532,101.445,0a8.821,8.821,0,0,0,7.1-4.258,16.433,16.433,0,0,0,2.583-8.547C247.88,13.659,247.921,14.154,247.943,14.664Z"/><path class="c" d="M127,13.305c0,.453,0,.906-.018,1.359s-.058.906-.1,1.359c-.011-.453-.013-.906.007-1.359S126.952,13.758,127,13.305Z"/><path class="b" d="M368.948,14.625a9.265,9.265,0,0,1-1.729,7.4,9.031,9.031,0,0,1-6.749,3.409q-50.793,2.291-101.622,3.236c-5.675.123-10.583-6.192-10.9-14.01-.021-.51-.022-1,0-1.5.834,7.122,5.468,12.638,10.759,12.546q50.718-.747,101.408-2.558a8.917,8.917,0,0,0,6.735-3.338,9.061,9.061,0,0,0,1.853-6.281A10.431,10.431,0,0,1,368.948,14.625Z"/><path class="d" d="M126.988,13.149v.014a17.436,17.436,0,0,1-3.309,8.5,9.448,9.448,0,0,1-7.45,4.047Q65.512,24.962,14.82,23.151a8.8,8.8,0,0,1-8.588-9.619,13.736,13.736,0,0,1,4-6.307,12.588,12.588,0,0,1,7.654-3.4Q67.671,1.577,117.492.651c4.469-.092,8.1,3.978,9.18,9.668A17.8,17.8,0,0,1,126.988,13.149Z"/><path class="c" d="M127.112,11.662c-.019.453-.058.906-.1,1.359l0,.029c-.011.028-.013.071-.024.1a17.8,17.8,0,0,0-.316-2.83l.458-.016C127.13,10.756,127.132,11.209,127.112,11.662Z"/><path class="d" d="M247.817,13.135v.028a16.433,16.433,0,0,1-2.583,8.547,8.823,8.823,0,0,1-7.1,4.258q-50.719.533-101.445,0c-5.291-.067-9.449-5.71-9.677-12.8v-.028a18.723,18.723,0,0,1,.557-2.834,17.265,17.265,0,0,1,2.716-5.693c1.944-2.59,4.523-4.24,7.3-4.278q49.821-.66,99.646,0c4.811.072,9.068,4.966,10.34,11.332C247.683,12.143,247.755,12.639,247.817,13.135Z"/><path class="c" d="M127.13,10.3l.446,0a18.7,18.7,0,0,0-.557,2.834.247.247,0,0,1-.007-.085l0-.029c-.011-.452-.013-.905.007-1.358S127.08,10.756,127.13,10.3Z"/><path class="c" d="M247.815,11.662c.021.5.023.991,0,1.473-.062-.5-.134-.992-.236-1.474Z"/><path class="d" d="M368.7,13.532a9.05,9.05,0,0,1-1.853,6.281,8.915,8.915,0,0,1-6.735,3.338Q309.42,24.962,258.7,25.709c-5.291.092-9.925-5.424-10.759-12.546v-.028c.02-.5.049-.991.11-1.472a15.693,15.693,0,0,1,2.438-6.99A8.272,8.272,0,0,1,257.435.651q49.818.926,99.609,3.171C362.222,4.094,367.24,8.39,368.7,13.532Z"/><path class="c" d="M248.049,11.663c-.061.481-.091.976-.11,1.472-.061-.482-.1-.977-.124-1.473Z"/><path class="e" d="M61.166,21.59q-8.923-.165-17.848-.353c-3.746-.1-6.359-3.661-5.807-7.915h0c.553-4.254,4.022-7.843,7.711-7.969q8.805-.256,17.612-.481c3.688-.11,6.355,3.645,5.926,8.336h0C68.331,17.9,64.913,21.674,61.166,21.59Z"/><path class="e" d="M105.6,16.782q-9.817-.034-19.632-.077c-2.615-.018-4.531-2.788-4.257-6.155h0c.274-3.367,2.614-6.174,5.2-6.233q9.723-.2,19.449-.362c2.586-.048,4.543,2.826,4.348,6.384h0C110.509,13.9,108.211,16.8,105.6,16.782Z"/><path class="e" d="M189.165,21.6q-16.6,0-33.2-.063c-3.523-.017-6.3-4.1-6.163-9.069h0c.133-4.969,3.083-9.061,6.554-9.087q16.394-.1,32.788-.1c3.472,0,6.338,4.126,6.369,9.159h0C195.545,17.475,192.689,21.6,189.165,21.6Z"/><path class="e" d="M221.4,16.9q-3.458.006-6.915.009c-2.616,0-4.8-3.05-4.855-6.787h0c-.055-3.736,2.017-6.784,4.6-6.768q3.426.018,6.852.042c2.586.02,4.785,3.066,4.886,6.766h0C226.077,13.863,224.019,16.9,221.4,16.9Z"/><path class="e" d="M309.931,20.656q-15.925.245-31.856.427c-3.522.049-6.637-3.783-6.92-8.512h0c-.284-4.729,2.324-8.543,5.794-8.47q15.732.288,31.46.678c3.47.1,6.673,3.688,7.118,7.968h0C315.971,17.027,313.454,20.588,309.931,20.656Z"/><path class="e" d="M342.068,16.412l-5.877.039c-2.614.025-5.052-2.463-5.417-5.528h0c-.365-3.066,1.45-5.5,4.036-5.418q2.91.087,5.822.179c2.584.091,5.035,2.533,5.444,5.423h0C346.486,14,344.682,16.385,342.068,16.412Z"/><path class="e" d="M351.615,6.041q-2.352-.079-4.7-.156a6.238,6.238,0,0,1,5.473,5.3c.425,2.821-1.365,5.152-3.978,5.18l4.748-.033a4.147,4.147,0,0,0,3.956-5.084A6.233,6.233,0,0,0,351.615,6.041Z"/><path class="e" d="M31.891,13.883c.49-3.572,3.477-6.574,6.638-6.666q-4.739.117-9.475.242c-3.161.1-6.172,3-6.692,6.446s1.677,6.337,4.881,6.42,6.389.134,9.583.2C33.622,20.445,31.4,17.456,31.891,13.883Z"/><path class="f" d="M131.007,23.406q-.231-.231-.45-.478Q130.776,23.176,131.007,23.406Z"/><path class="f" d="M131.145,23.545a9.635,9.635,0,0,0,1.261,1.027A9.635,9.635,0,0,1,131.145,23.545Z"/><path class="f" d="M128.9,20.527a13.075,13.075,0,0,0,.971,1.551A13.075,13.075,0,0,1,128.9,20.527Z"/><path class="f" d="M132.6,24.7q.24.154.488.291Q132.837,24.85,132.6,24.7Z"/><path class="f" d="M363.728,24.684c-.1.041-.185.094-.283.132a9.355,9.355,0,0,1-2.975.622q-50.793,2.291-101.622,3.236a7.629,7.629,0,0,1-2.084-.246,9.289,9.289,0,0,1-3.775-2.071q-.427-.376-.829-.8a14.784,14.784,0,0,1-2.688-4.149q-.264-.6-.487-1.234c-.045-.128-.079-.262-.121-.391l-1.392-.021a15.191,15.191,0,0,1-2.115,4.965,10.613,10.613,0,0,1-3.151,3.1,8.431,8.431,0,0,1-.927.5,7.538,7.538,0,0,1-3.032.688q-50.828.672-101.659,0c-4.377-.067-7.975-3.933-9.23-9.26l-1.285.019a16.151,16.151,0,0,1-2.53,4.895,9.428,9.428,0,0,1-7.464,4.02q-12.706-.237-25.411-.557Q65.26,27.477,39.857,26.5q-12.7-.489-25.4-1.061a9.547,9.547,0,0,1-3.529-.872C3.861,25.4,0,26.3,0,27.234c0,4.364,83.649,7.9,186.836,7.9s186.836-3.539,186.836-7.9C373.672,26.342,370.172,25.484,363.728,24.684Z"/><path class="f" d="M134.849,25.706a7.548,7.548,0,0,0,.749.159A7.548,7.548,0,0,1,134.849,25.706Z"/><path class="f" d="M128.823,20.378c-.11-.213-.215-.432-.317-.654h0C128.606,19.947,128.713,20.165,128.823,20.378Z"/><path class="f" d="M135.822,25.9a7.427,7.427,0,0,0,.873.068A7.427,7.427,0,0,1,135.822,25.9Z"/><path class="f" d="M134.017,25.432c.239.094.481.178.728.249C134.5,25.61,134.256,25.526,134.017,25.432Z"/><path class="f" d="M133.307,25.106q.261.133.53.247Q133.568,25.239,133.307,25.106Z"/><polygon class="f" points="122.125 23.325 122.126 23.325 122.125 23.325 122.124 23.326 122.125 23.325"/><path class="f" d="M129.966,22.2q.214.287.441.553Q130.181,22.489,129.966,22.2Z"/><polygon class="f" points="118.559 25.367 118.561 25.366 118.557 25.367 118.555 25.368 118.559 25.367"/><polygon class="f" points="118.189 25.475 118.19 25.474 118.189 25.475 118.188 25.475 118.189 25.475"/><path class="f" d="M246.324,19.74a13.69,13.69,0,0,1-1.089,1.97,13.69,13.69,0,0,0,1.089-1.97Z"/><polygon class="f" points="117.539 25.601 117.542 25.6 117.54 25.601 117.537 25.601 117.539 25.601"/><polygon class="f" points="119.139 25.173 119.141 25.172 119.139 25.172 119.138 25.173 119.139 25.173"/><polygon class="f" points="120.966 24.216 120.969 24.213 120.966 24.215 120.963 24.218 120.966 24.216"/><polygon class="f" points="121.297 23.99 121.299 23.989 121.297 23.99 121.296 23.991 121.297 23.99"/><polygon class="f" points="119.513 25.017 119.515 25.016 119.513 25.017 119.511 25.018 119.513 25.017"/><polygon class="f" points="121.857 23.546 121.861 23.543 121.858 23.546 121.854 23.549 121.857 23.546"/><polygon class="f" points="120.426 24.556 120.428 24.555 120.425 24.556 120.424 24.557 120.426 24.556"/><polygon class="f" points="120.065 24.753 120.068 24.751 120.065 24.752 120.062 24.754 120.065 24.753"/></svg>