<svg xmlns="http://www.w3.org/2000/svg" viewBox="0 0 272.873 20.643"><defs><style>.a{fill:#f4616a;}.b{fill:#3c2411;}</style></defs><title>tomatoes</title><path class="a" d="M84.156,6H10.321a4.322,4.322,0,0,0,0,8.643H84.156a4.322,4.322,0,0,0,0-8.643Z"/><path class="b" d="M84.156,0H10.321a10.322,10.322,0,0,0,0,20.643H84.156A10.322,10.322,0,0,0,84.156,0Zm0,14.643H10.321a4.322,4.322,0,0,1,0-8.643H84.156a4.322,4.322,0,0,1,0,8.643Z"/><path class="a" d="M173.354,6H99.519a4.322,4.322,0,0,0,0,8.643h73.835a4.322,4.322,0,0,0,0-8.643Z"/><path class="b" d="M173.354,0H99.519a10.322,10.322,0,0,0,0,20.643h73.835a10.322,10.322,0,0,0,0-20.643Zm0,14.643H99.519a4.322,4.322,0,0,1,0-8.643h73.835a4.322,4.322,0,0,1,0,8.643Z"/><path class="a" d="M262.552,6H188.717a4.322,4.322,0,0,0,0,8.643h73.835a4.322,4.322,0,0,0,0-8.643Z"/><path class="b" d="M262.552,0H188.717a10.322,10.322,0,0,0,0,20.643h73.835a10.322,10.322,0,0,0,0-20.643Zm0,14.643H188.717a4.322,4.322,0,0,1,0-8.643h73.835a4.322,4.322,0,0,1,0,8.643Z"/></svg>