<svg xmlns="http://www.w3.org/2000/svg" viewBox="0 0 378.73 179.212"><defs><style>.a{fill:#f3c190;}.b{fill:#e0aa7c;}.c{fill:#f7cda3;}.d{fill:#f9e9cc;}</style></defs><title>topBun</title><path class="a" d="M378.73,142.232c0,.26-.01.51-.02.77-1.47,32.19-96.18,36.21-186.26,36.21S1.59,176.762.02,143.032c-.01-.26-.02-.53-.02-.8,0-2.75.07-5.47.22-8.14a3.97,3.97,0,0,0,.92,1.26,4.208,4.208,0,0,1-.91-1.26c.04-.76.09-1.52.14-2.27,2.43-34.61,16.95-62.55,38.99-83.93q4.38-4.245,9.14-8.14c55.47-45.48,224.28-45.21,280.48-.06.01.01.02.01.03.02,3.11,2.51,6.12,5.11,8.99,7.82l.01.01c22.77,21.49,37.83,49.59,40.35,84.24v.01q.09,1.155.15,2.31c0,.01-.01.01-.01.02C378.65,136.782,378.73,139.492,378.73,142.232Z"/><path class="b" d="M378.5,134.122v-.02a2.319,2.319,0,0,1-.2.38,2.857,2.857,0,0,1-.26.38,4.146,4.146,0,0,1-.45.5c-10.37,10.26-90.68,18.25-188.22,18.25-84.08,0-155.37-5.93-180.08-14.14-.46-.15-.91-.31-1.34-.47H7.94c-1.08-.39-2.05-.79-2.92-1.19H5.01c-.34-.16-.67-.32-.98-.48H4.02c-.31-.16-.6-.32-.87-.49H3.14c-.28-.16-.53-.32-.77-.49a8.716,8.716,0,0,1-1.23-1,3.97,3.97,0,0,1-.92-1.26c-.15,2.67-.22,5.39-.22,8.14,0,.27.01.54.02.8,1.57,33.73,102.35,36.18,192.43,36.18s184.79-4.02,186.26-36.21c.01-.26.02-.51.02-.77C378.73,139.492,378.65,136.782,378.5,134.122Z"/><path class="c" d="M339.46,52.352c0,19.04-67.46,34.47-150.67,34.47S38.11,71.392,38.11,52.352a9.049,9.049,0,0,1,1.25-4.46q4.38-4.245,9.14-8.14c55.47-45.48,224.28-45.21,280.48-.06.01.01.02.01.03.02,3.11,2.51,6.12,5.11,8.99,7.82l.01.01A9.241,9.241,0,0,1,339.46,52.352Z"/><path class="a" d="M378.51,134.1c0,.01-.01.01-.01.02a3.32,3.32,0,0,1-.46.74,4.146,4.146,0,0,1-.45.5c-10.37,10.26-90.68,18.25-188.22,18.25-84.08,0-155.37-5.93-180.08-14.14-.46-.16-.91-.31-1.34-.47H7.94c-1.08-.39-2.05-.79-2.92-1.19H5.01c-.34-.16-.67-.32-.98-.48H4.02c-.3-.17-.6-.33-.87-.49H3.14c-.27-.17-.53-.33-.77-.49a8.716,8.716,0,0,1-1.23-1,4.208,4.208,0,0,1-.91-1.26c.04-.76.09-1.52.14-2.27,2.43-34.61,16.95-62.55,38.99-83.93a9.049,9.049,0,0,0-1.25,4.46c0,19.04,67.46,34.47,150.68,34.47s150.67-15.43,150.67-34.47a9.241,9.241,0,0,0-1.45-4.81c22.77,21.49,37.83,49.59,40.35,84.24v.01Q378.45,132.947,378.51,134.1Z"/><path class="d" d="M259.625,17.24c-.76-3.243,2.245-6.058,7-6.049,5.761.01,6.609,2.887,8.087,6.11C271.563,22.054,261.161,23.8,259.625,17.24Z"/><path class="d" d="M160.408,5.966c2.806,3.524,6.568,7.589,12.54,6.232,4.345-.987,8.282-5.122,6.365-8.564C175.064-4,157.514,2.179,160.408,5.966Z"/><path class="d" d="M237.848,12.673C246.7,5.411,235.43-.641,226.757,2.238,213.82,6.531,229.378,19.13,237.848,12.673Z"/><path class="d" d="M66.8,34.957c-2.329-3.5.8-6.591,3.411-8.222.932-.583,12.051-2.306,10.594-.652a1.642,1.642,0,0,1,.923.052C89.743,29.753,73.6,45.159,66.8,34.957Z"/><path class="d" d="M79.925,26.724q-2.889-.393-3.507,1.313c.08.138,2.7-1.065,2.981.345C80.678,28.5,79.9,27.367,79.925,26.724Z"/><path class="d" d="M140.423,7.857c-4.854-3.267-6.686-2.3-11.545.071-3.391,1.653-6.667,1.884-5.627,5.065C127.218,25.121,150.585,13.418,140.423,7.857Z"/><path class="d" d="M296.19,29.261c.259-.286,6.251-2.51,7.542-2.389,3.712.345,7.329,5.577,6.934,8.144h0C306.134,45.982,289.328,36.831,296.19,29.261Z"/><path class="d" d="M302.649,32.123l0,0S302.653,32.121,302.649,32.123Z"/><path class="d" d="M302.7,32.163l-.049-.054v.013C302.672,32.135,302.684,32.149,302.7,32.163Z"/><path class="d" d="M200.636,8c-2.972,2.806-6.119,11.583,2.948,9.337a5.117,5.117,0,0,0,3.765-4.857C207.784,7.534,205.438,8.005,200.636,8Z"/><path class="d" d="M282.009,36c-10.735-4.479-21.827,6.709-10.054,10.643C280.267,49.418,289.081,41.877,282.009,36Z"/><path class="d" d="M293.489,50.467h.005c-.623,4.293,4.071,10.336,8.025,5.789C305.016,52.234,297.724,45.626,293.489,50.467Z"/><path class="d" d="M107.564,45.719c-8.5-1.175-20.932,8.023-9.159,12.545C106.5,61.372,116.443,50.118,107.564,45.719Z"/><path class="d" d="M108.878,35.01c2.968-3.173,7.195-7.216,2.863-10.933-3.046-2.614-8.764-1.912-11.76.518C92.335,30.8,101.092,35.985,108.878,35.01Z"/><path class="d" d="M139.087,34.739c3.771-4.712-5.351-8.548-9.73-6.271C121.847,32.371,132.53,40.01,139.087,34.739Z"/><path class="d" d="M182.285,29.253c9.245-1.1,8.493-14.078-3.447-11.624C166.722,20.119,175.056,35.365,182.285,29.253Z"/><path class="d" d="M160.491,45.626c5.17,1.635,9.187-2.876,4.478-6.019C160.076,36.341,155.142,42.158,160.491,45.626Z"/><path class="d" d="M230.575,35.4c7.529-4.137-5.924-12.79-12.265-9.965-3.831,1.706-5.194,6.244-2.3,8.994C219.432,37.679,226.4,36.37,230.575,35.4Z"/><path class="d" d="M135.806,53.344c-4.349.122-7.3-.076-5.957,4.726.926,3.319,3.617,4.418,7.275,3.9C144.355,60.935,143.167,53.137,135.806,53.344Z"/><path class="d" d="M191.444,45.633c-11.309-6.6-17.555,7.177-7.611,11.033a8.888,8.888,0,0,0,8.966-1.644C196.96,51.211,193.224,48.788,191.444,45.633Z"/><path class="d" d="M244.2,40.818c-.874,3.748-2.99,12.635,5.695,8.749,3.385-1.514,3.766-3.244,2.547-5.936C250.727,39.835,248.777,40.816,244.2,40.818Z"/><path class="d" d="M215.423,59.191c-4.925-.24-8.406,4.892-2.454,5.726C217.226,65.514,221.219,59.738,215.423,59.191Z"/><path class="d" d="M203.286,90.066c-1.671-4.344-2.63-8.223-9.143-8.237-5.373-.012-8.77,3.783-7.911,8.155C187.969,98.829,199.728,96.475,203.286,90.066Z"/><path class="d" d="M84.042,73.653c2.806,3.523,6.568,7.588,12.54,6.232,4.344-.987,8.281-5.123,6.365-8.565C98.7,63.688,81.147,69.866,84.042,73.653Z"/><path class="d" d="M167.946,81.429c8.85-7.261-2.418-13.313-11.091-10.434C143.919,75.288,159.476,87.887,167.946,81.429Z"/><path class="d" d="M218.768,86.939c-2.329-3.5.8-6.591,3.411-8.223.932-.582,12.051-2.3,10.594-.652a1.643,1.643,0,0,1,.923.053C241.711,81.735,225.566,97.141,218.768,86.939Z"/><path class="d" d="M231.893,78.706q-2.889-.393-3.506,1.313c.079.138,2.7-1.065,2.98.344C232.647,80.48,231.863,79.348,231.893,78.706Z"/><path class="d" d="M70.914,82.035c-4.854-3.266-6.687-2.3-11.545.072-3.391,1.652-6.667,1.884-5.627,5.064C57.709,99.3,81.076,87.6,70.914,82.035Z"/><path class="d" d="M211.48,102.621c.26-.286,6.251-2.51,7.543-2.39,3.711.346,7.328,5.578,6.933,8.144h0C221.425,119.341,204.618,110.191,211.48,102.621Z"/><path class="d" d="M217.94,105.482l0,0S217.944,105.481,217.94,105.482Z"/><path class="d" d="M217.993,105.523l-.05-.054v.012C217.962,105.5,217.974,105.509,217.993,105.523Z"/><path class="d" d="M127.276,81.364c-2.972,2.806-6.119,11.582,2.948,9.337a5.118,5.118,0,0,0,3.765-4.857C134.424,80.894,132.078,81.365,127.276,81.364Z"/><path class="d" d="M220.129,123.827h0c-.623,4.293,4.071,10.336,8.025,5.788C231.657,125.593,224.364,118.986,220.129,123.827Z"/><path class="d" d="M40.109,54.965c-8.5-1.175-20.932,8.024-9.159,12.545C39.041,70.618,48.987,59.365,40.109,54.965Z"/><path class="d" d="M247.814,64.457c-2.279,3.068.108,6.823,4.66,5.37,2.318-.74,3.2-2.169,2.689-3.933C254.479,63.524,250.238,64.473,247.814,64.457Z"/><path class="d" d="M63.046,110.306c3.772-4.711-5.351-8.547-9.73-6.271C45.806,107.939,56.489,115.578,63.046,110.306Z"/><path class="d" d="M105.089,102.221c9.245-1.1,8.493-14.078-3.446-11.624C89.527,93.087,97.861,108.333,105.089,102.221Z"/><path class="d" d="M87.131,118.986c5.17,1.635,9.188-2.876,4.478-6.019C86.717,109.7,81.782,115.517,87.131,118.986Z"/><path class="d" d="M13.765,91.078c5.17,1.635,9.187-2.876,4.478-6.019C13.351,81.793,8.416,87.609,13.765,91.078Z"/><path class="d" d="M151.879,112.441c7.529-4.137-5.924-12.79-12.265-9.966-3.83,1.706-5.194,6.245-2.3,9C140.736,114.722,147.7,113.414,151.879,112.441Z"/><path class="d" d="M173.106,93.907c-4.067-.76-15.833.069-9.953,6.238C168.466,105.719,173.335,97.862,173.106,93.907Z"/><path class="d" d="M34.917,77.748c-4.35.123-7.3-.076-5.958,4.726.926,3.319,3.617,4.419,7.276,3.9C43.465,85.339,42.277,77.541,34.917,77.748Z"/><path class="d" d="M118.084,118.993c-11.309-6.595-17.555,7.176-7.61,11.033a8.887,8.887,0,0,0,8.965-1.644C123.6,124.57,119.865,122.148,118.084,118.993Z"/><path class="d" d="M170.844,114.177c-.875,3.749-2.99,12.635,5.694,8.75,3.385-1.515,3.766-3.245,2.548-5.937C177.368,113.194,175.418,114.176,170.844,114.177Z"/><path class="d" d="M63.448,67.468c-.034-.236,4.226-1.4,2.011-3.826,1.958.542-1.313-5.42-1.51-5.612-.706-.691-5.661-1.978-5.262-1.364C48.841,52.994,53.516,73.489,63.448,67.468Z"/><path class="d" d="M52.09,43.092c-4.924-.24-8.405,4.892-2.453,5.726C53.894,49.415,57.887,43.639,52.09,43.092Z"/><path class="d" d="M319.67,70.343c3.747,2.5,8.57,5.223,13.844,2.11,3.836-2.265,6.324-7.4,3.449-10.1C330.588,56.383,315.759,67.619,319.67,70.343Z"/><path class="d" d="M299.312,69.311c-4.854-3.267-6.687-2.3-11.545.071-3.391,1.653-6.667,1.884-5.627,5.064C286.107,86.575,309.474,74.872,299.312,69.311Z"/><path class="d" d="M272.358,105.163c-8.5-1.175-20.932,8.024-9.159,12.545C271.289,120.816,281.236,109.563,272.358,105.163Z"/><path class="d" d="M256.643,96.464c2.968-3.173,7.2-7.216,2.863-10.933-3.047-2.614-8.764-1.912-11.76.518C240.1,92.251,248.857,97.439,256.643,96.464Z"/><path class="d" d="M295.3,98.4c3.771-4.712-5.351-8.548-9.73-6.271C278.055,96.033,288.738,103.672,295.3,98.4Z"/><path class="d" d="M349.118,87.368c9.245-1.1,8.493-14.078-3.447-11.624C333.555,78.234,341.889,93.48,349.118,87.368Z"/><path class="d" d="M313.973,95.487c8.25,4.315,14.963-6.815,3.726-11.538C306.3,79.156,304.555,96.444,313.973,95.487Z"/><path class="d" d="M294.7,114.8c-4.349.122-7.3-.076-5.957,4.726.926,3.319,3.616,4.418,7.275,3.9C303.244,122.389,302.056,114.591,294.7,114.8Z"/><path class="d" d="M356.892,98.734c-11.309-6.6-17.555,7.176-7.61,11.032a8.885,8.885,0,0,0,8.965-1.644C362.408,104.311,358.673,101.888,356.892,98.734Z"/><path class="d" d="M331.994,39.483c-.214.18-5.21-2.285-5.744.979-1.187-1.836-4.425,4.537-4.448,4.811-.083.986,3.007,5.578,3.286,4.873C330.077,60,347.068,43.063,331.994,39.483Z"/></svg>