<svg xmlns="http://www.w3.org/2000/svg" viewBox="0 0 378.732 185.633"><defs><style>.a{fill:none;}.b{fill:#e0aa7c;}.c{fill:#f7d5b2;}.d{fill:#f3c190;}.e{fill:#f9e9cc;}</style></defs><title>topBun</title><path class="a" d="M0,150.234c0-197.317,378.732-193.929,378.732,0,0,37.609-107.487,35.171-198.279,35.171S0,190.662,0,150.234Z"/><path class="b" d="M378.5,142.1c-4.79,10.86-87.64,19.51-189.14,19.51C87.84,161.61,4.97,152.96.22,142.09c-.15,2.67-.22,5.39-.22,8.14,0,40.43,89.66,35.18,180.45,35.18s198.28,2.43,198.28-35.18Q378.73,146.1,378.5,142.1Z"/><path class="c" d="M339.454,60.35c0,19.04-67.46,34.47-150.67,34.47S38.1,79.39,38.1,60.35a9.049,9.049,0,0,1,1.25-4.46q4.38-4.245,9.14-8.14c72.26-59.24,207.5-58.69,280.48-.06.01.01.02.01.03.02,3.11,2.51,6.12,5.11,8.99,7.82l.01.01A9.241,9.241,0,0,1,339.454,60.35Z"/><path class="d" d="M378.5,142.1c-4.79,10.86-87.64,19.51-189.14,19.51-101.52,0-184.39-8.65-189.14-19.52.04-.76.09-1.52.14-2.27,2.43-34.61,16.95-62.55,38.99-83.93a9.049,9.049,0,0,0-1.25,4.46c0,19.04,67.46,34.47,150.68,34.47s150.67-15.43,150.67-34.47A9.241,9.241,0,0,0,338,55.54c22.77,21.49,37.83,49.59,40.35,84.24v.01Q378.444,140.945,378.5,142.1Z"/><path class="e" d="M256.92,16.582c-.859-4.371,2.538-8.167,7.911-8.155,6.513.014,7.472,3.893,9.143,8.237C270.415,23.073,258.657,25.428,256.92,16.582ZM160.406,5.966c2.806,3.524,6.568,7.589,12.54,6.232,4.345-.987,8.282-5.122,6.365-8.564C175.062-4,157.512,2.179,160.406,5.966Zm78.268,8.591c8.851-7.262-2.417-13.314-11.091-10.435C214.647,8.415,230.205,21.014,238.674,14.557ZM68.8,36.957c-2.329-3.5.8-6.591,3.411-8.222.932-.583,12.051-2.306,10.594-.652a1.642,1.642,0,0,1,.923.052C91.741,31.753,75.6,47.159,68.8,36.957Zm13.125-8.233q-2.889-.393-3.507,1.313c.08.138,2.7-1.065,2.981.345C82.676,30.5,81.893,29.367,81.923,28.724Zm58.5-20.867c-4.854-3.267-6.686-2.3-11.545.071-3.391,1.653-6.667,1.884-5.627,5.065C127.216,25.121,150.583,13.418,140.421,7.857Zm155.767,21.4c.259-.286,6.251-2.51,7.542-2.389,3.712.345,7.329,5.577,6.934,8.144h0C306.132,45.982,289.326,36.831,296.188,29.261Zm6.459,2.862,0,0S302.651,32.121,302.647,32.123Zm.053.04-.049-.054v.013C302.67,32.135,302.682,32.149,302.7,32.163ZM200.634,8c-2.972,2.806-6.119,11.583,2.948,9.337a5.117,5.117,0,0,0,3.765-4.857C207.782,7.534,205.436,8.005,200.634,8ZM282.007,36c-10.735-4.479-21.827,6.709-10.054,10.643C280.265,49.418,289.079,41.877,282.007,36Zm11.48,14.471h0c-.622,4.293,4.072,10.336,8.026,5.789C305.014,52.234,297.722,45.626,293.487,50.467Zm-180.02-6.758c-8.5-1.175-20.932,8.024-9.159,12.546C112.4,59.362,122.345,48.109,113.467,43.709Zm-4.591-8.7c2.968-3.173,7.195-7.216,2.863-10.933-3.046-2.614-8.764-1.912-11.76.518C92.333,30.8,101.09,35.985,108.876,35.01ZM66.5,51.448c-2.279,3.068.107,6.824,4.66,5.371,2.318-.74,3.2-2.169,2.689-3.933C73.164,50.516,68.923,51.464,66.5,51.448Zm69.905-14.5c3.771-4.712-5.351-8.548-9.73-6.271C119.164,34.579,129.847,42.218,136.4,36.947Zm45.879-7.694c9.245-1.1,8.493-14.078-3.447-11.624C166.72,20.119,175.054,35.365,182.283,29.253ZM160.489,45.626c5.17,1.635,9.187-2.876,4.478-6.019C160.074,36.341,155.14,42.158,160.489,45.626ZM225.834,35c7.528-4.138-5.925-12.79-12.266-9.966-3.83,1.706-5.193,6.244-2.3,8.995C214.69,37.283,221.658,35.974,225.834,35Zm20.629-14.454c-4.067-.76-15.833.069-9.953,6.237C241.823,32.359,246.692,24.5,246.463,20.548ZM135.8,53.344c-4.349.122-7.3-.076-5.957,4.726.926,3.319,3.617,4.418,7.275,3.9C144.353,60.935,143.165,53.137,135.8,53.344Zm55.638-7.711c-11.309-6.6-17.555,7.177-7.611,11.033a8.888,8.888,0,0,0,8.966-1.644C196.958,51.211,193.222,48.788,191.442,45.633Zm36.686-2.894c-4.349-.077-6.6-3.5-11.16-.478a5.728,5.728,0,0,0-.7,9.045c2.766,2.528,9.185,3.318,12.311.918C232.74,49.03,228.815,46.244,228.128,42.739ZM244.2,40.818c-.874,3.748-2.99,12.635,5.695,8.749,3.385-1.514,3.766-3.244,2.547-5.936C250.725,39.835,248.775,40.816,244.2,40.818Zm-74.529,18.32c-.213.18-5.209-2.285-5.743.979-1.187-1.836-4.425,4.537-4.448,4.811-.083.986,3.007,5.578,3.285,4.874C167.756,79.654,184.747,62.718,169.672,59.138Zm45.749.053c-4.925-.24-8.406,4.892-2.454,5.726C217.224,65.514,221.217,59.738,215.421,59.191ZM200.614,90.024c-1.671-4.344-2.63-8.223-9.142-8.237-5.374-.012-8.77,3.783-7.912,8.155C185.3,98.787,197.056,96.433,200.614,90.024ZM87.046,79.326c2.806,3.523,6.569,7.588,12.541,6.232,4.344-.987,8.281-5.123,6.365-8.565C101.7,69.361,84.152,75.539,87.046,79.326Zm78.269,8.59c8.85-7.262-2.418-13.313-11.091-10.435C141.287,81.775,156.845,94.373,165.315,87.916Zm53.451-.977c-2.329-3.5.8-6.591,3.411-8.223.932-.582,12.051-2.3,10.594-.652a1.643,1.643,0,0,1,.923.053C241.709,81.735,225.564,97.141,218.766,86.939Zm13.125-8.233q-2.889-.393-3.506,1.313c.079.138,2.7-1.065,2.98.344C232.645,80.48,231.861,79.348,231.891,78.706Zm-164.83,2.51c-4.854-3.266-6.686-2.295-11.544.072-3.391,1.652-6.668,1.884-5.627,5.064C53.857,98.481,77.224,86.777,67.061,81.216Zm155.767,21.405c.259-.286,6.251-2.51,7.543-2.39,3.711.346,7.328,5.578,6.933,8.144h0C232.772,119.341,215.966,110.191,222.828,102.621Zm6.46,2.861,0,0S229.292,105.481,229.288,105.482Zm.053.041-.05-.054v.012C229.31,105.5,229.322,105.509,229.341,105.523ZM127.274,81.364c-2.972,2.806-6.119,11.582,2.948,9.337a5.118,5.118,0,0,0,3.765-4.857C134.422,80.894,132.076,81.365,127.274,81.364Zm81.373,27.992c-10.734-4.479-21.826,6.708-10.053,10.643C206.906,122.777,215.72,115.236,208.647,109.356Zm11.48,14.471h0c-.623,4.293,4.071,10.336,8.025,5.788C231.655,125.593,224.362,118.986,220.127,123.827ZM40.107,54.965c-8.5-1.175-20.932,8.024-9.159,12.545C39.039,70.618,48.985,59.365,40.107,54.965Zm-4.59,53.405c2.967-3.173,7.194-7.217,2.863-10.933-3.047-2.615-8.764-1.913-11.76.518C18.973,104.156,27.731,109.345,35.517,108.37Zm212.3-43.913c-2.279,3.068.108,6.823,4.66,5.37,2.318-.74,3.2-2.169,2.689-3.933C254.477,63.524,250.236,64.473,247.812,64.457ZM63.044,110.306c3.772-4.711-5.351-8.547-9.73-6.271C45.8,107.939,56.487,115.578,63.044,110.306Zm45.879-7.693c9.245-1.1,8.493-14.079-3.446-11.625C93.36,93.478,101.7,108.725,108.923,102.613ZM87.129,118.986c5.17,1.635,9.188-2.876,4.478-6.019C86.715,109.7,81.78,115.517,87.129,118.986ZM13.763,91.078c5.17,1.635,9.187-2.876,4.478-6.019C13.349,81.793,8.414,87.609,13.763,91.078Zm138.711,17.283c7.529-4.137-5.924-12.79-12.265-9.966-3.83,1.706-5.194,6.245-2.3,9C141.331,110.643,148.3,109.334,152.474,108.361ZM173.1,93.907c-4.067-.76-15.833.069-9.953,6.238C168.464,105.719,173.333,97.862,173.1,93.907ZM34.915,75.38c-4.35.122-7.3-.076-5.958,4.726.926,3.319,3.617,4.419,7.276,3.9C43.463,82.971,42.275,75.173,34.915,75.38Zm83.167,43.613c-11.309-6.595-17.555,7.176-7.61,11.033a8.887,8.887,0,0,0,8.965-1.644C123.6,124.57,119.863,122.148,118.082,118.993Zm36.686-2.894c-4.348-.078-6.6-3.5-11.16-.478a5.728,5.728,0,0,0-.7,9.045c2.766,2.528,9.185,3.318,12.311.918C159.381,122.389,155.455,119.6,154.768,116.1Zm16.074-1.922c-.875,3.749-2.99,12.635,5.694,8.75,3.385-1.515,3.766-3.245,2.548-5.937C177.366,113.194,175.416,114.176,170.842,114.177ZM58.208,58.47c-.214.18-5.209-2.285-5.744.979-1.187-1.836-4.425,4.537-4.448,4.811-.083.986,3.007,5.578,3.286,4.874C56.291,78.986,73.282,62.05,58.208,58.47Zm-6.12-15.378c-4.924-.24-8.405,4.892-2.453,5.726C53.892,49.415,57.885,43.639,52.088,43.092ZM319.3,67.42c2.806,3.523,6.568,7.589,12.54,6.232,4.344-.987,8.282-5.122,6.365-8.565C333.951,57.455,316.4,63.633,319.3,67.42ZM299.31,69.311c-4.854-3.267-6.687-2.3-11.545.071-3.391,1.653-6.667,1.884-5.627,5.064C286.105,86.575,309.472,74.872,299.31,69.311Zm-26.954,35.852c-8.5-1.175-20.932,8.024-9.159,12.545C271.287,120.816,281.234,109.563,272.356,105.163Zm-15.715-8.7c2.968-3.173,7.195-7.216,2.863-10.933-3.047-2.614-8.764-1.912-11.76.518C240.1,92.251,248.855,97.439,256.641,96.464ZM295.293,98.4c3.771-4.712-5.351-8.548-9.73-6.271C278.053,96.033,288.736,103.672,295.293,98.4Zm53.823-11.033c9.245-1.1,8.493-14.078-3.447-11.624C333.553,78.234,341.887,93.48,349.116,87.368Zm-31.891,3.706c9.245-1.1,8.493-14.078-3.446-11.624C301.662,81.94,310,97.187,317.225,91.074Zm2.153,16.006c5.169,1.635,9.187-2.876,4.478-6.019C318.963,97.8,314.028,103.612,319.378,107.08ZM294.693,114.8c-4.349.122-7.3-.076-5.957,4.726.926,3.319,3.616,4.418,7.275,3.9C303.242,122.389,302.054,114.591,294.693,114.8Zm62.2-16.064c-11.309-6.6-17.555,7.176-7.61,11.032a8.885,8.885,0,0,0,8.965-1.644C362.406,104.311,358.671,101.888,356.89,98.734Zm-28.9-59.251c-.214.18-5.21-2.285-5.744.979-1.187-1.836-4.425,4.537-4.448,4.811-.083.986,3.007,5.578,3.286,4.873C326.075,60,343.066,43.063,327.992,39.483Z"/></svg>