<svg xmlns="http://www.w3.org/2000/svg" viewBox="0 0 253.088 101.43"><defs><style>.a{fill:#f2bc86;}.b{fill:#d49d67;}.c{fill:#f1caa7;}.d{fill:#3c2411;}</style></defs><title>topBun</title><path class="a" d="M245.212,82.648c-4.35-18.156-16.161-35.162-34.317-49.02a128.93,128.93,0,0,0-25.471-15.041c-16.01,4.562-36.508,7.31-58.88,7.31s-42.87-2.748-58.88-7.31A128.921,128.921,0,0,0,42.193,33.628C24.037,47.487,12.227,64.492,7.876,82.648a988.607,988.607,0,0,0,118.668,6.978A988.619,988.619,0,0,0,245.212,82.648Z"/><path class="b" d="M247.021,95.43a67.83,67.83,0,0,0-1.809-12.782,988.619,988.619,0,0,1-118.668,6.978A988.607,988.607,0,0,1,7.876,82.648,67.83,67.83,0,0,0,6.067,95.43Z"/><path class="c" d="M185.424,18.587a144.009,144.009,0,0,0-117.76,0c16.01,4.562,36.507,7.31,58.88,7.31S169.414,23.149,185.424,18.587Z"/><rect class="a" x="72.963" y="70.665" width="5.473" height="10.034" rx="2.737" transform="translate(-24.074 114.455) rotate(-66.23)"/><path class="d" d="M73.621,72.027a2.747,2.747,0,0,0-2.513,1.632h0a2.746,2.746,0,0,0,1.4,3.608l4.174,1.838a2.707,2.707,0,0,0,1.095.231A2.747,2.747,0,0,0,80.291,77.7h0a2.745,2.745,0,0,0-1.4-3.608l-4.174-1.838a2.707,2.707,0,0,0-1.095-.231Z"/><path class="d" d="M214.535,28.858C190.508,10.519,158.436,0,126.544,0S62.581,10.519,38.553,28.858C13.691,47.834,0,72.542,0,98.43v3H253.088v-3C253.088,72.542,239.4,47.834,214.535,28.858ZM6.067,95.43C7.093,72.542,19.83,50.7,42.193,33.628,65.2,16.07,95.941,6,126.544,6S187.892,16.07,210.9,33.628c22.364,17.07,35.1,38.914,36.126,61.8Z"/><rect class="a" x="37.175" y="51.14" width="16.116" height="8.21" rx="4.105" transform="translate(-26.028 59.703) rotate(-54.27)"/><path class="d" d="M52.327,55.478h0M47.55,47.935a4.107,4.107,0,0,0-3.341,1.7l-4.617,6.418a4.105,4.105,0,0,0,6.665,4.794l4.616-6.417a4.117,4.117,0,0,0-.935-5.73,4.074,4.074,0,0,0-2.388-.768Z"/><path class="a" d="M112.062,38.354a.623.623,0,0,1-.489-.22.641.641,0,0,1,.083-.88l2.576-2.133a.591.591,0,0,1,.391-.138.627.627,0,0,1,.489.22.642.642,0,0,1-.083.88l-2.576,2.134A.6.6,0,0,1,112.062,38.354Z"/><path class="d" d="M117.421,38.971h0m-2.8-8.988a5.6,5.6,0,0,0-3.581,1.287L108.466,33.4a5.641,5.641,0,0,0-.743,7.92h0a5.641,5.641,0,0,0,7.92.743l2.576-2.133a5.642,5.642,0,0,0,.743-7.921h0a5.618,5.618,0,0,0-4.339-2.03Z"/><rect class="a" x="196.509" y="64.216" width="8.905" height="3.041" rx="1.52" transform="translate(43.552 206.906) rotate(-60)"/><path class="d" d="M209.772,67.437h0m-7.34-5.759a1.525,1.525,0,0,0-1.321.759l-2.932,5.078a1.524,1.524,0,0,0,.557,2.077,1.5,1.5,0,0,0,.755.2,1.523,1.523,0,0,0,1.321-.759l2.932-5.079a1.523,1.523,0,0,0-.556-2.076h0a1.51,1.51,0,0,0-.756-.2Z"/><rect class="a" x="150.15" y="24.079" width="5.777" height="11.859" rx="2.889" transform="translate(23.605 117.004) rotate(-45)"/><path class="d" d="M150.888,24.973a2.886,2.886,0,0,0-2.042,4.928l4.3,4.3a2.889,2.889,0,0,0,4.085-4.085l-4.3-4.3a2.879,2.879,0,0,0-2.043-.843Z"/><rect class="a" x="104.844" y="56.006" width="10.034" height="5.473" rx="2.737" transform="translate(0.714 118.801) rotate(-56.955)"/><path class="d" d="M117.193,60.792h0M111.112,54.1a2.739,2.739,0,0,0-2.3,1.242l-2.487,3.823a2.744,2.744,0,0,0,.8,3.786h0a2.741,2.741,0,0,0,3.786-.8l2.488-3.824a2.745,2.745,0,0,0-.8-3.786,2.714,2.714,0,0,0-1.485-.44Z"/><rect class="a" x="165.097" y="47.643" width="8.21" height="15.203" rx="4.105" transform="translate(30.629 166.953) rotate(-56.955)"/><path class="d" d="M166.281,49.237A4.111,4.111,0,0,0,162.83,51.1h0a4.117,4.117,0,0,0,1.2,5.68l5.862,3.813a4.115,4.115,0,0,0,5.679-1.2,4.118,4.118,0,0,0-1.2-5.68L168.509,49.9a4.072,4.072,0,0,0-2.228-.66Z"/><rect class="a" x="129.821" y="61.631" width="15.203" height="8.21" rx="4.105" transform="translate(-10.341 102.781) rotate(-39.638)"/><path class="d" d="M143.876,68.045h0m-3.766-8.64a4.083,4.083,0,0,0-2.614.94l-5.385,4.461a4.1,4.1,0,0,0,5.237,6.322l5.386-4.461a4.118,4.118,0,0,0,.542-5.78h0a4.1,4.1,0,0,0-3.166-1.482Z"/><rect class="a" x="75.616" y="49.089" width="9.426" height="5.625" rx="2.813" transform="translate(-11.667 25.762) rotate(-17.005)"/><path class="d" d="M84.249,58.219h0m-2.108-9.686a2.787,2.787,0,0,0-.817.123l-3.635,1.111a2.813,2.813,0,0,0,1.646,5.38l3.634-1.112a2.82,2.82,0,0,0,1.867-3.512h0a2.823,2.823,0,0,0-2.695-1.99Z"/><rect class="a" x="185.322" y="35.715" width="9.426" height="5.625" rx="2.813" transform="translate(-2.959 57.262) rotate(-17.005)"/><path class="d" d="M193.954,44.845h0m-2.107-9.685a2.786,2.786,0,0,0-.817.122L187.4,36.394a2.812,2.812,0,0,0,.828,5.5,2.786,2.786,0,0,0,.817-.122l3.635-1.112a2.82,2.82,0,0,0,1.867-3.512h0a2.822,2.822,0,0,0-2.695-1.989Z"/><rect class="a" x="119.223" y="16.767" width="9.426" height="5.625" rx="2.813" transform="matrix(0.956, -0.292, 0.292, 0.956, -0.308, 37.102)"/><path class="d" d="M127.856,25.9h0m-2.108-9.685a2.8,2.8,0,0,0-.817.122L121.3,17.446a2.812,2.812,0,1,0,1.645,5.379l3.634-1.111a2.812,2.812,0,0,0-.828-5.5Z"/><rect class="a" x="83.255" y="21.951" width="3.041" height="7.298" rx="1.52" transform="translate(3.16 59.967) rotate(-39.638)"/><path class="d" d="M83.416,22.442a1.518,1.518,0,0,0-1.169,2.488l2.716,3.279a1.52,1.52,0,0,0,2.341-1.94l-2.715-3.278a1.519,1.519,0,0,0-1.173-.549Z"/></svg>